<?xml version="1.0" encoding="UTF-8" standalone="no"?><svg xmlns="http://www.w3.org/2000/svg" xmlns:xlink="http://www.w3.org/1999/xlink" contentScriptType="application/ecmascript" contentStyleType="text/css" height="959px" preserveAspectRatio="none" style="width:1290px;height:959px;background:#FFFFFF;" version="1.1" viewBox="0 0 1290 959" width="1290px" zoomAndPan="magnify"><defs><filter height="300%" id="f127qqagyg5btw" width="300%" x="-1" y="-1"><feGaussianBlur result="blurOut" stdDeviation="2.0"/><feColorMatrix in="blurOut" result="blurOut2" type="matrix" values="0 0 0 0 0 0 0 0 0 0 0 0 0 0 0 0 0 0 .4 0"/><feOffset dx="4.0" dy="4.0" in="blurOut2" result="blurOut3"/><feBlend in="SourceGraphic" in2="blurOut3" mode="normal"/></filter></defs><g><ellipse cx="975.85" cy="16" fill="#000000" filter="url(#f127qqagyg5btw)" rx="10" ry="10" style="stroke:none;stroke-width:1.0;"/><g id="INIT_PROJECT"><rect fill="#FEFECE" filter="url(#f127qqagyg5btw)" height="50" rx="12.5" ry="12.5" style="stroke:#A80036;stroke-width:1.5;" width="116" x="917.85" y="126"/><line style="stroke:#A80036;stroke-width:1.5;" x1="917.85" x2="1033.85" y1="153.6094" y2="153.6094"/><text fill="#000000" font-family="sans-serif" font-size="14" lengthAdjust="spacing" textLength="96" x="927.85" y="145.5332">INIT_PROJECT</text></g><g id="PROJECT_MANAGEMENT"><rect fill="#FEFECE" filter="url(#f127qqagyg5btw)" height="50" rx="12.5" ry="12.5" style="stroke:#A80036;stroke-width:1.5;" width="188" x="571.85" y="295"/><line style="stroke:#A80036;stroke-width:1.5;" x1="571.85" x2="759.85" y1="322.6094" y2="322.6094"/><text fill="#000000" font-family="sans-serif" font-size="14" lengthAdjust="spacing" textLength="168" x="581.85" y="314.5332">PROJECT_MANAGEMENT</text></g><ellipse cx="815.85" cy="937" filter="url(#f127qqagyg5btw)" rx="10" ry="10" style="stroke:#000000;stroke-width:1.0;fill:none;"/><ellipse cx="816.35" cy="937.5" fill="#000000" rx="6" ry="6" style="stroke:none;stroke-width:1.0;"/><g id="USE_CASES_MANAGEMENT"><rect fill="#FEFECE" filter="url(#f127qqagyg5btw)" height="50" rx="12.5" ry="12.5" style="stroke:#A80036;stroke-width:1.5;" width="205" x="300.35" y="445.5"/><line style="stroke:#A80036;stroke-width:1.5;" x1="300.35" x2="505.35" y1="473.1094" y2="473.1094"/><text fill="#000000" font-family="sans-serif" font-size="14" lengthAdjust="spacing" textLength="185" x="310.35" y="465.0332">USE_CASES_MANAGEMENT</text></g><g id="MEMBER_MANAGEMENT"><rect fill="#FEFECE" filter="url(#f127qqagyg5btw)" height="50" rx="12.5" ry="12.5" style="stroke:#A80036;stroke-width:1.5;" width="183" x="417.35" y="787.5"/><line style="stroke:#A80036;stroke-width:1.5;" x1="417.35" x2="600.35" y1="815.1094" y2="815.1094"/><text fill="#000000" font-family="sans-serif" font-size="14" lengthAdjust="spacing" textLength="163" x="427.35" y="807.0332">MEMBER_MANAGEMENT</text></g><g id="ITERATION_MANAGEMENT"><rect fill="#FEFECE" filter="url(#f127qqagyg5btw)" height="50" rx="12.5" ry="12.5" style="stroke:#A80036;stroke-width:1.5;" width="196" x="641.85" y="620.5"/><line style="stroke:#A80036;stroke-width:1.5;" x1="641.85" x2="837.85" y1="648.1094" y2="648.1094"/><text fill="#000000" font-family="sans-serif" font-size="14" lengthAdjust="spacing" textLength="176" x="651.85" y="640.0332">ITERATION_MANAGEMENT</text></g><!--MD5=[0beee8d790b4e8c2423b9016cf64fe39]
link *start to INIT_PROJECT--><path d="M975.85,26.14 C975.85,45.34 975.85,90.55 975.85,120.71 " fill="none" id="*start-to-INIT_PROJECT" style="stroke:#A80036;stroke-width:1.0;"/><polygon fill="#A80036" points="975.85,125.79,979.85,116.79,975.85,120.79,971.85,116.79,975.85,125.79" style="stroke:#A80036;stroke-width:1.0;"/><path d="M980.85,61 L980.85,87 L1078.85,87 L1078.85,71 L1068.85,61 L980.85,61 " fill="#F5F5F5" filter="url(#f127qqagyg5btw)" style="stroke:#A80036;stroke-width:1.0;"/><path d="M1068.85,61 L1068.85,71 L1078.85,71 L1068.85,61 " fill="#F5F5F5" style="stroke:#A80036;stroke-width:1.0;"/><text fill="#000000" font-family="sans-serif" font-size="13" lengthAdjust="spacing" textLength="77" x="986.85" y="79.4951">Start System</text><!--MD5=[527cde2c353e83171b16348301466661]
link INIT_PROJECT to INIT_PROJECT--><path d="M1033.98,137.12 C1053.35,137.12 1068.85,141.75 1068.85,151 C1068.85,159.38 1056.12,163.97 1039.32,164.75 " fill="none" id="INIT_PROJECT-to-INIT_PROJECT" style="stroke:#A80036;stroke-width:1.0;"/><polygon fill="#A80036" points="1033.98,164.88,1043.0691,168.6733,1038.9787,164.7657,1042.8862,160.6754,1033.98,164.88" style="stroke:#A80036;stroke-width:1.0;"/><path d="M1073.85,136 L1073.85,162 L1231.85,162 L1231.85,146 L1221.85,136 L1073.85,136 " fill="#F5F5F5" filter="url(#f127qqagyg5btw)" style="stroke:#A80036;stroke-width:1.0;"/><path d="M1221.85,136 L1221.85,146 L1231.85,146 L1221.85,136 " fill="#F5F5F5" style="stroke:#A80036;stroke-width:1.0;"/><text fill="#000000" font-family="sans-serif" font-size="13" lengthAdjust="spacing" textLength="137" x="1079.85" y="154.4951">Delete project (if exists)</text><!--MD5=[41b9e55243be80dc00a33cd201fff53f]
link INIT_PROJECT to PROJECT_MANAGEMENT--><path d="M931.11,176.1 C873.75,207 774.63,260.4 715.15,292.44 " fill="none" id="INIT_PROJECT-to-PROJECT_MANAGEMENT" style="stroke:#A80036;stroke-width:1.0;"/><polygon fill="#A80036" points="710.59,294.9,720.4104,294.1512,714.9914,292.5278,716.6148,287.1089,710.59,294.9" style="stroke:#A80036;stroke-width:1.0;"/><path d="M879.85,211 L879.85,253 L1048.85,253 L1048.85,221 L1038.85,211 L879.85,211 " fill="#F5F5F5" filter="url(#f127qqagyg5btw)" style="stroke:#A80036;stroke-width:1.0;"/><path d="M1038.85,211 L1038.85,221 L1048.85,221 L1038.85,211 " fill="#F5F5F5" style="stroke:#A80036;stroke-width:1.0;"/><text fill="#000000" font-family="sans-serif" font-size="13" lengthAdjust="spacing" textLength="148" x="885.85" y="229.4951">Plan project (if not exists)</text><text fill="#000000" font-family="sans-serif" font-size="13" lengthAdjust="spacing" textLength="79" x="885.85" y="245.8467">Open Phases</text><!--MD5=[c02c40b750d3e845e0632776f8e9f2a3]
link INIT_PROJECT to *end--><path d="M1033.89,166.73 C1102.03,187.91 1205.85,234.12 1205.85,319 C1205.85,319 1205.85,319 1205.85,813.5 C1205.85,893.56 902.92,927.65 831.03,934.62 " fill="none" id="INIT_PROJECT-to-*end" style="stroke:#A80036;stroke-width:1.0;"/><polygon fill="#A80036" points="825.89,935.11,835.2274,938.2425,830.8677,934.638,834.4722,930.2782,825.89,935.11" style="stroke:#A80036;stroke-width:1.0;"/><text fill="#000000" font-family="sans-serif" font-size="13" lengthAdjust="spacing" textLength="76" x="1206.85" y="559.4951">closeSystem</text><!--MD5=[1946c804da0a85c03e9f8cbd0224f988]
link PROJECT_MANAGEMENT to *end--><path d="M759.94,335.83 C880.71,357.57 1074.85,402.88 1074.85,469.5 C1074.85,469.5 1074.85,469.5 1074.85,813.5 C1074.85,921.94 887.02,934.53 831.27,935.87 " fill="none" id="PROJECT_MANAGEMENT-to-*end" style="stroke:#A80036;stroke-width:1.0;"/><polygon fill="#A80036" points="826.01,935.97,835.0882,939.7892,831.009,935.87,834.9282,931.7908,826.01,935.97" style="stroke:#A80036;stroke-width:1.0;"/><text fill="#000000" font-family="sans-serif" font-size="13" lengthAdjust="spacing" textLength="76" x="1075.85" y="650.9951">closeSystem</text><!--MD5=[29cf821f00c3cf11149d81f90546f05a]
link USE_CASES_MANAGEMENT to *end--><path d="M387.56,495.64 C379.15,509.65 369,527.87 361.85,545 C329.24,623.14 320.75,644.16 308.85,728 C299.4,794.62 341.68,815.18 399.85,849 C539.2,930.02 743.65,936.12 800.62,936.16 " fill="none" id="USE_CASES_MANAGEMENT-to-*end" style="stroke:#A80036;stroke-width:1.0;"/><polygon fill="#A80036" points="805.67,936.15,796.6586,932.1757,800.67,936.1643,796.6815,940.1757,805.67,936.15" style="stroke:#A80036;stroke-width:1.0;"/><text fill="#000000" font-family="sans-serif" font-size="13" lengthAdjust="spacing" textLength="76" x="309.85" y="742.4951">closeSystem</text><!--MD5=[14851e53bea3e56053b0f79336a521a8]
link MEMBER_MANAGEMENT to *end--><path d="M565.97,837.56 C606.54,854.51 662.38,877.55 711.85,897 C743.81,909.56 781.64,923.52 801.7,930.85 " fill="none" id="MEMBER_MANAGEMENT-to-*end" style="stroke:#A80036;stroke-width:1.0;"/><polygon fill="#A80036" points="806.63,932.65,799.5522,925.8013,801.9344,930.9321,796.8036,933.3143,806.63,932.65" style="stroke:#A80036;stroke-width:1.0;"/><text fill="#000000" font-family="sans-serif" font-size="13" lengthAdjust="spacing" textLength="76" x="712.85" y="893.4951">closeSystem</text><!--MD5=[489b7949ade871d3427dc2ee5785e67f]
link ITERATION_MANAGEMENT to *end--><path d="M753.19,670.81 C761.39,686.67 771.5,708.07 777.85,728 C800.39,798.72 811.03,887.47 814.51,921.66 " fill="none" id="ITERATION_MANAGEMENT-to-*end" style="stroke:#A80036;stroke-width:1.0;"/><polygon fill="#A80036" points="815.01,926.67,818.0893,917.3149,814.5097,921.6951,810.1294,918.1155,815.01,926.67" style="stroke:#A80036;stroke-width:1.0;"/><text fill="#000000" font-family="sans-serif" font-size="13" lengthAdjust="spacing" textLength="76" x="805.85" y="817.9951">closeSystem</text><!--MD5=[dc3df7702568181c0104222c6aef8cad]
link PROJECT_MANAGEMENT to PROJECT_MANAGEMENT--><path d="M760.07,308.01 C780.25,309.2 794.85,313.2 794.85,320 C794.85,326.22 782.65,330.09 765.14,331.62 " fill="none" id="PROJECT_MANAGEMENT-to-PROJECT_MANAGEMENT" style="stroke:#A80036;stroke-width:1.0;"/><polygon fill="#A80036" points="760.07,331.99,769.3423,335.3103,765.0562,331.6185,768.748,327.3324,760.07,331.99" style="stroke:#A80036;stroke-width:1.0;"/><path d="M799.85,297 L799.85,339 L908.85,339 L908.85,307 L898.85,297 L799.85,297 " fill="#F5F5F5" filter="url(#f127qqagyg5btw)" style="stroke:#A80036;stroke-width:1.0;"/><path d="M898.85,297 L898.85,307 L908.85,307 L898.85,297 " fill="#F5F5F5" style="stroke:#A80036;stroke-width:1.0;"/><text fill="#000000" font-family="sans-serif" font-size="13" lengthAdjust="spacing" textLength="77" x="805.85" y="315.4951">Open phases</text><text fill="#000000" font-family="sans-serif" font-size="13" lengthAdjust="spacing" textLength="88" x="805.85" y="331.8467">Open Iterations</text><!--MD5=[0945ce71b978b2ba344871af57103361]
link PROJECT_MANAGEMENT to USE_CASES_MANAGEMENT--><path d="M571.74,334.93 C537.13,343.33 499.05,356.72 468.85,378 C446.08,394.05 428.24,420.51 416.88,440.86 " fill="none" id="PROJECT_MANAGEMENT-to-USE_CASES_MANAGEMENT" style="stroke:#A80036;stroke-width:1.0;"/><polygon fill="#A80036" points="414.41,445.37,422.2394,439.3951,416.8103,440.9838,415.2215,435.5546,414.41,445.37" style="stroke:#A80036;stroke-width:1.0;"/><text fill="#000000" font-family="sans-serif" font-size="13" lengthAdjust="spacing" textLength="95" x="469.85" y="392.4951">Open use cases</text><!--MD5=[0aef1b589c6e19253e2c35c86f30eeaa]
link USE_CASES_MANAGEMENT to PROJECT_MANAGEMENT--><path d="M467.75,445.34 C499.46,432.44 537.64,415.26 569.85,396 C592.81,382.28 616.5,363.81 634.61,348.64 " fill="none" id="USE_CASES_MANAGEMENT-to-PROJECT_MANAGEMENT" style="stroke:#A80036;stroke-width:1.0;"/><polygon fill="#A80036" points="638.62,345.26,629.1611,348.0041,634.7977,348.4833,634.3184,354.1198,638.62,345.26" style="stroke:#A80036;stroke-width:1.0;"/><text fill="#000000" font-family="sans-serif" font-size="13" lengthAdjust="spacing" textLength="88" x="595.85" y="392.4951">Open Iterations</text><!--MD5=[f986a0ed20412ada5c9f0808f51806ac]
link PROJECT_MANAGEMENT to MEMBER_MANAGEMENT--><path d="M571.59,322.23 C445.46,325.46 229.97,337.02 163.85,378 C88.73,424.57 80.88,460.23 55.85,545 C29.94,632.79 6,635.06 163.85,746 C203.1,773.58 324.46,792.01 412.15,802.11 " fill="none" id="PROJECT_MANAGEMENT-to-MEMBER_MANAGEMENT" style="stroke:#A80036;stroke-width:1.0;"/><polygon fill="#A80036" points="417.35,802.7,408.8515,797.7225,412.3811,802.1431,407.9605,805.6728,417.35,802.7" style="stroke:#A80036;stroke-width:1.0;"/><text fill="#000000" font-family="sans-serif" font-size="13" lengthAdjust="spacing" textLength="89" x="56.85" y="559.4951">Open members</text><!--MD5=[c3c08e3dd11249a9fa5f3fd98de30647]
link MEMBER_MANAGEMENT to PROJECT_MANAGEMENT--><path d="M417.2,802 C342.44,792.3 244.93,774.56 217.85,746 C31.26,549.13 164.62,607.97 186.85,545 C240.1,394.19 442.7,344.9 566.72,328.8 " fill="none" id="MEMBER_MANAGEMENT-to-PROJECT_MANAGEMENT" style="stroke:#A80036;stroke-width:1.0;"/><polygon fill="#A80036" points="571.83,328.15,562.3983,325.3139,566.8697,328.779,563.4047,333.2504,571.83,328.15" style="stroke:#A80036;stroke-width:1.0;"/><text fill="#000000" font-family="sans-serif" font-size="13" lengthAdjust="spacing" textLength="88" x="187.85" y="559.4951">Open Iterations</text><!--MD5=[d6f5c1b2637899d44bb5034004230627]
link PROJECT_MANAGEMENT to ITERATION_MANAGEMENT--><path d="M743.2,345.07 C781.13,361.33 823.03,387.09 843.85,426 C862.52,460.88 856.98,477.69 843.85,515 C829.62,555.44 796.84,592.59 771.86,616.63 " fill="none" id="PROJECT_MANAGEMENT-to-ITERATION_MANAGEMENT" style="stroke:#A80036;stroke-width:1.0;"/><polygon fill="#A80036" points="768.23,620.08,777.5055,616.7687,771.8503,616.6314,771.9877,610.9762,768.23,620.08" style="stroke:#A80036;stroke-width:1.0;"/><path d="M860.85,455.5 L860.85,481.5 L962.85,481.5 L962.85,465.5 L952.85,455.5 L860.85,455.5 " fill="#F5F5F5" filter="url(#f127qqagyg5btw)" style="stroke:#A80036;stroke-width:1.0;"/><path d="M952.85,455.5 L952.85,465.5 L962.85,465.5 L952.85,455.5 " fill="#F5F5F5" style="stroke:#A80036;stroke-width:1.0;"/><text fill="#000000" font-family="sans-serif" font-size="13" lengthAdjust="spacing" textLength="81" x="866.85" y="473.9951">Open iteration</text><!--MD5=[fd93d9a4e06309489bee365fc24cf244]
link ITERATION_MANAGEMENT to PROJECT_MANAGEMENT--><path d="M737.79,620.46 C733.25,573.11 720.53,464.84 692.85,378 C689.85,368.58 685.61,358.72 681.38,349.89 " fill="none" id="ITERATION_MANAGEMENT-to-PROJECT_MANAGEMENT" style="stroke:#A80036;stroke-width:1.0;"/><polygon fill="#A80036" points="679.03,345.11,679.4017,354.9518,681.2317,349.5992,686.5844,351.4291,679.03,345.11" style="stroke:#A80036;stroke-width:1.0;"/><text fill="#000000" font-family="sans-serif" font-size="13" lengthAdjust="spacing" textLength="88" x="724.85" y="475.9951">Open iterations</text><!--MD5=[b4679ac36b7da762d19c85c06303ed0a]
link USE_CASES_MANAGEMENT to USE_CASES_MANAGEMENT--><path d="M505.39,455.76 C525.8,457.42 540.35,462.33 540.35,470.5 C540.35,477.97 528.2,482.71 510.52,484.74 " fill="none" id="USE_CASES_MANAGEMENT-to-USE_CASES_MANAGEMENT" style="stroke:#A80036;stroke-width:1.0;"/><polygon fill="#A80036" points="505.39,485.24,514.7354,488.3485,510.3664,484.7552,513.9597,480.3862,505.39,485.24" style="stroke:#A80036;stroke-width:1.0;"/><path d="M545.35,431 L545.35,506 L683.35,506 L683.35,441 L673.35,431 L545.35,431 " fill="#F5F5F5" filter="url(#f127qqagyg5btw)" style="stroke:#A80036;stroke-width:1.0;"/><path d="M673.35,431 L673.35,441 L683.35,441 L673.35,431 " fill="#F5F5F5" style="stroke:#A80036;stroke-width:1.0;"/><text fill="#000000" font-family="sans-serif" font-size="13" lengthAdjust="spacing" textLength="117" x="551.35" y="449.4951">Prioritize Use cases</text><text fill="#000000" font-family="sans-serif" font-size="13" lengthAdjust="spacing" textLength="95" x="551.35" y="465.8467">Create use case</text><text fill="#000000" font-family="sans-serif" font-size="13" lengthAdjust="spacing" textLength="98" x="551.35" y="482.1982">Update use case</text><text fill="#000000" font-family="sans-serif" font-size="13" lengthAdjust="spacing" textLength="94" x="551.35" y="498.5498">Delete use case</text><!--MD5=[7f0ca5ec0d6efecd4dd7fe795845c31e]
link USE_CASES_MANAGEMENT to MEMBER_MANAGEMENT--><path d="M391.97,495.62 C374.32,538.49 344.42,629.86 375.85,698 C393.06,735.31 429.25,764.89 459.54,784.49 " fill="none" id="USE_CASES_MANAGEMENT-to-MEMBER_MANAGEMENT" style="stroke:#A80036;stroke-width:1.0;"/><polygon fill="#A80036" points="463.96,787.31,458.5397,779.0868,459.7499,784.6127,454.2241,785.8229,463.96,787.31" style="stroke:#A80036;stroke-width:1.0;"/><text fill="#000000" font-family="sans-serif" font-size="13" lengthAdjust="spacing" textLength="89" x="376.85" y="650.9951">Open members</text><!--MD5=[712bf7324cee2564fe417166196f31fd]
link MEMBER_MANAGEMENT to USE_CASES_MANAGEMENT--><path d="M507.31,787.22 C504.12,746.16 494.95,660.85 470.85,593 C458.9,559.33 438.08,524.04 422.62,500.22 " fill="none" id="MEMBER_MANAGEMENT-to-USE_CASES_MANAGEMENT" style="stroke:#A80036;stroke-width:1.0;"/><polygon fill="#A80036" points="419.8,495.91,421.3639,505.6339,422.5305,500.0986,428.0657,501.2651,419.8,495.91" style="stroke:#A80036;stroke-width:1.0;"/><text fill="#000000" font-family="sans-serif" font-size="13" lengthAdjust="spacing" textLength="95" x="496.85" y="650.9951">Open use cases</text><!--MD5=[4e5f6c47674a68933e9b969fb41899e0]
link USE_CASES_MANAGEMENT to ITERATION_MANAGEMENT--><path d="M422.28,495.68 C440.27,516.51 468.87,545.84 499.85,563 C546.06,588.59 564.76,576.23 614.85,593 C636.89,600.38 660.58,609.75 681.35,618.47 " fill="none" id="USE_CASES_MANAGEMENT-to-ITERATION_MANAGEMENT" style="stroke:#A80036;stroke-width:1.0;"/><polygon fill="#A80036" points="686.01,620.44,679.2675,613.2609,681.4018,618.4997,676.1631,620.634,686.01,620.44" style="stroke:#A80036;stroke-width:1.0;"/><text fill="#000000" font-family="sans-serif" font-size="13" lengthAdjust="spacing" textLength="81" x="500.85" y="559.4951">Open iteration</text><!--MD5=[cdd5d5c010083b4a33fb9c2bc1e48cd3]
link ITERATION_MANAGEMENT to USE_CASES_MANAGEMENT--><path d="M706.97,620.4 C676.74,598.9 630.17,567.46 586.85,545 C551.93,526.89 511.48,510.29 477.42,497.47 " fill="none" id="ITERATION_MANAGEMENT-to-USE_CASES_MANAGEMENT" style="stroke:#A80036;stroke-width:1.0;"/><polygon fill="#A80036" points="472.44,495.6,479.4625,502.5054,477.1216,497.3556,482.2715,495.0148,472.44,495.6" style="stroke:#A80036;stroke-width:1.0;"/><text fill="#000000" font-family="sans-serif" font-size="13" lengthAdjust="spacing" textLength="95" x="617.85" y="559.4951">Open use cases</text><!--MD5=[7e800483ea4728c31a6a606c8313e425]
link MEMBER_MANAGEMENT to MEMBER_MANAGEMENT--><path d="M600.39,799 C620.62,800.27 635.35,804.77 635.35,812.5 C635.35,819.57 623.04,823.94 605.48,825.6 " fill="none" id="MEMBER_MANAGEMENT-to-MEMBER_MANAGEMENT" style="stroke:#A80036;stroke-width:1.0;"/><polygon fill="#A80036" points="600.39,826,609.6717,829.2939,605.3751,825.6143,609.0547,821.3177,600.39,826" style="stroke:#A80036;stroke-width:1.0;"/><path d="M640.35,781 L640.35,840 L753.35,840 L753.35,791 L743.35,781 L640.35,781 " fill="#F5F5F5" filter="url(#f127qqagyg5btw)" style="stroke:#A80036;stroke-width:1.0;"/><path d="M743.35,781 L743.35,791 L753.35,791 L743.35,781 " fill="#F5F5F5" style="stroke:#A80036;stroke-width:1.0;"/><text fill="#000000" font-family="sans-serif" font-size="13" lengthAdjust="spacing" textLength="89" x="646.35" y="799.4951">Create member</text><text fill="#000000" font-family="sans-serif" font-size="13" lengthAdjust="spacing" textLength="92" x="646.35" y="815.8467">Update member</text><text fill="#000000" font-family="sans-serif" font-size="13" lengthAdjust="spacing" textLength="88" x="646.35" y="832.1982">Delete member</text><!--MD5=[f05238d23e0b5dc2c521b4fefde91dbe]
link MEMBER_MANAGEMENT to ITERATION_MANAGEMENT--><path d="M586.27,787.48 C612.18,777.21 640.2,763.48 662.85,746 C688.15,726.49 709.67,696.79 723.48,674.92 " fill="none" id="MEMBER_MANAGEMENT-to-ITERATION_MANAGEMENT" style="stroke:#A80036;stroke-width:1.0;"/><polygon fill="#A80036" points="726.13,670.66,717.9764,676.1843,723.4864,674.904,724.7668,680.4141,726.13,670.66" style="stroke:#A80036;stroke-width:1.0;"/><text fill="#000000" font-family="sans-serif" font-size="13" lengthAdjust="spacing" textLength="88" x="680.85" y="742.4951">Open iterations</text><!--MD5=[27c79ead8fede707e690f0ea3911b16e]
link ITERATION_MANAGEMENT to MEMBER_MANAGEMENT--><path d="M678.82,670.56 C635.62,688.37 582.22,712.18 563.85,728 C546.42,743.01 532.3,764.86 522.73,782.45 " fill="none" id="ITERATION_MANAGEMENT-to-MEMBER_MANAGEMENT" style="stroke:#A80036;stroke-width:1.0;"/><polygon fill="#A80036" points="520.15,787.28,527.9025,781.2055,522.494,782.8635,520.8361,777.4551,520.15,787.28" style="stroke:#A80036;stroke-width:1.0;"/><text fill="#000000" font-family="sans-serif" font-size="13" lengthAdjust="spacing" textLength="89" x="564.85" y="742.4951">Open members</text><!--MD5=[ab269cfb68f6ac2fe38e05a50eac59cf]
link ITERATION_MANAGEMENT to ITERATION_MANAGEMENT--><path d="M837.87,629.22 C858.22,630.93 872.85,636.36 872.85,645.5 C872.85,653.86 860.63,659.11 842.98,661.26 " fill="none" id="ITERATION_MANAGEMENT-to-ITERATION_MANAGEMENT" style="stroke:#A80036;stroke-width:1.0;"/><polygon fill="#A80036" points="837.87,661.78,847.2251,664.8593,842.8449,661.2797,846.4245,656.8994,837.87,661.78" style="stroke:#A80036;stroke-width:1.0;"/><path d="M877.85,598 L877.85,689 L1012.85,689 L1012.85,608 L1002.85,598 L877.85,598 " fill="#F5F5F5" filter="url(#f127qqagyg5btw)" style="stroke:#A80036;stroke-width:1.0;"/><path d="M1002.85,598 L1002.85,608 L1012.85,608 L1002.85,598 " fill="#F5F5F5" style="stroke:#A80036;stroke-width:1.0;"/><text fill="#000000" font-family="sans-serif" font-size="13" lengthAdjust="spacing" textLength="84" x="883.85" y="616.4951">Assign activity</text><text fill="#000000" font-family="sans-serif" font-size="13" lengthAdjust="spacing" textLength="114" x="883.85" y="632.8467">Re-estimate activity</text><text fill="#000000" font-family="sans-serif" font-size="13" lengthAdjust="spacing" textLength="70" x="883.85" y="649.1982">Split activity</text><text fill="#000000" font-family="sans-serif" font-size="13" lengthAdjust="spacing" textLength="80" x="883.85" y="665.5498">Merge activity</text><text fill="#000000" font-family="sans-serif" font-size="13" lengthAdjust="spacing" textLength="79" x="883.85" y="681.9014">Close Activity</text><!--MD5=[1ad133e5f6b0fe66133e5566b9bb8901]
@startuml

skinparam {
    NoteBackgroundColor #whiteSmoke
}

[*] - -> INIT_PROJECT
 note on link
    Start System
 end note

 INIT_PROJECT - -> INIT_PROJECT
    note on link
        Delete project (if exists)
    end note

INIT_PROJECT -down-> PROJECT_MANAGEMENT
    note on link
        Plan project (if not exists)
        Open Phases
    end note

INIT_PROJECT            -down-> [*] : closeSystem
PROJECT_MANAGEMENT          -down-> [*] : closeSystem
USE_CASES_MANAGEMENT    -down-> [*] : closeSystem
MEMBER_MANAGEMENT       -down-> [*] : closeSystem
ITERATION_MANAGEMENT      -down-> [*] : closeSystem

PROJECT_MANAGEMENT - -> PROJECT_MANAGEMENT
    note on link
        Open phases
        Open Iterations
    end note
PROJECT_MANAGEMENT - -> USE_CASES_MANAGEMENT : Open use cases
PROJECT_MANAGEMENT - -> MEMBER_MANAGEMENT    : Open members
PROJECT_MANAGEMENT - -> ITERATION_MANAGEMENT
    note on link
        Open iteration
    end note
USE_CASES_MANAGEMENT - -> USE_CASES_MANAGEMENT
    note on link
        Prioritize Use cases
        Create use case
        Update use case
        Delete use case
    end note
USE_CASES_MANAGEMENT - -> PROJECT_MANAGEMENT         : Open Iterations
USE_CASES_MANAGEMENT - -> MEMBER_MANAGEMENT      : Open members
USE_CASES_MANAGEMENT - -> ITERATION_MANAGEMENT     : Open iteration

MEMBER_MANAGEMENT - -> MEMBER_MANAGEMENT
    note on link
        Create member
        Update member
        Delete member
    end note
MEMBER_MANAGEMENT - -> PROJECT_MANAGEMENT        : Open Iterations
MEMBER_MANAGEMENT - -> USE_CASES_MANAGEMENT  : Open use cases
MEMBER_MANAGEMENT - -> ITERATION_MANAGEMENT    : Open iterations

ITERATION_MANAGEMENT - -> ITERATION_MANAGEMENT
    note on link
        Assign activity
        Re-estimate activity
        Split activity
        Merge activity
        Close Activity
    end note
ITERATION_MANAGEMENT - -> PROJECT_MANAGEMENT : Open iterations
ITERATION_MANAGEMENT - -> MEMBER_MANAGEMENT : Open members
ITERATION_MANAGEMENT - -> USE_CASES_MANAGEMENT : Open use cases
@enduml

PlantUML version 1.2021.11(Sat Oct 02 15:26:11 CEST 2021)
(GPL source distribution)
Java Runtime: OpenJDK Runtime Environment
JVM: OpenJDK 64-Bit Server VM
Default Encoding: Cp1252
Language: en
Country: GB
--></g></svg>