<?xml version="1.0" encoding="UTF-8" standalone="no"?><svg xmlns="http://www.w3.org/2000/svg" xmlns:xlink="http://www.w3.org/1999/xlink" contentScriptType="application/ecmascript" contentStyleType="text/css" height="564px" preserveAspectRatio="none" style="width:1213px;height:564px;background:#FFFFFF;" version="1.1" viewBox="0 0 1213 564" width="1213px" zoomAndPan="magnify"><defs><filter height="300%" id="frtthda0efylz" width="300%" x="-1" y="-1"><feGaussianBlur result="blurOut" stdDeviation="1.0"/><feColorMatrix in="blurOut" result="blurOut2" type="matrix" values="0 0 0 0 0 0 0 0 0 0 0 0 0 0 0 0 0 0 .4 0"/><feOffset dx="2.0" dy="2.0" in="blurOut2" result="blurOut3"/><feBlend in="SourceGraphic" in2="blurOut3" mode="normal"/></filter></defs><g><rect fill="#FFFFFF" height="558.3867" style="stroke:#A80036;stroke-width:0.5;" width="22.5" x="0.5" y="3"/><rect fill="#DDFFE8" height="558.3867" style="stroke:#A80036;stroke-width:0.5;" width="826.75" x="39.25" y="3"/><text fill="#000000" font-family="sans-serif" font-size="6.5" font-weight="bold" lengthAdjust="spacing" textLength="35.5" x="434.875" y="9.0334">Front End</text><rect fill="#DDF2FF" height="558.3867" style="stroke:#A80036;stroke-width:0.5;" width="343" x="867" y="3"/><text fill="#000000" font-family="sans-serif" font-size="6.5" font-weight="bold" lengthAdjust="spacing" textLength="34" x="1021.5" y="9.0334">Back End</text><line style="stroke:#A80036;stroke-width:0.5;stroke-dasharray:5.0,5.0;" x1="11.5" x2="11.5" y1="53.0117" y2="518.2383"/><line style="stroke:#A80036;stroke-width:0.5;stroke-dasharray:5.0,5.0;" x1="64.25" x2="64.25" y1="53.0117" y2="518.2383"/><line style="stroke:#A80036;stroke-width:0.5;stroke-dasharray:5.0,5.0;" x1="129.5" x2="129.5" y1="53.0117" y2="518.2383"/><line style="stroke:#A80036;stroke-width:0.5;stroke-dasharray:5.0,5.0;" x1="264.75" x2="264.75" y1="53.0117" y2="518.2383"/><line style="stroke:#A80036;stroke-width:0.5;stroke-dasharray:5.0,5.0;" x1="427.5" x2="427.5" y1="53.0117" y2="518.2383"/><line style="stroke:#A80036;stroke-width:0.5;stroke-dasharray:5.0,5.0;" x1="475.5" x2="475.5" y1="53.0117" y2="518.2383"/><line style="stroke:#A80036;stroke-width:0.5;stroke-dasharray:5.0,5.0;" x1="519" x2="519" y1="53.0117" y2="518.2383"/><line style="stroke:#A80036;stroke-width:0.5;stroke-dasharray:5.0,5.0;" x1="605" x2="605" y1="53.0117" y2="518.2383"/><line style="stroke:#A80036;stroke-width:0.5;stroke-dasharray:5.0,5.0;" x1="674.5" x2="674.5" y1="53.0117" y2="518.2383"/><line style="stroke:#A80036;stroke-width:0.5;stroke-dasharray:5.0,5.0;" x1="748.75" x2="748.75" y1="53.0117" y2="518.2383"/><line style="stroke:#A80036;stroke-width:0.5;stroke-dasharray:5.0,5.0;" x1="849" x2="849" y1="53.0117" y2="518.2383"/><line style="stroke:#A80036;stroke-width:0.5;stroke-dasharray:5.0,5.0;" x1="886" x2="886" y1="53.0117" y2="518.2383"/><line style="stroke:#A80036;stroke-width:0.5;stroke-dasharray:5.0,5.0;" x1="987.5" x2="987.5" y1="53.0117" y2="518.2383"/><line style="stroke:#A80036;stroke-width:0.5;stroke-dasharray:5.0,5.0;" x1="1042.5" x2="1042.5" y1="53.0117" y2="518.2383"/><line style="stroke:#A80036;stroke-width:0.5;stroke-dasharray:5.0,5.0;" x1="1079" x2="1079" y1="53.0117" y2="518.2383"/><line style="stroke:#A80036;stroke-width:0.5;stroke-dasharray:5.0,5.0;" x1="1113" x2="1113" y1="53.0117" y2="518.2383"/><line style="stroke:#A80036;stroke-width:0.5;stroke-dasharray:5.0,5.0;" x1="1151.5" x2="1151.5" y1="53.0117" y2="518.2383"/><line style="stroke:#A80036;stroke-width:0.5;stroke-dasharray:5.0,5.0;" x1="1190.5" x2="1190.5" y1="53.0117" y2="518.2383"/><text fill="#000000" font-family="sans-serif" font-size="7" lengthAdjust="spacing" textLength="15.5" x="2.5" y="51.3608">user</text><ellipse cx="11.75" cy="16.3633" fill="#FEFECE" filter="url(#frtthda0efylz)" rx="4" ry="4" style="stroke:#A80036;stroke-width:1.0;"/><path d="M11.75,20.3633 L11.75,33.8633 M5.25,24.3633 L18.25,24.3633 M11.75,33.8633 L5.25,41.3633 M11.75,33.8633 L18.25,41.3633 " fill="none" filter="url(#frtthda0efylz)" style="stroke:#A80036;stroke-width:1.0;"/><text fill="#000000" font-family="sans-serif" font-size="7" lengthAdjust="spacing" textLength="15.5" x="2.5" y="524.2358">user</text><ellipse cx="11.75" cy="530.8867" fill="#FEFECE" filter="url(#frtthda0efylz)" rx="4" ry="4" style="stroke:#A80036;stroke-width:1.0;"/><path d="M11.75,534.8867 L11.75,548.3867 M5.25,538.8867 L18.25,538.8867 M11.75,548.3867 L5.25,555.8867 M11.75,548.3867 L18.25,555.8867 " fill="none" filter="url(#frtthda0efylz)" style="stroke:#A80036;stroke-width:1.0;"/><text fill="#000000" font-family="sans-serif" font-size="7" font-style="italic" lengthAdjust="spacing" textLength="43" x="41.25" y="43.2124">«Template»</text><text fill="#000000" font-family="sans-serif" font-size="7" lengthAdjust="spacing" textLength="22" x="51.75" y="51.3608">XHtml</text><ellipse cx="64.25" cy="28.7148" fill="#F2AC4E" filter="url(#frtthda0efylz)" rx="6" ry="6" style="stroke:#000000;stroke-width:1.0;"/><line style="stroke:#000000;stroke-width:1.0;" x1="58.25" x2="70.25" y1="35.7148" y2="35.7148"/><text fill="#000000" font-family="sans-serif" font-size="7" font-style="italic" lengthAdjust="spacing" textLength="43" x="41.25" y="524.2358">«Template»</text><text fill="#000000" font-family="sans-serif" font-size="7" lengthAdjust="spacing" textLength="22" x="51.75" y="532.3843">XHtml</text><ellipse cx="64.25" cy="542.0352" fill="#F2AC4E" filter="url(#frtthda0efylz)" rx="6" ry="6" style="stroke:#000000;stroke-width:1.0;"/><line style="stroke:#000000;stroke-width:1.0;" x1="58.25" x2="70.25" y1="549.0352" y2="549.0352"/><text fill="#000000" font-family="sans-serif" font-size="7" font-style="italic" lengthAdjust="spacing" textLength="50.5" x="103" y="43.2124">«Component»</text><text fill="#000000" font-family="sans-serif" font-size="7" lengthAdjust="spacing" textLength="42" x="107.25" y="51.3608">XTypescript</text><ellipse cx="129.75" cy="28.7148" fill="#B5BD68" filter="url(#frtthda0efylz)" rx="6" ry="6" style="stroke:#718C00;stroke-width:1.0;"/><polygon fill="#718C00" points="127.75,22.7148,130.75,20.2148,129.75,22.7148,130.75,25.2148,127.75,22.7148" style="stroke:#718C00;stroke-width:0.5;"/><text fill="#000000" font-family="sans-serif" font-size="7" font-style="italic" lengthAdjust="spacing" textLength="50.5" x="103" y="524.2358">«Component»</text><text fill="#000000" font-family="sans-serif" font-size="7" lengthAdjust="spacing" textLength="42" x="107.25" y="532.3843">XTypescript</text><ellipse cx="129.75" cy="542.0352" fill="#B5BD68" filter="url(#frtthda0efylz)" rx="6" ry="6" style="stroke:#718C00;stroke-width:1.0;"/><polygon fill="#718C00" points="127.75,536.0352,130.75,533.5352,129.75,536.0352,130.75,538.5352,127.75,536.0352" style="stroke:#718C00;stroke-width:0.5;"/><text fill="#000000" font-family="sans-serif" font-size="7" font-style="italic" lengthAdjust="spacing" textLength="35.5" x="245.5" y="35.064">«Service»</text><text fill="#000000" font-family="sans-serif" font-size="7" font-style="italic" lengthAdjust="spacing" textLength="15.5" x="255.5" y="43.2124">«in»</text><text fill="#000000" font-family="sans-serif" font-size="7" lengthAdjust="spacing" textLength="42" x="242.25" y="51.3608">XTypescript</text><ellipse cx="264.75" cy="20.5664" fill="#B5BD68" filter="url(#frtthda0efylz)" rx="6" ry="6" style="stroke:#718C00;stroke-width:1.0;"/><polygon fill="#718C00" points="262.75,14.5664,265.75,12.0664,264.75,14.5664,265.75,17.0664,262.75,14.5664" style="stroke:#718C00;stroke-width:0.5;"/><text fill="#000000" font-family="sans-serif" font-size="7" font-style="italic" lengthAdjust="spacing" textLength="35.5" x="245.5" y="524.2358">«Service»</text><text fill="#000000" font-family="sans-serif" font-size="7" font-style="italic" lengthAdjust="spacing" textLength="15.5" x="255.5" y="532.3843">«in»</text><text fill="#000000" font-family="sans-serif" font-size="7" lengthAdjust="spacing" textLength="42" x="242.25" y="540.5327">XTypescript</text><ellipse cx="264.75" cy="550.1836" fill="#B5BD68" filter="url(#frtthda0efylz)" rx="6" ry="6" style="stroke:#718C00;stroke-width:1.0;"/><polygon fill="#718C00" points="262.75,544.1836,265.75,541.6836,264.75,544.1836,265.75,546.6836,262.75,544.1836" style="stroke:#718C00;stroke-width:0.5;"/><text fill="#000000" font-family="sans-serif" font-size="7" font-style="italic" lengthAdjust="spacing" textLength="47.5" x="402.5" y="35.064">«ViewModel»</text><text fill="#000000" font-family="sans-serif" font-size="7" font-style="italic" lengthAdjust="spacing" textLength="20.5" x="416" y="43.2124">«out»</text><text fill="#000000" font-family="sans-serif" font-size="7" lengthAdjust="spacing" textLength="42" x="405.25" y="51.3608">XTypescript</text><ellipse cx="427.75" cy="20.5664" fill="#B5BD68" filter="url(#frtthda0efylz)" rx="6" ry="6" style="stroke:#718C00;stroke-width:1.0;"/><polygon fill="#718C00" points="425.75,14.5664,428.75,12.0664,427.75,14.5664,428.75,17.0664,425.75,14.5664" style="stroke:#718C00;stroke-width:0.5;"/><text fill="#000000" font-family="sans-serif" font-size="7" font-style="italic" lengthAdjust="spacing" textLength="47.5" x="402.5" y="524.2358">«ViewModel»</text><text fill="#000000" font-family="sans-serif" font-size="7" font-style="italic" lengthAdjust="spacing" textLength="20.5" x="416" y="532.3843">«out»</text><text fill="#000000" font-family="sans-serif" font-size="7" lengthAdjust="spacing" textLength="42" x="405.25" y="540.5327">XTypescript</text><ellipse cx="427.75" cy="550.1836" fill="#B5BD68" filter="url(#frtthda0efylz)" rx="6" ry="6" style="stroke:#718C00;stroke-width:1.0;"/><polygon fill="#718C00" points="425.75,544.1836,428.75,541.6836,427.75,544.1836,428.75,546.6836,425.75,544.1836" style="stroke:#718C00;stroke-width:0.5;"/><text fill="#000000" font-family="sans-serif" font-size="7" font-style="italic" lengthAdjust="spacing" textLength="20.5" x="464" y="43.2124">«out»</text><text fill="#000000" font-family="sans-serif" font-size="7" lengthAdjust="spacing" textLength="23.5" x="462.5" y="51.3608">XState</text><ellipse cx="475.75" cy="28.7148" fill="#F2AC4E" filter="url(#frtthda0efylz)" rx="6" ry="6" style="stroke:#000000;stroke-width:1.0;"/><line style="stroke:#000000;stroke-width:1.0;" x1="469.75" x2="481.75" y1="35.7148" y2="35.7148"/><text fill="#000000" font-family="sans-serif" font-size="7" font-style="italic" lengthAdjust="spacing" textLength="20.5" x="464" y="524.2358">«out»</text><text fill="#000000" font-family="sans-serif" font-size="7" lengthAdjust="spacing" textLength="23.5" x="462.5" y="532.3843">XState</text><ellipse cx="475.75" cy="542.0352" fill="#F2AC4E" filter="url(#frtthda0efylz)" rx="6" ry="6" style="stroke:#000000;stroke-width:1.0;"/><line style="stroke:#000000;stroke-width:1.0;" x1="469.75" x2="481.75" y1="549.0352" y2="549.0352"/><text fill="#000000" font-family="sans-serif" font-size="7" font-style="italic" lengthAdjust="spacing" textLength="47" x="494" y="43.2124">«TypeScript»</text><text fill="#000000" font-family="sans-serif" font-size="7" lengthAdjust="spacing" textLength="40.5" x="497.25" y="51.3608">XController</text><ellipse cx="519" cy="28.7148" fill="#B5BD68" filter="url(#frtthda0efylz)" rx="6" ry="6" style="stroke:#718C00;stroke-width:1.0;"/><polygon fill="#718C00" points="517,22.7148,520,20.2148,519,22.7148,520,25.2148,517,22.7148" style="stroke:#718C00;stroke-width:0.5;"/><text fill="#000000" font-family="sans-serif" font-size="7" font-style="italic" lengthAdjust="spacing" textLength="47" x="494" y="524.2358">«TypeScript»</text><text fill="#000000" font-family="sans-serif" font-size="7" lengthAdjust="spacing" textLength="40.5" x="497.25" y="532.3843">XController</text><ellipse cx="519" cy="542.0352" fill="#B5BD68" filter="url(#frtthda0efylz)" rx="6" ry="6" style="stroke:#718C00;stroke-width:1.0;"/><polygon fill="#718C00" points="517,536.0352,520,533.5352,519,536.0352,520,538.5352,517,536.0352" style="stroke:#718C00;stroke-width:0.5;"/><text fill="#000000" font-family="sans-serif" font-size="7" lengthAdjust="spacing" textLength="75" x="566" y="51.3608">XControllerResponse</text><ellipse cx="605" cy="36.8633" fill="#F2AC4E" filter="url(#frtthda0efylz)" rx="6" ry="6" style="stroke:#000000;stroke-width:1.0;"/><line style="stroke:#000000;stroke-width:1.0;" x1="599" x2="611" y1="43.8633" y2="43.8633"/><text fill="#000000" font-family="sans-serif" font-size="7" lengthAdjust="spacing" textLength="75" x="566" y="524.2358">XControllerResponse</text><ellipse cx="605" cy="533.8867" fill="#F2AC4E" filter="url(#frtthda0efylz)" rx="6" ry="6" style="stroke:#000000;stroke-width:1.0;"/><line style="stroke:#000000;stroke-width:1.0;" x1="599" x2="611" y1="540.8867" y2="540.8867"/><text fill="#000000" font-family="sans-serif" font-size="6" lengthAdjust="spacing" textLength="48.5" x="649" y="51.5967">XRestRepository</text><path d="M664.5,32.0273 L664.5,44.0273 M664.5,38.0273 L673,38.0273 " fill="none" filter="url(#frtthda0efylz)" style="stroke:#000000;stroke-width:1.0;"/><ellipse cx="679" cy="38.0273" fill="#629EF9" filter="url(#frtthda0efylz)" rx="6" ry="6" style="stroke:#000000;stroke-width:1.0;"/><text fill="#000000" font-family="sans-serif" font-size="6" lengthAdjust="spacing" textLength="48.5" x="649" y="523.3076">XRestRepository</text><path d="M664.5,526.7227 L664.5,538.7227 M664.5,532.7227 L673,532.7227 " fill="none" filter="url(#frtthda0efylz)" style="stroke:#000000;stroke-width:1.0;"/><ellipse cx="679" cy="532.7227" fill="#629EF9" filter="url(#frtthda0efylz)" rx="6" ry="6" style="stroke:#000000;stroke-width:1.0;"/><text fill="#000000" font-family="sans-serif" font-size="6" lengthAdjust="spacing" textLength="37" x="728.75" y="51.5967">HTTPService</text><path d="M738.5,32.0273 L738.5,44.0273 M738.5,38.0273 L747,38.0273 " fill="none" filter="url(#frtthda0efylz)" style="stroke:#000000;stroke-width:1.0;"/><ellipse cx="753" cy="38.0273" fill="#629EF9" filter="url(#frtthda0efylz)" rx="6" ry="6" style="stroke:#000000;stroke-width:1.0;"/><text fill="#000000" font-family="sans-serif" font-size="6" lengthAdjust="spacing" textLength="37" x="728.75" y="523.3076">HTTPService</text><path d="M738.5,526.7227 L738.5,538.7227 M738.5,532.7227 L747,532.7227 " fill="none" filter="url(#frtthda0efylz)" style="stroke:#000000;stroke-width:1.0;"/><ellipse cx="753" cy="532.7227" fill="#629EF9" filter="url(#frtthda0efylz)" rx="6" ry="6" style="stroke:#000000;stroke-width:1.0;"/><text fill="#000000" font-family="sans-serif" font-size="7" lengthAdjust="spacing" textLength="26.5" x="834.5" y="51.3608">XModel</text><ellipse cx="849.25" cy="36.8633" fill="#F2AC4E" filter="url(#frtthda0efylz)" rx="6" ry="6" style="stroke:#000000;stroke-width:1.0;"/><line style="stroke:#000000;stroke-width:1.0;" x1="843.25" x2="855.25" y1="43.8633" y2="43.8633"/><text fill="#000000" font-family="sans-serif" font-size="7" lengthAdjust="spacing" textLength="26.5" x="834.5" y="524.2358">XModel</text><ellipse cx="849.25" cy="533.8867" fill="#F2AC4E" filter="url(#frtthda0efylz)" rx="6" ry="6" style="stroke:#000000;stroke-width:1.0;"/><line style="stroke:#000000;stroke-width:1.0;" x1="843.25" x2="855.25" y1="540.8867" y2="540.8867"/><text fill="#000000" font-family="sans-serif" font-size="6" lengthAdjust="spacing" textLength="31.5" x="869" y="51.5967">XResource</text><path d="M876,32.0273 L876,44.0273 M876,38.0273 L884.5,38.0273 " fill="none" filter="url(#frtthda0efylz)" style="stroke:#000000;stroke-width:1.0;"/><ellipse cx="890.5" cy="38.0273" fill="#629EF9" filter="url(#frtthda0efylz)" rx="6" ry="6" style="stroke:#000000;stroke-width:1.0;"/><text fill="#000000" font-family="sans-serif" font-size="6" lengthAdjust="spacing" textLength="31.5" x="869" y="523.3076">XResource</text><path d="M876,526.7227 L876,538.7227 M876,532.7227 L884.5,532.7227 " fill="none" filter="url(#frtthda0efylz)" style="stroke:#000000;stroke-width:1.0;"/><ellipse cx="890.5" cy="532.7227" fill="#629EF9" filter="url(#frtthda0efylz)" rx="6" ry="6" style="stroke:#000000;stroke-width:1.0;"/><text fill="#000000" font-family="sans-serif" font-size="7" lengthAdjust="spacing" textLength="36.5" x="968" y="51.3608">XBService</text><ellipse cx="987.75" cy="36.8633" fill="#B5BD68" filter="url(#frtthda0efylz)" rx="6" ry="6" style="stroke:#718C00;stroke-width:1.0;"/><polygon fill="#718C00" points="985.75,30.8633,988.75,28.3633,987.75,30.8633,988.75,33.3633,985.75,30.8633" style="stroke:#718C00;stroke-width:0.5;"/><text fill="#000000" font-family="sans-serif" font-size="7" lengthAdjust="spacing" textLength="36.5" x="968" y="524.2358">XBService</text><ellipse cx="987.75" cy="533.8867" fill="#B5BD68" filter="url(#frtthda0efylz)" rx="6" ry="6" style="stroke:#718C00;stroke-width:1.0;"/><polygon fill="#718C00" points="985.75,527.8867,988.75,525.3867,987.75,527.8867,988.75,530.3867,985.75,527.8867" style="stroke:#718C00;stroke-width:0.5;"/><text fill="#000000" font-family="sans-serif" font-size="6" lengthAdjust="spacing" textLength="35.5" x="1023.5" y="51.5967">XRepository</text><path d="M1032.5,32.0273 L1032.5,44.0273 M1032.5,38.0273 L1041,38.0273 " fill="none" filter="url(#frtthda0efylz)" style="stroke:#000000;stroke-width:1.0;"/><ellipse cx="1047" cy="38.0273" fill="#629EF9" filter="url(#frtthda0efylz)" rx="6" ry="6" style="stroke:#000000;stroke-width:1.0;"/><text fill="#000000" font-family="sans-serif" font-size="6" lengthAdjust="spacing" textLength="35.5" x="1023.5" y="523.3076">XRepository</text><path d="M1032.5,526.7227 L1032.5,538.7227 M1032.5,532.7227 L1041,532.7227 " fill="none" filter="url(#frtthda0efylz)" style="stroke:#000000;stroke-width:1.0;"/><ellipse cx="1047" cy="532.7227" fill="#629EF9" filter="url(#frtthda0efylz)" rx="6" ry="6" style="stroke:#000000;stroke-width:1.0;"/><text fill="#000000" font-family="sans-serif" font-size="6" lengthAdjust="spacing" textLength="14.5" x="1070.5" y="51.5967">XDto</text><path d="M1069,32.0273 L1069,44.0273 M1069,38.0273 L1077.5,38.0273 " fill="none" filter="url(#frtthda0efylz)" style="stroke:#000000;stroke-width:1.0;"/><ellipse cx="1083.5" cy="38.0273" fill="#629EF9" filter="url(#frtthda0efylz)" rx="6" ry="6" style="stroke:#000000;stroke-width:1.0;"/><text fill="#000000" font-family="sans-serif" font-size="6" lengthAdjust="spacing" textLength="14.5" x="1070.5" y="523.3076">XDto</text><path d="M1069,526.7227 L1069,538.7227 M1069,532.7227 L1077.5,532.7227 " fill="none" filter="url(#frtthda0efylz)" style="stroke:#000000;stroke-width:1.0;"/><ellipse cx="1083.5" cy="532.7227" fill="#629EF9" filter="url(#frtthda0efylz)" rx="6" ry="6" style="stroke:#000000;stroke-width:1.0;"/><text fill="#000000" font-family="sans-serif" font-size="7" lengthAdjust="spacing" textLength="30.5" x="1096.5" y="51.3608">XBuilder</text><ellipse cx="1113.25" cy="36.8633" fill="#F2AC4E" filter="url(#frtthda0efylz)" rx="6" ry="6" style="stroke:#000000;stroke-width:1.0;"/><line style="stroke:#000000;stroke-width:1.0;" x1="1107.25" x2="1119.25" y1="43.8633" y2="43.8633"/><text fill="#000000" font-family="sans-serif" font-size="7" lengthAdjust="spacing" textLength="30.5" x="1096.5" y="524.2358">XBuilder</text><ellipse cx="1113.25" cy="533.8867" fill="#F2AC4E" filter="url(#frtthda0efylz)" rx="6" ry="6" style="stroke:#000000;stroke-width:1.0;"/><line style="stroke:#000000;stroke-width:1.0;" x1="1107.25" x2="1119.25" y1="540.8867" y2="540.8867"/><text fill="#000000" font-family="sans-serif" font-size="7" lengthAdjust="spacing" textLength="30" x="1135" y="51.3608">XBEntity</text><ellipse cx="1151.5" cy="36.8633" fill="#F2AC4E" filter="url(#frtthda0efylz)" rx="6" ry="6" style="stroke:#000000;stroke-width:1.0;"/><line style="stroke:#000000;stroke-width:1.0;" x1="1145.5" x2="1157.5" y1="43.8633" y2="43.8633"/><text fill="#000000" font-family="sans-serif" font-size="7" lengthAdjust="spacing" textLength="30" x="1135" y="524.2358">XBEntity</text><ellipse cx="1151.5" cy="533.8867" fill="#F2AC4E" filter="url(#frtthda0efylz)" rx="6" ry="6" style="stroke:#000000;stroke-width:1.0;"/><line style="stroke:#000000;stroke-width:1.0;" x1="1145.5" x2="1157.5" y1="540.8867" y2="540.8867"/><text fill="#000000" font-family="sans-serif" font-size="7" lengthAdjust="spacing" textLength="32" x="1173" y="51.3608">XMapper</text><ellipse cx="1190.5" cy="36.8633" fill="#B5BD68" filter="url(#frtthda0efylz)" rx="6" ry="6" style="stroke:#718C00;stroke-width:1.0;"/><polygon fill="#718C00" points="1188.5,30.8633,1191.5,28.3633,1190.5,30.8633,1191.5,33.3633,1188.5,30.8633" style="stroke:#718C00;stroke-width:0.5;"/><text fill="#000000" font-family="sans-serif" font-size="7" lengthAdjust="spacing" textLength="32" x="1173" y="524.2358">XMapper</text><ellipse cx="1190.5" cy="533.8867" fill="#B5BD68" filter="url(#frtthda0efylz)" rx="6" ry="6" style="stroke:#718C00;stroke-width:1.0;"/><polygon fill="#718C00" points="1188.5,527.8867,1191.5,525.3867,1190.5,527.8867,1191.5,530.3867,1188.5,527.8867" style="stroke:#718C00;stroke-width:0.5;"/><polygon fill="#A80036" points="58.25,74.1445,63.25,76.1445,58.25,78.1445,60.25,76.1445" style="stroke:#A80036;stroke-width:0.5;"/><line style="stroke:#A80036;stroke-width:0.5;" x1="11.75" x2="61.25" y1="76.1445" y2="76.1445"/><text fill="#000000" font-family="sans-serif" font-size="6.5" lengthAdjust="spacing" textLength="24.5" x="15.25" y="66.0452">request</text><text fill="#000000" font-family="sans-serif" font-size="6.5" lengthAdjust="spacing" textLength="38.5" x="17.25" y="73.6116">plan project</text><polygon fill="#A80036" points="123.75,88.7109,128.75,90.7109,123.75,92.7109,125.75,90.7109" style="stroke:#A80036;stroke-width:0.5;"/><line style="stroke:#A80036;stroke-width:0.5;" x1="64.25" x2="126.75" y1="90.7109" y2="90.7109"/><text fill="#000000" font-family="sans-serif" font-size="6.5" lengthAdjust="spacing" textLength="41.5" x="67.75" y="88.178">planProject()</text><polygon fill="#A80036" points="258.75,103.2773,263.75,105.2773,258.75,107.2773,260.75,105.2773" style="stroke:#A80036;stroke-width:0.5;"/><line style="stroke:#A80036;stroke-width:0.5;" x1="129.75" x2="261.75" y1="105.2773" y2="105.2773"/><text fill="#000000" font-family="sans-serif" font-size="6.5" lengthAdjust="spacing" textLength="96" x="133.25" y="102.7444">planProject(createProjectDto)</text><polygon fill="#A80036" points="513,117.8438,518,119.8438,513,121.8438,515,119.8438" style="stroke:#A80036;stroke-width:0.5;"/><line style="stroke:#A80036;stroke-width:0.5;" x1="264.75" x2="516" y1="119.8438" y2="119.8438"/><text fill="#000000" font-family="sans-serif" font-size="6.5" lengthAdjust="spacing" textLength="85.5" x="268.25" y="117.3108">execute(createProjectDto)</text><polygon fill="#A80036" points="668.75,132.4102,673.75,134.4102,668.75,136.4102,670.75,134.4102" style="stroke:#A80036;stroke-width:0.5;"/><line style="stroke:#A80036;stroke-width:0.5;" x1="519" x2="671.75" y1="134.4102" y2="134.4102"/><text fill="#000000" font-family="sans-serif" font-size="6.5" lengthAdjust="spacing" textLength="80" x="522.5" y="131.8772">create(createProjectDto)</text><polygon fill="#A80036" points="742.75,146.9766,747.75,148.9766,742.75,150.9766,744.75,148.9766" style="stroke:#A80036;stroke-width:0.5;"/><line style="stroke:#A80036;stroke-width:0.5;" x1="674.75" x2="745.75" y1="148.9766" y2="148.9766"/><text fill="#000000" font-family="sans-serif" font-size="6.5" lengthAdjust="spacing" textLength="62" x="678.25" y="146.4436">post(endpoint, dto)</text><polygon fill="#A80036" points="880.25,161.543,885.25,163.543,880.25,165.543,882.25,163.543" style="stroke:#A80036;stroke-width:0.5;"/><line style="stroke:#A80036;stroke-width:0.5;" x1="748.75" x2="883.25" y1="163.543" y2="163.543"/><text fill="#000000" font-family="sans-serif" font-size="6.5" lengthAdjust="spacing" textLength="54" x="752.25" y="161.01">HTTP POST JSON</text><polygon fill="#A80036" points="981.75,176.1094,986.75,178.1094,981.75,180.1094,983.75,178.1094" style="stroke:#A80036;stroke-width:0.5;"/><line style="stroke:#A80036;stroke-width:0.5;" x1="886.25" x2="984.75" y1="178.1094" y2="178.1094"/><text fill="#000000" font-family="sans-serif" font-size="6.5" lengthAdjust="spacing" textLength="89.5" x="889.75" y="175.5764">planProject(planProjectDto)</text><polygon fill="#A80036" points="1073.25,190.6758,1078.25,192.6758,1073.25,194.6758,1075.25,192.6758" style="stroke:#A80036;stroke-width:0.5;"/><line style="stroke:#A80036;stroke-width:0.5;" x1="987.75" x2="1076.25" y1="192.6758" y2="192.6758"/><text fill="#000000" font-family="sans-serif" font-size="6.5" lengthAdjust="spacing" textLength="48" x="991.25" y="190.1428">createProject()</text><polygon fill="#A80036" points="1107.25,205.2422,1112.25,207.2422,1107.25,209.2422,1109.25,207.2422" style="stroke:#A80036;stroke-width:0.5;"/><line style="stroke:#A80036;stroke-width:0.5;" x1="1079.25" x2="1110.25" y1="207.2422" y2="207.2422"/><text fill="#000000" font-family="sans-serif" font-size="6.5" lengthAdjust="spacing" textLength="21" x="1082.75" y="204.7092">build()</text><polygon fill="#A80036" points="1145.5,219.8086,1150.5,221.8086,1145.5,223.8086,1147.5,221.8086" style="stroke:#A80036;stroke-width:0.5;"/><line style="stroke:#A80036;stroke-width:0.5;" x1="1113.25" x2="1148.5" y1="221.8086" y2="221.8086"/><text fill="#000000" font-family="sans-serif" font-size="6.5" lengthAdjust="spacing" textLength="13.5" x="1116.75" y="219.2756">new</text><polygon fill="#808080" points="1118.75,226.8086,1113.75,228.8086,1118.75,230.8086,1116.75,228.8086" style="stroke:#808080;stroke-width:0.5;"/><line style="stroke:#808080;stroke-width:0.5;stroke-dasharray:2.0,2.0;" x1="1115.75" x2="1151" y1="228.8086" y2="228.8086"/><polygon fill="#808080" points="1084.75,233.8086,1079.75,235.8086,1084.75,237.8086,1082.75,235.8086" style="stroke:#808080;stroke-width:0.5;"/><line style="stroke:#808080;stroke-width:0.5;stroke-dasharray:2.0,2.0;" x1="1081.75" x2="1112.75" y1="235.8086" y2="235.8086"/><polygon fill="#808080" points="993.25,248.375,988.25,250.375,993.25,252.375,991.25,250.375" style="stroke:#808080;stroke-width:0.5;"/><line style="stroke:#808080;stroke-width:0.5;stroke-dasharray:2.0,2.0;" x1="990.25" x2="1078.75" y1="250.375" y2="250.375"/><text fill="#000000" font-family="sans-serif" font-size="6.5" lengthAdjust="spacing" textLength="22.5" x="996.25" y="247.842">project</text><polygon fill="#A80036" points="1036.75,262.9414,1041.75,264.9414,1036.75,266.9414,1038.75,264.9414" style="stroke:#A80036;stroke-width:0.5;"/><line style="stroke:#A80036;stroke-width:0.5;" x1="987.75" x2="1039.75" y1="264.9414" y2="264.9414"/><text fill="#000000" font-family="sans-serif" font-size="6.5" lengthAdjust="spacing" textLength="43" x="991.25" y="262.4084">save(project)</text><polygon fill="#808080" points="993.25,269.9414,988.25,271.9414,993.25,273.9414,991.25,271.9414" style="stroke:#808080;stroke-width:0.5;"/><line style="stroke:#808080;stroke-width:0.5;stroke-dasharray:2.0,2.0;" x1="990.25" x2="1042.25" y1="271.9414" y2="271.9414"/><polygon fill="#A80036" points="1073.25,284.5078,1078.25,286.5078,1073.25,288.5078,1075.25,286.5078" style="stroke:#A80036;stroke-width:0.5;"/><line style="stroke:#A80036;stroke-width:0.5;" x1="987.75" x2="1076.25" y1="286.5078" y2="286.5078"/><text fill="#000000" font-family="sans-serif" font-size="6.5" lengthAdjust="spacing" textLength="61.5" x="991.25" y="283.9749">mapToDto(project)</text><polygon fill="#A80036" points="1184.5,299.0742,1189.5,301.0742,1184.5,303.0742,1186.5,301.0742" style="stroke:#A80036;stroke-width:0.5;"/><line style="stroke:#A80036;stroke-width:0.5;" x1="1079.25" x2="1187.5" y1="301.0742" y2="301.0742"/><text fill="#000000" font-family="sans-serif" font-size="6.5" lengthAdjust="spacing" textLength="82" x="1082.75" y="298.5413">map(source, targetClass)</text><polygon fill="#808080" points="1084.75,306.0742,1079.75,308.0742,1084.75,310.0742,1082.75,308.0742" style="stroke:#808080;stroke-width:0.5;"/><line style="stroke:#808080;stroke-width:0.5;stroke-dasharray:2.0,2.0;" x1="1081.75" x2="1190" y1="308.0742" y2="308.0742"/><polygon fill="#808080" points="993.25,313.0742,988.25,315.0742,993.25,317.0742,991.25,315.0742" style="stroke:#808080;stroke-width:0.5;"/><line style="stroke:#808080;stroke-width:0.5;stroke-dasharray:2.0,2.0;" x1="990.25" x2="1078.75" y1="315.0742" y2="315.0742"/><polygon fill="#808080" points="891.75,327.6406,886.75,329.6406,891.75,331.6406,889.75,329.6406" style="stroke:#808080;stroke-width:0.5;"/><line style="stroke:#808080;stroke-width:0.5;stroke-dasharray:2.0,2.0;" x1="888.75" x2="987.25" y1="329.6406" y2="329.6406"/><text fill="#000000" font-family="sans-serif" font-size="6.5" lengthAdjust="spacing" textLength="34" x="894.75" y="327.1077">projectDto</text><polygon fill="#808080" points="754.25,342.207,749.25,344.207,754.25,346.207,752.25,344.207" style="stroke:#808080;stroke-width:0.5;"/><line style="stroke:#808080;stroke-width:0.5;stroke-dasharray:2.0,2.0;" x1="751.25" x2="885.75" y1="344.207" y2="344.207"/><text fill="#000000" font-family="sans-serif" font-size="6.5" lengthAdjust="spacing" textLength="69.5" x="757.25" y="341.6741">HTTP POST Response</text><polygon fill="#A80036" points="843.25,356.7734,848.25,358.7734,843.25,360.7734,845.25,358.7734" style="stroke:#A80036;stroke-width:0.5;"/><line style="stroke:#A80036;stroke-width:0.5;" x1="748.75" x2="846.25" y1="358.7734" y2="358.7734"/><text fill="#000000" font-family="sans-serif" font-size="6.5" lengthAdjust="spacing" textLength="88.5" x="752.25" y="356.2405">JSON.parse(response.body)</text><polygon fill="#808080" points="754.25,371.3398,749.25,373.3398,754.25,375.3398,752.25,373.3398" style="stroke:#808080;stroke-width:0.5;"/><line style="stroke:#808080;stroke-width:0.5;stroke-dasharray:2.0,2.0;" x1="751.25" x2="848.75" y1="373.3398" y2="373.3398"/><text fill="#000000" font-family="sans-serif" font-size="6.5" lengthAdjust="spacing" textLength="22.5" x="757.25" y="370.8069">project</text><polygon fill="#808080" points="680.25,378.3398,675.25,380.3398,680.25,382.3398,678.25,380.3398" style="stroke:#808080;stroke-width:0.5;"/><line style="stroke:#808080;stroke-width:0.5;stroke-dasharray:2.0,2.0;" x1="677.25" x2="748.25" y1="380.3398" y2="380.3398"/><polygon fill="#808080" points="524.5,385.3398,519.5,387.3398,524.5,389.3398,522.5,387.3398" style="stroke:#808080;stroke-width:0.5;"/><line style="stroke:#808080;stroke-width:0.5;stroke-dasharray:2.0,2.0;" x1="521.5" x2="674.25" y1="387.3398" y2="387.3398"/><polygon fill="#A80036" points="599,399.9063,604,401.9063,599,403.9063,601,401.9063" style="stroke:#A80036;stroke-width:0.5;"/><line style="stroke:#A80036;stroke-width:0.5;" x1="519" x2="602" y1="401.9063" y2="401.9063"/><text fill="#000000" font-family="sans-serif" font-size="6.5" lengthAdjust="spacing" textLength="74" x="522.5" y="399.3733">createSuccess(project)</text><polygon fill="#808080" points="524.5,414.4727,519.5,416.4727,524.5,418.4727,522.5,416.4727" style="stroke:#808080;stroke-width:0.5;"/><line style="stroke:#808080;stroke-width:0.5;stroke-dasharray:2.0,2.0;" x1="521.5" x2="604.5" y1="416.4727" y2="416.4727"/><text fill="#000000" font-family="sans-serif" font-size="6.5" lengthAdjust="spacing" textLength="62.5" x="527.5" y="413.9397">controllerResponse</text><polygon fill="#808080" points="270.25,421.4727,265.25,423.4727,270.25,425.4727,268.25,423.4727" style="stroke:#808080;stroke-width:0.5;"/><line style="stroke:#808080;stroke-width:0.5;stroke-dasharray:2.0,2.0;" x1="267.25" x2="518.5" y1="423.4727" y2="423.4727"/><polygon fill="#A80036" points="421.75,436.0391,426.75,438.0391,421.75,440.0391,423.75,438.0391" style="stroke:#A80036;stroke-width:0.5;"/><line style="stroke:#A80036;stroke-width:0.5;" x1="264.75" x2="424.75" y1="438.0391" y2="438.0391"/><text fill="#000000" font-family="sans-serif" font-size="6.5" lengthAdjust="spacing" textLength="151" x="268.25" y="435.5061">dispatchSuccefullResultPlanProjectOperation()</text><polygon fill="#A80036" points="469.75,450.6055,474.75,452.6055,469.75,454.6055,471.75,452.6055" style="stroke:#A80036;stroke-width:0.5;"/><line style="stroke:#A80036;stroke-width:0.5;" x1="427.75" x2="472.75" y1="452.6055" y2="452.6055"/><text fill="#000000" font-family="sans-serif" font-size="6.5" lengthAdjust="spacing" textLength="36" x="431.25" y="450.0725">next(state)</text><polygon fill="#808080" points="433.25,457.6055,428.25,459.6055,433.25,461.6055,431.25,459.6055" style="stroke:#808080;stroke-width:0.5;"/><line style="stroke:#808080;stroke-width:0.5;stroke-dasharray:2.0,2.0;" x1="430.25" x2="475.25" y1="459.6055" y2="459.6055"/><polygon fill="#808080" points="270.25,464.6055,265.25,466.6055,270.25,468.6055,268.25,466.6055" style="stroke:#808080;stroke-width:0.5;"/><line style="stroke:#808080;stroke-width:0.5;stroke-dasharray:2.0,2.0;" x1="267.25" x2="427.25" y1="466.6055" y2="466.6055"/><polygon fill="#808080" points="135.25,471.6055,130.25,473.6055,135.25,475.6055,133.25,473.6055" style="stroke:#808080;stroke-width:0.5;"/><line style="stroke:#808080;stroke-width:0.5;stroke-dasharray:2.0,2.0;" x1="132.25" x2="264.25" y1="473.6055" y2="473.6055"/><line style="stroke:#A80036;stroke-width:0.5;" x1="129.75" x2="150.75" y1="488.1719" y2="488.1719"/><line style="stroke:#A80036;stroke-width:0.5;" x1="150.75" x2="150.75" y1="488.1719" y2="494.6719"/><line style="stroke:#A80036;stroke-width:0.5;" x1="130.25" x2="150.75" y1="494.6719" y2="494.6719"/><polygon fill="#A80036" points="135.25,492.6719,130.25,494.6719,135.25,496.6719,133.25,494.6719" style="stroke:#A80036;stroke-width:0.5;"/><text fill="#000000" font-family="sans-serif" font-size="6.5" lengthAdjust="spacing" textLength="128" x="133.25" y="485.6389">navigateByUrl("/project-management")</text><polygon fill="#808080" points="17.25,507.2383,12.25,509.2383,17.25,511.2383,15.25,509.2383" style="stroke:#808080;stroke-width:0.5;"/><line style="stroke:#808080;stroke-width:0.5;stroke-dasharray:2.0,2.0;" x1="14.25" x2="129.25" y1="509.2383" y2="509.2383"/><text fill="#000000" font-family="sans-serif" font-size="6.5" lengthAdjust="spacing" textLength="106" x="20.25" y="506.7053">redirect to /project-management</text><!--MD5=[299712d27b768dfc356026067d0f9ed7]
@startuml


skinparam {
    BoundaryBackgroundColor #629EF9
    BoundaryBorderColor black
    BoundaryFontSize 12
    BoundarySize 10
    ControlBackgroundColor #b5bd68
    ControlBorderColor #718c00
    EntityBackgroundColor #F2AC4E
    EntityBorderColor black
    backgroundColor white
}

box #white
    actor user
end box
box "Front End" #DDFFE8


    entity XHtml <<Template>>
    control XTypescript <<Component>>

    control XService as "XTypescript" <<Service>> <<in>>
    control XViewModel as "XTypescript" <<ViewModel>> <<out>>
    entity XState <<out>>

    control XLogicService as "XController" <<TypeScript>>
    entity XControllerResponse
    boundary XRestRepository
    boundary HTTPService
    entity XModel
end box

box "Back End" #DDF2FF
    boundary XResource
    control XBService
    boundary XTSDao as "XRepository"
    boundary XDto
    entity XBuilder
    entity XBEntity
    control XMapper
end box

user -> XHtml : request \n plan project
XHtml -> XTypescript : planProject()
XTypescript -> XService : planProject(createProjectDto)
XService -> XLogicService : execute(createProjectDto)
XLogicService -> XRestRepository : create(createProjectDto)
XRestRepository -> HTTPService : post(endpoint, dto)

HTTPService -> XResource : HTTP POST JSON
XResource -> XBService :  planProject(planProjectDto)
XBService -> XDto : createProject()
XDto -> XBuilder : build()
XBuilder -> XBEntity : new
XBEntity -[#Gray]-> XBuilder
XBuilder -[#Gray]-> XDto
XDto -[#Gray]-> XBService : project
XBService -> XTSDao : save(project)
XTSDao -[#Gray]-> XBService
XBService -> XDto : mapToDto(project)
XDto -> XMapper : map(source, targetClass)
XMapper -[#Gray]-> XDto
XDto -[#Gray]-> XBService
XBService -[#Gray]-> XResource : projectDto
XResource -[#Gray]-> HTTPService : HTTP POST Response
HTTPService -> XModel : JSON.parse(response.body)
XModel -[#Gray]-> HTTPService : project
HTTPService -[#Gray]-> XRestRepository
XRestRepository -[#Gray]-> XLogicService
XLogicService -> XControllerResponse : createSuccess(project)
XControllerResponse -[#Gray]-> XLogicService : controllerResponse
XLogicService -[#Gray]-> XService
XService -> XViewModel : dispatchSuccefullResultPlanProjectOperation()
XViewModel -> XState : next(state)
XState -[#Gray]-> XViewModel
XViewModel -[#Gray]-> XService
XService -[#Gray]-> XTypescript
XTypescript -> XTypescript : navigateByUrl("/project-management")
XTypescript -[#Gray]-> user : redirect to /project-management

@enduml

PlantUML version 1.2021.11(Sat Oct 02 15:26:11 CEST 2021)
(GPL source distribution)
Java Runtime: OpenJDK Runtime Environment
JVM: OpenJDK 64-Bit Server VM
Default Encoding: UTF-8
Language: en
Country: US
--></g></svg>