<?xml version="1.0" encoding="UTF-8" standalone="no"?><svg xmlns="http://www.w3.org/2000/svg" xmlns:xlink="http://www.w3.org/1999/xlink" contentScriptType="application/ecmascript" contentStyleType="text/css" height="596px" preserveAspectRatio="none" style="width:855px;height:596px;background:#FFFFFF;" version="1.1" viewBox="0 0 855 596" width="855px" zoomAndPan="magnify"><defs><filter height="300%" id="fxpsaeuqr8ivz" width="300%" x="-1" y="-1"><feGaussianBlur result="blurOut" stdDeviation="2.0"/><feColorMatrix in="blurOut" result="blurOut2" type="matrix" values="0 0 0 0 0 0 0 0 0 0 0 0 0 0 0 0 0 0 .4 0"/><feOffset dx="4.0" dy="4.0" in="blurOut2" result="blurOut3"/><feBlend in="SourceGraphic" in2="blurOut3" mode="normal"/></filter></defs><g><rect fill="#DDFFE8" height="584.0547" style="stroke:#A80036;stroke-width:1.0;" width="75" x="1" y="6"/><rect fill="#DDF2FF" height="584.0547" style="stroke:#A80036;stroke-width:1.0;" width="686" x="163" y="6"/><text fill="#000000" font-family="sans-serif" font-size="13" font-weight="bold" lengthAdjust="spacing" textLength="68" x="472" y="18.0669">Back End</text><line style="stroke:#A80036;stroke-width:1.0;stroke-dasharray:5.0,5.0;" x1="38" x2="38" y1="93.2969" y2="503.7578"/><line style="stroke:#A80036;stroke-width:1.0;stroke-dasharray:5.0,5.0;" x1="201" x2="201" y1="93.2969" y2="503.7578"/><line style="stroke:#A80036;stroke-width:1.0;stroke-dasharray:5.0,5.0;" x1="404" x2="404" y1="93.2969" y2="503.7578"/><line style="stroke:#A80036;stroke-width:1.0;stroke-dasharray:5.0,5.0;" x1="514" x2="514" y1="93.2969" y2="503.7578"/><line style="stroke:#A80036;stroke-width:1.0;stroke-dasharray:5.0,5.0;" x1="587" x2="587" y1="93.2969" y2="503.7578"/><line style="stroke:#A80036;stroke-width:1.0;stroke-dasharray:5.0,5.0;" x1="655" x2="655" y1="93.2969" y2="503.7578"/><line style="stroke:#A80036;stroke-width:1.0;stroke-dasharray:5.0,5.0;" x1="732" x2="732" y1="93.2969" y2="503.7578"/><line style="stroke:#A80036;stroke-width:1.0;stroke-dasharray:5.0,5.0;" x1="810" x2="810" y1="93.2969" y2="503.7578"/><text fill="#000000" font-family="sans-serif" font-size="14" lengthAdjust="spacing" textLength="61" x="5" y="89.9951">frontend</text><ellipse cx="38.5" cy="20" fill="#FEFECE" filter="url(#fxpsaeuqr8ivz)" rx="8" ry="8" style="stroke:#A80036;stroke-width:2.0;"/><path d="M38.5,28 L38.5,55 M25.5,36 L51.5,36 M38.5,55 L25.5,70 M38.5,55 L51.5,70 " fill="none" filter="url(#fxpsaeuqr8ivz)" style="stroke:#A80036;stroke-width:2.0;"/><text fill="#000000" font-family="sans-serif" font-size="14" lengthAdjust="spacing" textLength="61" x="5" y="515.7529">frontend</text><ellipse cx="38.5" cy="529.0547" fill="#FEFECE" filter="url(#fxpsaeuqr8ivz)" rx="8" ry="8" style="stroke:#A80036;stroke-width:2.0;"/><path d="M38.5,537.0547 L38.5,564.0547 M25.5,545.0547 L51.5,545.0547 M38.5,564.0547 L25.5,579.0547 M38.5,564.0547 L51.5,579.0547 " fill="none" filter="url(#fxpsaeuqr8ivz)" style="stroke:#A80036;stroke-width:2.0;"/><text fill="#000000" font-family="sans-serif" font-size="12" lengthAdjust="spacing" textLength="63" x="167" y="90.4668">XResource</text><path d="M181,51.3281 L181,75.3281 M181,63.3281 L198,63.3281 " fill="none" filter="url(#fxpsaeuqr8ivz)" style="stroke:#000000;stroke-width:2.0;"/><ellipse cx="210" cy="63.3281" fill="#629EF9" filter="url(#fxpsaeuqr8ivz)" rx="12" ry="12" style="stroke:#000000;stroke-width:2.0;"/><text fill="#000000" font-family="sans-serif" font-size="12" lengthAdjust="spacing" textLength="63" x="167" y="513.8965">XResource</text><path d="M181,520.7266 L181,544.7266 M181,532.7266 L198,532.7266 " fill="none" filter="url(#fxpsaeuqr8ivz)" style="stroke:#000000;stroke-width:2.0;"/><ellipse cx="210" cy="532.7266" fill="#629EF9" filter="url(#fxpsaeuqr8ivz)" rx="12" ry="12" style="stroke:#000000;stroke-width:2.0;"/><text fill="#000000" font-family="sans-serif" font-size="14" lengthAdjust="spacing" textLength="73" x="365" y="89.9951">XBService</text><ellipse cx="404.5" cy="61" fill="#B5BD68" filter="url(#fxpsaeuqr8ivz)" rx="12" ry="12" style="stroke:#718C00;stroke-width:2.0;"/><polygon fill="#718C00" points="400.5,49,406.5,44,404.5,49,406.5,54,400.5,49" style="stroke:#718C00;stroke-width:1.0;"/><text fill="#000000" font-family="sans-serif" font-size="14" lengthAdjust="spacing" textLength="73" x="365" y="515.7529">XBService</text><ellipse cx="404.5" cy="535.0547" fill="#B5BD68" filter="url(#fxpsaeuqr8ivz)" rx="12" ry="12" style="stroke:#718C00;stroke-width:2.0;"/><polygon fill="#718C00" points="400.5,523.0547,406.5,518.0547,404.5,523.0547,406.5,528.0547,400.5,523.0547" style="stroke:#718C00;stroke-width:1.0;"/><text fill="#000000" font-family="sans-serif" font-size="12" lengthAdjust="spacing" textLength="71" x="476" y="90.4668">XRepository</text><path d="M494,51.3281 L494,75.3281 M494,63.3281 L511,63.3281 " fill="none" filter="url(#fxpsaeuqr8ivz)" style="stroke:#000000;stroke-width:2.0;"/><ellipse cx="523" cy="63.3281" fill="#629EF9" filter="url(#fxpsaeuqr8ivz)" rx="12" ry="12" style="stroke:#000000;stroke-width:2.0;"/><text fill="#000000" font-family="sans-serif" font-size="12" lengthAdjust="spacing" textLength="71" x="476" y="513.8965">XRepository</text><path d="M494,520.7266 L494,544.7266 M494,532.7266 L511,532.7266 " fill="none" filter="url(#fxpsaeuqr8ivz)" style="stroke:#000000;stroke-width:2.0;"/><ellipse cx="523" cy="532.7266" fill="#629EF9" filter="url(#fxpsaeuqr8ivz)" rx="12" ry="12" style="stroke:#000000;stroke-width:2.0;"/><text fill="#000000" font-family="sans-serif" font-size="12" lengthAdjust="spacing" textLength="29" x="570" y="90.4668">XDto</text><path d="M567,51.3281 L567,75.3281 M567,63.3281 L584,63.3281 " fill="none" filter="url(#fxpsaeuqr8ivz)" style="stroke:#000000;stroke-width:2.0;"/><ellipse cx="596" cy="63.3281" fill="#629EF9" filter="url(#fxpsaeuqr8ivz)" rx="12" ry="12" style="stroke:#000000;stroke-width:2.0;"/><text fill="#000000" font-family="sans-serif" font-size="12" lengthAdjust="spacing" textLength="29" x="570" y="513.8965">XDto</text><path d="M567,520.7266 L567,544.7266 M567,532.7266 L584,532.7266 " fill="none" filter="url(#fxpsaeuqr8ivz)" style="stroke:#000000;stroke-width:2.0;"/><ellipse cx="596" cy="532.7266" fill="#629EF9" filter="url(#fxpsaeuqr8ivz)" rx="12" ry="12" style="stroke:#000000;stroke-width:2.0;"/><text fill="#000000" font-family="sans-serif" font-size="14" lengthAdjust="spacing" textLength="61" x="622" y="89.9951">XBuilder</text><ellipse cx="655.5" cy="61" fill="#F2AC4E" filter="url(#fxpsaeuqr8ivz)" rx="12" ry="12" style="stroke:#000000;stroke-width:2.0;"/><line style="stroke:#000000;stroke-width:2.0;" x1="643.5" x2="667.5" y1="75" y2="75"/><text fill="#000000" font-family="sans-serif" font-size="14" lengthAdjust="spacing" textLength="61" x="622" y="515.7529">XBuilder</text><ellipse cx="655.5" cy="535.0547" fill="#F2AC4E" filter="url(#fxpsaeuqr8ivz)" rx="12" ry="12" style="stroke:#000000;stroke-width:2.0;"/><line style="stroke:#000000;stroke-width:2.0;" x1="643.5" x2="667.5" y1="549.0547" y2="549.0547"/><text fill="#000000" font-family="sans-serif" font-size="14" lengthAdjust="spacing" textLength="60" x="699" y="89.9951">XBEntity</text><ellipse cx="732" cy="61" fill="#F2AC4E" filter="url(#fxpsaeuqr8ivz)" rx="12" ry="12" style="stroke:#000000;stroke-width:2.0;"/><line style="stroke:#000000;stroke-width:2.0;" x1="720" x2="744" y1="75" y2="75"/><text fill="#000000" font-family="sans-serif" font-size="14" lengthAdjust="spacing" textLength="60" x="699" y="515.7529">XBEntity</text><ellipse cx="732" cy="535.0547" fill="#F2AC4E" filter="url(#fxpsaeuqr8ivz)" rx="12" ry="12" style="stroke:#000000;stroke-width:2.0;"/><line style="stroke:#000000;stroke-width:2.0;" x1="720" x2="744" y1="549.0547" y2="549.0547"/><text fill="#000000" font-family="sans-serif" font-size="14" lengthAdjust="spacing" textLength="64" x="775" y="89.9951">XMapper</text><ellipse cx="810" cy="61" fill="#B5BD68" filter="url(#fxpsaeuqr8ivz)" rx="12" ry="12" style="stroke:#718C00;stroke-width:2.0;"/><polygon fill="#718C00" points="806,49,812,44,810,49,812,54,806,49" style="stroke:#718C00;stroke-width:1.0;"/><text fill="#000000" font-family="sans-serif" font-size="14" lengthAdjust="spacing" textLength="64" x="775" y="515.7529">XMapper</text><ellipse cx="810" cy="535.0547" fill="#B5BD68" filter="url(#fxpsaeuqr8ivz)" rx="12" ry="12" style="stroke:#718C00;stroke-width:2.0;"/><polygon fill="#718C00" points="806,523.0547,812,518.0547,810,523.0547,812,528.0547,806,523.0547" style="stroke:#718C00;stroke-width:1.0;"/><polygon fill="#A80036" points="189.5,120.4297,199.5,124.4297,189.5,128.4297,193.5,124.4297" style="stroke:#A80036;stroke-width:1.0;"/><line style="stroke:#A80036;stroke-width:1.0;" x1="38.5" x2="195.5" y1="124.4297" y2="124.4297"/><text fill="#000000" font-family="sans-serif" font-size="13" lengthAdjust="spacing" textLength="108" x="45.5" y="119.3638">HTTP POST JSON</text><polygon fill="#A80036" points="392.5,149.5625,402.5,153.5625,392.5,157.5625,396.5,153.5625" style="stroke:#A80036;stroke-width:1.0;"/><line style="stroke:#A80036;stroke-width:1.0;" x1="201.5" x2="398.5" y1="153.5625" y2="153.5625"/><text fill="#000000" font-family="sans-serif" font-size="13" lengthAdjust="spacing" textLength="179" x="208.5" y="148.4966">planProject(planProjectDto)</text><polygon fill="#A80036" points="575.5,178.6953,585.5,182.6953,575.5,186.6953,579.5,182.6953" style="stroke:#A80036;stroke-width:1.0;"/><line style="stroke:#A80036;stroke-width:1.0;" x1="404.5" x2="581.5" y1="182.6953" y2="182.6953"/><text fill="#000000" font-family="sans-serif" font-size="13" lengthAdjust="spacing" textLength="96" x="411.5" y="177.6294">createProject()</text><polygon fill="#A80036" points="643.5,207.8281,653.5,211.8281,643.5,215.8281,647.5,211.8281" style="stroke:#A80036;stroke-width:1.0;"/><line style="stroke:#A80036;stroke-width:1.0;" x1="587.5" x2="649.5" y1="211.8281" y2="211.8281"/><text fill="#000000" font-family="sans-serif" font-size="13" lengthAdjust="spacing" textLength="42" x="594.5" y="206.7622">build()</text><polygon fill="#A80036" points="720,236.9609,730,240.9609,720,244.9609,724,240.9609" style="stroke:#A80036;stroke-width:1.0;"/><line style="stroke:#A80036;stroke-width:1.0;" x1="655.5" x2="726" y1="240.9609" y2="240.9609"/><text fill="#000000" font-family="sans-serif" font-size="13" lengthAdjust="spacing" textLength="27" x="662.5" y="235.895">new</text><polygon fill="#808080" points="666.5,250.9609,656.5,254.9609,666.5,258.9609,662.5,254.9609" style="stroke:#808080;stroke-width:1.0;"/><line style="stroke:#808080;stroke-width:1.0;stroke-dasharray:2.0,2.0;" x1="660.5" x2="731" y1="254.9609" y2="254.9609"/><polygon fill="#808080" points="598.5,264.9609,588.5,268.9609,598.5,272.9609,594.5,268.9609" style="stroke:#808080;stroke-width:1.0;"/><line style="stroke:#808080;stroke-width:1.0;stroke-dasharray:2.0,2.0;" x1="592.5" x2="654.5" y1="268.9609" y2="268.9609"/><polygon fill="#808080" points="415.5,294.0938,405.5,298.0938,415.5,302.0938,411.5,298.0938" style="stroke:#808080;stroke-width:1.0;"/><line style="stroke:#808080;stroke-width:1.0;stroke-dasharray:2.0,2.0;" x1="409.5" x2="586.5" y1="298.0938" y2="298.0938"/><text fill="#000000" font-family="sans-serif" font-size="13" lengthAdjust="spacing" textLength="45" x="421.5" y="293.0278">project</text><polygon fill="#A80036" points="502.5,323.2266,512.5,327.2266,502.5,331.2266,506.5,327.2266" style="stroke:#A80036;stroke-width:1.0;"/><line style="stroke:#A80036;stroke-width:1.0;" x1="404.5" x2="508.5" y1="327.2266" y2="327.2266"/><text fill="#000000" font-family="sans-serif" font-size="13" lengthAdjust="spacing" textLength="86" x="411.5" y="322.1606">save(project)</text><polygon fill="#808080" points="415.5,337.2266,405.5,341.2266,415.5,345.2266,411.5,341.2266" style="stroke:#808080;stroke-width:1.0;"/><line style="stroke:#808080;stroke-width:1.0;stroke-dasharray:2.0,2.0;" x1="409.5" x2="513.5" y1="341.2266" y2="341.2266"/><polygon fill="#A80036" points="575.5,366.3594,585.5,370.3594,575.5,374.3594,579.5,370.3594" style="stroke:#A80036;stroke-width:1.0;"/><line style="stroke:#A80036;stroke-width:1.0;" x1="404.5" x2="581.5" y1="370.3594" y2="370.3594"/><text fill="#000000" font-family="sans-serif" font-size="13" lengthAdjust="spacing" textLength="123" x="411.5" y="365.2935">mapToDto(project)</text><polygon fill="#A80036" points="798,395.4922,808,399.4922,798,403.4922,802,399.4922" style="stroke:#A80036;stroke-width:1.0;"/><line style="stroke:#A80036;stroke-width:1.0;" x1="587.5" x2="804" y1="399.4922" y2="399.4922"/><text fill="#000000" font-family="sans-serif" font-size="13" lengthAdjust="spacing" textLength="164" x="594.5" y="394.4263">map(source, targetClass)</text><polygon fill="#808080" points="598.5,409.4922,588.5,413.4922,598.5,417.4922,594.5,413.4922" style="stroke:#808080;stroke-width:1.0;"/><line style="stroke:#808080;stroke-width:1.0;stroke-dasharray:2.0,2.0;" x1="592.5" x2="809" y1="413.4922" y2="413.4922"/><polygon fill="#808080" points="415.5,423.4922,405.5,427.4922,415.5,431.4922,411.5,427.4922" style="stroke:#808080;stroke-width:1.0;"/><line style="stroke:#808080;stroke-width:1.0;stroke-dasharray:2.0,2.0;" x1="409.5" x2="586.5" y1="427.4922" y2="427.4922"/><polygon fill="#808080" points="212.5,452.625,202.5,456.625,212.5,460.625,208.5,456.625" style="stroke:#808080;stroke-width:1.0;"/><line style="stroke:#808080;stroke-width:1.0;stroke-dasharray:2.0,2.0;" x1="206.5" x2="403.5" y1="456.625" y2="456.625"/><text fill="#000000" font-family="sans-serif" font-size="13" lengthAdjust="spacing" textLength="68" x="218.5" y="451.5591">projectDto</text><polygon fill="#808080" points="49.5,481.7578,39.5,485.7578,49.5,489.7578,45.5,485.7578" style="stroke:#808080;stroke-width:1.0;"/><line style="stroke:#808080;stroke-width:1.0;stroke-dasharray:2.0,2.0;" x1="43.5" x2="200.5" y1="485.7578" y2="485.7578"/><text fill="#000000" font-family="sans-serif" font-size="13" lengthAdjust="spacing" textLength="139" x="55.5" y="480.6919">HTTP POST Response</text><!--MD5=[a4cd4cb6706361634f0b0ec925061104]
@startuml


skinparam {
    BoundaryBackgroundColor #629EF9
    BoundaryBorderColor black
    BoundaryFontSize 12
    BoundarySize 10
    ControlBackgroundColor #b5bd68
    ControlBorderColor #718c00
    EntityBackgroundColor #F2AC4E
    EntityBorderColor black
    backgroundColor white
}
box #DDFFE8
    actor frontend
end box
box "Back End" #DDF2FF
    boundary XResource
    control XBService
    boundary XTSDao as "XRepository"
    boundary XDto
    entity XBuilder
    entity XBEntity
    control XMapper
end box

frontend -> XResource : HTTP POST JSON
XResource -> XBService :  planProject(planProjectDto)
XBService -> XDto : createProject()
XDto -> XBuilder : build()
XBuilder -> XBEntity : new
XBEntity -[#Gray]-> XBuilder
XBuilder -[#Gray]-> XDto
XDto -[#Gray]-> XBService : project
XBService -> XTSDao : save(project)
XTSDao -[#Gray]-> XBService
XBService -> XDto : mapToDto(project)
XDto -> XMapper : map(source, targetClass)
XMapper -[#Gray]-> XDto
XDto -[#Gray]-> XBService
XBService -[#Gray]-> XResource : projectDto
XResource -[#Gray]-> frontend : HTTP POST Response



@enduml

PlantUML version 1.2021.11(Sat Oct 02 15:26:11 CEST 2021)
(GPL source distribution)
Java Runtime: OpenJDK Runtime Environment
JVM: OpenJDK 64-Bit Server VM
Default Encoding: UTF-8
Language: en
Country: US
--></g></svg>