<?xml version="1.0" encoding="UTF-8" standalone="no"?><svg xmlns="http://www.w3.org/2000/svg" xmlns:xlink="http://www.w3.org/1999/xlink" contentScriptType="application/ecmascript" contentStyleType="text/css" height="1277px" preserveAspectRatio="none" style="width:546px;height:1277px;" version="1.1" viewBox="0 0 546 1277" width="546px" zoomAndPan="magnify"><defs><filter height="300%" id="f58g7g0k5zw5y" width="300%" x="-1" y="-1"><feGaussianBlur result="blurOut" stdDeviation="2.0"/><feColorMatrix in="blurOut" result="blurOut2" type="matrix" values="0 0 0 0 0 0 0 0 0 0 0 0 0 0 0 0 0 0 .4 0"/><feOffset dx="4.0" dy="4.0" in="blurOut2" result="blurOut3"/><feBlend in="SourceGraphic" in2="blurOut3" mode="normal"/></filter></defs><g><text fill="#000000" font-family="sans-serif" font-size="18" lengthAdjust="spacingAndGlyphs" textLength="122" x="215" y="18.6855">AnalysisActivity</text><!--class Discipline--><rect fill="#FF0000" filter="url(#f58g7g0k5zw5y)" height="48" id="Discipline" style="stroke: #A80036; stroke-width: 1.5;" width="87" x="92.5" y="30.6406"/><rect fill="#FF0000" height="32" style="stroke: #A80036; stroke-width: 1.5;" width="87" x="92.5" y="30.6406"/><ellipse cx="107.5" cy="46.6406" fill="#ADD1B2" rx="11" ry="11" style="stroke: #A80036; stroke-width: 1.0;"/><path d="M110.2656,42.5156 Q110.4219,42.2969 110.6094,42.1875 Q110.7969,42.0781 111.0156,42.0781 Q111.3906,42.0781 111.625,42.3359 Q111.8594,42.5938 111.8594,43.2031 L111.8594,44.6563 Q111.8594,45.2656 111.625,45.5313 Q111.3906,45.7969 111.0156,45.7969 Q110.6719,45.7969 110.4688,45.5938 Q110.2656,45.4063 110.1563,44.8906 Q110.1094,44.5313 109.9219,44.3438 Q109.5938,43.9688 108.9844,43.75 Q108.375,43.5313 107.75,43.5313 Q106.9844,43.5313 106.3516,43.8594 Q105.7188,44.1875 105.2266,44.9375 Q104.7344,45.6875 104.7344,46.7188 L104.7344,47.8125 Q104.7344,49.0469 105.625,49.8672 Q106.5156,50.6875 108.1094,50.6875 Q109.0469,50.6875 109.7031,50.4375 Q110.0938,50.2813 110.5156,49.8438 Q110.7813,49.5781 110.9297,49.5 Q111.0781,49.4219 111.2813,49.4219 Q111.6094,49.4219 111.8672,49.6797 Q112.125,49.9375 112.125,50.2813 Q112.125,50.625 111.7813,51.0313 Q111.2813,51.6094 110.4844,51.9375 Q109.4063,52.3906 108.1094,52.3906 Q106.5938,52.3906 105.3906,51.7656 Q104.4063,51.2656 103.7188,50.1953 Q103.0313,49.125 103.0313,47.8438 L103.0313,46.6875 Q103.0313,45.3594 103.6484,44.2109 Q104.2656,43.0625 105.3594,42.4453 Q106.4531,41.8281 107.6875,41.8281 Q108.4219,41.8281 109.0703,41.9922 Q109.7188,42.1563 110.2656,42.5156 Z "/><text fill="#000000" font-family="sans-serif" font-size="12" lengthAdjust="spacingAndGlyphs" textLength="55" x="121.5" y="51.5508">Discipline</text><line style="stroke: #A80036; stroke-width: 1.5;" x1="93.5" x2="178.5" y1="62.6406" y2="62.6406"/><line style="stroke: #A80036; stroke-width: 1.5;" x1="93.5" x2="178.5" y1="70.6406" y2="70.6406"/><!--class Activity--><rect fill="#008000" filter="url(#f58g7g0k5zw5y)" height="48" id="Activity" style="stroke: #A80036; stroke-width: 1.5;" width="67" x="35.5" y="139.6406"/><rect fill="#008000" height="32" style="stroke: #A80036; stroke-width: 1.5;" width="67" x="35.5" y="139.6406"/><ellipse cx="50.5" cy="155.6406" fill="#ADD1B2" rx="11" ry="11" style="stroke: #A80036; stroke-width: 1.0;"/><path d="M53.2656,151.5156 Q53.4219,151.2969 53.6094,151.1875 Q53.7969,151.0781 54.0156,151.0781 Q54.3906,151.0781 54.625,151.3359 Q54.8594,151.5938 54.8594,152.2031 L54.8594,153.6563 Q54.8594,154.2656 54.625,154.5313 Q54.3906,154.7969 54.0156,154.7969 Q53.6719,154.7969 53.4688,154.5938 Q53.2656,154.4063 53.1563,153.8906 Q53.1094,153.5313 52.9219,153.3438 Q52.5938,152.9688 51.9844,152.75 Q51.375,152.5313 50.75,152.5313 Q49.9844,152.5313 49.3516,152.8594 Q48.7188,153.1875 48.2266,153.9375 Q47.7344,154.6875 47.7344,155.7188 L47.7344,156.8125 Q47.7344,158.0469 48.625,158.8672 Q49.5156,159.6875 51.1094,159.6875 Q52.0469,159.6875 52.7031,159.4375 Q53.0938,159.2813 53.5156,158.8438 Q53.7813,158.5781 53.9297,158.5 Q54.0781,158.4219 54.2813,158.4219 Q54.6094,158.4219 54.8672,158.6797 Q55.125,158.9375 55.125,159.2813 Q55.125,159.625 54.7813,160.0313 Q54.2813,160.6094 53.4844,160.9375 Q52.4063,161.3906 51.1094,161.3906 Q49.5938,161.3906 48.3906,160.7656 Q47.4063,160.2656 46.7188,159.1953 Q46.0313,158.125 46.0313,156.8438 L46.0313,155.6875 Q46.0313,154.3594 46.6484,153.2109 Q47.2656,152.0625 48.3594,151.4453 Q49.4531,150.8281 50.6875,150.8281 Q51.4219,150.8281 52.0703,150.9922 Q52.7188,151.1563 53.2656,151.5156 Z "/><text fill="#000000" font-family="sans-serif" font-size="12" lengthAdjust="spacingAndGlyphs" textLength="35" x="64.5" y="160.5508">Activity</text><line style="stroke: #A80036; stroke-width: 1.5;" x1="36.5" x2="101.5" y1="171.6406" y2="171.6406"/><line style="stroke: #A80036; stroke-width: 1.5;" x1="36.5" x2="101.5" y1="179.6406" y2="179.6406"/><!--class AnalysisDiscipline--><rect fill="#FF0000" filter="url(#f58g7g0k5zw5y)" height="48" id="AnalysisDiscipline" style="stroke: #A80036; stroke-width: 1.5;" width="133" x="137.5" y="139.6406"/><rect fill="#FF0000" height="32" style="stroke: #A80036; stroke-width: 1.5;" width="133" x="137.5" y="139.6406"/><ellipse cx="152.5" cy="155.6406" fill="#ADD1B2" rx="11" ry="11" style="stroke: #A80036; stroke-width: 1.0;"/><path d="M155.2656,151.5156 Q155.4219,151.2969 155.6094,151.1875 Q155.7969,151.0781 156.0156,151.0781 Q156.3906,151.0781 156.625,151.3359 Q156.8594,151.5938 156.8594,152.2031 L156.8594,153.6563 Q156.8594,154.2656 156.625,154.5313 Q156.3906,154.7969 156.0156,154.7969 Q155.6719,154.7969 155.4688,154.5938 Q155.2656,154.4063 155.1563,153.8906 Q155.1094,153.5313 154.9219,153.3438 Q154.5938,152.9688 153.9844,152.75 Q153.375,152.5313 152.75,152.5313 Q151.9844,152.5313 151.3516,152.8594 Q150.7188,153.1875 150.2266,153.9375 Q149.7344,154.6875 149.7344,155.7188 L149.7344,156.8125 Q149.7344,158.0469 150.625,158.8672 Q151.5156,159.6875 153.1094,159.6875 Q154.0469,159.6875 154.7031,159.4375 Q155.0938,159.2813 155.5156,158.8438 Q155.7813,158.5781 155.9297,158.5 Q156.0781,158.4219 156.2813,158.4219 Q156.6094,158.4219 156.8672,158.6797 Q157.125,158.9375 157.125,159.2813 Q157.125,159.625 156.7813,160.0313 Q156.2813,160.6094 155.4844,160.9375 Q154.4063,161.3906 153.1094,161.3906 Q151.5938,161.3906 150.3906,160.7656 Q149.4063,160.2656 148.7188,159.1953 Q148.0313,158.125 148.0313,156.8438 L148.0313,155.6875 Q148.0313,154.3594 148.6484,153.2109 Q149.2656,152.0625 150.3594,151.4453 Q151.4531,150.8281 152.6875,150.8281 Q153.4219,150.8281 154.0703,150.9922 Q154.7188,151.1563 155.2656,151.5156 Z "/><text fill="#000000" font-family="sans-serif" font-size="12" lengthAdjust="spacingAndGlyphs" textLength="101" x="166.5" y="160.5508">AnalysisDiscipline</text><line style="stroke: #A80036; stroke-width: 1.5;" x1="138.5" x2="269.5" y1="171.6406" y2="171.6406"/><line style="stroke: #A80036; stroke-width: 1.5;" x1="138.5" x2="269.5" y1="179.6406" y2="179.6406"/><!--class AnalysisActivity--><rect fill="#008000" filter="url(#f58g7g0k5zw5y)" height="48" id="AnalysisActivity" style="stroke: #A80036; stroke-width: 1.5;" width="113" x="91.5" y="248.6406"/><rect fill="#008000" height="32" style="stroke: #A80036; stroke-width: 1.5;" width="113" x="91.5" y="248.6406"/><ellipse cx="106.5" cy="264.6406" fill="#ADD1B2" rx="11" ry="11" style="stroke: #A80036; stroke-width: 1.0;"/><path d="M109.2656,260.5156 Q109.4219,260.2969 109.6094,260.1875 Q109.7969,260.0781 110.0156,260.0781 Q110.3906,260.0781 110.625,260.3359 Q110.8594,260.5938 110.8594,261.2031 L110.8594,262.6563 Q110.8594,263.2656 110.625,263.5313 Q110.3906,263.7969 110.0156,263.7969 Q109.6719,263.7969 109.4688,263.5938 Q109.2656,263.4063 109.1563,262.8906 Q109.1094,262.5313 108.9219,262.3438 Q108.5938,261.9688 107.9844,261.75 Q107.375,261.5313 106.75,261.5313 Q105.9844,261.5313 105.3516,261.8594 Q104.7188,262.1875 104.2266,262.9375 Q103.7344,263.6875 103.7344,264.7188 L103.7344,265.8125 Q103.7344,267.0469 104.625,267.8672 Q105.5156,268.6875 107.1094,268.6875 Q108.0469,268.6875 108.7031,268.4375 Q109.0938,268.2813 109.5156,267.8438 Q109.7813,267.5781 109.9297,267.5 Q110.0781,267.4219 110.2813,267.4219 Q110.6094,267.4219 110.8672,267.6797 Q111.125,267.9375 111.125,268.2813 Q111.125,268.625 110.7813,269.0313 Q110.2813,269.6094 109.4844,269.9375 Q108.4063,270.3906 107.1094,270.3906 Q105.5938,270.3906 104.3906,269.7656 Q103.4063,269.2656 102.7188,268.1953 Q102.0313,267.125 102.0313,265.8438 L102.0313,264.6875 Q102.0313,263.3594 102.6484,262.2109 Q103.2656,261.0625 104.3594,260.4453 Q105.4531,259.8281 106.6875,259.8281 Q107.4219,259.8281 108.0703,259.9922 Q108.7188,260.1563 109.2656,260.5156 Z "/><text fill="#000000" font-family="sans-serif" font-size="12" lengthAdjust="spacingAndGlyphs" textLength="81" x="120.5" y="269.5508">AnalysisActivity</text><line style="stroke: #A80036; stroke-width: 1.5;" x1="92.5" x2="203.5" y1="280.6406" y2="280.6406"/><line style="stroke: #A80036; stroke-width: 1.5;" x1="92.5" x2="203.5" y1="288.6406" y2="288.6406"/><!--class Member--><rect fill="#FFFFFF" filter="url(#f58g7g0k5zw5y)" height="48" id="Member" style="stroke: #A80036; stroke-width: 1.5;" width="77" x="227.5" y="357.6406"/><rect fill="#FFFFFF" height="32" style="stroke: #A80036; stroke-width: 1.5;" width="77" x="227.5" y="357.6406"/><ellipse cx="242.5" cy="373.6406" fill="#ADD1B2" rx="11" ry="11" style="stroke: #A80036; stroke-width: 1.0;"/><path d="M245.2656,369.5156 Q245.4219,369.2969 245.6094,369.1875 Q245.7969,369.0781 246.0156,369.0781 Q246.3906,369.0781 246.625,369.3359 Q246.8594,369.5938 246.8594,370.2031 L246.8594,371.6563 Q246.8594,372.2656 246.625,372.5313 Q246.3906,372.7969 246.0156,372.7969 Q245.6719,372.7969 245.4688,372.5938 Q245.2656,372.4063 245.1563,371.8906 Q245.1094,371.5313 244.9219,371.3438 Q244.5938,370.9688 243.9844,370.75 Q243.375,370.5313 242.75,370.5313 Q241.9844,370.5313 241.3516,370.8594 Q240.7188,371.1875 240.2266,371.9375 Q239.7344,372.6875 239.7344,373.7188 L239.7344,374.8125 Q239.7344,376.0469 240.625,376.8672 Q241.5156,377.6875 243.1094,377.6875 Q244.0469,377.6875 244.7031,377.4375 Q245.0938,377.2813 245.5156,376.8438 Q245.7813,376.5781 245.9297,376.5 Q246.0781,376.4219 246.2813,376.4219 Q246.6094,376.4219 246.8672,376.6797 Q247.125,376.9375 247.125,377.2813 Q247.125,377.625 246.7813,378.0313 Q246.2813,378.6094 245.4844,378.9375 Q244.4063,379.3906 243.1094,379.3906 Q241.5938,379.3906 240.3906,378.7656 Q239.4063,378.2656 238.7188,377.1953 Q238.0313,376.125 238.0313,374.8438 L238.0313,373.6875 Q238.0313,372.3594 238.6484,371.2109 Q239.2656,370.0625 240.3594,369.4453 Q241.4531,368.8281 242.6875,368.8281 Q243.4219,368.8281 244.0703,368.9922 Q244.7188,369.1563 245.2656,369.5156 Z "/><text fill="#000000" font-family="sans-serif" font-size="12" lengthAdjust="spacingAndGlyphs" textLength="45" x="256.5" y="378.5508">Member</text><line style="stroke: #A80036; stroke-width: 1.5;" x1="228.5" x2="303.5" y1="389.6406" y2="389.6406"/><line style="stroke: #A80036; stroke-width: 1.5;" x1="228.5" x2="303.5" y1="397.6406" y2="397.6406"/><!--class Role--><rect fill="#FFFFFF" filter="url(#f58g7g0k5zw5y)" height="48" id="Role" style="stroke: #A80036; stroke-width: 1.5;" width="58" x="265" y="466.6406"/><rect fill="#FFFFFF" height="32" style="stroke: #A80036; stroke-width: 1.5;" width="58" x="265" y="466.6406"/><ellipse cx="280" cy="482.6406" fill="#ADD1B2" rx="11" ry="11" style="stroke: #A80036; stroke-width: 1.0;"/><path d="M282.7656,478.5156 Q282.9219,478.2969 283.1094,478.1875 Q283.2969,478.0781 283.5156,478.0781 Q283.8906,478.0781 284.125,478.3359 Q284.3594,478.5938 284.3594,479.2031 L284.3594,480.6563 Q284.3594,481.2656 284.125,481.5313 Q283.8906,481.7969 283.5156,481.7969 Q283.1719,481.7969 282.9688,481.5938 Q282.7656,481.4063 282.6563,480.8906 Q282.6094,480.5313 282.4219,480.3438 Q282.0938,479.9688 281.4844,479.75 Q280.875,479.5313 280.25,479.5313 Q279.4844,479.5313 278.8516,479.8594 Q278.2188,480.1875 277.7266,480.9375 Q277.2344,481.6875 277.2344,482.7188 L277.2344,483.8125 Q277.2344,485.0469 278.125,485.8672 Q279.0156,486.6875 280.6094,486.6875 Q281.5469,486.6875 282.2031,486.4375 Q282.5938,486.2813 283.0156,485.8438 Q283.2813,485.5781 283.4297,485.5 Q283.5781,485.4219 283.7813,485.4219 Q284.1094,485.4219 284.3672,485.6797 Q284.625,485.9375 284.625,486.2813 Q284.625,486.625 284.2813,487.0313 Q283.7813,487.6094 282.9844,487.9375 Q281.9063,488.3906 280.6094,488.3906 Q279.0938,488.3906 277.8906,487.7656 Q276.9063,487.2656 276.2188,486.1953 Q275.5313,485.125 275.5313,483.8438 L275.5313,482.6875 Q275.5313,481.3594 276.1484,480.2109 Q276.7656,479.0625 277.8594,478.4453 Q278.9531,477.8281 280.1875,477.8281 Q280.9219,477.8281 281.5703,477.9922 Q282.2188,478.1563 282.7656,478.5156 Z "/><text fill="#000000" font-family="sans-serif" font-size="12" lengthAdjust="spacingAndGlyphs" textLength="26" x="294" y="487.5508">Role</text><line style="stroke: #A80036; stroke-width: 1.5;" x1="266" x2="322" y1="498.6406" y2="498.6406"/><line style="stroke: #A80036; stroke-width: 1.5;" x1="266" x2="322" y1="506.6406" y2="506.6406"/><!--class AnalysisRole--><rect fill="#0000FF" filter="url(#f58g7g0k5zw5y)" height="48" id="AnalysisRole" style="stroke: #A80036; stroke-width: 1.5;" width="104" x="285" y="575.6406"/><rect fill="#0000FF" height="32" style="stroke: #A80036; stroke-width: 1.5;" width="104" x="285" y="575.6406"/><ellipse cx="300" cy="591.6406" fill="#ADD1B2" rx="11" ry="11" style="stroke: #A80036; stroke-width: 1.0;"/><path d="M302.7656,587.5156 Q302.9219,587.2969 303.1094,587.1875 Q303.2969,587.0781 303.5156,587.0781 Q303.8906,587.0781 304.125,587.3359 Q304.3594,587.5938 304.3594,588.2031 L304.3594,589.6563 Q304.3594,590.2656 304.125,590.5313 Q303.8906,590.7969 303.5156,590.7969 Q303.1719,590.7969 302.9688,590.5938 Q302.7656,590.4063 302.6563,589.8906 Q302.6094,589.5313 302.4219,589.3438 Q302.0938,588.9688 301.4844,588.75 Q300.875,588.5313 300.25,588.5313 Q299.4844,588.5313 298.8516,588.8594 Q298.2188,589.1875 297.7266,589.9375 Q297.2344,590.6875 297.2344,591.7188 L297.2344,592.8125 Q297.2344,594.0469 298.125,594.8672 Q299.0156,595.6875 300.6094,595.6875 Q301.5469,595.6875 302.2031,595.4375 Q302.5938,595.2813 303.0156,594.8438 Q303.2813,594.5781 303.4297,594.5 Q303.5781,594.4219 303.7813,594.4219 Q304.1094,594.4219 304.3672,594.6797 Q304.625,594.9375 304.625,595.2813 Q304.625,595.625 304.2813,596.0313 Q303.7813,596.6094 302.9844,596.9375 Q301.9063,597.3906 300.6094,597.3906 Q299.0938,597.3906 297.8906,596.7656 Q296.9063,596.2656 296.2188,595.1953 Q295.5313,594.125 295.5313,592.8438 L295.5313,591.6875 Q295.5313,590.3594 296.1484,589.2109 Q296.7656,588.0625 297.8594,587.4453 Q298.9531,586.8281 300.1875,586.8281 Q300.9219,586.8281 301.5703,586.9922 Q302.2188,587.1563 302.7656,587.5156 Z "/><text fill="#000000" font-family="sans-serif" font-size="12" lengthAdjust="spacingAndGlyphs" textLength="72" x="314" y="596.5508">AnalysisRole</text><line style="stroke: #A80036; stroke-width: 1.5;" x1="286" x2="388" y1="607.6406" y2="607.6406"/><line style="stroke: #A80036; stroke-width: 1.5;" x1="286" x2="388" y1="615.6406" y2="615.6406"/><!--class Architect--><rect fill="#0000FF" filter="url(#f58g7g0k5zw5y)" height="48" id="Architect" style="stroke: #A80036; stroke-width: 1.5;" width="78" x="301" y="684.6406"/><rect fill="#0000FF" height="32" style="stroke: #A80036; stroke-width: 1.5;" width="78" x="301" y="684.6406"/><ellipse cx="316" cy="700.6406" fill="#ADD1B2" rx="11" ry="11" style="stroke: #A80036; stroke-width: 1.0;"/><path d="M318.7656,696.5156 Q318.9219,696.2969 319.1094,696.1875 Q319.2969,696.0781 319.5156,696.0781 Q319.8906,696.0781 320.125,696.3359 Q320.3594,696.5938 320.3594,697.2031 L320.3594,698.6563 Q320.3594,699.2656 320.125,699.5313 Q319.8906,699.7969 319.5156,699.7969 Q319.1719,699.7969 318.9688,699.5938 Q318.7656,699.4063 318.6563,698.8906 Q318.6094,698.5313 318.4219,698.3438 Q318.0938,697.9688 317.4844,697.75 Q316.875,697.5313 316.25,697.5313 Q315.4844,697.5313 314.8516,697.8594 Q314.2188,698.1875 313.7266,698.9375 Q313.2344,699.6875 313.2344,700.7188 L313.2344,701.8125 Q313.2344,703.0469 314.125,703.8672 Q315.0156,704.6875 316.6094,704.6875 Q317.5469,704.6875 318.2031,704.4375 Q318.5938,704.2813 319.0156,703.8438 Q319.2813,703.5781 319.4297,703.5 Q319.5781,703.4219 319.7813,703.4219 Q320.1094,703.4219 320.3672,703.6797 Q320.625,703.9375 320.625,704.2813 Q320.625,704.625 320.2813,705.0313 Q319.7813,705.6094 318.9844,705.9375 Q317.9063,706.3906 316.6094,706.3906 Q315.0938,706.3906 313.8906,705.7656 Q312.9063,705.2656 312.2188,704.1953 Q311.5313,703.125 311.5313,701.8438 L311.5313,700.6875 Q311.5313,699.3594 312.1484,698.2109 Q312.7656,697.0625 313.8594,696.4453 Q314.9531,695.8281 316.1875,695.8281 Q316.9219,695.8281 317.5703,695.9922 Q318.2188,696.1563 318.7656,696.5156 Z "/><text fill="#000000" font-family="sans-serif" font-size="12" lengthAdjust="spacingAndGlyphs" textLength="46" x="330" y="705.5508">Architect</text><line style="stroke: #A80036; stroke-width: 1.5;" x1="302" x2="378" y1="716.6406" y2="716.6406"/><line style="stroke: #A80036; stroke-width: 1.5;" x1="302" x2="378" y1="724.6406" y2="724.6406"/><!--class EngineerUseCases--><rect fill="#0000FF" filter="url(#f58g7g0k5zw5y)" height="48" id="EngineerUseCases" style="stroke: #A80036; stroke-width: 1.5;" width="142" x="173" y="762.6406"/><rect fill="#0000FF" height="32" style="stroke: #A80036; stroke-width: 1.5;" width="142" x="173" y="762.6406"/><ellipse cx="188" cy="778.6406" fill="#ADD1B2" rx="11" ry="11" style="stroke: #A80036; stroke-width: 1.0;"/><path d="M190.7656,774.5156 Q190.9219,774.2969 191.1094,774.1875 Q191.2969,774.0781 191.5156,774.0781 Q191.8906,774.0781 192.125,774.3359 Q192.3594,774.5938 192.3594,775.2031 L192.3594,776.6563 Q192.3594,777.2656 192.125,777.5313 Q191.8906,777.7969 191.5156,777.7969 Q191.1719,777.7969 190.9688,777.5938 Q190.7656,777.4063 190.6563,776.8906 Q190.6094,776.5313 190.4219,776.3438 Q190.0938,775.9688 189.4844,775.75 Q188.875,775.5313 188.25,775.5313 Q187.4844,775.5313 186.8516,775.8594 Q186.2188,776.1875 185.7266,776.9375 Q185.2344,777.6875 185.2344,778.7188 L185.2344,779.8125 Q185.2344,781.0469 186.125,781.8672 Q187.0156,782.6875 188.6094,782.6875 Q189.5469,782.6875 190.2031,782.4375 Q190.5938,782.2813 191.0156,781.8438 Q191.2813,781.5781 191.4297,781.5 Q191.5781,781.4219 191.7813,781.4219 Q192.1094,781.4219 192.3672,781.6797 Q192.625,781.9375 192.625,782.2813 Q192.625,782.625 192.2813,783.0313 Q191.7813,783.6094 190.9844,783.9375 Q189.9063,784.3906 188.6094,784.3906 Q187.0938,784.3906 185.8906,783.7656 Q184.9063,783.2656 184.2188,782.1953 Q183.5313,781.125 183.5313,779.8438 L183.5313,778.6875 Q183.5313,777.3594 184.1484,776.2109 Q184.7656,775.0625 185.8594,774.4453 Q186.9531,773.8281 188.1875,773.8281 Q188.9219,773.8281 189.5703,773.9922 Q190.2188,774.1563 190.7656,774.5156 Z "/><text fill="#000000" font-family="sans-serif" font-size="12" lengthAdjust="spacingAndGlyphs" textLength="110" x="202" y="783.5508">EngineerUseCases</text><line style="stroke: #A80036; stroke-width: 1.5;" x1="174" x2="314" y1="794.6406" y2="794.6406"/><line style="stroke: #A80036; stroke-width: 1.5;" x1="174" x2="314" y1="802.6406" y2="802.6406"/><!--class EngineerComponents--><rect fill="#0000FF" filter="url(#f58g7g0k5zw5y)" height="48" id="EngineerComponents" style="stroke: #A80036; stroke-width: 1.5;" width="154" x="310" y="966.6406"/><rect fill="#0000FF" height="32" style="stroke: #A80036; stroke-width: 1.5;" width="154" x="310" y="966.6406"/><ellipse cx="325" cy="982.6406" fill="#ADD1B2" rx="11" ry="11" style="stroke: #A80036; stroke-width: 1.0;"/><path d="M327.7656,978.5156 Q327.9219,978.2969 328.1094,978.1875 Q328.2969,978.0781 328.5156,978.0781 Q328.8906,978.0781 329.125,978.3359 Q329.3594,978.5938 329.3594,979.2031 L329.3594,980.6563 Q329.3594,981.2656 329.125,981.5313 Q328.8906,981.7969 328.5156,981.7969 Q328.1719,981.7969 327.9688,981.5938 Q327.7656,981.4063 327.6563,980.8906 Q327.6094,980.5313 327.4219,980.3438 Q327.0938,979.9688 326.4844,979.75 Q325.875,979.5313 325.25,979.5313 Q324.4844,979.5313 323.8516,979.8594 Q323.2188,980.1875 322.7266,980.9375 Q322.2344,981.6875 322.2344,982.7188 L322.2344,983.8125 Q322.2344,985.0469 323.125,985.8672 Q324.0156,986.6875 325.6094,986.6875 Q326.5469,986.6875 327.2031,986.4375 Q327.5938,986.2813 328.0156,985.8438 Q328.2813,985.5781 328.4297,985.5 Q328.5781,985.4219 328.7813,985.4219 Q329.1094,985.4219 329.3672,985.6797 Q329.625,985.9375 329.625,986.2813 Q329.625,986.625 329.2813,987.0313 Q328.7813,987.6094 327.9844,987.9375 Q326.9063,988.3906 325.6094,988.3906 Q324.0938,988.3906 322.8906,987.7656 Q321.9063,987.2656 321.2188,986.1953 Q320.5313,985.125 320.5313,983.8438 L320.5313,982.6875 Q320.5313,981.3594 321.1484,980.2109 Q321.7656,979.0625 322.8594,978.4453 Q323.9531,977.8281 325.1875,977.8281 Q325.9219,977.8281 326.5703,977.9922 Q327.2188,978.1563 327.7656,978.5156 Z "/><text fill="#000000" font-family="sans-serif" font-size="12" lengthAdjust="spacingAndGlyphs" textLength="122" x="339" y="987.5508">EngineerComponents</text><line style="stroke: #A80036; stroke-width: 1.5;" x1="311" x2="463" y1="998.6406" y2="998.6406"/><line style="stroke: #A80036; stroke-width: 1.5;" x1="311" x2="463" y1="1006.6406" y2="1006.6406"/><!--class AnalyzeArchitecture--><rect fill="#008000" filter="url(#f58g7g0k5zw5y)" height="48" id="AnalyzeArchitecture" style="stroke: #A80036; stroke-width: 1.5;" width="137" x="272.5" y="840.6406"/><rect fill="#008000" height="32" style="stroke: #A80036; stroke-width: 1.5;" width="137" x="272.5" y="840.6406"/><ellipse cx="287.5" cy="856.6406" fill="#ADD1B2" rx="11" ry="11" style="stroke: #A80036; stroke-width: 1.0;"/><path d="M290.2656,852.5156 Q290.4219,852.2969 290.6094,852.1875 Q290.7969,852.0781 291.0156,852.0781 Q291.3906,852.0781 291.625,852.3359 Q291.8594,852.5938 291.8594,853.2031 L291.8594,854.6563 Q291.8594,855.2656 291.625,855.5313 Q291.3906,855.7969 291.0156,855.7969 Q290.6719,855.7969 290.4688,855.5938 Q290.2656,855.4063 290.1563,854.8906 Q290.1094,854.5313 289.9219,854.3438 Q289.5938,853.9688 288.9844,853.75 Q288.375,853.5313 287.75,853.5313 Q286.9844,853.5313 286.3516,853.8594 Q285.7188,854.1875 285.2266,854.9375 Q284.7344,855.6875 284.7344,856.7188 L284.7344,857.8125 Q284.7344,859.0469 285.625,859.8672 Q286.5156,860.6875 288.1094,860.6875 Q289.0469,860.6875 289.7031,860.4375 Q290.0938,860.2813 290.5156,859.8438 Q290.7813,859.5781 290.9297,859.5 Q291.0781,859.4219 291.2813,859.4219 Q291.6094,859.4219 291.8672,859.6797 Q292.125,859.9375 292.125,860.2813 Q292.125,860.625 291.7813,861.0313 Q291.2813,861.6094 290.4844,861.9375 Q289.4063,862.3906 288.1094,862.3906 Q286.5938,862.3906 285.3906,861.7656 Q284.4063,861.2656 283.7188,860.1953 Q283.0313,859.125 283.0313,857.8438 L283.0313,856.6875 Q283.0313,855.3594 283.6484,854.2109 Q284.2656,853.0625 285.3594,852.4453 Q286.4531,851.8281 287.6875,851.8281 Q288.4219,851.8281 289.0703,851.9922 Q289.7188,852.1563 290.2656,852.5156 Z "/><text fill="#000000" font-family="sans-serif" font-size="12" lengthAdjust="spacingAndGlyphs" textLength="105" x="301.5" y="861.5508">AnalyzeArchitecture</text><line style="stroke: #A80036; stroke-width: 1.5;" x1="273.5" x2="408.5" y1="872.6406" y2="872.6406"/><line style="stroke: #A80036; stroke-width: 1.5;" x1="273.5" x2="408.5" y1="880.6406" y2="880.6406"/><!--class AnalyzeUseCases--><rect fill="#008000" filter="url(#f58g7g0k5zw5y)" height="48" id="AnalyzeUseCases" style="stroke: #A80036; stroke-width: 1.5;" width="133" x="141.5" y="966.6406"/><rect fill="#008000" height="32" style="stroke: #A80036; stroke-width: 1.5;" width="133" x="141.5" y="966.6406"/><ellipse cx="156.5" cy="982.6406" fill="#ADD1B2" rx="11" ry="11" style="stroke: #A80036; stroke-width: 1.0;"/><path d="M159.2656,978.5156 Q159.4219,978.2969 159.6094,978.1875 Q159.7969,978.0781 160.0156,978.0781 Q160.3906,978.0781 160.625,978.3359 Q160.8594,978.5938 160.8594,979.2031 L160.8594,980.6563 Q160.8594,981.2656 160.625,981.5313 Q160.3906,981.7969 160.0156,981.7969 Q159.6719,981.7969 159.4688,981.5938 Q159.2656,981.4063 159.1563,980.8906 Q159.1094,980.5313 158.9219,980.3438 Q158.5938,979.9688 157.9844,979.75 Q157.375,979.5313 156.75,979.5313 Q155.9844,979.5313 155.3516,979.8594 Q154.7188,980.1875 154.2266,980.9375 Q153.7344,981.6875 153.7344,982.7188 L153.7344,983.8125 Q153.7344,985.0469 154.625,985.8672 Q155.5156,986.6875 157.1094,986.6875 Q158.0469,986.6875 158.7031,986.4375 Q159.0938,986.2813 159.5156,985.8438 Q159.7813,985.5781 159.9297,985.5 Q160.0781,985.4219 160.2813,985.4219 Q160.6094,985.4219 160.8672,985.6797 Q161.125,985.9375 161.125,986.2813 Q161.125,986.625 160.7813,987.0313 Q160.2813,987.6094 159.4844,987.9375 Q158.4063,988.3906 157.1094,988.3906 Q155.5938,988.3906 154.3906,987.7656 Q153.4063,987.2656 152.7188,986.1953 Q152.0313,985.125 152.0313,983.8438 L152.0313,982.6875 Q152.0313,981.3594 152.6484,980.2109 Q153.2656,979.0625 154.3594,978.4453 Q155.4531,977.8281 156.6875,977.8281 Q157.4219,977.8281 158.0703,977.9922 Q158.7188,978.1563 159.2656,978.5156 Z "/><text fill="#000000" font-family="sans-serif" font-size="12" lengthAdjust="spacingAndGlyphs" textLength="101" x="170.5" y="987.5508">AnalyzeUseCases</text><line style="stroke: #A80036; stroke-width: 1.5;" x1="142.5" x2="273.5" y1="998.6406" y2="998.6406"/><line style="stroke: #A80036; stroke-width: 1.5;" x1="142.5" x2="273.5" y1="1006.6406" y2="1006.6406"/><!--class AnalyzeClasses--><rect fill="#008000" filter="url(#f58g7g0k5zw5y)" height="48" id="AnalyzeClasses" style="stroke: #A80036; stroke-width: 1.5;" width="120" x="148" y="1092.6406"/><rect fill="#008000" height="32" style="stroke: #A80036; stroke-width: 1.5;" width="120" x="148" y="1092.6406"/><ellipse cx="163" cy="1108.6406" fill="#ADD1B2" rx="11" ry="11" style="stroke: #A80036; stroke-width: 1.0;"/><path d="M165.7656,1104.5156 Q165.9219,1104.2969 166.1094,1104.1875 Q166.2969,1104.0781 166.5156,1104.0781 Q166.8906,1104.0781 167.125,1104.3359 Q167.3594,1104.5938 167.3594,1105.2031 L167.3594,1106.6563 Q167.3594,1107.2656 167.125,1107.5313 Q166.8906,1107.7969 166.5156,1107.7969 Q166.1719,1107.7969 165.9688,1107.5938 Q165.7656,1107.4063 165.6563,1106.8906 Q165.6094,1106.5313 165.4219,1106.3438 Q165.0938,1105.9688 164.4844,1105.75 Q163.875,1105.5313 163.25,1105.5313 Q162.4844,1105.5313 161.8516,1105.8594 Q161.2188,1106.1875 160.7266,1106.9375 Q160.2344,1107.6875 160.2344,1108.7188 L160.2344,1109.8125 Q160.2344,1111.0469 161.125,1111.8672 Q162.0156,1112.6875 163.6094,1112.6875 Q164.5469,1112.6875 165.2031,1112.4375 Q165.5938,1112.2813 166.0156,1111.8438 Q166.2813,1111.5781 166.4297,1111.5 Q166.5781,1111.4219 166.7813,1111.4219 Q167.1094,1111.4219 167.3672,1111.6797 Q167.625,1111.9375 167.625,1112.2813 Q167.625,1112.625 167.2813,1113.0313 Q166.7813,1113.6094 165.9844,1113.9375 Q164.9063,1114.3906 163.6094,1114.3906 Q162.0938,1114.3906 160.8906,1113.7656 Q159.9063,1113.2656 159.2188,1112.1953 Q158.5313,1111.125 158.5313,1109.8438 L158.5313,1108.6875 Q158.5313,1107.3594 159.1484,1106.2109 Q159.7656,1105.0625 160.8594,1104.4453 Q161.9531,1103.8281 163.1875,1103.8281 Q163.9219,1103.8281 164.5703,1103.9922 Q165.2188,1104.1563 165.7656,1104.5156 Z "/><text fill="#000000" font-family="sans-serif" font-size="12" lengthAdjust="spacingAndGlyphs" textLength="88" x="177" y="1113.5508">AnalyzeClasses</text><line style="stroke: #A80036; stroke-width: 1.5;" x1="149" x2="267" y1="1124.6406" y2="1124.6406"/><line style="stroke: #A80036; stroke-width: 1.5;" x1="149" x2="267" y1="1132.6406" y2="1132.6406"/><!--class AnalyzePackages--><rect fill="#008000" filter="url(#f58g7g0k5zw5y)" height="48" id="AnalyzePackages" style="stroke: #A80036; stroke-width: 1.5;" width="128" x="144" y="1218.6406"/><rect fill="#008000" height="32" style="stroke: #A80036; stroke-width: 1.5;" width="128" x="144" y="1218.6406"/><ellipse cx="159" cy="1234.6406" fill="#ADD1B2" rx="11" ry="11" style="stroke: #A80036; stroke-width: 1.0;"/><path d="M161.7656,1230.5156 Q161.9219,1230.2969 162.1094,1230.1875 Q162.2969,1230.0781 162.5156,1230.0781 Q162.8906,1230.0781 163.125,1230.3359 Q163.3594,1230.5938 163.3594,1231.2031 L163.3594,1232.6563 Q163.3594,1233.2656 163.125,1233.5313 Q162.8906,1233.7969 162.5156,1233.7969 Q162.1719,1233.7969 161.9688,1233.5938 Q161.7656,1233.4063 161.6563,1232.8906 Q161.6094,1232.5313 161.4219,1232.3438 Q161.0938,1231.9688 160.4844,1231.75 Q159.875,1231.5313 159.25,1231.5313 Q158.4844,1231.5313 157.8516,1231.8594 Q157.2188,1232.1875 156.7266,1232.9375 Q156.2344,1233.6875 156.2344,1234.7188 L156.2344,1235.8125 Q156.2344,1237.0469 157.125,1237.8672 Q158.0156,1238.6875 159.6094,1238.6875 Q160.5469,1238.6875 161.2031,1238.4375 Q161.5938,1238.2813 162.0156,1237.8438 Q162.2813,1237.5781 162.4297,1237.5 Q162.5781,1237.4219 162.7813,1237.4219 Q163.1094,1237.4219 163.3672,1237.6797 Q163.625,1237.9375 163.625,1238.2813 Q163.625,1238.625 163.2813,1239.0313 Q162.7813,1239.6094 161.9844,1239.9375 Q160.9063,1240.3906 159.6094,1240.3906 Q158.0938,1240.3906 156.8906,1239.7656 Q155.9063,1239.2656 155.2188,1238.1953 Q154.5313,1237.125 154.5313,1235.8438 L154.5313,1234.6875 Q154.5313,1233.3594 155.1484,1232.2109 Q155.7656,1231.0625 156.8594,1230.4453 Q157.9531,1229.8281 159.1875,1229.8281 Q159.9219,1229.8281 160.5703,1229.9922 Q161.2188,1230.1563 161.7656,1230.5156 Z "/><text fill="#000000" font-family="sans-serif" font-size="12" lengthAdjust="spacingAndGlyphs" textLength="96" x="173" y="1239.5508">AnalyzePackages</text><line style="stroke: #A80036; stroke-width: 1.5;" x1="145" x2="271" y1="1250.6406" y2="1250.6406"/><line style="stroke: #A80036; stroke-width: 1.5;" x1="145" x2="271" y1="1258.6406" y2="1258.6406"/><!--link Discipline to Activity--><path d="M114.455,90.0506 C106.788,102.2906 98.1601,116.0706 90.4975,128.3106 " fill="none" id="Discipline-Activity" style="stroke: #A80036; stroke-width: 1.0;"/><polygon fill="#A80036" points="83.5096,139.4706,91.6765,133.9659,86.1633,135.233,84.8962,129.7199,83.5096,139.4706" style="stroke: #A80036; stroke-width: 1.0;"/><line style="stroke: #A80036; stroke-width: 1.0;" x1="86.1633" x2="90.4089" y1="135.233" y2="128.4456"/><polygon fill="#A80036" points="121.462,78.8606,114.8874,81.8229,115.0931,89.031,121.6677,86.0688,121.462,78.8606" style="stroke: #A80036; stroke-width: 1.0;"/><!--link Discipline to AnalysisDiscipline--><path d="M161.518,95.7906 C170.885,110.5306 181.17,126.7206 189.274,139.4706 " fill="none" id="Discipline-AnalysisDiscipline" style="stroke: #A80036; stroke-width: 1.0;"/><polygon fill="none" points="155.574,99.4906,150.755,78.8606,167.39,91.9806,155.574,99.4906" style="stroke: #A80036; stroke-width: 1.0;"/><!--link AnalysisDiscipline to AnalysisActivity--><path d="M185.745,199.5206 C179.511,211.4306 172.54,224.7506 166.301,236.6706 " fill="none" id="AnalysisDiscipline-AnalysisActivity" style="stroke: #A80036; stroke-width: 1.0;"/><polygon fill="#A80036" points="160.127,248.4706,167.8443,242.3516,162.4455,244.0407,160.7564,238.6419,160.127,248.4706" style="stroke: #A80036; stroke-width: 1.0;"/><line style="stroke: #A80036; stroke-width: 1.0;" x1="162.4455" x2="166.1555" y1="244.0407" y2="236.9506"/><polygon fill="#A80036" points="191.849,187.8606,185.5228,191.3217,186.2845,198.4925,192.6107,195.0314,191.849,187.8606" style="stroke: #A80036; stroke-width: 1.0;"/><text fill="#000000" font-family="sans-serif" font-size="13" lengthAdjust="spacingAndGlyphs" textLength="7" x="155.3377" y="237.7672">4</text><!--link Activity to AnalysisActivity--><path d="M98.2872,204.3106 C109.265,219.1806 121.374,235.5806 130.892,248.4706 " fill="none" id="Activity-AnalysisActivity" style="stroke: #A80036; stroke-width: 1.0;"/><polygon fill="none" points="92.3898,208.1006,86.1418,187.8606,103.6527,199.7906,92.3898,208.1006" style="stroke: #A80036; stroke-width: 1.0;"/><!--link AnalysisActivity to Member--><path d="M183.373,305.7156 C198.292,319.2446 215.627,334.9636 230.555,348.4996 " fill="none" id="AnalysisActivity-Member" style="stroke: #A80036; stroke-width: 1.0;"/><polygon fill="#A80036" points="240.446,357.4686,236.4661,348.4597,236.7422,354.1098,231.092,354.3859,240.446,357.4686" style="stroke: #A80036; stroke-width: 1.0;"/><line style="stroke: #A80036; stroke-width: 1.0;" x1="236.7422" x2="230.8155" y1="354.1098" y2="348.7361"/><polygon fill="#A80036" points="173.604,296.8576,175.3621,303.8511,182.4938,304.9181,180.7357,297.9246,173.604,296.8576" style="stroke: #A80036; stroke-width: 1.0;"/><!--link Member to Role--><path d="M275.375,418.4676 C278.353,429.8456 281.645,442.4266 284.623,453.8056 " fill="none" id="Member-Role" style="stroke: #A80036; stroke-width: 1.0;"/><polygon fill="#A80036" points="287.936,466.4686,289.5271,456.7491,286.6701,461.6315,281.7878,458.7745,287.936,466.4686" style="stroke: #A80036; stroke-width: 1.0;"/><line style="stroke: #A80036; stroke-width: 1.0;" x1="286.6701" x2="284.645" y1="461.6315" y2="453.8916"/><polygon fill="#A80036" points="272.076,405.8576,269.7255,412.6749,275.1144,417.4666,277.4649,410.6493,272.076,405.8576" style="stroke: #A80036; stroke-width: 1.0;"/><!--link Role to AnalysisRole--><path d="M310.921,533.7456 C316.629,547.9496 322.789,563.2776 327.688,575.4686 " fill="none" id="Role-AnalysisRole" style="stroke: #A80036; stroke-width: 1.0;"/><polygon fill="none" points="304.293,536.0256,303.33,514.8576,317.283,530.8056,304.293,536.0256" style="stroke: #A80036; stroke-width: 1.0;"/><!--link AnalysisRole to Architect--><path d="M338.222,644.2186 C338.608,658.0026 339.02,672.6976 339.35,684.4686 " fill="none" id="AnalysisRole-Architect" style="stroke: #A80036; stroke-width: 1.0;"/><polygon fill="none" points="331.214,644.0466,337.651,623.8576,345.209,643.6536,331.214,644.0466" style="stroke: #A80036; stroke-width: 1.0;"/><!--link AnalysisRole to EngineerUseCases--><path d="M309.098,640.3976 C300.142,654.0696 290.587,669.7016 283,684.6406 C269.893,710.4496 258.442,741.7566 251.398,762.6076 " fill="none" id="AnalysisRole-EngineerUseCases" style="stroke: #A80036; stroke-width: 1.0;"/><polygon fill="none" points="303.322,636.4416,320.31,623.7756,314.929,644.2706,303.322,636.4416" style="stroke: #A80036; stroke-width: 1.0;"/><!--link AnalysisRole to EngineerComponents--><path d="M369.675,639.9436 C379.446,653.4096 389.323,669.0326 396,684.6406 C423.804,749.6326 420.078,770.2916 427,840.6406 C429.089,861.8716 430.998,867.6856 427,888.6406 C421.698,916.4286 408.876,946.3286 399.167,966.3246 " fill="none" id="AnalysisRole-EngineerComponents" style="stroke: #A80036; stroke-width: 1.0;"/><polygon fill="none" points="363.803,643.7916,357.169,623.6666,374.905,635.2616,363.803,643.7916" style="stroke: #A80036; stroke-width: 1.0;"/><!--link Architect to AnalyzeArchitecture--><path d="M340.184,738.0026 C340.376,767.4696 340.671,813.0266 340.849,840.4276 " fill="none" id="Architect-AnalyzeArchitecture" style="stroke: #A80036; stroke-width: 1.0;"/><polygon fill="#A80036" points="340.15,732.6956,336.2092,741.7217,340.1829,737.6955,344.2091,741.6691,340.15,732.6956" style="stroke: #A80036; stroke-width: 1.0;"/><!--link EngineerUseCases to AnalyzeUseCases--><path d="M238.94,816.0316 C231.765,856.2936 218.77,929.2116 212.137,966.4286 " fill="none" id="EngineerUseCases-AnalyzeUseCases" style="stroke: #A80036; stroke-width: 1.0;"/><polygon fill="#A80036" points="239.87,810.8126,234.3533,818.9714,238.9929,815.7351,242.2292,820.3747,239.87,810.8126" style="stroke: #A80036; stroke-width: 1.0;"/><!--link EngineerComponents to AnalyzeClasses--><path d="M349.532,1017.5956 C317.586,1039.7266 272.087,1071.2446 241.374,1092.5206 " fill="none" id="EngineerComponents-AnalyzeClasses" style="stroke: #A80036; stroke-width: 1.0;"/><polygon fill="#A80036" points="353.751,1014.6736,344.075,1016.5105,349.6409,1017.5209,348.6305,1023.0868,353.751,1014.6736" style="stroke: #A80036; stroke-width: 1.0;"/><!--link EngineerComponents to AnalyzePackages--><path d="M372.847,1019.4666 C352.034,1059.0846 310.664,1133.0996 265,1188.6406 C256.333,1199.1828 245.632,1209.6563 235.852,1218.4743 " fill="none" id="EngineerComponents-AnalyzePackages" style="stroke: #A80036; stroke-width: 1.0;"/><polygon fill="#A80036" points="375.282,1014.8086,367.5662,1020.9296,372.9646,1019.2392,374.6551,1024.6375,375.282,1014.8086" style="stroke: #A80036; stroke-width: 1.0;"/><!--link AnalysisActivity to AnalyzeArchitecture--><path d="M224.504,279.2806 C337.037,289.7136 534,317.0566 534,380.6406 C534,380.6406 534,380.6406 534,709.6406 C534,775.2266 465.062,817.4246 409.588,840.7636 " fill="none" id="AnalysisActivity-AnalyzeArchitecture" style="stroke: #A80036; stroke-width: 1.0;"/><polygon fill="none" points="223.851,286.2506,204.541,277.5246,225.078,272.3046,223.851,286.2506" style="stroke: #A80036; stroke-width: 1.0;"/><!--link AnalysisActivity to AnalyzeUseCases--><path d="M148,317.0506 C148,336.4996 148,359.7206 148,380.6406 C148,380.6406 148,380.6406 148,865.6406 C148,903.9056 171.438,942.7766 189.016,966.5496 " fill="none" id="AnalysisActivity-AnalyzeUseCases" style="stroke: #A80036; stroke-width: 1.0;"/><polygon fill="none" points="141,317.0186,148,297.0186,155,317.0186,141,317.0186" style="stroke: #A80036; stroke-width: 1.0;"/><!--link AnalysisActivity to AnalyzeClasses--><path d="M107.45,311.5256 C91.5337,330.4596 77,354.8186 77,380.6406 C77,380.6406 77,380.6406 77,991.6406 C77,1037.8316 120.489,1071.9596 157.352,1092.5906 " fill="none" id="AnalysisActivity-AnalyzeClasses" style="stroke: #A80036; stroke-width: 1.0;"/><polygon fill="none" points="102.4459,306.6266,121.158,296.6836,112.73,316.1246,102.4459,306.6266" style="stroke: #A80036; stroke-width: 1.0;"/><!--link AnalysisActivity to AnalyzePackages--><path d="M73.1194,299.3916 C38.959,316.3466 6,342.5696 6,380.6406 C6,380.6406 6,380.6406 6,1117.6406 C6,1183.3775 84.6599,1215.3579 143.808,1230.1132 " fill="none" id="AnalysisActivity-AnalyzePackages" style="stroke: #A80036; stroke-width: 1.0;"/><polygon fill="none" points="70.3589,292.9576,91.4698,291.1336,76.1044,305.7246,70.3589,292.9576" style="stroke: #A80036; stroke-width: 1.0;"/><!--link AnalyzeArchitecture to AnalyzeUseCases--><path d="M316.295,888.6736 C293.762,909.6816 260.462,940.7286 236.745,962.8406 " fill="none" id="AnalyzeArchitecture-AnalyzeUseCases" style="stroke: #A80036; stroke-width: 1.0;"/><polygon fill="#A80036" points="233.024,966.3106,242.3343,963.0985,236.6809,962.9008,236.8786,957.2474,233.024,966.3106" style="stroke: #A80036; stroke-width: 1.0;"/><text fill="#000000" font-family="sans-serif" font-size="13" lengthAdjust="spacingAndGlyphs" textLength="47" x="284" y="933.1357">previous</text><!--link AnalyzeUseCases to AnalyzeClasses--><path d="M208,1014.6736 C208,1035.1626 208,1065.2016 208,1087.1866 " fill="none" id="AnalyzeUseCases-AnalyzeClasses" style="stroke: #A80036; stroke-width: 1.0;"/><polygon fill="#A80036" points="208,1092.3106,212,1083.3106,208,1087.3106,204,1083.3106,208,1092.3106" style="stroke: #A80036; stroke-width: 1.0;"/><text fill="#000000" font-family="sans-serif" font-size="13" lengthAdjust="spacingAndGlyphs" textLength="47" x="209" y="1059.1357">previous</text><!--link AnalyzeClasses to AnalyzePackages--><path d="M208,1140.6736 C208,1161.1626 208,1191.2013 208,1213.187 " fill="none" id="AnalyzeClasses-AnalyzePackages" style="stroke: #A80036; stroke-width: 1.0;"/><polygon fill="#A80036" points="208,1218.3103,212,1209.3103,208,1213.3103,204,1209.3103,208,1218.3103" style="stroke: #A80036; stroke-width: 1.0;"/><text fill="#000000" font-family="sans-serif" font-size="13" lengthAdjust="spacingAndGlyphs" textLength="47" x="209" y="1185.1357">previous</text><!--
@startuml
title AnalysisActivity
class Discipline #red
Discipline *- -> Activity

class AnalysisDiscipline #red
Discipline <|- - AnalysisDiscipline
AnalysisDiscipline *- -> "4" AnalysisActivity

class Activity #green

class AnalysisActivity #green
Activity <|- - AnalysisActivity
AnalysisActivity *- -> Member

class Member #white
Member *- -> Role

class Role #white
class AnalysisRole #blue
class Architect #blue
class EngineerUseCases #blue
class EngineerComponents #blue
Role <|- - AnalysisRole
AnalysisRole <|- - Architect
AnalysisRole <|- - EngineerUseCases
AnalysisRole <|- - EngineerComponents
Architect <- - AnalyzeArchitecture
EngineerUseCases <- - AnalyzeUseCases
EngineerComponents <- - AnalyzeClasses
EngineerComponents <- - AnalyzePackages

class AnalyzeArchitecture #green
class AnalyzeUseCases #green
class AnalyzeClasses #green
class AnalyzePackages #green
AnalysisActivity <|- - AnalyzeArchitecture
AnalysisActivity <|- - AnalyzeUseCases
AnalysisActivity <|- - AnalyzeClasses
AnalysisActivity <|- - AnalyzePackages
AnalyzeArchitecture - -> AnalyzeUseCases :previous
AnalyzeUseCases - -> AnalyzeClasses :previous
AnalyzeClasses - -> AnalyzePackages :previous

@enduml

PlantUML version 1.2019.05(Sat Apr 20 18:45:36 CEST 2019)
(GPL source distribution)
Java Runtime: OpenJDK Runtime Environment
JVM: OpenJDK 64-Bit Server VM
Java Version: 1.8.0_222-b10
Operating System: Windows 10
OS Version: 10.0
Default Encoding: windows-1252
Language: es
Country: ES
--></g></svg>