<?xml version="1.0" encoding="UTF-8" standalone="no"?><svg xmlns="http://www.w3.org/2000/svg" xmlns:xlink="http://www.w3.org/1999/xlink" contentScriptType="application/ecmascript" contentStyleType="text/css" height="411px" preserveAspectRatio="none" style="width:852px;height:411px;" version="1.1" viewBox="0 0 852 411" width="852px" zoomAndPan="magnify"><defs><filter height="300%" id="f12tf6fgfq4epe" width="300%" x="-1" y="-1"><feGaussianBlur result="blurOut" stdDeviation="2.0"/><feColorMatrix in="blurOut" result="blurOut2" type="matrix" values="0 0 0 0 0 0 0 0 0 0 0 0 0 0 0 0 0 0 .4 0"/><feOffset dx="4.0" dy="4.0" in="blurOut2" result="blurOut3"/><feBlend in="SourceGraphic" in2="blurOut3" mode="normal"/></filter></defs><g><!--class Activity--><rect fill="#FF0000" filter="url(#f12tf6fgfq4epe)" height="48" id="Activity" style="stroke: #A80036; stroke-width: 1.5;" width="67" x="631.5" y="8"/><rect fill="#FF0000" height="32" style="stroke: #A80036; stroke-width: 1.5;" width="67" x="631.5" y="8"/><ellipse cx="646.5" cy="24" fill="#ADD1B2" rx="11" ry="11" style="stroke: #A80036; stroke-width: 1.0;"/><path d="M649.2656,19.875 Q649.4219,19.6563 649.6094,19.5469 Q649.7969,19.4375 650.0156,19.4375 Q650.3906,19.4375 650.625,19.6953 Q650.8594,19.9531 650.8594,20.5625 L650.8594,22.0156 Q650.8594,22.625 650.625,22.8906 Q650.3906,23.1563 650.0156,23.1563 Q649.6719,23.1563 649.4688,22.9531 Q649.2656,22.7656 649.1563,22.25 Q649.1094,21.8906 648.9219,21.7031 Q648.5938,21.3281 647.9844,21.1094 Q647.375,20.8906 646.75,20.8906 Q645.9844,20.8906 645.3516,21.2188 Q644.7188,21.5469 644.2266,22.2969 Q643.7344,23.0469 643.7344,24.0781 L643.7344,25.1719 Q643.7344,26.4063 644.625,27.2266 Q645.5156,28.0469 647.1094,28.0469 Q648.0469,28.0469 648.7031,27.7969 Q649.0938,27.6406 649.5156,27.2031 Q649.7813,26.9375 649.9297,26.8594 Q650.0781,26.7813 650.2813,26.7813 Q650.6094,26.7813 650.8672,27.0391 Q651.125,27.2969 651.125,27.6406 Q651.125,27.9844 650.7813,28.3906 Q650.2813,28.9688 649.4844,29.2969 Q648.4063,29.75 647.1094,29.75 Q645.5938,29.75 644.3906,29.125 Q643.4063,28.625 642.7188,27.5547 Q642.0313,26.4844 642.0313,25.2031 L642.0313,24.0469 Q642.0313,22.7188 642.6484,21.5703 Q643.2656,20.4219 644.3594,19.8047 Q645.4531,19.1875 646.6875,19.1875 Q647.4219,19.1875 648.0703,19.3516 Q648.7188,19.5156 649.2656,19.875 Z "/><text fill="#000000" font-family="sans-serif" font-size="12" lengthAdjust="spacingAndGlyphs" textLength="35" x="660.5" y="28.9102">Activity</text><line style="stroke: #A80036; stroke-width: 1.5;" x1="632.5" x2="697.5" y1="40" y2="40"/><line style="stroke: #A80036; stroke-width: 1.5;" x1="632.5" x2="697.5" y1="48" y2="48"/><!--class AnalysisActivity--><rect fill="#FF0000" filter="url(#f12tf6fgfq4epe)" height="48" id="AnalysisActivity" style="stroke: #A80036; stroke-width: 1.5;" width="113" x="548.5" y="117"/><rect fill="#FF0000" height="32" style="stroke: #A80036; stroke-width: 1.5;" width="113" x="548.5" y="117"/><ellipse cx="563.5" cy="133" fill="#ADD1B2" rx="11" ry="11" style="stroke: #A80036; stroke-width: 1.0;"/><path d="M566.2656,128.875 Q566.4219,128.6563 566.6094,128.5469 Q566.7969,128.4375 567.0156,128.4375 Q567.3906,128.4375 567.625,128.6953 Q567.8594,128.9531 567.8594,129.5625 L567.8594,131.0156 Q567.8594,131.625 567.625,131.8906 Q567.3906,132.1563 567.0156,132.1563 Q566.6719,132.1563 566.4688,131.9531 Q566.2656,131.7656 566.1563,131.25 Q566.1094,130.8906 565.9219,130.7031 Q565.5938,130.3281 564.9844,130.1094 Q564.375,129.8906 563.75,129.8906 Q562.9844,129.8906 562.3516,130.2188 Q561.7188,130.5469 561.2266,131.2969 Q560.7344,132.0469 560.7344,133.0781 L560.7344,134.1719 Q560.7344,135.4063 561.625,136.2266 Q562.5156,137.0469 564.1094,137.0469 Q565.0469,137.0469 565.7031,136.7969 Q566.0938,136.6406 566.5156,136.2031 Q566.7813,135.9375 566.9297,135.8594 Q567.0781,135.7813 567.2813,135.7813 Q567.6094,135.7813 567.8672,136.0391 Q568.125,136.2969 568.125,136.6406 Q568.125,136.9844 567.7813,137.3906 Q567.2813,137.9688 566.4844,138.2969 Q565.4063,138.75 564.1094,138.75 Q562.5938,138.75 561.3906,138.125 Q560.4063,137.625 559.7188,136.5547 Q559.0313,135.4844 559.0313,134.2031 L559.0313,133.0469 Q559.0313,131.7188 559.6484,130.5703 Q560.2656,129.4219 561.3594,128.8047 Q562.4531,128.1875 563.6875,128.1875 Q564.4219,128.1875 565.0703,128.3516 Q565.7188,128.5156 566.2656,128.875 Z "/><text fill="#000000" font-family="sans-serif" font-size="12" lengthAdjust="spacingAndGlyphs" textLength="81" x="577.5" y="137.9102">AnalysisActivity</text><line style="stroke: #A80036; stroke-width: 1.5;" x1="549.5" x2="660.5" y1="149" y2="149"/><line style="stroke: #A80036; stroke-width: 1.5;" x1="549.5" x2="660.5" y1="157" y2="157"/><!--class Role--><rect fill="#0000FF" filter="url(#f12tf6fgfq4epe)" height="48" id="Role" style="stroke: #A80036; stroke-width: 1.5;" width="58" x="697" y="117"/><rect fill="#0000FF" height="32" style="stroke: #A80036; stroke-width: 1.5;" width="58" x="697" y="117"/><ellipse cx="712" cy="133" fill="#ADD1B2" rx="11" ry="11" style="stroke: #A80036; stroke-width: 1.0;"/><path d="M714.7656,128.875 Q714.9219,128.6563 715.1094,128.5469 Q715.2969,128.4375 715.5156,128.4375 Q715.8906,128.4375 716.125,128.6953 Q716.3594,128.9531 716.3594,129.5625 L716.3594,131.0156 Q716.3594,131.625 716.125,131.8906 Q715.8906,132.1563 715.5156,132.1563 Q715.1719,132.1563 714.9688,131.9531 Q714.7656,131.7656 714.6563,131.25 Q714.6094,130.8906 714.4219,130.7031 Q714.0938,130.3281 713.4844,130.1094 Q712.875,129.8906 712.25,129.8906 Q711.4844,129.8906 710.8516,130.2188 Q710.2188,130.5469 709.7266,131.2969 Q709.2344,132.0469 709.2344,133.0781 L709.2344,134.1719 Q709.2344,135.4063 710.125,136.2266 Q711.0156,137.0469 712.6094,137.0469 Q713.5469,137.0469 714.2031,136.7969 Q714.5938,136.6406 715.0156,136.2031 Q715.2813,135.9375 715.4297,135.8594 Q715.5781,135.7813 715.7813,135.7813 Q716.1094,135.7813 716.3672,136.0391 Q716.625,136.2969 716.625,136.6406 Q716.625,136.9844 716.2813,137.3906 Q715.7813,137.9688 714.9844,138.2969 Q713.9063,138.75 712.6094,138.75 Q711.0938,138.75 709.8906,138.125 Q708.9063,137.625 708.2188,136.5547 Q707.5313,135.4844 707.5313,134.2031 L707.5313,133.0469 Q707.5313,131.7188 708.1484,130.5703 Q708.7656,129.4219 709.8594,128.8047 Q710.9531,128.1875 712.1875,128.1875 Q712.9219,128.1875 713.5703,128.3516 Q714.2188,128.5156 714.7656,128.875 Z "/><text fill="#000000" font-family="sans-serif" font-size="12" lengthAdjust="spacingAndGlyphs" textLength="26" x="726" y="137.9102">Role</text><line style="stroke: #A80036; stroke-width: 1.5;" x1="698" x2="754" y1="149" y2="149"/><line style="stroke: #A80036; stroke-width: 1.5;" x1="698" x2="754" y1="157" y2="157"/><!--class RealizationUseCase--><rect fill="#008000" filter="url(#f12tf6fgfq4epe)" height="48" id="RealizationUseCase" style="stroke: #A80036; stroke-width: 1.5;" width="222" x="6" y="352"/><rect fill="#008000" height="32" style="stroke: #A80036; stroke-width: 1.5;" width="222" x="6" y="352"/><ellipse cx="21" cy="368" fill="#ADD1B2" rx="11" ry="11" style="stroke: #A80036; stroke-width: 1.0;"/><path d="M23.7656,363.875 Q23.9219,363.6563 24.1094,363.5469 Q24.2969,363.4375 24.5156,363.4375 Q24.8906,363.4375 25.125,363.6953 Q25.3594,363.9531 25.3594,364.5625 L25.3594,366.0156 Q25.3594,366.625 25.125,366.8906 Q24.8906,367.1563 24.5156,367.1563 Q24.1719,367.1563 23.9688,366.9531 Q23.7656,366.7656 23.6563,366.25 Q23.6094,365.8906 23.4219,365.7031 Q23.0938,365.3281 22.4844,365.1094 Q21.875,364.8906 21.25,364.8906 Q20.4844,364.8906 19.8516,365.2188 Q19.2188,365.5469 18.7266,366.2969 Q18.2344,367.0469 18.2344,368.0781 L18.2344,369.1719 Q18.2344,370.4063 19.125,371.2266 Q20.0156,372.0469 21.6094,372.0469 Q22.5469,372.0469 23.2031,371.7969 Q23.5938,371.6406 24.0156,371.2031 Q24.2813,370.9375 24.4297,370.8594 Q24.5781,370.7813 24.7813,370.7813 Q25.1094,370.7813 25.3672,371.0391 Q25.625,371.2969 25.625,371.6406 Q25.625,371.9844 25.2813,372.3906 Q24.7813,372.9688 23.9844,373.2969 Q22.9063,373.75 21.6094,373.75 Q20.0938,373.75 18.8906,373.125 Q17.9063,372.625 17.2188,371.5547 Q16.5313,370.4844 16.5313,369.2031 L16.5313,368.0469 Q16.5313,366.7188 17.1484,365.5703 Q17.7656,364.4219 18.8594,363.8047 Q19.9531,363.1875 21.1875,363.1875 Q21.9219,363.1875 22.5703,363.3516 Q23.2188,363.5156 23.7656,363.875 Z "/><text fill="#000000" font-family="sans-serif" font-size="12" lengthAdjust="spacingAndGlyphs" textLength="190" x="35" y="372.9102">Realization of Use Case (Analysis)</text><line style="stroke: #A80036; stroke-width: 1.5;" x1="7" x2="227" y1="384" y2="384"/><line style="stroke: #A80036; stroke-width: 1.5;" x1="7" x2="227" y1="392" y2="392"/><!--class AnalysisClass--><rect fill="#008000" filter="url(#f12tf6fgfq4epe)" height="48" id="AnalysisClass" style="stroke: #A80036; stroke-width: 1.5;" width="162" x="263" y="352"/><rect fill="#008000" height="32" style="stroke: #A80036; stroke-width: 1.5;" width="162" x="263" y="352"/><ellipse cx="278" cy="368" fill="#ADD1B2" rx="11" ry="11" style="stroke: #A80036; stroke-width: 1.0;"/><path d="M280.7656,363.875 Q280.9219,363.6563 281.1094,363.5469 Q281.2969,363.4375 281.5156,363.4375 Q281.8906,363.4375 282.125,363.6953 Q282.3594,363.9531 282.3594,364.5625 L282.3594,366.0156 Q282.3594,366.625 282.125,366.8906 Q281.8906,367.1563 281.5156,367.1563 Q281.1719,367.1563 280.9688,366.9531 Q280.7656,366.7656 280.6563,366.25 Q280.6094,365.8906 280.4219,365.7031 Q280.0938,365.3281 279.4844,365.1094 Q278.875,364.8906 278.25,364.8906 Q277.4844,364.8906 276.8516,365.2188 Q276.2188,365.5469 275.7266,366.2969 Q275.2344,367.0469 275.2344,368.0781 L275.2344,369.1719 Q275.2344,370.4063 276.125,371.2266 Q277.0156,372.0469 278.6094,372.0469 Q279.5469,372.0469 280.2031,371.7969 Q280.5938,371.6406 281.0156,371.2031 Q281.2813,370.9375 281.4297,370.8594 Q281.5781,370.7813 281.7813,370.7813 Q282.1094,370.7813 282.3672,371.0391 Q282.625,371.2969 282.625,371.6406 Q282.625,371.9844 282.2813,372.3906 Q281.7813,372.9688 280.9844,373.2969 Q279.9063,373.75 278.6094,373.75 Q277.0938,373.75 275.8906,373.125 Q274.9063,372.625 274.2188,371.5547 Q273.5313,370.4844 273.5313,369.2031 L273.5313,368.0469 Q273.5313,366.7188 274.1484,365.5703 Q274.7656,364.4219 275.8594,363.8047 Q276.9531,363.1875 278.1875,363.1875 Q278.9219,363.1875 279.5703,363.3516 Q280.2188,363.5156 280.7656,363.875 Z "/><text fill="#000000" font-family="sans-serif" font-size="12" lengthAdjust="spacingAndGlyphs" textLength="130" x="292" y="372.9102">Analysis Class (outline)</text><line style="stroke: #A80036; stroke-width: 1.5;" x1="264" x2="424" y1="384" y2="384"/><line style="stroke: #A80036; stroke-width: 1.5;" x1="264" x2="424" y1="392" y2="392"/><!--class AnalysisClassX--><rect fill="#008000" filter="url(#f12tf6fgfq4epe)" height="48" id="AnalysisClassX" style="stroke: #A80036; stroke-width: 1.5;" width="176" x="460" y="352"/><rect fill="#008000" height="32" style="stroke: #A80036; stroke-width: 1.5;" width="176" x="460" y="352"/><ellipse cx="475" cy="368" fill="#ADD1B2" rx="11" ry="11" style="stroke: #A80036; stroke-width: 1.0;"/><path d="M477.7656,363.875 Q477.9219,363.6563 478.1094,363.5469 Q478.2969,363.4375 478.5156,363.4375 Q478.8906,363.4375 479.125,363.6953 Q479.3594,363.9531 479.3594,364.5625 L479.3594,366.0156 Q479.3594,366.625 479.125,366.8906 Q478.8906,367.1563 478.5156,367.1563 Q478.1719,367.1563 477.9688,366.9531 Q477.7656,366.7656 477.6563,366.25 Q477.6094,365.8906 477.4219,365.7031 Q477.0938,365.3281 476.4844,365.1094 Q475.875,364.8906 475.25,364.8906 Q474.4844,364.8906 473.8516,365.2188 Q473.2188,365.5469 472.7266,366.2969 Q472.2344,367.0469 472.2344,368.0781 L472.2344,369.1719 Q472.2344,370.4063 473.125,371.2266 Q474.0156,372.0469 475.6094,372.0469 Q476.5469,372.0469 477.2031,371.7969 Q477.5938,371.6406 478.0156,371.2031 Q478.2813,370.9375 478.4297,370.8594 Q478.5781,370.7813 478.7813,370.7813 Q479.1094,370.7813 479.3672,371.0391 Q479.625,371.2969 479.625,371.6406 Q479.625,371.9844 479.2813,372.3906 Q478.7813,372.9688 477.9844,373.2969 Q476.9063,373.75 475.6094,373.75 Q474.0938,373.75 472.8906,373.125 Q471.9063,372.625 471.2188,371.5547 Q470.5313,370.4844 470.5313,369.2031 L470.5313,368.0469 Q470.5313,366.7188 471.1484,365.5703 Q471.7656,364.4219 472.8594,363.8047 Q473.9531,363.1875 475.1875,363.1875 Q475.9219,363.1875 476.5703,363.3516 Q477.2188,363.5156 477.7656,363.875 Z "/><text fill="#000000" font-family="sans-serif" font-size="12" lengthAdjust="spacingAndGlyphs" textLength="144" x="489" y="372.9102">Analysis Class (complete)</text><line style="stroke: #A80036; stroke-width: 1.5;" x1="461" x2="635" y1="384" y2="384"/><line style="stroke: #A80036; stroke-width: 1.5;" x1="461" x2="635" y1="392" y2="392"/><!--class AnalysisRole--><rect fill="#0000FF" filter="url(#f12tf6fgfq4epe)" height="48" id="AnalysisRole" style="stroke: #A80036; stroke-width: 1.5;" width="104" x="674" y="226"/><rect fill="#0000FF" height="32" style="stroke: #A80036; stroke-width: 1.5;" width="104" x="674" y="226"/><ellipse cx="689" cy="242" fill="#ADD1B2" rx="11" ry="11" style="stroke: #A80036; stroke-width: 1.0;"/><path d="M691.7656,237.875 Q691.9219,237.6563 692.1094,237.5469 Q692.2969,237.4375 692.5156,237.4375 Q692.8906,237.4375 693.125,237.6953 Q693.3594,237.9531 693.3594,238.5625 L693.3594,240.0156 Q693.3594,240.625 693.125,240.8906 Q692.8906,241.1563 692.5156,241.1563 Q692.1719,241.1563 691.9688,240.9531 Q691.7656,240.7656 691.6563,240.25 Q691.6094,239.8906 691.4219,239.7031 Q691.0938,239.3281 690.4844,239.1094 Q689.875,238.8906 689.25,238.8906 Q688.4844,238.8906 687.8516,239.2188 Q687.2188,239.5469 686.7266,240.2969 Q686.2344,241.0469 686.2344,242.0781 L686.2344,243.1719 Q686.2344,244.4063 687.125,245.2266 Q688.0156,246.0469 689.6094,246.0469 Q690.5469,246.0469 691.2031,245.7969 Q691.5938,245.6406 692.0156,245.2031 Q692.2813,244.9375 692.4297,244.8594 Q692.5781,244.7813 692.7813,244.7813 Q693.1094,244.7813 693.3672,245.0391 Q693.625,245.2969 693.625,245.6406 Q693.625,245.9844 693.2813,246.3906 Q692.7813,246.9688 691.9844,247.2969 Q690.9063,247.75 689.6094,247.75 Q688.0938,247.75 686.8906,247.125 Q685.9063,246.625 685.2188,245.5547 Q684.5313,244.4844 684.5313,243.2031 L684.5313,242.0469 Q684.5313,240.7188 685.1484,239.5703 Q685.7656,238.4219 686.8594,237.8047 Q687.9531,237.1875 689.1875,237.1875 Q689.9219,237.1875 690.5703,237.3516 Q691.2188,237.5156 691.7656,237.875 Z "/><text fill="#000000" font-family="sans-serif" font-size="12" lengthAdjust="spacingAndGlyphs" textLength="72" x="703" y="246.9102">AnalysisRole</text><line style="stroke: #A80036; stroke-width: 1.5;" x1="675" x2="777" y1="258" y2="258"/><line style="stroke: #A80036; stroke-width: 1.5;" x1="675" x2="777" y1="266" y2="266"/><!--class AnalyzeClasses--><rect fill="#FF0000" filter="url(#f12tf6fgfq4epe)" height="48" id="AnalyzeClasses" style="stroke: #A80036; stroke-width: 1.5;" width="123" x="486.5" y="226"/><rect fill="#FF0000" height="32" style="stroke: #A80036; stroke-width: 1.5;" width="123" x="486.5" y="226"/><ellipse cx="501.5" cy="242" fill="#ADD1B2" rx="11" ry="11" style="stroke: #A80036; stroke-width: 1.0;"/><path d="M504.2656,237.875 Q504.4219,237.6563 504.6094,237.5469 Q504.7969,237.4375 505.0156,237.4375 Q505.3906,237.4375 505.625,237.6953 Q505.8594,237.9531 505.8594,238.5625 L505.8594,240.0156 Q505.8594,240.625 505.625,240.8906 Q505.3906,241.1563 505.0156,241.1563 Q504.6719,241.1563 504.4688,240.9531 Q504.2656,240.7656 504.1563,240.25 Q504.1094,239.8906 503.9219,239.7031 Q503.5938,239.3281 502.9844,239.1094 Q502.375,238.8906 501.75,238.8906 Q500.9844,238.8906 500.3516,239.2188 Q499.7188,239.5469 499.2266,240.2969 Q498.7344,241.0469 498.7344,242.0781 L498.7344,243.1719 Q498.7344,244.4063 499.625,245.2266 Q500.5156,246.0469 502.1094,246.0469 Q503.0469,246.0469 503.7031,245.7969 Q504.0938,245.6406 504.5156,245.2031 Q504.7813,244.9375 504.9297,244.8594 Q505.0781,244.7813 505.2813,244.7813 Q505.6094,244.7813 505.8672,245.0391 Q506.125,245.2969 506.125,245.6406 Q506.125,245.9844 505.7813,246.3906 Q505.2813,246.9688 504.4844,247.2969 Q503.4063,247.75 502.1094,247.75 Q500.5938,247.75 499.3906,247.125 Q498.4063,246.625 497.7188,245.5547 Q497.0313,244.4844 497.0313,243.2031 L497.0313,242.0469 Q497.0313,240.7188 497.6484,239.5703 Q498.2656,238.4219 499.3594,237.8047 Q500.4531,237.1875 501.6875,237.1875 Q502.4219,237.1875 503.0703,237.3516 Q503.7188,237.5156 504.2656,237.875 Z "/><text fill="#000000" font-family="sans-serif" font-size="12" lengthAdjust="spacingAndGlyphs" textLength="91" x="515.5" y="246.9102">Analyze Classes</text><line style="stroke: #A80036; stroke-width: 1.5;" x1="487.5" x2="608.5" y1="258" y2="258"/><line style="stroke: #A80036; stroke-width: 1.5;" x1="487.5" x2="608.5" y1="266" y2="266"/><!--class EngineerComponents--><rect fill="#0000FF" filter="url(#f12tf6fgfq4epe)" height="48" id="EngineerComponents" style="stroke: #A80036; stroke-width: 1.5;" width="170" x="671" y="352"/><rect fill="#0000FF" height="32" style="stroke: #A80036; stroke-width: 1.5;" width="170" x="671" y="352"/><ellipse cx="686" cy="368" fill="#ADD1B2" rx="11" ry="11" style="stroke: #A80036; stroke-width: 1.0;"/><path d="M688.7656,363.875 Q688.9219,363.6563 689.1094,363.5469 Q689.2969,363.4375 689.5156,363.4375 Q689.8906,363.4375 690.125,363.6953 Q690.3594,363.9531 690.3594,364.5625 L690.3594,366.0156 Q690.3594,366.625 690.125,366.8906 Q689.8906,367.1563 689.5156,367.1563 Q689.1719,367.1563 688.9688,366.9531 Q688.7656,366.7656 688.6563,366.25 Q688.6094,365.8906 688.4219,365.7031 Q688.0938,365.3281 687.4844,365.1094 Q686.875,364.8906 686.25,364.8906 Q685.4844,364.8906 684.8516,365.2188 Q684.2188,365.5469 683.7266,366.2969 Q683.2344,367.0469 683.2344,368.0781 L683.2344,369.1719 Q683.2344,370.4063 684.125,371.2266 Q685.0156,372.0469 686.6094,372.0469 Q687.5469,372.0469 688.2031,371.7969 Q688.5938,371.6406 689.0156,371.2031 Q689.2813,370.9375 689.4297,370.8594 Q689.5781,370.7813 689.7813,370.7813 Q690.1094,370.7813 690.3672,371.0391 Q690.625,371.2969 690.625,371.6406 Q690.625,371.9844 690.2813,372.3906 Q689.7813,372.9688 688.9844,373.2969 Q687.9063,373.75 686.6094,373.75 Q685.0938,373.75 683.8906,373.125 Q682.9063,372.625 682.2188,371.5547 Q681.5313,370.4844 681.5313,369.2031 L681.5313,368.0469 Q681.5313,366.7188 682.1484,365.5703 Q682.7656,364.4219 683.8594,363.8047 Q684.9531,363.1875 686.1875,363.1875 Q686.9219,363.1875 687.5703,363.3516 Q688.2188,363.5156 688.7656,363.875 Z "/><text fill="#000000" font-family="sans-serif" font-size="12" lengthAdjust="spacingAndGlyphs" textLength="138" x="700" y="372.9102">Engineer of Components</text><line style="stroke: #A80036; stroke-width: 1.5;" x1="672" x2="840" y1="384" y2="384"/><line style="stroke: #A80036; stroke-width: 1.5;" x1="672" x2="840" y1="392" y2="392"/><!--link Activity to AnalysisActivity--><path d="M641.938,74.127 C633.821,88.602 624.987,104.357 617.994,116.828 " fill="none" id="Activity-AnalysisActivity" style="stroke: #A80036; stroke-width: 1.0;"/><polygon fill="none" points="636.093,70.238,651.981,56.217,648.304,77.086,636.093,70.238" style="stroke: #A80036; stroke-width: 1.0;"/><!--link Activity to Role--><path d="M678.236,56.217 C687.589,72.623 700.17,94.692 710.073,112.062 " fill="none" id="Activity-Role" style="stroke: #A80036; stroke-width: 1.0;"/><polygon fill="#A80036" points="712.79,116.828,711.8067,107.0283,710.3133,112.4845,704.8572,110.9911,712.79,116.828" style="stroke: #A80036; stroke-width: 1.0;"/><!--link AnalysisActivity to AnalysisRole--><path d="M631.255,165.217 C650.282,182.043 676.048,204.827 695.907,222.389 " fill="none" id="AnalysisActivity-AnalysisRole" style="stroke: #A80036; stroke-width: 1.0;"/><polygon fill="#A80036" points="699.796,225.828,695.7044,216.8693,696.0507,222.5155,690.4044,222.8617,699.796,225.828" style="stroke: #A80036; stroke-width: 1.0;"/><!--link AnalysisActivity to AnalyzeClasses--><path d="M583.091,183.127 C575.38,197.602 566.988,213.357 560.344,225.828 " fill="none" id="AnalysisActivity-AnalyzeClasses" style="stroke: #A80036; stroke-width: 1.0;"/><polygon fill="none" points="577.051,179.578,592.632,165.217,589.407,186.16,577.051,179.578" style="stroke: #A80036; stroke-width: 1.0;"/><!--link AnalyzeClasses to RealizationUseCase--><path d="M486.248,268.766 C411.621,290.237 285.666,326.4744 201.928,350.5659 " fill="none" id="AnalyzeClasses-RealizationUseCase" style="stroke: #A80036; stroke-width: 1.0;"/><polygon fill="#A80036" points="196.975,351.9909,206.7302,353.3458,201.78,350.6081,204.5177,345.6579,196.975,351.9909" style="stroke: #A80036; stroke-width: 1.0;"/><text fill="#000000" font-family="sans-serif" font-size="13" lengthAdjust="spacingAndGlyphs" textLength="10" x="360" y="318.4951">in</text><!--link AnalyzeClasses to AnalysisClass--><path d="M510.107,274.033 C475.008,295.368 422.876,327.0557 386.403,349.2253 " fill="none" id="AnalyzeClasses-AnalysisClass" style="stroke: #A80036; stroke-width: 1.0;"/><polygon fill="#A80036" points="382.035,351.8804,391.8033,350.6236,386.3076,349.2833,387.6479,343.7875,382.035,351.8804" style="stroke: #A80036; stroke-width: 1.0;"/><text fill="#000000" font-family="sans-serif" font-size="13" lengthAdjust="spacingAndGlyphs" textLength="10" x="460" y="318.4951">in</text><!--link AnalyzeClasses to AnalysisClassX--><path d="M548,274.033 C548,294.522 548,324.5607 548,346.5464 " fill="none" id="AnalyzeClasses-AnalysisClassX" style="stroke: #A80036; stroke-width: 1.0;"/><polygon fill="#A80036" points="548,351.6697,552,342.6697,548,346.6697,544,342.6697,548,351.6697" style="stroke: #A80036; stroke-width: 1.0;"/><text fill="#000000" font-family="sans-serif" font-size="13" lengthAdjust="spacingAndGlyphs" textLength="18" x="549" y="318.4951">out</text><!--link AnalyzeClasses to EngineerComponents--><path d="M586.636,274.033 C622.424,295.368 675.577,327.0557 712.765,349.2253 " fill="none" id="AnalyzeClasses-EngineerComponents" style="stroke: #A80036; stroke-width: 1.0;"/><polygon fill="#A80036" points="717.219,351.8804,711.5363,343.8363,712.9241,349.3203,707.4402,350.7081,717.219,351.8804" style="stroke: #A80036; stroke-width: 1.0;"/><!--link Role to AnalysisRole--><path d="M726,185.578 C726,199.362 726,214.057 726,225.828 " fill="none" id="Role-AnalysisRole" style="stroke: #A80036; stroke-width: 1.0;"/><polygon fill="none" points="719,185.217,726,165.217,733,185.217,719,185.217" style="stroke: #A80036; stroke-width: 1.0;"/><!--link AnalysisRole to EngineerComponents--><path d="M736.309,293.612 C741.015,313.0624 746.406,335.3435 750.356,351.6697 " fill="none" id="AnalysisRole-EngineerComponents" style="stroke: #A80036; stroke-width: 1.0;"/><polygon fill="none" points="729.472,295.118,731.572,274.033,743.079,291.826,729.472,295.118" style="stroke: #A80036; stroke-width: 1.0;"/><!--
@startuml

class Activity #red
Activity <|- - AnalysisActivity
Activity - -> Role

class "Realization of Use Case (Analysis)" as RealizationUseCase #green
class "Analysis Class (outline)" as AnalysisClass #green
class "Analysis Class (complete)" as AnalysisClassX #green

class AnalysisActivity #red
AnalysisActivity - -> AnalysisRole

class "Analyze Classes" as AnalyzeClasses #red
AnalysisActivity <|- - AnalyzeClasses

AnalyzeClasses - -> RealizationUseCase :in
AnalyzeClasses - -> AnalysisClass :in
AnalyzeClasses - -> AnalysisClassX :out

class Role #blue
class AnalysisRole #blue
class "Engineer of Components" as EngineerComponents #blue

AnalyzeClasses - -> EngineerComponents

Role <|- - AnalysisRole
AnalysisRole <|- - EngineerComponents
@enduml

PlantUML version 1.2019.05(Sat Apr 20 18:45:36 CEST 2019)
(GPL source distribution)
Java Runtime: OpenJDK Runtime Environment
JVM: OpenJDK 64-Bit Server VM
Java Version: 1.8.0_222-b10
Operating System: Windows 10
OS Version: 10.0
Default Encoding: windows-1252
Language: es
Country: ES
--></g></svg>