<?xml version="1.0" encoding="UTF-8" standalone="no"?><svg xmlns="http://www.w3.org/2000/svg" xmlns:xlink="http://www.w3.org/1999/xlink" contentScriptType="application/ecmascript" contentStyleType="text/css" height="411px" preserveAspectRatio="none" style="width:942px;height:411px;" version="1.1" viewBox="0 0 942 411" width="942px" zoomAndPan="magnify"><defs><filter height="300%" id="fiv4zvn0437aj" width="300%" x="-1" y="-1"><feGaussianBlur result="blurOut" stdDeviation="2.0"/><feColorMatrix in="blurOut" result="blurOut2" type="matrix" values="0 0 0 0 0 0 0 0 0 0 0 0 0 0 0 0 0 0 .4 0"/><feOffset dx="4.0" dy="4.0" in="blurOut2" result="blurOut3"/><feBlend in="SourceGraphic" in2="blurOut3" mode="normal"/></filter></defs><g><!--class Activity--><rect fill="#FF0000" filter="url(#fiv4zvn0437aj)" height="48" id="Activity" style="stroke: #A80036; stroke-width: 1.5;" width="67" x="727" y="8"/><rect fill="#FF0000" height="32" style="stroke: #A80036; stroke-width: 1.5;" width="67" x="727" y="8"/><ellipse cx="742" cy="24" fill="#ADD1B2" rx="11" ry="11" style="stroke: #A80036; stroke-width: 1.0;"/><path d="M744.7656,19.875 Q744.9219,19.6563 745.1094,19.5469 Q745.2969,19.4375 745.5156,19.4375 Q745.8906,19.4375 746.125,19.6953 Q746.3594,19.9531 746.3594,20.5625 L746.3594,22.0156 Q746.3594,22.625 746.125,22.8906 Q745.8906,23.1563 745.5156,23.1563 Q745.1719,23.1563 744.9688,22.9531 Q744.7656,22.7656 744.6563,22.25 Q744.6094,21.8906 744.4219,21.7031 Q744.0938,21.3281 743.4844,21.1094 Q742.875,20.8906 742.25,20.8906 Q741.4844,20.8906 740.8516,21.2188 Q740.2188,21.5469 739.7266,22.2969 Q739.2344,23.0469 739.2344,24.0781 L739.2344,25.1719 Q739.2344,26.4063 740.125,27.2266 Q741.0156,28.0469 742.6094,28.0469 Q743.5469,28.0469 744.2031,27.7969 Q744.5938,27.6406 745.0156,27.2031 Q745.2813,26.9375 745.4297,26.8594 Q745.5781,26.7813 745.7813,26.7813 Q746.1094,26.7813 746.3672,27.0391 Q746.625,27.2969 746.625,27.6406 Q746.625,27.9844 746.2813,28.3906 Q745.7813,28.9688 744.9844,29.2969 Q743.9063,29.75 742.6094,29.75 Q741.0938,29.75 739.8906,29.125 Q738.9063,28.625 738.2188,27.5547 Q737.5313,26.4844 737.5313,25.2031 L737.5313,24.0469 Q737.5313,22.7188 738.1484,21.5703 Q738.7656,20.4219 739.8594,19.8047 Q740.9531,19.1875 742.1875,19.1875 Q742.9219,19.1875 743.5703,19.3516 Q744.2188,19.5156 744.7656,19.875 Z "/><text fill="#000000" font-family="sans-serif" font-size="12" lengthAdjust="spacingAndGlyphs" textLength="35" x="756" y="28.9102">Activity</text><line style="stroke: #A80036; stroke-width: 1.5;" x1="728" x2="793" y1="40" y2="40"/><line style="stroke: #A80036; stroke-width: 1.5;" x1="728" x2="793" y1="48" y2="48"/><!--class AnalysisActivity--><rect fill="#FF0000" filter="url(#fiv4zvn0437aj)" height="48" id="AnalysisActivity" style="stroke: #A80036; stroke-width: 1.5;" width="113" x="644" y="117"/><rect fill="#FF0000" height="32" style="stroke: #A80036; stroke-width: 1.5;" width="113" x="644" y="117"/><ellipse cx="659" cy="133" fill="#ADD1B2" rx="11" ry="11" style="stroke: #A80036; stroke-width: 1.0;"/><path d="M661.7656,128.875 Q661.9219,128.6563 662.1094,128.5469 Q662.2969,128.4375 662.5156,128.4375 Q662.8906,128.4375 663.125,128.6953 Q663.3594,128.9531 663.3594,129.5625 L663.3594,131.0156 Q663.3594,131.625 663.125,131.8906 Q662.8906,132.1563 662.5156,132.1563 Q662.1719,132.1563 661.9688,131.9531 Q661.7656,131.7656 661.6563,131.25 Q661.6094,130.8906 661.4219,130.7031 Q661.0938,130.3281 660.4844,130.1094 Q659.875,129.8906 659.25,129.8906 Q658.4844,129.8906 657.8516,130.2188 Q657.2188,130.5469 656.7266,131.2969 Q656.2344,132.0469 656.2344,133.0781 L656.2344,134.1719 Q656.2344,135.4063 657.125,136.2266 Q658.0156,137.0469 659.6094,137.0469 Q660.5469,137.0469 661.2031,136.7969 Q661.5938,136.6406 662.0156,136.2031 Q662.2813,135.9375 662.4297,135.8594 Q662.5781,135.7813 662.7813,135.7813 Q663.1094,135.7813 663.3672,136.0391 Q663.625,136.2969 663.625,136.6406 Q663.625,136.9844 663.2813,137.3906 Q662.7813,137.9688 661.9844,138.2969 Q660.9063,138.75 659.6094,138.75 Q658.0938,138.75 656.8906,138.125 Q655.9063,137.625 655.2188,136.5547 Q654.5313,135.4844 654.5313,134.2031 L654.5313,133.0469 Q654.5313,131.7188 655.1484,130.5703 Q655.7656,129.4219 656.8594,128.8047 Q657.9531,128.1875 659.1875,128.1875 Q659.9219,128.1875 660.5703,128.3516 Q661.2188,128.5156 661.7656,128.875 Z "/><text fill="#000000" font-family="sans-serif" font-size="12" lengthAdjust="spacingAndGlyphs" textLength="81" x="673" y="137.9102">AnalysisActivity</text><line style="stroke: #A80036; stroke-width: 1.5;" x1="645" x2="756" y1="149" y2="149"/><line style="stroke: #A80036; stroke-width: 1.5;" x1="645" x2="756" y1="157" y2="157"/><!--class Role--><rect fill="#0000FF" filter="url(#fiv4zvn0437aj)" height="48" id="Role" style="stroke: #A80036; stroke-width: 1.5;" width="58" x="792.5" y="117"/><rect fill="#0000FF" height="32" style="stroke: #A80036; stroke-width: 1.5;" width="58" x="792.5" y="117"/><ellipse cx="807.5" cy="133" fill="#ADD1B2" rx="11" ry="11" style="stroke: #A80036; stroke-width: 1.0;"/><path d="M810.2656,128.875 Q810.4219,128.6563 810.6094,128.5469 Q810.7969,128.4375 811.0156,128.4375 Q811.3906,128.4375 811.625,128.6953 Q811.8594,128.9531 811.8594,129.5625 L811.8594,131.0156 Q811.8594,131.625 811.625,131.8906 Q811.3906,132.1563 811.0156,132.1563 Q810.6719,132.1563 810.4688,131.9531 Q810.2656,131.7656 810.1563,131.25 Q810.1094,130.8906 809.9219,130.7031 Q809.5938,130.3281 808.9844,130.1094 Q808.375,129.8906 807.75,129.8906 Q806.9844,129.8906 806.3516,130.2188 Q805.7188,130.5469 805.2266,131.2969 Q804.7344,132.0469 804.7344,133.0781 L804.7344,134.1719 Q804.7344,135.4063 805.625,136.2266 Q806.5156,137.0469 808.1094,137.0469 Q809.0469,137.0469 809.7031,136.7969 Q810.0938,136.6406 810.5156,136.2031 Q810.7813,135.9375 810.9297,135.8594 Q811.0781,135.7813 811.2813,135.7813 Q811.6094,135.7813 811.8672,136.0391 Q812.125,136.2969 812.125,136.6406 Q812.125,136.9844 811.7813,137.3906 Q811.2813,137.9688 810.4844,138.2969 Q809.4063,138.75 808.1094,138.75 Q806.5938,138.75 805.3906,138.125 Q804.4063,137.625 803.7188,136.5547 Q803.0313,135.4844 803.0313,134.2031 L803.0313,133.0469 Q803.0313,131.7188 803.6484,130.5703 Q804.2656,129.4219 805.3594,128.8047 Q806.4531,128.1875 807.6875,128.1875 Q808.4219,128.1875 809.0703,128.3516 Q809.7188,128.5156 810.2656,128.875 Z "/><text fill="#000000" font-family="sans-serif" font-size="12" lengthAdjust="spacingAndGlyphs" textLength="26" x="821.5" y="137.9102">Role</text><line style="stroke: #A80036; stroke-width: 1.5;" x1="793.5" x2="849.5" y1="149" y2="149"/><line style="stroke: #A80036; stroke-width: 1.5;" x1="793.5" x2="849.5" y1="157" y2="157"/><!--class ArchitectureDescription--><rect fill="#008000" filter="url(#fiv4zvn0437aj)" height="48" id="ArchitectureDescription" style="stroke: #A80036; stroke-width: 1.5;" width="317" x="6" y="352"/><rect fill="#008000" height="32" style="stroke: #A80036; stroke-width: 1.5;" width="317" x="6" y="352"/><ellipse cx="21" cy="368" fill="#ADD1B2" rx="11" ry="11" style="stroke: #A80036; stroke-width: 1.0;"/><path d="M23.7656,363.875 Q23.9219,363.6563 24.1094,363.5469 Q24.2969,363.4375 24.5156,363.4375 Q24.8906,363.4375 25.125,363.6953 Q25.3594,363.9531 25.3594,364.5625 L25.3594,366.0156 Q25.3594,366.625 25.125,366.8906 Q24.8906,367.1563 24.5156,367.1563 Q24.1719,367.1563 23.9688,366.9531 Q23.7656,366.7656 23.6563,366.25 Q23.6094,365.8906 23.4219,365.7031 Q23.0938,365.3281 22.4844,365.1094 Q21.875,364.8906 21.25,364.8906 Q20.4844,364.8906 19.8516,365.2188 Q19.2188,365.5469 18.7266,366.2969 Q18.2344,367.0469 18.2344,368.0781 L18.2344,369.1719 Q18.2344,370.4063 19.125,371.2266 Q20.0156,372.0469 21.6094,372.0469 Q22.5469,372.0469 23.2031,371.7969 Q23.5938,371.6406 24.0156,371.2031 Q24.2813,370.9375 24.4297,370.8594 Q24.5781,370.7813 24.7813,370.7813 Q25.1094,370.7813 25.3672,371.0391 Q25.625,371.2969 25.625,371.6406 Q25.625,371.9844 25.2813,372.3906 Q24.7813,372.9688 23.9844,373.2969 Q22.9063,373.75 21.6094,373.75 Q20.0938,373.75 18.8906,373.125 Q17.9063,372.625 17.2188,371.5547 Q16.5313,370.4844 16.5313,369.2031 L16.5313,368.0469 Q16.5313,366.7188 17.1484,365.5703 Q17.7656,364.4219 18.8594,363.8047 Q19.9531,363.1875 21.1875,363.1875 Q21.9219,363.1875 22.5703,363.3516 Q23.2188,363.5156 23.7656,363.875 Z "/><text fill="#000000" font-family="sans-serif" font-size="12" lengthAdjust="spacingAndGlyphs" textLength="285" x="35" y="372.9102">Architecture Description (View of the Analysis Model)</text><line style="stroke: #A80036; stroke-width: 1.5;" x1="7" x2="322" y1="384" y2="384"/><line style="stroke: #A80036; stroke-width: 1.5;" x1="7" x2="322" y1="392" y2="392"/><!--class AnalysisPackage--><rect fill="#008000" filter="url(#fiv4zvn0437aj)" height="48" id="AnalysisPackage" style="stroke: #A80036; stroke-width: 1.5;" width="177" x="358" y="352"/><rect fill="#008000" height="32" style="stroke: #A80036; stroke-width: 1.5;" width="177" x="358" y="352"/><ellipse cx="373" cy="368" fill="#ADD1B2" rx="11" ry="11" style="stroke: #A80036; stroke-width: 1.0;"/><path d="M375.7656,363.875 Q375.9219,363.6563 376.1094,363.5469 Q376.2969,363.4375 376.5156,363.4375 Q376.8906,363.4375 377.125,363.6953 Q377.3594,363.9531 377.3594,364.5625 L377.3594,366.0156 Q377.3594,366.625 377.125,366.8906 Q376.8906,367.1563 376.5156,367.1563 Q376.1719,367.1563 375.9688,366.9531 Q375.7656,366.7656 375.6563,366.25 Q375.6094,365.8906 375.4219,365.7031 Q375.0938,365.3281 374.4844,365.1094 Q373.875,364.8906 373.25,364.8906 Q372.4844,364.8906 371.8516,365.2188 Q371.2188,365.5469 370.7266,366.2969 Q370.2344,367.0469 370.2344,368.0781 L370.2344,369.1719 Q370.2344,370.4063 371.125,371.2266 Q372.0156,372.0469 373.6094,372.0469 Q374.5469,372.0469 375.2031,371.7969 Q375.5938,371.6406 376.0156,371.2031 Q376.2813,370.9375 376.4297,370.8594 Q376.5781,370.7813 376.7813,370.7813 Q377.1094,370.7813 377.3672,371.0391 Q377.625,371.2969 377.625,371.6406 Q377.625,371.9844 377.2813,372.3906 Q376.7813,372.9688 375.9844,373.2969 Q374.9063,373.75 373.6094,373.75 Q372.0938,373.75 370.8906,373.125 Q369.9063,372.625 369.2188,371.5547 Q368.5313,370.4844 368.5313,369.2031 L368.5313,368.0469 Q368.5313,366.7188 369.1484,365.5703 Q369.7656,364.4219 370.8594,363.8047 Q371.9531,363.1875 373.1875,363.1875 Q373.9219,363.1875 374.5703,363.3516 Q375.2188,363.5156 375.7656,363.875 Z "/><text fill="#000000" font-family="sans-serif" font-size="12" lengthAdjust="spacingAndGlyphs" textLength="145" x="387" y="372.9102">Analysis Package (outline)</text><line style="stroke: #A80036; stroke-width: 1.5;" x1="359" x2="534" y1="384" y2="384"/><line style="stroke: #A80036; stroke-width: 1.5;" x1="359" x2="534" y1="392" y2="392"/><!--class AnalysisPackageX--><rect fill="#008000" filter="url(#fiv4zvn0437aj)" height="48" id="AnalysisPackageX" style="stroke: #A80036; stroke-width: 1.5;" width="156" x="570.5" y="352"/><rect fill="#008000" height="32" style="stroke: #A80036; stroke-width: 1.5;" width="156" x="570.5" y="352"/><ellipse cx="585.5" cy="368" fill="#ADD1B2" rx="11" ry="11" style="stroke: #A80036; stroke-width: 1.0;"/><path d="M588.2656,363.875 Q588.4219,363.6563 588.6094,363.5469 Q588.7969,363.4375 589.0156,363.4375 Q589.3906,363.4375 589.625,363.6953 Q589.8594,363.9531 589.8594,364.5625 L589.8594,366.0156 Q589.8594,366.625 589.625,366.8906 Q589.3906,367.1563 589.0156,367.1563 Q588.6719,367.1563 588.4688,366.9531 Q588.2656,366.7656 588.1563,366.25 Q588.1094,365.8906 587.9219,365.7031 Q587.5938,365.3281 586.9844,365.1094 Q586.375,364.8906 585.75,364.8906 Q584.9844,364.8906 584.3516,365.2188 Q583.7188,365.5469 583.2266,366.2969 Q582.7344,367.0469 582.7344,368.0781 L582.7344,369.1719 Q582.7344,370.4063 583.625,371.2266 Q584.5156,372.0469 586.1094,372.0469 Q587.0469,372.0469 587.7031,371.7969 Q588.0938,371.6406 588.5156,371.2031 Q588.7813,370.9375 588.9297,370.8594 Q589.0781,370.7813 589.2813,370.7813 Q589.6094,370.7813 589.8672,371.0391 Q590.125,371.2969 590.125,371.6406 Q590.125,371.9844 589.7813,372.3906 Q589.2813,372.9688 588.4844,373.2969 Q587.4063,373.75 586.1094,373.75 Q584.5938,373.75 583.3906,373.125 Q582.4063,372.625 581.7188,371.5547 Q581.0313,370.4844 581.0313,369.2031 L581.0313,368.0469 Q581.0313,366.7188 581.6484,365.5703 Q582.2656,364.4219 583.3594,363.8047 Q584.4531,363.1875 585.6875,363.1875 Q586.4219,363.1875 587.0703,363.3516 Q587.7188,363.5156 588.2656,363.875 Z "/><text fill="#000000" font-family="sans-serif" font-size="12" lengthAdjust="spacingAndGlyphs" textLength="124" x="599.5" y="372.9102">Analysis Package (full)</text><line style="stroke: #A80036; stroke-width: 1.5;" x1="571.5" x2="725.5" y1="384" y2="384"/><line style="stroke: #A80036; stroke-width: 1.5;" x1="571.5" x2="725.5" y1="392" y2="392"/><!--class AnalysisRole--><rect fill="#0000FF" filter="url(#fiv4zvn0437aj)" height="48" id="AnalysisRole" style="stroke: #A80036; stroke-width: 1.5;" width="104" x="769.5" y="226"/><rect fill="#0000FF" height="32" style="stroke: #A80036; stroke-width: 1.5;" width="104" x="769.5" y="226"/><ellipse cx="784.5" cy="242" fill="#ADD1B2" rx="11" ry="11" style="stroke: #A80036; stroke-width: 1.0;"/><path d="M787.2656,237.875 Q787.4219,237.6563 787.6094,237.5469 Q787.7969,237.4375 788.0156,237.4375 Q788.3906,237.4375 788.625,237.6953 Q788.8594,237.9531 788.8594,238.5625 L788.8594,240.0156 Q788.8594,240.625 788.625,240.8906 Q788.3906,241.1563 788.0156,241.1563 Q787.6719,241.1563 787.4688,240.9531 Q787.2656,240.7656 787.1563,240.25 Q787.1094,239.8906 786.9219,239.7031 Q786.5938,239.3281 785.9844,239.1094 Q785.375,238.8906 784.75,238.8906 Q783.9844,238.8906 783.3516,239.2188 Q782.7188,239.5469 782.2266,240.2969 Q781.7344,241.0469 781.7344,242.0781 L781.7344,243.1719 Q781.7344,244.4063 782.625,245.2266 Q783.5156,246.0469 785.1094,246.0469 Q786.0469,246.0469 786.7031,245.7969 Q787.0938,245.6406 787.5156,245.2031 Q787.7813,244.9375 787.9297,244.8594 Q788.0781,244.7813 788.2813,244.7813 Q788.6094,244.7813 788.8672,245.0391 Q789.125,245.2969 789.125,245.6406 Q789.125,245.9844 788.7813,246.3906 Q788.2813,246.9688 787.4844,247.2969 Q786.4063,247.75 785.1094,247.75 Q783.5938,247.75 782.3906,247.125 Q781.4063,246.625 780.7188,245.5547 Q780.0313,244.4844 780.0313,243.2031 L780.0313,242.0469 Q780.0313,240.7188 780.6484,239.5703 Q781.2656,238.4219 782.3594,237.8047 Q783.4531,237.1875 784.6875,237.1875 Q785.4219,237.1875 786.0703,237.3516 Q786.7188,237.5156 787.2656,237.875 Z "/><text fill="#000000" font-family="sans-serif" font-size="12" lengthAdjust="spacingAndGlyphs" textLength="72" x="798.5" y="246.9102">AnalysisRole</text><line style="stroke: #A80036; stroke-width: 1.5;" x1="770.5" x2="872.5" y1="258" y2="258"/><line style="stroke: #A80036; stroke-width: 1.5;" x1="770.5" x2="872.5" y1="266" y2="266"/><!--class AnalyzePackage--><rect fill="#FF0000" filter="url(#fiv4zvn0437aj)" height="48" id="AnalyzePackage" style="stroke: #A80036; stroke-width: 1.5;" width="124" x="586.5" y="226"/><rect fill="#FF0000" height="32" style="stroke: #A80036; stroke-width: 1.5;" width="124" x="586.5" y="226"/><ellipse cx="601.5" cy="242" fill="#ADD1B2" rx="11" ry="11" style="stroke: #A80036; stroke-width: 1.0;"/><path d="M604.2656,237.875 Q604.4219,237.6563 604.6094,237.5469 Q604.7969,237.4375 605.0156,237.4375 Q605.3906,237.4375 605.625,237.6953 Q605.8594,237.9531 605.8594,238.5625 L605.8594,240.0156 Q605.8594,240.625 605.625,240.8906 Q605.3906,241.1563 605.0156,241.1563 Q604.6719,241.1563 604.4688,240.9531 Q604.2656,240.7656 604.1563,240.25 Q604.1094,239.8906 603.9219,239.7031 Q603.5938,239.3281 602.9844,239.1094 Q602.375,238.8906 601.75,238.8906 Q600.9844,238.8906 600.3516,239.2188 Q599.7188,239.5469 599.2266,240.2969 Q598.7344,241.0469 598.7344,242.0781 L598.7344,243.1719 Q598.7344,244.4063 599.625,245.2266 Q600.5156,246.0469 602.1094,246.0469 Q603.0469,246.0469 603.7031,245.7969 Q604.0938,245.6406 604.5156,245.2031 Q604.7813,244.9375 604.9297,244.8594 Q605.0781,244.7813 605.2813,244.7813 Q605.6094,244.7813 605.8672,245.0391 Q606.125,245.2969 606.125,245.6406 Q606.125,245.9844 605.7813,246.3906 Q605.2813,246.9688 604.4844,247.2969 Q603.4063,247.75 602.1094,247.75 Q600.5938,247.75 599.3906,247.125 Q598.4063,246.625 597.7188,245.5547 Q597.0313,244.4844 597.0313,243.2031 L597.0313,242.0469 Q597.0313,240.7188 597.6484,239.5703 Q598.2656,238.4219 599.3594,237.8047 Q600.4531,237.1875 601.6875,237.1875 Q602.4219,237.1875 603.0703,237.3516 Q603.7188,237.5156 604.2656,237.875 Z "/><text fill="#000000" font-family="sans-serif" font-size="12" lengthAdjust="spacingAndGlyphs" textLength="92" x="615.5" y="246.9102">Analyze Package</text><line style="stroke: #A80036; stroke-width: 1.5;" x1="587.5" x2="709.5" y1="258" y2="258"/><line style="stroke: #A80036; stroke-width: 1.5;" x1="587.5" x2="709.5" y1="266" y2="266"/><!--class EngineerComponents--><rect fill="#0000FF" filter="url(#fiv4zvn0437aj)" height="48" id="EngineerComponents" style="stroke: #A80036; stroke-width: 1.5;" width="170" x="761.5" y="352"/><rect fill="#0000FF" height="32" style="stroke: #A80036; stroke-width: 1.5;" width="170" x="761.5" y="352"/><ellipse cx="776.5" cy="368" fill="#ADD1B2" rx="11" ry="11" style="stroke: #A80036; stroke-width: 1.0;"/><path d="M779.2656,363.875 Q779.4219,363.6563 779.6094,363.5469 Q779.7969,363.4375 780.0156,363.4375 Q780.3906,363.4375 780.625,363.6953 Q780.8594,363.9531 780.8594,364.5625 L780.8594,366.0156 Q780.8594,366.625 780.625,366.8906 Q780.3906,367.1563 780.0156,367.1563 Q779.6719,367.1563 779.4688,366.9531 Q779.2656,366.7656 779.1563,366.25 Q779.1094,365.8906 778.9219,365.7031 Q778.5938,365.3281 777.9844,365.1094 Q777.375,364.8906 776.75,364.8906 Q775.9844,364.8906 775.3516,365.2188 Q774.7188,365.5469 774.2266,366.2969 Q773.7344,367.0469 773.7344,368.0781 L773.7344,369.1719 Q773.7344,370.4063 774.625,371.2266 Q775.5156,372.0469 777.1094,372.0469 Q778.0469,372.0469 778.7031,371.7969 Q779.0938,371.6406 779.5156,371.2031 Q779.7813,370.9375 779.9297,370.8594 Q780.0781,370.7813 780.2813,370.7813 Q780.6094,370.7813 780.8672,371.0391 Q781.125,371.2969 781.125,371.6406 Q781.125,371.9844 780.7813,372.3906 Q780.2813,372.9688 779.4844,373.2969 Q778.4063,373.75 777.1094,373.75 Q775.5938,373.75 774.3906,373.125 Q773.4063,372.625 772.7188,371.5547 Q772.0313,370.4844 772.0313,369.2031 L772.0313,368.0469 Q772.0313,366.7188 772.6484,365.5703 Q773.2656,364.4219 774.3594,363.8047 Q775.4531,363.1875 776.6875,363.1875 Q777.4219,363.1875 778.0703,363.3516 Q778.7188,363.5156 779.2656,363.875 Z "/><text fill="#000000" font-family="sans-serif" font-size="12" lengthAdjust="spacingAndGlyphs" textLength="138" x="790.5" y="372.9102">Engineer of Components</text><line style="stroke: #A80036; stroke-width: 1.5;" x1="762.5" x2="930.5" y1="384" y2="384"/><line style="stroke: #A80036; stroke-width: 1.5;" x1="762.5" x2="930.5" y1="392" y2="392"/><!--link Activity to AnalysisActivity--><path d="M737.438,74.127 C729.321,88.602 720.487,104.357 713.494,116.828 " fill="none" id="Activity-AnalysisActivity" style="stroke: #A80036; stroke-width: 1.0;"/><polygon fill="none" points="731.593,70.238,747.481,56.217,743.804,77.086,731.593,70.238" style="stroke: #A80036; stroke-width: 1.0;"/><!--link Activity to Role--><path d="M773.736,56.217 C783.089,72.623 795.67,94.692 805.573,112.062 " fill="none" id="Activity-Role" style="stroke: #A80036; stroke-width: 1.0;"/><polygon fill="#A80036" points="808.29,116.828,807.3067,107.0283,805.8133,112.4845,800.3572,110.9911,808.29,116.828" style="stroke: #A80036; stroke-width: 1.0;"/><!--link AnalysisActivity to AnalysisRole--><path d="M726.755,165.217 C745.782,182.043 771.548,204.827 791.407,222.389 " fill="none" id="AnalysisActivity-AnalysisRole" style="stroke: #A80036; stroke-width: 1.0;"/><polygon fill="#A80036" points="795.296,225.828,791.2044,216.8693,791.5507,222.5155,785.9044,222.8617,795.296,225.828" style="stroke: #A80036; stroke-width: 1.0;"/><!--link AnalysisActivity to AnalyzePackage--><path d="M680.276,183.615 C673.306,197.956 665.754,213.497 659.761,225.828 " fill="none" id="AnalysisActivity-AnalyzePackage" style="stroke: #A80036; stroke-width: 1.0;"/><polygon fill="none" points="674.179,180.146,689.217,165.217,686.771,186.265,674.179,180.146" style="stroke: #A80036; stroke-width: 1.0;"/><!--link AnalyzePackage to ArchitectureDescription--><path d="M586.216,266.957 C503.361,288.184 356.118,325.9079 259.394,350.6882 " fill="none" id="AnalyzePackage-ArchitectureDescription" style="stroke: #A80036; stroke-width: 1.0;"/><polygon fill="#A80036" points="254.539,351.932,264.2499,353.5749,259.3828,350.6919,262.2658,345.8249,254.539,351.932" style="stroke: #A80036; stroke-width: 1.0;"/><text fill="#000000" font-family="sans-serif" font-size="13" lengthAdjust="spacingAndGlyphs" textLength="10" x="436.5" y="318.4951">in</text><!--link AnalyzePackage to AnalysisPackage--><path d="M610.979,274.033 C576.223,295.368 524.603,327.0557 488.488,349.2253 " fill="none" id="AnalyzePackage-AnalysisPackage" style="stroke: #A80036; stroke-width: 1.0;"/><polygon fill="#A80036" points="484.162,351.8804,493.9248,350.581,488.4232,349.2646,489.7396,343.7631,484.162,351.8804" style="stroke: #A80036; stroke-width: 1.0;"/><text fill="#000000" font-family="sans-serif" font-size="13" lengthAdjust="spacingAndGlyphs" textLength="10" x="561.5" y="318.4951">in</text><!--link AnalyzePackage to AnalysisPackageX--><path d="M648.5,274.033 C648.5,294.522 648.5,324.5607 648.5,346.5464 " fill="none" id="AnalyzePackage-AnalysisPackageX" style="stroke: #A80036; stroke-width: 1.0;"/><polygon fill="#A80036" points="648.5,351.6697,652.5,342.6697,648.5,346.6697,644.5,342.6697,648.5,351.6697" style="stroke: #A80036; stroke-width: 1.0;"/><text fill="#000000" font-family="sans-serif" font-size="13" lengthAdjust="spacingAndGlyphs" textLength="18" x="649.5" y="318.4951">out</text><!--link AnalyzePackage to EngineerComponents--><path d="M685.278,274.033 C719.345,295.368 769.944,327.0557 805.344,349.2253 " fill="none" id="AnalyzePackage-EngineerComponents" style="stroke: #A80036; stroke-width: 1.0;"/><polygon fill="#A80036" points="809.583,351.8804,804.079,343.713,805.3456,349.2262,799.8324,350.4928,809.583,351.8804" style="stroke: #A80036; stroke-width: 1.0;"/><!--link Role to AnalysisRole--><path d="M821.5,185.578 C821.5,199.362 821.5,214.057 821.5,225.828 " fill="none" id="Role-AnalysisRole" style="stroke: #A80036; stroke-width: 1.0;"/><polygon fill="none" points="814.5,185.217,821.5,165.217,828.5,185.217,814.5,185.217" style="stroke: #A80036; stroke-width: 1.0;"/><!--link AnalysisRole to EngineerComponents--><path d="M830.154,293.923 C834.06,313.2993 838.522,335.4304 841.796,351.6697 " fill="none" id="AnalysisRole-EngineerComponents" style="stroke: #A80036; stroke-width: 1.0;"/><polygon fill="none" points="823.235,295.022,826.144,274.033,836.958,292.255,823.235,295.022" style="stroke: #A80036; stroke-width: 1.0;"/><!--
@startuml

class Activity #red
Activity <|- - AnalysisActivity
Activity - -> Role

class "Architecture Description (View of the Analysis Model)" as ArchitectureDescription #green
class "Analysis Package (outline)" as AnalysisPackage #green
class "Analysis Package (full)" as AnalysisPackageX #green

class AnalysisActivity #red
AnalysisActivity - -> AnalysisRole

class "Analyze Package" as AnalyzePackage #red
AnalysisActivity <|- - AnalyzePackage

AnalyzePackage - -> ArchitectureDescription :in
AnalyzePackage - -> AnalysisPackage :in
AnalyzePackage - -> AnalysisPackageX :out

class Role #blue
class AnalysisRole #blue
class "Engineer of Components" as EngineerComponents #blue

AnalyzePackage - -> EngineerComponents

Role <|- - AnalysisRole
AnalysisRole <|- - EngineerComponents
@enduml

PlantUML version 1.2019.05(Sat Apr 20 18:45:36 CEST 2019)
(GPL source distribution)
Java Runtime: OpenJDK Runtime Environment
JVM: OpenJDK 64-Bit Server VM
Java Version: 1.8.0_222-b10
Operating System: Windows 10
OS Version: 10.0
Default Encoding: windows-1252
Language: es
Country: ES
--></g></svg>