<?xml version="1.0" encoding="UTF-8" standalone="no"?><svg xmlns="http://www.w3.org/2000/svg" xmlns:xlink="http://www.w3.org/1999/xlink" contentScriptType="application/ecmascript" contentStyleType="text/css" height="411px" preserveAspectRatio="none" style="width:2050px;height:411px;" version="1.1" viewBox="0 0 2050 411" width="2050px" zoomAndPan="magnify"><defs><filter height="300%" id="fxl015qvx8zhj" width="300%" x="-1" y="-1"><feGaussianBlur result="blurOut" stdDeviation="2.0"/><feColorMatrix in="blurOut" result="blurOut2" type="matrix" values="0 0 0 0 0 0 0 0 0 0 0 0 0 0 0 0 0 0 .4 0"/><feOffset dx="4.0" dy="4.0" in="blurOut2" result="blurOut3"/><feBlend in="SourceGraphic" in2="blurOut3" mode="normal"/></filter></defs><g><!--class Activity--><rect fill="#FF0000" filter="url(#fxl015qvx8zhj)" height="48" id="Activity" style="stroke: #A80036; stroke-width: 1.5;" width="67" x="1465" y="8"/><rect fill="#FF0000" height="32" style="stroke: #A80036; stroke-width: 1.5;" width="67" x="1465" y="8"/><ellipse cx="1480" cy="24" fill="#ADD1B2" rx="11" ry="11" style="stroke: #A80036; stroke-width: 1.0;"/><path d="M1482.7656,19.875 Q1482.9219,19.6563 1483.1094,19.5469 Q1483.2969,19.4375 1483.5156,19.4375 Q1483.8906,19.4375 1484.125,19.6953 Q1484.3594,19.9531 1484.3594,20.5625 L1484.3594,22.0156 Q1484.3594,22.625 1484.125,22.8906 Q1483.8906,23.1563 1483.5156,23.1563 Q1483.1719,23.1563 1482.9688,22.9531 Q1482.7656,22.7656 1482.6563,22.25 Q1482.6094,21.8906 1482.4219,21.7031 Q1482.0938,21.3281 1481.4844,21.1094 Q1480.875,20.8906 1480.25,20.8906 Q1479.4844,20.8906 1478.8516,21.2188 Q1478.2188,21.5469 1477.7266,22.2969 Q1477.2344,23.0469 1477.2344,24.0781 L1477.2344,25.1719 Q1477.2344,26.4063 1478.125,27.2266 Q1479.0156,28.0469 1480.6094,28.0469 Q1481.5469,28.0469 1482.2031,27.7969 Q1482.5938,27.6406 1483.0156,27.2031 Q1483.2813,26.9375 1483.4297,26.8594 Q1483.5781,26.7813 1483.7813,26.7813 Q1484.1094,26.7813 1484.3672,27.0391 Q1484.625,27.2969 1484.625,27.6406 Q1484.625,27.9844 1484.2813,28.3906 Q1483.7813,28.9688 1482.9844,29.2969 Q1481.9063,29.75 1480.6094,29.75 Q1479.0938,29.75 1477.8906,29.125 Q1476.9063,28.625 1476.2188,27.5547 Q1475.5313,26.4844 1475.5313,25.2031 L1475.5313,24.0469 Q1475.5313,22.7188 1476.1484,21.5703 Q1476.7656,20.4219 1477.8594,19.8047 Q1478.9531,19.1875 1480.1875,19.1875 Q1480.9219,19.1875 1481.5703,19.3516 Q1482.2188,19.5156 1482.7656,19.875 Z "/><text fill="#000000" font-family="sans-serif" font-size="12" lengthAdjust="spacingAndGlyphs" textLength="35" x="1494" y="28.9102">Activity</text><line style="stroke: #A80036; stroke-width: 1.5;" x1="1466" x2="1531" y1="40" y2="40"/><line style="stroke: #A80036; stroke-width: 1.5;" x1="1466" x2="1531" y1="48" y2="48"/><!--class DesignActivity--><rect fill="#FF0000" filter="url(#fxl015qvx8zhj)" height="48" id="DesignActivity" style="stroke: #A80036; stroke-width: 1.5;" width="107" x="1387" y="117"/><rect fill="#FF0000" height="32" style="stroke: #A80036; stroke-width: 1.5;" width="107" x="1387" y="117"/><ellipse cx="1402" cy="133" fill="#ADD1B2" rx="11" ry="11" style="stroke: #A80036; stroke-width: 1.0;"/><path d="M1404.7656,128.875 Q1404.9219,128.6563 1405.1094,128.5469 Q1405.2969,128.4375 1405.5156,128.4375 Q1405.8906,128.4375 1406.125,128.6953 Q1406.3594,128.9531 1406.3594,129.5625 L1406.3594,131.0156 Q1406.3594,131.625 1406.125,131.8906 Q1405.8906,132.1563 1405.5156,132.1563 Q1405.1719,132.1563 1404.9688,131.9531 Q1404.7656,131.7656 1404.6563,131.25 Q1404.6094,130.8906 1404.4219,130.7031 Q1404.0938,130.3281 1403.4844,130.1094 Q1402.875,129.8906 1402.25,129.8906 Q1401.4844,129.8906 1400.8516,130.2188 Q1400.2188,130.5469 1399.7266,131.2969 Q1399.2344,132.0469 1399.2344,133.0781 L1399.2344,134.1719 Q1399.2344,135.4063 1400.125,136.2266 Q1401.0156,137.0469 1402.6094,137.0469 Q1403.5469,137.0469 1404.2031,136.7969 Q1404.5938,136.6406 1405.0156,136.2031 Q1405.2813,135.9375 1405.4297,135.8594 Q1405.5781,135.7813 1405.7813,135.7813 Q1406.1094,135.7813 1406.3672,136.0391 Q1406.625,136.2969 1406.625,136.6406 Q1406.625,136.9844 1406.2813,137.3906 Q1405.7813,137.9688 1404.9844,138.2969 Q1403.9063,138.75 1402.6094,138.75 Q1401.0938,138.75 1399.8906,138.125 Q1398.9063,137.625 1398.2188,136.5547 Q1397.5313,135.4844 1397.5313,134.2031 L1397.5313,133.0469 Q1397.5313,131.7188 1398.1484,130.5703 Q1398.7656,129.4219 1399.8594,128.8047 Q1400.9531,128.1875 1402.1875,128.1875 Q1402.9219,128.1875 1403.5703,128.3516 Q1404.2188,128.5156 1404.7656,128.875 Z "/><text fill="#000000" font-family="sans-serif" font-size="12" lengthAdjust="spacingAndGlyphs" textLength="75" x="1416" y="137.9102">DesignActivity</text><line style="stroke: #A80036; stroke-width: 1.5;" x1="1388" x2="1493" y1="149" y2="149"/><line style="stroke: #A80036; stroke-width: 1.5;" x1="1388" x2="1493" y1="157" y2="157"/><!--class Role--><rect fill="#0000FF" filter="url(#fxl015qvx8zhj)" height="48" id="Role" style="stroke: #A80036; stroke-width: 1.5;" width="58" x="1529.5" y="117"/><rect fill="#0000FF" height="32" style="stroke: #A80036; stroke-width: 1.5;" width="58" x="1529.5" y="117"/><ellipse cx="1544.5" cy="133" fill="#ADD1B2" rx="11" ry="11" style="stroke: #A80036; stroke-width: 1.0;"/><path d="M1547.2656,128.875 Q1547.4219,128.6563 1547.6094,128.5469 Q1547.7969,128.4375 1548.0156,128.4375 Q1548.3906,128.4375 1548.625,128.6953 Q1548.8594,128.9531 1548.8594,129.5625 L1548.8594,131.0156 Q1548.8594,131.625 1548.625,131.8906 Q1548.3906,132.1563 1548.0156,132.1563 Q1547.6719,132.1563 1547.4688,131.9531 Q1547.2656,131.7656 1547.1563,131.25 Q1547.1094,130.8906 1546.9219,130.7031 Q1546.5938,130.3281 1545.9844,130.1094 Q1545.375,129.8906 1544.75,129.8906 Q1543.9844,129.8906 1543.3516,130.2188 Q1542.7188,130.5469 1542.2266,131.2969 Q1541.7344,132.0469 1541.7344,133.0781 L1541.7344,134.1719 Q1541.7344,135.4063 1542.625,136.2266 Q1543.5156,137.0469 1545.1094,137.0469 Q1546.0469,137.0469 1546.7031,136.7969 Q1547.0938,136.6406 1547.5156,136.2031 Q1547.7813,135.9375 1547.9297,135.8594 Q1548.0781,135.7813 1548.2813,135.7813 Q1548.6094,135.7813 1548.8672,136.0391 Q1549.125,136.2969 1549.125,136.6406 Q1549.125,136.9844 1548.7813,137.3906 Q1548.2813,137.9688 1547.4844,138.2969 Q1546.4063,138.75 1545.1094,138.75 Q1543.5938,138.75 1542.3906,138.125 Q1541.4063,137.625 1540.7188,136.5547 Q1540.0313,135.4844 1540.0313,134.2031 L1540.0313,133.0469 Q1540.0313,131.7188 1540.6484,130.5703 Q1541.2656,129.4219 1542.3594,128.8047 Q1543.4531,128.1875 1544.6875,128.1875 Q1545.4219,128.1875 1546.0703,128.3516 Q1546.7188,128.5156 1547.2656,128.875 Z "/><text fill="#000000" font-family="sans-serif" font-size="12" lengthAdjust="spacingAndGlyphs" textLength="26" x="1558.5" y="137.9102">Role</text><line style="stroke: #A80036; stroke-width: 1.5;" x1="1530.5" x2="1586.5" y1="149" y2="149"/><line style="stroke: #A80036; stroke-width: 1.5;" x1="1530.5" x2="1586.5" y1="157" y2="157"/><!--class ModelUseCases--><rect fill="#008000" filter="url(#fxl015qvx8zhj)" height="48" id="ModelUseCases" style="stroke: #A80036; stroke-width: 1.5;" width="125" x="6" y="352"/><rect fill="#008000" height="32" style="stroke: #A80036; stroke-width: 1.5;" width="125" x="6" y="352"/><ellipse cx="21" cy="368" fill="#ADD1B2" rx="11" ry="11" style="stroke: #A80036; stroke-width: 1.0;"/><path d="M23.7656,363.875 Q23.9219,363.6563 24.1094,363.5469 Q24.2969,363.4375 24.5156,363.4375 Q24.8906,363.4375 25.125,363.6953 Q25.3594,363.9531 25.3594,364.5625 L25.3594,366.0156 Q25.3594,366.625 25.125,366.8906 Q24.8906,367.1563 24.5156,367.1563 Q24.1719,367.1563 23.9688,366.9531 Q23.7656,366.7656 23.6563,366.25 Q23.6094,365.8906 23.4219,365.7031 Q23.0938,365.3281 22.4844,365.1094 Q21.875,364.8906 21.25,364.8906 Q20.4844,364.8906 19.8516,365.2188 Q19.2188,365.5469 18.7266,366.2969 Q18.2344,367.0469 18.2344,368.0781 L18.2344,369.1719 Q18.2344,370.4063 19.125,371.2266 Q20.0156,372.0469 21.6094,372.0469 Q22.5469,372.0469 23.2031,371.7969 Q23.5938,371.6406 24.0156,371.2031 Q24.2813,370.9375 24.4297,370.8594 Q24.5781,370.7813 24.7813,370.7813 Q25.1094,370.7813 25.3672,371.0391 Q25.625,371.2969 25.625,371.6406 Q25.625,371.9844 25.2813,372.3906 Q24.7813,372.9688 23.9844,373.2969 Q22.9063,373.75 21.6094,373.75 Q20.0938,373.75 18.8906,373.125 Q17.9063,372.625 17.2188,371.5547 Q16.5313,370.4844 16.5313,369.2031 L16.5313,368.0469 Q16.5313,366.7188 17.1484,365.5703 Q17.7656,364.4219 18.8594,363.8047 Q19.9531,363.1875 21.1875,363.1875 Q21.9219,363.1875 22.5703,363.3516 Q23.2188,363.5156 23.7656,363.875 Z "/><text fill="#000000" font-family="sans-serif" font-size="12" lengthAdjust="spacingAndGlyphs" textLength="93" x="35" y="372.9102">ModelUseCases</text><line style="stroke: #A80036; stroke-width: 1.5;" x1="7" x2="130" y1="384" y2="384"/><line style="stroke: #A80036; stroke-width: 1.5;" x1="7" x2="130" y1="392" y2="392"/><!--class RequirementsSupplementary--><rect fill="#008000" filter="url(#fxl015qvx8zhj)" height="48" id="RequirementsSupplementary" style="stroke: #A80036; stroke-width: 1.5;" width="194" x="166.5" y="352"/><rect fill="#008000" height="32" style="stroke: #A80036; stroke-width: 1.5;" width="194" x="166.5" y="352"/><ellipse cx="181.5" cy="368" fill="#ADD1B2" rx="11" ry="11" style="stroke: #A80036; stroke-width: 1.0;"/><path d="M184.2656,363.875 Q184.4219,363.6563 184.6094,363.5469 Q184.7969,363.4375 185.0156,363.4375 Q185.3906,363.4375 185.625,363.6953 Q185.8594,363.9531 185.8594,364.5625 L185.8594,366.0156 Q185.8594,366.625 185.625,366.8906 Q185.3906,367.1563 185.0156,367.1563 Q184.6719,367.1563 184.4688,366.9531 Q184.2656,366.7656 184.1563,366.25 Q184.1094,365.8906 183.9219,365.7031 Q183.5938,365.3281 182.9844,365.1094 Q182.375,364.8906 181.75,364.8906 Q180.9844,364.8906 180.3516,365.2188 Q179.7188,365.5469 179.2266,366.2969 Q178.7344,367.0469 178.7344,368.0781 L178.7344,369.1719 Q178.7344,370.4063 179.625,371.2266 Q180.5156,372.0469 182.1094,372.0469 Q183.0469,372.0469 183.7031,371.7969 Q184.0938,371.6406 184.5156,371.2031 Q184.7813,370.9375 184.9297,370.8594 Q185.0781,370.7813 185.2813,370.7813 Q185.6094,370.7813 185.8672,371.0391 Q186.125,371.2969 186.125,371.6406 Q186.125,371.9844 185.7813,372.3906 Q185.2813,372.9688 184.4844,373.2969 Q183.4063,373.75 182.1094,373.75 Q180.5938,373.75 179.3906,373.125 Q178.4063,372.625 177.7188,371.5547 Q177.0313,370.4844 177.0313,369.2031 L177.0313,368.0469 Q177.0313,366.7188 177.6484,365.5703 Q178.2656,364.4219 179.3594,363.8047 Q180.4531,363.1875 181.6875,363.1875 Q182.4219,363.1875 183.0703,363.3516 Q183.7188,363.5156 184.2656,363.875 Z "/><text fill="#000000" font-family="sans-serif" font-size="12" lengthAdjust="spacingAndGlyphs" textLength="162" x="195.5" y="372.9102">RequirementsSupplementary</text><line style="stroke: #A80036; stroke-width: 1.5;" x1="167.5" x2="359.5" y1="384" y2="384"/><line style="stroke: #A80036; stroke-width: 1.5;" x1="167.5" x2="359.5" y1="392" y2="392"/><!--class ModelAnalysis--><rect fill="#008000" filter="url(#fxl015qvx8zhj)" height="48" id="ModelAnalysis" style="stroke: #A80036; stroke-width: 1.5;" width="127" x="396" y="352"/><rect fill="#008000" height="32" style="stroke: #A80036; stroke-width: 1.5;" width="127" x="396" y="352"/><ellipse cx="411" cy="368" fill="#ADD1B2" rx="11" ry="11" style="stroke: #A80036; stroke-width: 1.0;"/><path d="M413.7656,363.875 Q413.9219,363.6563 414.1094,363.5469 Q414.2969,363.4375 414.5156,363.4375 Q414.8906,363.4375 415.125,363.6953 Q415.3594,363.9531 415.3594,364.5625 L415.3594,366.0156 Q415.3594,366.625 415.125,366.8906 Q414.8906,367.1563 414.5156,367.1563 Q414.1719,367.1563 413.9688,366.9531 Q413.7656,366.7656 413.6563,366.25 Q413.6094,365.8906 413.4219,365.7031 Q413.0938,365.3281 412.4844,365.1094 Q411.875,364.8906 411.25,364.8906 Q410.4844,364.8906 409.8516,365.2188 Q409.2188,365.5469 408.7266,366.2969 Q408.2344,367.0469 408.2344,368.0781 L408.2344,369.1719 Q408.2344,370.4063 409.125,371.2266 Q410.0156,372.0469 411.6094,372.0469 Q412.5469,372.0469 413.2031,371.7969 Q413.5938,371.6406 414.0156,371.2031 Q414.2813,370.9375 414.4297,370.8594 Q414.5781,370.7813 414.7813,370.7813 Q415.1094,370.7813 415.3672,371.0391 Q415.625,371.2969 415.625,371.6406 Q415.625,371.9844 415.2813,372.3906 Q414.7813,372.9688 413.9844,373.2969 Q412.9063,373.75 411.6094,373.75 Q410.0938,373.75 408.8906,373.125 Q407.9063,372.625 407.2188,371.5547 Q406.5313,370.4844 406.5313,369.2031 L406.5313,368.0469 Q406.5313,366.7188 407.1484,365.5703 Q407.7656,364.4219 408.8594,363.8047 Q409.9531,363.1875 411.1875,363.1875 Q411.9219,363.1875 412.5703,363.3516 Q413.2188,363.5156 413.7656,363.875 Z "/><text fill="#000000" font-family="sans-serif" font-size="12" lengthAdjust="spacingAndGlyphs" textLength="95" x="425" y="372.9102">Model of Analysis</text><line style="stroke: #A80036; stroke-width: 1.5;" x1="397" x2="522" y1="384" y2="384"/><line style="stroke: #A80036; stroke-width: 1.5;" x1="397" x2="522" y1="392" y2="392"/><!--class ArchitectureDescriptionX--><rect fill="#008000" filter="url(#fxl015qvx8zhj)" height="48" id="ArchitectureDescriptionX" style="stroke: #A80036; stroke-width: 1.5;" width="282" x="558.5" y="352"/><rect fill="#008000" height="32" style="stroke: #A80036; stroke-width: 1.5;" width="282" x="558.5" y="352"/><ellipse cx="573.5" cy="368" fill="#ADD1B2" rx="11" ry="11" style="stroke: #A80036; stroke-width: 1.0;"/><path d="M576.2656,363.875 Q576.4219,363.6563 576.6094,363.5469 Q576.7969,363.4375 577.0156,363.4375 Q577.3906,363.4375 577.625,363.6953 Q577.8594,363.9531 577.8594,364.5625 L577.8594,366.0156 Q577.8594,366.625 577.625,366.8906 Q577.3906,367.1563 577.0156,367.1563 Q576.6719,367.1563 576.4688,366.9531 Q576.2656,366.7656 576.1563,366.25 Q576.1094,365.8906 575.9219,365.7031 Q575.5938,365.3281 574.9844,365.1094 Q574.375,364.8906 573.75,364.8906 Q572.9844,364.8906 572.3516,365.2188 Q571.7188,365.5469 571.2266,366.2969 Q570.7344,367.0469 570.7344,368.0781 L570.7344,369.1719 Q570.7344,370.4063 571.625,371.2266 Q572.5156,372.0469 574.1094,372.0469 Q575.0469,372.0469 575.7031,371.7969 Q576.0938,371.6406 576.5156,371.2031 Q576.7813,370.9375 576.9297,370.8594 Q577.0781,370.7813 577.2813,370.7813 Q577.6094,370.7813 577.8672,371.0391 Q578.125,371.2969 578.125,371.6406 Q578.125,371.9844 577.7813,372.3906 Q577.2813,372.9688 576.4844,373.2969 Q575.4063,373.75 574.1094,373.75 Q572.5938,373.75 571.3906,373.125 Q570.4063,372.625 569.7188,371.5547 Q569.0313,370.4844 569.0313,369.2031 L569.0313,368.0469 Q569.0313,366.7188 569.6484,365.5703 Q570.2656,364.4219 571.3594,363.8047 Q572.4531,363.1875 573.6875,363.1875 Q574.4219,363.1875 575.0703,363.3516 Q575.7188,363.5156 576.2656,363.875 Z "/><text fill="#000000" font-family="sans-serif" font-size="12" lengthAdjust="spacingAndGlyphs" textLength="250" x="587.5" y="372.9102">Architecture Description (Model view Analysis)</text><line style="stroke: #A80036; stroke-width: 1.5;" x1="559.5" x2="839.5" y1="384" y2="384"/><line style="stroke: #A80036; stroke-width: 1.5;" x1="559.5" x2="839.5" y1="392" y2="392"/><!--class Subsystem--><rect fill="#008000" filter="url(#fxl015qvx8zhj)" height="48" id="Subsystem" style="stroke: #A80036; stroke-width: 1.5;" width="142" x="875.5" y="352"/><rect fill="#008000" height="32" style="stroke: #A80036; stroke-width: 1.5;" width="142" x="875.5" y="352"/><ellipse cx="890.5" cy="368" fill="#ADD1B2" rx="11" ry="11" style="stroke: #A80036; stroke-width: 1.0;"/><path d="M893.2656,363.875 Q893.4219,363.6563 893.6094,363.5469 Q893.7969,363.4375 894.0156,363.4375 Q894.3906,363.4375 894.625,363.6953 Q894.8594,363.9531 894.8594,364.5625 L894.8594,366.0156 Q894.8594,366.625 894.625,366.8906 Q894.3906,367.1563 894.0156,367.1563 Q893.6719,367.1563 893.4688,366.9531 Q893.2656,366.7656 893.1563,366.25 Q893.1094,365.8906 892.9219,365.7031 Q892.5938,365.3281 891.9844,365.1094 Q891.375,364.8906 890.75,364.8906 Q889.9844,364.8906 889.3516,365.2188 Q888.7188,365.5469 888.2266,366.2969 Q887.7344,367.0469 887.7344,368.0781 L887.7344,369.1719 Q887.7344,370.4063 888.625,371.2266 Q889.5156,372.0469 891.1094,372.0469 Q892.0469,372.0469 892.7031,371.7969 Q893.0938,371.6406 893.5156,371.2031 Q893.7813,370.9375 893.9297,370.8594 Q894.0781,370.7813 894.2813,370.7813 Q894.6094,370.7813 894.8672,371.0391 Q895.125,371.2969 895.125,371.6406 Q895.125,371.9844 894.7813,372.3906 Q894.2813,372.9688 893.4844,373.2969 Q892.4063,373.75 891.1094,373.75 Q889.5938,373.75 888.3906,373.125 Q887.4063,372.625 886.7188,371.5547 Q886.0313,370.4844 886.0313,369.2031 L886.0313,368.0469 Q886.0313,366.7188 886.6484,365.5703 Q887.2656,364.4219 888.3594,363.8047 Q889.4531,363.1875 890.6875,363.1875 Q891.4219,363.1875 892.0703,363.3516 Q892.7188,363.5156 893.2656,363.875 Z "/><text fill="#000000" font-family="sans-serif" font-size="12" lengthAdjust="spacingAndGlyphs" textLength="110" x="904.5" y="372.9102">Subsystem (outline)</text><line style="stroke: #A80036; stroke-width: 1.5;" x1="876.5" x2="1016.5" y1="384" y2="384"/><line style="stroke: #A80036; stroke-width: 1.5;" x1="876.5" x2="1016.5" y1="392" y2="392"/><!--class Interface--><rect fill="#008000" filter="url(#fxl015qvx8zhj)" height="48" id="Interface" style="stroke: #A80036; stroke-width: 1.5;" width="127" x="1053" y="352"/><rect fill="#008000" height="32" style="stroke: #A80036; stroke-width: 1.5;" width="127" x="1053" y="352"/><ellipse cx="1068" cy="368" fill="#ADD1B2" rx="11" ry="11" style="stroke: #A80036; stroke-width: 1.0;"/><path d="M1070.7656,363.875 Q1070.9219,363.6563 1071.1094,363.5469 Q1071.2969,363.4375 1071.5156,363.4375 Q1071.8906,363.4375 1072.125,363.6953 Q1072.3594,363.9531 1072.3594,364.5625 L1072.3594,366.0156 Q1072.3594,366.625 1072.125,366.8906 Q1071.8906,367.1563 1071.5156,367.1563 Q1071.1719,367.1563 1070.9688,366.9531 Q1070.7656,366.7656 1070.6563,366.25 Q1070.6094,365.8906 1070.4219,365.7031 Q1070.0938,365.3281 1069.4844,365.1094 Q1068.875,364.8906 1068.25,364.8906 Q1067.4844,364.8906 1066.8516,365.2188 Q1066.2188,365.5469 1065.7266,366.2969 Q1065.2344,367.0469 1065.2344,368.0781 L1065.2344,369.1719 Q1065.2344,370.4063 1066.125,371.2266 Q1067.0156,372.0469 1068.6094,372.0469 Q1069.5469,372.0469 1070.2031,371.7969 Q1070.5938,371.6406 1071.0156,371.2031 Q1071.2813,370.9375 1071.4297,370.8594 Q1071.5781,370.7813 1071.7813,370.7813 Q1072.1094,370.7813 1072.3672,371.0391 Q1072.625,371.2969 1072.625,371.6406 Q1072.625,371.9844 1072.2813,372.3906 Q1071.7813,372.9688 1070.9844,373.2969 Q1069.9063,373.75 1068.6094,373.75 Q1067.0938,373.75 1065.8906,373.125 Q1064.9063,372.625 1064.2188,371.5547 Q1063.5313,370.4844 1063.5313,369.2031 L1063.5313,368.0469 Q1063.5313,366.7188 1064.1484,365.5703 Q1064.7656,364.4219 1065.8594,363.8047 Q1066.9531,363.1875 1068.1875,363.1875 Q1068.9219,363.1875 1069.5703,363.3516 Q1070.2188,363.5156 1070.7656,363.875 Z "/><text fill="#000000" font-family="sans-serif" font-size="12" lengthAdjust="spacingAndGlyphs" textLength="95" x="1082" y="372.9102">Interface (outline)</text><line style="stroke: #A80036; stroke-width: 1.5;" x1="1054" x2="1179" y1="384" y2="384"/><line style="stroke: #A80036; stroke-width: 1.5;" x1="1054" x2="1179" y1="392" y2="392"/><!--class DesignClass--><rect fill="#008000" filter="url(#fxl015qvx8zhj)" height="48" id="DesignClass" style="stroke: #A80036; stroke-width: 1.5;" width="153" x="1215" y="352"/><rect fill="#008000" height="32" style="stroke: #A80036; stroke-width: 1.5;" width="153" x="1215" y="352"/><ellipse cx="1230" cy="368" fill="#ADD1B2" rx="11" ry="11" style="stroke: #A80036; stroke-width: 1.0;"/><path d="M1232.7656,363.875 Q1232.9219,363.6563 1233.1094,363.5469 Q1233.2969,363.4375 1233.5156,363.4375 Q1233.8906,363.4375 1234.125,363.6953 Q1234.3594,363.9531 1234.3594,364.5625 L1234.3594,366.0156 Q1234.3594,366.625 1234.125,366.8906 Q1233.8906,367.1563 1233.5156,367.1563 Q1233.1719,367.1563 1232.9688,366.9531 Q1232.7656,366.7656 1232.6563,366.25 Q1232.6094,365.8906 1232.4219,365.7031 Q1232.0938,365.3281 1231.4844,365.1094 Q1230.875,364.8906 1230.25,364.8906 Q1229.4844,364.8906 1228.8516,365.2188 Q1228.2188,365.5469 1227.7266,366.2969 Q1227.2344,367.0469 1227.2344,368.0781 L1227.2344,369.1719 Q1227.2344,370.4063 1228.125,371.2266 Q1229.0156,372.0469 1230.6094,372.0469 Q1231.5469,372.0469 1232.2031,371.7969 Q1232.5938,371.6406 1233.0156,371.2031 Q1233.2813,370.9375 1233.4297,370.8594 Q1233.5781,370.7813 1233.7813,370.7813 Q1234.1094,370.7813 1234.3672,371.0391 Q1234.625,371.2969 1234.625,371.6406 Q1234.625,371.9844 1234.2813,372.3906 Q1233.7813,372.9688 1232.9844,373.2969 Q1231.9063,373.75 1230.6094,373.75 Q1229.0938,373.75 1227.8906,373.125 Q1226.9063,372.625 1226.2188,371.5547 Q1225.5313,370.4844 1225.5313,369.2031 L1225.5313,368.0469 Q1225.5313,366.7188 1226.1484,365.5703 Q1226.7656,364.4219 1227.8594,363.8047 Q1228.9531,363.1875 1230.1875,363.1875 Q1230.9219,363.1875 1231.5703,363.3516 Q1232.2188,363.5156 1232.7656,363.875 Z "/><text fill="#000000" font-family="sans-serif" font-size="12" lengthAdjust="spacingAndGlyphs" textLength="121" x="1244" y="372.9102">Design class (outline)</text><line style="stroke: #A80036; stroke-width: 1.5;" x1="1216" x2="1367" y1="384" y2="384"/><line style="stroke: #A80036; stroke-width: 1.5;" x1="1216" x2="1367" y1="392" y2="392"/><!--class DeploymentModel--><rect fill="#008000" filter="url(#fxl015qvx8zhj)" height="48" id="DeploymentModel" style="stroke: #A80036; stroke-width: 1.5;" width="182" x="1403.5" y="352"/><rect fill="#008000" height="32" style="stroke: #A80036; stroke-width: 1.5;" width="182" x="1403.5" y="352"/><ellipse cx="1418.5" cy="368" fill="#ADD1B2" rx="11" ry="11" style="stroke: #A80036; stroke-width: 1.0;"/><path d="M1421.2656,363.875 Q1421.4219,363.6563 1421.6094,363.5469 Q1421.7969,363.4375 1422.0156,363.4375 Q1422.3906,363.4375 1422.625,363.6953 Q1422.8594,363.9531 1422.8594,364.5625 L1422.8594,366.0156 Q1422.8594,366.625 1422.625,366.8906 Q1422.3906,367.1563 1422.0156,367.1563 Q1421.6719,367.1563 1421.4688,366.9531 Q1421.2656,366.7656 1421.1563,366.25 Q1421.1094,365.8906 1420.9219,365.7031 Q1420.5938,365.3281 1419.9844,365.1094 Q1419.375,364.8906 1418.75,364.8906 Q1417.9844,364.8906 1417.3516,365.2188 Q1416.7188,365.5469 1416.2266,366.2969 Q1415.7344,367.0469 1415.7344,368.0781 L1415.7344,369.1719 Q1415.7344,370.4063 1416.625,371.2266 Q1417.5156,372.0469 1419.1094,372.0469 Q1420.0469,372.0469 1420.7031,371.7969 Q1421.0938,371.6406 1421.5156,371.2031 Q1421.7813,370.9375 1421.9297,370.8594 Q1422.0781,370.7813 1422.2813,370.7813 Q1422.6094,370.7813 1422.8672,371.0391 Q1423.125,371.2969 1423.125,371.6406 Q1423.125,371.9844 1422.7813,372.3906 Q1422.2813,372.9688 1421.4844,373.2969 Q1420.4063,373.75 1419.1094,373.75 Q1417.5938,373.75 1416.3906,373.125 Q1415.4063,372.625 1414.7188,371.5547 Q1414.0313,370.4844 1414.0313,369.2031 L1414.0313,368.0469 Q1414.0313,366.7188 1414.6484,365.5703 Q1415.2656,364.4219 1416.3594,363.8047 Q1417.4531,363.1875 1418.6875,363.1875 Q1419.4219,363.1875 1420.0703,363.3516 Q1420.7188,363.5156 1421.2656,363.875 Z "/><text fill="#000000" font-family="sans-serif" font-size="12" lengthAdjust="spacingAndGlyphs" textLength="150" x="1432.5" y="372.9102">Deployment Model (outline)</text><line style="stroke: #A80036; stroke-width: 1.5;" x1="1404.5" x2="1584.5" y1="384" y2="384"/><line style="stroke: #A80036; stroke-width: 1.5;" x1="1404.5" x2="1584.5" y1="392" y2="392"/><!--class ArchitectureDescription--><rect fill="#008000" filter="url(#fxl015qvx8zhj)" height="48" id="ArchitectureDescription" style="stroke: #A80036; stroke-width: 1.5;" width="287" x="1621" y="352"/><rect fill="#008000" height="32" style="stroke: #A80036; stroke-width: 1.5;" width="287" x="1621" y="352"/><ellipse cx="1636" cy="368" fill="#ADD1B2" rx="11" ry="11" style="stroke: #A80036; stroke-width: 1.0;"/><path d="M1638.7656,363.875 Q1638.9219,363.6563 1639.1094,363.5469 Q1639.2969,363.4375 1639.5156,363.4375 Q1639.8906,363.4375 1640.125,363.6953 Q1640.3594,363.9531 1640.3594,364.5625 L1640.3594,366.0156 Q1640.3594,366.625 1640.125,366.8906 Q1639.8906,367.1563 1639.5156,367.1563 Q1639.1719,367.1563 1638.9688,366.9531 Q1638.7656,366.7656 1638.6563,366.25 Q1638.6094,365.8906 1638.4219,365.7031 Q1638.0938,365.3281 1637.4844,365.1094 Q1636.875,364.8906 1636.25,364.8906 Q1635.4844,364.8906 1634.8516,365.2188 Q1634.2188,365.5469 1633.7266,366.2969 Q1633.2344,367.0469 1633.2344,368.0781 L1633.2344,369.1719 Q1633.2344,370.4063 1634.125,371.2266 Q1635.0156,372.0469 1636.6094,372.0469 Q1637.5469,372.0469 1638.2031,371.7969 Q1638.5938,371.6406 1639.0156,371.2031 Q1639.2813,370.9375 1639.4297,370.8594 Q1639.5781,370.7813 1639.7813,370.7813 Q1640.1094,370.7813 1640.3672,371.0391 Q1640.625,371.2969 1640.625,371.6406 Q1640.625,371.9844 1640.2813,372.3906 Q1639.7813,372.9688 1638.9844,373.2969 Q1637.9063,373.75 1636.6094,373.75 Q1635.0938,373.75 1633.8906,373.125 Q1632.9063,372.625 1632.2188,371.5547 Q1631.5313,370.4844 1631.5313,369.2031 L1631.5313,368.0469 Q1631.5313,366.7188 1632.1484,365.5703 Q1632.7656,364.4219 1633.8594,363.8047 Q1634.9531,363.1875 1636.1875,363.1875 Q1636.9219,363.1875 1637.5703,363.3516 Q1638.2188,363.5156 1638.7656,363.875 Z "/><text fill="#000000" font-family="sans-serif" font-size="12" lengthAdjust="spacingAndGlyphs" textLength="255" x="1650" y="372.9102">Architecture Description (Model view of design)</text><line style="stroke: #A80036; stroke-width: 1.5;" x1="1622" x2="1907" y1="384" y2="384"/><line style="stroke: #A80036; stroke-width: 1.5;" x1="1622" x2="1907" y1="392" y2="392"/><!--class DesignRole--><rect fill="#0000FF" filter="url(#fxl015qvx8zhj)" height="48" id="DesignRole" style="stroke: #A80036; stroke-width: 1.5;" width="98" x="1509.5" y="226"/><rect fill="#0000FF" height="32" style="stroke: #A80036; stroke-width: 1.5;" width="98" x="1509.5" y="226"/><ellipse cx="1524.5" cy="242" fill="#ADD1B2" rx="11" ry="11" style="stroke: #A80036; stroke-width: 1.0;"/><path d="M1527.2656,237.875 Q1527.4219,237.6563 1527.6094,237.5469 Q1527.7969,237.4375 1528.0156,237.4375 Q1528.3906,237.4375 1528.625,237.6953 Q1528.8594,237.9531 1528.8594,238.5625 L1528.8594,240.0156 Q1528.8594,240.625 1528.625,240.8906 Q1528.3906,241.1563 1528.0156,241.1563 Q1527.6719,241.1563 1527.4688,240.9531 Q1527.2656,240.7656 1527.1563,240.25 Q1527.1094,239.8906 1526.9219,239.7031 Q1526.5938,239.3281 1525.9844,239.1094 Q1525.375,238.8906 1524.75,238.8906 Q1523.9844,238.8906 1523.3516,239.2188 Q1522.7188,239.5469 1522.2266,240.2969 Q1521.7344,241.0469 1521.7344,242.0781 L1521.7344,243.1719 Q1521.7344,244.4063 1522.625,245.2266 Q1523.5156,246.0469 1525.1094,246.0469 Q1526.0469,246.0469 1526.7031,245.7969 Q1527.0938,245.6406 1527.5156,245.2031 Q1527.7813,244.9375 1527.9297,244.8594 Q1528.0781,244.7813 1528.2813,244.7813 Q1528.6094,244.7813 1528.8672,245.0391 Q1529.125,245.2969 1529.125,245.6406 Q1529.125,245.9844 1528.7813,246.3906 Q1528.2813,246.9688 1527.4844,247.2969 Q1526.4063,247.75 1525.1094,247.75 Q1523.5938,247.75 1522.3906,247.125 Q1521.4063,246.625 1520.7188,245.5547 Q1520.0313,244.4844 1520.0313,243.2031 L1520.0313,242.0469 Q1520.0313,240.7188 1520.6484,239.5703 Q1521.2656,238.4219 1522.3594,237.8047 Q1523.4531,237.1875 1524.6875,237.1875 Q1525.4219,237.1875 1526.0703,237.3516 Q1526.7188,237.5156 1527.2656,237.875 Z "/><text fill="#000000" font-family="sans-serif" font-size="12" lengthAdjust="spacingAndGlyphs" textLength="66" x="1538.5" y="246.9102">DesignRole</text><line style="stroke: #A80036; stroke-width: 1.5;" x1="1510.5" x2="1606.5" y1="258" y2="258"/><line style="stroke: #A80036; stroke-width: 1.5;" x1="1510.5" x2="1606.5" y1="266" y2="266"/><!--class DesignArchitecture--><rect fill="#FF0000" filter="url(#fxl015qvx8zhj)" height="48" id="DesignArchitecture" style="stroke: #A80036; stroke-width: 1.5;" width="136" x="1048.5" y="226"/><rect fill="#FF0000" height="32" style="stroke: #A80036; stroke-width: 1.5;" width="136" x="1048.5" y="226"/><ellipse cx="1063.5" cy="242" fill="#ADD1B2" rx="11" ry="11" style="stroke: #A80036; stroke-width: 1.0;"/><path d="M1066.2656,237.875 Q1066.4219,237.6563 1066.6094,237.5469 Q1066.7969,237.4375 1067.0156,237.4375 Q1067.3906,237.4375 1067.625,237.6953 Q1067.8594,237.9531 1067.8594,238.5625 L1067.8594,240.0156 Q1067.8594,240.625 1067.625,240.8906 Q1067.3906,241.1563 1067.0156,241.1563 Q1066.6719,241.1563 1066.4688,240.9531 Q1066.2656,240.7656 1066.1563,240.25 Q1066.1094,239.8906 1065.9219,239.7031 Q1065.5938,239.3281 1064.9844,239.1094 Q1064.375,238.8906 1063.75,238.8906 Q1062.9844,238.8906 1062.3516,239.2188 Q1061.7188,239.5469 1061.2266,240.2969 Q1060.7344,241.0469 1060.7344,242.0781 L1060.7344,243.1719 Q1060.7344,244.4063 1061.625,245.2266 Q1062.5156,246.0469 1064.1094,246.0469 Q1065.0469,246.0469 1065.7031,245.7969 Q1066.0938,245.6406 1066.5156,245.2031 Q1066.7813,244.9375 1066.9297,244.8594 Q1067.0781,244.7813 1067.2813,244.7813 Q1067.6094,244.7813 1067.8672,245.0391 Q1068.125,245.2969 1068.125,245.6406 Q1068.125,245.9844 1067.7813,246.3906 Q1067.2813,246.9688 1066.4844,247.2969 Q1065.4063,247.75 1064.1094,247.75 Q1062.5938,247.75 1061.3906,247.125 Q1060.4063,246.625 1059.7188,245.5547 Q1059.0313,244.4844 1059.0313,243.2031 L1059.0313,242.0469 Q1059.0313,240.7188 1059.6484,239.5703 Q1060.2656,238.4219 1061.3594,237.8047 Q1062.4531,237.1875 1063.6875,237.1875 Q1064.4219,237.1875 1065.0703,237.3516 Q1065.7188,237.5156 1066.2656,237.875 Z "/><text fill="#000000" font-family="sans-serif" font-size="12" lengthAdjust="spacingAndGlyphs" textLength="104" x="1077.5" y="246.9102">DesignArchitecture</text><line style="stroke: #A80036; stroke-width: 1.5;" x1="1049.5" x2="1183.5" y1="258" y2="258"/><line style="stroke: #A80036; stroke-width: 1.5;" x1="1049.5" x2="1183.5" y1="266" y2="266"/><!--class Architecture--><rect fill="#0000FF" filter="url(#fxl015qvx8zhj)" height="48" id="Architecture" style="stroke: #A80036; stroke-width: 1.5;" width="96" x="1943.5" y="352"/><rect fill="#0000FF" height="32" style="stroke: #A80036; stroke-width: 1.5;" width="96" x="1943.5" y="352"/><ellipse cx="1958.5" cy="368" fill="#ADD1B2" rx="11" ry="11" style="stroke: #A80036; stroke-width: 1.0;"/><path d="M1961.2656,363.875 Q1961.4219,363.6563 1961.6094,363.5469 Q1961.7969,363.4375 1962.0156,363.4375 Q1962.3906,363.4375 1962.625,363.6953 Q1962.8594,363.9531 1962.8594,364.5625 L1962.8594,366.0156 Q1962.8594,366.625 1962.625,366.8906 Q1962.3906,367.1563 1962.0156,367.1563 Q1961.6719,367.1563 1961.4688,366.9531 Q1961.2656,366.7656 1961.1563,366.25 Q1961.1094,365.8906 1960.9219,365.7031 Q1960.5938,365.3281 1959.9844,365.1094 Q1959.375,364.8906 1958.75,364.8906 Q1957.9844,364.8906 1957.3516,365.2188 Q1956.7188,365.5469 1956.2266,366.2969 Q1955.7344,367.0469 1955.7344,368.0781 L1955.7344,369.1719 Q1955.7344,370.4063 1956.625,371.2266 Q1957.5156,372.0469 1959.1094,372.0469 Q1960.0469,372.0469 1960.7031,371.7969 Q1961.0938,371.6406 1961.5156,371.2031 Q1961.7813,370.9375 1961.9297,370.8594 Q1962.0781,370.7813 1962.2813,370.7813 Q1962.6094,370.7813 1962.8672,371.0391 Q1963.125,371.2969 1963.125,371.6406 Q1963.125,371.9844 1962.7813,372.3906 Q1962.2813,372.9688 1961.4844,373.2969 Q1960.4063,373.75 1959.1094,373.75 Q1957.5938,373.75 1956.3906,373.125 Q1955.4063,372.625 1954.7188,371.5547 Q1954.0313,370.4844 1954.0313,369.2031 L1954.0313,368.0469 Q1954.0313,366.7188 1954.6484,365.5703 Q1955.2656,364.4219 1956.3594,363.8047 Q1957.4531,363.1875 1958.6875,363.1875 Q1959.4219,363.1875 1960.0703,363.3516 Q1960.7188,363.5156 1961.2656,363.875 Z "/><text fill="#000000" font-family="sans-serif" font-size="12" lengthAdjust="spacingAndGlyphs" textLength="64" x="1972.5" y="372.9102">Architecture</text><line style="stroke: #A80036; stroke-width: 1.5;" x1="1944.5" x2="2038.5" y1="384" y2="384"/><line style="stroke: #A80036; stroke-width: 1.5;" x1="1944.5" x2="2038.5" y1="392" y2="392"/><!--link Activity to DesignActivity--><path d="M1476.21,74.127 C1468.36,88.602 1459.82,104.357 1453.06,116.828 " fill="none" id="Activity-DesignActivity" style="stroke: #A80036; stroke-width: 1.0;"/><polygon fill="none" points="1470.23,70.465,1485.91,56.217,1482.54,77.136,1470.23,70.465" style="stroke: #A80036; stroke-width: 1.0;"/><!--link Activity to Role--><path d="M1511.52,56.217 C1520.72,72.623 1533.09,94.692 1542.83,112.062 " fill="none" id="Activity-Role" style="stroke: #A80036; stroke-width: 1.0;"/><polygon fill="#A80036" points="1545.51,116.828,1544.6065,107.0207,1543.0687,112.4645,1537.6249,110.9267,1545.51,116.828" style="stroke: #A80036; stroke-width: 1.0;"/><!--link DesignActivity to DesignRole--><path d="M1466.1,165.217 C1484.66,182.043 1509.79,204.827 1529.15,222.389 " fill="none" id="DesignActivity-DesignRole" style="stroke: #A80036; stroke-width: 1.0;"/><polygon fill="#A80036" points="1532.95,225.828,1528.9674,216.8203,1529.2451,222.4703,1523.5951,222.7481,1532.95,225.828" style="stroke: #A80036; stroke-width: 1.0;"/><!--link DesignActivity to DesignArchitecture--><path d="M1367.79,166.014 C1313,184.106 1238.41,208.741 1184.74,226.463 " fill="none" id="DesignActivity-DesignArchitecture" style="stroke: #A80036; stroke-width: 1.0;"/><polygon fill="none" points="1365.81,159.294,1387,159.669,1370.2,172.588,1365.81,159.294" style="stroke: #A80036; stroke-width: 1.0;"/><!--link DesignArchitecture to ModelUseCases--><path d="M1048.33,253.565 C889.249,260.535 481.698,284.093 148.5,352 C144.429,352.8297 140.263,353.7631 136.076,354.7665 " fill="none" id="DesignArchitecture-ModelUseCases" style="stroke: #A80036; stroke-width: 1.0;"/><polygon fill="#A80036" points="131.154,355.9745,140.8484,357.712,136.0096,354.7817,138.9399,349.9429,131.154,355.9745" style="stroke: #A80036; stroke-width: 1.0;"/><text fill="#000000" font-family="sans-serif" font-size="13" lengthAdjust="spacingAndGlyphs" textLength="10" x="440.5" y="318.4951">in</text><!--link DesignArchitecture to RequirementsSupplementary--><path d="M1048.49,258.414 C962.282,267.999 809.155,285.65 678.5,304 C544.783,322.7805 511.395,328.0881 378.5,352 C374.323,352.7515 370.064,353.5332 365.764,354.335 " fill="none" id="DesignArchitecture-RequirementsSupplementary" style="stroke: #A80036; stroke-width: 1.0;"/><polygon fill="#A80036" points="360.699,355.285,370.282,357.5579,365.6134,354.3636,368.8077,349.6949,360.699,355.285" style="stroke: #A80036; stroke-width: 1.0;"/><text fill="#000000" font-family="sans-serif" font-size="13" lengthAdjust="spacingAndGlyphs" textLength="10" x="679.5" y="318.4951">in</text><!--link DesignArchitecture to ModelAnalysis--><path d="M1048.21,260.642 C939.898,276.459 722.346,310.3559 540.5,352 C536.403,352.9382 532.205,353.9557 527.98,355.023 " fill="none" id="DesignArchitecture-ModelAnalysis" style="stroke: #A80036; stroke-width: 1.0;"/><polygon fill="#A80036" points="523.012,356.2969,532.7233,357.937,527.8554,355.0554,530.737,350.1875,523.012,356.2969" style="stroke: #A80036; stroke-width: 1.0;"/><text fill="#000000" font-family="sans-serif" font-size="13" lengthAdjust="spacingAndGlyphs" textLength="10" x="778.5" y="318.4951">in</text><!--link DesignArchitecture to ArchitectureDescriptionX--><path d="M1048.11,271.337 C975.306,292.986 860.086,327.2478 782.227,350.4001 " fill="none" id="DesignArchitecture-ArchitectureDescriptionX" style="stroke: #A80036; stroke-width: 1.0;"/><polygon fill="#A80036" points="777.153,351.9088,786.9199,353.1765,781.9454,350.4831,784.6388,345.5086,777.153,351.9088" style="stroke: #A80036; stroke-width: 1.0;"/><text fill="#000000" font-family="sans-serif" font-size="13" lengthAdjust="spacingAndGlyphs" textLength="10" x="934.5" y="318.4951">in</text><!--link DesignArchitecture to Subsystem--><path d="M1084.92,274.033 C1055.91,295.194 1012.94,326.5411 982.58,348.6827 " fill="none" id="DesignArchitecture-Subsystem" style="stroke: #A80036; stroke-width: 1.0;"/><polygon fill="#A80036" points="978.196,351.8804,987.8242,349.8075,982.2353,348.9335,983.1093,343.3446,978.196,351.8804" style="stroke: #A80036; stroke-width: 1.0;"/><text fill="#000000" font-family="sans-serif" font-size="13" lengthAdjust="spacingAndGlyphs" textLength="18" x="1043.5" y="318.4951">out</text><!--link DesignArchitecture to Interface--><path d="M1116.5,274.033 C1116.5,294.522 1116.5,324.5607 1116.5,346.5464 " fill="none" id="DesignArchitecture-Interface" style="stroke: #A80036; stroke-width: 1.0;"/><polygon fill="#A80036" points="1116.5,351.6697,1120.5,342.6697,1116.5,346.6697,1112.5,342.6697,1116.5,351.6697" style="stroke: #A80036; stroke-width: 1.0;"/><text fill="#000000" font-family="sans-serif" font-size="13" lengthAdjust="spacingAndGlyphs" textLength="18" x="1117.5" y="318.4951">out</text><!--link DesignArchitecture to DesignClass--><path d="M1149.01,274.033 C1178.99,295.281 1223.47,326.7982 1254.74,348.9545 " fill="none" id="DesignArchitecture-DesignClass" style="stroke: #A80036; stroke-width: 1.0;"/><polygon fill="#A80036" points="1258.87,351.8804,1253.8322,343.4175,1254.788,348.993,1249.2124,349.9488,1258.87,351.8804" style="stroke: #A80036; stroke-width: 1.0;"/><text fill="#000000" font-family="sans-serif" font-size="13" lengthAdjust="spacingAndGlyphs" textLength="18" x="1215.5" y="318.4951">out</text><!--link DesignArchitecture to DeploymentModel--><path d="M1184.52,273.312 C1250.63,295 1350.81,327.8646 1419.27,350.323 " fill="none" id="DesignArchitecture-DeploymentModel" style="stroke: #A80036; stroke-width: 1.0;"/><polygon fill="#A80036" points="1424.15,351.9217,1416.8435,345.3175,1419.3987,350.3644,1414.3518,352.9196,1424.15,351.9217" style="stroke: #A80036; stroke-width: 1.0;"/><text fill="#000000" font-family="sans-serif" font-size="13" lengthAdjust="spacingAndGlyphs" textLength="18" x="1329.5" y="318.4951">out</text><!--link DesignArchitecture to ArchitectureDescription--><path d="M1184.62,264.036 C1292.26,284.633 1503.33,325.0231 1638.95,350.9753 " fill="none" id="DesignArchitecture-ArchitectureDescription" style="stroke: #A80036; stroke-width: 1.0;"/><polygon fill="#A80036" points="1644.15,351.9691,1636.0499,346.3666,1639.2371,351.0401,1634.5635,354.2273,1644.15,351.9691" style="stroke: #A80036; stroke-width: 1.0;"/><text fill="#000000" font-family="sans-serif" font-size="13" lengthAdjust="spacingAndGlyphs" textLength="18" x="1480.5" y="318.4951">out</text><!--link DesignArchitecture to Architecture--><path d="M1184.74,254.648 C1325.08,263.212 1655.54,288.858 1925.5,352 C1929.66,352.9733 1933.93,354.1141 1938.19,355.3579 " fill="none" id="DesignArchitecture-Architecture" style="stroke: #A80036; stroke-width: 1.0;"/><polygon fill="#A80036" points="1943.18,356.8614,1935.717,350.4346,1938.3927,355.4187,1933.4086,358.0943,1943.18,356.8614" style="stroke: #A80036; stroke-width: 1.0;"/><!--link Role to DesignRole--><path d="M1558.5,185.578 C1558.5,199.362 1558.5,214.057 1558.5,225.828 " fill="none" id="Role-DesignRole" style="stroke: #A80036; stroke-width: 1.0;"/><polygon fill="none" points="1551.5,185.217,1558.5,165.217,1565.5,185.217,1551.5,185.217" style="stroke: #A80036; stroke-width: 1.0;"/><!--link DesignRole to Architecture--><path d="M1627.79,251.016 C1699.87,253.411 1814.53,264.014 1904.5,304 C1929.8,315.2437 1953.8,335.8591 1970.16,351.99 " fill="none" id="DesignRole-Architecture" style="stroke: #A80036; stroke-width: 1.0;"/><polygon fill="none" points="1627.58,258.013,1607.76,250.527,1627.92,244.018,1627.58,258.013" style="stroke: #A80036; stroke-width: 1.0;"/><!--
@startuml

class Activity #red
Activity <|- - DesignActivity
Activity - -> Role

class ModelUseCases #green
class RequirementsSupplementary #green
class "Model of Analysis" as ModelAnalysis #green
class "Architecture Description (Model view Analysis)" as ArchitectureDescriptionX  #green
class "Subsystem (outline)" as Subsystem #green
class "Interface (outline)" as Interface  #green
class "Design class (outline)" as DesignClass #green
class "Deployment Model (outline)" as DeploymentModel #green
class "Architecture Description (Model view of design)" as ArchitectureDescription  #green

class DesignActivity #red
DesignActivity - -> DesignRole

class DesignArchitecture #red
DesignActivity <|- - DesignArchitecture

DesignArchitecture - -> ModelUseCases :in
DesignArchitecture - -> RequirementsSupplementary :in
DesignArchitecture - -> ModelAnalysis :in
DesignArchitecture - -> ArchitectureDescriptionX :in
DesignArchitecture - -> Subsystem :out
DesignArchitecture - -> Interface :out
DesignArchitecture - -> DesignClass :out
DesignArchitecture - -> DeploymentModel :out
DesignArchitecture - -> ArchitectureDescription :out

DesignArchitecture - -> Architecture

class Role #blue
class DesignRole #blue
class Architecture #blue

Role <|- - DesignRole
DesignRole <|- - Architecture
@enduml

PlantUML version 1.2019.05(Sat Apr 20 18:45:36 CEST 2019)
(GPL source distribution)
Java Runtime: OpenJDK Runtime Environment
JVM: OpenJDK 64-Bit Server VM
Java Version: 1.8.0_222-b10
Operating System: Windows 10
OS Version: 10.0
Default Encoding: windows-1252
Language: es
Country: ES
--></g></svg>