<?xml version="1.0" encoding="UTF-8" standalone="no"?><svg xmlns="http://www.w3.org/2000/svg" xmlns:xlink="http://www.w3.org/1999/xlink" contentScriptType="application/ecmascript" contentStyleType="text/css" height="433px" preserveAspectRatio="none" style="width:1824px;height:433px;" version="1.1" viewBox="0 0 1824 433" width="1824px" zoomAndPan="magnify"><defs><filter height="300%" id="f1u2gz1r5g35sg" width="300%" x="-1" y="-1"><feGaussianBlur result="blurOut" stdDeviation="2.0"/><feColorMatrix in="blurOut" result="blurOut2" type="matrix" values="0 0 0 0 0 0 0 0 0 0 0 0 0 0 0 0 0 0 .4 0"/><feOffset dx="4.0" dy="4.0" in="blurOut2" result="blurOut3"/><feBlend in="SourceGraphic" in2="blurOut3" mode="normal"/></filter></defs><g><text fill="#000000" font-family="sans-serif" font-size="18" lengthAdjust="spacingAndGlyphs" textLength="140" x="846" y="18.6855">Design Use Case</text><!--class Activity--><rect fill="#FF0000" filter="url(#f1u2gz1r5g35sg)" height="48" id="Activity" style="stroke: #A80036; stroke-width: 1.5;" width="67" x="1299" y="30.6406"/><rect fill="#FF0000" height="32" style="stroke: #A80036; stroke-width: 1.5;" width="67" x="1299" y="30.6406"/><ellipse cx="1314" cy="46.6406" fill="#ADD1B2" rx="11" ry="11" style="stroke: #A80036; stroke-width: 1.0;"/><path d="M1316.7656,42.5156 Q1316.9219,42.2969 1317.1094,42.1875 Q1317.2969,42.0781 1317.5156,42.0781 Q1317.8906,42.0781 1318.125,42.3359 Q1318.3594,42.5938 1318.3594,43.2031 L1318.3594,44.6563 Q1318.3594,45.2656 1318.125,45.5313 Q1317.8906,45.7969 1317.5156,45.7969 Q1317.1719,45.7969 1316.9688,45.5938 Q1316.7656,45.4063 1316.6563,44.8906 Q1316.6094,44.5313 1316.4219,44.3438 Q1316.0938,43.9688 1315.4844,43.75 Q1314.875,43.5313 1314.25,43.5313 Q1313.4844,43.5313 1312.8516,43.8594 Q1312.2188,44.1875 1311.7266,44.9375 Q1311.2344,45.6875 1311.2344,46.7188 L1311.2344,47.8125 Q1311.2344,49.0469 1312.125,49.8672 Q1313.0156,50.6875 1314.6094,50.6875 Q1315.5469,50.6875 1316.2031,50.4375 Q1316.5938,50.2813 1317.0156,49.8438 Q1317.2813,49.5781 1317.4297,49.5 Q1317.5781,49.4219 1317.7813,49.4219 Q1318.1094,49.4219 1318.3672,49.6797 Q1318.625,49.9375 1318.625,50.2813 Q1318.625,50.625 1318.2813,51.0313 Q1317.7813,51.6094 1316.9844,51.9375 Q1315.9063,52.3906 1314.6094,52.3906 Q1313.0938,52.3906 1311.8906,51.7656 Q1310.9063,51.2656 1310.2188,50.1953 Q1309.5313,49.125 1309.5313,47.8438 L1309.5313,46.6875 Q1309.5313,45.3594 1310.1484,44.2109 Q1310.7656,43.0625 1311.8594,42.4453 Q1312.9531,41.8281 1314.1875,41.8281 Q1314.9219,41.8281 1315.5703,41.9922 Q1316.2188,42.1563 1316.7656,42.5156 Z "/><text fill="#000000" font-family="sans-serif" font-size="12" lengthAdjust="spacingAndGlyphs" textLength="35" x="1328" y="51.5508">Activity</text><line style="stroke: #A80036; stroke-width: 1.5;" x1="1300" x2="1365" y1="62.6406" y2="62.6406"/><line style="stroke: #A80036; stroke-width: 1.5;" x1="1300" x2="1365" y1="70.6406" y2="70.6406"/><!--class DesignActivity--><rect fill="#FF0000" filter="url(#f1u2gz1r5g35sg)" height="48" id="DesignActivity" style="stroke: #A80036; stroke-width: 1.5;" width="107" x="1221" y="139.6406"/><rect fill="#FF0000" height="32" style="stroke: #A80036; stroke-width: 1.5;" width="107" x="1221" y="139.6406"/><ellipse cx="1236" cy="155.6406" fill="#ADD1B2" rx="11" ry="11" style="stroke: #A80036; stroke-width: 1.0;"/><path d="M1238.7656,151.5156 Q1238.9219,151.2969 1239.1094,151.1875 Q1239.2969,151.0781 1239.5156,151.0781 Q1239.8906,151.0781 1240.125,151.3359 Q1240.3594,151.5938 1240.3594,152.2031 L1240.3594,153.6563 Q1240.3594,154.2656 1240.125,154.5313 Q1239.8906,154.7969 1239.5156,154.7969 Q1239.1719,154.7969 1238.9688,154.5938 Q1238.7656,154.4063 1238.6563,153.8906 Q1238.6094,153.5313 1238.4219,153.3438 Q1238.0938,152.9688 1237.4844,152.75 Q1236.875,152.5313 1236.25,152.5313 Q1235.4844,152.5313 1234.8516,152.8594 Q1234.2188,153.1875 1233.7266,153.9375 Q1233.2344,154.6875 1233.2344,155.7188 L1233.2344,156.8125 Q1233.2344,158.0469 1234.125,158.8672 Q1235.0156,159.6875 1236.6094,159.6875 Q1237.5469,159.6875 1238.2031,159.4375 Q1238.5938,159.2813 1239.0156,158.8438 Q1239.2813,158.5781 1239.4297,158.5 Q1239.5781,158.4219 1239.7813,158.4219 Q1240.1094,158.4219 1240.3672,158.6797 Q1240.625,158.9375 1240.625,159.2813 Q1240.625,159.625 1240.2813,160.0313 Q1239.7813,160.6094 1238.9844,160.9375 Q1237.9063,161.3906 1236.6094,161.3906 Q1235.0938,161.3906 1233.8906,160.7656 Q1232.9063,160.2656 1232.2188,159.1953 Q1231.5313,158.125 1231.5313,156.8438 L1231.5313,155.6875 Q1231.5313,154.3594 1232.1484,153.2109 Q1232.7656,152.0625 1233.8594,151.4453 Q1234.9531,150.8281 1236.1875,150.8281 Q1236.9219,150.8281 1237.5703,150.9922 Q1238.2188,151.1563 1238.7656,151.5156 Z "/><text fill="#000000" font-family="sans-serif" font-size="12" lengthAdjust="spacingAndGlyphs" textLength="75" x="1250" y="160.5508">DesignActivity</text><line style="stroke: #A80036; stroke-width: 1.5;" x1="1222" x2="1327" y1="171.6406" y2="171.6406"/><line style="stroke: #A80036; stroke-width: 1.5;" x1="1222" x2="1327" y1="179.6406" y2="179.6406"/><!--class Role--><rect fill="#0000FF" filter="url(#f1u2gz1r5g35sg)" height="48" id="Role" style="stroke: #A80036; stroke-width: 1.5;" width="58" x="1363.5" y="139.6406"/><rect fill="#0000FF" height="32" style="stroke: #A80036; stroke-width: 1.5;" width="58" x="1363.5" y="139.6406"/><ellipse cx="1378.5" cy="155.6406" fill="#ADD1B2" rx="11" ry="11" style="stroke: #A80036; stroke-width: 1.0;"/><path d="M1381.2656,151.5156 Q1381.4219,151.2969 1381.6094,151.1875 Q1381.7969,151.0781 1382.0156,151.0781 Q1382.3906,151.0781 1382.625,151.3359 Q1382.8594,151.5938 1382.8594,152.2031 L1382.8594,153.6563 Q1382.8594,154.2656 1382.625,154.5313 Q1382.3906,154.7969 1382.0156,154.7969 Q1381.6719,154.7969 1381.4688,154.5938 Q1381.2656,154.4063 1381.1563,153.8906 Q1381.1094,153.5313 1380.9219,153.3438 Q1380.5938,152.9688 1379.9844,152.75 Q1379.375,152.5313 1378.75,152.5313 Q1377.9844,152.5313 1377.3516,152.8594 Q1376.7188,153.1875 1376.2266,153.9375 Q1375.7344,154.6875 1375.7344,155.7188 L1375.7344,156.8125 Q1375.7344,158.0469 1376.625,158.8672 Q1377.5156,159.6875 1379.1094,159.6875 Q1380.0469,159.6875 1380.7031,159.4375 Q1381.0938,159.2813 1381.5156,158.8438 Q1381.7813,158.5781 1381.9297,158.5 Q1382.0781,158.4219 1382.2813,158.4219 Q1382.6094,158.4219 1382.8672,158.6797 Q1383.125,158.9375 1383.125,159.2813 Q1383.125,159.625 1382.7813,160.0313 Q1382.2813,160.6094 1381.4844,160.9375 Q1380.4063,161.3906 1379.1094,161.3906 Q1377.5938,161.3906 1376.3906,160.7656 Q1375.4063,160.2656 1374.7188,159.1953 Q1374.0313,158.125 1374.0313,156.8438 L1374.0313,155.6875 Q1374.0313,154.3594 1374.6484,153.2109 Q1375.2656,152.0625 1376.3594,151.4453 Q1377.4531,150.8281 1378.6875,150.8281 Q1379.4219,150.8281 1380.0703,150.9922 Q1380.7188,151.1563 1381.2656,151.5156 Z "/><text fill="#000000" font-family="sans-serif" font-size="12" lengthAdjust="spacingAndGlyphs" textLength="26" x="1392.5" y="160.5508">Role</text><line style="stroke: #A80036; stroke-width: 1.5;" x1="1364.5" x2="1420.5" y1="171.6406" y2="171.6406"/><line style="stroke: #A80036; stroke-width: 1.5;" x1="1364.5" x2="1420.5" y1="179.6406" y2="179.6406"/><!--class ModelUseCases--><rect fill="#008000" filter="url(#f1u2gz1r5g35sg)" height="48" id="ModelUseCases" style="stroke: #A80036; stroke-width: 1.5;" width="141" x="6" y="374.6406"/><rect fill="#008000" height="32" style="stroke: #A80036; stroke-width: 1.5;" width="141" x="6" y="374.6406"/><ellipse cx="21" cy="390.6406" fill="#ADD1B2" rx="11" ry="11" style="stroke: #A80036; stroke-width: 1.0;"/><path d="M23.7656,386.5156 Q23.9219,386.2969 24.1094,386.1875 Q24.2969,386.0781 24.5156,386.0781 Q24.8906,386.0781 25.125,386.3359 Q25.3594,386.5938 25.3594,387.2031 L25.3594,388.6563 Q25.3594,389.2656 25.125,389.5313 Q24.8906,389.7969 24.5156,389.7969 Q24.1719,389.7969 23.9688,389.5938 Q23.7656,389.4063 23.6563,388.8906 Q23.6094,388.5313 23.4219,388.3438 Q23.0938,387.9688 22.4844,387.75 Q21.875,387.5313 21.25,387.5313 Q20.4844,387.5313 19.8516,387.8594 Q19.2188,388.1875 18.7266,388.9375 Q18.2344,389.6875 18.2344,390.7188 L18.2344,391.8125 Q18.2344,393.0469 19.125,393.8672 Q20.0156,394.6875 21.6094,394.6875 Q22.5469,394.6875 23.2031,394.4375 Q23.5938,394.2813 24.0156,393.8438 Q24.2813,393.5781 24.4297,393.5 Q24.5781,393.4219 24.7813,393.4219 Q25.1094,393.4219 25.3672,393.6797 Q25.625,393.9375 25.625,394.2813 Q25.625,394.625 25.2813,395.0313 Q24.7813,395.6094 23.9844,395.9375 Q22.9063,396.3906 21.6094,396.3906 Q20.0938,396.3906 18.8906,395.7656 Q17.9063,395.2656 17.2188,394.1953 Q16.5313,393.125 16.5313,391.8438 L16.5313,390.6875 Q16.5313,389.3594 17.1484,388.2109 Q17.7656,387.0625 18.8594,386.4453 Q19.9531,385.8281 21.1875,385.8281 Q21.9219,385.8281 22.5703,385.9922 Q23.2188,386.1563 23.7656,386.5156 Z "/><text fill="#000000" font-family="sans-serif" font-size="12" lengthAdjust="spacingAndGlyphs" textLength="109" x="35" y="395.5508">Model of Use cases</text><line style="stroke: #A80036; stroke-width: 1.5;" x1="7" x2="146" y1="406.6406" y2="406.6406"/><line style="stroke: #A80036; stroke-width: 1.5;" x1="7" x2="146" y1="414.6406" y2="414.6406"/><!--class RequirementsSupplementary--><rect fill="#008000" filter="url(#f1u2gz1r5g35sg)" height="48" id="RequirementsSupplementary" style="stroke: #A80036; stroke-width: 1.5;" width="197" x="182" y="374.6406"/><rect fill="#008000" height="32" style="stroke: #A80036; stroke-width: 1.5;" width="197" x="182" y="374.6406"/><ellipse cx="197" cy="390.6406" fill="#ADD1B2" rx="11" ry="11" style="stroke: #A80036; stroke-width: 1.0;"/><path d="M199.7656,386.5156 Q199.9219,386.2969 200.1094,386.1875 Q200.2969,386.0781 200.5156,386.0781 Q200.8906,386.0781 201.125,386.3359 Q201.3594,386.5938 201.3594,387.2031 L201.3594,388.6563 Q201.3594,389.2656 201.125,389.5313 Q200.8906,389.7969 200.5156,389.7969 Q200.1719,389.7969 199.9688,389.5938 Q199.7656,389.4063 199.6563,388.8906 Q199.6094,388.5313 199.4219,388.3438 Q199.0938,387.9688 198.4844,387.75 Q197.875,387.5313 197.25,387.5313 Q196.4844,387.5313 195.8516,387.8594 Q195.2188,388.1875 194.7266,388.9375 Q194.2344,389.6875 194.2344,390.7188 L194.2344,391.8125 Q194.2344,393.0469 195.125,393.8672 Q196.0156,394.6875 197.6094,394.6875 Q198.5469,394.6875 199.2031,394.4375 Q199.5938,394.2813 200.0156,393.8438 Q200.2813,393.5781 200.4297,393.5 Q200.5781,393.4219 200.7813,393.4219 Q201.1094,393.4219 201.3672,393.6797 Q201.625,393.9375 201.625,394.2813 Q201.625,394.625 201.2813,395.0313 Q200.7813,395.6094 199.9844,395.9375 Q198.9063,396.3906 197.6094,396.3906 Q196.0938,396.3906 194.8906,395.7656 Q193.9063,395.2656 193.2188,394.1953 Q192.5313,393.125 192.5313,391.8438 L192.5313,390.6875 Q192.5313,389.3594 193.1484,388.2109 Q193.7656,387.0625 194.8594,386.4453 Q195.9531,385.8281 197.1875,385.8281 Q197.9219,385.8281 198.5703,385.9922 Q199.2188,386.1563 199.7656,386.5156 Z "/><text fill="#000000" font-family="sans-serif" font-size="12" lengthAdjust="spacingAndGlyphs" textLength="165" x="211" y="395.5508">Requirements Supplementary</text><line style="stroke: #A80036; stroke-width: 1.5;" x1="183" x2="378" y1="406.6406" y2="406.6406"/><line style="stroke: #A80036; stroke-width: 1.5;" x1="183" x2="378" y1="414.6406" y2="414.6406"/><!--class AnalysisModel--><rect fill="#008000" filter="url(#f1u2gz1r5g35sg)" height="48" id="AnalysisModel" style="stroke: #A80036; stroke-width: 1.5;" width="114" x="414.5" y="374.6406"/><rect fill="#008000" height="32" style="stroke: #A80036; stroke-width: 1.5;" width="114" x="414.5" y="374.6406"/><ellipse cx="429.5" cy="390.6406" fill="#ADD1B2" rx="11" ry="11" style="stroke: #A80036; stroke-width: 1.0;"/><path d="M432.2656,386.5156 Q432.4219,386.2969 432.6094,386.1875 Q432.7969,386.0781 433.0156,386.0781 Q433.3906,386.0781 433.625,386.3359 Q433.8594,386.5938 433.8594,387.2031 L433.8594,388.6563 Q433.8594,389.2656 433.625,389.5313 Q433.3906,389.7969 433.0156,389.7969 Q432.6719,389.7969 432.4688,389.5938 Q432.2656,389.4063 432.1563,388.8906 Q432.1094,388.5313 431.9219,388.3438 Q431.5938,387.9688 430.9844,387.75 Q430.375,387.5313 429.75,387.5313 Q428.9844,387.5313 428.3516,387.8594 Q427.7188,388.1875 427.2266,388.9375 Q426.7344,389.6875 426.7344,390.7188 L426.7344,391.8125 Q426.7344,393.0469 427.625,393.8672 Q428.5156,394.6875 430.1094,394.6875 Q431.0469,394.6875 431.7031,394.4375 Q432.0938,394.2813 432.5156,393.8438 Q432.7813,393.5781 432.9297,393.5 Q433.0781,393.4219 433.2813,393.4219 Q433.6094,393.4219 433.8672,393.6797 Q434.125,393.9375 434.125,394.2813 Q434.125,394.625 433.7813,395.0313 Q433.2813,395.6094 432.4844,395.9375 Q431.4063,396.3906 430.1094,396.3906 Q428.5938,396.3906 427.3906,395.7656 Q426.4063,395.2656 425.7188,394.1953 Q425.0313,393.125 425.0313,391.8438 L425.0313,390.6875 Q425.0313,389.3594 425.6484,388.2109 Q426.2656,387.0625 427.3594,386.4453 Q428.4531,385.8281 429.6875,385.8281 Q430.4219,385.8281 431.0703,385.9922 Q431.7188,386.1563 432.2656,386.5156 Z "/><text fill="#000000" font-family="sans-serif" font-size="12" lengthAdjust="spacingAndGlyphs" textLength="82" x="443.5" y="395.5508">Analysis Model</text><line style="stroke: #A80036; stroke-width: 1.5;" x1="415.5" x2="527.5" y1="406.6406" y2="406.6406"/><line style="stroke: #A80036; stroke-width: 1.5;" x1="415.5" x2="527.5" y1="414.6406" y2="414.6406"/><!--class DesignModel--><rect fill="#008000" filter="url(#f1u2gz1r5g35sg)" height="48" id="DesignModel" style="stroke: #A80036; stroke-width: 1.5;" width="108" x="563.5" y="374.6406"/><rect fill="#008000" height="32" style="stroke: #A80036; stroke-width: 1.5;" width="108" x="563.5" y="374.6406"/><ellipse cx="578.5" cy="390.6406" fill="#ADD1B2" rx="11" ry="11" style="stroke: #A80036; stroke-width: 1.0;"/><path d="M581.2656,386.5156 Q581.4219,386.2969 581.6094,386.1875 Q581.7969,386.0781 582.0156,386.0781 Q582.3906,386.0781 582.625,386.3359 Q582.8594,386.5938 582.8594,387.2031 L582.8594,388.6563 Q582.8594,389.2656 582.625,389.5313 Q582.3906,389.7969 582.0156,389.7969 Q581.6719,389.7969 581.4688,389.5938 Q581.2656,389.4063 581.1563,388.8906 Q581.1094,388.5313 580.9219,388.3438 Q580.5938,387.9688 579.9844,387.75 Q579.375,387.5313 578.75,387.5313 Q577.9844,387.5313 577.3516,387.8594 Q576.7188,388.1875 576.2266,388.9375 Q575.7344,389.6875 575.7344,390.7188 L575.7344,391.8125 Q575.7344,393.0469 576.625,393.8672 Q577.5156,394.6875 579.1094,394.6875 Q580.0469,394.6875 580.7031,394.4375 Q581.0938,394.2813 581.5156,393.8438 Q581.7813,393.5781 581.9297,393.5 Q582.0781,393.4219 582.2813,393.4219 Q582.6094,393.4219 582.8672,393.6797 Q583.125,393.9375 583.125,394.2813 Q583.125,394.625 582.7813,395.0313 Q582.2813,395.6094 581.4844,395.9375 Q580.4063,396.3906 579.1094,396.3906 Q577.5938,396.3906 576.3906,395.7656 Q575.4063,395.2656 574.7188,394.1953 Q574.0313,393.125 574.0313,391.8438 L574.0313,390.6875 Q574.0313,389.3594 574.6484,388.2109 Q575.2656,387.0625 576.3594,386.4453 Q577.4531,385.8281 578.6875,385.8281 Q579.4219,385.8281 580.0703,385.9922 Q580.7188,386.1563 581.2656,386.5156 Z "/><text fill="#000000" font-family="sans-serif" font-size="12" lengthAdjust="spacingAndGlyphs" textLength="76" x="592.5" y="395.5508">Design Model</text><line style="stroke: #A80036; stroke-width: 1.5;" x1="564.5" x2="670.5" y1="406.6406" y2="406.6406"/><line style="stroke: #A80036; stroke-width: 1.5;" x1="564.5" x2="670.5" y1="414.6406" y2="414.6406"/><!--class DeploymentModel--><rect fill="#008000" filter="url(#f1u2gz1r5g35sg)" height="48" id="DeploymentModel" style="stroke: #A80036; stroke-width: 1.5;" width="134" x="706.5" y="374.6406"/><rect fill="#008000" height="32" style="stroke: #A80036; stroke-width: 1.5;" width="134" x="706.5" y="374.6406"/><ellipse cx="721.5" cy="390.6406" fill="#ADD1B2" rx="11" ry="11" style="stroke: #A80036; stroke-width: 1.0;"/><path d="M724.2656,386.5156 Q724.4219,386.2969 724.6094,386.1875 Q724.7969,386.0781 725.0156,386.0781 Q725.3906,386.0781 725.625,386.3359 Q725.8594,386.5938 725.8594,387.2031 L725.8594,388.6563 Q725.8594,389.2656 725.625,389.5313 Q725.3906,389.7969 725.0156,389.7969 Q724.6719,389.7969 724.4688,389.5938 Q724.2656,389.4063 724.1563,388.8906 Q724.1094,388.5313 723.9219,388.3438 Q723.5938,387.9688 722.9844,387.75 Q722.375,387.5313 721.75,387.5313 Q720.9844,387.5313 720.3516,387.8594 Q719.7188,388.1875 719.2266,388.9375 Q718.7344,389.6875 718.7344,390.7188 L718.7344,391.8125 Q718.7344,393.0469 719.625,393.8672 Q720.5156,394.6875 722.1094,394.6875 Q723.0469,394.6875 723.7031,394.4375 Q724.0938,394.2813 724.5156,393.8438 Q724.7813,393.5781 724.9297,393.5 Q725.0781,393.4219 725.2813,393.4219 Q725.6094,393.4219 725.8672,393.6797 Q726.125,393.9375 726.125,394.2813 Q726.125,394.625 725.7813,395.0313 Q725.2813,395.6094 724.4844,395.9375 Q723.4063,396.3906 722.1094,396.3906 Q720.5938,396.3906 719.3906,395.7656 Q718.4063,395.2656 717.7188,394.1953 Q717.0313,393.125 717.0313,391.8438 L717.0313,390.6875 Q717.0313,389.3594 717.6484,388.2109 Q718.2656,387.0625 719.3594,386.4453 Q720.4531,385.8281 721.6875,385.8281 Q722.4219,385.8281 723.0703,385.9922 Q723.7188,386.1563 724.2656,386.5156 Z "/><text fill="#000000" font-family="sans-serif" font-size="12" lengthAdjust="spacingAndGlyphs" textLength="102" x="735.5" y="395.5508">Deployment Model</text><line style="stroke: #A80036; stroke-width: 1.5;" x1="707.5" x2="839.5" y1="406.6406" y2="406.6406"/><line style="stroke: #A80036; stroke-width: 1.5;" x1="707.5" x2="839.5" y1="414.6406" y2="414.6406"/><!--class CompletionUseCase--><rect fill="#008000" filter="url(#f1u2gz1r5g35sg)" height="48" id="CompletionUseCase" style="stroke: #A80036; stroke-width: 1.5;" width="216" x="875.5" y="374.6406"/><rect fill="#008000" height="32" style="stroke: #A80036; stroke-width: 1.5;" width="216" x="875.5" y="374.6406"/><ellipse cx="890.5" cy="390.6406" fill="#ADD1B2" rx="11" ry="11" style="stroke: #A80036; stroke-width: 1.0;"/><path d="M893.2656,386.5156 Q893.4219,386.2969 893.6094,386.1875 Q893.7969,386.0781 894.0156,386.0781 Q894.3906,386.0781 894.625,386.3359 Q894.8594,386.5938 894.8594,387.2031 L894.8594,388.6563 Q894.8594,389.2656 894.625,389.5313 Q894.3906,389.7969 894.0156,389.7969 Q893.6719,389.7969 893.4688,389.5938 Q893.2656,389.4063 893.1563,388.8906 Q893.1094,388.5313 892.9219,388.3438 Q892.5938,387.9688 891.9844,387.75 Q891.375,387.5313 890.75,387.5313 Q889.9844,387.5313 889.3516,387.8594 Q888.7188,388.1875 888.2266,388.9375 Q887.7344,389.6875 887.7344,390.7188 L887.7344,391.8125 Q887.7344,393.0469 888.625,393.8672 Q889.5156,394.6875 891.1094,394.6875 Q892.0469,394.6875 892.7031,394.4375 Q893.0938,394.2813 893.5156,393.8438 Q893.7813,393.5781 893.9297,393.5 Q894.0781,393.4219 894.2813,393.4219 Q894.6094,393.4219 894.8672,393.6797 Q895.125,393.9375 895.125,394.2813 Q895.125,394.625 894.7813,395.0313 Q894.2813,395.6094 893.4844,395.9375 Q892.4063,396.3906 891.1094,396.3906 Q889.5938,396.3906 888.3906,395.7656 Q887.4063,395.2656 886.7188,394.1953 Q886.0313,393.125 886.0313,391.8438 L886.0313,390.6875 Q886.0313,389.3594 886.6484,388.2109 Q887.2656,387.0625 888.3594,386.4453 Q889.4531,385.8281 890.6875,385.8281 Q891.4219,385.8281 892.0703,385.9922 Q892.7188,386.1563 893.2656,386.5156 Z "/><text fill="#000000" font-family="sans-serif" font-size="12" lengthAdjust="spacingAndGlyphs" textLength="184" x="904.5" y="395.5508">Completion of Use Case (outline)</text><line style="stroke: #A80036; stroke-width: 1.5;" x1="876.5" x2="1090.5" y1="406.6406" y2="406.6406"/><line style="stroke: #A80036; stroke-width: 1.5;" x1="876.5" x2="1090.5" y1="414.6406" y2="414.6406"/><!--class DesignClass--><rect fill="#008000" filter="url(#f1u2gz1r5g35sg)" height="48" id="DesignClass" style="stroke: #A80036; stroke-width: 1.5;" width="153" x="1127" y="374.6406"/><rect fill="#008000" height="32" style="stroke: #A80036; stroke-width: 1.5;" width="153" x="1127" y="374.6406"/><ellipse cx="1142" cy="390.6406" fill="#ADD1B2" rx="11" ry="11" style="stroke: #A80036; stroke-width: 1.0;"/><path d="M1144.7656,386.5156 Q1144.9219,386.2969 1145.1094,386.1875 Q1145.2969,386.0781 1145.5156,386.0781 Q1145.8906,386.0781 1146.125,386.3359 Q1146.3594,386.5938 1146.3594,387.2031 L1146.3594,388.6563 Q1146.3594,389.2656 1146.125,389.5313 Q1145.8906,389.7969 1145.5156,389.7969 Q1145.1719,389.7969 1144.9688,389.5938 Q1144.7656,389.4063 1144.6563,388.8906 Q1144.6094,388.5313 1144.4219,388.3438 Q1144.0938,387.9688 1143.4844,387.75 Q1142.875,387.5313 1142.25,387.5313 Q1141.4844,387.5313 1140.8516,387.8594 Q1140.2188,388.1875 1139.7266,388.9375 Q1139.2344,389.6875 1139.2344,390.7188 L1139.2344,391.8125 Q1139.2344,393.0469 1140.125,393.8672 Q1141.0156,394.6875 1142.6094,394.6875 Q1143.5469,394.6875 1144.2031,394.4375 Q1144.5938,394.2813 1145.0156,393.8438 Q1145.2813,393.5781 1145.4297,393.5 Q1145.5781,393.4219 1145.7813,393.4219 Q1146.1094,393.4219 1146.3672,393.6797 Q1146.625,393.9375 1146.625,394.2813 Q1146.625,394.625 1146.2813,395.0313 Q1145.7813,395.6094 1144.9844,395.9375 Q1143.9063,396.3906 1142.6094,396.3906 Q1141.0938,396.3906 1139.8906,395.7656 Q1138.9063,395.2656 1138.2188,394.1953 Q1137.5313,393.125 1137.5313,391.8438 L1137.5313,390.6875 Q1137.5313,389.3594 1138.1484,388.2109 Q1138.7656,387.0625 1139.8594,386.4453 Q1140.9531,385.8281 1142.1875,385.8281 Q1142.9219,385.8281 1143.5703,385.9922 Q1144.2188,386.1563 1144.7656,386.5156 Z "/><text fill="#000000" font-family="sans-serif" font-size="12" lengthAdjust="spacingAndGlyphs" textLength="121" x="1156" y="395.5508">Design class (outline)</text><line style="stroke: #A80036; stroke-width: 1.5;" x1="1128" x2="1279" y1="406.6406" y2="406.6406"/><line style="stroke: #A80036; stroke-width: 1.5;" x1="1128" x2="1279" y1="414.6406" y2="414.6406"/><!--class Subsystem--><rect fill="#008000" filter="url(#f1u2gz1r5g35sg)" height="48" id="Subsystem" style="stroke: #A80036; stroke-width: 1.5;" width="142" x="1315.5" y="374.6406"/><rect fill="#008000" height="32" style="stroke: #A80036; stroke-width: 1.5;" width="142" x="1315.5" y="374.6406"/><ellipse cx="1330.5" cy="390.6406" fill="#ADD1B2" rx="11" ry="11" style="stroke: #A80036; stroke-width: 1.0;"/><path d="M1333.2656,386.5156 Q1333.4219,386.2969 1333.6094,386.1875 Q1333.7969,386.0781 1334.0156,386.0781 Q1334.3906,386.0781 1334.625,386.3359 Q1334.8594,386.5938 1334.8594,387.2031 L1334.8594,388.6563 Q1334.8594,389.2656 1334.625,389.5313 Q1334.3906,389.7969 1334.0156,389.7969 Q1333.6719,389.7969 1333.4688,389.5938 Q1333.2656,389.4063 1333.1563,388.8906 Q1333.1094,388.5313 1332.9219,388.3438 Q1332.5938,387.9688 1331.9844,387.75 Q1331.375,387.5313 1330.75,387.5313 Q1329.9844,387.5313 1329.3516,387.8594 Q1328.7188,388.1875 1328.2266,388.9375 Q1327.7344,389.6875 1327.7344,390.7188 L1327.7344,391.8125 Q1327.7344,393.0469 1328.625,393.8672 Q1329.5156,394.6875 1331.1094,394.6875 Q1332.0469,394.6875 1332.7031,394.4375 Q1333.0938,394.2813 1333.5156,393.8438 Q1333.7813,393.5781 1333.9297,393.5 Q1334.0781,393.4219 1334.2813,393.4219 Q1334.6094,393.4219 1334.8672,393.6797 Q1335.125,393.9375 1335.125,394.2813 Q1335.125,394.625 1334.7813,395.0313 Q1334.2813,395.6094 1333.4844,395.9375 Q1332.4063,396.3906 1331.1094,396.3906 Q1329.5938,396.3906 1328.3906,395.7656 Q1327.4063,395.2656 1326.7188,394.1953 Q1326.0313,393.125 1326.0313,391.8438 L1326.0313,390.6875 Q1326.0313,389.3594 1326.6484,388.2109 Q1327.2656,387.0625 1328.3594,386.4453 Q1329.4531,385.8281 1330.6875,385.8281 Q1331.4219,385.8281 1332.0703,385.9922 Q1332.7188,386.1563 1333.2656,386.5156 Z "/><text fill="#000000" font-family="sans-serif" font-size="12" lengthAdjust="spacingAndGlyphs" textLength="110" x="1344.5" y="395.5508">Subsystem (outline)</text><line style="stroke: #A80036; stroke-width: 1.5;" x1="1316.5" x2="1456.5" y1="406.6406" y2="406.6406"/><line style="stroke: #A80036; stroke-width: 1.5;" x1="1316.5" x2="1456.5" y1="414.6406" y2="414.6406"/><!--class Interface--><rect fill="#008000" filter="url(#f1u2gz1r5g35sg)" height="48" id="Interface" style="stroke: #A80036; stroke-width: 1.5;" width="127" x="1493" y="374.6406"/><rect fill="#008000" height="32" style="stroke: #A80036; stroke-width: 1.5;" width="127" x="1493" y="374.6406"/><ellipse cx="1508" cy="390.6406" fill="#ADD1B2" rx="11" ry="11" style="stroke: #A80036; stroke-width: 1.0;"/><path d="M1510.7656,386.5156 Q1510.9219,386.2969 1511.1094,386.1875 Q1511.2969,386.0781 1511.5156,386.0781 Q1511.8906,386.0781 1512.125,386.3359 Q1512.3594,386.5938 1512.3594,387.2031 L1512.3594,388.6563 Q1512.3594,389.2656 1512.125,389.5313 Q1511.8906,389.7969 1511.5156,389.7969 Q1511.1719,389.7969 1510.9688,389.5938 Q1510.7656,389.4063 1510.6563,388.8906 Q1510.6094,388.5313 1510.4219,388.3438 Q1510.0938,387.9688 1509.4844,387.75 Q1508.875,387.5313 1508.25,387.5313 Q1507.4844,387.5313 1506.8516,387.8594 Q1506.2188,388.1875 1505.7266,388.9375 Q1505.2344,389.6875 1505.2344,390.7188 L1505.2344,391.8125 Q1505.2344,393.0469 1506.125,393.8672 Q1507.0156,394.6875 1508.6094,394.6875 Q1509.5469,394.6875 1510.2031,394.4375 Q1510.5938,394.2813 1511.0156,393.8438 Q1511.2813,393.5781 1511.4297,393.5 Q1511.5781,393.4219 1511.7813,393.4219 Q1512.1094,393.4219 1512.3672,393.6797 Q1512.625,393.9375 1512.625,394.2813 Q1512.625,394.625 1512.2813,395.0313 Q1511.7813,395.6094 1510.9844,395.9375 Q1509.9063,396.3906 1508.6094,396.3906 Q1507.0938,396.3906 1505.8906,395.7656 Q1504.9063,395.2656 1504.2188,394.1953 Q1503.5313,393.125 1503.5313,391.8438 L1503.5313,390.6875 Q1503.5313,389.3594 1504.1484,388.2109 Q1504.7656,387.0625 1505.8594,386.4453 Q1506.9531,385.8281 1508.1875,385.8281 Q1508.9219,385.8281 1509.5703,385.9922 Q1510.2188,386.1563 1510.7656,386.5156 Z "/><text fill="#000000" font-family="sans-serif" font-size="12" lengthAdjust="spacingAndGlyphs" textLength="95" x="1522" y="395.5508">Interface (outline)</text><line style="stroke: #A80036; stroke-width: 1.5;" x1="1494" x2="1619" y1="406.6406" y2="406.6406"/><line style="stroke: #A80036; stroke-width: 1.5;" x1="1494" x2="1619" y1="414.6406" y2="414.6406"/><!--class DesignRole--><rect fill="#0000FF" filter="url(#f1u2gz1r5g35sg)" height="48" id="DesignRole" style="stroke: #A80036; stroke-width: 1.5;" width="98" x="1343.5" y="248.6406"/><rect fill="#0000FF" height="32" style="stroke: #A80036; stroke-width: 1.5;" width="98" x="1343.5" y="248.6406"/><ellipse cx="1358.5" cy="264.6406" fill="#ADD1B2" rx="11" ry="11" style="stroke: #A80036; stroke-width: 1.0;"/><path d="M1361.2656,260.5156 Q1361.4219,260.2969 1361.6094,260.1875 Q1361.7969,260.0781 1362.0156,260.0781 Q1362.3906,260.0781 1362.625,260.3359 Q1362.8594,260.5938 1362.8594,261.2031 L1362.8594,262.6563 Q1362.8594,263.2656 1362.625,263.5313 Q1362.3906,263.7969 1362.0156,263.7969 Q1361.6719,263.7969 1361.4688,263.5938 Q1361.2656,263.4063 1361.1563,262.8906 Q1361.1094,262.5313 1360.9219,262.3438 Q1360.5938,261.9688 1359.9844,261.75 Q1359.375,261.5313 1358.75,261.5313 Q1357.9844,261.5313 1357.3516,261.8594 Q1356.7188,262.1875 1356.2266,262.9375 Q1355.7344,263.6875 1355.7344,264.7188 L1355.7344,265.8125 Q1355.7344,267.0469 1356.625,267.8672 Q1357.5156,268.6875 1359.1094,268.6875 Q1360.0469,268.6875 1360.7031,268.4375 Q1361.0938,268.2813 1361.5156,267.8438 Q1361.7813,267.5781 1361.9297,267.5 Q1362.0781,267.4219 1362.2813,267.4219 Q1362.6094,267.4219 1362.8672,267.6797 Q1363.125,267.9375 1363.125,268.2813 Q1363.125,268.625 1362.7813,269.0313 Q1362.2813,269.6094 1361.4844,269.9375 Q1360.4063,270.3906 1359.1094,270.3906 Q1357.5938,270.3906 1356.3906,269.7656 Q1355.4063,269.2656 1354.7188,268.1953 Q1354.0313,267.125 1354.0313,265.8438 L1354.0313,264.6875 Q1354.0313,263.3594 1354.6484,262.2109 Q1355.2656,261.0625 1356.3594,260.4453 Q1357.4531,259.8281 1358.6875,259.8281 Q1359.4219,259.8281 1360.0703,259.9922 Q1360.7188,260.1563 1361.2656,260.5156 Z "/><text fill="#000000" font-family="sans-serif" font-size="12" lengthAdjust="spacingAndGlyphs" textLength="66" x="1372.5" y="269.5508">DesignRole</text><line style="stroke: #A80036; stroke-width: 1.5;" x1="1344.5" x2="1440.5" y1="280.6406" y2="280.6406"/><line style="stroke: #A80036; stroke-width: 1.5;" x1="1344.5" x2="1440.5" y1="288.6406" y2="288.6406"/><!--class DesignCaseUse--><rect fill="#FF0000" filter="url(#f1u2gz1r5g35sg)" height="48" id="DesignCaseUse" style="stroke: #A80036; stroke-width: 1.5;" width="155" x="906" y="248.6406"/><rect fill="#FF0000" height="32" style="stroke: #A80036; stroke-width: 1.5;" width="155" x="906" y="248.6406"/><ellipse cx="921" cy="264.6406" fill="#ADD1B2" rx="11" ry="11" style="stroke: #A80036; stroke-width: 1.0;"/><path d="M923.7656,260.5156 Q923.9219,260.2969 924.1094,260.1875 Q924.2969,260.0781 924.5156,260.0781 Q924.8906,260.0781 925.125,260.3359 Q925.3594,260.5938 925.3594,261.2031 L925.3594,262.6563 Q925.3594,263.2656 925.125,263.5313 Q924.8906,263.7969 924.5156,263.7969 Q924.1719,263.7969 923.9688,263.5938 Q923.7656,263.4063 923.6563,262.8906 Q923.6094,262.5313 923.4219,262.3438 Q923.0938,261.9688 922.4844,261.75 Q921.875,261.5313 921.25,261.5313 Q920.4844,261.5313 919.8516,261.8594 Q919.2188,262.1875 918.7266,262.9375 Q918.2344,263.6875 918.2344,264.7188 L918.2344,265.8125 Q918.2344,267.0469 919.125,267.8672 Q920.0156,268.6875 921.6094,268.6875 Q922.5469,268.6875 923.2031,268.4375 Q923.5938,268.2813 924.0156,267.8438 Q924.2813,267.5781 924.4297,267.5 Q924.5781,267.4219 924.7813,267.4219 Q925.1094,267.4219 925.3672,267.6797 Q925.625,267.9375 925.625,268.2813 Q925.625,268.625 925.2813,269.0313 Q924.7813,269.6094 923.9844,269.9375 Q922.9063,270.3906 921.6094,270.3906 Q920.0938,270.3906 918.8906,269.7656 Q917.9063,269.2656 917.2188,268.1953 Q916.5313,267.125 916.5313,265.8438 L916.5313,264.6875 Q916.5313,263.3594 917.1484,262.2109 Q917.7656,261.0625 918.8594,260.4453 Q919.9531,259.8281 921.1875,259.8281 Q921.9219,259.8281 922.5703,259.9922 Q923.2188,260.1563 923.7656,260.5156 Z "/><text fill="#000000" font-family="sans-serif" font-size="12" lengthAdjust="spacingAndGlyphs" textLength="123" x="935" y="269.5508">Design of Case of use</text><line style="stroke: #A80036; stroke-width: 1.5;" x1="907" x2="1060" y1="280.6406" y2="280.6406"/><line style="stroke: #A80036; stroke-width: 1.5;" x1="907" x2="1060" y1="288.6406" y2="288.6406"/><!--class EngineerUseCases--><rect fill="#0000FF" filter="url(#f1u2gz1r5g35sg)" height="48" id="EngineerUseCases" style="stroke: #A80036; stroke-width: 1.5;" width="158" x="1655.5" y="374.6406"/><rect fill="#0000FF" height="32" style="stroke: #A80036; stroke-width: 1.5;" width="158" x="1655.5" y="374.6406"/><ellipse cx="1670.5" cy="390.6406" fill="#ADD1B2" rx="11" ry="11" style="stroke: #A80036; stroke-width: 1.0;"/><path d="M1673.2656,386.5156 Q1673.4219,386.2969 1673.6094,386.1875 Q1673.7969,386.0781 1674.0156,386.0781 Q1674.3906,386.0781 1674.625,386.3359 Q1674.8594,386.5938 1674.8594,387.2031 L1674.8594,388.6563 Q1674.8594,389.2656 1674.625,389.5313 Q1674.3906,389.7969 1674.0156,389.7969 Q1673.6719,389.7969 1673.4688,389.5938 Q1673.2656,389.4063 1673.1563,388.8906 Q1673.1094,388.5313 1672.9219,388.3438 Q1672.5938,387.9688 1671.9844,387.75 Q1671.375,387.5313 1670.75,387.5313 Q1669.9844,387.5313 1669.3516,387.8594 Q1668.7188,388.1875 1668.2266,388.9375 Q1667.7344,389.6875 1667.7344,390.7188 L1667.7344,391.8125 Q1667.7344,393.0469 1668.625,393.8672 Q1669.5156,394.6875 1671.1094,394.6875 Q1672.0469,394.6875 1672.7031,394.4375 Q1673.0938,394.2813 1673.5156,393.8438 Q1673.7813,393.5781 1673.9297,393.5 Q1674.0781,393.4219 1674.2813,393.4219 Q1674.6094,393.4219 1674.8672,393.6797 Q1675.125,393.9375 1675.125,394.2813 Q1675.125,394.625 1674.7813,395.0313 Q1674.2813,395.6094 1673.4844,395.9375 Q1672.4063,396.3906 1671.1094,396.3906 Q1669.5938,396.3906 1668.3906,395.7656 Q1667.4063,395.2656 1666.7188,394.1953 Q1666.0313,393.125 1666.0313,391.8438 L1666.0313,390.6875 Q1666.0313,389.3594 1666.6484,388.2109 Q1667.2656,387.0625 1668.3594,386.4453 Q1669.4531,385.8281 1670.6875,385.8281 Q1671.4219,385.8281 1672.0703,385.9922 Q1672.7188,386.1563 1673.2656,386.5156 Z "/><text fill="#000000" font-family="sans-serif" font-size="12" lengthAdjust="spacingAndGlyphs" textLength="126" x="1684.5" y="395.5508">Engineer of Use cases</text><line style="stroke: #A80036; stroke-width: 1.5;" x1="1656.5" x2="1812.5" y1="406.6406" y2="406.6406"/><line style="stroke: #A80036; stroke-width: 1.5;" x1="1656.5" x2="1812.5" y1="414.6406" y2="414.6406"/><!--link Activity to DesignActivity--><path d="M1310.21,96.7676 C1302.36,111.2426 1293.82,126.9976 1287.06,139.4686 " fill="none" id="Activity-DesignActivity" style="stroke: #A80036; stroke-width: 1.0;"/><polygon fill="none" points="1304.23,93.1056,1319.91,78.8576,1316.54,99.7766,1304.23,93.1056" style="stroke: #A80036; stroke-width: 1.0;"/><!--link Activity to Role--><path d="M1345.52,78.8576 C1354.72,95.2636 1367.09,117.3326 1376.83,134.7026 " fill="none" id="Activity-Role" style="stroke: #A80036; stroke-width: 1.0;"/><polygon fill="#A80036" points="1379.51,139.4686,1378.6065,129.6613,1377.0687,135.1051,1371.6249,133.5673,1379.51,139.4686" style="stroke: #A80036; stroke-width: 1.0;"/><!--link DesignActivity to DesignRole--><path d="M1300.1,187.8576 C1318.66,204.6836 1343.79,227.4676 1363.15,245.0296 " fill="none" id="DesignActivity-DesignRole" style="stroke: #A80036; stroke-width: 1.0;"/><polygon fill="#A80036" points="1366.95,248.4686,1362.9674,239.4609,1363.2451,245.111,1357.5951,245.3887,1366.95,248.4686" style="stroke: #A80036; stroke-width: 1.0;"/><!--link DesignActivity to DesignCaseUse--><path d="M1201.89,191.3386 C1154.03,208.9376 1091.98,231.7536 1046.26,248.5646 " fill="none" id="DesignActivity-DesignCaseUse" style="stroke: #A80036; stroke-width: 1.0;"/><polygon fill="none" points="1199.6,184.7226,1220.79,184.3906,1204.43,197.8626,1199.6,184.7226" style="stroke: #A80036; stroke-width: 1.0;"/><!--link DesignCaseUse to ModelUseCases--><path d="M905.863,279.5516 C759.743,291.4846 434.284,321.9096 164.5,374.6406 C160.577,375.4074 156.57,376.2473 152.533,377.1386 " fill="none" id="DesignCaseUse-ModelUseCases" style="stroke: #A80036; stroke-width: 1.0;"/><polygon fill="#A80036" points="147.408,378.2933,157.0669,380.2181,152.2858,377.1947,155.3092,372.4136,147.408,378.2933" style="stroke: #A80036; stroke-width: 1.0;"/><text fill="#000000" font-family="sans-serif" font-size="13" lengthAdjust="spacingAndGlyphs" textLength="10" x="457.5" y="341.1357">in</text><!--link DesignCaseUse to RequirementsSupplementary--><path d="M905.847,285.0296 C837.257,295.2776 734.583,311.0746 645.5,326.6406 C534.478,346.0398 507.11,353.014 396.5,374.6406 C392.445,375.4335 388.311,376.2438 384.134,377.064 " fill="none" id="DesignCaseUse-RequirementsSupplementary" style="stroke: #A80036; stroke-width: 1.0;"/><polygon fill="#A80036" points="379.215,378.0308,388.8175,380.22,384.1211,377.0665,387.2746,372.3702,379.215,378.0308" style="stroke: #A80036; stroke-width: 1.0;"/><text fill="#000000" font-family="sans-serif" font-size="13" lengthAdjust="spacingAndGlyphs" textLength="10" x="646.5" y="341.1357">in</text><!--link DesignCaseUse to AnalysisModel--><path d="M905.924,289.6956 C818.038,308.3086 670.742,340.788 545.5,374.6406 C541.665,375.6773 537.729,376.7808 533.768,377.9221 " fill="none" id="DesignCaseUse-AnalysisModel" style="stroke: #A80036; stroke-width: 1.0;"/><polygon fill="#A80036" points="528.743,379.3856,538.5026,380.7086,533.5434,377.9871,536.2649,373.0279,528.743,379.3856" style="stroke: #A80036; stroke-width: 1.0;"/><text fill="#000000" font-family="sans-serif" font-size="13" lengthAdjust="spacingAndGlyphs" textLength="10" x="738.5" y="341.1357">in</text><!--link DesignCaseUse to DesignModel--><path d="M915.516,296.6736 C846.913,319.9166 742.043,355.4457 676.74,377.5703 " fill="none" id="DesignCaseUse-DesignModel" style="stroke: #A80036; stroke-width: 1.0;"/><polygon fill="#A80036" points="671.718,379.2718,681.5256,380.1727,676.4536,377.6676,678.9588,372.5956,671.718,379.2718" style="stroke: #A80036; stroke-width: 1.0;"/><text fill="#000000" font-family="sans-serif" font-size="13" lengthAdjust="spacingAndGlyphs" textLength="10" x="823.5" y="341.1357">in</text><!--link DesignCaseUse to DeploymentModel--><path d="M944.493,296.6736 C908.361,318.0086 854.696,349.6963 817.151,371.8659 " fill="none" id="DesignCaseUse-DeploymentModel" style="stroke: #A80036; stroke-width: 1.0;"/><polygon fill="#A80036" points="812.654,374.521,822.4378,373.3907,816.9598,371.9794,818.3711,366.5014,812.654,374.521" style="stroke: #A80036; stroke-width: 1.0;"/><text fill="#000000" font-family="sans-serif" font-size="13" lengthAdjust="spacingAndGlyphs" textLength="10" x="892.5" y="341.1357">in</text><!--link DesignCaseUse to CompletionUseCase--><path d="M983.5,296.6736 C983.5,317.1626 983.5,347.2013 983.5,369.187 " fill="none" id="DesignCaseUse-CompletionUseCase" style="stroke: #A80036; stroke-width: 1.0;"/><polygon fill="#A80036" points="983.5,374.3103,987.5,365.3103,983.5,369.3103,979.5,365.3103,983.5,374.3103" style="stroke: #A80036; stroke-width: 1.0;"/><text fill="#000000" font-family="sans-serif" font-size="13" lengthAdjust="spacingAndGlyphs" textLength="18" x="984.5" y="341.1357">out</text><!--link DesignCaseUse to DesignClass--><path d="M1024.36,296.6736 C1062.22,318.0086 1118.44,349.6963 1157.77,371.8659 " fill="none" id="DesignCaseUse-DesignClass" style="stroke: #A80036; stroke-width: 1.0;"/><polygon fill="#A80036" points="1162.48,374.521,1156.5868,366.6299,1158.119,372.0753,1152.6736,373.6075,1162.48,374.521" style="stroke: #A80036; stroke-width: 1.0;"/><text fill="#000000" font-family="sans-serif" font-size="13" lengthAdjust="spacingAndGlyphs" textLength="18" x="1108.5" y="341.1357">out</text><!--link DesignCaseUse to Subsystem--><path d="M1058.36,296.6736 C1130.16,318.7656 1238.03,351.9588 1310.29,374.1898 " fill="none" id="DesignCaseUse-Subsystem" style="stroke: #A80036; stroke-width: 1.0;"/><polygon fill="#A80036" points="1315.42,375.7712,1307.9955,369.3,1310.6414,374.2999,1305.6414,376.9458,1315.42,375.7712" style="stroke: #A80036; stroke-width: 1.0;"/><text fill="#000000" font-family="sans-serif" font-size="13" lengthAdjust="spacingAndGlyphs" textLength="18" x="1210.5" y="341.1357">out</text><!--link DesignCaseUse to Interface--><path d="M1061.26,287.8796 C1158.39,306.0666 1329.46,339.4286 1474.5,374.6406 C1478.83,375.6909 1483.27,376.8123 1487.74,377.9735 " fill="none" id="DesignCaseUse-Interface" style="stroke: #A80036; stroke-width: 1.0;"/><polygon fill="#A80036" points="1492.6,379.2477,1484.9127,373.0909,1487.7643,377.9765,1482.8788,380.8281,1492.6,379.2477" style="stroke: #A80036; stroke-width: 1.0;"/><text fill="#000000" font-family="sans-serif" font-size="13" lengthAdjust="spacingAndGlyphs" textLength="18" x="1341.5" y="341.1357">out</text><!--link DesignCaseUse to EngineerUseCases--><path d="M1061.23,283.0116 C1184.22,298.4296 1430.94,331.7582 1637.5,374.6406 C1641.7,375.513 1646,376.4321 1650.34,377.3808 " fill="none" id="DesignCaseUse-EngineerUseCases" style="stroke: #A80036; stroke-width: 1.0;"/><polygon fill="#A80036" points="1655.44,378.5071,1647.5065,372.671,1650.5562,377.4354,1645.7918,380.4851,1655.44,378.5071" style="stroke: #A80036; stroke-width: 1.0;"/><!--link Role to DesignRole--><path d="M1392.5,208.2186 C1392.5,222.0026 1392.5,236.6976 1392.5,248.4686 " fill="none" id="Role-DesignRole" style="stroke: #A80036; stroke-width: 1.0;"/><polygon fill="none" points="1385.5,207.8576,1392.5,187.8576,1399.5,207.8576,1385.5,207.8576" style="stroke: #A80036; stroke-width: 1.0;"/><!--link DesignRole to EngineerUseCases--><path d="M1461.85,274.3056 C1521.32,277.6696 1607.45,289.3926 1672.5,326.6406 C1692.52,338.106 1709.3,358.4801 1720.33,374.4713 " fill="none" id="DesignRole-EngineerUseCases" style="stroke: #A80036; stroke-width: 1.0;"/><polygon fill="none" points="1461.29,281.2886,1441.61,273.4246,1461.9,267.3016,1461.29,281.2886" style="stroke: #A80036; stroke-width: 1.0;"/><!--
@startuml
title Design Use Case
class Activity #red
Activity <|- - DesignActivity
Activity - -> Role

class "Model of Use cases" as ModelUseCases #green
class "Requirements Supplementary" as RequirementsSupplementary #green
class "Analysis Model" as AnalysisModel #green
class "Design Model" as DesignModel #green
class "Deployment Model" as DeploymentModel #green
class "Completion of Use Case (outline)" as CompletionUseCase #green
class "Design class (outline)" as DesignClass #green
class "Subsystem (outline)" as Subsystem #green
class "Interface (outline)" as Interface #green

class DesignActivity #red
DesignActivity - -> DesignRole

class "Design of Case of use" as DesignCaseUse #red
DesignActivity <|- - DesignCaseUse

DesignCaseUse - -> ModelUseCases :in
DesignCaseUse - -> RequirementsSupplementary :in
DesignCaseUse - -> AnalysisModel :in
DesignCaseUse - -> DesignModel :in
DesignCaseUse - -> DeploymentModel :in
DesignCaseUse - -> CompletionUseCase :out
DesignCaseUse - -> DesignClass :out
DesignCaseUse - -> Subsystem :out
DesignCaseUse - -> Interface :out

class Role #blue
class DesignRole #blue
class "Engineer of Use cases" as EngineerUseCases #blue

DesignCaseUse - -> EngineerUseCases

Role <|- - DesignRole
DesignRole <|- - EngineerUseCases
@enduml

PlantUML version 1.2019.05(Sat Apr 20 18:45:36 CEST 2019)
(GPL source distribution)
Java Runtime: OpenJDK Runtime Environment
JVM: OpenJDK 64-Bit Server VM
Java Version: 1.8.0_222-b10
Operating System: Windows 10
OS Version: 10.0
Default Encoding: windows-1252
Language: es
Country: ES
--></g></svg>