<?xml version="1.0" encoding="UTF-8" standalone="no"?><svg xmlns="http://www.w3.org/2000/svg" xmlns:xlink="http://www.w3.org/1999/xlink" contentScriptType="application/ecmascript" contentStyleType="text/css" height="411px" preserveAspectRatio="none" style="width:1824px;height:411px;" version="1.1" viewBox="0 0 1824 411" width="1824px" zoomAndPan="magnify"><defs><filter height="300%" id="f14lpqm9qz6yp" width="300%" x="-1" y="-1"><feGaussianBlur result="blurOut" stdDeviation="2.0"/><feColorMatrix in="blurOut" result="blurOut2" type="matrix" values="0 0 0 0 0 0 0 0 0 0 0 0 0 0 0 0 0 0 .4 0"/><feOffset dx="4.0" dy="4.0" in="blurOut2" result="blurOut3"/><feBlend in="SourceGraphic" in2="blurOut3" mode="normal"/></filter></defs><g><!--class Activity--><rect fill="#FF0000" filter="url(#f14lpqm9qz6yp)" height="48" id="Activity" style="stroke: #A80036; stroke-width: 1.5;" width="67" x="1299" y="8"/><rect fill="#FF0000" height="32" style="stroke: #A80036; stroke-width: 1.5;" width="67" x="1299" y="8"/><ellipse cx="1314" cy="24" fill="#ADD1B2" rx="11" ry="11" style="stroke: #A80036; stroke-width: 1.0;"/><path d="M1316.7656,19.875 Q1316.9219,19.6563 1317.1094,19.5469 Q1317.2969,19.4375 1317.5156,19.4375 Q1317.8906,19.4375 1318.125,19.6953 Q1318.3594,19.9531 1318.3594,20.5625 L1318.3594,22.0156 Q1318.3594,22.625 1318.125,22.8906 Q1317.8906,23.1563 1317.5156,23.1563 Q1317.1719,23.1563 1316.9688,22.9531 Q1316.7656,22.7656 1316.6563,22.25 Q1316.6094,21.8906 1316.4219,21.7031 Q1316.0938,21.3281 1315.4844,21.1094 Q1314.875,20.8906 1314.25,20.8906 Q1313.4844,20.8906 1312.8516,21.2188 Q1312.2188,21.5469 1311.7266,22.2969 Q1311.2344,23.0469 1311.2344,24.0781 L1311.2344,25.1719 Q1311.2344,26.4063 1312.125,27.2266 Q1313.0156,28.0469 1314.6094,28.0469 Q1315.5469,28.0469 1316.2031,27.7969 Q1316.5938,27.6406 1317.0156,27.2031 Q1317.2813,26.9375 1317.4297,26.8594 Q1317.5781,26.7813 1317.7813,26.7813 Q1318.1094,26.7813 1318.3672,27.0391 Q1318.625,27.2969 1318.625,27.6406 Q1318.625,27.9844 1318.2813,28.3906 Q1317.7813,28.9688 1316.9844,29.2969 Q1315.9063,29.75 1314.6094,29.75 Q1313.0938,29.75 1311.8906,29.125 Q1310.9063,28.625 1310.2188,27.5547 Q1309.5313,26.4844 1309.5313,25.2031 L1309.5313,24.0469 Q1309.5313,22.7188 1310.1484,21.5703 Q1310.7656,20.4219 1311.8594,19.8047 Q1312.9531,19.1875 1314.1875,19.1875 Q1314.9219,19.1875 1315.5703,19.3516 Q1316.2188,19.5156 1316.7656,19.875 Z "/><text fill="#000000" font-family="sans-serif" font-size="12" lengthAdjust="spacingAndGlyphs" textLength="35" x="1328" y="28.9102">Activity</text><line style="stroke: #A80036; stroke-width: 1.5;" x1="1300" x2="1365" y1="40" y2="40"/><line style="stroke: #A80036; stroke-width: 1.5;" x1="1300" x2="1365" y1="48" y2="48"/><!--class DesignActivity--><rect fill="#FF0000" filter="url(#f14lpqm9qz6yp)" height="48" id="DesignActivity" style="stroke: #A80036; stroke-width: 1.5;" width="107" x="1221" y="117"/><rect fill="#FF0000" height="32" style="stroke: #A80036; stroke-width: 1.5;" width="107" x="1221" y="117"/><ellipse cx="1236" cy="133" fill="#ADD1B2" rx="11" ry="11" style="stroke: #A80036; stroke-width: 1.0;"/><path d="M1238.7656,128.875 Q1238.9219,128.6563 1239.1094,128.5469 Q1239.2969,128.4375 1239.5156,128.4375 Q1239.8906,128.4375 1240.125,128.6953 Q1240.3594,128.9531 1240.3594,129.5625 L1240.3594,131.0156 Q1240.3594,131.625 1240.125,131.8906 Q1239.8906,132.1563 1239.5156,132.1563 Q1239.1719,132.1563 1238.9688,131.9531 Q1238.7656,131.7656 1238.6563,131.25 Q1238.6094,130.8906 1238.4219,130.7031 Q1238.0938,130.3281 1237.4844,130.1094 Q1236.875,129.8906 1236.25,129.8906 Q1235.4844,129.8906 1234.8516,130.2188 Q1234.2188,130.5469 1233.7266,131.2969 Q1233.2344,132.0469 1233.2344,133.0781 L1233.2344,134.1719 Q1233.2344,135.4063 1234.125,136.2266 Q1235.0156,137.0469 1236.6094,137.0469 Q1237.5469,137.0469 1238.2031,136.7969 Q1238.5938,136.6406 1239.0156,136.2031 Q1239.2813,135.9375 1239.4297,135.8594 Q1239.5781,135.7813 1239.7813,135.7813 Q1240.1094,135.7813 1240.3672,136.0391 Q1240.625,136.2969 1240.625,136.6406 Q1240.625,136.9844 1240.2813,137.3906 Q1239.7813,137.9688 1238.9844,138.2969 Q1237.9063,138.75 1236.6094,138.75 Q1235.0938,138.75 1233.8906,138.125 Q1232.9063,137.625 1232.2188,136.5547 Q1231.5313,135.4844 1231.5313,134.2031 L1231.5313,133.0469 Q1231.5313,131.7188 1232.1484,130.5703 Q1232.7656,129.4219 1233.8594,128.8047 Q1234.9531,128.1875 1236.1875,128.1875 Q1236.9219,128.1875 1237.5703,128.3516 Q1238.2188,128.5156 1238.7656,128.875 Z "/><text fill="#000000" font-family="sans-serif" font-size="12" lengthAdjust="spacingAndGlyphs" textLength="75" x="1250" y="137.9102">DesignActivity</text><line style="stroke: #A80036; stroke-width: 1.5;" x1="1222" x2="1327" y1="149" y2="149"/><line style="stroke: #A80036; stroke-width: 1.5;" x1="1222" x2="1327" y1="157" y2="157"/><!--class Role--><rect fill="#0000FF" filter="url(#f14lpqm9qz6yp)" height="48" id="Role" style="stroke: #A80036; stroke-width: 1.5;" width="58" x="1363.5" y="117"/><rect fill="#0000FF" height="32" style="stroke: #A80036; stroke-width: 1.5;" width="58" x="1363.5" y="117"/><ellipse cx="1378.5" cy="133" fill="#ADD1B2" rx="11" ry="11" style="stroke: #A80036; stroke-width: 1.0;"/><path d="M1381.2656,128.875 Q1381.4219,128.6563 1381.6094,128.5469 Q1381.7969,128.4375 1382.0156,128.4375 Q1382.3906,128.4375 1382.625,128.6953 Q1382.8594,128.9531 1382.8594,129.5625 L1382.8594,131.0156 Q1382.8594,131.625 1382.625,131.8906 Q1382.3906,132.1563 1382.0156,132.1563 Q1381.6719,132.1563 1381.4688,131.9531 Q1381.2656,131.7656 1381.1563,131.25 Q1381.1094,130.8906 1380.9219,130.7031 Q1380.5938,130.3281 1379.9844,130.1094 Q1379.375,129.8906 1378.75,129.8906 Q1377.9844,129.8906 1377.3516,130.2188 Q1376.7188,130.5469 1376.2266,131.2969 Q1375.7344,132.0469 1375.7344,133.0781 L1375.7344,134.1719 Q1375.7344,135.4063 1376.625,136.2266 Q1377.5156,137.0469 1379.1094,137.0469 Q1380.0469,137.0469 1380.7031,136.7969 Q1381.0938,136.6406 1381.5156,136.2031 Q1381.7813,135.9375 1381.9297,135.8594 Q1382.0781,135.7813 1382.2813,135.7813 Q1382.6094,135.7813 1382.8672,136.0391 Q1383.125,136.2969 1383.125,136.6406 Q1383.125,136.9844 1382.7813,137.3906 Q1382.2813,137.9688 1381.4844,138.2969 Q1380.4063,138.75 1379.1094,138.75 Q1377.5938,138.75 1376.3906,138.125 Q1375.4063,137.625 1374.7188,136.5547 Q1374.0313,135.4844 1374.0313,134.2031 L1374.0313,133.0469 Q1374.0313,131.7188 1374.6484,130.5703 Q1375.2656,129.4219 1376.3594,128.8047 Q1377.4531,128.1875 1378.6875,128.1875 Q1379.4219,128.1875 1380.0703,128.3516 Q1380.7188,128.5156 1381.2656,128.875 Z "/><text fill="#000000" font-family="sans-serif" font-size="12" lengthAdjust="spacingAndGlyphs" textLength="26" x="1392.5" y="137.9102">Role</text><line style="stroke: #A80036; stroke-width: 1.5;" x1="1364.5" x2="1420.5" y1="149" y2="149"/><line style="stroke: #A80036; stroke-width: 1.5;" x1="1364.5" x2="1420.5" y1="157" y2="157"/><!--class ModelUseCases--><rect fill="#008000" filter="url(#f14lpqm9qz6yp)" height="48" id="ModelUseCases" style="stroke: #A80036; stroke-width: 1.5;" width="141" x="6" y="352"/><rect fill="#008000" height="32" style="stroke: #A80036; stroke-width: 1.5;" width="141" x="6" y="352"/><ellipse cx="21" cy="368" fill="#ADD1B2" rx="11" ry="11" style="stroke: #A80036; stroke-width: 1.0;"/><path d="M23.7656,363.875 Q23.9219,363.6563 24.1094,363.5469 Q24.2969,363.4375 24.5156,363.4375 Q24.8906,363.4375 25.125,363.6953 Q25.3594,363.9531 25.3594,364.5625 L25.3594,366.0156 Q25.3594,366.625 25.125,366.8906 Q24.8906,367.1563 24.5156,367.1563 Q24.1719,367.1563 23.9688,366.9531 Q23.7656,366.7656 23.6563,366.25 Q23.6094,365.8906 23.4219,365.7031 Q23.0938,365.3281 22.4844,365.1094 Q21.875,364.8906 21.25,364.8906 Q20.4844,364.8906 19.8516,365.2188 Q19.2188,365.5469 18.7266,366.2969 Q18.2344,367.0469 18.2344,368.0781 L18.2344,369.1719 Q18.2344,370.4063 19.125,371.2266 Q20.0156,372.0469 21.6094,372.0469 Q22.5469,372.0469 23.2031,371.7969 Q23.5938,371.6406 24.0156,371.2031 Q24.2813,370.9375 24.4297,370.8594 Q24.5781,370.7813 24.7813,370.7813 Q25.1094,370.7813 25.3672,371.0391 Q25.625,371.2969 25.625,371.6406 Q25.625,371.9844 25.2813,372.3906 Q24.7813,372.9688 23.9844,373.2969 Q22.9063,373.75 21.6094,373.75 Q20.0938,373.75 18.8906,373.125 Q17.9063,372.625 17.2188,371.5547 Q16.5313,370.4844 16.5313,369.2031 L16.5313,368.0469 Q16.5313,366.7188 17.1484,365.5703 Q17.7656,364.4219 18.8594,363.8047 Q19.9531,363.1875 21.1875,363.1875 Q21.9219,363.1875 22.5703,363.3516 Q23.2188,363.5156 23.7656,363.875 Z "/><text fill="#000000" font-family="sans-serif" font-size="12" lengthAdjust="spacingAndGlyphs" textLength="109" x="35" y="372.9102">Model of Use cases</text><line style="stroke: #A80036; stroke-width: 1.5;" x1="7" x2="146" y1="384" y2="384"/><line style="stroke: #A80036; stroke-width: 1.5;" x1="7" x2="146" y1="392" y2="392"/><!--class RequirementsSupplementary--><rect fill="#008000" filter="url(#f14lpqm9qz6yp)" height="48" id="RequirementsSupplementary" style="stroke: #A80036; stroke-width: 1.5;" width="197" x="182" y="352"/><rect fill="#008000" height="32" style="stroke: #A80036; stroke-width: 1.5;" width="197" x="182" y="352"/><ellipse cx="197" cy="368" fill="#ADD1B2" rx="11" ry="11" style="stroke: #A80036; stroke-width: 1.0;"/><path d="M199.7656,363.875 Q199.9219,363.6563 200.1094,363.5469 Q200.2969,363.4375 200.5156,363.4375 Q200.8906,363.4375 201.125,363.6953 Q201.3594,363.9531 201.3594,364.5625 L201.3594,366.0156 Q201.3594,366.625 201.125,366.8906 Q200.8906,367.1563 200.5156,367.1563 Q200.1719,367.1563 199.9688,366.9531 Q199.7656,366.7656 199.6563,366.25 Q199.6094,365.8906 199.4219,365.7031 Q199.0938,365.3281 198.4844,365.1094 Q197.875,364.8906 197.25,364.8906 Q196.4844,364.8906 195.8516,365.2188 Q195.2188,365.5469 194.7266,366.2969 Q194.2344,367.0469 194.2344,368.0781 L194.2344,369.1719 Q194.2344,370.4063 195.125,371.2266 Q196.0156,372.0469 197.6094,372.0469 Q198.5469,372.0469 199.2031,371.7969 Q199.5938,371.6406 200.0156,371.2031 Q200.2813,370.9375 200.4297,370.8594 Q200.5781,370.7813 200.7813,370.7813 Q201.1094,370.7813 201.3672,371.0391 Q201.625,371.2969 201.625,371.6406 Q201.625,371.9844 201.2813,372.3906 Q200.7813,372.9688 199.9844,373.2969 Q198.9063,373.75 197.6094,373.75 Q196.0938,373.75 194.8906,373.125 Q193.9063,372.625 193.2188,371.5547 Q192.5313,370.4844 192.5313,369.2031 L192.5313,368.0469 Q192.5313,366.7188 193.1484,365.5703 Q193.7656,364.4219 194.8594,363.8047 Q195.9531,363.1875 197.1875,363.1875 Q197.9219,363.1875 198.5703,363.3516 Q199.2188,363.5156 199.7656,363.875 Z "/><text fill="#000000" font-family="sans-serif" font-size="12" lengthAdjust="spacingAndGlyphs" textLength="165" x="211" y="372.9102">Requirements Supplementary</text><line style="stroke: #A80036; stroke-width: 1.5;" x1="183" x2="378" y1="384" y2="384"/><line style="stroke: #A80036; stroke-width: 1.5;" x1="183" x2="378" y1="392" y2="392"/><!--class AnalysisModel--><rect fill="#008000" filter="url(#f14lpqm9qz6yp)" height="48" id="AnalysisModel" style="stroke: #A80036; stroke-width: 1.5;" width="114" x="414.5" y="352"/><rect fill="#008000" height="32" style="stroke: #A80036; stroke-width: 1.5;" width="114" x="414.5" y="352"/><ellipse cx="429.5" cy="368" fill="#ADD1B2" rx="11" ry="11" style="stroke: #A80036; stroke-width: 1.0;"/><path d="M432.2656,363.875 Q432.4219,363.6563 432.6094,363.5469 Q432.7969,363.4375 433.0156,363.4375 Q433.3906,363.4375 433.625,363.6953 Q433.8594,363.9531 433.8594,364.5625 L433.8594,366.0156 Q433.8594,366.625 433.625,366.8906 Q433.3906,367.1563 433.0156,367.1563 Q432.6719,367.1563 432.4688,366.9531 Q432.2656,366.7656 432.1563,366.25 Q432.1094,365.8906 431.9219,365.7031 Q431.5938,365.3281 430.9844,365.1094 Q430.375,364.8906 429.75,364.8906 Q428.9844,364.8906 428.3516,365.2188 Q427.7188,365.5469 427.2266,366.2969 Q426.7344,367.0469 426.7344,368.0781 L426.7344,369.1719 Q426.7344,370.4063 427.625,371.2266 Q428.5156,372.0469 430.1094,372.0469 Q431.0469,372.0469 431.7031,371.7969 Q432.0938,371.6406 432.5156,371.2031 Q432.7813,370.9375 432.9297,370.8594 Q433.0781,370.7813 433.2813,370.7813 Q433.6094,370.7813 433.8672,371.0391 Q434.125,371.2969 434.125,371.6406 Q434.125,371.9844 433.7813,372.3906 Q433.2813,372.9688 432.4844,373.2969 Q431.4063,373.75 430.1094,373.75 Q428.5938,373.75 427.3906,373.125 Q426.4063,372.625 425.7188,371.5547 Q425.0313,370.4844 425.0313,369.2031 L425.0313,368.0469 Q425.0313,366.7188 425.6484,365.5703 Q426.2656,364.4219 427.3594,363.8047 Q428.4531,363.1875 429.6875,363.1875 Q430.4219,363.1875 431.0703,363.3516 Q431.7188,363.5156 432.2656,363.875 Z "/><text fill="#000000" font-family="sans-serif" font-size="12" lengthAdjust="spacingAndGlyphs" textLength="82" x="443.5" y="372.9102">Analysis Model</text><line style="stroke: #A80036; stroke-width: 1.5;" x1="415.5" x2="527.5" y1="384" y2="384"/><line style="stroke: #A80036; stroke-width: 1.5;" x1="415.5" x2="527.5" y1="392" y2="392"/><!--class DesignModel--><rect fill="#008000" filter="url(#f14lpqm9qz6yp)" height="48" id="DesignModel" style="stroke: #A80036; stroke-width: 1.5;" width="108" x="563.5" y="352"/><rect fill="#008000" height="32" style="stroke: #A80036; stroke-width: 1.5;" width="108" x="563.5" y="352"/><ellipse cx="578.5" cy="368" fill="#ADD1B2" rx="11" ry="11" style="stroke: #A80036; stroke-width: 1.0;"/><path d="M581.2656,363.875 Q581.4219,363.6563 581.6094,363.5469 Q581.7969,363.4375 582.0156,363.4375 Q582.3906,363.4375 582.625,363.6953 Q582.8594,363.9531 582.8594,364.5625 L582.8594,366.0156 Q582.8594,366.625 582.625,366.8906 Q582.3906,367.1563 582.0156,367.1563 Q581.6719,367.1563 581.4688,366.9531 Q581.2656,366.7656 581.1563,366.25 Q581.1094,365.8906 580.9219,365.7031 Q580.5938,365.3281 579.9844,365.1094 Q579.375,364.8906 578.75,364.8906 Q577.9844,364.8906 577.3516,365.2188 Q576.7188,365.5469 576.2266,366.2969 Q575.7344,367.0469 575.7344,368.0781 L575.7344,369.1719 Q575.7344,370.4063 576.625,371.2266 Q577.5156,372.0469 579.1094,372.0469 Q580.0469,372.0469 580.7031,371.7969 Q581.0938,371.6406 581.5156,371.2031 Q581.7813,370.9375 581.9297,370.8594 Q582.0781,370.7813 582.2813,370.7813 Q582.6094,370.7813 582.8672,371.0391 Q583.125,371.2969 583.125,371.6406 Q583.125,371.9844 582.7813,372.3906 Q582.2813,372.9688 581.4844,373.2969 Q580.4063,373.75 579.1094,373.75 Q577.5938,373.75 576.3906,373.125 Q575.4063,372.625 574.7188,371.5547 Q574.0313,370.4844 574.0313,369.2031 L574.0313,368.0469 Q574.0313,366.7188 574.6484,365.5703 Q575.2656,364.4219 576.3594,363.8047 Q577.4531,363.1875 578.6875,363.1875 Q579.4219,363.1875 580.0703,363.3516 Q580.7188,363.5156 581.2656,363.875 Z "/><text fill="#000000" font-family="sans-serif" font-size="12" lengthAdjust="spacingAndGlyphs" textLength="76" x="592.5" y="372.9102">Design Model</text><line style="stroke: #A80036; stroke-width: 1.5;" x1="564.5" x2="670.5" y1="384" y2="384"/><line style="stroke: #A80036; stroke-width: 1.5;" x1="564.5" x2="670.5" y1="392" y2="392"/><!--class DeploymentModel--><rect fill="#008000" filter="url(#f14lpqm9qz6yp)" height="48" id="DeploymentModel" style="stroke: #A80036; stroke-width: 1.5;" width="134" x="706.5" y="352"/><rect fill="#008000" height="32" style="stroke: #A80036; stroke-width: 1.5;" width="134" x="706.5" y="352"/><ellipse cx="721.5" cy="368" fill="#ADD1B2" rx="11" ry="11" style="stroke: #A80036; stroke-width: 1.0;"/><path d="M724.2656,363.875 Q724.4219,363.6563 724.6094,363.5469 Q724.7969,363.4375 725.0156,363.4375 Q725.3906,363.4375 725.625,363.6953 Q725.8594,363.9531 725.8594,364.5625 L725.8594,366.0156 Q725.8594,366.625 725.625,366.8906 Q725.3906,367.1563 725.0156,367.1563 Q724.6719,367.1563 724.4688,366.9531 Q724.2656,366.7656 724.1563,366.25 Q724.1094,365.8906 723.9219,365.7031 Q723.5938,365.3281 722.9844,365.1094 Q722.375,364.8906 721.75,364.8906 Q720.9844,364.8906 720.3516,365.2188 Q719.7188,365.5469 719.2266,366.2969 Q718.7344,367.0469 718.7344,368.0781 L718.7344,369.1719 Q718.7344,370.4063 719.625,371.2266 Q720.5156,372.0469 722.1094,372.0469 Q723.0469,372.0469 723.7031,371.7969 Q724.0938,371.6406 724.5156,371.2031 Q724.7813,370.9375 724.9297,370.8594 Q725.0781,370.7813 725.2813,370.7813 Q725.6094,370.7813 725.8672,371.0391 Q726.125,371.2969 726.125,371.6406 Q726.125,371.9844 725.7813,372.3906 Q725.2813,372.9688 724.4844,373.2969 Q723.4063,373.75 722.1094,373.75 Q720.5938,373.75 719.3906,373.125 Q718.4063,372.625 717.7188,371.5547 Q717.0313,370.4844 717.0313,369.2031 L717.0313,368.0469 Q717.0313,366.7188 717.6484,365.5703 Q718.2656,364.4219 719.3594,363.8047 Q720.4531,363.1875 721.6875,363.1875 Q722.4219,363.1875 723.0703,363.3516 Q723.7188,363.5156 724.2656,363.875 Z "/><text fill="#000000" font-family="sans-serif" font-size="12" lengthAdjust="spacingAndGlyphs" textLength="102" x="735.5" y="372.9102">Deployment Model</text><line style="stroke: #A80036; stroke-width: 1.5;" x1="707.5" x2="839.5" y1="384" y2="384"/><line style="stroke: #A80036; stroke-width: 1.5;" x1="707.5" x2="839.5" y1="392" y2="392"/><!--class CompletionUseCase--><rect fill="#008000" filter="url(#f14lpqm9qz6yp)" height="48" id="CompletionUseCase" style="stroke: #A80036; stroke-width: 1.5;" width="216" x="875.5" y="352"/><rect fill="#008000" height="32" style="stroke: #A80036; stroke-width: 1.5;" width="216" x="875.5" y="352"/><ellipse cx="890.5" cy="368" fill="#ADD1B2" rx="11" ry="11" style="stroke: #A80036; stroke-width: 1.0;"/><path d="M893.2656,363.875 Q893.4219,363.6563 893.6094,363.5469 Q893.7969,363.4375 894.0156,363.4375 Q894.3906,363.4375 894.625,363.6953 Q894.8594,363.9531 894.8594,364.5625 L894.8594,366.0156 Q894.8594,366.625 894.625,366.8906 Q894.3906,367.1563 894.0156,367.1563 Q893.6719,367.1563 893.4688,366.9531 Q893.2656,366.7656 893.1563,366.25 Q893.1094,365.8906 892.9219,365.7031 Q892.5938,365.3281 891.9844,365.1094 Q891.375,364.8906 890.75,364.8906 Q889.9844,364.8906 889.3516,365.2188 Q888.7188,365.5469 888.2266,366.2969 Q887.7344,367.0469 887.7344,368.0781 L887.7344,369.1719 Q887.7344,370.4063 888.625,371.2266 Q889.5156,372.0469 891.1094,372.0469 Q892.0469,372.0469 892.7031,371.7969 Q893.0938,371.6406 893.5156,371.2031 Q893.7813,370.9375 893.9297,370.8594 Q894.0781,370.7813 894.2813,370.7813 Q894.6094,370.7813 894.8672,371.0391 Q895.125,371.2969 895.125,371.6406 Q895.125,371.9844 894.7813,372.3906 Q894.2813,372.9688 893.4844,373.2969 Q892.4063,373.75 891.1094,373.75 Q889.5938,373.75 888.3906,373.125 Q887.4063,372.625 886.7188,371.5547 Q886.0313,370.4844 886.0313,369.2031 L886.0313,368.0469 Q886.0313,366.7188 886.6484,365.5703 Q887.2656,364.4219 888.3594,363.8047 Q889.4531,363.1875 890.6875,363.1875 Q891.4219,363.1875 892.0703,363.3516 Q892.7188,363.5156 893.2656,363.875 Z "/><text fill="#000000" font-family="sans-serif" font-size="12" lengthAdjust="spacingAndGlyphs" textLength="184" x="904.5" y="372.9102">Completion of Use Case (outline)</text><line style="stroke: #A80036; stroke-width: 1.5;" x1="876.5" x2="1090.5" y1="384" y2="384"/><line style="stroke: #A80036; stroke-width: 1.5;" x1="876.5" x2="1090.5" y1="392" y2="392"/><!--class DesignClass--><rect fill="#008000" filter="url(#f14lpqm9qz6yp)" height="48" id="DesignClass" style="stroke: #A80036; stroke-width: 1.5;" width="153" x="1127" y="352"/><rect fill="#008000" height="32" style="stroke: #A80036; stroke-width: 1.5;" width="153" x="1127" y="352"/><ellipse cx="1142" cy="368" fill="#ADD1B2" rx="11" ry="11" style="stroke: #A80036; stroke-width: 1.0;"/><path d="M1144.7656,363.875 Q1144.9219,363.6563 1145.1094,363.5469 Q1145.2969,363.4375 1145.5156,363.4375 Q1145.8906,363.4375 1146.125,363.6953 Q1146.3594,363.9531 1146.3594,364.5625 L1146.3594,366.0156 Q1146.3594,366.625 1146.125,366.8906 Q1145.8906,367.1563 1145.5156,367.1563 Q1145.1719,367.1563 1144.9688,366.9531 Q1144.7656,366.7656 1144.6563,366.25 Q1144.6094,365.8906 1144.4219,365.7031 Q1144.0938,365.3281 1143.4844,365.1094 Q1142.875,364.8906 1142.25,364.8906 Q1141.4844,364.8906 1140.8516,365.2188 Q1140.2188,365.5469 1139.7266,366.2969 Q1139.2344,367.0469 1139.2344,368.0781 L1139.2344,369.1719 Q1139.2344,370.4063 1140.125,371.2266 Q1141.0156,372.0469 1142.6094,372.0469 Q1143.5469,372.0469 1144.2031,371.7969 Q1144.5938,371.6406 1145.0156,371.2031 Q1145.2813,370.9375 1145.4297,370.8594 Q1145.5781,370.7813 1145.7813,370.7813 Q1146.1094,370.7813 1146.3672,371.0391 Q1146.625,371.2969 1146.625,371.6406 Q1146.625,371.9844 1146.2813,372.3906 Q1145.7813,372.9688 1144.9844,373.2969 Q1143.9063,373.75 1142.6094,373.75 Q1141.0938,373.75 1139.8906,373.125 Q1138.9063,372.625 1138.2188,371.5547 Q1137.5313,370.4844 1137.5313,369.2031 L1137.5313,368.0469 Q1137.5313,366.7188 1138.1484,365.5703 Q1138.7656,364.4219 1139.8594,363.8047 Q1140.9531,363.1875 1142.1875,363.1875 Q1142.9219,363.1875 1143.5703,363.3516 Q1144.2188,363.5156 1144.7656,363.875 Z "/><text fill="#000000" font-family="sans-serif" font-size="12" lengthAdjust="spacingAndGlyphs" textLength="121" x="1156" y="372.9102">Design class (outline)</text><line style="stroke: #A80036; stroke-width: 1.5;" x1="1128" x2="1279" y1="384" y2="384"/><line style="stroke: #A80036; stroke-width: 1.5;" x1="1128" x2="1279" y1="392" y2="392"/><!--class Subsystem--><rect fill="#008000" filter="url(#f14lpqm9qz6yp)" height="48" id="Subsystem" style="stroke: #A80036; stroke-width: 1.5;" width="142" x="1315.5" y="352"/><rect fill="#008000" height="32" style="stroke: #A80036; stroke-width: 1.5;" width="142" x="1315.5" y="352"/><ellipse cx="1330.5" cy="368" fill="#ADD1B2" rx="11" ry="11" style="stroke: #A80036; stroke-width: 1.0;"/><path d="M1333.2656,363.875 Q1333.4219,363.6563 1333.6094,363.5469 Q1333.7969,363.4375 1334.0156,363.4375 Q1334.3906,363.4375 1334.625,363.6953 Q1334.8594,363.9531 1334.8594,364.5625 L1334.8594,366.0156 Q1334.8594,366.625 1334.625,366.8906 Q1334.3906,367.1563 1334.0156,367.1563 Q1333.6719,367.1563 1333.4688,366.9531 Q1333.2656,366.7656 1333.1563,366.25 Q1333.1094,365.8906 1332.9219,365.7031 Q1332.5938,365.3281 1331.9844,365.1094 Q1331.375,364.8906 1330.75,364.8906 Q1329.9844,364.8906 1329.3516,365.2188 Q1328.7188,365.5469 1328.2266,366.2969 Q1327.7344,367.0469 1327.7344,368.0781 L1327.7344,369.1719 Q1327.7344,370.4063 1328.625,371.2266 Q1329.5156,372.0469 1331.1094,372.0469 Q1332.0469,372.0469 1332.7031,371.7969 Q1333.0938,371.6406 1333.5156,371.2031 Q1333.7813,370.9375 1333.9297,370.8594 Q1334.0781,370.7813 1334.2813,370.7813 Q1334.6094,370.7813 1334.8672,371.0391 Q1335.125,371.2969 1335.125,371.6406 Q1335.125,371.9844 1334.7813,372.3906 Q1334.2813,372.9688 1333.4844,373.2969 Q1332.4063,373.75 1331.1094,373.75 Q1329.5938,373.75 1328.3906,373.125 Q1327.4063,372.625 1326.7188,371.5547 Q1326.0313,370.4844 1326.0313,369.2031 L1326.0313,368.0469 Q1326.0313,366.7188 1326.6484,365.5703 Q1327.2656,364.4219 1328.3594,363.8047 Q1329.4531,363.1875 1330.6875,363.1875 Q1331.4219,363.1875 1332.0703,363.3516 Q1332.7188,363.5156 1333.2656,363.875 Z "/><text fill="#000000" font-family="sans-serif" font-size="12" lengthAdjust="spacingAndGlyphs" textLength="110" x="1344.5" y="372.9102">Subsystem (outline)</text><line style="stroke: #A80036; stroke-width: 1.5;" x1="1316.5" x2="1456.5" y1="384" y2="384"/><line style="stroke: #A80036; stroke-width: 1.5;" x1="1316.5" x2="1456.5" y1="392" y2="392"/><!--class Interface--><rect fill="#008000" filter="url(#f14lpqm9qz6yp)" height="48" id="Interface" style="stroke: #A80036; stroke-width: 1.5;" width="127" x="1493" y="352"/><rect fill="#008000" height="32" style="stroke: #A80036; stroke-width: 1.5;" width="127" x="1493" y="352"/><ellipse cx="1508" cy="368" fill="#ADD1B2" rx="11" ry="11" style="stroke: #A80036; stroke-width: 1.0;"/><path d="M1510.7656,363.875 Q1510.9219,363.6563 1511.1094,363.5469 Q1511.2969,363.4375 1511.5156,363.4375 Q1511.8906,363.4375 1512.125,363.6953 Q1512.3594,363.9531 1512.3594,364.5625 L1512.3594,366.0156 Q1512.3594,366.625 1512.125,366.8906 Q1511.8906,367.1563 1511.5156,367.1563 Q1511.1719,367.1563 1510.9688,366.9531 Q1510.7656,366.7656 1510.6563,366.25 Q1510.6094,365.8906 1510.4219,365.7031 Q1510.0938,365.3281 1509.4844,365.1094 Q1508.875,364.8906 1508.25,364.8906 Q1507.4844,364.8906 1506.8516,365.2188 Q1506.2188,365.5469 1505.7266,366.2969 Q1505.2344,367.0469 1505.2344,368.0781 L1505.2344,369.1719 Q1505.2344,370.4063 1506.125,371.2266 Q1507.0156,372.0469 1508.6094,372.0469 Q1509.5469,372.0469 1510.2031,371.7969 Q1510.5938,371.6406 1511.0156,371.2031 Q1511.2813,370.9375 1511.4297,370.8594 Q1511.5781,370.7813 1511.7813,370.7813 Q1512.1094,370.7813 1512.3672,371.0391 Q1512.625,371.2969 1512.625,371.6406 Q1512.625,371.9844 1512.2813,372.3906 Q1511.7813,372.9688 1510.9844,373.2969 Q1509.9063,373.75 1508.6094,373.75 Q1507.0938,373.75 1505.8906,373.125 Q1504.9063,372.625 1504.2188,371.5547 Q1503.5313,370.4844 1503.5313,369.2031 L1503.5313,368.0469 Q1503.5313,366.7188 1504.1484,365.5703 Q1504.7656,364.4219 1505.8594,363.8047 Q1506.9531,363.1875 1508.1875,363.1875 Q1508.9219,363.1875 1509.5703,363.3516 Q1510.2188,363.5156 1510.7656,363.875 Z "/><text fill="#000000" font-family="sans-serif" font-size="12" lengthAdjust="spacingAndGlyphs" textLength="95" x="1522" y="372.9102">Interface (outline)</text><line style="stroke: #A80036; stroke-width: 1.5;" x1="1494" x2="1619" y1="384" y2="384"/><line style="stroke: #A80036; stroke-width: 1.5;" x1="1494" x2="1619" y1="392" y2="392"/><!--class DesignRole--><rect fill="#0000FF" filter="url(#f14lpqm9qz6yp)" height="48" id="DesignRole" style="stroke: #A80036; stroke-width: 1.5;" width="98" x="1343.5" y="226"/><rect fill="#0000FF" height="32" style="stroke: #A80036; stroke-width: 1.5;" width="98" x="1343.5" y="226"/><ellipse cx="1358.5" cy="242" fill="#ADD1B2" rx="11" ry="11" style="stroke: #A80036; stroke-width: 1.0;"/><path d="M1361.2656,237.875 Q1361.4219,237.6563 1361.6094,237.5469 Q1361.7969,237.4375 1362.0156,237.4375 Q1362.3906,237.4375 1362.625,237.6953 Q1362.8594,237.9531 1362.8594,238.5625 L1362.8594,240.0156 Q1362.8594,240.625 1362.625,240.8906 Q1362.3906,241.1563 1362.0156,241.1563 Q1361.6719,241.1563 1361.4688,240.9531 Q1361.2656,240.7656 1361.1563,240.25 Q1361.1094,239.8906 1360.9219,239.7031 Q1360.5938,239.3281 1359.9844,239.1094 Q1359.375,238.8906 1358.75,238.8906 Q1357.9844,238.8906 1357.3516,239.2188 Q1356.7188,239.5469 1356.2266,240.2969 Q1355.7344,241.0469 1355.7344,242.0781 L1355.7344,243.1719 Q1355.7344,244.4063 1356.625,245.2266 Q1357.5156,246.0469 1359.1094,246.0469 Q1360.0469,246.0469 1360.7031,245.7969 Q1361.0938,245.6406 1361.5156,245.2031 Q1361.7813,244.9375 1361.9297,244.8594 Q1362.0781,244.7813 1362.2813,244.7813 Q1362.6094,244.7813 1362.8672,245.0391 Q1363.125,245.2969 1363.125,245.6406 Q1363.125,245.9844 1362.7813,246.3906 Q1362.2813,246.9688 1361.4844,247.2969 Q1360.4063,247.75 1359.1094,247.75 Q1357.5938,247.75 1356.3906,247.125 Q1355.4063,246.625 1354.7188,245.5547 Q1354.0313,244.4844 1354.0313,243.2031 L1354.0313,242.0469 Q1354.0313,240.7188 1354.6484,239.5703 Q1355.2656,238.4219 1356.3594,237.8047 Q1357.4531,237.1875 1358.6875,237.1875 Q1359.4219,237.1875 1360.0703,237.3516 Q1360.7188,237.5156 1361.2656,237.875 Z "/><text fill="#000000" font-family="sans-serif" font-size="12" lengthAdjust="spacingAndGlyphs" textLength="66" x="1372.5" y="246.9102">DesignRole</text><line style="stroke: #A80036; stroke-width: 1.5;" x1="1344.5" x2="1440.5" y1="258" y2="258"/><line style="stroke: #A80036; stroke-width: 1.5;" x1="1344.5" x2="1440.5" y1="266" y2="266"/><!--class DesignCaseUse--><rect fill="#FF0000" filter="url(#f14lpqm9qz6yp)" height="48" id="DesignCaseUse" style="stroke: #A80036; stroke-width: 1.5;" width="155" x="906" y="226"/><rect fill="#FF0000" height="32" style="stroke: #A80036; stroke-width: 1.5;" width="155" x="906" y="226"/><ellipse cx="921" cy="242" fill="#ADD1B2" rx="11" ry="11" style="stroke: #A80036; stroke-width: 1.0;"/><path d="M923.7656,237.875 Q923.9219,237.6563 924.1094,237.5469 Q924.2969,237.4375 924.5156,237.4375 Q924.8906,237.4375 925.125,237.6953 Q925.3594,237.9531 925.3594,238.5625 L925.3594,240.0156 Q925.3594,240.625 925.125,240.8906 Q924.8906,241.1563 924.5156,241.1563 Q924.1719,241.1563 923.9688,240.9531 Q923.7656,240.7656 923.6563,240.25 Q923.6094,239.8906 923.4219,239.7031 Q923.0938,239.3281 922.4844,239.1094 Q921.875,238.8906 921.25,238.8906 Q920.4844,238.8906 919.8516,239.2188 Q919.2188,239.5469 918.7266,240.2969 Q918.2344,241.0469 918.2344,242.0781 L918.2344,243.1719 Q918.2344,244.4063 919.125,245.2266 Q920.0156,246.0469 921.6094,246.0469 Q922.5469,246.0469 923.2031,245.7969 Q923.5938,245.6406 924.0156,245.2031 Q924.2813,244.9375 924.4297,244.8594 Q924.5781,244.7813 924.7813,244.7813 Q925.1094,244.7813 925.3672,245.0391 Q925.625,245.2969 925.625,245.6406 Q925.625,245.9844 925.2813,246.3906 Q924.7813,246.9688 923.9844,247.2969 Q922.9063,247.75 921.6094,247.75 Q920.0938,247.75 918.8906,247.125 Q917.9063,246.625 917.2188,245.5547 Q916.5313,244.4844 916.5313,243.2031 L916.5313,242.0469 Q916.5313,240.7188 917.1484,239.5703 Q917.7656,238.4219 918.8594,237.8047 Q919.9531,237.1875 921.1875,237.1875 Q921.9219,237.1875 922.5703,237.3516 Q923.2188,237.5156 923.7656,237.875 Z "/><text fill="#000000" font-family="sans-serif" font-size="12" lengthAdjust="spacingAndGlyphs" textLength="123" x="935" y="246.9102">Design of Case of use</text><line style="stroke: #A80036; stroke-width: 1.5;" x1="907" x2="1060" y1="258" y2="258"/><line style="stroke: #A80036; stroke-width: 1.5;" x1="907" x2="1060" y1="266" y2="266"/><!--class EngineerUseCases--><rect fill="#0000FF" filter="url(#f14lpqm9qz6yp)" height="48" id="EngineerUseCases" style="stroke: #A80036; stroke-width: 1.5;" width="158" x="1655.5" y="352"/><rect fill="#0000FF" height="32" style="stroke: #A80036; stroke-width: 1.5;" width="158" x="1655.5" y="352"/><ellipse cx="1670.5" cy="368" fill="#ADD1B2" rx="11" ry="11" style="stroke: #A80036; stroke-width: 1.0;"/><path d="M1673.2656,363.875 Q1673.4219,363.6563 1673.6094,363.5469 Q1673.7969,363.4375 1674.0156,363.4375 Q1674.3906,363.4375 1674.625,363.6953 Q1674.8594,363.9531 1674.8594,364.5625 L1674.8594,366.0156 Q1674.8594,366.625 1674.625,366.8906 Q1674.3906,367.1563 1674.0156,367.1563 Q1673.6719,367.1563 1673.4688,366.9531 Q1673.2656,366.7656 1673.1563,366.25 Q1673.1094,365.8906 1672.9219,365.7031 Q1672.5938,365.3281 1671.9844,365.1094 Q1671.375,364.8906 1670.75,364.8906 Q1669.9844,364.8906 1669.3516,365.2188 Q1668.7188,365.5469 1668.2266,366.2969 Q1667.7344,367.0469 1667.7344,368.0781 L1667.7344,369.1719 Q1667.7344,370.4063 1668.625,371.2266 Q1669.5156,372.0469 1671.1094,372.0469 Q1672.0469,372.0469 1672.7031,371.7969 Q1673.0938,371.6406 1673.5156,371.2031 Q1673.7813,370.9375 1673.9297,370.8594 Q1674.0781,370.7813 1674.2813,370.7813 Q1674.6094,370.7813 1674.8672,371.0391 Q1675.125,371.2969 1675.125,371.6406 Q1675.125,371.9844 1674.7813,372.3906 Q1674.2813,372.9688 1673.4844,373.2969 Q1672.4063,373.75 1671.1094,373.75 Q1669.5938,373.75 1668.3906,373.125 Q1667.4063,372.625 1666.7188,371.5547 Q1666.0313,370.4844 1666.0313,369.2031 L1666.0313,368.0469 Q1666.0313,366.7188 1666.6484,365.5703 Q1667.2656,364.4219 1668.3594,363.8047 Q1669.4531,363.1875 1670.6875,363.1875 Q1671.4219,363.1875 1672.0703,363.3516 Q1672.7188,363.5156 1673.2656,363.875 Z "/><text fill="#000000" font-family="sans-serif" font-size="12" lengthAdjust="spacingAndGlyphs" textLength="126" x="1684.5" y="372.9102">Engineer of Use cases</text><line style="stroke: #A80036; stroke-width: 1.5;" x1="1656.5" x2="1812.5" y1="384" y2="384"/><line style="stroke: #A80036; stroke-width: 1.5;" x1="1656.5" x2="1812.5" y1="392" y2="392"/><!--link Activity to DesignActivity--><path d="M1310.21,74.127 C1302.36,88.602 1293.82,104.357 1287.06,116.828 " fill="none" id="Activity-DesignActivity" style="stroke: #A80036; stroke-width: 1.0;"/><polygon fill="none" points="1304.23,70.465,1319.91,56.217,1316.54,77.136,1304.23,70.465" style="stroke: #A80036; stroke-width: 1.0;"/><!--link Activity to Role--><path d="M1345.52,56.217 C1354.72,72.623 1367.09,94.692 1376.83,112.062 " fill="none" id="Activity-Role" style="stroke: #A80036; stroke-width: 1.0;"/><polygon fill="#A80036" points="1379.51,116.828,1378.6065,107.0207,1377.0687,112.4645,1371.6249,110.9267,1379.51,116.828" style="stroke: #A80036; stroke-width: 1.0;"/><!--link DesignActivity to DesignRole--><path d="M1300.1,165.217 C1318.66,182.043 1343.79,204.827 1363.15,222.389 " fill="none" id="DesignActivity-DesignRole" style="stroke: #A80036; stroke-width: 1.0;"/><polygon fill="#A80036" points="1366.95,225.828,1362.9674,216.8203,1363.2451,222.4703,1357.5951,222.7481,1366.95,225.828" style="stroke: #A80036; stroke-width: 1.0;"/><!--link DesignActivity to DesignCaseUse--><path d="M1201.89,168.698 C1154.03,186.297 1091.98,209.113 1046.26,225.924 " fill="none" id="DesignActivity-DesignCaseUse" style="stroke: #A80036; stroke-width: 1.0;"/><polygon fill="none" points="1199.6,162.082,1220.79,161.75,1204.43,175.222,1199.6,162.082" style="stroke: #A80036; stroke-width: 1.0;"/><!--link DesignCaseUse to ModelUseCases--><path d="M905.863,256.911 C759.743,268.844 434.284,299.269 164.5,352 C160.577,352.7668 156.57,353.6067 152.533,354.498 " fill="none" id="DesignCaseUse-ModelUseCases" style="stroke: #A80036; stroke-width: 1.0;"/><polygon fill="#A80036" points="147.408,355.6527,157.0669,357.5775,152.2858,354.5541,155.3092,349.773,147.408,355.6527" style="stroke: #A80036; stroke-width: 1.0;"/><text fill="#000000" font-family="sans-serif" font-size="13" lengthAdjust="spacingAndGlyphs" textLength="10" x="457.5" y="318.4951">in</text><!--link DesignCaseUse to RequirementsSupplementary--><path d="M905.847,262.389 C837.257,272.637 734.583,288.434 645.5,304 C534.478,323.3992 507.11,330.3734 396.5,352 C392.445,352.7929 388.311,353.6032 384.134,354.4234 " fill="none" id="DesignCaseUse-RequirementsSupplementary" style="stroke: #A80036; stroke-width: 1.0;"/><polygon fill="#A80036" points="379.215,355.3902,388.8175,357.5794,384.1211,354.4259,387.2746,349.7296,379.215,355.3902" style="stroke: #A80036; stroke-width: 1.0;"/><text fill="#000000" font-family="sans-serif" font-size="13" lengthAdjust="spacingAndGlyphs" textLength="10" x="646.5" y="318.4951">in</text><!--link DesignCaseUse to AnalysisModel--><path d="M905.924,267.055 C818.038,285.668 670.742,318.1474 545.5,352 C541.665,353.0367 537.729,354.1402 533.768,355.2815 " fill="none" id="DesignCaseUse-AnalysisModel" style="stroke: #A80036; stroke-width: 1.0;"/><polygon fill="#A80036" points="528.743,356.745,538.5026,358.068,533.5434,355.3465,536.2649,350.3873,528.743,356.745" style="stroke: #A80036; stroke-width: 1.0;"/><text fill="#000000" font-family="sans-serif" font-size="13" lengthAdjust="spacingAndGlyphs" textLength="10" x="738.5" y="318.4951">in</text><!--link DesignCaseUse to DesignModel--><path d="M915.516,274.033 C846.913,297.276 742.043,332.8051 676.74,354.9297 " fill="none" id="DesignCaseUse-DesignModel" style="stroke: #A80036; stroke-width: 1.0;"/><polygon fill="#A80036" points="671.718,356.6312,681.5256,357.532,676.4536,355.0269,678.9588,349.955,671.718,356.6312" style="stroke: #A80036; stroke-width: 1.0;"/><text fill="#000000" font-family="sans-serif" font-size="13" lengthAdjust="spacingAndGlyphs" textLength="10" x="823.5" y="318.4951">in</text><!--link DesignCaseUse to DeploymentModel--><path d="M944.493,274.033 C908.361,295.368 854.696,327.0557 817.151,349.2253 " fill="none" id="DesignCaseUse-DeploymentModel" style="stroke: #A80036; stroke-width: 1.0;"/><polygon fill="#A80036" points="812.654,351.8804,822.4378,350.7501,816.9598,349.3387,818.3711,343.8608,812.654,351.8804" style="stroke: #A80036; stroke-width: 1.0;"/><text fill="#000000" font-family="sans-serif" font-size="13" lengthAdjust="spacingAndGlyphs" textLength="10" x="892.5" y="318.4951">in</text><!--link DesignCaseUse to CompletionUseCase--><path d="M983.5,274.033 C983.5,294.522 983.5,324.5607 983.5,346.5464 " fill="none" id="DesignCaseUse-CompletionUseCase" style="stroke: #A80036; stroke-width: 1.0;"/><polygon fill="#A80036" points="983.5,351.6697,987.5,342.6697,983.5,346.6697,979.5,342.6697,983.5,351.6697" style="stroke: #A80036; stroke-width: 1.0;"/><text fill="#000000" font-family="sans-serif" font-size="13" lengthAdjust="spacingAndGlyphs" textLength="18" x="984.5" y="318.4951">out</text><!--link DesignCaseUse to DesignClass--><path d="M1024.36,274.033 C1062.22,295.368 1118.44,327.0557 1157.77,349.2253 " fill="none" id="DesignCaseUse-DesignClass" style="stroke: #A80036; stroke-width: 1.0;"/><polygon fill="#A80036" points="1162.48,351.8804,1156.5868,343.9893,1158.119,349.4347,1152.6736,350.9669,1162.48,351.8804" style="stroke: #A80036; stroke-width: 1.0;"/><text fill="#000000" font-family="sans-serif" font-size="13" lengthAdjust="spacingAndGlyphs" textLength="18" x="1108.5" y="318.4951">out</text><!--link DesignCaseUse to Subsystem--><path d="M1058.36,274.033 C1130.16,296.125 1238.03,329.3182 1310.29,351.5492 " fill="none" id="DesignCaseUse-Subsystem" style="stroke: #A80036; stroke-width: 1.0;"/><polygon fill="#A80036" points="1315.42,353.1306,1307.9955,346.6593,1310.6414,351.6593,1305.6414,354.3051,1315.42,353.1306" style="stroke: #A80036; stroke-width: 1.0;"/><text fill="#000000" font-family="sans-serif" font-size="13" lengthAdjust="spacingAndGlyphs" textLength="18" x="1210.5" y="318.4951">out</text><!--link DesignCaseUse to Interface--><path d="M1061.26,265.239 C1158.39,283.426 1329.46,316.788 1474.5,352 C1478.83,353.0503 1483.27,354.1717 1487.74,355.3329 " fill="none" id="DesignCaseUse-Interface" style="stroke: #A80036; stroke-width: 1.0;"/><polygon fill="#A80036" points="1492.6,356.6071,1484.9127,350.4503,1487.7643,355.3359,1482.8788,358.1874,1492.6,356.6071" style="stroke: #A80036; stroke-width: 1.0;"/><text fill="#000000" font-family="sans-serif" font-size="13" lengthAdjust="spacingAndGlyphs" textLength="18" x="1341.5" y="318.4951">out</text><!--link DesignCaseUse to EngineerUseCases--><path d="M1061.23,260.371 C1184.22,275.789 1430.94,309.1176 1637.5,352 C1641.7,352.8724 1646,353.7915 1650.34,354.7402 " fill="none" id="DesignCaseUse-EngineerUseCases" style="stroke: #A80036; stroke-width: 1.0;"/><polygon fill="#A80036" points="1655.44,355.8665,1647.5065,350.0304,1650.5562,354.7948,1645.7918,357.8445,1655.44,355.8665" style="stroke: #A80036; stroke-width: 1.0;"/><!--link Role to DesignRole--><path d="M1392.5,185.578 C1392.5,199.362 1392.5,214.057 1392.5,225.828 " fill="none" id="Role-DesignRole" style="stroke: #A80036; stroke-width: 1.0;"/><polygon fill="none" points="1385.5,185.217,1392.5,165.217,1399.5,185.217,1385.5,185.217" style="stroke: #A80036; stroke-width: 1.0;"/><!--link DesignRole to EngineerUseCases--><path d="M1461.85,251.665 C1521.32,255.029 1607.45,266.752 1672.5,304 C1692.52,315.4654 1709.3,335.8395 1720.33,351.8307 " fill="none" id="DesignRole-EngineerUseCases" style="stroke: #A80036; stroke-width: 1.0;"/><polygon fill="none" points="1461.29,258.648,1441.61,250.784,1461.9,244.661,1461.29,258.648" style="stroke: #A80036; stroke-width: 1.0;"/><!--
@startuml

class Activity #red
Activity <|- - DesignActivity
Activity - -> Role

class "Model of Use cases" as ModelUseCases #green
class "Requirements Supplementary" as RequirementsSupplementary #green
class "Analysis Model" as AnalysisModel #green
class "Design Model" as DesignModel #green
class "Deployment Model" as DeploymentModel #green
class "Completion of Use Case (outline)" as CompletionUseCase #green
class "Design class (outline)" as DesignClass #green
class "Subsystem (outline)" as Subsystem #green
class "Interface (outline)" as Interface #green

class DesignActivity #red
DesignActivity - -> DesignRole

class "Design of Case of use" as DesignCaseUse #red
DesignActivity <|- - DesignCaseUse

DesignCaseUse - -> ModelUseCases :in
DesignCaseUse - -> RequirementsSupplementary :in
DesignCaseUse - -> AnalysisModel :in
DesignCaseUse - -> DesignModel :in
DesignCaseUse - -> DeploymentModel :in
DesignCaseUse - -> CompletionUseCase :out
DesignCaseUse - -> DesignClass :out
DesignCaseUse - -> Subsystem :out
DesignCaseUse - -> Interface :out

class Role #blue
class DesignRole #blue
class "Engineer of Use cases" as EngineerUseCases #blue

DesignCaseUse - -> EngineerUseCases

Role <|- - DesignRole
DesignRole <|- - EngineerUseCases
@enduml

PlantUML version 1.2019.05(Sat Apr 20 18:45:36 CEST 2019)
(GPL source distribution)
Java Runtime: OpenJDK Runtime Environment
JVM: OpenJDK 64-Bit Server VM
Java Version: 1.8.0_222-b10
Operating System: Windows 10
OS Version: 10.0
Default Encoding: windows-1252
Language: es
Country: ES
--></g></svg>