<?xml version="1.0" encoding="UTF-8" standalone="no"?><svg xmlns="http://www.w3.org/2000/svg" xmlns:xlink="http://www.w3.org/1999/xlink" contentScriptType="application/ecmascript" contentStyleType="text/css" height="433px" preserveAspectRatio="none" style="width:1203px;height:433px;" version="1.1" viewBox="0 0 1203 433" width="1203px" zoomAndPan="magnify"><defs><filter height="300%" id="f115ybj8l4ug32" width="300%" x="-1" y="-1"><feGaussianBlur result="blurOut" stdDeviation="2.0"/><feColorMatrix in="blurOut" result="blurOut2" type="matrix" values="0 0 0 0 0 0 0 0 0 0 0 0 0 0 0 0 0 0 .4 0"/><feOffset dx="4.0" dy="4.0" in="blurOut2" result="blurOut3"/><feBlend in="SourceGraphic" in2="blurOut3" mode="normal"/></filter></defs><g><text fill="#000000" font-family="sans-serif" font-size="18" lengthAdjust="spacingAndGlyphs" textLength="149" x="531" y="18.6855">Design Subsystem</text><!--class Activity--><rect fill="#FF0000" filter="url(#f115ybj8l4ug32)" height="48" id="Activity" style="stroke: #A80036; stroke-width: 1.5;" width="67" x="858" y="30.6406"/><rect fill="#FF0000" height="32" style="stroke: #A80036; stroke-width: 1.5;" width="67" x="858" y="30.6406"/><ellipse cx="873" cy="46.6406" fill="#ADD1B2" rx="11" ry="11" style="stroke: #A80036; stroke-width: 1.0;"/><path d="M875.7656,42.5156 Q875.9219,42.2969 876.1094,42.1875 Q876.2969,42.0781 876.5156,42.0781 Q876.8906,42.0781 877.125,42.3359 Q877.3594,42.5938 877.3594,43.2031 L877.3594,44.6563 Q877.3594,45.2656 877.125,45.5313 Q876.8906,45.7969 876.5156,45.7969 Q876.1719,45.7969 875.9688,45.5938 Q875.7656,45.4063 875.6563,44.8906 Q875.6094,44.5313 875.4219,44.3438 Q875.0938,43.9688 874.4844,43.75 Q873.875,43.5313 873.25,43.5313 Q872.4844,43.5313 871.8516,43.8594 Q871.2188,44.1875 870.7266,44.9375 Q870.2344,45.6875 870.2344,46.7188 L870.2344,47.8125 Q870.2344,49.0469 871.125,49.8672 Q872.0156,50.6875 873.6094,50.6875 Q874.5469,50.6875 875.2031,50.4375 Q875.5938,50.2813 876.0156,49.8438 Q876.2813,49.5781 876.4297,49.5 Q876.5781,49.4219 876.7813,49.4219 Q877.1094,49.4219 877.3672,49.6797 Q877.625,49.9375 877.625,50.2813 Q877.625,50.625 877.2813,51.0313 Q876.7813,51.6094 875.9844,51.9375 Q874.9063,52.3906 873.6094,52.3906 Q872.0938,52.3906 870.8906,51.7656 Q869.9063,51.2656 869.2188,50.1953 Q868.5313,49.125 868.5313,47.8438 L868.5313,46.6875 Q868.5313,45.3594 869.1484,44.2109 Q869.7656,43.0625 870.8594,42.4453 Q871.9531,41.8281 873.1875,41.8281 Q873.9219,41.8281 874.5703,41.9922 Q875.2188,42.1563 875.7656,42.5156 Z "/><text fill="#000000" font-family="sans-serif" font-size="12" lengthAdjust="spacingAndGlyphs" textLength="35" x="887" y="51.5508">Activity</text><line style="stroke: #A80036; stroke-width: 1.5;" x1="859" x2="924" y1="62.6406" y2="62.6406"/><line style="stroke: #A80036; stroke-width: 1.5;" x1="859" x2="924" y1="70.6406" y2="70.6406"/><!--class DesignActivity--><rect fill="#FF0000" filter="url(#f115ybj8l4ug32)" height="48" id="DesignActivity" style="stroke: #A80036; stroke-width: 1.5;" width="107" x="780" y="139.6406"/><rect fill="#FF0000" height="32" style="stroke: #A80036; stroke-width: 1.5;" width="107" x="780" y="139.6406"/><ellipse cx="795" cy="155.6406" fill="#ADD1B2" rx="11" ry="11" style="stroke: #A80036; stroke-width: 1.0;"/><path d="M797.7656,151.5156 Q797.9219,151.2969 798.1094,151.1875 Q798.2969,151.0781 798.5156,151.0781 Q798.8906,151.0781 799.125,151.3359 Q799.3594,151.5938 799.3594,152.2031 L799.3594,153.6563 Q799.3594,154.2656 799.125,154.5313 Q798.8906,154.7969 798.5156,154.7969 Q798.1719,154.7969 797.9688,154.5938 Q797.7656,154.4063 797.6563,153.8906 Q797.6094,153.5313 797.4219,153.3438 Q797.0938,152.9688 796.4844,152.75 Q795.875,152.5313 795.25,152.5313 Q794.4844,152.5313 793.8516,152.8594 Q793.2188,153.1875 792.7266,153.9375 Q792.2344,154.6875 792.2344,155.7188 L792.2344,156.8125 Q792.2344,158.0469 793.125,158.8672 Q794.0156,159.6875 795.6094,159.6875 Q796.5469,159.6875 797.2031,159.4375 Q797.5938,159.2813 798.0156,158.8438 Q798.2813,158.5781 798.4297,158.5 Q798.5781,158.4219 798.7813,158.4219 Q799.1094,158.4219 799.3672,158.6797 Q799.625,158.9375 799.625,159.2813 Q799.625,159.625 799.2813,160.0313 Q798.7813,160.6094 797.9844,160.9375 Q796.9063,161.3906 795.6094,161.3906 Q794.0938,161.3906 792.8906,160.7656 Q791.9063,160.2656 791.2188,159.1953 Q790.5313,158.125 790.5313,156.8438 L790.5313,155.6875 Q790.5313,154.3594 791.1484,153.2109 Q791.7656,152.0625 792.8594,151.4453 Q793.9531,150.8281 795.1875,150.8281 Q795.9219,150.8281 796.5703,150.9922 Q797.2188,151.1563 797.7656,151.5156 Z "/><text fill="#000000" font-family="sans-serif" font-size="12" lengthAdjust="spacingAndGlyphs" textLength="75" x="809" y="160.5508">DesignActivity</text><line style="stroke: #A80036; stroke-width: 1.5;" x1="781" x2="886" y1="171.6406" y2="171.6406"/><line style="stroke: #A80036; stroke-width: 1.5;" x1="781" x2="886" y1="179.6406" y2="179.6406"/><!--class Role--><rect fill="#0000FF" filter="url(#f115ybj8l4ug32)" height="48" id="Role" style="stroke: #A80036; stroke-width: 1.5;" width="58" x="922.5" y="139.6406"/><rect fill="#0000FF" height="32" style="stroke: #A80036; stroke-width: 1.5;" width="58" x="922.5" y="139.6406"/><ellipse cx="937.5" cy="155.6406" fill="#ADD1B2" rx="11" ry="11" style="stroke: #A80036; stroke-width: 1.0;"/><path d="M940.2656,151.5156 Q940.4219,151.2969 940.6094,151.1875 Q940.7969,151.0781 941.0156,151.0781 Q941.3906,151.0781 941.625,151.3359 Q941.8594,151.5938 941.8594,152.2031 L941.8594,153.6563 Q941.8594,154.2656 941.625,154.5313 Q941.3906,154.7969 941.0156,154.7969 Q940.6719,154.7969 940.4688,154.5938 Q940.2656,154.4063 940.1563,153.8906 Q940.1094,153.5313 939.9219,153.3438 Q939.5938,152.9688 938.9844,152.75 Q938.375,152.5313 937.75,152.5313 Q936.9844,152.5313 936.3516,152.8594 Q935.7188,153.1875 935.2266,153.9375 Q934.7344,154.6875 934.7344,155.7188 L934.7344,156.8125 Q934.7344,158.0469 935.625,158.8672 Q936.5156,159.6875 938.1094,159.6875 Q939.0469,159.6875 939.7031,159.4375 Q940.0938,159.2813 940.5156,158.8438 Q940.7813,158.5781 940.9297,158.5 Q941.0781,158.4219 941.2813,158.4219 Q941.6094,158.4219 941.8672,158.6797 Q942.125,158.9375 942.125,159.2813 Q942.125,159.625 941.7813,160.0313 Q941.2813,160.6094 940.4844,160.9375 Q939.4063,161.3906 938.1094,161.3906 Q936.5938,161.3906 935.3906,160.7656 Q934.4063,160.2656 933.7188,159.1953 Q933.0313,158.125 933.0313,156.8438 L933.0313,155.6875 Q933.0313,154.3594 933.6484,153.2109 Q934.2656,152.0625 935.3594,151.4453 Q936.4531,150.8281 937.6875,150.8281 Q938.4219,150.8281 939.0703,150.9922 Q939.7188,151.1563 940.2656,151.5156 Z "/><text fill="#000000" font-family="sans-serif" font-size="12" lengthAdjust="spacingAndGlyphs" textLength="26" x="951.5" y="160.5508">Role</text><line style="stroke: #A80036; stroke-width: 1.5;" x1="923.5" x2="979.5" y1="171.6406" y2="171.6406"/><line style="stroke: #A80036; stroke-width: 1.5;" x1="923.5" x2="979.5" y1="179.6406" y2="179.6406"/><!--class DescriptionArchitecture--><rect fill="#008000" filter="url(#f115ybj8l4ug32)" height="48" id="DescriptionArchitecture" style="stroke: #A80036; stroke-width: 1.5;" width="309" x="6" y="374.6406"/><rect fill="#008000" height="32" style="stroke: #A80036; stroke-width: 1.5;" width="309" x="6" y="374.6406"/><ellipse cx="21" cy="390.6406" fill="#ADD1B2" rx="11" ry="11" style="stroke: #A80036; stroke-width: 1.0;"/><path d="M23.7656,386.5156 Q23.9219,386.2969 24.1094,386.1875 Q24.2969,386.0781 24.5156,386.0781 Q24.8906,386.0781 25.125,386.3359 Q25.3594,386.5938 25.3594,387.2031 L25.3594,388.6563 Q25.3594,389.2656 25.125,389.5313 Q24.8906,389.7969 24.5156,389.7969 Q24.1719,389.7969 23.9688,389.5938 Q23.7656,389.4063 23.6563,388.8906 Q23.6094,388.5313 23.4219,388.3438 Q23.0938,387.9688 22.4844,387.75 Q21.875,387.5313 21.25,387.5313 Q20.4844,387.5313 19.8516,387.8594 Q19.2188,388.1875 18.7266,388.9375 Q18.2344,389.6875 18.2344,390.7188 L18.2344,391.8125 Q18.2344,393.0469 19.125,393.8672 Q20.0156,394.6875 21.6094,394.6875 Q22.5469,394.6875 23.2031,394.4375 Q23.5938,394.2813 24.0156,393.8438 Q24.2813,393.5781 24.4297,393.5 Q24.5781,393.4219 24.7813,393.4219 Q25.1094,393.4219 25.3672,393.6797 Q25.625,393.9375 25.625,394.2813 Q25.625,394.625 25.2813,395.0313 Q24.7813,395.6094 23.9844,395.9375 Q22.9063,396.3906 21.6094,396.3906 Q20.0938,396.3906 18.8906,395.7656 Q17.9063,395.2656 17.2188,394.1953 Q16.5313,393.125 16.5313,391.8438 L16.5313,390.6875 Q16.5313,389.3594 17.1484,388.2109 Q17.7656,387.0625 18.8594,386.4453 Q19.9531,385.8281 21.1875,385.8281 Q21.9219,385.8281 22.5703,385.9922 Q23.2188,386.1563 23.7656,386.5156 Z "/><text fill="#000000" font-family="sans-serif" font-size="12" lengthAdjust="spacingAndGlyphs" textLength="277" x="35" y="395.5508">Description of the Architecture (Design Model view)</text><line style="stroke: #A80036; stroke-width: 1.5;" x1="7" x2="314" y1="406.6406" y2="406.6406"/><line style="stroke: #A80036; stroke-width: 1.5;" x1="7" x2="314" y1="414.6406" y2="414.6406"/><!--class Subsystem--><rect fill="#008000" filter="url(#f115ybj8l4ug32)" height="48" id="Subsystem" style="stroke: #A80036; stroke-width: 1.5;" width="142" x="350.5" y="374.6406"/><rect fill="#008000" height="32" style="stroke: #A80036; stroke-width: 1.5;" width="142" x="350.5" y="374.6406"/><ellipse cx="365.5" cy="390.6406" fill="#ADD1B2" rx="11" ry="11" style="stroke: #A80036; stroke-width: 1.0;"/><path d="M368.2656,386.5156 Q368.4219,386.2969 368.6094,386.1875 Q368.7969,386.0781 369.0156,386.0781 Q369.3906,386.0781 369.625,386.3359 Q369.8594,386.5938 369.8594,387.2031 L369.8594,388.6563 Q369.8594,389.2656 369.625,389.5313 Q369.3906,389.7969 369.0156,389.7969 Q368.6719,389.7969 368.4688,389.5938 Q368.2656,389.4063 368.1563,388.8906 Q368.1094,388.5313 367.9219,388.3438 Q367.5938,387.9688 366.9844,387.75 Q366.375,387.5313 365.75,387.5313 Q364.9844,387.5313 364.3516,387.8594 Q363.7188,388.1875 363.2266,388.9375 Q362.7344,389.6875 362.7344,390.7188 L362.7344,391.8125 Q362.7344,393.0469 363.625,393.8672 Q364.5156,394.6875 366.1094,394.6875 Q367.0469,394.6875 367.7031,394.4375 Q368.0938,394.2813 368.5156,393.8438 Q368.7813,393.5781 368.9297,393.5 Q369.0781,393.4219 369.2813,393.4219 Q369.6094,393.4219 369.8672,393.6797 Q370.125,393.9375 370.125,394.2813 Q370.125,394.625 369.7813,395.0313 Q369.2813,395.6094 368.4844,395.9375 Q367.4063,396.3906 366.1094,396.3906 Q364.5938,396.3906 363.3906,395.7656 Q362.4063,395.2656 361.7188,394.1953 Q361.0313,393.125 361.0313,391.8438 L361.0313,390.6875 Q361.0313,389.3594 361.6484,388.2109 Q362.2656,387.0625 363.3594,386.4453 Q364.4531,385.8281 365.6875,385.8281 Q366.4219,385.8281 367.0703,385.9922 Q367.7188,386.1563 368.2656,386.5156 Z "/><text fill="#000000" font-family="sans-serif" font-size="12" lengthAdjust="spacingAndGlyphs" textLength="110" x="379.5" y="395.5508">Subsystem (outline)</text><line style="stroke: #A80036; stroke-width: 1.5;" x1="351.5" x2="491.5" y1="406.6406" y2="406.6406"/><line style="stroke: #A80036; stroke-width: 1.5;" x1="351.5" x2="491.5" y1="414.6406" y2="414.6406"/><!--class Interface--><rect fill="#008000" filter="url(#f115ybj8l4ug32)" height="48" id="Interface" style="stroke: #A80036; stroke-width: 1.5;" width="127" x="528" y="374.6406"/><rect fill="#008000" height="32" style="stroke: #A80036; stroke-width: 1.5;" width="127" x="528" y="374.6406"/><ellipse cx="543" cy="390.6406" fill="#ADD1B2" rx="11" ry="11" style="stroke: #A80036; stroke-width: 1.0;"/><path d="M545.7656,386.5156 Q545.9219,386.2969 546.1094,386.1875 Q546.2969,386.0781 546.5156,386.0781 Q546.8906,386.0781 547.125,386.3359 Q547.3594,386.5938 547.3594,387.2031 L547.3594,388.6563 Q547.3594,389.2656 547.125,389.5313 Q546.8906,389.7969 546.5156,389.7969 Q546.1719,389.7969 545.9688,389.5938 Q545.7656,389.4063 545.6563,388.8906 Q545.6094,388.5313 545.4219,388.3438 Q545.0938,387.9688 544.4844,387.75 Q543.875,387.5313 543.25,387.5313 Q542.4844,387.5313 541.8516,387.8594 Q541.2188,388.1875 540.7266,388.9375 Q540.2344,389.6875 540.2344,390.7188 L540.2344,391.8125 Q540.2344,393.0469 541.125,393.8672 Q542.0156,394.6875 543.6094,394.6875 Q544.5469,394.6875 545.2031,394.4375 Q545.5938,394.2813 546.0156,393.8438 Q546.2813,393.5781 546.4297,393.5 Q546.5781,393.4219 546.7813,393.4219 Q547.1094,393.4219 547.3672,393.6797 Q547.625,393.9375 547.625,394.2813 Q547.625,394.625 547.2813,395.0313 Q546.7813,395.6094 545.9844,395.9375 Q544.9063,396.3906 543.6094,396.3906 Q542.0938,396.3906 540.8906,395.7656 Q539.9063,395.2656 539.2188,394.1953 Q538.5313,393.125 538.5313,391.8438 L538.5313,390.6875 Q538.5313,389.3594 539.1484,388.2109 Q539.7656,387.0625 540.8594,386.4453 Q541.9531,385.8281 543.1875,385.8281 Q543.9219,385.8281 544.5703,385.9922 Q545.2188,386.1563 545.7656,386.5156 Z "/><text fill="#000000" font-family="sans-serif" font-size="12" lengthAdjust="spacingAndGlyphs" textLength="95" x="557" y="395.5508">Interface (outline)</text><line style="stroke: #A80036; stroke-width: 1.5;" x1="529" x2="654" y1="406.6406" y2="406.6406"/><line style="stroke: #A80036; stroke-width: 1.5;" x1="529" x2="654" y1="414.6406" y2="414.6406"/><!--class SubsystemX--><rect fill="#008000" filter="url(#f115ybj8l4ug32)" height="48" id="SubsystemX" style="stroke: #A80036; stroke-width: 1.5;" width="121" x="690" y="374.6406"/><rect fill="#008000" height="32" style="stroke: #A80036; stroke-width: 1.5;" width="121" x="690" y="374.6406"/><ellipse cx="705" cy="390.6406" fill="#ADD1B2" rx="11" ry="11" style="stroke: #A80036; stroke-width: 1.0;"/><path d="M707.7656,386.5156 Q707.9219,386.2969 708.1094,386.1875 Q708.2969,386.0781 708.5156,386.0781 Q708.8906,386.0781 709.125,386.3359 Q709.3594,386.5938 709.3594,387.2031 L709.3594,388.6563 Q709.3594,389.2656 709.125,389.5313 Q708.8906,389.7969 708.5156,389.7969 Q708.1719,389.7969 707.9688,389.5938 Q707.7656,389.4063 707.6563,388.8906 Q707.6094,388.5313 707.4219,388.3438 Q707.0938,387.9688 706.4844,387.75 Q705.875,387.5313 705.25,387.5313 Q704.4844,387.5313 703.8516,387.8594 Q703.2188,388.1875 702.7266,388.9375 Q702.2344,389.6875 702.2344,390.7188 L702.2344,391.8125 Q702.2344,393.0469 703.125,393.8672 Q704.0156,394.6875 705.6094,394.6875 Q706.5469,394.6875 707.2031,394.4375 Q707.5938,394.2813 708.0156,393.8438 Q708.2813,393.5781 708.4297,393.5 Q708.5781,393.4219 708.7813,393.4219 Q709.1094,393.4219 709.3672,393.6797 Q709.625,393.9375 709.625,394.2813 Q709.625,394.625 709.2813,395.0313 Q708.7813,395.6094 707.9844,395.9375 Q706.9063,396.3906 705.6094,396.3906 Q704.0938,396.3906 702.8906,395.7656 Q701.9063,395.2656 701.2188,394.1953 Q700.5313,393.125 700.5313,391.8438 L700.5313,390.6875 Q700.5313,389.3594 701.1484,388.2109 Q701.7656,387.0625 702.8594,386.4453 Q703.9531,385.8281 705.1875,385.8281 Q705.9219,385.8281 706.5703,385.9922 Q707.2188,386.1563 707.7656,386.5156 Z "/><text fill="#000000" font-family="sans-serif" font-size="12" lengthAdjust="spacingAndGlyphs" textLength="89" x="719" y="395.5508">Subsystem (full)</text><line style="stroke: #A80036; stroke-width: 1.5;" x1="691" x2="810" y1="406.6406" y2="406.6406"/><line style="stroke: #A80036; stroke-width: 1.5;" x1="691" x2="810" y1="414.6406" y2="414.6406"/><!--class InterfaceX--><rect fill="#008000" filter="url(#f115ybj8l4ug32)" height="48" id="InterfaceX" style="stroke: #A80036; stroke-width: 1.5;" width="141" x="846" y="374.6406"/><rect fill="#008000" height="32" style="stroke: #A80036; stroke-width: 1.5;" width="141" x="846" y="374.6406"/><ellipse cx="861" cy="390.6406" fill="#ADD1B2" rx="11" ry="11" style="stroke: #A80036; stroke-width: 1.0;"/><path d="M863.7656,386.5156 Q863.9219,386.2969 864.1094,386.1875 Q864.2969,386.0781 864.5156,386.0781 Q864.8906,386.0781 865.125,386.3359 Q865.3594,386.5938 865.3594,387.2031 L865.3594,388.6563 Q865.3594,389.2656 865.125,389.5313 Q864.8906,389.7969 864.5156,389.7969 Q864.1719,389.7969 863.9688,389.5938 Q863.7656,389.4063 863.6563,388.8906 Q863.6094,388.5313 863.4219,388.3438 Q863.0938,387.9688 862.4844,387.75 Q861.875,387.5313 861.25,387.5313 Q860.4844,387.5313 859.8516,387.8594 Q859.2188,388.1875 858.7266,388.9375 Q858.2344,389.6875 858.2344,390.7188 L858.2344,391.8125 Q858.2344,393.0469 859.125,393.8672 Q860.0156,394.6875 861.6094,394.6875 Q862.5469,394.6875 863.2031,394.4375 Q863.5938,394.2813 864.0156,393.8438 Q864.2813,393.5781 864.4297,393.5 Q864.5781,393.4219 864.7813,393.4219 Q865.1094,393.4219 865.3672,393.6797 Q865.625,393.9375 865.625,394.2813 Q865.625,394.625 865.2813,395.0313 Q864.7813,395.6094 863.9844,395.9375 Q862.9063,396.3906 861.6094,396.3906 Q860.0938,396.3906 858.8906,395.7656 Q857.9063,395.2656 857.2188,394.1953 Q856.5313,393.125 856.5313,391.8438 L856.5313,390.6875 Q856.5313,389.3594 857.1484,388.2109 Q857.7656,387.0625 858.8594,386.4453 Q859.9531,385.8281 861.1875,385.8281 Q861.9219,385.8281 862.5703,385.9922 Q863.2188,386.1563 863.7656,386.5156 Z "/><text fill="#000000" font-family="sans-serif" font-size="12" lengthAdjust="spacingAndGlyphs" textLength="109" x="875" y="395.5508">Interface (complete)</text><line style="stroke: #A80036; stroke-width: 1.5;" x1="847" x2="986" y1="406.6406" y2="406.6406"/><line style="stroke: #A80036; stroke-width: 1.5;" x1="847" x2="986" y1="414.6406" y2="414.6406"/><!--class DesignRole--><rect fill="#0000FF" filter="url(#f115ybj8l4ug32)" height="48" id="DesignRole" style="stroke: #A80036; stroke-width: 1.5;" width="98" x="902.5" y="248.6406"/><rect fill="#0000FF" height="32" style="stroke: #A80036; stroke-width: 1.5;" width="98" x="902.5" y="248.6406"/><ellipse cx="917.5" cy="264.6406" fill="#ADD1B2" rx="11" ry="11" style="stroke: #A80036; stroke-width: 1.0;"/><path d="M920.2656,260.5156 Q920.4219,260.2969 920.6094,260.1875 Q920.7969,260.0781 921.0156,260.0781 Q921.3906,260.0781 921.625,260.3359 Q921.8594,260.5938 921.8594,261.2031 L921.8594,262.6563 Q921.8594,263.2656 921.625,263.5313 Q921.3906,263.7969 921.0156,263.7969 Q920.6719,263.7969 920.4688,263.5938 Q920.2656,263.4063 920.1563,262.8906 Q920.1094,262.5313 919.9219,262.3438 Q919.5938,261.9688 918.9844,261.75 Q918.375,261.5313 917.75,261.5313 Q916.9844,261.5313 916.3516,261.8594 Q915.7188,262.1875 915.2266,262.9375 Q914.7344,263.6875 914.7344,264.7188 L914.7344,265.8125 Q914.7344,267.0469 915.625,267.8672 Q916.5156,268.6875 918.1094,268.6875 Q919.0469,268.6875 919.7031,268.4375 Q920.0938,268.2813 920.5156,267.8438 Q920.7813,267.5781 920.9297,267.5 Q921.0781,267.4219 921.2813,267.4219 Q921.6094,267.4219 921.8672,267.6797 Q922.125,267.9375 922.125,268.2813 Q922.125,268.625 921.7813,269.0313 Q921.2813,269.6094 920.4844,269.9375 Q919.4063,270.3906 918.1094,270.3906 Q916.5938,270.3906 915.3906,269.7656 Q914.4063,269.2656 913.7188,268.1953 Q913.0313,267.125 913.0313,265.8438 L913.0313,264.6875 Q913.0313,263.3594 913.6484,262.2109 Q914.2656,261.0625 915.3594,260.4453 Q916.4531,259.8281 917.6875,259.8281 Q918.4219,259.8281 919.0703,259.9922 Q919.7188,260.1563 920.2656,260.5156 Z "/><text fill="#000000" font-family="sans-serif" font-size="12" lengthAdjust="spacingAndGlyphs" textLength="66" x="931.5" y="269.5508">DesignRole</text><line style="stroke: #A80036; stroke-width: 1.5;" x1="903.5" x2="999.5" y1="280.6406" y2="280.6406"/><line style="stroke: #A80036; stroke-width: 1.5;" x1="903.5" x2="999.5" y1="288.6406" y2="288.6406"/><!--class DesignSubsystem--><rect fill="#FF0000" filter="url(#f115ybj8l4ug32)" height="48" id="DesignSubsystem" style="stroke: #A80036; stroke-width: 1.5;" width="137" x="682" y="248.6406"/><rect fill="#FF0000" height="32" style="stroke: #A80036; stroke-width: 1.5;" width="137" x="682" y="248.6406"/><ellipse cx="697" cy="264.6406" fill="#ADD1B2" rx="11" ry="11" style="stroke: #A80036; stroke-width: 1.0;"/><path d="M699.7656,260.5156 Q699.9219,260.2969 700.1094,260.1875 Q700.2969,260.0781 700.5156,260.0781 Q700.8906,260.0781 701.125,260.3359 Q701.3594,260.5938 701.3594,261.2031 L701.3594,262.6563 Q701.3594,263.2656 701.125,263.5313 Q700.8906,263.7969 700.5156,263.7969 Q700.1719,263.7969 699.9688,263.5938 Q699.7656,263.4063 699.6563,262.8906 Q699.6094,262.5313 699.4219,262.3438 Q699.0938,261.9688 698.4844,261.75 Q697.875,261.5313 697.25,261.5313 Q696.4844,261.5313 695.8516,261.8594 Q695.2188,262.1875 694.7266,262.9375 Q694.2344,263.6875 694.2344,264.7188 L694.2344,265.8125 Q694.2344,267.0469 695.125,267.8672 Q696.0156,268.6875 697.6094,268.6875 Q698.5469,268.6875 699.2031,268.4375 Q699.5938,268.2813 700.0156,267.8438 Q700.2813,267.5781 700.4297,267.5 Q700.5781,267.4219 700.7813,267.4219 Q701.1094,267.4219 701.3672,267.6797 Q701.625,267.9375 701.625,268.2813 Q701.625,268.625 701.2813,269.0313 Q700.7813,269.6094 699.9844,269.9375 Q698.9063,270.3906 697.6094,270.3906 Q696.0938,270.3906 694.8906,269.7656 Q693.9063,269.2656 693.2188,268.1953 Q692.5313,267.125 692.5313,265.8438 L692.5313,264.6875 Q692.5313,263.3594 693.1484,262.2109 Q693.7656,261.0625 694.8594,260.4453 Q695.9531,259.8281 697.1875,259.8281 Q697.9219,259.8281 698.5703,259.9922 Q699.2188,260.1563 699.7656,260.5156 Z "/><text fill="#000000" font-family="sans-serif" font-size="12" lengthAdjust="spacingAndGlyphs" textLength="105" x="711" y="269.5508">Design Subsystem</text><line style="stroke: #A80036; stroke-width: 1.5;" x1="683" x2="818" y1="280.6406" y2="280.6406"/><line style="stroke: #A80036; stroke-width: 1.5;" x1="683" x2="818" y1="288.6406" y2="288.6406"/><!--class EngineerComponents--><rect fill="#0000FF" filter="url(#f115ybj8l4ug32)" height="48" id="EngineerComponents" style="stroke: #A80036; stroke-width: 1.5;" width="170" x="1022.5" y="374.6406"/><rect fill="#0000FF" height="32" style="stroke: #A80036; stroke-width: 1.5;" width="170" x="1022.5" y="374.6406"/><ellipse cx="1037.5" cy="390.6406" fill="#ADD1B2" rx="11" ry="11" style="stroke: #A80036; stroke-width: 1.0;"/><path d="M1040.2656,386.5156 Q1040.4219,386.2969 1040.6094,386.1875 Q1040.7969,386.0781 1041.0156,386.0781 Q1041.3906,386.0781 1041.625,386.3359 Q1041.8594,386.5938 1041.8594,387.2031 L1041.8594,388.6563 Q1041.8594,389.2656 1041.625,389.5313 Q1041.3906,389.7969 1041.0156,389.7969 Q1040.6719,389.7969 1040.4688,389.5938 Q1040.2656,389.4063 1040.1563,388.8906 Q1040.1094,388.5313 1039.9219,388.3438 Q1039.5938,387.9688 1038.9844,387.75 Q1038.375,387.5313 1037.75,387.5313 Q1036.9844,387.5313 1036.3516,387.8594 Q1035.7188,388.1875 1035.2266,388.9375 Q1034.7344,389.6875 1034.7344,390.7188 L1034.7344,391.8125 Q1034.7344,393.0469 1035.625,393.8672 Q1036.5156,394.6875 1038.1094,394.6875 Q1039.0469,394.6875 1039.7031,394.4375 Q1040.0938,394.2813 1040.5156,393.8438 Q1040.7813,393.5781 1040.9297,393.5 Q1041.0781,393.4219 1041.2813,393.4219 Q1041.6094,393.4219 1041.8672,393.6797 Q1042.125,393.9375 1042.125,394.2813 Q1042.125,394.625 1041.7813,395.0313 Q1041.2813,395.6094 1040.4844,395.9375 Q1039.4063,396.3906 1038.1094,396.3906 Q1036.5938,396.3906 1035.3906,395.7656 Q1034.4063,395.2656 1033.7188,394.1953 Q1033.0313,393.125 1033.0313,391.8438 L1033.0313,390.6875 Q1033.0313,389.3594 1033.6484,388.2109 Q1034.2656,387.0625 1035.3594,386.4453 Q1036.4531,385.8281 1037.6875,385.8281 Q1038.4219,385.8281 1039.0703,385.9922 Q1039.7188,386.1563 1040.2656,386.5156 Z "/><text fill="#000000" font-family="sans-serif" font-size="12" lengthAdjust="spacingAndGlyphs" textLength="138" x="1051.5" y="395.5508">Engineer of Components</text><line style="stroke: #A80036; stroke-width: 1.5;" x1="1023.5" x2="1191.5" y1="406.6406" y2="406.6406"/><line style="stroke: #A80036; stroke-width: 1.5;" x1="1023.5" x2="1191.5" y1="414.6406" y2="414.6406"/><!--link Activity to DesignActivity--><path d="M869.207,96.7676 C861.36,111.2426 852.821,126.9976 846.061,139.4686 " fill="none" id="Activity-DesignActivity" style="stroke: #A80036; stroke-width: 1.0;"/><polygon fill="none" points="863.23,93.1056,878.915,78.8576,875.538,99.7766,863.23,93.1056" style="stroke: #A80036; stroke-width: 1.0;"/><!--link Activity to Role--><path d="M904.519,78.8576 C913.718,95.2636 926.094,117.3326 935.834,134.7026 " fill="none" id="Activity-Role" style="stroke: #A80036; stroke-width: 1.0;"/><polygon fill="#A80036" points="938.506,139.4686,937.5929,129.6622,936.0605,135.1075,930.6151,133.575,938.506,139.4686" style="stroke: #A80036; stroke-width: 1.0;"/><!--link DesignActivity to DesignRole--><path d="M859.104,187.8576 C877.66,204.6836 902.786,227.4676 922.153,245.0296 " fill="none" id="DesignActivity-DesignRole" style="stroke: #A80036; stroke-width: 1.0;"/><polygon fill="#A80036" points="925.946,248.4686,921.9653,239.4601,922.2418,245.1102,916.5918,245.3867,925.946,248.4686" style="stroke: #A80036; stroke-width: 1.0;"/><!--link DesignActivity to DesignSubsystem--><path d="M803.106,203.8236 C791.473,218.8206 778.583,235.4366 768.475,248.4686 " fill="none" id="DesignActivity-DesignSubsystem" style="stroke: #A80036; stroke-width: 1.0;"/><polygon fill="none" points="797.701,199.3706,815.49,187.8576,808.763,207.9516,797.701,199.3706" style="stroke: #A80036; stroke-width: 1.0;"/><!--link DesignSubsystem to DescriptionArchitecture--><path d="M681.954,288.0466 C582.22,309.0076 395.855,348.1761 275.05,373.5658 " fill="none" id="DesignSubsystem-DescriptionArchitecture" style="stroke: #A80036; stroke-width: 1.0;"/><polygon fill="#A80036" points="270.064,374.6136,279.6944,376.6767,274.9571,373.5851,278.0487,368.8478,270.064,374.6136" style="stroke: #A80036; stroke-width: 1.0;"/><text fill="#000000" font-family="sans-serif" font-size="13" lengthAdjust="spacingAndGlyphs" textLength="10" x="492.5" y="341.1357">in</text><!--link DesignSubsystem to Subsystem--><path d="M689.389,296.6736 C632.001,318.3026 546.383,350.5723 487.467,372.7777 " fill="none" id="DesignSubsystem-Subsystem" style="stroke: #A80036; stroke-width: 1.0;"/><polygon fill="#A80036" points="482.563,374.6262,492.3954,375.1961,487.2419,372.8633,489.5747,367.7098,482.563,374.6262" style="stroke: #A80036; stroke-width: 1.0;"/><text fill="#000000" font-family="sans-serif" font-size="13" lengthAdjust="spacingAndGlyphs" textLength="10" x="607.5" y="341.1357">in</text><!--link DesignSubsystem to Interface--><path d="M720.966,296.6736 C693.831,317.8346 653.637,349.1817 625.246,371.3233 " fill="none" id="DesignSubsystem-Interface" style="stroke: #A80036; stroke-width: 1.0;"/><polygon fill="#A80036" points="621.145,374.521,630.702,372.1413,625.088,371.4465,625.7828,365.8325,621.145,374.521" style="stroke: #A80036; stroke-width: 1.0;"/><text fill="#000000" font-family="sans-serif" font-size="13" lengthAdjust="spacingAndGlyphs" textLength="10" x="682.5" y="341.1357">in</text><!--link DesignSubsystem to SubsystemX--><path d="M750.5,296.6736 C750.5,317.1626 750.5,347.2013 750.5,369.187 " fill="none" id="DesignSubsystem-SubsystemX" style="stroke: #A80036; stroke-width: 1.0;"/><polygon fill="#A80036" points="750.5,374.3103,754.5,365.3103,750.5,369.3103,746.5,365.3103,750.5,374.3103" style="stroke: #A80036; stroke-width: 1.0;"/><text fill="#000000" font-family="sans-serif" font-size="13" lengthAdjust="spacingAndGlyphs" textLength="18" x="751.5" y="341.1357">out</text><!--link DesignSubsystem to InterfaceX--><path d="M781.334,296.6736 C809.663,317.8346 851.628,349.1817 881.269,371.3233 " fill="none" id="DesignSubsystem-InterfaceX" style="stroke: #A80036; stroke-width: 1.0;"/><polygon fill="#A80036" points="885.55,374.521,880.7322,365.931,881.5438,371.5293,875.9455,372.3409,885.55,374.521" style="stroke: #A80036; stroke-width: 1.0;"/><text fill="#000000" font-family="sans-serif" font-size="13" lengthAdjust="spacingAndGlyphs" textLength="18" x="844.5" y="341.1357">out</text><!--link DesignSubsystem to EngineerComponents--><path d="M816.812,296.6736 C879.209,318.3466 972.362,350.7019 1036.3,372.9114 " fill="none" id="DesignSubsystem-EngineerComponents" style="stroke: #A80036; stroke-width: 1.0;"/><polygon fill="#A80036" points="1041.24,374.6262,1034.0536,367.8916,1036.5175,372.9836,1031.4255,375.4476,1041.24,374.6262" style="stroke: #A80036; stroke-width: 1.0;"/><!--link Role to DesignRole--><path d="M951.5,208.2186 C951.5,222.0026 951.5,236.6976 951.5,248.4686 " fill="none" id="Role-DesignRole" style="stroke: #A80036; stroke-width: 1.0;"/><polygon fill="none" points="944.5,207.8576,951.5,187.8576,958.5,207.8576,944.5,207.8576" style="stroke: #A80036; stroke-width: 1.0;"/><!--link DesignRole to EngineerComponents--><path d="M1011.31,307.3046 C1020.68,313.3596 1030.05,319.9006 1038.5,326.6406 C1056.5,341.005 1074.57,359.7848 1087.69,374.4219 " fill="none" id="DesignRole-EngineerComponents" style="stroke: #A80036; stroke-width: 1.0;"/><polygon fill="none" points="1007.43,313.1346,994.087,296.6706,1014.78,301.2226,1007.43,313.1346" style="stroke: #A80036; stroke-width: 1.0;"/><!--
@startuml
title Design Subsystem
class Activity #red
Activity <|- - DesignActivity
Activity - -> Role

class "Description of the Architecture (Design Model view)" as DescriptionArchitecture #green
class "Subsystem (outline)" as Subsystem #green
class "Interface (outline)" as Interface #green
class "Subsystem (full)" as SubsystemX #green
class "Interface (complete)" as InterfaceX #green

class DesignActivity #red
DesignActivity - -> DesignRole

class "Design Subsystem" as DesignSubsystem #red
DesignActivity <|- - DesignSubsystem

DesignSubsystem - -> DescriptionArchitecture :in
DesignSubsystem - -> Subsystem :in
DesignSubsystem - -> Interface :in
DesignSubsystem - -> SubsystemX :out
DesignSubsystem - -> InterfaceX :out


class Role #blue
class DesignRole #blue
class "Engineer of Components" as EngineerComponents #blue

DesignSubsystem - -> EngineerComponents

Role <|- - DesignRole
DesignRole <|- - EngineerComponents
@enduml

PlantUML version 1.2019.05(Sat Apr 20 18:45:36 CEST 2019)
(GPL source distribution)
Java Runtime: OpenJDK Runtime Environment
JVM: OpenJDK 64-Bit Server VM
Java Version: 1.8.0_222-b10
Operating System: Windows 10
OS Version: 10.0
Default Encoding: windows-1252
Language: es
Country: ES
--></g></svg>