<?xml version="1.0" encoding="UTF-8" standalone="no"?><svg xmlns="http://www.w3.org/2000/svg" xmlns:xlink="http://www.w3.org/1999/xlink" contentScriptType="application/ecmascript" contentStyleType="text/css" height="411px" preserveAspectRatio="none" style="width:1945px;height:411px;" version="1.1" viewBox="0 0 1945 411" width="1945px" zoomAndPan="magnify"><defs><filter height="300%" id="f1rgvphylwbz4a" width="300%" x="-1" y="-1"><feGaussianBlur result="blurOut" stdDeviation="2.0"/><feColorMatrix in="blurOut" result="blurOut2" type="matrix" values="0 0 0 0 0 0 0 0 0 0 0 0 0 0 0 0 0 0 .4 0"/><feOffset dx="4.0" dy="4.0" in="blurOut2" result="blurOut3"/><feBlend in="SourceGraphic" in2="blurOut3" mode="normal"/></filter></defs><g><!--class Activity--><rect fill="#FF0000" filter="url(#f1rgvphylwbz4a)" height="48" id="Activity" style="stroke: #A80036; stroke-width: 1.5;" width="67" x="1409" y="8"/><rect fill="#FF0000" height="32" style="stroke: #A80036; stroke-width: 1.5;" width="67" x="1409" y="8"/><ellipse cx="1424" cy="24" fill="#ADD1B2" rx="11" ry="11" style="stroke: #A80036; stroke-width: 1.0;"/><path d="M1426.7656,19.875 Q1426.9219,19.6563 1427.1094,19.5469 Q1427.2969,19.4375 1427.5156,19.4375 Q1427.8906,19.4375 1428.125,19.6953 Q1428.3594,19.9531 1428.3594,20.5625 L1428.3594,22.0156 Q1428.3594,22.625 1428.125,22.8906 Q1427.8906,23.1563 1427.5156,23.1563 Q1427.1719,23.1563 1426.9688,22.9531 Q1426.7656,22.7656 1426.6563,22.25 Q1426.6094,21.8906 1426.4219,21.7031 Q1426.0938,21.3281 1425.4844,21.1094 Q1424.875,20.8906 1424.25,20.8906 Q1423.4844,20.8906 1422.8516,21.2188 Q1422.2188,21.5469 1421.7266,22.2969 Q1421.2344,23.0469 1421.2344,24.0781 L1421.2344,25.1719 Q1421.2344,26.4063 1422.125,27.2266 Q1423.0156,28.0469 1424.6094,28.0469 Q1425.5469,28.0469 1426.2031,27.7969 Q1426.5938,27.6406 1427.0156,27.2031 Q1427.2813,26.9375 1427.4297,26.8594 Q1427.5781,26.7813 1427.7813,26.7813 Q1428.1094,26.7813 1428.3672,27.0391 Q1428.625,27.2969 1428.625,27.6406 Q1428.625,27.9844 1428.2813,28.3906 Q1427.7813,28.9688 1426.9844,29.2969 Q1425.9063,29.75 1424.6094,29.75 Q1423.0938,29.75 1421.8906,29.125 Q1420.9063,28.625 1420.2188,27.5547 Q1419.5313,26.4844 1419.5313,25.2031 L1419.5313,24.0469 Q1419.5313,22.7188 1420.1484,21.5703 Q1420.7656,20.4219 1421.8594,19.8047 Q1422.9531,19.1875 1424.1875,19.1875 Q1424.9219,19.1875 1425.5703,19.3516 Q1426.2188,19.5156 1426.7656,19.875 Z "/><text fill="#000000" font-family="sans-serif" font-size="12" lengthAdjust="spacingAndGlyphs" textLength="35" x="1438" y="28.9102">Activity</text><line style="stroke: #A80036; stroke-width: 1.5;" x1="1410" x2="1475" y1="40" y2="40"/><line style="stroke: #A80036; stroke-width: 1.5;" x1="1410" x2="1475" y1="48" y2="48"/><!--class TestsActivity--><rect fill="#FF0000" filter="url(#f1rgvphylwbz4a)" height="48" id="TestsActivity" style="stroke: #A80036; stroke-width: 1.5;" width="98" x="1337.5" y="117"/><rect fill="#FF0000" height="32" style="stroke: #A80036; stroke-width: 1.5;" width="98" x="1337.5" y="117"/><ellipse cx="1352.5" cy="133" fill="#ADD1B2" rx="11" ry="11" style="stroke: #A80036; stroke-width: 1.0;"/><path d="M1355.2656,128.875 Q1355.4219,128.6563 1355.6094,128.5469 Q1355.7969,128.4375 1356.0156,128.4375 Q1356.3906,128.4375 1356.625,128.6953 Q1356.8594,128.9531 1356.8594,129.5625 L1356.8594,131.0156 Q1356.8594,131.625 1356.625,131.8906 Q1356.3906,132.1563 1356.0156,132.1563 Q1355.6719,132.1563 1355.4688,131.9531 Q1355.2656,131.7656 1355.1563,131.25 Q1355.1094,130.8906 1354.9219,130.7031 Q1354.5938,130.3281 1353.9844,130.1094 Q1353.375,129.8906 1352.75,129.8906 Q1351.9844,129.8906 1351.3516,130.2188 Q1350.7188,130.5469 1350.2266,131.2969 Q1349.7344,132.0469 1349.7344,133.0781 L1349.7344,134.1719 Q1349.7344,135.4063 1350.625,136.2266 Q1351.5156,137.0469 1353.1094,137.0469 Q1354.0469,137.0469 1354.7031,136.7969 Q1355.0938,136.6406 1355.5156,136.2031 Q1355.7813,135.9375 1355.9297,135.8594 Q1356.0781,135.7813 1356.2813,135.7813 Q1356.6094,135.7813 1356.8672,136.0391 Q1357.125,136.2969 1357.125,136.6406 Q1357.125,136.9844 1356.7813,137.3906 Q1356.2813,137.9688 1355.4844,138.2969 Q1354.4063,138.75 1353.1094,138.75 Q1351.5938,138.75 1350.3906,138.125 Q1349.4063,137.625 1348.7188,136.5547 Q1348.0313,135.4844 1348.0313,134.2031 L1348.0313,133.0469 Q1348.0313,131.7188 1348.6484,130.5703 Q1349.2656,129.4219 1350.3594,128.8047 Q1351.4531,128.1875 1352.6875,128.1875 Q1353.4219,128.1875 1354.0703,128.3516 Q1354.7188,128.5156 1355.2656,128.875 Z "/><text fill="#000000" font-family="sans-serif" font-size="12" lengthAdjust="spacingAndGlyphs" textLength="66" x="1366.5" y="137.9102">TestsActivity</text><line style="stroke: #A80036; stroke-width: 1.5;" x1="1338.5" x2="1434.5" y1="149" y2="149"/><line style="stroke: #A80036; stroke-width: 1.5;" x1="1338.5" x2="1434.5" y1="157" y2="157"/><!--class Role--><rect fill="#0000FF" filter="url(#f1rgvphylwbz4a)" height="48" id="Role" style="stroke: #A80036; stroke-width: 1.5;" width="58" x="1470.5" y="117"/><rect fill="#0000FF" height="32" style="stroke: #A80036; stroke-width: 1.5;" width="58" x="1470.5" y="117"/><ellipse cx="1485.5" cy="133" fill="#ADD1B2" rx="11" ry="11" style="stroke: #A80036; stroke-width: 1.0;"/><path d="M1488.2656,128.875 Q1488.4219,128.6563 1488.6094,128.5469 Q1488.7969,128.4375 1489.0156,128.4375 Q1489.3906,128.4375 1489.625,128.6953 Q1489.8594,128.9531 1489.8594,129.5625 L1489.8594,131.0156 Q1489.8594,131.625 1489.625,131.8906 Q1489.3906,132.1563 1489.0156,132.1563 Q1488.6719,132.1563 1488.4688,131.9531 Q1488.2656,131.7656 1488.1563,131.25 Q1488.1094,130.8906 1487.9219,130.7031 Q1487.5938,130.3281 1486.9844,130.1094 Q1486.375,129.8906 1485.75,129.8906 Q1484.9844,129.8906 1484.3516,130.2188 Q1483.7188,130.5469 1483.2266,131.2969 Q1482.7344,132.0469 1482.7344,133.0781 L1482.7344,134.1719 Q1482.7344,135.4063 1483.625,136.2266 Q1484.5156,137.0469 1486.1094,137.0469 Q1487.0469,137.0469 1487.7031,136.7969 Q1488.0938,136.6406 1488.5156,136.2031 Q1488.7813,135.9375 1488.9297,135.8594 Q1489.0781,135.7813 1489.2813,135.7813 Q1489.6094,135.7813 1489.8672,136.0391 Q1490.125,136.2969 1490.125,136.6406 Q1490.125,136.9844 1489.7813,137.3906 Q1489.2813,137.9688 1488.4844,138.2969 Q1487.4063,138.75 1486.1094,138.75 Q1484.5938,138.75 1483.3906,138.125 Q1482.4063,137.625 1481.7188,136.5547 Q1481.0313,135.4844 1481.0313,134.2031 L1481.0313,133.0469 Q1481.0313,131.7188 1481.6484,130.5703 Q1482.2656,129.4219 1483.3594,128.8047 Q1484.4531,128.1875 1485.6875,128.1875 Q1486.4219,128.1875 1487.0703,128.3516 Q1487.7188,128.5156 1488.2656,128.875 Z "/><text fill="#000000" font-family="sans-serif" font-size="12" lengthAdjust="spacingAndGlyphs" textLength="26" x="1499.5" y="137.9102">Role</text><line style="stroke: #A80036; stroke-width: 1.5;" x1="1471.5" x2="1527.5" y1="149" y2="149"/><line style="stroke: #A80036; stroke-width: 1.5;" x1="1471.5" x2="1527.5" y1="157" y2="157"/><!--class SupplementaryRequirements--><rect fill="#008000" filter="url(#f1rgvphylwbz4a)" height="48" id="SupplementaryRequirements" style="stroke: #A80036; stroke-width: 1.5;" width="197" x="6" y="352"/><rect fill="#008000" height="32" style="stroke: #A80036; stroke-width: 1.5;" width="197" x="6" y="352"/><ellipse cx="21" cy="368" fill="#ADD1B2" rx="11" ry="11" style="stroke: #A80036; stroke-width: 1.0;"/><path d="M23.7656,363.875 Q23.9219,363.6563 24.1094,363.5469 Q24.2969,363.4375 24.5156,363.4375 Q24.8906,363.4375 25.125,363.6953 Q25.3594,363.9531 25.3594,364.5625 L25.3594,366.0156 Q25.3594,366.625 25.125,366.8906 Q24.8906,367.1563 24.5156,367.1563 Q24.1719,367.1563 23.9688,366.9531 Q23.7656,366.7656 23.6563,366.25 Q23.6094,365.8906 23.4219,365.7031 Q23.0938,365.3281 22.4844,365.1094 Q21.875,364.8906 21.25,364.8906 Q20.4844,364.8906 19.8516,365.2188 Q19.2188,365.5469 18.7266,366.2969 Q18.2344,367.0469 18.2344,368.0781 L18.2344,369.1719 Q18.2344,370.4063 19.125,371.2266 Q20.0156,372.0469 21.6094,372.0469 Q22.5469,372.0469 23.2031,371.7969 Q23.5938,371.6406 24.0156,371.2031 Q24.2813,370.9375 24.4297,370.8594 Q24.5781,370.7813 24.7813,370.7813 Q25.1094,370.7813 25.3672,371.0391 Q25.625,371.2969 25.625,371.6406 Q25.625,371.9844 25.2813,372.3906 Q24.7813,372.9688 23.9844,373.2969 Q22.9063,373.75 21.6094,373.75 Q20.0938,373.75 18.8906,373.125 Q17.9063,372.625 17.2188,371.5547 Q16.5313,370.4844 16.5313,369.2031 L16.5313,368.0469 Q16.5313,366.7188 17.1484,365.5703 Q17.7656,364.4219 18.8594,363.8047 Q19.9531,363.1875 21.1875,363.1875 Q21.9219,363.1875 22.5703,363.3516 Q23.2188,363.5156 23.7656,363.875 Z "/><text fill="#000000" font-family="sans-serif" font-size="12" lengthAdjust="spacingAndGlyphs" textLength="165" x="35" y="372.9102">Supplementary Requirements</text><line style="stroke: #A80036; stroke-width: 1.5;" x1="7" x2="202" y1="384" y2="384"/><line style="stroke: #A80036; stroke-width: 1.5;" x1="7" x2="202" y1="392" y2="392"/><!--class UseCaseModel--><rect fill="#008000" filter="url(#f1rgvphylwbz4a)" height="48" id="UseCaseModel" style="stroke: #A80036; stroke-width: 1.5;" width="125" x="238" y="352"/><rect fill="#008000" height="32" style="stroke: #A80036; stroke-width: 1.5;" width="125" x="238" y="352"/><ellipse cx="253" cy="368" fill="#ADD1B2" rx="11" ry="11" style="stroke: #A80036; stroke-width: 1.0;"/><path d="M255.7656,363.875 Q255.9219,363.6563 256.1094,363.5469 Q256.2969,363.4375 256.5156,363.4375 Q256.8906,363.4375 257.125,363.6953 Q257.3594,363.9531 257.3594,364.5625 L257.3594,366.0156 Q257.3594,366.625 257.125,366.8906 Q256.8906,367.1563 256.5156,367.1563 Q256.1719,367.1563 255.9688,366.9531 Q255.7656,366.7656 255.6563,366.25 Q255.6094,365.8906 255.4219,365.7031 Q255.0938,365.3281 254.4844,365.1094 Q253.875,364.8906 253.25,364.8906 Q252.4844,364.8906 251.8516,365.2188 Q251.2188,365.5469 250.7266,366.2969 Q250.2344,367.0469 250.2344,368.0781 L250.2344,369.1719 Q250.2344,370.4063 251.125,371.2266 Q252.0156,372.0469 253.6094,372.0469 Q254.5469,372.0469 255.2031,371.7969 Q255.5938,371.6406 256.0156,371.2031 Q256.2813,370.9375 256.4297,370.8594 Q256.5781,370.7813 256.7813,370.7813 Q257.1094,370.7813 257.3672,371.0391 Q257.625,371.2969 257.625,371.6406 Q257.625,371.9844 257.2813,372.3906 Q256.7813,372.9688 255.9844,373.2969 Q254.9063,373.75 253.6094,373.75 Q252.0938,373.75 250.8906,373.125 Q249.9063,372.625 249.2188,371.5547 Q248.5313,370.4844 248.5313,369.2031 L248.5313,368.0469 Q248.5313,366.7188 249.1484,365.5703 Q249.7656,364.4219 250.8594,363.8047 Q251.9531,363.1875 253.1875,363.1875 Q253.9219,363.1875 254.5703,363.3516 Q255.2188,363.5156 255.7656,363.875 Z "/><text fill="#000000" font-family="sans-serif" font-size="12" lengthAdjust="spacingAndGlyphs" textLength="93" x="267" y="372.9102">Use-Case Model</text><line style="stroke: #A80036; stroke-width: 1.5;" x1="239" x2="362" y1="384" y2="384"/><line style="stroke: #A80036; stroke-width: 1.5;" x1="239" x2="362" y1="392" y2="392"/><!--class AnalysisModel--><rect fill="#008000" filter="url(#f1rgvphylwbz4a)" height="48" id="AnalysisModel" style="stroke: #A80036; stroke-width: 1.5;" width="114" x="398.5" y="352"/><rect fill="#008000" height="32" style="stroke: #A80036; stroke-width: 1.5;" width="114" x="398.5" y="352"/><ellipse cx="413.5" cy="368" fill="#ADD1B2" rx="11" ry="11" style="stroke: #A80036; stroke-width: 1.0;"/><path d="M416.2656,363.875 Q416.4219,363.6563 416.6094,363.5469 Q416.7969,363.4375 417.0156,363.4375 Q417.3906,363.4375 417.625,363.6953 Q417.8594,363.9531 417.8594,364.5625 L417.8594,366.0156 Q417.8594,366.625 417.625,366.8906 Q417.3906,367.1563 417.0156,367.1563 Q416.6719,367.1563 416.4688,366.9531 Q416.2656,366.7656 416.1563,366.25 Q416.1094,365.8906 415.9219,365.7031 Q415.5938,365.3281 414.9844,365.1094 Q414.375,364.8906 413.75,364.8906 Q412.9844,364.8906 412.3516,365.2188 Q411.7188,365.5469 411.2266,366.2969 Q410.7344,367.0469 410.7344,368.0781 L410.7344,369.1719 Q410.7344,370.4063 411.625,371.2266 Q412.5156,372.0469 414.1094,372.0469 Q415.0469,372.0469 415.7031,371.7969 Q416.0938,371.6406 416.5156,371.2031 Q416.7813,370.9375 416.9297,370.8594 Q417.0781,370.7813 417.2813,370.7813 Q417.6094,370.7813 417.8672,371.0391 Q418.125,371.2969 418.125,371.6406 Q418.125,371.9844 417.7813,372.3906 Q417.2813,372.9688 416.4844,373.2969 Q415.4063,373.75 414.1094,373.75 Q412.5938,373.75 411.3906,373.125 Q410.4063,372.625 409.7188,371.5547 Q409.0313,370.4844 409.0313,369.2031 L409.0313,368.0469 Q409.0313,366.7188 409.6484,365.5703 Q410.2656,364.4219 411.3594,363.8047 Q412.4531,363.1875 413.6875,363.1875 Q414.4219,363.1875 415.0703,363.3516 Q415.7188,363.5156 416.2656,363.875 Z "/><text fill="#000000" font-family="sans-serif" font-size="12" lengthAdjust="spacingAndGlyphs" textLength="82" x="427.5" y="372.9102">Analysis Model</text><line style="stroke: #A80036; stroke-width: 1.5;" x1="399.5" x2="511.5" y1="384" y2="384"/><line style="stroke: #A80036; stroke-width: 1.5;" x1="399.5" x2="511.5" y1="392" y2="392"/><!--class DesignModel--><rect fill="#008000" filter="url(#f1rgvphylwbz4a)" height="48" id="DesignModel" style="stroke: #A80036; stroke-width: 1.5;" width="108" x="547.5" y="352"/><rect fill="#008000" height="32" style="stroke: #A80036; stroke-width: 1.5;" width="108" x="547.5" y="352"/><ellipse cx="562.5" cy="368" fill="#ADD1B2" rx="11" ry="11" style="stroke: #A80036; stroke-width: 1.0;"/><path d="M565.2656,363.875 Q565.4219,363.6563 565.6094,363.5469 Q565.7969,363.4375 566.0156,363.4375 Q566.3906,363.4375 566.625,363.6953 Q566.8594,363.9531 566.8594,364.5625 L566.8594,366.0156 Q566.8594,366.625 566.625,366.8906 Q566.3906,367.1563 566.0156,367.1563 Q565.6719,367.1563 565.4688,366.9531 Q565.2656,366.7656 565.1563,366.25 Q565.1094,365.8906 564.9219,365.7031 Q564.5938,365.3281 563.9844,365.1094 Q563.375,364.8906 562.75,364.8906 Q561.9844,364.8906 561.3516,365.2188 Q560.7188,365.5469 560.2266,366.2969 Q559.7344,367.0469 559.7344,368.0781 L559.7344,369.1719 Q559.7344,370.4063 560.625,371.2266 Q561.5156,372.0469 563.1094,372.0469 Q564.0469,372.0469 564.7031,371.7969 Q565.0938,371.6406 565.5156,371.2031 Q565.7813,370.9375 565.9297,370.8594 Q566.0781,370.7813 566.2813,370.7813 Q566.6094,370.7813 566.8672,371.0391 Q567.125,371.2969 567.125,371.6406 Q567.125,371.9844 566.7813,372.3906 Q566.2813,372.9688 565.4844,373.2969 Q564.4063,373.75 563.1094,373.75 Q561.5938,373.75 560.3906,373.125 Q559.4063,372.625 558.7188,371.5547 Q558.0313,370.4844 558.0313,369.2031 L558.0313,368.0469 Q558.0313,366.7188 558.6484,365.5703 Q559.2656,364.4219 560.3594,363.8047 Q561.4531,363.1875 562.6875,363.1875 Q563.4219,363.1875 564.0703,363.3516 Q564.7188,363.5156 565.2656,363.875 Z "/><text fill="#000000" font-family="sans-serif" font-size="12" lengthAdjust="spacingAndGlyphs" textLength="76" x="576.5" y="372.9102">Design Model</text><line style="stroke: #A80036; stroke-width: 1.5;" x1="548.5" x2="654.5" y1="384" y2="384"/><line style="stroke: #A80036; stroke-width: 1.5;" x1="548.5" x2="654.5" y1="392" y2="392"/><!--class ImplementationModel--><rect fill="#008000" filter="url(#f1rgvphylwbz4a)" height="48" id="ImplementationModel" style="stroke: #A80036; stroke-width: 1.5;" width="154" x="690.5" y="352"/><rect fill="#008000" height="32" style="stroke: #A80036; stroke-width: 1.5;" width="154" x="690.5" y="352"/><ellipse cx="705.5" cy="368" fill="#ADD1B2" rx="11" ry="11" style="stroke: #A80036; stroke-width: 1.0;"/><path d="M708.2656,363.875 Q708.4219,363.6563 708.6094,363.5469 Q708.7969,363.4375 709.0156,363.4375 Q709.3906,363.4375 709.625,363.6953 Q709.8594,363.9531 709.8594,364.5625 L709.8594,366.0156 Q709.8594,366.625 709.625,366.8906 Q709.3906,367.1563 709.0156,367.1563 Q708.6719,367.1563 708.4688,366.9531 Q708.2656,366.7656 708.1563,366.25 Q708.1094,365.8906 707.9219,365.7031 Q707.5938,365.3281 706.9844,365.1094 Q706.375,364.8906 705.75,364.8906 Q704.9844,364.8906 704.3516,365.2188 Q703.7188,365.5469 703.2266,366.2969 Q702.7344,367.0469 702.7344,368.0781 L702.7344,369.1719 Q702.7344,370.4063 703.625,371.2266 Q704.5156,372.0469 706.1094,372.0469 Q707.0469,372.0469 707.7031,371.7969 Q708.0938,371.6406 708.5156,371.2031 Q708.7813,370.9375 708.9297,370.8594 Q709.0781,370.7813 709.2813,370.7813 Q709.6094,370.7813 709.8672,371.0391 Q710.125,371.2969 710.125,371.6406 Q710.125,371.9844 709.7813,372.3906 Q709.2813,372.9688 708.4844,373.2969 Q707.4063,373.75 706.1094,373.75 Q704.5938,373.75 703.3906,373.125 Q702.4063,372.625 701.7188,371.5547 Q701.0313,370.4844 701.0313,369.2031 L701.0313,368.0469 Q701.0313,366.7188 701.6484,365.5703 Q702.2656,364.4219 703.3594,363.8047 Q704.4531,363.1875 705.6875,363.1875 Q706.4219,363.1875 707.0703,363.3516 Q707.7188,363.5156 708.2656,363.875 Z "/><text fill="#000000" font-family="sans-serif" font-size="12" lengthAdjust="spacingAndGlyphs" textLength="122" x="719.5" y="372.9102">Implementation Model</text><line style="stroke: #A80036; stroke-width: 1.5;" x1="691.5" x2="843.5" y1="384" y2="384"/><line style="stroke: #A80036; stroke-width: 1.5;" x1="691.5" x2="843.5" y1="392" y2="392"/><!--class ArchitectureDescription--><rect fill="#008000" filter="url(#f1rgvphylwbz4a)" height="48" id="ArchitectureDescription" style="stroke: #A80036; stroke-width: 1.5;" width="352" x="879.5" y="352"/><rect fill="#008000" height="32" style="stroke: #A80036; stroke-width: 1.5;" width="352" x="879.5" y="352"/><ellipse cx="894.5" cy="368" fill="#ADD1B2" rx="11" ry="11" style="stroke: #A80036; stroke-width: 1.0;"/><path d="M897.2656,363.875 Q897.4219,363.6563 897.6094,363.5469 Q897.7969,363.4375 898.0156,363.4375 Q898.3906,363.4375 898.625,363.6953 Q898.8594,363.9531 898.8594,364.5625 L898.8594,366.0156 Q898.8594,366.625 898.625,366.8906 Q898.3906,367.1563 898.0156,367.1563 Q897.6719,367.1563 897.4688,366.9531 Q897.2656,366.7656 897.1563,366.25 Q897.1094,365.8906 896.9219,365.7031 Q896.5938,365.3281 895.9844,365.1094 Q895.375,364.8906 894.75,364.8906 Q893.9844,364.8906 893.3516,365.2188 Q892.7188,365.5469 892.2266,366.2969 Q891.7344,367.0469 891.7344,368.0781 L891.7344,369.1719 Q891.7344,370.4063 892.625,371.2266 Q893.5156,372.0469 895.1094,372.0469 Q896.0469,372.0469 896.7031,371.7969 Q897.0938,371.6406 897.5156,371.2031 Q897.7813,370.9375 897.9297,370.8594 Q898.0781,370.7813 898.2813,370.7813 Q898.6094,370.7813 898.8672,371.0391 Q899.125,371.2969 899.125,371.6406 Q899.125,371.9844 898.7813,372.3906 Q898.2813,372.9688 897.4844,373.2969 Q896.4063,373.75 895.1094,373.75 Q893.5938,373.75 892.3906,373.125 Q891.4063,372.625 890.7188,371.5547 Q890.0313,370.4844 890.0313,369.2031 L890.0313,368.0469 Q890.0313,366.7188 890.6484,365.5703 Q891.2656,364.4219 892.3594,363.8047 Q893.4531,363.1875 894.6875,363.1875 Q895.4219,363.1875 896.0703,363.3516 Q896.7188,363.5156 897.2656,363.875 Z "/><text fill="#000000" font-family="sans-serif" font-size="12" lengthAdjust="spacingAndGlyphs" textLength="320" x="908.5" y="372.9102">Architecture Description (architectural views of the models)</text><line style="stroke: #A80036; stroke-width: 1.5;" x1="880.5" x2="1230.5" y1="384" y2="384"/><line style="stroke: #A80036; stroke-width: 1.5;" x1="880.5" x2="1230.5" y1="392" y2="392"/><!--class TesPlan--><rect fill="#008000" filter="url(#f1rgvphylwbz4a)" height="48" id="TesPlan" style="stroke: #A80036; stroke-width: 1.5;" width="247" x="1267" y="352"/><rect fill="#008000" height="32" style="stroke: #A80036; stroke-width: 1.5;" width="247" x="1267" y="352"/><ellipse cx="1282" cy="368" fill="#ADD1B2" rx="11" ry="11" style="stroke: #A80036; stroke-width: 1.0;"/><path d="M1284.7656,363.875 Q1284.9219,363.6563 1285.1094,363.5469 Q1285.2969,363.4375 1285.5156,363.4375 Q1285.8906,363.4375 1286.125,363.6953 Q1286.3594,363.9531 1286.3594,364.5625 L1286.3594,366.0156 Q1286.3594,366.625 1286.125,366.8906 Q1285.8906,367.1563 1285.5156,367.1563 Q1285.1719,367.1563 1284.9688,366.9531 Q1284.7656,366.7656 1284.6563,366.25 Q1284.6094,365.8906 1284.4219,365.7031 Q1284.0938,365.3281 1283.4844,365.1094 Q1282.875,364.8906 1282.25,364.8906 Q1281.4844,364.8906 1280.8516,365.2188 Q1280.2188,365.5469 1279.7266,366.2969 Q1279.2344,367.0469 1279.2344,368.0781 L1279.2344,369.1719 Q1279.2344,370.4063 1280.125,371.2266 Q1281.0156,372.0469 1282.6094,372.0469 Q1283.5469,372.0469 1284.2031,371.7969 Q1284.5938,371.6406 1285.0156,371.2031 Q1285.2813,370.9375 1285.4297,370.8594 Q1285.5781,370.7813 1285.7813,370.7813 Q1286.1094,370.7813 1286.3672,371.0391 Q1286.625,371.2969 1286.625,371.6406 Q1286.625,371.9844 1286.2813,372.3906 Q1285.7813,372.9688 1284.9844,373.2969 Q1283.9063,373.75 1282.6094,373.75 Q1281.0938,373.75 1279.8906,373.125 Q1278.9063,372.625 1278.2188,371.5547 Q1277.5313,370.4844 1277.5313,369.2031 L1277.5313,368.0469 Q1277.5313,366.7188 1278.1484,365.5703 Q1278.7656,364.4219 1279.8594,363.8047 Q1280.9531,363.1875 1282.1875,363.1875 Q1282.9219,363.1875 1283.5703,363.3516 Q1284.2188,363.5156 1284.7656,363.875 Z "/><text fill="#000000" font-family="sans-serif" font-size="12" lengthAdjust="spacingAndGlyphs" textLength="215" x="1296" y="372.9102">Tes Plan (testingstrategyand schedule)</text><line style="stroke: #A80036; stroke-width: 1.5;" x1="1268" x2="1513" y1="384" y2="384"/><line style="stroke: #A80036; stroke-width: 1.5;" x1="1268" x2="1513" y1="392" y2="392"/><!--class TestCase--><rect fill="#008000" filter="url(#f1rgvphylwbz4a)" height="48" id="TestCase" style="stroke: #A80036; stroke-width: 1.5;" width="89" x="1549" y="352"/><rect fill="#008000" height="32" style="stroke: #A80036; stroke-width: 1.5;" width="89" x="1549" y="352"/><ellipse cx="1564" cy="368" fill="#ADD1B2" rx="11" ry="11" style="stroke: #A80036; stroke-width: 1.0;"/><path d="M1566.7656,363.875 Q1566.9219,363.6563 1567.1094,363.5469 Q1567.2969,363.4375 1567.5156,363.4375 Q1567.8906,363.4375 1568.125,363.6953 Q1568.3594,363.9531 1568.3594,364.5625 L1568.3594,366.0156 Q1568.3594,366.625 1568.125,366.8906 Q1567.8906,367.1563 1567.5156,367.1563 Q1567.1719,367.1563 1566.9688,366.9531 Q1566.7656,366.7656 1566.6563,366.25 Q1566.6094,365.8906 1566.4219,365.7031 Q1566.0938,365.3281 1565.4844,365.1094 Q1564.875,364.8906 1564.25,364.8906 Q1563.4844,364.8906 1562.8516,365.2188 Q1562.2188,365.5469 1561.7266,366.2969 Q1561.2344,367.0469 1561.2344,368.0781 L1561.2344,369.1719 Q1561.2344,370.4063 1562.125,371.2266 Q1563.0156,372.0469 1564.6094,372.0469 Q1565.5469,372.0469 1566.2031,371.7969 Q1566.5938,371.6406 1567.0156,371.2031 Q1567.2813,370.9375 1567.4297,370.8594 Q1567.5781,370.7813 1567.7813,370.7813 Q1568.1094,370.7813 1568.3672,371.0391 Q1568.625,371.2969 1568.625,371.6406 Q1568.625,371.9844 1568.2813,372.3906 Q1567.7813,372.9688 1566.9844,373.2969 Q1565.9063,373.75 1564.6094,373.75 Q1563.0938,373.75 1561.8906,373.125 Q1560.9063,372.625 1560.2188,371.5547 Q1559.5313,370.4844 1559.5313,369.2031 L1559.5313,368.0469 Q1559.5313,366.7188 1560.1484,365.5703 Q1560.7656,364.4219 1561.8594,363.8047 Q1562.9531,363.1875 1564.1875,363.1875 Q1564.9219,363.1875 1565.5703,363.3516 Q1566.2188,363.5156 1566.7656,363.875 Z "/><text fill="#000000" font-family="sans-serif" font-size="12" lengthAdjust="spacingAndGlyphs" textLength="57" x="1578" y="372.9102">Test Case</text><line style="stroke: #A80036; stroke-width: 1.5;" x1="1550" x2="1637" y1="384" y2="384"/><line style="stroke: #A80036; stroke-width: 1.5;" x1="1550" x2="1637" y1="392" y2="392"/><!--class TestProcedure--><rect fill="#008000" filter="url(#f1rgvphylwbz4a)" height="48" id="TestProcedure" style="stroke: #A80036; stroke-width: 1.5;" width="116" x="1673.5" y="352"/><rect fill="#008000" height="32" style="stroke: #A80036; stroke-width: 1.5;" width="116" x="1673.5" y="352"/><ellipse cx="1688.5" cy="368" fill="#ADD1B2" rx="11" ry="11" style="stroke: #A80036; stroke-width: 1.0;"/><path d="M1691.2656,363.875 Q1691.4219,363.6563 1691.6094,363.5469 Q1691.7969,363.4375 1692.0156,363.4375 Q1692.3906,363.4375 1692.625,363.6953 Q1692.8594,363.9531 1692.8594,364.5625 L1692.8594,366.0156 Q1692.8594,366.625 1692.625,366.8906 Q1692.3906,367.1563 1692.0156,367.1563 Q1691.6719,367.1563 1691.4688,366.9531 Q1691.2656,366.7656 1691.1563,366.25 Q1691.1094,365.8906 1690.9219,365.7031 Q1690.5938,365.3281 1689.9844,365.1094 Q1689.375,364.8906 1688.75,364.8906 Q1687.9844,364.8906 1687.3516,365.2188 Q1686.7188,365.5469 1686.2266,366.2969 Q1685.7344,367.0469 1685.7344,368.0781 L1685.7344,369.1719 Q1685.7344,370.4063 1686.625,371.2266 Q1687.5156,372.0469 1689.1094,372.0469 Q1690.0469,372.0469 1690.7031,371.7969 Q1691.0938,371.6406 1691.5156,371.2031 Q1691.7813,370.9375 1691.9297,370.8594 Q1692.0781,370.7813 1692.2813,370.7813 Q1692.6094,370.7813 1692.8672,371.0391 Q1693.125,371.2969 1693.125,371.6406 Q1693.125,371.9844 1692.7813,372.3906 Q1692.2813,372.9688 1691.4844,373.2969 Q1690.4063,373.75 1689.1094,373.75 Q1687.5938,373.75 1686.3906,373.125 Q1685.4063,372.625 1684.7188,371.5547 Q1684.0313,370.4844 1684.0313,369.2031 L1684.0313,368.0469 Q1684.0313,366.7188 1684.6484,365.5703 Q1685.2656,364.4219 1686.3594,363.8047 Q1687.4531,363.1875 1688.6875,363.1875 Q1689.4219,363.1875 1690.0703,363.3516 Q1690.7188,363.5156 1691.2656,363.875 Z "/><text fill="#000000" font-family="sans-serif" font-size="12" lengthAdjust="spacingAndGlyphs" textLength="84" x="1702.5" y="372.9102">Test Procedure</text><line style="stroke: #A80036; stroke-width: 1.5;" x1="1674.5" x2="1788.5" y1="384" y2="384"/><line style="stroke: #A80036; stroke-width: 1.5;" x1="1674.5" x2="1788.5" y1="392" y2="392"/><!--class TestsRole--><rect fill="#0000FF" filter="url(#f1rgvphylwbz4a)" height="48" id="TestsRole" style="stroke: #A80036; stroke-width: 1.5;" width="89" x="1455" y="226"/><rect fill="#0000FF" height="32" style="stroke: #A80036; stroke-width: 1.5;" width="89" x="1455" y="226"/><ellipse cx="1470" cy="242" fill="#ADD1B2" rx="11" ry="11" style="stroke: #A80036; stroke-width: 1.0;"/><path d="M1472.7656,237.875 Q1472.9219,237.6563 1473.1094,237.5469 Q1473.2969,237.4375 1473.5156,237.4375 Q1473.8906,237.4375 1474.125,237.6953 Q1474.3594,237.9531 1474.3594,238.5625 L1474.3594,240.0156 Q1474.3594,240.625 1474.125,240.8906 Q1473.8906,241.1563 1473.5156,241.1563 Q1473.1719,241.1563 1472.9688,240.9531 Q1472.7656,240.7656 1472.6563,240.25 Q1472.6094,239.8906 1472.4219,239.7031 Q1472.0938,239.3281 1471.4844,239.1094 Q1470.875,238.8906 1470.25,238.8906 Q1469.4844,238.8906 1468.8516,239.2188 Q1468.2188,239.5469 1467.7266,240.2969 Q1467.2344,241.0469 1467.2344,242.0781 L1467.2344,243.1719 Q1467.2344,244.4063 1468.125,245.2266 Q1469.0156,246.0469 1470.6094,246.0469 Q1471.5469,246.0469 1472.2031,245.7969 Q1472.5938,245.6406 1473.0156,245.2031 Q1473.2813,244.9375 1473.4297,244.8594 Q1473.5781,244.7813 1473.7813,244.7813 Q1474.1094,244.7813 1474.3672,245.0391 Q1474.625,245.2969 1474.625,245.6406 Q1474.625,245.9844 1474.2813,246.3906 Q1473.7813,246.9688 1472.9844,247.2969 Q1471.9063,247.75 1470.6094,247.75 Q1469.0938,247.75 1467.8906,247.125 Q1466.9063,246.625 1466.2188,245.5547 Q1465.5313,244.4844 1465.5313,243.2031 L1465.5313,242.0469 Q1465.5313,240.7188 1466.1484,239.5703 Q1466.7656,238.4219 1467.8594,237.8047 Q1468.9531,237.1875 1470.1875,237.1875 Q1470.9219,237.1875 1471.5703,237.3516 Q1472.2188,237.5156 1472.7656,237.875 Z "/><text fill="#000000" font-family="sans-serif" font-size="12" lengthAdjust="spacingAndGlyphs" textLength="57" x="1484" y="246.9102">TestsRole</text><line style="stroke: #A80036; stroke-width: 1.5;" x1="1456" x2="1543" y1="258" y2="258"/><line style="stroke: #A80036; stroke-width: 1.5;" x1="1456" x2="1543" y1="266" y2="266"/><!--class DesignTest--><rect fill="#FF0000" filter="url(#f1rgvphylwbz4a)" height="48" id="DesignTest" style="stroke: #A80036; stroke-width: 1.5;" width="99" x="1006" y="226"/><rect fill="#FF0000" height="32" style="stroke: #A80036; stroke-width: 1.5;" width="99" x="1006" y="226"/><ellipse cx="1021" cy="242" fill="#ADD1B2" rx="11" ry="11" style="stroke: #A80036; stroke-width: 1.0;"/><path d="M1023.7656,237.875 Q1023.9219,237.6563 1024.1094,237.5469 Q1024.2969,237.4375 1024.5156,237.4375 Q1024.8906,237.4375 1025.125,237.6953 Q1025.3594,237.9531 1025.3594,238.5625 L1025.3594,240.0156 Q1025.3594,240.625 1025.125,240.8906 Q1024.8906,241.1563 1024.5156,241.1563 Q1024.1719,241.1563 1023.9688,240.9531 Q1023.7656,240.7656 1023.6563,240.25 Q1023.6094,239.8906 1023.4219,239.7031 Q1023.0938,239.3281 1022.4844,239.1094 Q1021.875,238.8906 1021.25,238.8906 Q1020.4844,238.8906 1019.8516,239.2188 Q1019.2188,239.5469 1018.7266,240.2969 Q1018.2344,241.0469 1018.2344,242.0781 L1018.2344,243.1719 Q1018.2344,244.4063 1019.125,245.2266 Q1020.0156,246.0469 1021.6094,246.0469 Q1022.5469,246.0469 1023.2031,245.7969 Q1023.5938,245.6406 1024.0156,245.2031 Q1024.2813,244.9375 1024.4297,244.8594 Q1024.5781,244.7813 1024.7813,244.7813 Q1025.1094,244.7813 1025.3672,245.0391 Q1025.625,245.2969 1025.625,245.6406 Q1025.625,245.9844 1025.2813,246.3906 Q1024.7813,246.9688 1023.9844,247.2969 Q1022.9063,247.75 1021.6094,247.75 Q1020.0938,247.75 1018.8906,247.125 Q1017.9063,246.625 1017.2188,245.5547 Q1016.5313,244.4844 1016.5313,243.2031 L1016.5313,242.0469 Q1016.5313,240.7188 1017.1484,239.5703 Q1017.7656,238.4219 1018.8594,237.8047 Q1019.9531,237.1875 1021.1875,237.1875 Q1021.9219,237.1875 1022.5703,237.3516 Q1023.2188,237.5156 1023.7656,237.875 Z "/><text fill="#000000" font-family="sans-serif" font-size="12" lengthAdjust="spacingAndGlyphs" textLength="67" x="1035" y="246.9102">Design Test</text><line style="stroke: #A80036; stroke-width: 1.5;" x1="1007" x2="1104" y1="258" y2="258"/><line style="stroke: #A80036; stroke-width: 1.5;" x1="1007" x2="1104" y1="266" y2="266"/><!--class TestEngineer--><rect fill="#0000FF" filter="url(#f1rgvphylwbz4a)" height="48" id="TestEngineer" style="stroke: #A80036; stroke-width: 1.5;" width="109" x="1825" y="352"/><rect fill="#0000FF" height="32" style="stroke: #A80036; stroke-width: 1.5;" width="109" x="1825" y="352"/><ellipse cx="1840" cy="368" fill="#ADD1B2" rx="11" ry="11" style="stroke: #A80036; stroke-width: 1.0;"/><path d="M1842.7656,363.875 Q1842.9219,363.6563 1843.1094,363.5469 Q1843.2969,363.4375 1843.5156,363.4375 Q1843.8906,363.4375 1844.125,363.6953 Q1844.3594,363.9531 1844.3594,364.5625 L1844.3594,366.0156 Q1844.3594,366.625 1844.125,366.8906 Q1843.8906,367.1563 1843.5156,367.1563 Q1843.1719,367.1563 1842.9688,366.9531 Q1842.7656,366.7656 1842.6563,366.25 Q1842.6094,365.8906 1842.4219,365.7031 Q1842.0938,365.3281 1841.4844,365.1094 Q1840.875,364.8906 1840.25,364.8906 Q1839.4844,364.8906 1838.8516,365.2188 Q1838.2188,365.5469 1837.7266,366.2969 Q1837.2344,367.0469 1837.2344,368.0781 L1837.2344,369.1719 Q1837.2344,370.4063 1838.125,371.2266 Q1839.0156,372.0469 1840.6094,372.0469 Q1841.5469,372.0469 1842.2031,371.7969 Q1842.5938,371.6406 1843.0156,371.2031 Q1843.2813,370.9375 1843.4297,370.8594 Q1843.5781,370.7813 1843.7813,370.7813 Q1844.1094,370.7813 1844.3672,371.0391 Q1844.625,371.2969 1844.625,371.6406 Q1844.625,371.9844 1844.2813,372.3906 Q1843.7813,372.9688 1842.9844,373.2969 Q1841.9063,373.75 1840.6094,373.75 Q1839.0938,373.75 1837.8906,373.125 Q1836.9063,372.625 1836.2188,371.5547 Q1835.5313,370.4844 1835.5313,369.2031 L1835.5313,368.0469 Q1835.5313,366.7188 1836.1484,365.5703 Q1836.7656,364.4219 1837.8594,363.8047 Q1838.9531,363.1875 1840.1875,363.1875 Q1840.9219,363.1875 1841.5703,363.3516 Q1842.2188,363.5156 1842.7656,363.875 Z "/><text fill="#000000" font-family="sans-serif" font-size="12" lengthAdjust="spacingAndGlyphs" textLength="77" x="1854" y="372.9102">Test Engineer</text><line style="stroke: #A80036; stroke-width: 1.5;" x1="1826" x2="1933" y1="384" y2="384"/><line style="stroke: #A80036; stroke-width: 1.5;" x1="1826" x2="1933" y1="392" y2="392"/><!--link Activity to TestsActivity--><path d="M1420.98,74.127 C1413.4,88.602 1405.15,104.357 1398.63,116.828 " fill="none" id="Activity-TestsActivity" style="stroke: #A80036; stroke-width: 1.0;"/><polygon fill="none" points="1414.87,70.691,1430.35,56.217,1427.28,77.183,1414.87,70.691" style="stroke: #A80036; stroke-width: 1.0;"/><!--link Activity to Role--><path d="M1454.87,56.217 C1463.61,72.623 1475.36,94.692 1484.62,112.062 " fill="none" id="Activity-Role" style="stroke: #A80036; stroke-width: 1.0;"/><polygon fill="#A80036" points="1487.16,116.828,1486.4591,107.0041,1484.8093,112.415,1479.3983,110.7653,1487.16,116.828" style="stroke: #A80036; stroke-width: 1.0;"/><!--link TestsActivity to TestsRole--><path d="M1411.02,165.217 C1428.79,182.043 1452.85,204.827 1471.4,222.389 " fill="none" id="TestsActivity-TestsRole" style="stroke: #A80036; stroke-width: 1.0;"/><polygon fill="#A80036" points="1475.03,225.828,1471.2508,216.7331,1471.4015,222.3879,1465.7467,222.5387,1475.03,225.828" style="stroke: #A80036; stroke-width: 1.0;"/><!--link TestsActivity to DesignTest--><path d="M1318.24,164.066 C1254.83,184.565 1161.9,214.605 1105.24,232.922 " fill="none" id="TestsActivity-DesignTest" style="stroke: #A80036; stroke-width: 1.0;"/><polygon fill="none" points="1316.12,157.395,1337.3,157.903,1320.43,170.716,1316.12,157.395" style="stroke: #A80036; stroke-width: 1.0;"/><!--link DesignTest to SupplementaryRequirements--><path d="M1005.874,254.641 C909.553,261.964 690.63,279.86 507.5,304 C379.282,320.9017 347.721,328.7543 220.5,352 C216.435,352.7427 212.293,353.5107 208.11,354.2956 " fill="none" id="DesignTest-SupplementaryRequirements" style="stroke: #A80036; stroke-width: 1.0;"/><polygon fill="#A80036" points="203.184,355.2241,212.769,357.4887,208.0976,354.2984,211.2878,349.627,203.184,355.2241" style="stroke: #A80036; stroke-width: 1.0;"/><text fill="#000000" font-family="sans-serif" font-size="13" lengthAdjust="spacingAndGlyphs" textLength="10" x="508.5" y="318.4951">in</text><!--link DesignTest to UseCaseModel--><path d="M1005.841,255.564 C893.391,266.521 611.138,297.524 380.5,352 C376.456,352.9551 372.312,353.9857 368.141,355.0629 " fill="none" id="DesignTest-UseCaseModel" style="stroke: #A80036; stroke-width: 1.0;"/><polygon fill="#A80036" points="363.236,356.3471,372.9559,357.9358,368.0728,355.08,370.9285,350.1969,363.236,356.3471" style="stroke: #A80036; stroke-width: 1.0;"/><text fill="#000000" font-family="sans-serif" font-size="13" lengthAdjust="spacingAndGlyphs" textLength="10" x="621.5" y="318.4951">in</text><!--link DesignTest to AnalysisModel--><path d="M1005.749,258.507 C911.873,273.122 702.496,307.8687 529.5,352 C525.65,352.9821 521.704,354.0436 517.735,355.1532 " fill="none" id="DesignTest-AnalysisModel" style="stroke: #A80036; stroke-width: 1.0;"/><polygon fill="#A80036" points="512.7,356.5821,522.4503,357.9718,517.5099,355.2164,520.2652,350.276,512.7,356.5821" style="stroke: #A80036; stroke-width: 1.0;"/><text fill="#000000" font-family="sans-serif" font-size="13" lengthAdjust="spacingAndGlyphs" textLength="10" x="746.5" y="318.4951">in</text><!--link DesignTest to DesignModel--><path d="M1005.983,263.125 C932.759,281.265 791.432,317.084 672.5,352 C668.568,353.1543 664.524,354.3744 660.456,355.6264 " fill="none" id="DesignTest-DesignModel" style="stroke: #A80036; stroke-width: 1.0;"/><polygon fill="#A80036" points="655.674,357.1088,665.4547,358.2654,660.4499,355.6287,663.0866,350.6239,655.674,357.1088" style="stroke: #A80036; stroke-width: 1.0;"/><text fill="#000000" font-family="sans-serif" font-size="13" lengthAdjust="spacingAndGlyphs" textLength="10" x="841.5" y="318.4951">in</text><!--link DesignTest to ImplementationModel--><path d="M1005.991,272.316 C956.034,293.826 878.912,327.031 825.974,349.8237 " fill="none" id="DesignTest-ImplementationModel" style="stroke: #A80036; stroke-width: 1.0;"/><polygon fill="#A80036" points="821.248,351.8583,831.0962,351.9734,825.8405,349.8811,827.9327,344.6254,821.248,351.8583" style="stroke: #A80036; stroke-width: 1.0;"/><text fill="#000000" font-family="sans-serif" font-size="13" lengthAdjust="spacingAndGlyphs" textLength="10" x="930.5" y="318.4951">in</text><!--link DesignTest to ArchitectureDescription--><path d="M1055.5,274.033 C1055.5,294.522 1055.5,324.5607 1055.5,346.5464 " fill="none" id="DesignTest-ArchitectureDescription" style="stroke: #A80036; stroke-width: 1.0;"/><polygon fill="#A80036" points="1055.5,351.6697,1059.5,342.6697,1055.5,346.6697,1051.5,342.6697,1055.5,351.6697" style="stroke: #A80036; stroke-width: 1.0;"/><text fill="#000000" font-family="sans-serif" font-size="13" lengthAdjust="spacingAndGlyphs" textLength="10" x="1056.5" y="318.4951">in</text><!--link DesignTest to TesPlan--><path d="M1105.29,269.43 C1163.11,290.833 1258.77,326.242 1323.19,350.0843 " fill="none" id="DesignTest-TesPlan" style="stroke: #A80036; stroke-width: 1.0;"/><polygon fill="#A80036" points="1328.16,351.9237,1321.1175,345.0387,1323.4733,350.1817,1318.3303,352.5375,1328.16,351.9237" style="stroke: #A80036; stroke-width: 1.0;"/><text fill="#000000" font-family="sans-serif" font-size="13" lengthAdjust="spacingAndGlyphs" textLength="10" x="1244.5" y="318.4951">in</text><!--link DesignTest to TestCase--><path d="M1105.08,259.057 C1192.28,273.769 1378.35,307.6036 1531.5,352 C1535.54,353.1717 1539.7,354.4795 1543.85,355.8603 " fill="none" id="DesignTest-TestCase" style="stroke: #A80036; stroke-width: 1.0;"/><polygon fill="#A80036" points="1548.72,357.5109,1541.4921,350.8207,1543.9875,355.8975,1538.9107,358.3928,1548.72,357.5109" style="stroke: #A80036; stroke-width: 1.0;"/><text fill="#000000" font-family="sans-serif" font-size="13" lengthAdjust="spacingAndGlyphs" textLength="18" x="1416.5" y="318.4951">out</text><!--link DesignTest to TestProcedure--><path d="M1105.02,256.368 C1178.99,264.701 1322.58,282.095 1443.5,304 C1538.56,321.2204 1562.1,327.3262 1655.5,352 C1659.62,353.0882 1663.85,354.2488 1668.11,355.4486 " fill="none" id="DesignTest-TestProcedure" style="stroke: #A80036; stroke-width: 1.0;"/><polygon fill="#A80036" points="1673.11,356.873,1665.5347,350.579,1668.2979,355.515,1663.3619,358.2782,1673.11,356.873" style="stroke: #A80036; stroke-width: 1.0;"/><text fill="#000000" font-family="sans-serif" font-size="13" lengthAdjust="spacingAndGlyphs" textLength="18" x="1533.5" y="318.4951">out</text><!--link DesignTest to TestEngineer--><path d="M1105.01,253.706 C1226.31,261.183 1547.36,286.116 1806.5,352 C1810.85,353.106 1815.32,354.3207 1819.81,355.596 " fill="none" id="DesignTest-TestEngineer" style="stroke: #A80036; stroke-width: 1.0;"/><polygon fill="#A80036" points="1824.68,357.0013,1817.1411,350.6637,1819.8759,355.6156,1814.924,358.3503,1824.68,357.0013" style="stroke: #A80036; stroke-width: 1.0;"/><!--link Role to TestsRole--><path d="M1499.5,185.578 C1499.5,199.362 1499.5,214.057 1499.5,225.828 " fill="none" id="Role-TestsRole" style="stroke: #A80036; stroke-width: 1.0;"/><polygon fill="none" points="1492.5,185.217,1499.5,165.217,1506.5,185.217,1492.5,185.217" style="stroke: #A80036; stroke-width: 1.0;"/><!--link TestsRole to TestEngineer--><path d="M1564.26,255.14 C1648.28,261.547 1789.22,276.141 1832.5,304 C1850.03,315.2818 1862.5,335.6745 1870.18,351.7195 " fill="none" id="TestsRole-TestEngineer" style="stroke: #A80036; stroke-width: 1.0;"/><polygon fill="none" points="1563.66,262.115,1544.22,253.684,1564.68,248.152,1563.66,262.115" style="stroke: #A80036; stroke-width: 1.0;"/><!--
@startuml

class Activity #red
Activity <|- - TestsActivity
Activity - -> Role

class "Supplementary Requirements" as SupplementaryRequirements #green
class "Use-Case Model" as UseCaseModel #green
class "Analysis Model" as AnalysisModel #green
class "Design Model" as DesignModel #green
class "Implementation Model" as ImplementationModel #green
class "Architecture Description (architectural views of the models)" as ArchitectureDescription #green
class "Tes Plan (testingstrategyand schedule)" as TesPlan #green
class "Test Case" as TestCase #green
class "Test Procedure" as TestProcedure #green

class TestsActivity #red
TestsActivity - -> TestsRole

class "Design Test" as DesignTest #red
TestsActivity <|- - DesignTest

DesignTest - -> SupplementaryRequirements :in
DesignTest - -> UseCaseModel :in
DesignTest - -> AnalysisModel :in
DesignTest - -> DesignModel :in
DesignTest - -> ImplementationModel :in
DesignTest - -> ArchitectureDescription :in
DesignTest - -> TesPlan :in
DesignTest - -> TestCase :out
DesignTest - -> TestProcedure :out

class Role #blue
class TestsRole #blue
class "Test Engineer" as TestEngineer #blue

DesignTest - -> TestEngineer

Role <|- - TestsRole
TestsRole <|- - TestEngineer
@enduml

PlantUML version 1.2019.05(Sat Apr 20 18:45:36 CEST 2019)
(GPL source distribution)
Java Runtime: OpenJDK Runtime Environment
JVM: OpenJDK 64-Bit Server VM
Java Version: 1.8.0_222-b10
Operating System: Windows 10
OS Version: 10.0
Default Encoding: windows-1252
Language: es
Country: ES
--></g></svg>