<?xml version="1.0" encoding="UTF-8" standalone="no"?><svg xmlns="http://www.w3.org/2000/svg" xmlns:xlink="http://www.w3.org/1999/xlink" contentScriptType="application/ecmascript" contentStyleType="text/css" height="881px" preserveAspectRatio="none" style="width:595px;height:881px;" version="1.1" viewBox="0 0 595 881" width="595px" zoomAndPan="magnify"><defs><filter height="300%" id="fltr8hvyznf6l" width="300%" x="-1" y="-1"><feGaussianBlur result="blurOut" stdDeviation="2.0"/><feColorMatrix in="blurOut" result="blurOut2" type="matrix" values="0 0 0 0 0 0 0 0 0 0 0 0 0 0 0 0 0 0 .4 0"/><feOffset dx="4.0" dy="4.0" in="blurOut2" result="blurOut3"/><feBlend in="SourceGraphic" in2="blurOut3" mode="normal"/></filter></defs><g><!--class Discipline--><rect fill="#FF0000" filter="url(#fltr8hvyznf6l)" height="48" id="Discipline" style="stroke: #A80036; stroke-width: 1.5;" width="87" x="231" y="8"/><rect fill="#FF0000" height="32" style="stroke: #A80036; stroke-width: 1.5;" width="87" x="231" y="8"/><ellipse cx="246" cy="24" fill="#ADD1B2" rx="11" ry="11" style="stroke: #A80036; stroke-width: 1.0;"/><path d="M248.7656,19.875 Q248.9219,19.6563 249.1094,19.5469 Q249.2969,19.4375 249.5156,19.4375 Q249.8906,19.4375 250.125,19.6953 Q250.3594,19.9531 250.3594,20.5625 L250.3594,22.0156 Q250.3594,22.625 250.125,22.8906 Q249.8906,23.1563 249.5156,23.1563 Q249.1719,23.1563 248.9688,22.9531 Q248.7656,22.7656 248.6563,22.25 Q248.6094,21.8906 248.4219,21.7031 Q248.0938,21.3281 247.4844,21.1094 Q246.875,20.8906 246.25,20.8906 Q245.4844,20.8906 244.8516,21.2188 Q244.2188,21.5469 243.7266,22.2969 Q243.2344,23.0469 243.2344,24.0781 L243.2344,25.1719 Q243.2344,26.4063 244.125,27.2266 Q245.0156,28.0469 246.6094,28.0469 Q247.5469,28.0469 248.2031,27.7969 Q248.5938,27.6406 249.0156,27.2031 Q249.2813,26.9375 249.4297,26.8594 Q249.5781,26.7813 249.7813,26.7813 Q250.1094,26.7813 250.3672,27.0391 Q250.625,27.2969 250.625,27.6406 Q250.625,27.9844 250.2813,28.3906 Q249.7813,28.9688 248.9844,29.2969 Q247.9063,29.75 246.6094,29.75 Q245.0938,29.75 243.8906,29.125 Q242.9063,28.625 242.2188,27.5547 Q241.5313,26.4844 241.5313,25.2031 L241.5313,24.0469 Q241.5313,22.7188 242.1484,21.5703 Q242.7656,20.4219 243.8594,19.8047 Q244.9531,19.1875 246.1875,19.1875 Q246.9219,19.1875 247.5703,19.3516 Q248.2188,19.5156 248.7656,19.875 Z "/><text fill="#000000" font-family="sans-serif" font-size="12" lengthAdjust="spacingAndGlyphs" textLength="55" x="260" y="28.9102">Discipline</text><line style="stroke: #A80036; stroke-width: 1.5;" x1="232" x2="317" y1="40" y2="40"/><line style="stroke: #A80036; stroke-width: 1.5;" x1="232" x2="317" y1="48" y2="48"/><!--class DesignDiscipline--><rect fill="#FF0000" filter="url(#fltr8hvyznf6l)" height="48" id="DesignDiscipline" style="stroke: #A80036; stroke-width: 1.5;" width="127" x="145" y="117"/><rect fill="#FF0000" height="32" style="stroke: #A80036; stroke-width: 1.5;" width="127" x="145" y="117"/><ellipse cx="160" cy="133" fill="#ADD1B2" rx="11" ry="11" style="stroke: #A80036; stroke-width: 1.0;"/><path d="M162.7656,128.875 Q162.9219,128.6563 163.1094,128.5469 Q163.2969,128.4375 163.5156,128.4375 Q163.8906,128.4375 164.125,128.6953 Q164.3594,128.9531 164.3594,129.5625 L164.3594,131.0156 Q164.3594,131.625 164.125,131.8906 Q163.8906,132.1563 163.5156,132.1563 Q163.1719,132.1563 162.9688,131.9531 Q162.7656,131.7656 162.6563,131.25 Q162.6094,130.8906 162.4219,130.7031 Q162.0938,130.3281 161.4844,130.1094 Q160.875,129.8906 160.25,129.8906 Q159.4844,129.8906 158.8516,130.2188 Q158.2188,130.5469 157.7266,131.2969 Q157.2344,132.0469 157.2344,133.0781 L157.2344,134.1719 Q157.2344,135.4063 158.125,136.2266 Q159.0156,137.0469 160.6094,137.0469 Q161.5469,137.0469 162.2031,136.7969 Q162.5938,136.6406 163.0156,136.2031 Q163.2813,135.9375 163.4297,135.8594 Q163.5781,135.7813 163.7813,135.7813 Q164.1094,135.7813 164.3672,136.0391 Q164.625,136.2969 164.625,136.6406 Q164.625,136.9844 164.2813,137.3906 Q163.7813,137.9688 162.9844,138.2969 Q161.9063,138.75 160.6094,138.75 Q159.0938,138.75 157.8906,138.125 Q156.9063,137.625 156.2188,136.5547 Q155.5313,135.4844 155.5313,134.2031 L155.5313,133.0469 Q155.5313,131.7188 156.1484,130.5703 Q156.7656,129.4219 157.8594,128.8047 Q158.9531,128.1875 160.1875,128.1875 Q160.9219,128.1875 161.5703,128.3516 Q162.2188,128.5156 162.7656,128.875 Z "/><text fill="#000000" font-family="sans-serif" font-size="12" lengthAdjust="spacingAndGlyphs" textLength="95" x="174" y="137.9102">DesignDiscipline</text><line style="stroke: #A80036; stroke-width: 1.5;" x1="146" x2="271" y1="149" y2="149"/><line style="stroke: #A80036; stroke-width: 1.5;" x1="146" x2="271" y1="157" y2="157"/><!--class Activity--><rect fill="#008000" filter="url(#fltr8hvyznf6l)" height="48" id="Activity" style="stroke: #A80036; stroke-width: 1.5;" width="67" x="307" y="117"/><rect fill="#008000" height="32" style="stroke: #A80036; stroke-width: 1.5;" width="67" x="307" y="117"/><ellipse cx="322" cy="133" fill="#ADD1B2" rx="11" ry="11" style="stroke: #A80036; stroke-width: 1.0;"/><path d="M324.7656,128.875 Q324.9219,128.6563 325.1094,128.5469 Q325.2969,128.4375 325.5156,128.4375 Q325.8906,128.4375 326.125,128.6953 Q326.3594,128.9531 326.3594,129.5625 L326.3594,131.0156 Q326.3594,131.625 326.125,131.8906 Q325.8906,132.1563 325.5156,132.1563 Q325.1719,132.1563 324.9688,131.9531 Q324.7656,131.7656 324.6563,131.25 Q324.6094,130.8906 324.4219,130.7031 Q324.0938,130.3281 323.4844,130.1094 Q322.875,129.8906 322.25,129.8906 Q321.4844,129.8906 320.8516,130.2188 Q320.2188,130.5469 319.7266,131.2969 Q319.2344,132.0469 319.2344,133.0781 L319.2344,134.1719 Q319.2344,135.4063 320.125,136.2266 Q321.0156,137.0469 322.6094,137.0469 Q323.5469,137.0469 324.2031,136.7969 Q324.5938,136.6406 325.0156,136.2031 Q325.2813,135.9375 325.4297,135.8594 Q325.5781,135.7813 325.7813,135.7813 Q326.1094,135.7813 326.3672,136.0391 Q326.625,136.2969 326.625,136.6406 Q326.625,136.9844 326.2813,137.3906 Q325.7813,137.9688 324.9844,138.2969 Q323.9063,138.75 322.6094,138.75 Q321.0938,138.75 319.8906,138.125 Q318.9063,137.625 318.2188,136.5547 Q317.5313,135.4844 317.5313,134.2031 L317.5313,133.0469 Q317.5313,131.7188 318.1484,130.5703 Q318.7656,129.4219 319.8594,128.8047 Q320.9531,128.1875 322.1875,128.1875 Q322.9219,128.1875 323.5703,128.3516 Q324.2188,128.5156 324.7656,128.875 Z "/><text fill="#000000" font-family="sans-serif" font-size="12" lengthAdjust="spacingAndGlyphs" textLength="35" x="336" y="137.9102">Activity</text><line style="stroke: #A80036; stroke-width: 1.5;" x1="308" x2="373" y1="149" y2="149"/><line style="stroke: #A80036; stroke-width: 1.5;" x1="308" x2="373" y1="157" y2="157"/><!--class DesignActivity--><rect fill="#008000" filter="url(#fltr8hvyznf6l)" height="48" id="DesignActivity" style="stroke: #A80036; stroke-width: 1.5;" width="107" x="232" y="226"/><rect fill="#008000" height="32" style="stroke: #A80036; stroke-width: 1.5;" width="107" x="232" y="226"/><ellipse cx="247" cy="242" fill="#ADD1B2" rx="11" ry="11" style="stroke: #A80036; stroke-width: 1.0;"/><path d="M249.7656,237.875 Q249.9219,237.6563 250.1094,237.5469 Q250.2969,237.4375 250.5156,237.4375 Q250.8906,237.4375 251.125,237.6953 Q251.3594,237.9531 251.3594,238.5625 L251.3594,240.0156 Q251.3594,240.625 251.125,240.8906 Q250.8906,241.1563 250.5156,241.1563 Q250.1719,241.1563 249.9688,240.9531 Q249.7656,240.7656 249.6563,240.25 Q249.6094,239.8906 249.4219,239.7031 Q249.0938,239.3281 248.4844,239.1094 Q247.875,238.8906 247.25,238.8906 Q246.4844,238.8906 245.8516,239.2188 Q245.2188,239.5469 244.7266,240.2969 Q244.2344,241.0469 244.2344,242.0781 L244.2344,243.1719 Q244.2344,244.4063 245.125,245.2266 Q246.0156,246.0469 247.6094,246.0469 Q248.5469,246.0469 249.2031,245.7969 Q249.5938,245.6406 250.0156,245.2031 Q250.2813,244.9375 250.4297,244.8594 Q250.5781,244.7813 250.7813,244.7813 Q251.1094,244.7813 251.3672,245.0391 Q251.625,245.2969 251.625,245.6406 Q251.625,245.9844 251.2813,246.3906 Q250.7813,246.9688 249.9844,247.2969 Q248.9063,247.75 247.6094,247.75 Q246.0938,247.75 244.8906,247.125 Q243.9063,246.625 243.2188,245.5547 Q242.5313,244.4844 242.5313,243.2031 L242.5313,242.0469 Q242.5313,240.7188 243.1484,239.5703 Q243.7656,238.4219 244.8594,237.8047 Q245.9531,237.1875 247.1875,237.1875 Q247.9219,237.1875 248.5703,237.3516 Q249.2188,237.5156 249.7656,237.875 Z "/><text fill="#000000" font-family="sans-serif" font-size="12" lengthAdjust="spacingAndGlyphs" textLength="75" x="261" y="246.9102">DesignActivity</text><line style="stroke: #A80036; stroke-width: 1.5;" x1="233" x2="338" y1="258" y2="258"/><line style="stroke: #A80036; stroke-width: 1.5;" x1="233" x2="338" y1="266" y2="266"/><!--class DesignArchitecture--><rect fill="#008000" filter="url(#fltr8hvyznf6l)" height="48" id="DesignArchitecture" style="stroke: #A80036; stroke-width: 1.5;" width="136" x="217.5" y="335"/><rect fill="#008000" height="32" style="stroke: #A80036; stroke-width: 1.5;" width="136" x="217.5" y="335"/><ellipse cx="232.5" cy="351" fill="#ADD1B2" rx="11" ry="11" style="stroke: #A80036; stroke-width: 1.0;"/><path d="M235.2656,346.875 Q235.4219,346.6563 235.6094,346.5469 Q235.7969,346.4375 236.0156,346.4375 Q236.3906,346.4375 236.625,346.6953 Q236.8594,346.9531 236.8594,347.5625 L236.8594,349.0156 Q236.8594,349.625 236.625,349.8906 Q236.3906,350.1563 236.0156,350.1563 Q235.6719,350.1563 235.4688,349.9531 Q235.2656,349.7656 235.1563,349.25 Q235.1094,348.8906 234.9219,348.7031 Q234.5938,348.3281 233.9844,348.1094 Q233.375,347.8906 232.75,347.8906 Q231.9844,347.8906 231.3516,348.2188 Q230.7188,348.5469 230.2266,349.2969 Q229.7344,350.0469 229.7344,351.0781 L229.7344,352.1719 Q229.7344,353.4063 230.625,354.2266 Q231.5156,355.0469 233.1094,355.0469 Q234.0469,355.0469 234.7031,354.7969 Q235.0938,354.6406 235.5156,354.2031 Q235.7813,353.9375 235.9297,353.8594 Q236.0781,353.7813 236.2813,353.7813 Q236.6094,353.7813 236.8672,354.0391 Q237.125,354.2969 237.125,354.6406 Q237.125,354.9844 236.7813,355.3906 Q236.2813,355.9688 235.4844,356.2969 Q234.4063,356.75 233.1094,356.75 Q231.5938,356.75 230.3906,356.125 Q229.4063,355.625 228.7188,354.5547 Q228.0313,353.4844 228.0313,352.2031 L228.0313,351.0469 Q228.0313,349.7188 228.6484,348.5703 Q229.2656,347.4219 230.3594,346.8047 Q231.4531,346.1875 232.6875,346.1875 Q233.4219,346.1875 234.0703,346.3516 Q234.7188,346.5156 235.2656,346.875 Z "/><text fill="#000000" font-family="sans-serif" font-size="12" lengthAdjust="spacingAndGlyphs" textLength="104" x="246.5" y="355.9102">DesignArchitecture</text><line style="stroke: #A80036; stroke-width: 1.5;" x1="218.5" x2="352.5" y1="367" y2="367"/><line style="stroke: #A80036; stroke-width: 1.5;" x1="218.5" x2="352.5" y1="375" y2="375"/><!--class DesignClass--><rect fill="#008000" filter="url(#fltr8hvyznf6l)" height="48" id="DesignClass" style="stroke: #A80036; stroke-width: 1.5;" width="105" x="6" y="461"/><rect fill="#008000" height="32" style="stroke: #A80036; stroke-width: 1.5;" width="105" x="6" y="461"/><ellipse cx="21" cy="477" fill="#ADD1B2" rx="11" ry="11" style="stroke: #A80036; stroke-width: 1.0;"/><path d="M23.7656,472.875 Q23.9219,472.6563 24.1094,472.5469 Q24.2969,472.4375 24.5156,472.4375 Q24.8906,472.4375 25.125,472.6953 Q25.3594,472.9531 25.3594,473.5625 L25.3594,475.0156 Q25.3594,475.625 25.125,475.8906 Q24.8906,476.1563 24.5156,476.1563 Q24.1719,476.1563 23.9688,475.9531 Q23.7656,475.7656 23.6563,475.25 Q23.6094,474.8906 23.4219,474.7031 Q23.0938,474.3281 22.4844,474.1094 Q21.875,473.8906 21.25,473.8906 Q20.4844,473.8906 19.8516,474.2188 Q19.2188,474.5469 18.7266,475.2969 Q18.2344,476.0469 18.2344,477.0781 L18.2344,478.1719 Q18.2344,479.4063 19.125,480.2266 Q20.0156,481.0469 21.6094,481.0469 Q22.5469,481.0469 23.2031,480.7969 Q23.5938,480.6406 24.0156,480.2031 Q24.2813,479.9375 24.4297,479.8594 Q24.5781,479.7813 24.7813,479.7813 Q25.1094,479.7813 25.3672,480.0391 Q25.625,480.2969 25.625,480.6406 Q25.625,480.9844 25.2813,481.3906 Q24.7813,481.9688 23.9844,482.2969 Q22.9063,482.75 21.6094,482.75 Q20.0938,482.75 18.8906,482.125 Q17.9063,481.625 17.2188,480.5547 Q16.5313,479.4844 16.5313,478.2031 L16.5313,477.0469 Q16.5313,475.7188 17.1484,474.5703 Q17.7656,473.4219 18.8594,472.8047 Q19.9531,472.1875 21.1875,472.1875 Q21.9219,472.1875 22.5703,472.3516 Q23.2188,472.5156 23.7656,472.875 Z "/><text fill="#000000" font-family="sans-serif" font-size="12" lengthAdjust="spacingAndGlyphs" textLength="73" x="35" y="481.9102">DesignClass</text><line style="stroke: #A80036; stroke-width: 1.5;" x1="7" x2="110" y1="493" y2="493"/><line style="stroke: #A80036; stroke-width: 1.5;" x1="7" x2="110" y1="501" y2="501"/><!--class DesignCaseUse--><rect fill="#008000" filter="url(#fltr8hvyznf6l)" height="48" id="DesignCaseUse" style="stroke: #A80036; stroke-width: 1.5;" width="125" x="326" y="587"/><rect fill="#008000" height="32" style="stroke: #A80036; stroke-width: 1.5;" width="125" x="326" y="587"/><ellipse cx="341" cy="603" fill="#ADD1B2" rx="11" ry="11" style="stroke: #A80036; stroke-width: 1.0;"/><path d="M343.7656,598.875 Q343.9219,598.6563 344.1094,598.5469 Q344.2969,598.4375 344.5156,598.4375 Q344.8906,598.4375 345.125,598.6953 Q345.3594,598.9531 345.3594,599.5625 L345.3594,601.0156 Q345.3594,601.625 345.125,601.8906 Q344.8906,602.1563 344.5156,602.1563 Q344.1719,602.1563 343.9688,601.9531 Q343.7656,601.7656 343.6563,601.25 Q343.6094,600.8906 343.4219,600.7031 Q343.0938,600.3281 342.4844,600.1094 Q341.875,599.8906 341.25,599.8906 Q340.4844,599.8906 339.8516,600.2188 Q339.2188,600.5469 338.7266,601.2969 Q338.2344,602.0469 338.2344,603.0781 L338.2344,604.1719 Q338.2344,605.4063 339.125,606.2266 Q340.0156,607.0469 341.6094,607.0469 Q342.5469,607.0469 343.2031,606.7969 Q343.5938,606.6406 344.0156,606.2031 Q344.2813,605.9375 344.4297,605.8594 Q344.5781,605.7813 344.7813,605.7813 Q345.1094,605.7813 345.3672,606.0391 Q345.625,606.2969 345.625,606.6406 Q345.625,606.9844 345.2813,607.3906 Q344.7813,607.9688 343.9844,608.2969 Q342.9063,608.75 341.6094,608.75 Q340.0938,608.75 338.8906,608.125 Q337.9063,607.625 337.2188,606.5547 Q336.5313,605.4844 336.5313,604.2031 L336.5313,603.0469 Q336.5313,601.7188 337.1484,600.5703 Q337.7656,599.4219 338.8594,598.8047 Q339.9531,598.1875 341.1875,598.1875 Q341.9219,598.1875 342.5703,598.3516 Q343.2188,598.5156 343.7656,598.875 Z "/><text fill="#000000" font-family="sans-serif" font-size="12" lengthAdjust="spacingAndGlyphs" textLength="93" x="355" y="607.9102">DesignCaseUse</text><line style="stroke: #A80036; stroke-width: 1.5;" x1="327" x2="450" y1="619" y2="619"/><line style="stroke: #A80036; stroke-width: 1.5;" x1="327" x2="450" y1="627" y2="627"/><!--class DesignSubsystems--><rect fill="#008000" filter="url(#fltr8hvyznf6l)" height="48" id="DesignSubsystems" style="stroke: #A80036; stroke-width: 1.5;" width="141" x="57" y="713"/><rect fill="#008000" height="32" style="stroke: #A80036; stroke-width: 1.5;" width="141" x="57" y="713"/><ellipse cx="72" cy="729" fill="#ADD1B2" rx="11" ry="11" style="stroke: #A80036; stroke-width: 1.0;"/><path d="M74.7656,724.875 Q74.9219,724.6563 75.1094,724.5469 Q75.2969,724.4375 75.5156,724.4375 Q75.8906,724.4375 76.125,724.6953 Q76.3594,724.9531 76.3594,725.5625 L76.3594,727.0156 Q76.3594,727.625 76.125,727.8906 Q75.8906,728.1563 75.5156,728.1563 Q75.1719,728.1563 74.9688,727.9531 Q74.7656,727.7656 74.6563,727.25 Q74.6094,726.8906 74.4219,726.7031 Q74.0938,726.3281 73.4844,726.1094 Q72.875,725.8906 72.25,725.8906 Q71.4844,725.8906 70.8516,726.2188 Q70.2188,726.5469 69.7266,727.2969 Q69.2344,728.0469 69.2344,729.0781 L69.2344,730.1719 Q69.2344,731.4063 70.125,732.2266 Q71.0156,733.0469 72.6094,733.0469 Q73.5469,733.0469 74.2031,732.7969 Q74.5938,732.6406 75.0156,732.2031 Q75.2813,731.9375 75.4297,731.8594 Q75.5781,731.7813 75.7813,731.7813 Q76.1094,731.7813 76.3672,732.0391 Q76.625,732.2969 76.625,732.6406 Q76.625,732.9844 76.2813,733.3906 Q75.7813,733.9688 74.9844,734.2969 Q73.9063,734.75 72.6094,734.75 Q71.0938,734.75 69.8906,734.125 Q68.9063,733.625 68.2188,732.5547 Q67.5313,731.4844 67.5313,730.2031 L67.5313,729.0469 Q67.5313,727.7188 68.1484,726.5703 Q68.7656,725.4219 69.8594,724.8047 Q70.9531,724.1875 72.1875,724.1875 Q72.9219,724.1875 73.5703,724.3516 Q74.2188,724.5156 74.7656,724.875 Z "/><text fill="#000000" font-family="sans-serif" font-size="12" lengthAdjust="spacingAndGlyphs" textLength="109" x="86" y="733.9102">DesignSubsystems</text><line style="stroke: #A80036; stroke-width: 1.5;" x1="58" x2="197" y1="745" y2="745"/><line style="stroke: #A80036; stroke-width: 1.5;" x1="58" x2="197" y1="753" y2="753"/><!--class Member--><rect fill="#FFFFFF" filter="url(#fltr8hvyznf6l)" height="48" id="Member" style="stroke: #A80036; stroke-width: 1.5;" width="77" x="495" y="335"/><rect fill="#FFFFFF" height="32" style="stroke: #A80036; stroke-width: 1.5;" width="77" x="495" y="335"/><ellipse cx="510" cy="351" fill="#ADD1B2" rx="11" ry="11" style="stroke: #A80036; stroke-width: 1.0;"/><path d="M512.7656,346.875 Q512.9219,346.6563 513.1094,346.5469 Q513.2969,346.4375 513.5156,346.4375 Q513.8906,346.4375 514.125,346.6953 Q514.3594,346.9531 514.3594,347.5625 L514.3594,349.0156 Q514.3594,349.625 514.125,349.8906 Q513.8906,350.1563 513.5156,350.1563 Q513.1719,350.1563 512.9688,349.9531 Q512.7656,349.7656 512.6563,349.25 Q512.6094,348.8906 512.4219,348.7031 Q512.0938,348.3281 511.4844,348.1094 Q510.875,347.8906 510.25,347.8906 Q509.4844,347.8906 508.8516,348.2188 Q508.2188,348.5469 507.7266,349.2969 Q507.2344,350.0469 507.2344,351.0781 L507.2344,352.1719 Q507.2344,353.4063 508.125,354.2266 Q509.0156,355.0469 510.6094,355.0469 Q511.5469,355.0469 512.2031,354.7969 Q512.5938,354.6406 513.0156,354.2031 Q513.2813,353.9375 513.4297,353.8594 Q513.5781,353.7813 513.7813,353.7813 Q514.1094,353.7813 514.3672,354.0391 Q514.625,354.2969 514.625,354.6406 Q514.625,354.9844 514.2813,355.3906 Q513.7813,355.9688 512.9844,356.2969 Q511.9063,356.75 510.6094,356.75 Q509.0938,356.75 507.8906,356.125 Q506.9063,355.625 506.2188,354.5547 Q505.5313,353.4844 505.5313,352.2031 L505.5313,351.0469 Q505.5313,349.7188 506.1484,348.5703 Q506.7656,347.4219 507.8594,346.8047 Q508.9531,346.1875 510.1875,346.1875 Q510.9219,346.1875 511.5703,346.3516 Q512.2188,346.5156 512.7656,346.875 Z "/><text fill="#000000" font-family="sans-serif" font-size="12" lengthAdjust="spacingAndGlyphs" textLength="45" x="524" y="355.9102">Member</text><line style="stroke: #A80036; stroke-width: 1.5;" x1="496" x2="571" y1="367" y2="367"/><line style="stroke: #A80036; stroke-width: 1.5;" x1="496" x2="571" y1="375" y2="375"/><!--class Role--><rect fill="#FFFFFF" filter="url(#fltr8hvyznf6l)" height="48" id="Role" style="stroke: #A80036; stroke-width: 1.5;" width="58" x="505.5" y="461"/><rect fill="#FFFFFF" height="32" style="stroke: #A80036; stroke-width: 1.5;" width="58" x="505.5" y="461"/><ellipse cx="520.5" cy="477" fill="#ADD1B2" rx="11" ry="11" style="stroke: #A80036; stroke-width: 1.0;"/><path d="M523.2656,472.875 Q523.4219,472.6563 523.6094,472.5469 Q523.7969,472.4375 524.0156,472.4375 Q524.3906,472.4375 524.625,472.6953 Q524.8594,472.9531 524.8594,473.5625 L524.8594,475.0156 Q524.8594,475.625 524.625,475.8906 Q524.3906,476.1563 524.0156,476.1563 Q523.6719,476.1563 523.4688,475.9531 Q523.2656,475.7656 523.1563,475.25 Q523.1094,474.8906 522.9219,474.7031 Q522.5938,474.3281 521.9844,474.1094 Q521.375,473.8906 520.75,473.8906 Q519.9844,473.8906 519.3516,474.2188 Q518.7188,474.5469 518.2266,475.2969 Q517.7344,476.0469 517.7344,477.0781 L517.7344,478.1719 Q517.7344,479.4063 518.625,480.2266 Q519.5156,481.0469 521.1094,481.0469 Q522.0469,481.0469 522.7031,480.7969 Q523.0938,480.6406 523.5156,480.2031 Q523.7813,479.9375 523.9297,479.8594 Q524.0781,479.7813 524.2813,479.7813 Q524.6094,479.7813 524.8672,480.0391 Q525.125,480.2969 525.125,480.6406 Q525.125,480.9844 524.7813,481.3906 Q524.2813,481.9688 523.4844,482.2969 Q522.4063,482.75 521.1094,482.75 Q519.5938,482.75 518.3906,482.125 Q517.4063,481.625 516.7188,480.5547 Q516.0313,479.4844 516.0313,478.2031 L516.0313,477.0469 Q516.0313,475.7188 516.6484,474.5703 Q517.2656,473.4219 518.3594,472.8047 Q519.4531,472.1875 520.6875,472.1875 Q521.4219,472.1875 522.0703,472.3516 Q522.7188,472.5156 523.2656,472.875 Z "/><text fill="#000000" font-family="sans-serif" font-size="12" lengthAdjust="spacingAndGlyphs" textLength="26" x="534.5" y="481.9102">Role</text><line style="stroke: #A80036; stroke-width: 1.5;" x1="506.5" x2="562.5" y1="493" y2="493"/><line style="stroke: #A80036; stroke-width: 1.5;" x1="506.5" x2="562.5" y1="501" y2="501"/><!--class DesignRole--><rect fill="#0000FF" filter="url(#fltr8hvyznf6l)" height="48" id="DesignRole" style="stroke: #A80036; stroke-width: 1.5;" width="98" x="486.5" y="587"/><rect fill="#0000FF" height="32" style="stroke: #A80036; stroke-width: 1.5;" width="98" x="486.5" y="587"/><ellipse cx="501.5" cy="603" fill="#ADD1B2" rx="11" ry="11" style="stroke: #A80036; stroke-width: 1.0;"/><path d="M504.2656,598.875 Q504.4219,598.6563 504.6094,598.5469 Q504.7969,598.4375 505.0156,598.4375 Q505.3906,598.4375 505.625,598.6953 Q505.8594,598.9531 505.8594,599.5625 L505.8594,601.0156 Q505.8594,601.625 505.625,601.8906 Q505.3906,602.1563 505.0156,602.1563 Q504.6719,602.1563 504.4688,601.9531 Q504.2656,601.7656 504.1563,601.25 Q504.1094,600.8906 503.9219,600.7031 Q503.5938,600.3281 502.9844,600.1094 Q502.375,599.8906 501.75,599.8906 Q500.9844,599.8906 500.3516,600.2188 Q499.7188,600.5469 499.2266,601.2969 Q498.7344,602.0469 498.7344,603.0781 L498.7344,604.1719 Q498.7344,605.4063 499.625,606.2266 Q500.5156,607.0469 502.1094,607.0469 Q503.0469,607.0469 503.7031,606.7969 Q504.0938,606.6406 504.5156,606.2031 Q504.7813,605.9375 504.9297,605.8594 Q505.0781,605.7813 505.2813,605.7813 Q505.6094,605.7813 505.8672,606.0391 Q506.125,606.2969 506.125,606.6406 Q506.125,606.9844 505.7813,607.3906 Q505.2813,607.9688 504.4844,608.2969 Q503.4063,608.75 502.1094,608.75 Q500.5938,608.75 499.3906,608.125 Q498.4063,607.625 497.7188,606.5547 Q497.0313,605.4844 497.0313,604.2031 L497.0313,603.0469 Q497.0313,601.7188 497.6484,600.5703 Q498.2656,599.4219 499.3594,598.8047 Q500.4531,598.1875 501.6875,598.1875 Q502.4219,598.1875 503.0703,598.3516 Q503.7188,598.5156 504.2656,598.875 Z "/><text fill="#000000" font-family="sans-serif" font-size="12" lengthAdjust="spacingAndGlyphs" textLength="66" x="515.5" y="607.9102">DesignRole</text><line style="stroke: #A80036; stroke-width: 1.5;" x1="487.5" x2="583.5" y1="619" y2="619"/><line style="stroke: #A80036; stroke-width: 1.5;" x1="487.5" x2="583.5" y1="627" y2="627"/><!--class Architect--><rect fill="#0000FF" filter="url(#fltr8hvyznf6l)" height="48" id="Architect" style="stroke: #A80036; stroke-width: 1.5;" width="78" x="233.5" y="713"/><rect fill="#0000FF" height="32" style="stroke: #A80036; stroke-width: 1.5;" width="78" x="233.5" y="713"/><ellipse cx="248.5" cy="729" fill="#ADD1B2" rx="11" ry="11" style="stroke: #A80036; stroke-width: 1.0;"/><path d="M251.2656,724.875 Q251.4219,724.6563 251.6094,724.5469 Q251.7969,724.4375 252.0156,724.4375 Q252.3906,724.4375 252.625,724.6953 Q252.8594,724.9531 252.8594,725.5625 L252.8594,727.0156 Q252.8594,727.625 252.625,727.8906 Q252.3906,728.1563 252.0156,728.1563 Q251.6719,728.1563 251.4688,727.9531 Q251.2656,727.7656 251.1563,727.25 Q251.1094,726.8906 250.9219,726.7031 Q250.5938,726.3281 249.9844,726.1094 Q249.375,725.8906 248.75,725.8906 Q247.9844,725.8906 247.3516,726.2188 Q246.7188,726.5469 246.2266,727.2969 Q245.7344,728.0469 245.7344,729.0781 L245.7344,730.1719 Q245.7344,731.4063 246.625,732.2266 Q247.5156,733.0469 249.1094,733.0469 Q250.0469,733.0469 250.7031,732.7969 Q251.0938,732.6406 251.5156,732.2031 Q251.7813,731.9375 251.9297,731.8594 Q252.0781,731.7813 252.2813,731.7813 Q252.6094,731.7813 252.8672,732.0391 Q253.125,732.2969 253.125,732.6406 Q253.125,732.9844 252.7813,733.3906 Q252.2813,733.9688 251.4844,734.2969 Q250.4063,734.75 249.1094,734.75 Q247.5938,734.75 246.3906,734.125 Q245.4063,733.625 244.7188,732.5547 Q244.0313,731.4844 244.0313,730.2031 L244.0313,729.0469 Q244.0313,727.7188 244.6484,726.5703 Q245.2656,725.4219 246.3594,724.8047 Q247.4531,724.1875 248.6875,724.1875 Q249.4219,724.1875 250.0703,724.3516 Q250.7188,724.5156 251.2656,724.875 Z "/><text fill="#000000" font-family="sans-serif" font-size="12" lengthAdjust="spacingAndGlyphs" textLength="46" x="262.5" y="733.9102">Architect</text><line style="stroke: #A80036; stroke-width: 1.5;" x1="234.5" x2="310.5" y1="745" y2="745"/><line style="stroke: #A80036; stroke-width: 1.5;" x1="234.5" x2="310.5" y1="753" y2="753"/><!--class EngineerUseCases--><rect fill="#0000FF" filter="url(#fltr8hvyznf6l)" height="48" id="EngineerUseCases" style="stroke: #A80036; stroke-width: 1.5;" width="142" x="346.5" y="713"/><rect fill="#0000FF" height="32" style="stroke: #A80036; stroke-width: 1.5;" width="142" x="346.5" y="713"/><ellipse cx="361.5" cy="729" fill="#ADD1B2" rx="11" ry="11" style="stroke: #A80036; stroke-width: 1.0;"/><path d="M364.2656,724.875 Q364.4219,724.6563 364.6094,724.5469 Q364.7969,724.4375 365.0156,724.4375 Q365.3906,724.4375 365.625,724.6953 Q365.8594,724.9531 365.8594,725.5625 L365.8594,727.0156 Q365.8594,727.625 365.625,727.8906 Q365.3906,728.1563 365.0156,728.1563 Q364.6719,728.1563 364.4688,727.9531 Q364.2656,727.7656 364.1563,727.25 Q364.1094,726.8906 363.9219,726.7031 Q363.5938,726.3281 362.9844,726.1094 Q362.375,725.8906 361.75,725.8906 Q360.9844,725.8906 360.3516,726.2188 Q359.7188,726.5469 359.2266,727.2969 Q358.7344,728.0469 358.7344,729.0781 L358.7344,730.1719 Q358.7344,731.4063 359.625,732.2266 Q360.5156,733.0469 362.1094,733.0469 Q363.0469,733.0469 363.7031,732.7969 Q364.0938,732.6406 364.5156,732.2031 Q364.7813,731.9375 364.9297,731.8594 Q365.0781,731.7813 365.2813,731.7813 Q365.6094,731.7813 365.8672,732.0391 Q366.125,732.2969 366.125,732.6406 Q366.125,732.9844 365.7813,733.3906 Q365.2813,733.9688 364.4844,734.2969 Q363.4063,734.75 362.1094,734.75 Q360.5938,734.75 359.3906,734.125 Q358.4063,733.625 357.7188,732.5547 Q357.0313,731.4844 357.0313,730.2031 L357.0313,729.0469 Q357.0313,727.7188 357.6484,726.5703 Q358.2656,725.4219 359.3594,724.8047 Q360.4531,724.1875 361.6875,724.1875 Q362.4219,724.1875 363.0703,724.3516 Q363.7188,724.5156 364.2656,724.875 Z "/><text fill="#000000" font-family="sans-serif" font-size="12" lengthAdjust="spacingAndGlyphs" textLength="110" x="375.5" y="733.9102">EngineerUseCases</text><line style="stroke: #A80036; stroke-width: 1.5;" x1="347.5" x2="487.5" y1="745" y2="745"/><line style="stroke: #A80036; stroke-width: 1.5;" x1="347.5" x2="487.5" y1="753" y2="753"/><!--class EngineerComponents--><rect fill="#0000FF" filter="url(#fltr8hvyznf6l)" height="48" id="EngineerComponents" style="stroke: #A80036; stroke-width: 1.5;" width="154" x="50.5" y="822"/><rect fill="#0000FF" height="32" style="stroke: #A80036; stroke-width: 1.5;" width="154" x="50.5" y="822"/><ellipse cx="65.5" cy="838" fill="#ADD1B2" rx="11" ry="11" style="stroke: #A80036; stroke-width: 1.0;"/><path d="M68.2656,833.875 Q68.4219,833.6563 68.6094,833.5469 Q68.7969,833.4375 69.0156,833.4375 Q69.3906,833.4375 69.625,833.6953 Q69.8594,833.9531 69.8594,834.5625 L69.8594,836.0156 Q69.8594,836.625 69.625,836.8906 Q69.3906,837.1563 69.0156,837.1563 Q68.6719,837.1563 68.4688,836.9531 Q68.2656,836.7656 68.1563,836.25 Q68.1094,835.8906 67.9219,835.7031 Q67.5938,835.3281 66.9844,835.1094 Q66.375,834.8906 65.75,834.8906 Q64.9844,834.8906 64.3516,835.2188 Q63.7188,835.5469 63.2266,836.2969 Q62.7344,837.0469 62.7344,838.0781 L62.7344,839.1719 Q62.7344,840.4063 63.625,841.2266 Q64.5156,842.0469 66.1094,842.0469 Q67.0469,842.0469 67.7031,841.7969 Q68.0938,841.6406 68.5156,841.2031 Q68.7813,840.9375 68.9297,840.8594 Q69.0781,840.7813 69.2813,840.7813 Q69.6094,840.7813 69.8672,841.0391 Q70.125,841.2969 70.125,841.6406 Q70.125,841.9844 69.7813,842.3906 Q69.2813,842.9688 68.4844,843.2969 Q67.4063,843.75 66.1094,843.75 Q64.5938,843.75 63.3906,843.125 Q62.4063,842.625 61.7188,841.5547 Q61.0313,840.4844 61.0313,839.2031 L61.0313,838.0469 Q61.0313,836.7188 61.6484,835.5703 Q62.2656,834.4219 63.3594,833.8047 Q64.4531,833.1875 65.6875,833.1875 Q66.4219,833.1875 67.0703,833.3516 Q67.7188,833.5156 68.2656,833.875 Z "/><text fill="#000000" font-family="sans-serif" font-size="12" lengthAdjust="spacingAndGlyphs" textLength="122" x="79.5" y="842.9102">EngineerComponents</text><line style="stroke: #A80036; stroke-width: 1.5;" x1="51.5" x2="203.5" y1="854" y2="854"/><line style="stroke: #A80036; stroke-width: 1.5;" x1="51.5" x2="203.5" y1="862" y2="862"/><!--link Discipline to Activity--><path d="M295.724,67.408 C303.276,79.652 311.775,93.431 319.323,105.668 " fill="none" id="Discipline-Activity" style="stroke: #A80036; stroke-width: 1.0;"/><polygon fill="#A80036" points="326.207,116.828,324.8868,107.068,323.5822,112.5724,318.0778,111.2677,326.207,116.828" style="stroke: #A80036; stroke-width: 1.0;"/><line style="stroke: #A80036; stroke-width: 1.0;" x1="323.5822" x2="319.3825" y1="112.5724" y2="105.7635"/><polygon fill="#A80036" points="288.821,56.217,288.5669,63.4236,295.1215,66.4299,295.3756,59.2233,288.821,56.217" style="stroke: #A80036; stroke-width: 1.0;"/><!--link Discipline to DesignDiscipline--><path d="M249.433,73.639 C240.422,88.248 230.572,104.217 222.793,116.828 " fill="none" id="Discipline-DesignDiscipline" style="stroke: #A80036; stroke-width: 1.0;"/><polygon fill="none" points="243.721,69.565,260.179,56.217,255.637,76.915,243.721,69.565" style="stroke: #A80036; stroke-width: 1.0;"/><!--link DesignDiscipline to DesignActivity--><path d="M232.923,175.938 C241.882,188.388 252.02,202.476 260.987,214.936 " fill="none" id="DesignDiscipline-DesignActivity" style="stroke: #A80036; stroke-width: 1.0;"/><polygon fill="#A80036" points="268.825,225.828,266.814,216.1866,265.9042,221.7698,260.321,220.86,268.825,225.828" style="stroke: #A80036; stroke-width: 1.0;"/><line style="stroke: #A80036; stroke-width: 1.0;" x1="265.9042" x2="261.231" y1="221.7698" y2="215.276"/><polygon fill="#A80036" points="225.208,165.217,225.4658,172.4235,232.2171,174.9572,231.9593,167.7507,225.208,165.217" style="stroke: #A80036; stroke-width: 1.0;"/><!--link Activity to DesignActivity--><path d="M319.36,183.127 C311.919,197.602 303.821,213.357 297.411,225.828 " fill="none" id="Activity-DesignActivity" style="stroke: #A80036; stroke-width: 1.0;"/><polygon fill="none" points="313.197,179.805,328.566,165.217,325.648,186.205,313.197,179.805" style="stroke: #A80036; stroke-width: 1.0;"/><!--link DesignActivity to DesignArchitecture--><path d="M285.5,294.578 C285.5,308.362 285.5,323.057 285.5,334.828 " fill="none" id="DesignActivity-DesignArchitecture" style="stroke: #A80036; stroke-width: 1.0;"/><polygon fill="none" points="278.5,294.217,285.5,274.217,292.5,294.217,278.5,294.217" style="stroke: #A80036; stroke-width: 1.0;"/><!--link DesignActivity to DesignClass--><path d="M212.13,264.933 C186.37,272.839 158.818,285.098 138.5,304 C91.9292,347.325 70.8001,422.714 62.7272,460.703 " fill="none" id="DesignActivity-DesignClass" style="stroke: #A80036; stroke-width: 1.0;"/><polygon fill="none" points="210.643,258.083,231.779,259.59,214.317,271.593,210.643,258.083" style="stroke: #A80036; stroke-width: 1.0;"/><!--link DesignActivity to DesignCaseUse--><path d="M333.857,287.547 C348.051,300.865 362.026,317.097 370.5,335 C410.928,420.409 399.69,537.712 392.443,586.862 " fill="none" id="DesignActivity-DesignCaseUse" style="stroke: #A80036; stroke-width: 1.0;"/><polygon fill="none" points="329.119,292.704,318.618,274.299,338.304,282.138,329.119,292.704" style="stroke: #A80036; stroke-width: 1.0;"/><!--link DesignActivity to DesignSubsystems--><path d="M214.269,284.295 C187.989,301.841 164.5,326.37 164.5,358 C164.5,358 164.5,358 164.5,612 C164.5,648.394 149.683,688.383 138.802,712.843 " fill="none" id="DesignActivity-DesignSubsystems" style="stroke: #A80036; stroke-width: 1.0;"/><polygon fill="none" points="210.981,278.104,231.723,273.77,218.211,290.092,210.981,278.104" style="stroke: #A80036; stroke-width: 1.0;"/><!--link DesignArchitecture to DesignCaseUse--><path d="M295.005,383.071 C314.014,429.209 356.641,532.672 377.108,582.349 " fill="none" id="DesignArchitecture-DesignCaseUse" style="stroke: #A80036; stroke-width: 1.0;"/><polygon fill="#A80036" points="379.018,586.984,379.2886,577.1389,377.1136,582.3609,371.8916,580.1859,379.018,586.984" style="stroke: #A80036; stroke-width: 1.0;"/><text fill="#000000" font-family="sans-serif" font-size="13" lengthAdjust="spacingAndGlyphs" textLength="25" x="347.5" y="490.4951">next</text><!--link DesignArchitecture to DesignClass--><path d="M243.335,383.033 C204.278,404.368 146.269,436.056 105.6842,458.225 " fill="none" id="DesignArchitecture-DesignClass" style="stroke: #A80036; stroke-width: 1.0;"/><polygon fill="#A80036" points="100.8237,460.88,110.6395,460.0743,105.2113,458.4823,106.8032,453.0541,100.8237,460.88" style="stroke: #A80036; stroke-width: 1.0;"/><text fill="#000000" font-family="sans-serif" font-size="13" lengthAdjust="spacingAndGlyphs" textLength="25" x="187.5" y="427.4951">next</text><!--link DesignClass to DesignCaseUse--><path d="M111.154,505.785 C168.438,527.31 260.126,561.762 322.257,585.109 " fill="none" id="DesignClass-DesignCaseUse" style="stroke: #A80036; stroke-width: 1.0;"/><polygon fill="#A80036" points="327.051,586.91,320.0325,580.0006,322.3704,585.1517,317.2192,587.4896,327.051,586.91" style="stroke: #A80036; stroke-width: 1.0;"/><text fill="#000000" font-family="sans-serif" font-size="13" lengthAdjust="spacingAndGlyphs" textLength="25" x="244.5" y="553.4951">next</text><!--link DesignClass to DesignSubsystems--><path d="M64.8677,509.071 C77.576,555.116 106.042,658.255 119.785,708.048 " fill="none" id="DesignClass-DesignSubsystems" style="stroke: #A80036; stroke-width: 1.0;"/><polygon fill="#A80036" points="121.148,712.984,122.61,703.2443,119.818,708.1641,114.8982,705.3722,121.148,712.984" style="stroke: #A80036; stroke-width: 1.0;"/><text fill="#000000" font-family="sans-serif" font-size="13" lengthAdjust="spacingAndGlyphs" textLength="25" x="100.5" y="616.4951">next</text><!--link DesignCaseUse to DesignSubsystems--><path d="M340.02,635.033 C294.839,656.498 227.601,688.442 180.9,710.63 " fill="none" id="DesignCaseUse-DesignSubsystems" style="stroke: #A80036; stroke-width: 1.0;"/><polygon fill="#A80036" points="176.163,712.88,186.0087,712.6303,180.6791,710.7341,182.5753,705.4045,176.163,712.88" style="stroke: #A80036; stroke-width: 1.0;"/><text fill="#000000" font-family="sans-serif" font-size="13" lengthAdjust="spacingAndGlyphs" textLength="25" x="275.5" y="679.4951">next</text><!--link DesignActivity to Member--><path d="M352.18,263.894 C387.451,272.327 430.734,285.306 466.5,304 C478.096,310.061 489.599,318.294 499.715,326.505 " fill="none" id="DesignActivity-Member" style="stroke: #A80036; stroke-width: 1.0;"/><polygon fill="#A80036" points="509.702,334.961,505.4179,326.0927,505.886,331.7302,500.2486,332.1983,509.702,334.961" style="stroke: #A80036; stroke-width: 1.0;"/><line style="stroke: #A80036; stroke-width: 1.0;" x1="505.886" x2="499.781" y1="331.7302" y2="326.5605"/><polygon fill="#A80036" points="339.087,260.882,344.0377,266.1252,350.7816,263.5719,345.831,258.3288,339.087,260.882" style="stroke: #A80036; stroke-width: 1.0;"/><!--link Member to Role--><path d="M533.792,396.212 C533.922,412.298 534.074,431.203 534.204,447.341 " fill="none" id="Member-Role" style="stroke: #A80036; stroke-width: 1.0;"/><polygon fill="#A80036" points="534.312,460.67,538.2387,451.6378,534.2713,455.6702,530.2389,451.7028,534.312,460.67" style="stroke: #A80036; stroke-width: 1.0;"/><line style="stroke: #A80036; stroke-width: 1.0;" x1="534.2713" x2="534.207" y1="455.6702" y2="447.67"/><polygon fill="#A80036" points="533.686,383.033,529.7343,389.0649,533.7823,395.0326,537.734,389.0007,533.686,383.033" style="stroke: #A80036; stroke-width: 1.0;"/><!--link Role to DesignRole--><path d="M534.849,529.234 C535.004,548.536 535.182,570.517 535.312,586.67 " fill="none" id="Role-DesignRole" style="stroke: #A80036; stroke-width: 1.0;"/><polygon fill="none" points="527.847,529.089,534.686,509.033,541.847,528.976,527.847,529.089" style="stroke: #A80036; stroke-width: 1.0;"/><!--link DesignRole to Architect--><path d="M468.516,643.582 C418.901,666.974 352.998,698.046 311.665,717.534 " fill="none" id="DesignRole-Architect" style="stroke: #A80036; stroke-width: 1.0;"/><polygon fill="none" points="465.573,637.231,486.648,635.033,471.543,649.894,465.573,637.231" style="stroke: #A80036; stroke-width: 1.0;"/><!--link DesignRole to EngineerUseCases--><path d="M499.612,649.713 C480.091,670.227 456.56,694.954 439.701,712.67 " fill="none" id="DesignRole-EngineerUseCases" style="stroke: #A80036; stroke-width: 1.0;"/><polygon fill="none" points="494.723,644.696,513.582,635.033,504.865,654.347,494.723,644.696" style="stroke: #A80036; stroke-width: 1.0;"/><!--link DesignRole to EngineerComponents--><path d="M538.581,655.556 C538.444,688.81 532.493,733.462 505.5,761 C464.324,803.0074 302.804,826.836 204.714,837.7096 " fill="none" id="DesignRole-EngineerComponents" style="stroke: #A80036; stroke-width: 1.0;"/><polygon fill="none" points="531.572,655.379,537.964,635.176,545.566,654.955,531.572,655.379" style="stroke: #A80036; stroke-width: 1.0;"/><!--link DesignArchitecture to Architect--><path d="M284.697,383.237 C282.425,448.932 275.961,635.885 273.483,707.556 " fill="none" id="DesignArchitecture-Architect" style="stroke: #A80036; stroke-width: 1.0;"/><polygon fill="#A80036" points="273.298,712.918,277.6067,704.0617,273.4709,707.921,269.6115,703.7851,273.298,712.918" style="stroke: #A80036; stroke-width: 1.0;"/><!--link DesignCaseUse to EngineerUseCases--><path d="M393.887,635.033 C398.679,655.522 405.704,685.561 410.846,707.546 " fill="none" id="DesignCaseUse-EngineerUseCases" style="stroke: #A80036; stroke-width: 1.0;"/><polygon fill="#A80036" points="412.044,712.67,413.8895,702.9956,410.9054,707.8014,406.0996,704.8173,412.044,712.67" style="stroke: #A80036; stroke-width: 1.0;"/><!--link DesignClass to EngineerComponents--><path d="M50.0276,509.276 C33.6558,558.199 2.4112,674.324 39.5,761 C49.4648,784.2876 69.4063,804.1913 87.79,818.7707 " fill="none" id="DesignClass-EngineerComponents" style="stroke: #A80036; stroke-width: 1.0;"/><polygon fill="#A80036" points="91.9293,821.9864,87.2758,813.3062,87.9808,818.919,82.368,819.6239,91.9293,821.9864" style="stroke: #A80036; stroke-width: 1.0;"/><!--link DesignSubsystems to EngineerComponents--><path d="M127.5,761.217 C127.5,777.4823 127.5,799.3151 127.5,816.6155 " fill="none" id="DesignSubsystems-EngineerComponents" style="stroke: #A80036; stroke-width: 1.0;"/><polygon fill="#A80036" points="127.5,821.8279,131.5,812.8279,127.5,816.8279,123.5,812.8279,127.5,821.8279" style="stroke: #A80036; stroke-width: 1.0;"/><!--
@startuml

class Discipline #red
class DesignDiscipline #red

class Activity #green
class DesignActivity #green
class DesignArchitecture #green
class DesignClass #green
class DesignCaseUse #green
class DesignSubsystems #green

class Member #white
class Role #white
class DesignRole #blue
class Architect #blue
class EngineerUseCases #blue
class EngineerComponents #blue

Discipline *- -> Activity
Discipline <|- - DesignDiscipline
DesignDiscipline *- -> DesignActivity
Activity <|- - DesignActivity

DesignActivity <|- - DesignArchitecture
DesignActivity <|- - DesignClass
DesignActivity <|- - DesignCaseUse
DesignActivity <|- - DesignSubsystems
DesignArchitecture - -> DesignCaseUse  :next
DesignArchitecture - -> DesignClass :next
DesignClass - -> DesignCaseUse :next
DesignClass - -> DesignSubsystems :next
DesignCaseUse - -> DesignSubsystems :next

DesignActivity *- -> Member
Member *- -> Role
Role <|- - DesignRole
DesignRole <|- - Architect
DesignRole <|- - EngineerUseCases
DesignRole <|- - EngineerComponents
DesignArchitecture - -> Architect
DesignCaseUse - -> EngineerUseCases
DesignClass - -> EngineerComponents
DesignSubsystems - -> EngineerComponents

@enduml

PlantUML version 1.2019.05(Sat Apr 20 18:45:36 CEST 2019)
(GPL source distribution)
Java Runtime: OpenJDK Runtime Environment
JVM: OpenJDK 64-Bit Server VM
Java Version: 1.8.0_222-b10
Operating System: Windows 10
OS Version: 10.0
Default Encoding: windows-1252
Language: es
Country: ES
--></g></svg>