<?xml version="1.0" encoding="UTF-8" standalone="no"?><svg xmlns="http://www.w3.org/2000/svg" xmlns:xlink="http://www.w3.org/1999/xlink" contentScriptType="application/ecmascript" contentStyleType="text/css" height="907px" preserveAspectRatio="none" style="width:1491px;height:907px;background:#222222;" version="1.1" viewBox="0 0 1491 907" width="1491px" zoomAndPan="magnify"><defs/><g><text fill="#FFA500" font-family="courier" font-size="15" font-style="italic" lengthAdjust="spacingAndGlyphs" textLength="396" x="1083" y="16.0806">Universo Santa Tecla - USantaTecla@gmail.com</text><polygon fill="none" points="545,23.585,545,23.7951,554.9744,23.1706,564.9487,23.7782,574.9231,23.9846,584.8974,22.8716,594.8718,23.5072,604.8462,23.1585,614.8205,23.2015,624.7949,23.5168,634.7692,22.8936,644.7436,24.1386,654.7179,22.9547,664.6923,23.3872,674.6667,24.0169,684.641,23.4992,694.6154,23.6532,704.5897,23.553,714.5641,23.7635,724.5385,23.8241,734.5128,24.1707,744.4872,24.256,754.4615,24.2642,764.4359,23.8396,774.4103,24.0485,784.3846,24.2872,794.359,22.8638,804.3333,24.2635,814.3077,23.2885,824.2821,24.1188,834.2564,23.0899,844.2308,23.5165,854.2051,24.3266,864.1795,23.5362,874.1538,23.6903,884.1282,23.9236,894.1026,24.0012,904.0769,23.5811,914.0513,23.8722,924.0256,23.0125,934,23.585,934.2844,23.585,934.5482,32.8844,934.4445,42.1838,934.613,51.4832,933.5169,60.7826,934,70.082,934,69.4298,924.0256,69.4606,914.0513,70.0232,904.0769,69.8855,894.1026,70.7634,884.1282,69.9074,874.1538,69.739,864.1795,70.3103,854.2051,69.4152,844.2308,69.5629,834.2564,70.731,824.2821,70.5177,814.3077,70.8165,804.3333,69.7602,794.359,70.4012,784.3846,70.6725,774.4103,69.6096,764.4359,69.9862,754.4615,70.208,744.4872,70.7338,734.5128,70.0778,724.5385,70.5446,714.5641,69.5282,704.5897,69.4048,694.6154,70.5856,684.641,69.3651,674.6667,70.591,664.6923,70.2887,654.7179,69.8141,644.7436,69.7283,634.7692,70.5408,624.7949,69.7827,614.8205,70.6739,604.8462,69.5293,594.8718,70.6995,584.8974,70.5663,574.9231,70.327,564.9487,70.1293,554.9744,70.8086,545,70.082,545.6136,70.082,545.1693,60.7826,545.2682,51.4832,544.8697,42.1838,545.7165,32.8844,545,23.585" style="stroke: #FFA500; stroke-width: 5.0;"/><text fill="#FFA500" font-family="arial" font-size="30" font-weight="bold" lengthAdjust="spacingAndGlyphs" textLength="371" x="554" y="57.7246">Find Actors and Use Case</text><!--cluster activities--><polygon fill="#222222" points="817,97.082,817,97.2922,826.8462,96.6677,836.6923,97.2753,846.5385,97.4817,856.3846,96.3686,866.2308,97.0043,876.0769,96.6555,885.9231,96.6985,895.7692,97.0139,905.6154,96.3907,915.4615,97.6357,925.3077,96.4518,935.1538,96.8843,945,97.082,945.141,97.111,946.372,103.8989,947.8223,110.7319,949.1896,117.5479,950.6583,124.3846,952,131.1953,952,131.4344,962.2308,131.781,972.4615,131.8664,982.6923,131.8746,992.9231,131.4499,1003.1538,131.6589,1013.3846,131.8975,1023.6154,130.4741,1033.8462,131.8738,1044.0769,130.8988,1054.3077,131.7291,1064.5385,130.7003,1074.7692,131.1268,1085,131.1953,1085.7416,131.1953,1084.9513,141.0778,1085.1053,150.9603,1085.3386,160.8427,1085.4162,170.7252,1084.9961,180.6077,1085.2872,190.4902,1084.4276,200.3727,1085.2844,210.2551,1085.5482,220.1376,1085.4445,230.0201,1085.613,239.9026,1084.5169,249.785,1084.3478,259.6675,1084.3786,269.55,1084.9411,279.4325,1084.8035,289.315,1085.6814,299.1974,1084.8253,309.0799,1084.6569,318.9624,1085.2283,328.8449,1084.3332,338.7273,1084.4809,348.6098,1085.649,358.4923,1085.4357,368.3748,1085.7345,378.2573,1084.6782,388.1397,1085.3192,398.0222,1085.5904,407.9047,1084.5276,417.7872,1084.9041,427.6696,1085.126,437.5521,1085.6518,447.4346,1084.9958,457.3171,1085.4626,467.1996,1085,477.082,1085,476.5282,1075.0741,476.4048,1065.1481,477.5856,1055.2222,476.3651,1045.2963,477.591,1035.3704,477.2887,1025.4444,476.8141,1015.5185,476.7283,1005.5926,477.5408,995.6667,476.7827,985.7407,477.6739,975.8148,476.5293,965.8889,477.6995,955.963,477.5663,946.037,477.327,936.1111,477.1293,926.1852,477.8086,916.2593,477.6956,906.3333,477.2513,896.4074,477.3502,886.4815,476.9518,876.5556,477.7985,866.6296,477.2369,856.7037,477.2546,846.7778,476.4737,836.8519,476.6768,826.9259,477.6128,817,477.082,817.4298,477.082,816.9571,467.082,816.6778,457.082,816.7811,447.082,816.3138,437.082,817.4147,427.082,817.7396,417.082,817.5264,407.082,817.6949,397.082,816.8633,387.082,817.0872,377.082,816.6124,367.082,817.284,357.082,817.2468,347.082,817.5524,337.082,816.7703,327.082,816.8656,317.082,817.4435,307.082,817.5673,297.082,816.4875,287.082,816.8061,277.082,817.1493,267.082,816.3892,257.082,817.3534,247.082,817.258,237.082,816.8992,227.082,817.1422,217.082,817.7287,207.082,816.6871,197.082,817.315,187.082,817.2856,177.082,817.1158,167.082,817.1409,157.082,817.1135,147.082,816.3758,137.082,816.5992,127.082,816.5385,117.082,817.0638,107.082,817,97.082" style="stroke: #008000; stroke-width: 3.0;"/><path d="M817,131.1953 L817,131.4756 L826.6429,130.6429 L836.2857,131.453 L845.9286,131.7282 L855.5714,130.2441 L865.2143,131.0917 L874.8571,130.6267 L884.5,130.684 L894.1429,131.1044 L903.7857,130.2735 L913.4286,131.9335 L923.0714,130.3549 L932.7143,130.9316 L942.3571,131.7712 L952,131.1953 " fill="#222222" style="stroke: #008000; stroke-width: 3.0;"/><text fill="#008000" font-family="courier" font-size="20" font-weight="bold" lengthAdjust="spacingAndGlyphs" textLength="120" x="822" y="120.1895">activities</text><!--cluster artifacts--><polygon fill="#222222" points="22,539.082,22,539.2922,31.6667,538.6677,41.3333,539.2753,51,539.4817,60.6667,538.3686,70.3333,539.0043,80,538.6555,89.6667,538.6985,99.3333,539.0139,109,538.3907,118.6667,539.6357,128.3333,538.4518,138,539.082,137.9354,539.0688,139.541,545.9336,140.772,552.7216,142.2223,559.5546,143.5896,566.3705,145,573.1953,145,573.3738,155,573.4344,165,573.781,175,573.8664,185,573.8746,195,573.4499,205,573.6589,215,573.8975,225,572.4741,235,573.8738,245,572.8988,255,573.7291,265,572.7003,275,573.1268,285,573.9369,295,573.1466,305,573.3006,315,573.5339,325,573.6115,335,573.1914,345,573.4825,355,572.6229,365,573.4797,375,573.7435,385,573.6398,395,573.8083,405,572.7122,415,572.5431,425,572.5739,435,573.1364,445,572.9988,455,573.8767,465,573.0206,475,572.8523,485,573.4236,495,572.5285,505,572.6762,515,573.8443,525,573.631,535,573.9298,545,572.8735,555,573.5145,565,573.7857,575,572.7229,585,573.0995,595,573.3213,605,573.8471,615,573.1911,625,573.6579,635,572.6415,645,572.5181,655,573.6989,665,572.4784,675,573.7043,685,573.4019,695,572.9274,705,572.8415,715,573.6541,725,572.896,735,573.7872,745,572.6426,755,573.8127,765,573.6796,775,573.4403,785,573.2425,795,573.9219,805,573.8089,815,573.3646,825,573.4635,835,573.065,845,573.9118,855,573.3502,865,573.3679,875,572.587,885,572.7901,895,573.7261,905,573.6251,915,573.1524,925,572.8731,935,572.9764,945,572.5091,955,573.61,965,573.9349,975,573.7217,985,573.8902,995,573.0586,1005,573.2825,1015,572.8077,1025,573.4794,1035,573.4421,1045,573.7477,1055,572.9657,1065,573.0609,1075,573.6388,1085,573.7626,1095,572.6828,1105,573.0014,1115,573.3446,1125,572.5845,1135,573.5487,1145,573.4533,1155,573.1953,1154.8992,573.1953,1155.1422,583.3132,1155.7287,593.4312,1154.6871,603.5491,1155.315,613.667,1155.2856,623.7849,1155.1158,633.9028,1155.1409,644.0208,1155.1135,654.1387,1154.3758,664.2566,1154.5992,674.3745,1154.5385,684.4924,1155.0638,694.6104,1155.0881,704.7283,1155.1617,714.8462,1154.709,724.9641,1155,735.082,1155,735.0145,1144.9735,734.9618,1134.9469,735.6589,1124.9204,735.5086,1114.8938,734.5965,1104.8673,735.0091,1094.8407,734.5048,1084.8142,735.3704,1074.7876,735.6905,1064.7611,735.6266,1054.7345,734.6465,1044.708,735.546,1034.6814,734.3392,1024.6549,735.2822,1014.6283,734.7827,1004.6018,735.1788,994.5752,735.3224,984.5487,735.5541,974.5221,734.3621,964.4956,735.5575,954.469,735.2602,944.4425,735.4374,934.4159,735.8298,924.3894,735.0875,914.3628,735.2573,904.3363,735.2955,894.3097,735.2793,884.2832,735.0812,874.2566,735.7927,864.2301,734.4723,854.2035,735.6473,844.177,734.458,834.1504,734.5417,824.1239,735.122,814.0973,735.1103,804.0708,734.5892,794.0442,735.4957,784.0177,735.1909,773.9912,735.8087,763.9646,735.7491,753.9381,734.6338,743.9115,734.6841,733.885,734.9529,723.8584,735.4376,713.8319,735.485,703.8053,735.3832,693.7788,734.7401,683.7522,735.7184,673.7257,735.7158,663.6991,735.0347,653.6726,734.843,643.646,734.6806,633.6195,734.8675,623.5929,735.2194,613.5664,735.0136,603.5398,734.6642,593.5133,735.5694,583.4867,734.6231,573.4602,735.5844,563.4336,735.5093,553.4071,735.4539,543.3805,735.7745,533.354,734.8361,523.3274,734.7814,513.3009,735.6009,503.2743,734.4851,493.2478,734.848,483.2212,735.1975,473.1947,735.1507,463.1681,734.7236,453.1416,735.0391,443.115,735.8266,433.0885,735.7305,423.0619,734.4858,413.0354,735.1606,403.0088,734.5681,392.9823,735.0557,382.9558,735.375,372.9292,735.5019,362.9027,734.4173,352.8761,735.4826,342.8496,735.0904,332.823,734.5267,322.7965,734.611,312.7699,735.4086,302.7434,735.3319,292.7168,735.0656,282.6903,734.4099,272.6637,735.7402,262.6372,734.7702,252.6106,734.554,242.5841,735.0147,232.5575,735.6717,222.531,735.6975,212.5044,735.1172,202.4779,734.9309,192.4513,735.2518,182.4248,735.2683,172.3982,734.5742,162.3717,735.496,152.3451,735.6408,142.3186,734.8663,132.292,734.6528,122.2655,735.7567,112.2389,735.103,102.2124,735.0819,92.1858,735.3811,82.1593,734.4363,72.1327,735.612,62.1062,735.0666,52.0796,735.7508,42.0531,734.8662,32.0265,735.491,22,735.082,21.556,735.082,22.245,725.282,22.3793,715.482,21.6727,705.682,22.363,695.882,21.4286,686.082,21.5295,676.282,22.6828,666.482,22.6844,656.682,22.5685,646.882,21.6396,637.082,22.3842,627.282,21.5279,617.482,22.0582,607.682,21.9987,597.882,21.7376,588.082,22.6159,578.282,22.4433,568.482,21.6792,558.682,22.5266,548.882,22,539.082" style="stroke: #FF0000; stroke-width: 3.0;"/><path d="M22,573.1953 L22,573.4756 L32.25,572.6429 L42.5,573.453 L52.75,573.7282 L63,572.2441 L73.25,573.0917 L83.5,572.6267 L93.75,572.684 L104,573.1044 L114.25,572.2735 L124.5,573.9335 L134.75,572.3549 L145,573.1953 " fill="#222222" style="stroke: #FF0000; stroke-width: 3.0;"/><text fill="#FF0000" font-family="courier" font-size="20" font-weight="bold" lengthAdjust="spacingAndGlyphs" textLength="108" x="27" y="562.1895">artifacts</text><!--cluster inputs--><polygon fill="#222222" points="381,594.082,381,594.2922,391,593.6677,401,594.2753,411,594.4817,421,593.3686,431,594.0043,441,593.6555,451,593.6985,461,594.082,460.9777,594.0775,462.1742,600.8584,463.9808,607.7644,464.9942,614.5078,466.5354,621.3594,468,628.1953,468,628.6273,478.0455,628.1095,488.0909,628.2636,498.1364,628.1634,508.1818,628.3738,518.2273,628.4344,528.2727,628.781,538.3182,628.8664,548.3636,628.8746,558.4091,628.4499,568.4545,628.6589,578.5,628.8975,588.5455,627.4741,598.5909,628.8738,608.6364,627.8988,618.6818,628.7291,628.7273,627.7003,638.7727,628.1268,648.8182,628.9369,658.8636,628.1466,668.9091,628.3006,678.9545,628.5339,689,628.6115,699.0455,628.1914,709.0909,628.4825,719.1364,627.6229,729.1818,628.4797,739.2273,628.7435,749.2727,628.6398,759.3182,628.8083,769.3636,627.7122,779.4091,627.5431,789.4545,627.5739,799.5,628.1364,809.5455,627.9988,819.5909,628.8767,829.6364,628.0206,839.6818,627.8523,849.7273,628.4236,859.7727,627.5285,869.8182,627.6762,879.8636,628.8443,889.9091,628.631,899.9545,628.9298,910,627.8735,920.0455,628.5145,930.0909,628.7857,940.1364,627.7229,950.1818,628.0995,960.2273,628.3213,970.2727,628.8471,980.3182,628.1911,990.3636,628.6579,1000.4091,627.6415,1010.4545,627.5181,1020.5,628.6989,1030.5455,627.4784,1040.5909,628.7043,1050.6364,628.4019,1060.6818,627.9274,1070.7273,627.8415,1080.7727,628.6541,1090.8182,627.896,1100.8636,628.7872,1110.9091,627.6426,1120.9545,628.8127,1131,628.1953,1131.4843,628.1953,1131.245,638.5562,1131.0472,648.917,1131.7266,659.2778,1131.6136,669.6387,1131.1693,679.9995,1131.2682,690.3604,1130.8697,700.7212,1131,711.082,1131,711.7985,1121,711.2369,1111,711.2546,1101,710.4737,1091,710.6768,1081,711.6128,1071,711.5118,1061,711.0391,1051,710.7599,1041,710.8631,1031,710.3959,1021,711.4968,1011,711.8216,1001,711.6084,991,711.777,981,710.9453,971,711.1693,961,710.6944,951,711.3661,941,711.3288,931,711.6344,921,710.8524,911,710.9476,901,711.5255,891,711.6494,881,710.5695,871,710.8881,861,711.2313,851,710.4712,841,711.4354,831,711.34,821,710.9813,811,711.2243,801,711.8107,791,710.7692,781,711.397,771,711.3677,761,711.1978,751,711.223,741,711.1955,731,710.4579,721,710.6812,711,710.6205,701,711.1459,691,711.1702,681,711.2438,671,710.7911,661,711.0145,651,710.9618,641,711.6589,631,711.5086,621,710.5965,611,711.0091,601,710.5048,591,711.3704,581,711.6905,571,711.6266,561,710.6465,551,711.546,541,710.3392,531,711.2822,521,710.7827,511,711.1788,501,711.3224,491,711.5541,481,710.3621,471,711.5575,461,711.2602,451,711.4374,441,711.8298,431,711.0875,421,711.2573,411,711.2955,401,711.2793,391,711.0812,381,711.082,381.7107,711.082,380.3903,701.332,381.5653,691.582,380.376,681.832,380.4597,672.082,381.04,662.332,381.0283,652.582,380.5072,642.832,381.4137,633.082,381.1089,623.332,381.7267,613.582,381.6671,603.832,381,594.082" style="stroke: #FF0000; stroke-width: 3.0;"/><path d="M381,628.1953 L381,628.4756 L390.6667,627.6429 L400.3333,628.453 L410,628.7282 L419.6667,627.2441 L429.3333,628.0917 L439,627.6267 L448.6667,627.684 L458.3333,628.1044 L468,628.1953 " fill="#222222" style="stroke: #FF0000; stroke-width: 3.0;"/><text fill="#FF0000" font-family="courier" font-size="20" font-weight="bold" lengthAdjust="spacingAndGlyphs" textLength="72" x="386" y="617.1895">inputs</text><!--cluster outputs--><polygon fill="#222222" points="46,594.082,46,594.2922,56.2222,593.6677,66.4444,594.2753,76.6667,594.4817,86.8889,593.3686,97.1111,594.0043,107.3333,593.6555,117.5556,593.6985,127.7778,594.0139,138,594.082,137.7742,594.0357,139.5808,600.9418,140.5942,607.6851,142.1354,614.5367,143.741,621.4016,145,628.1953,145,628.1095,155.0952,628.2636,165.1905,628.1634,175.2857,628.3738,185.381,628.4344,195.4762,628.781,205.5714,628.8664,215.6667,628.8746,225.7619,628.4499,235.8571,628.6589,245.9524,628.8975,256.0476,627.4741,266.1429,628.8738,276.2381,627.8988,286.3333,628.7291,296.4286,627.7003,306.5238,628.1268,316.619,628.9369,326.7143,628.1466,336.8095,628.3006,346.9048,628.5339,357,628.1953,357.4162,628.1953,356.9961,638.5562,357.2872,648.917,356.4276,659.2778,357.2844,669.6387,357.5482,679.9995,357.4445,690.3604,357.613,700.7212,357,711.082,357,710.599,346.9677,710.4298,336.9355,710.4606,326.9032,711.0232,316.871,710.8855,306.8387,711.7634,296.8065,710.9074,286.7742,710.739,276.7419,711.3103,266.7097,710.4152,256.6774,710.5629,246.6452,711.731,236.6129,711.5177,226.5806,711.8165,216.5484,710.7602,206.5161,711.4012,196.4839,711.6725,186.4516,710.6096,176.4194,710.9862,166.3871,711.208,156.3548,711.7338,146.3226,711.0778,136.2903,711.5446,126.2581,710.5282,116.2258,710.4048,106.1935,711.5856,96.1613,710.3651,86.129,711.591,76.0968,711.2887,66.0645,710.8141,56.0323,710.7283,46,711.082,46.4588,711.082,45.7007,701.332,46.5919,691.582,45.4473,681.832,46.6174,672.082,46.4843,662.332,46.245,652.582,46.0472,642.832,46.7266,633.082,46.6136,623.332,46.1693,613.582,46.2682,603.832,46,594.082" style="stroke: #FF0000; stroke-width: 3.0;"/><path d="M46,628.1953 L46,628.4756 L55.9,627.6429 L65.8,628.453 L75.7,628.7282 L85.6,627.2441 L95.5,628.0917 L105.4,627.6267 L115.3,627.684 L125.2,628.1044 L135.1,627.2735 L145,628.1953 " fill="#222222" style="stroke: #FF0000; stroke-width: 3.0;"/><text fill="#FF0000" font-family="courier" font-size="20" font-weight="bold" lengthAdjust="spacingAndGlyphs" textLength="84" x="51" y="617.1895">outputs</text><!--cluster team--><polygon fill="#222222" points="1226,245.082,1226,245.2922,1235.3333,244.6677,1244.6667,245.2753,1254,245.4817,1263.3333,244.3686,1272.6667,245.0043,1282,245.082,1281.8607,245.0535,1283.2748,251.879,1284.7777,258.7228,1285.9742,265.5037,1287.7808,272.4098,1289,279.1953,1289,278.565,1298.8125,278.9975,1308.625,279.6273,1318.4375,279.1095,1328.25,279.2636,1338.0625,279.1634,1347.875,279.3738,1357.6875,279.4344,1367.5,279.781,1377.3125,279.8664,1387.125,279.8746,1396.9375,279.4499,1406.75,279.6589,1416.5625,279.8975,1426.375,278.4741,1436.1875,279.8738,1446,279.1953,1445.7035,279.1953,1446.5338,289.246,1445.505,299.2966,1445.9315,309.3472,1446.7416,319.3979,1445.9513,329.4485,1446.1053,339.4992,1446.3386,349.5498,1446.4162,359.6005,1445.9961,369.6511,1446.2872,379.7018,1445.4276,389.7524,1446.2844,399.803,1446.5482,409.8537,1446.4445,419.9043,1446.613,429.955,1445.5169,440.0056,1445.3478,450.0563,1445.3786,460.1069,1445.9411,470.1576,1445.8035,480.2082,1446.6814,490.2588,1445.8253,500.3095,1445.6569,510.3601,1446.2283,520.4108,1445.3332,530.4614,1445.4809,540.5121,1446.649,550.5627,1446.4357,560.6133,1446.7345,570.664,1445.6782,580.7146,1446.3192,590.7653,1446.5904,600.8159,1445.5276,610.8666,1445.9041,620.9172,1446.126,630.9679,1446.6518,641.0185,1445.9958,651.0691,1446.4626,661.1198,1445.4462,671.1704,1445.3227,681.2211,1446.5036,691.2717,1445.2831,701.3224,1446.509,711.373,1446.2066,721.4237,1445.7321,731.4743,1445.6462,741.5249,1446.4588,751.5756,1445.7007,761.6262,1446.5919,771.6769,1445.4473,781.7275,1446.6174,791.7782,1446.4843,801.8288,1446.245,811.8795,1446.0472,821.9301,1446.7266,831.9807,1446.6136,842.0314,1446,852.082,1446,852.2513,1436,852.3502,1426,851.9518,1416,852.7985,1406,852.2369,1396,852.2546,1386,851.4737,1376,851.6768,1366,852.6128,1356,852.5118,1346,852.0391,1336,851.7599,1326,851.8631,1316,851.3959,1306,852.4968,1296,852.8216,1286,852.6084,1276,852.777,1266,851.9453,1256,852.1693,1246,851.6944,1236,852.3661,1226,852.082,1226.2468,852.082,1226.5524,842.1312,1225.7703,832.1804,1225.8656,822.2296,1226.4435,812.2788,1226.5673,802.3279,1225.4875,792.3771,1225.8061,782.4263,1226.1493,772.4755,1225.3892,762.5247,1226.3534,752.5738,1226.258,742.623,1225.8992,732.6722,1226.1422,722.7214,1226.7287,712.7706,1225.6871,702.8197,1226.315,692.8689,1226.2856,682.9181,1226.1158,672.9673,1226.1409,663.0165,1226.1135,653.0656,1225.3758,643.1148,1225.5992,633.164,1225.5385,623.2132,1226.0638,613.2624,1226.0881,603.3115,1226.1617,593.3607,1225.709,583.4099,1225.9325,573.4591,1225.8798,563.5083,1226.5769,553.5574,1226.4266,543.6066,1225.5145,533.6558,1225.9271,523.705,1225.4228,513.7542,1226.2884,503.8033,1226.6085,493.8525,1226.5446,483.9017,1225.5644,473.9509,1226.464,464.0001,1225.2572,454.0492,1226.2002,444.0984,1225.7007,434.1476,1226.0967,424.1968,1226.2403,414.246,1226.4721,404.2951,1225.2801,394.3443,1226.4755,384.3935,1226.1782,374.4427,1226.3553,364.4919,1226.7478,354.541,1226.0055,344.5902,1226.1753,334.6394,1226.2134,324.6886,1226.1972,314.7378,1225.9992,304.7869,1226.7107,294.8361,1225.3903,284.8853,1226.5653,274.9345,1225.376,264.9837,1225.4597,255.0329,1226,245.082" style="stroke: #0000FF; stroke-width: 3.0;"/><path d="M1226,279.1953 L1226,279.4756 L1236.5,278.6429 L1247,279.453 L1257.5,279.7282 L1268,278.2441 L1278.5,279.0917 L1289,279.1953 " fill="#222222" style="stroke: #0000FF; stroke-width: 3.0;"/><text fill="#0000FF" font-family="courier" font-size="20" font-weight="bold" lengthAdjust="spacingAndGlyphs" textLength="48" x="1231" y="268.1895">team</text><!--class Activity--><polygon fill="#222222" points="943,144.082,943,144.2922,953.4,143.6677,963.8,144.2753,974.2,144.4817,984.6,143.3686,995,144.0043,1005.4,143.6555,1015.8,143.6985,1026.2,144.0139,1036.6,143.3907,1047,144.082,1047.5536,144.082,1046.3697,154.9047,1046.8022,165.7273,1047.4319,176.55,1046.9142,187.3727,1047,198.1953,1047,198.2636,1036.6,198.1634,1026.2,198.3738,1015.8,198.4344,1005.4,198.781,995,198.8664,984.6,198.8746,974.2,198.4499,963.8,198.6589,953.4,198.8975,943,198.1953,942.2788,198.1953,943.6785,187.3727,942.7035,176.55,943.5338,165.7273,942.505,154.9047,943,144.082" style="stroke: #008000; stroke-width: 3.0;"/><text fill="#008000" font-family="courier" font-size="20" font-weight="bold" lengthAdjust="spacingAndGlyphs" textLength="96" x="947" y="170.1895">Activity</text><path d="M944,182.1953 L944,182.4756 L954.2,181.6429 L964.4,182.453 L974.6,182.7282 L984.8,181.2441 L995,182.0917 L1005.2,181.6267 L1015.4,181.684 L1025.6,182.1044 L1035.8,181.2735 L1046,182.1953 " fill="#222222" style="stroke: #008000; stroke-width: 3.0;"/><path d="M944,190.1953 L944,190.4756 L954.2,189.6429 L964.4,190.453 L974.6,190.7282 L984.8,189.2441 L995,190.0917 L1005.2,189.6267 L1015.4,189.684 L1025.6,190.1044 L1035.8,189.2735 L1046,190.1953 " fill="#222222" style="stroke: #008000; stroke-width: 3.0;"/><!--class RequirementActivity--><polygon fill="#222222" points="833,292.082,833,292.2922,842.8333,291.6677,852.6667,292.2753,862.5,292.4817,872.3333,291.3686,882.1667,292.0043,892,291.6555,901.8333,291.6985,911.6667,292.0139,921.5,291.3907,931.3333,292.6357,941.1667,291.4518,951,291.8843,960.8333,292.514,970.6667,291.9963,980.5,292.1503,990.3333,292.0501,1000.1667,292.2606,1010,292.3212,1019.8333,292.6677,1029.6667,292.7531,1039.5,292.7613,1049.3333,292.3367,1059.1667,292.5456,1069,292.082,1069.7022,292.082,1068.2788,302.9047,1069.6785,313.7273,1068.7035,324.55,1069.5338,335.3727,1069,346.1953,1069,345.7003,1059.1667,346.1268,1049.3333,346.9369,1039.5,346.1466,1029.6667,346.3006,1019.8333,346.5339,1010,346.6115,1000.1667,346.1914,990.3333,346.4825,980.5,345.6229,970.6667,346.4797,960.8333,346.7435,951,346.6398,941.1667,346.8083,931.3333,345.7122,921.5,345.5431,911.6667,345.5739,901.8333,346.1364,892,345.9988,882.1667,346.8767,872.3333,346.0206,862.5,345.8523,852.6667,346.4236,842.8333,345.5285,833,346.1953,832.4809,346.1953,833.649,335.3727,833.4357,324.55,833.7345,313.7273,832.6782,302.9047,833,292.082" style="stroke: #008000; stroke-width: 3.0;"/><text fill="#008000" font-family="courier" font-size="20" font-weight="bold" lengthAdjust="spacingAndGlyphs" textLength="228" x="837" y="318.1895">RequirementActivity</text><path d="M834,330.1953 L834,330.4756 L844.1739,329.6429 L854.3478,330.453 L864.5217,330.7282 L874.6957,329.2441 L884.8696,330.0917 L895.0435,329.6267 L905.2174,329.684 L915.3913,330.1044 L925.5652,329.2735 L935.7391,330.9335 L945.913,329.3549 L956.087,329.9316 L966.2609,330.7712 L976.4348,330.0809 L986.6087,330.2863 L996.7826,330.1527 L1006.9565,330.4333 L1017.1304,330.5142 L1027.3043,330.9762 L1037.4783,331.0901 L1047.6522,331.101 L1057.8261,330.5348 L1068,330.1953 " fill="#222222" style="stroke: #008000; stroke-width: 3.0;"/><path d="M834,338.1953 L834,338.4756 L844.1739,337.6429 L854.3478,338.453 L864.5217,338.7282 L874.6957,337.2441 L884.8696,338.0917 L895.0435,337.6267 L905.2174,337.684 L915.3913,338.1044 L925.5652,337.2735 L935.7391,338.9335 L945.913,337.3549 L956.087,337.9316 L966.2609,338.7712 L976.4348,338.0809 L986.6087,338.2863 L996.7826,338.1527 L1006.9565,338.4333 L1017.1304,338.5142 L1027.3043,338.9762 L1037.4783,339.0901 L1047.6522,339.101 L1057.8261,338.5348 L1068,338.1953 " fill="#222222" style="stroke: #008000; stroke-width: 3.0;"/><!--class FindActorUseCases--><polygon fill="#222222" points="833,407.082,833,407.2922,843.0952,406.6677,853.1905,407.2753,863.2857,407.4817,873.381,406.3686,883.4762,407.0043,893.5714,406.6555,903.6667,406.6985,913.7619,407.0139,923.8571,406.3907,933.9524,407.6357,944.0476,406.4518,954.1429,406.8843,964.2381,407.514,974.3333,406.9963,984.4286,407.1503,994.5238,407.0501,1004.619,407.2606,1014.7143,407.3212,1024.8095,407.6677,1034.9048,407.7531,1045,407.082,1045.6793,407.082,1045.2546,417.9047,1045.4636,428.7273,1045.7022,439.55,1044.2788,450.3727,1045,461.1953,1045,461.8738,1034.9048,460.8988,1024.8095,461.7291,1014.7143,460.7003,1004.619,461.1268,994.5238,461.9369,984.4286,461.1466,974.3333,461.3006,964.2381,461.5339,954.1429,461.6115,944.0476,461.1914,933.9524,461.4825,923.8571,460.6229,913.7619,461.4797,903.6667,461.7435,893.5714,461.6398,883.4762,461.8083,873.381,460.7122,863.2857,460.5431,853.1905,460.5739,843.0952,461.1364,833,461.1953,832.8035,461.1953,833.6814,450.3727,832.8253,439.55,832.6569,428.7273,833.2283,417.9047,833,407.082" style="stroke: #008000; stroke-width: 3.0;"/><text fill="#008000" font-family="courier" font-size="20" font-weight="bold" lengthAdjust="spacingAndGlyphs" textLength="204" x="837" y="433.1895">FindActorUseCases</text><path d="M834,445.1953 L834,445.4756 L844,444.6429 L854,445.453 L864,445.7282 L874,444.2441 L884,445.0917 L894,444.6267 L904,444.684 L914,445.1044 L924,444.2735 L934,445.9335 L944,444.3549 L954,444.9316 L964,445.7712 L974,445.0809 L984,445.2863 L994,445.1527 L1004,445.4333 L1014,445.5142 L1024,445.9762 L1034,446.0901 L1044,445.1953 " fill="#222222" style="stroke: #008000; stroke-width: 3.0;"/><path d="M834,453.1953 L834,453.4756 L844,452.6429 L854,453.453 L864,453.7282 L874,452.2441 L884,453.0917 L894,452.6267 L904,452.684 L914,453.1044 L924,452.2735 L934,453.9335 L944,452.3549 L954,452.9316 L964,453.7712 L974,453.0809 L984,453.2863 L994,453.1527 L1004,453.4333 L1014,453.5142 L1024,453.9762 L1034,454.0901 L1044,453.1953 " fill="#222222" style="stroke: #008000; stroke-width: 3.0;"/><!--class CharacteriticList--><polygon fill="#222222" points="903,641.082,903,641.2922,913.0952,640.6677,923.1905,641.2753,933.2857,641.4817,943.381,640.3686,953.4762,641.0043,963.5714,640.6555,973.6667,640.6985,983.7619,641.0139,993.8571,640.3907,1003.9524,641.6357,1014.0476,640.4518,1024.1429,640.8843,1034.2381,641.514,1044.3333,640.9963,1054.4286,641.1503,1064.5238,641.0501,1074.619,641.2606,1084.7143,641.3212,1094.8095,641.6677,1104.9048,641.7531,1115,641.082,1115.6793,641.082,1115.2546,651.9047,1115.4636,662.7273,1115.7022,673.55,1114.2788,684.3727,1115,695.1953,1115,695.8738,1104.9048,694.8988,1094.8095,695.7291,1084.7143,694.7003,1074.619,695.1268,1064.5238,695.9369,1054.4286,695.1466,1044.3333,695.3006,1034.2381,695.5339,1024.1429,695.6115,1014.0476,695.1914,1003.9524,695.4825,993.8571,694.6229,983.7619,695.4797,973.6667,695.7435,963.5714,695.6398,953.4762,695.8083,943.381,694.7122,933.2857,694.5431,923.1905,694.5739,913.0952,695.1364,903,695.1953,902.8035,695.1953,903.6814,684.3727,902.8253,673.55,902.6569,662.7273,903.2283,651.9047,903,641.082" style="stroke: #FF0000; stroke-width: 3.0;"/><text fill="#FF0000" font-family="courier" font-size="20" font-weight="bold" lengthAdjust="spacingAndGlyphs" textLength="204" x="907" y="667.1895">CharacteriticList</text><path d="M904,679.1953 L904,679.4756 L914,678.6429 L924,679.453 L934,679.7282 L944,678.2441 L954,679.0917 L964,678.6267 L974,678.684 L984,679.1044 L994,678.2735 L1004,679.9335 L1014,678.3549 L1024,678.9316 L1034,679.7712 L1044,679.0809 L1054,679.2863 L1064,679.1527 L1074,679.4333 L1084,679.5142 L1094,679.9762 L1104,680.0901 L1114,679.1953 " fill="#222222" style="stroke: #FF0000; stroke-width: 3.0;"/><path d="M904,687.1953 L904,687.4756 L914,686.6429 L924,687.453 L934,687.7282 L944,686.2441 L954,687.0917 L964,686.6267 L974,686.684 L984,687.1044 L994,686.2735 L1004,687.9335 L1014,686.3549 L1024,686.9316 L1034,687.7712 L1044,687.0809 L1054,687.2863 L1064,687.1527 L1074,687.4333 L1084,687.5142 L1094,687.9762 L1104,688.0901 L1114,687.1953 " fill="#222222" style="stroke: #FF0000; stroke-width: 3.0;"/><!--class SuplementaryRequirements--><polygon fill="#222222" points="397,641.082,397,641.2922,406.8667,640.6677,416.7333,641.2753,426.6,641.4817,436.4667,640.3686,446.3333,641.0043,456.2,640.6555,466.0667,640.6985,475.9333,641.0139,485.8,640.3907,495.6667,641.6357,505.5333,640.4518,515.4,640.8843,525.2667,641.514,535.1333,640.9963,545,641.1503,554.8667,641.0501,564.7333,641.2606,574.6,641.3212,584.4667,641.6677,594.3333,641.7531,604.2,641.7613,614.0667,641.3367,623.9333,641.5456,633.8,641.7843,643.6667,640.3608,653.5333,641.7605,663.4,640.7855,673.2667,641.6158,683.1333,640.587,693,641.082,692.9315,641.082,693.7416,651.9047,692.9513,662.7273,693.1053,673.55,693.3386,684.3727,693,695.1953,693,695.6115,683.1333,695.1914,673.2667,695.4825,663.4,694.6229,653.5333,695.4797,643.6667,695.7435,633.8,695.6398,623.9333,695.8083,614.0667,694.7122,604.2,694.5431,594.3333,694.5739,584.4667,695.1364,574.6,694.9988,564.7333,695.8767,554.8667,695.0206,545,694.8523,535.1333,695.4236,525.2667,694.5285,515.4,694.6762,505.5333,695.8443,495.6667,695.631,485.8,695.9298,475.9333,694.8735,466.0667,695.5145,456.2,695.7857,446.3333,694.7229,436.4667,695.0995,426.6,695.3213,416.7333,695.8471,406.8667,695.1911,397,695.1953,397.4626,695.1953,396.4462,684.3727,396.3227,673.55,397.5036,662.7273,396.2831,651.9047,397,641.082" style="stroke: #FF0000; stroke-width: 3.0;"/><text fill="#FF0000" font-family="courier" font-size="20" font-weight="bold" lengthAdjust="spacingAndGlyphs" textLength="288" x="401" y="667.1895">SuplementaryRequirements</text><path d="M398,679.1953 L398,679.4756 L408.1379,678.6429 L418.2759,679.453 L428.4138,679.7282 L438.5517,678.2441 L448.6897,679.0917 L458.8276,678.6267 L468.9655,678.684 L479.1034,679.1044 L489.2414,678.2735 L499.3793,679.9335 L509.5172,678.3549 L519.6552,678.9316 L529.7931,679.7712 L539.931,679.0809 L550.069,679.2863 L560.2069,679.1527 L570.3448,679.4333 L580.4828,679.5142 L590.6207,679.9762 L600.7586,680.0901 L610.8966,680.101 L621.0345,679.5348 L631.1724,679.8134 L641.3103,680.1316 L651.4483,678.2337 L661.5862,680.1 L671.7241,678.8 L681.8621,679.9071 L692,679.1953 " fill="#222222" style="stroke: #FF0000; stroke-width: 3.0;"/><path d="M398,687.1953 L398,687.4756 L408.1379,686.6429 L418.2759,687.453 L428.4138,687.7282 L438.5517,686.2441 L448.6897,687.0917 L458.8276,686.6267 L468.9655,686.684 L479.1034,687.1044 L489.2414,686.2735 L499.3793,687.9335 L509.5172,686.3549 L519.6552,686.9316 L529.7931,687.7712 L539.931,687.0809 L550.069,687.2863 L560.2069,687.1527 L570.3448,687.4333 L580.4828,687.5142 L590.6207,687.9762 L600.7586,688.0901 L610.8966,688.101 L621.0345,687.5348 L631.1724,687.8134 L641.3103,688.1316 L651.4483,686.2337 L661.5862,688.1 L671.7241,686.8 L681.8621,687.9071 L692,687.1953 " fill="#222222" style="stroke: #FF0000; stroke-width: 3.0;"/><!--class DomainModel--><polygon fill="#222222" points="728,641.082,728,641.2922,738,640.6677,748,641.2753,758,641.4817,768,640.3686,778,641.0043,788,640.6555,798,640.6985,808,641.0139,818,640.3907,828,641.6357,838,640.4518,848,640.8843,858,641.514,868,641.082,867.9142,641.082,868.0682,651.9047,867.9681,662.7273,868.1785,673.55,868.2391,684.3727,868,695.1953,868,695.781,858,695.8664,848,695.8746,838,695.4499,828,695.6589,818,695.8975,808,694.4741,798,695.8738,788,694.8988,778,695.7291,768,694.7003,758,695.1268,748,695.9369,738,695.1466,728,695.1953,728.1053,695.1953,728.3386,684.3727,728.4162,673.55,727.9961,662.7273,728.2872,651.9047,728,641.082" style="stroke: #FF0000; stroke-width: 3.0;"/><text fill="#FF0000" font-family="courier" font-size="20" font-weight="bold" lengthAdjust="spacingAndGlyphs" textLength="132" x="732" y="667.1895">DomainModel</text><path d="M729,679.1953 L729,679.4756 L738.8571,678.6429 L748.7143,679.453 L758.5714,679.7282 L768.4286,678.2441 L778.2857,679.0917 L788.1429,678.6267 L798,678.684 L807.8571,679.1044 L817.7143,678.2735 L827.5714,679.9335 L837.4286,678.3549 L847.2857,678.9316 L857.1429,679.7712 L867,679.1953 " fill="#222222" style="stroke: #FF0000; stroke-width: 3.0;"/><path d="M729,687.1953 L729,687.4756 L738.8571,686.6429 L748.7143,687.453 L758.5714,687.7282 L768.4286,686.2441 L778.2857,687.0917 L788.1429,686.6267 L798,686.684 L807.8571,687.1044 L817.7143,686.2735 L827.5714,687.9335 L837.4286,686.3549 L847.2857,686.9316 L857.1429,687.7712 L867,687.1953 " fill="#222222" style="stroke: #FF0000; stroke-width: 3.0;"/><!--class UseCaseModel--><polygon fill="#222222" points="62,641.082,62,641.2922,72.1333,640.6677,82.2667,641.2753,92.4,641.4817,102.5333,640.3686,112.6667,641.0043,122.8,640.6555,132.9333,640.6985,143.0667,641.0139,153.2,640.3907,163.3333,641.6357,173.4667,640.4518,183.6,640.8843,193.7333,641.514,203.8667,640.9963,214,641.082,214.0682,641.082,213.9681,651.9047,214.1785,662.7273,214.2391,673.55,214.5857,684.3727,214,695.1953,214,695.8664,203.8667,695.8746,193.7333,695.4499,183.6,695.6589,173.4667,695.8975,163.3333,694.4741,153.2,695.8738,143.0667,694.8988,132.9333,695.7291,122.8,694.7003,112.6667,695.1268,102.5333,695.9369,92.4,695.1466,82.2667,695.3006,72.1333,695.5339,62,695.1953,62.4162,695.1953,61.9961,684.3727,62.2872,673.55,61.4276,662.7273,62.2844,651.9047,62,641.082" style="stroke: #FF0000; stroke-width: 3.0;"/><text fill="#FF0000" font-family="courier" font-size="20" font-weight="bold" lengthAdjust="spacingAndGlyphs" textLength="144" x="66" y="667.1895">UseCaseModel</text><path d="M63,679.1953 L63,679.4756 L73,678.6429 L83,679.453 L93,679.7282 L103,678.2441 L113,679.0917 L123,678.6267 L133,678.684 L143,679.1044 L153,678.2735 L163,679.9335 L173,678.3549 L183,678.9316 L193,679.7712 L203,679.0809 L213,679.1953 " fill="#222222" style="stroke: #FF0000; stroke-width: 3.0;"/><path d="M63,687.1953 L63,687.4756 L73,686.6429 L83,687.453 L93,687.7282 L103,686.2441 L113,687.0917 L123,686.6267 L133,686.684 L143,687.1044 L153,686.2735 L163,687.9335 L173,686.3549 L183,686.9316 L193,687.7712 L203,687.0809 L213,687.1953 " fill="#222222" style="stroke: #FF0000; stroke-width: 3.0;"/><!--class Glosary--><polygon fill="#222222" points="249,641.082,249,641.2922,259.2222,640.6677,269.4444,641.2753,279.6667,641.4817,289.8889,640.3686,300.1111,641.0043,310.3333,640.6555,320.5556,640.6985,330.7778,641.0139,341,641.082,340.3086,641.082,341.5536,651.9047,340.3697,662.7273,340.8022,673.55,341.4319,684.3727,341,695.1953,341,695.1095,330.7778,695.2636,320.5556,695.1634,310.3333,695.3738,300.1111,695.4344,289.8889,695.781,279.6667,695.8664,269.4444,695.8746,259.2222,695.4499,249,695.1953,249.4636,695.1953,249.7022,684.3727,248.2788,673.55,249.6785,662.7273,248.7035,651.9047,249,641.082" style="stroke: #FF0000; stroke-width: 3.0;"/><text fill="#FF0000" font-family="courier" font-size="20" font-weight="bold" lengthAdjust="spacingAndGlyphs" textLength="84" x="253" y="667.1895">Glosary</text><path d="M250,679.1953 L250,679.4756 L260,678.6429 L270,679.453 L280,679.7282 L290,678.2441 L300,679.0917 L310,678.6267 L320,678.684 L330,679.1044 L340,679.1953 " fill="#222222" style="stroke: #FF0000; stroke-width: 3.0;"/><path d="M250,687.1953 L250,687.4756 L260,686.6429 L270,687.453 L280,687.7282 L290,686.2441 L300,687.0917 L310,686.6267 L320,686.684 L330,687.1044 L340,687.1953 " fill="#222222" style="stroke: #FF0000; stroke-width: 3.0;"/><!--class Member--><polygon fill="#222222" points="1259,292.082,1259,292.2922,1269,291.6677,1279,292.2753,1289,292.4817,1299,291.3686,1309,292.0043,1319,291.6555,1329,291.6985,1339,292.082,1338.9318,292.082,1338.3086,302.9047,1339.5536,313.7273,1338.3697,324.55,1338.8022,335.3727,1339,346.1953,1339,346.6273,1329,346.1095,1319,346.2636,1309,346.1634,1299,346.3738,1289,346.4344,1279,346.781,1269,346.8664,1259,346.1953,1259.6793,346.1953,1259.2546,335.3727,1259.4636,324.55,1259.7022,313.7273,1258.2788,302.9047,1259,292.082" style="stroke: #0000FF; stroke-width: 3.0;"/><text fill="#0000FF" font-family="courier" font-size="20" font-weight="bold" lengthAdjust="spacingAndGlyphs" textLength="72" x="1263" y="318.1895">Member</text><path d="M1260,330.1953 L1260,330.4756 L1269.75,329.6429 L1279.5,330.453 L1289.25,330.7282 L1299,329.2441 L1308.75,330.0917 L1318.5,329.6267 L1328.25,329.684 L1338,330.1953 " fill="#222222" style="stroke: #0000FF; stroke-width: 3.0;"/><path d="M1260,338.1953 L1260,338.4756 L1269.75,337.6429 L1279.5,338.453 L1289.25,338.7282 L1299,337.2441 L1308.75,338.0917 L1318.5,337.6267 L1328.25,337.684 L1338,338.1953 " fill="#222222" style="stroke: #0000FF; stroke-width: 3.0;"/><!--class Role--><polygon fill="#222222" points="1292,407.082,1292,407.2922,1301.3333,406.6677,1310.6667,407.2753,1320,407.4817,1329.3333,406.3686,1338.6667,407.0043,1348,407.082,1347.5735,407.082,1347.6165,417.9047,1347.9318,428.7273,1347.3086,439.55,1348.5536,450.3727,1348,461.1953,1348,460.565,1338.6667,460.9975,1329.3333,461.6273,1320,461.1095,1310.6667,461.2636,1301.3333,461.1634,1292,461.1953,1292.1785,461.1953,1292.2391,450.3727,1292.5857,439.55,1292.6711,428.7273,1292.6793,417.9047,1292,407.082" style="stroke: #0000FF; stroke-width: 3.0;"/><text fill="#0000FF" font-family="courier" font-size="20" font-weight="bold" lengthAdjust="spacingAndGlyphs" textLength="48" x="1296" y="433.1895">Role</text><path d="M1293,445.1953 L1293,445.4756 L1303.8,444.6429 L1314.6,445.453 L1325.4,445.7282 L1336.2,444.2441 L1347,445.1953 " fill="#222222" style="stroke: #0000FF; stroke-width: 3.0;"/><path d="M1293,453.1953 L1293,453.4756 L1303.8,452.6429 L1314.6,453.453 L1325.4,453.7282 L1336.2,452.2441 L1347,453.1953 " fill="#222222" style="stroke: #0000FF; stroke-width: 3.0;"/><!--class RequirementRole--><polygon fill="#222222" points="1242,641.082,1242,641.2922,1251.8947,640.6677,1261.7895,641.2753,1271.6842,641.4817,1281.5789,640.3686,1291.4737,641.0043,1301.3684,640.6555,1311.2632,640.6985,1321.1579,641.0139,1331.0526,640.3907,1340.9474,641.6357,1350.8421,640.4518,1360.7368,640.8843,1370.6316,641.514,1380.5263,640.9963,1390.4211,641.1503,1400.3158,641.0501,1410.2105,641.2606,1420.1053,641.3212,1430,641.082,1430.5857,641.082,1430.6711,651.9047,1430.6793,662.7273,1430.2546,673.55,1430.4636,684.3727,1430,695.1953,1430,695.8975,1420.1053,694.4741,1410.2105,695.8738,1400.3158,694.8988,1390.4211,695.7291,1380.5263,694.7003,1370.6316,695.1268,1360.7368,695.9369,1350.8421,695.1466,1340.9474,695.3006,1331.0526,695.5339,1321.1579,695.6115,1311.2632,695.1914,1301.3684,695.4825,1291.4737,694.6229,1281.5789,695.4797,1271.6842,695.7435,1261.7895,695.6398,1251.8947,695.8083,1242,695.1953,1241.5169,695.1953,1241.3478,684.3727,1241.3786,673.55,1241.9411,662.7273,1241.8035,651.9047,1242,641.082" style="stroke: #0000FF; stroke-width: 3.0;"/><text fill="#0000FF" font-family="courier" font-size="20" font-weight="bold" lengthAdjust="spacingAndGlyphs" textLength="180" x="1246" y="667.1895">RequirementRole</text><path d="M1243,679.1953 L1243,679.4756 L1252.7895,678.6429 L1262.5789,679.453 L1272.3684,679.7282 L1282.1579,678.2441 L1291.9474,679.0917 L1301.7368,678.6267 L1311.5263,678.684 L1321.3158,679.1044 L1331.1053,678.2735 L1340.8947,679.9335 L1350.6842,678.3549 L1360.4737,678.9316 L1370.2632,679.7712 L1380.0526,679.0809 L1389.8421,679.2863 L1399.6316,679.1527 L1409.4211,679.4333 L1419.2105,679.5142 L1429,679.1953 " fill="#222222" style="stroke: #0000FF; stroke-width: 3.0;"/><path d="M1243,687.1953 L1243,687.4756 L1252.7895,686.6429 L1262.5789,687.453 L1272.3684,687.7282 L1282.1579,686.2441 L1291.9474,687.0917 L1301.7368,686.6267 L1311.5263,686.684 L1321.3158,687.1044 L1331.1053,686.2735 L1340.8947,687.9335 L1350.6842,686.3549 L1360.4737,686.9316 L1370.2632,687.7712 L1380.0526,687.0809 L1389.8421,687.2863 L1399.6316,687.1527 L1409.4211,687.4333 L1419.2105,687.5142 L1429,687.1953 " fill="#222222" style="stroke: #0000FF; stroke-width: 3.0;"/><!--class SystemsAnalyst--><polygon fill="#222222" points="1243,782.082,1243,782.2922,1252.7778,781.6677,1262.5556,782.2753,1272.3333,782.4817,1282.1111,781.3686,1291.8889,782.0043,1301.6667,781.6555,1311.4444,781.6985,1321.2222,782.0139,1331,781.3907,1340.7778,782.6357,1350.5556,781.4518,1360.3333,781.8843,1370.1111,782.514,1379.8889,781.9963,1389.6667,782.1503,1399.4444,782.0501,1409.2222,782.2606,1419,782.082,1419.2391,782.082,1419.5857,792.9047,1419.6711,803.7273,1419.6793,814.55,1419.2546,825.3727,1419,836.1953,1419,836.6589,1409.2222,836.8975,1399.4444,835.4741,1389.6667,836.8738,1379.8889,835.8988,1370.1111,836.7291,1360.3333,835.7003,1350.5556,836.1268,1340.7778,836.9369,1331,836.1466,1321.2222,836.3006,1311.4444,836.5339,1301.6667,836.6115,1291.8889,836.1914,1282.1111,836.4825,1272.3333,835.6229,1262.5556,836.4797,1252.7778,836.7435,1243,836.1953,1243.4445,836.1953,1243.613,825.3727,1242.5169,814.55,1242.3478,803.7273,1242.3786,792.9047,1243,782.082" style="stroke: #0000FF; stroke-width: 3.0;"/><text fill="#0000FF" font-family="courier" font-size="20" font-weight="bold" lengthAdjust="spacingAndGlyphs" textLength="168" x="1247" y="808.1895">SystemsAnalyst</text><path d="M1244,820.1953 L1244,820.4756 L1254.2353,819.6429 L1264.4706,820.453 L1274.7059,820.7282 L1284.9412,819.2441 L1295.1765,820.0917 L1305.4118,819.6267 L1315.6471,819.684 L1325.8824,820.1044 L1336.1176,819.2735 L1346.3529,820.9335 L1356.5882,819.3549 L1366.8235,819.9316 L1377.0588,820.7712 L1387.2941,820.0809 L1397.5294,820.2863 L1407.7647,820.1527 L1418,820.1953 " fill="#222222" style="stroke: #0000FF; stroke-width: 3.0;"/><path d="M1244,828.1953 L1244,828.4756 L1254.2353,827.6429 L1264.4706,828.453 L1274.7059,828.7282 L1284.9412,827.2441 L1295.1765,828.0917 L1305.4118,827.6267 L1315.6471,827.684 L1325.8824,828.1044 L1336.1176,827.2735 L1346.3529,828.9335 L1356.5882,827.3549 L1366.8235,827.9316 L1377.0588,828.7712 L1387.2941,828.0809 L1397.5294,828.2863 L1407.7647,828.1527 L1418,828.1953 " fill="#222222" style="stroke: #0000FF; stroke-width: 3.0;"/><!--link Activity to RequirementActivity--><path d="M981.275,217.625 L981.5433,217.7059 L977.9551,226.7268 L975.9398,236.2216 L973.4122,245.5622 L969.2003,254.3951 L967.2208,263.9008 L963.9845,273.0277 L961.2484,282.3054 L958.947,291.714 " fill="none" style="stroke: #FFFFFF; stroke-width: 2.0;"/><polygon fill="none" points="974.66,215.313,974.7166,215.3543,977.0432,211.8059,979.7017,208.4994,982.2521,205.1141,984.447,201.4698,987.134,198.184,987.1081,198.1829,987.1782,202.4116,987.3787,206.646,987.6699,210.8844,987.6486,215.1091,988.065,219.353,988.1183,219.5297,985.3234,218.3439,982.684,217.6739,980.0635,217.0669,977.3327,216.0937,974.66,215.313" style="stroke: #FFFFFF; stroke-width: 2.0;"/><!--link Activity to Member--><path d="M1047.26,197.18 L1047.3813,197.4326 L1056.0104,200.9995 L1065.3507,206.0473 L1074.4594,210.6128 L1082.8065,213.5925 L1092.163,218.674 L1100.9512,222.5723 L1109.9656,226.9415 L1119.1372,231.6379 L1127.767,235.2064 L1137.4752,241.0202 L1145.7814,243.9148 L1155.0206,248.7521 L1164.3737,253.8264 L1173.0644,257.5216 L1182.1429,262.0242 L1191.0746,266.2213 L1200.1857,270.7917 L1209.2102,275.1821 L1218.3998,279.9161 L1227.4387,284.3361 L1236.433,288.6635 L1245.1774,292.4706 L1254.02,296.482 " fill="none" style="stroke: #FFFFFF; stroke-width: 2.0;"/><polygon fill="#FFFFFF" points="1258.58,298.671,1258.6333,298.7165,1257.1967,297.0827,1256.0725,295.7155,1254.8466,294.2614,1253.286,292.522,1252.1887,291.1776,1252.1643,291.169,1252.4309,292.1973,1252.8206,293.269,1253.296,294.371,1253.4764,295.3689,1254.0699,296.5125,1254.1313,296.6865,1252.9331,296.6906,1251.9141,297.2028,1250.9169,297.777,1249.7925,297.9905,1248.735,298.3937,1248.7357,298.4164,1250.7037,298.4385,1252.6747,298.5641,1254.6443,298.6398,1256.6165,298.8107,1258.58,298.671" style="stroke: #FFFFFF; stroke-width: 2.0;"/><!--link RequirementActivity to RequirementRole--><path d="M1001.044,346.161 L1001.0897,346.2425 L1005.407,348.497 L1009.9921,351.2292 L1014.49,353.8058 L1018.7011,355.8709 L1023.3092,358.6441 L1023.2919,358.6142 L1025.6399,359.8838 L1028.0751,361.3041 L1030.571,362.8292 L1032.8579,363.9932 L1035.4375,365.6629 L1035.5629,365.8746 L1037.8299,366.9232 L1040.4629,368.59 L1043.1406,370.3322 L1045.5584,371.6355 L1048.1129,373.1697 L1048.1287,373.1956 L1050.7325,374.752 L1053.408,376.4264 L1056.049,378.0439 L1058.7559,379.77 L1061.2478,381.1419 L1061.4055,381.395 L1064.1088,383.0811 L1066.7103,384.6039 L1069.4608,386.3657 L1072.2182,388.1387 L1074.7545,389.5568 L1074.5816,389.2869 L1077.6754,391.5778 L1080.1998,392.9799 L1083.157,395.0576 L1085.6686,396.4396 L1088.5454,398.3919 L1088.5287,398.3665 L1091.5245,400.5135 L1094.1285,402.0669 L1096.9638,403.9705 L1099.8184,405.9036 L1102.533,407.6245 L1102.6372,407.7774 L1105.3513,409.5446 L1108.2435,411.573 L1110.8477,413.1788 L1113.8815,415.415 L1116.6296,417.2321 L1116.7701,417.4311 L1119.5671,419.3855 L1122.4339,421.4386 L1124.9767,423.0325 L1127.7569,424.9631 L1130.7476,427.1919 L1130.5845,426.969 L1133.5425,429.2287 L1136.3168,431.2372 L1139.3577,433.6099 L1141.9433,435.3608 L1144.7995,437.4814 L1144.707,437.3601 L1147.6406,439.6813 L1150.179,441.4843 L1152.9984,443.6558 L1156.0928,446.1879 L1158.6976,448.0779 L1158.8182,448.2293 L1161.6323,450.5094 L1164.0711,452.3184 L1166.98,454.7174 L1169.7864,456.9879 L1172.3543,458.9588 L1172.2196,458.7977 L1174.9925,461.1547 L1177.7213,463.4589 L1180.5367,465.8667 L1183.0152,467.8716 L1185.682,470.1016 L1185.8179,470.2558 L1188.1014,472.1933 L1190.6474,474.4286 L1193.5766,477.0986 L1195.8001,478.9681 L1198.5931,481.4835 L1198.7476,481.6488 L1201.1372,483.8703 L1203.4745,486.0359 L1205.9299,488.3278 L1208.6579,490.9113 L1211,493.082 L1210.9061,492.9878 L1212.8847,494.9615 L1214.2247,496.2944 L1216.2908,498.3559 L1217.9481,500.0072 L1219.4952,501.5479 L1219.5744,501.6227 L1221.1806,503.3294 L1223.0701,505.304 L1224.7037,507.0366 L1226.2302,508.6681 L1227.8456,510.3835 L1227.9344,510.4631 L1229.4398,512.173 L1231.3574,514.2522 L1232.8087,515.9138 L1234.4518,517.7471 L1236.032,519.5241 L1235.8263,519.3486 L1237.4956,521.2833 L1239.4126,523.4294 L1240.9791,525.2764 L1242.4199,527.0162 L1244.035,528.9047 L1243.9241,528.8142 L1245.5197,530.7544 L1246.919,532.5342 L1248.8581,534.7548 L1250.5301,536.7573 L1251.8355,538.4606 L1252.0197,538.605 L1253.5944,540.5845 L1254.8193,542.2897 L1256.4133,544.2843 L1257.763,546.0874 L1259.4144,548.1269 L1259.5151,548.203 L1260.9695,550.1354 L1262.5454,552.1597 L1263.7357,553.8925 L1265.237,555.8604 L1266.7523,557.8388 L1266.9114,557.955 L1268.3714,559.926 L1269.3994,561.5815 L1270.9293,563.6035 L1272.468,565.632 L1273.83,567.5314 L1273.6084,567.3746 L1275.3179,569.5438 L1276.6429,571.441 L1277.8725,573.2706 L1279.3203,575.2547 L1280.6284,577.1399 L1280.8953,577.3233 L1281.8137,578.9531 L1283.3436,581.003 L1284.6329,582.8875 L1285.8706,584.7367 L1287.1281,586.5995 L1287.1804,586.634 L1289.5756,590.2698 L1291.7074,593.7318 L1294.1956,597.4291 L1296.5785,601.0568 L1299.155,604.8124 L1299.179,604.8275 L1301.3085,608.2011 L1303.4566,611.5863 L1305.4067,614.8469 L1307.6111,618.2677 L1309.7569,621.6515 L1309.7111,621.6239 L1311.781,624.7733 L1313.5284,627.7281 L1314.986,630.5079 L1316.9476,633.592 L1318.78,636.598 " fill="none" style="stroke: #FFFFFF; stroke-width: 2.0;"/><polygon fill="#FFFFFF" points="1321.35,640.964,1321.4196,640.972,1320.9881,638.9914,1320.9645,637.0576,1320.8081,635.1085,1320.2148,633.1093,1320.2263,631.1795,1320.2012,631.173,1319.8057,632.2393,1319.5365,633.3383,1319.3553,634.46,1318.8712,635.5034,1318.8113,636.6565,1318.8574,636.8352,1317.6633,636.1701,1316.604,636.0267,1315.5611,635.9469,1314.4225,635.4968,1313.3343,635.2414,1313.3475,635.26,1314.9312,636.3773,1316.5751,637.5789,1318.19,638.7399,1319.8603,639.9784,1321.35,640.964" style="stroke: #FFFFFF; stroke-width: 2.0;"/><!--link RequirementActivity to FindActorUseCases--><path d="M946.096,366.261 L946.1889,366.2709 L945.0473,374.3926 L944.4502,382.5721 L943.6758,390.7328 L942.3183,398.8315 L941.768,407.016 " fill="none" style="stroke: #FFFFFF; stroke-width: 2.0;"/><polygon fill="none" points="939.144,365.439,939.2073,365.469,940.8338,361.5501,942.8314,357.807,944.7082,354.0067,946.1875,350.018,948.217,346.29,948.1918,346.2841,949.0484,350.3831,950.0322,354.512,951.1043,358.6616,951.8719,362.7397,953.066,366.918,953.0855,367.1015,950.2594,366.4133,947.4902,366.2609,944.728,366.1738,941.9254,365.7064,939.144,365.439" style="stroke: #FFFFFF; stroke-width: 2.0;"/><!--link FindActorUseCases to CharacteriticList--><path d="M946.894,461.244 L947.1623,461.325 L949.2968,470.8011 L953.0042,480.7518 L956.1994,490.548 L957.7102,499.8359 L961.4534,509.7974 L963.9399,519.3798 L966.9265,529.113 L970.2608,538.9511 L972.397,548.4278 L976.9179,558.6239 L978.3384,567.8846 L981.8222,577.7679 L985.5578,587.7271 L987.8286,597.2443 L990.9569,607.0203 L993.7608,616.6984 L996.9612,626.4961 L999.665,636.144 " fill="none" style="stroke: #FFFFFF; stroke-width: 2.0;"/><polygon fill="#FFFFFF" points="1001.135,641.015,1001.2045,641.0238,1001.244,639.0434,1001.6909,637.1144,1002.0051,635.1686,1001.883,633.1679,1002.3649,631.2433,1002.3421,631.231,1001.7048,632.173,1001.1826,633.1768,1000.7404,634.2235,1000.0225,635.1222,999.6908,636.2281,999.778,636.3908,998.5945,635.5082,997.6657,635.1004,996.7679,634.7505,995.6894,634.0636,994.7059,633.554,994.7231,633.5689,995.9837,635.0393,997.3226,636.5773,998.6238,638.0827,999.9971,639.6503,1001.135,641.015" style="stroke: #FFFFFF; stroke-width: 2.0;"/><text fill="#FFFFFF" font-family="courier" font-size="20" lengthAdjust="spacingAndGlyphs" textLength="24" x="966" y="515.1895">in</text><!--link FindActorUseCases to SuplementaryRequirements--><path d="M861.521,461.103 L861.554,461.1904 L857.9222,462.2658 L854.484,463.8534 L850.9827,465.2742 L847.2742,466.1465 L843.8525,467.7781 L843.8398,467.746 L840.0706,469.0679 L836.3654,470.5518 L832.7046,472.1482 L828.8905,473.3567 L825.2911,475.1086 L825.3853,475.3359 L821.346,476.4407 L817.5817,478.2092 L813.8509,480.0586 L809.9249,481.4369 L806.1016,483.063 L806.1137,483.0908 L802.1853,484.7593 L798.3122,486.5543 L794.4125,488.2882 L790.5636,490.1386 L786.5487,491.6094 L786.6742,491.88 L782.7454,493.7047 L778.7358,495.3548 L774.8446,497.2604 L770.9589,499.178 L766.8974,500.7162 L766.7572,500.4279 L765.0732,501.9382 L762.9278,502.4992 L761.1331,503.7818 L758.9773,504.3213 L757.1175,505.4699 L757.1038,505.4427 L755.3245,506.7407 L753.2257,507.4033 L751.3154,508.4408 L749.4209,509.5098 L747.4123,510.3517 L747.4978,510.5158 L745.492,511.3514 L743.6323,512.4674 L741.5361,513.1298 L739.7927,514.4687 L737.8148,515.3578 L737.9309,515.572 L736.0176,516.5568 L734.162,517.6479 L732.0385,518.2449 L730.1114,519.2041 L728.3582,520.4842 L728.2224,520.2438 L726.4888,521.51 L724.6022,522.5053 L722.9376,523.8936 L720.8939,524.6108 L719.0756,525.727 L718.9981,525.5956 L717.312,526.8853 L715.2947,527.6137 L713.513,528.7413 L711.9617,530.2594 L710,531.082 L710.1021,531.2465 L708.2529,532.5509 L706.086,533.3436 L704.317,534.7772 L702.4613,536.0712 L700.4036,537.0398 L700.2888,536.864 L698.4631,538.2566 L696.5997,539.5916 L694.8103,541.0397 L692.7336,542.0481 L690.8173,543.3021 L690.9333,543.4718 L688.7695,544.4031 L686.8296,545.6621 L685.2167,547.3997 L683.0017,548.2561 L681.2724,549.8235 L681.4035,550.0078 L679.4312,551.2454 L677.4146,552.4205 L675.498,553.7364 L673.8128,555.3778 L671.8002,556.5586 L671.7213,556.4515 L670.0826,558.1511 L667.9072,559.1223 L666.342,560.9217 L664.4333,562.2547 L662.432,563.4622 L662.4979,563.5488 L660.5981,564.8842 L658.9343,566.5298 L657.0573,567.8951 L655.0911,569.1432 L653.1989,570.4887 L653.2724,570.5825 L651.3499,571.8639 L649.7687,573.581 L647.8015,574.8053 L645.993,576.2324 L644.1324,577.5928 L643.9629,577.3822 L642.2458,578.8798 L640.7328,580.6311 L638.931,582.0234 L637.0255,583.287 L635.2638,584.7292 L635.1721,584.6192 L631.7977,587.492 L628.261,590.17 L625.1705,593.3834 L621.8592,596.3319 L618.245,598.917 L618.3984,599.0936 L615.2771,601.9046 L611.8643,604.38 L608.7592,607.2095 L605.4503,609.8046 L602.3929,612.6891 L602.4774,612.7829 L599.5793,615.3693 L596.7831,618.0689 L593.6636,620.4093 L590.8049,623.0394 L587.9578,625.6825 L588.0919,625.8269 L585.5758,628.2376 L582.6957,630.2561 L580.2385,632.7303 L577.7887,635.2123 L575.19,637.534 " fill="none" style="stroke: #FFFFFF; stroke-width: 2.0;"/><polygon fill="#FFFFFF" points="571.439,641.082,571.4623,641.1481,573.2505,640.2962,575.1754,639.8316,577.0558,639.2409,578.7898,638.2355,580.7264,637.8041,580.7257,637.7783,579.5915,637.6305,578.461,637.6133,577.333,637.6868,576.1962,637.4476,575.0717,637.6464,575.2562,637.6516,574.8933,636.5097,575.0689,635.3827,575.3103,634.2577,575.1693,633.1219,575.2294,631.9918,575.2504,632.0005,574.4615,633.8057,573.7682,635.6508,573.0287,637.4766,572.3773,639.3391,571.439,641.082" style="stroke: #FFFFFF; stroke-width: 2.0;"/><text fill="#FFFFFF" font-family="courier" font-size="20" lengthAdjust="spacingAndGlyphs" textLength="24" x="785" y="515.1895">in</text><!--link FindActorUseCases to DomainModel--><path d="M923.1,461.244 L923.3395,461.3896 L917.55,469.3122 L913.1644,478.0881 L908.3217,486.5861 L901.9755,494.1704 L897.6219,502.9657 L892.1466,511.0793 L887.1177,519.4641 L882.3991,528.0376 L876.6111,535.9611 L872.9518,545.1784 L866.5249,552.7136 L861.9398,561.3682 L857.5794,570.1594 L851.9116,578.156 L847.0092,586.6177 L841.8171,594.9034 L836.979,603.4043 L831.9702,611.8013 L827.2871,620.3964 L822.3065,628.8106 L816.464,636.701 " fill="none" style="stroke: #FFFFFF; stroke-width: 2.0;"/><polygon fill="#FFFFFF" points="813.842,641.015,813.8819,641.0726,815.3815,639.7785,817.1153,638.8219,818.7728,637.7554,820.1795,636.3276,821.9334,635.3999,821.9272,635.3747,820.8006,635.5302,819.7049,635.8125,818.6307,636.1829,817.4824,636.2495,816.438,636.7418,816.6173,636.7855,815.9655,635.5928,815.8372,634.528,815.7727,633.4787,815.3367,632.3386,815.0961,631.2463,815.1187,631.2492,814.8347,633.1987,814.6535,635.1614,814.4227,637.1177,814.2865,639.0862,813.842,641.015" style="stroke: #FFFFFF; stroke-width: 2.0;"/><text fill="#FFFFFF" font-family="courier" font-size="20" lengthAdjust="spacingAndGlyphs" textLength="24" x="904" y="515.1895">in</text><!--link FindActorUseCases to UseCaseModel--><path d="M832.802,438.597 L832.8165,438.8769 L823.1397,438.5447 L813.548,439.8531 L803.9285,440.6273 L794.218,439.6446 L784.6336,441.0939 L784.6315,441.0594 L779.3286,441.2231 L774.0362,441.5605 L768.7511,442.0188 L763.4409,442.0608 L758.1657,442.6859 L758.182,442.9314 L752.579,442.7754 L747.0234,443.3363 L741.4737,443.9847 L735.8902,444.1241 L730.3245,444.5313 L730.3267,444.5615 L724.5129,444.9405 L718.7091,445.4572 L712.9005,445.9075 L707.1012,446.4845 L701.2717,446.6483 L701.2955,446.9456 L695.2752,447.4306 L689.2397,447.7238 L683.2266,448.2978 L677.2145,448.8849 L671.1691,449.0551 L671.1411,448.7358 L664.9973,449.8985 L658.7614,450.0099 L652.5955,450.9205 L646.3574,451.008 L640.1785,451.7701 L640.1756,451.7398 L633.8666,452.7065 L627.4897,452.9651 L621.1529,453.6416 L614.8195,454.3531 L608.4617,454.8115 L608.481,454.9955 L602.0053,455.487 L595.5626,456.2929 L589.0665,456.5901 L582.65,457.646 L576.1806,458.1975 L576.2083,458.4396 L569.6663,459.1436 L563.1381,459.9678 L556.5458,460.2336 L550.0005,460.9087 L543.4968,461.9464 L543.4624,461.6724 L536.9086,462.7465 L530.3161,463.5118 L523.7797,464.7249 L517.1475,465.1734 L510.5722,466.0764 L510.5515,465.9254 L503.9853,467.0828 L497.3305,467.5946 L490.7387,468.5655 L484.2086,469.9857 L477.5686,470.6058 L477.5974,470.7973 L471.033,471.918 L464.379,472.4432 L457.8372,473.7143 L451.271,474.8229 L444.6478,475.5528 L444.6137,475.3456 L438.1056,476.5873 L431.5864,477.7612 L425.0891,479.0684 L418.5065,479.8573 L411.9716,480.9357 L412.0082,481.138 L405.4738,481.8609 L399.01,482.9743 L392.6495,484.6581 L386.099,485.2917 L379.7017,486.7727 L379.7448,486.9947 L376.5328,487.4817 L373.3062,487.8936 L370.1125,488.475 L366.995,489.4484 L363.7697,489.8672 L363.7431,489.7368 L360.6683,490.7679 L357.4128,490.9124 L354.3627,492.065 L351.1969,492.65 L348,493.082 L348.0201,493.189 L344.2843,493.8024 L340.6206,494.799 L336.8917,495.4494 L333.1356,495.9551 L329.4021,496.581 L329.4208,496.6987 L326.1718,497.0334 L323.0093,497.9147 L319.749,498.1777 L316.529,498.6951 L313.2957,499.1289 L313.2537,498.8619 L310.4091,499.4013 L307.6152,500.2624 L304.7495,500.6683 L301.8582,500.911 L299.0026,501.3801 L298.9747,501.2397 L296.352,501.8064 L293.68,502.1245 L291.1436,503.1261 L288.54,503.7895 L285.8445,503.9888 L285.9086,504.2138 L283.3889,505.0099 L280.7474,505.3785 L278.2345,506.1982 L275.6364,506.7194 L273.1434,507.6091 L273.1912,507.7259 L270.6004,508.7678 L268.0674,509.9508 L265.3513,510.6863 L262.7829,511.7827 L260.221,512.8953 L260.3161,513.0679 L257.5783,514.6374 L254.5825,515.7382 L251.8864,517.3835 L249.1956,519.0384 L246.3993,520.5015 L246.2456,520.2777 L243.4084,522.7471 L240.3045,524.8282 L237.1344,526.8129 L234.1157,529.018 L231,531.082 L231.2077,531.3305 L228.2383,533.2086 L225.7447,535.6561 L223.0638,537.8794 L220.3429,540.0548 L217.6373,542.2486 L217.6818,542.2927 L215.1861,544.793 L212.4662,547.0712 L210.0496,549.65 L207.5434,552.14 L205.202,554.7933 L205.2236,554.8117 L202.9361,557.5216 L200.6654,560.2457 L198.2163,562.8183 L195.9963,565.5855 L193.7235,568.3078 L193.6806,568.2759 L191.8306,571.2762 L189.6786,574.0515 L187.2551,576.6244 L185.3037,579.5492 L183.2313,582.3838 L183.0177,582.2416 L181.4426,585.3006 L179.6658,588.2253 L177.7468,591.0554 L175.489,593.6597 L173.7548,596.6128 L173.9314,596.7194 L171.7859,599.237 L170.4585,602.2483 L168.5822,604.9284 L167.0467,607.8141 L165.3236,610.5866 L165.4171,610.6383 L164.036,613.3502 L162.101,615.7559 L161.0947,618.675 L159.5078,621.2731 L157.9672,623.8968 L158.1078,623.9687 L157.0127,626.4957 L155.4685,628.7932 L154.2852,631.2752 L153.0499,633.7305 L151.715,636.135 " fill="none" style="stroke: #FFFFFF; stroke-width: 2.0;"/><polygon fill="#FFFFFF" points="149.384,640.944,149.4292,640.9976,150.7998,639.5676,152.4353,638.4514,153.9846,637.233,155.2501,635.6785,156.9084,634.5893,156.8999,634.5648,155.793,634.826,154.7289,635.2106,153.6946,635.681,152.5577,635.8558,151.5645,636.4445,151.7388,636.505,150.9949,635.3068,150.7601,634.2853,150.5873,633.2854,150.0532,632.16,149.7092,631.1005,149.7319,631.1013,149.6335,633.0689,149.6386,635.0399,149.5938,637.0093,149.6442,638.9818,149.384,640.944" style="stroke: #FFFFFF; stroke-width: 2.0;"/><text fill="#FFFFFF" font-family="courier" font-size="20" lengthAdjust="spacingAndGlyphs" textLength="36" x="350" y="515.1895">out</text><!--link FindActorUseCases to Glosary--><path d="M832.753,443.092 L832.7614,443.1851 L827.2436,443.4064 L821.7753,444.1732 L816.2908,444.7623 L810.7534,444.7674 L805.2893,445.581 L805.2859,445.5466 L799.396,445.9625 L793.5228,446.5517 L787.6614,447.2613 L781.7597,447.5557 L775.9144,448.4317 L775.9399,448.6765 L769.7056,448.7973 L763.5458,449.6327 L757.3952,450.5553 L751.1916,450.9706 L745.0158,451.6527 L745.0192,451.6828 L738.6073,452.3585 L732.2108,453.1714 L725.8069,453.9181 L719.4172,454.7911 L712.9812,455.2524 L713.0172,455.5485 L706.461,456.3495 L699.8815,456.9595 L693.3361,457.8491 L686.7922,458.7518 L680.1979,459.2393 L680.1559,458.9216 L673.6085,460.4148 L666.9229,460.8617 L660.3423,462.1041 L653.6535,462.5273 L647.0535,463.622 L647.0491,463.5918 L640.477,464.9055 L633.8032,465.5153 L627.1894,466.5404 L620.5806,467.6004 L613.9355,468.4088 L613.9645,468.5915 L607.3944,469.447 L600.8739,470.6147 L594.2731,471.2773 L587.792,472.6933 L581.2314,473.6084 L581.2726,473.8485 L578.0496,474.3546 L574.8471,474.9798 L571.5496,475.0511 L568.3218,475.5285 L565.1556,476.3656 L565.1065,476.0939 L561.9856,476.9126 L558.8093,477.4251 L555.7134,478.3818 L552.4802,478.5801 L549.3287,479.2292 L549.3,479.0794 L546.2418,479.923 L543.0611,480.1265 L539.9675,480.7852 L536.9591,481.8893 L533.799,482.2002 L533.8374,482.39 L530.827,483.136 L527.6969,483.2918 L524.7167,484.1869 L521.7039,484.921 L518.6149,485.2797 L518.5706,485.0744 L515.6479,485.8758 L512.7107,486.61 L509.802,487.4763 L506.7826,487.8291 L503.825,488.4687 L503.871,488.6691 L500.9003,488.8888 L498.0185,489.4952 L495.2667,490.6666 L492.2756,490.7979 L489.4776,491.7684 L489.5316,491.988 L486.7282,492.5398 L483.9065,493.0173 L481.1261,493.6625 L478.4412,494.6954 L475.6211,495.1797 L475.5871,495.0511 L473.025,496.1388 L470.2315,496.3518 L467.7011,497.5594 L465.0226,498.207 L462.3041,498.7037 L462.3341,498.8084 L459.7641,499.4515 L457.3012,500.4694 L454.7416,501.1486 L452.1415,501.6863 L449.575,502.3416 L449.6103,502.4554 L447.1393,503.0368 L444.8322,504.1468 L442.3397,504.6589 L439.9235,505.417 L437.4822,506.0943 L437.3953,505.8382 L435.1427,506.6975 L432.9947,507.8651 L430.6987,508.5964 L428.3496,509.1711 L426.0741,509.9629 L426.024,509.8288 L423.9051,510.6689 L421.6974,511.2715 L419.7336,512.527 L417.6491,513.4593 L415.3992,513.9485 L415.4888,514.1646 L413.5388,515.0546 L411.4185,515.5339 L409.478,516.4465 L407.4185,517.0723 L405.5058,518.0522 L405.5592,518.1666 L403.7395,518.9962 L401.9842,519.9638 L400.0248,520.4933 L398.23,521.3762 L396.4426,522.2749 L396.5402,522.4462 L393.479,524.2554 L390.1527,525.5999 L387.1343,527.4843 L384.1214,529.3782 L381,531.082 L380.8342,530.8671 L378.3911,533.2927 L375.6604,535.3454 L372.8582,537.3055 L370.2193,539.4773 L367.4758,541.5136 L367.703,541.7444 L364.918,543.8359 L362.6535,546.4563 L360.1841,548.8685 L357.6709,551.2362 L355.1746,553.621 L355.2227,553.6611 L352.9938,556.3186 L350.5223,558.7742 L348.3791,561.503 L346.1388,564.1511 L344.0769,566.9477 L344.1001,566.964 L342.1263,569.7881 L340.1705,572.6248 L338.0233,575.3269 L336.1218,578.2019 L334.1638,581.037 L334.1181,581.0093 L332.6333,584.0492 L330.8266,586.8936 L328.7306,589.5622 L327.1377,592.5365 L325.4158,595.4324 L325.1894,595.3116 L324.0085,598.3416 L322.6136,601.2576 L321.0681,604.0931 L319.1634,606.737 L317.8138,609.6771 L318.0001,609.7655 L316.2205,612.2629 L315.3041,615.1702 L313.8085,617.8025 L312.6725,620.6054 L311.3386,623.3145 L311.4369,623.3564 L310.4581,625.9116 L308.8973,628.2183 L308.3124,630.9416 L307.1174,633.4044 L305.971,635.888 " fill="none" style="stroke: #FFFFFF; stroke-width: 2.0;"/><polygon fill="#FFFFFF" points="304.007,640.831,304.056,640.8811,305.3185,639.3549,306.8682,638.1222,308.3244,636.794,309.473,635.1513,311.0474,633.9438,311.0371,633.9201,309.9522,634.2614,308.919,634.7227,307.9218,635.2673,306.8007,635.5246,305.8531,636.1843,306.0226,636.2574,305.2121,635.0623,304.8964,634.0805,304.641,633.1248,304.0345,632.0176,303.6126,630.9901,303.6354,630.991,303.6809,632.9578,303.8298,634.9288,303.9289,636.8978,304.1232,638.8707,304.007,640.831" style="stroke: #FFFFFF; stroke-width: 2.0;"/><text fill="#FFFFFF" font-family="courier" font-size="20" lengthAdjust="spacingAndGlyphs" textLength="36" x="482" y="515.1895">out</text><!--link FindActorUseCases to SystemsAnalyst--><path d="M1020.23,461.164 L1020.2668,461.2499 L1023.0204,462.2214 L1025.9897,463.6963 L1028.8887,465.0073 L1031.5568,465.7793 L1034.5446,467.2974 L1034.53,467.2661 L1037.3848,468.4945 L1040.3136,469.8807 L1043.2937,471.3764 L1046.0968,472.4944 L1049.1478,474.1414 L1049.2606,474.3601 L1051.9555,475.4068 L1054.9797,477.092 L1058.0441,478.8551 L1060.8747,480.165 L1063.8283,481.7132 L1063.8434,481.7395 L1066.7306,483.3642 L1069.6864,485.1087 L1072.6091,486.7953 L1075.5949,488.5923 L1078.375,490.0297 L1078.5356,490.2809 L1081.3779,492.0996 L1084.1166,493.7563 L1087.007,495.6501 L1089.9044,497.5551 L1092.5767,499.1078 L1092.389,498.848 L1095.4824,501.3236 L1097.9577,502.9437 L1100.9029,505.2142 L1103.3643,506.8149 L1106.2222,508.9646 L1106.2028,508.9411 L1109.0079,511.349 L1111.3596,513.2089 L1113.9789,515.3921 L1116.6206,517.6025 L1119.1004,519.617 L1119.2287,519.7502 L1121.4791,521.9088 L1123.9488,524.2949 L1126.0636,526.3128 L1128.7078,528.88 L1131,531.082 L1131.1837,531.2421 L1133.5566,533.9746 L1136.0207,536.7866 L1138.0611,539.2294 L1140.4121,541.9428 L1143.0383,544.896 L1142.8135,544.7355 L1144.9469,547.5844 L1146.8271,550.2524 L1149.0746,553.1827 L1150.6949,555.6653 L1152.6881,558.414 L1152.5558,558.3382 L1154.2956,561.1182 L1155.4697,563.5744 L1157.0461,566.2609 L1159.0161,569.1727 L1160.2852,571.6832 L1160.4618,571.7627 L1161.7589,574.4307 L1162.5068,576.8517 L1163.9426,579.5821 L1165.2286,582.2452 L1166.1653,584.7511 L1165.967,584.682 L1167.0248,587.3198 L1168.0177,589.935 L1169.1382,592.5947 L1169.7626,595.0815 L1170.6641,597.6649 L1170.8626,597.7184 L1171.1171,600.1622 L1171.7548,602.7094 L1172.9522,605.4074 L1173.1191,607.8276 L1174.1174,610.472 L1174.3385,610.5196 L1174.7558,613.0408 L1175.0983,615.546 L1175.6097,618.0875 L1176.5114,620.713 L1176.8608,623.2196 L1176.73,623.1953 L1177.5932,625.8148 L1177.5669,628.2689 L1178.5521,630.9111 L1178.9678,633.4474 L1179.23,635.9552 L1179.3371,635.9747 L1179.7168,638.5131 L1180.48,641.1214 L1180.8967,643.6666 L1181.1686,646.1853 L1181.5608,648.7259 L1181.6776,648.7498 L1182.0297,651.285 L1182.924,653.931 L1183.2051,656.4517 L1183.7384,659.0239 L1184.1889,661.5792 L1183.9266,661.5133 L1184.6664,664.132 L1185.7221,666.8299 L1186.3308,669.4156 L1186.7792,671.9611 L1187.4499,674.5624 L1187.3136,674.5185 L1188.2032,677.1646 L1188.8515,679.7332 L1190.1633,682.5149 L1191.1467,685.1912 L1191.6797,687.7227 L1191.8959,687.8121 L1193.0719,690.5176 L1193.8372,693.0534 L1195.036,695.7684 L1195.9478,698.3647 L1197.2139,701.1075 L1197.3256,701.1662 L1198.7458,703.8898 L1200.3009,706.6843 L1201.4281,709.254 L1202.9004,712.005 L1204.3882,714.7641 L1204.5531,714.8721 L1206.4291,717.6974 L1207.8576,720.2296 L1209.8062,723.1023 L1211.7638,725.981 L1213.5383,728.7398 L1213.3262,728.5704 L1215.9533,731.7063 L1218.2126,734.5483 L1220.3803,737.3172 L1222.757,740.2531 L1225,743.082 L1225.2319,743.3081 L1226.9164,745.0526 L1229.1321,747.315 L1231.1387,749.3735 L1233.1006,751.3885 L1235.0797,753.4202 L1235.1203,753.4679 L1237.3455,755.3604 L1239.3659,757.0126 L1241.6634,758.99 L1243.8789,760.8713 L1246.245,762.9293 L1246.2617,762.9522 L1248.6392,764.6929 L1251.0295,766.4513 L1253.2819,768.0209 L1255.7115,769.8331 L1258.1003,771.5893 L1258.0715,771.5443 L1260.6686,773.3633 L1263.0625,774.8653 L1265.2736,776.0822 L1267.8026,777.7948 L1270.25,779.3802 " fill="none" style="stroke: #FFFFFF; stroke-width: 2.0;"/><polygon fill="#FFFFFF" points="1274.81,782.0812,1274.8671,782.1219,1273.5548,780.3966,1272.5772,778.9097,1271.4905,777.3451,1270.0457,775.5254,1269.0967,774.0589,1269.0716,774.0524,1269.2408,775.1192,1269.5364,776.2185,1269.9199,777.3404,1270.0005,778.3844,1270.5054,779.5375,1270.5514,779.7163,1269.3574,779.6158,1268.2975,780.0372,1267.2541,780.5222,1266.1154,780.6368,1265.0268,780.9462,1265.0294,780.9688,1266.9822,781.1626,1268.9469,781.4593,1270.9059,781.7064,1272.8759,782.0482,1274.81,782.0812" style="stroke: #FFFFFF; stroke-width: 2.0;"/><!--link Member to Role--><path d="M1306.32,359.481 L1306.4118,359.4981 L1307.423,366.356 L1308.9725,373.3139 L1310.3466,380.2393 L1311.1443,387.0575 L1312.74,394.024 " fill="none" style="stroke: #FFFFFF; stroke-width: 2.0;"/><polygon fill="#FFFFFF" points="1315.16,407.016,1315.2281,407.0323,1315.483,405.068,1316.1373,403.1991,1316.6616,401.2991,1316.758,399.297,1317.4466,397.4363,1317.4253,397.4216,1316.6892,398.2887,1316.0608,399.2296,1315.5073,400.2219,1314.6958,401.0371,1314.2456,402.1004,1314.35,402.2525,1313.1939,401.2869,1312.3427,400.7656,1311.5286,400.2985,1310.4982,399.516,1309.5815,398.8993,1309.6003,398.9122,1310.6885,400.5166,1311.862,402.1797,1312.9943,403.8145,1314.2052,405.5033,1315.16,407.016" style="stroke: #FFFFFF; stroke-width: 2.0;"/><path d="M1314.2456,402.1004 L1314.3374,402.1175 L1313.7715,400.4935 L1313.7438,398.9698 L1313.5409,397.4134 L1312.7614,395.7496 L1312.78,394.2345 " fill="#FFFFFF" style="stroke: #FFFFFF; stroke-width: 2.0;"/><polygon fill="#FFFFFF" points="1303.87,346.29,1303.9344,346.3176,1303.1757,347.5617,1302.7946,348.9673,1302.2905,350.3203,1301.3821,351.5003,1301.0334,352.9198,1301.0148,352.9017,1301.9373,353.8543,1302.9533,354.898,1304.0344,356.0049,1304.8913,356.8937,1306.0622,358.0881,1306.2319,358.1607,1306.4364,356.6795,1307.1362,355.4103,1307.8965,354.1669,1308.3052,352.773,1308.8988,351.4583,1308.9151,351.4742,1307.8854,350.4172,1306.9299,349.4325,1305.9386,348.4129,1305.0157,347.4598,1303.87,346.29" style="stroke: #FFFFFF; stroke-width: 2.0;"/><!--link Role to RequirementRole--><path d="M1323.18,481.254 L1323.4596,481.2733 L1323.3176,491.2011 L1324.8146,501.2419 L1325.7779,511.2459 L1324.9861,521.1288 L1326.5204,531.1722 L1326.7452,541.1253 L1327.4911,551.1143 L1328.5993,561.1283 L1328.4591,571.0562 L1330.8039,581.1555 L1329.9179,591.0319 L1331.1819,601.0566 L1332.7083,611.0995 L1332.7084,621.037 L1333.602,631.0362 L1334.2,641.015 " fill="none" style="stroke: #FFFFFF; stroke-width: 2.0;"/><polygon fill="none" points="1316.2,481.679,1316.2676,481.6975,1317.1868,477.5555,1318.5021,473.5221,1319.6885,469.4532,1320.4507,465.2682,1321.8,461.244,1321.7762,461.2338,1323.3414,465.0821,1325.0265,468.982,1326.7951,472.9177,1328.2762,476.7299,1330.16,480.715,1330.1727,480.8991,1327.3535,480.6982,1324.5715,481.0349,1321.7939,481.4371,1318.99,481.4577,1316.2,481.679" style="stroke: #FFFFFF; stroke-width: 2.0;"/><!--link RequirementRole to SystemsAnalyst--><path d="M1334.33,715.443 L1334.6101,715.4531 L1333.4365,724.9391 L1333.9047,734.4841 L1333.8383,744.0099 L1332.0137,753.4726 L1332.5193,763.0189 L1331.7131,772.5181 L1331.94,782.0544 " fill="none" style="stroke: #FFFFFF; stroke-width: 2.0;"/><polygon fill="none" points="1327.35,714.962,1327.4153,714.9875,1328.7634,710.9648,1330.494,707.0915,1332.1001,703.1695,1333.2965,699.0875,1335.06,695.227,1335.0353,695.2194,1336.1802,699.2327,1337.4499,703.2847,1338.8063,707.3637,1339.8639,711.3499,1341.34,715.466,1341.3466,715.6505,1338.5344,715.1553,1335.7416,715.1986,1332.9512,715.3075,1330.147,715.0343,1327.35,714.962" style="stroke: #FFFFFF; stroke-width: 2.0;"/><text fill="#FFA500" font-family="courier" font-size="15" font-style="italic" lengthAdjust="spacingAndGlyphs" textLength="630" x="425" y="894.1626">Luis Fernández Muñoz - https://www.linkedin.com/in/luisfernandezmunyoz</text><!--
@startuml

skinparam backgroundColor #222222

skinparam default {
    FontSize 20
    FontName courier
    FontStyle normal
    FontColor #white
}
skinparam handwritten true

skinparam shadowing false
skinparam padding 1
skinparam arrow {
    Thickness 2
    Color #white
    FontSize 20
    FontName courier
    FontStyle normal
    FontColor #white
}

skinparam title {
    BorderThickness 5
    BorderColor #orange
    FontSize 30
    FontName arial
    FontStyle bold
    FontColor #orange
 }

skinparam header {
    FontSize 15
    FontName courier
    FontStyle italic
    FontColor #orange
}

skinparam footer {
    FontSize 15
    FontName courier
    FontStyle italic
    FontColor #orange
}

skinparam legend {
    BorderThickness 1
    BorderColor #orange
    backgroundColor #222222
    FontSize 15
    FontName courier
    FontStyle italic
    FontColor #orange
}

skinparam package {
    BorderThickness 3
    BorderColor #white
    BackgroundColor #222222
    FontSize 20
    FontName courier
    FontStyle bold
}

skinparam class {
    BorderThickness 3
    BorderColor #white
    BackgroundColor #222222
    FontSize 20
    FontName courier
    FontStyle bold
    FontColor #white
}

skinparam classAttribute {
    FontSize 15
    FontName courier
    FontStyle normal
    FontColor #white
}

hide circle
hide stereotype

header Universo Santa Tecla - USantaTecla@gmail.com
footer Luis Fernández Muñoz - https://www.linkedin.com/in/luisfernandezmunyoz

skinparam class {
    BorderColor<<artifacts>> #red
    BorderColor<<activities>> #green
    BorderColor<<team>> #blue
    FontColor<<artifacts>> #red
    FontColor<<activities>> #green
    FontColor<<team>> #blue
}

skinparam package {
    BorderColor<<artifacts>> #red
    BorderColor<<activities>> #green
    BorderColor<<team>> #blue
    FontColor<<artifacts>> #red
    FontColor<<activities>> #green
    FontColor<<team>> #blue
}

skinparam classAttribute {
    FontColor<<artifacts>> #red
    FontColor<<activities>> #green
    FontColor<<team>> #blue
}

title Find Actors and Use Case

package activities <<activities>> {
class Activity <<activities>>
class RequirementActivity <<activities>>
class FindActorUseCases <<activities>>
}

package artifacts <<artifacts>> {
  package inputs <<artifacts>> {
    class CharacteriticList <<artifacts>>
    class SuplementaryRequirements <<artifacts>>
    class DomainModel <<artifacts>>
  }
  package outputs <<artifacts>> {
    class UseCaseModel  <<artifacts>>
    class Glosary <<artifacts>>
  }
}

package team <<team>> {
class Member <<team>>
class Role <<team>>
class RequirementRole  <<team>>
class SystemsAnalyst  <<team>>
}

Activity <|- - RequirementActivity
Activity - -> Member

RequirementActivity - -> RequirementRole
RequirementActivity <|- - FindActorUseCases

FindActorUseCases - -> CharacteriticList :in
FindActorUseCases - -> SuplementaryRequirements :in
FindActorUseCases - -> DomainModel :in
FindActorUseCases - -> UseCaseModel :out
FindActorUseCases - -> Glosary :out

FindActorUseCases - -> SystemsAnalyst

Member *- -> Role
Role <|- - RequirementRole
RequirementRole <|- - SystemsAnalyst
@enduml

PlantUML version 1.2019.05(Sat Apr 20 18:45:36 CEST 2019)
(GPL source distribution)
Java Runtime: OpenJDK Runtime Environment
JVM: OpenJDK 64-Bit Server VM
Java Version: 1.8.0_222-b10
Operating System: Windows 10
OS Version: 10.0
Default Encoding: windows-1252
Language: es
Country: ES
--></g></svg>