<?xml version="1.0" encoding="UTF-8" standalone="no"?><svg xmlns="http://www.w3.org/2000/svg" xmlns:xlink="http://www.w3.org/1999/xlink" contentScriptType="application/ecmascript" contentStyleType="text/css" height="411px" preserveAspectRatio="none" style="width:1933px;height:411px;" version="1.1" viewBox="0 0 1933 411" width="1933px" zoomAndPan="magnify"><defs><filter height="300%" id="f1lrbm7vue0e7e" width="300%" x="-1" y="-1"><feGaussianBlur result="blurOut" stdDeviation="2.0"/><feColorMatrix in="blurOut" result="blurOut2" type="matrix" values="0 0 0 0 0 0 0 0 0 0 0 0 0 0 0 0 0 0 .4 0"/><feOffset dx="4.0" dy="4.0" in="blurOut2" result="blurOut3"/><feBlend in="SourceGraphic" in2="blurOut3" mode="normal"/></filter></defs><g><!--class Activity--><rect fill="#FF0000" filter="url(#f1lrbm7vue0e7e)" height="48" id="Activity" style="stroke: #A80036; stroke-width: 1.5;" width="67" x="1432" y="8"/><rect fill="#FF0000" height="32" style="stroke: #A80036; stroke-width: 1.5;" width="67" x="1432" y="8"/><ellipse cx="1447" cy="24" fill="#ADD1B2" rx="11" ry="11" style="stroke: #A80036; stroke-width: 1.0;"/><path d="M1449.7656,19.875 Q1449.9219,19.6563 1450.1094,19.5469 Q1450.2969,19.4375 1450.5156,19.4375 Q1450.8906,19.4375 1451.125,19.6953 Q1451.3594,19.9531 1451.3594,20.5625 L1451.3594,22.0156 Q1451.3594,22.625 1451.125,22.8906 Q1450.8906,23.1563 1450.5156,23.1563 Q1450.1719,23.1563 1449.9688,22.9531 Q1449.7656,22.7656 1449.6563,22.25 Q1449.6094,21.8906 1449.4219,21.7031 Q1449.0938,21.3281 1448.4844,21.1094 Q1447.875,20.8906 1447.25,20.8906 Q1446.4844,20.8906 1445.8516,21.2188 Q1445.2188,21.5469 1444.7266,22.2969 Q1444.2344,23.0469 1444.2344,24.0781 L1444.2344,25.1719 Q1444.2344,26.4063 1445.125,27.2266 Q1446.0156,28.0469 1447.6094,28.0469 Q1448.5469,28.0469 1449.2031,27.7969 Q1449.5938,27.6406 1450.0156,27.2031 Q1450.2813,26.9375 1450.4297,26.8594 Q1450.5781,26.7813 1450.7813,26.7813 Q1451.1094,26.7813 1451.3672,27.0391 Q1451.625,27.2969 1451.625,27.6406 Q1451.625,27.9844 1451.2813,28.3906 Q1450.7813,28.9688 1449.9844,29.2969 Q1448.9063,29.75 1447.6094,29.75 Q1446.0938,29.75 1444.8906,29.125 Q1443.9063,28.625 1443.2188,27.5547 Q1442.5313,26.4844 1442.5313,25.2031 L1442.5313,24.0469 Q1442.5313,22.7188 1443.1484,21.5703 Q1443.7656,20.4219 1444.8594,19.8047 Q1445.9531,19.1875 1447.1875,19.1875 Q1447.9219,19.1875 1448.5703,19.3516 Q1449.2188,19.5156 1449.7656,19.875 Z "/><text fill="#000000" font-family="sans-serif" font-size="12" lengthAdjust="spacingAndGlyphs" textLength="35" x="1461" y="28.9102">Activity</text><line style="stroke: #A80036; stroke-width: 1.5;" x1="1433" x2="1498" y1="40" y2="40"/><line style="stroke: #A80036; stroke-width: 1.5;" x1="1433" x2="1498" y1="48" y2="48"/><!--class ImplementationActivity--><rect fill="#FF0000" filter="url(#f1lrbm7vue0e7e)" height="48" id="ImplementationActivity" style="stroke: #A80036; stroke-width: 1.5;" width="153" x="1319" y="117"/><rect fill="#FF0000" height="32" style="stroke: #A80036; stroke-width: 1.5;" width="153" x="1319" y="117"/><ellipse cx="1334" cy="133" fill="#ADD1B2" rx="11" ry="11" style="stroke: #A80036; stroke-width: 1.0;"/><path d="M1336.7656,128.875 Q1336.9219,128.6563 1337.1094,128.5469 Q1337.2969,128.4375 1337.5156,128.4375 Q1337.8906,128.4375 1338.125,128.6953 Q1338.3594,128.9531 1338.3594,129.5625 L1338.3594,131.0156 Q1338.3594,131.625 1338.125,131.8906 Q1337.8906,132.1563 1337.5156,132.1563 Q1337.1719,132.1563 1336.9688,131.9531 Q1336.7656,131.7656 1336.6563,131.25 Q1336.6094,130.8906 1336.4219,130.7031 Q1336.0938,130.3281 1335.4844,130.1094 Q1334.875,129.8906 1334.25,129.8906 Q1333.4844,129.8906 1332.8516,130.2188 Q1332.2188,130.5469 1331.7266,131.2969 Q1331.2344,132.0469 1331.2344,133.0781 L1331.2344,134.1719 Q1331.2344,135.4063 1332.125,136.2266 Q1333.0156,137.0469 1334.6094,137.0469 Q1335.5469,137.0469 1336.2031,136.7969 Q1336.5938,136.6406 1337.0156,136.2031 Q1337.2813,135.9375 1337.4297,135.8594 Q1337.5781,135.7813 1337.7813,135.7813 Q1338.1094,135.7813 1338.3672,136.0391 Q1338.625,136.2969 1338.625,136.6406 Q1338.625,136.9844 1338.2813,137.3906 Q1337.7813,137.9688 1336.9844,138.2969 Q1335.9063,138.75 1334.6094,138.75 Q1333.0938,138.75 1331.8906,138.125 Q1330.9063,137.625 1330.2188,136.5547 Q1329.5313,135.4844 1329.5313,134.2031 L1329.5313,133.0469 Q1329.5313,131.7188 1330.1484,130.5703 Q1330.7656,129.4219 1331.8594,128.8047 Q1332.9531,128.1875 1334.1875,128.1875 Q1334.9219,128.1875 1335.5703,128.3516 Q1336.2188,128.5156 1336.7656,128.875 Z "/><text fill="#000000" font-family="sans-serif" font-size="12" lengthAdjust="spacingAndGlyphs" textLength="121" x="1348" y="137.9102">ImplementationActivity</text><line style="stroke: #A80036; stroke-width: 1.5;" x1="1320" x2="1471" y1="149" y2="149"/><line style="stroke: #A80036; stroke-width: 1.5;" x1="1320" x2="1471" y1="157" y2="157"/><!--class Role--><rect fill="#0000FF" filter="url(#f1lrbm7vue0e7e)" height="48" id="Role" style="stroke: #A80036; stroke-width: 1.5;" width="58" x="1507.5" y="117"/><rect fill="#0000FF" height="32" style="stroke: #A80036; stroke-width: 1.5;" width="58" x="1507.5" y="117"/><ellipse cx="1522.5" cy="133" fill="#ADD1B2" rx="11" ry="11" style="stroke: #A80036; stroke-width: 1.0;"/><path d="M1525.2656,128.875 Q1525.4219,128.6563 1525.6094,128.5469 Q1525.7969,128.4375 1526.0156,128.4375 Q1526.3906,128.4375 1526.625,128.6953 Q1526.8594,128.9531 1526.8594,129.5625 L1526.8594,131.0156 Q1526.8594,131.625 1526.625,131.8906 Q1526.3906,132.1563 1526.0156,132.1563 Q1525.6719,132.1563 1525.4688,131.9531 Q1525.2656,131.7656 1525.1563,131.25 Q1525.1094,130.8906 1524.9219,130.7031 Q1524.5938,130.3281 1523.9844,130.1094 Q1523.375,129.8906 1522.75,129.8906 Q1521.9844,129.8906 1521.3516,130.2188 Q1520.7188,130.5469 1520.2266,131.2969 Q1519.7344,132.0469 1519.7344,133.0781 L1519.7344,134.1719 Q1519.7344,135.4063 1520.625,136.2266 Q1521.5156,137.0469 1523.1094,137.0469 Q1524.0469,137.0469 1524.7031,136.7969 Q1525.0938,136.6406 1525.5156,136.2031 Q1525.7813,135.9375 1525.9297,135.8594 Q1526.0781,135.7813 1526.2813,135.7813 Q1526.6094,135.7813 1526.8672,136.0391 Q1527.125,136.2969 1527.125,136.6406 Q1527.125,136.9844 1526.7813,137.3906 Q1526.2813,137.9688 1525.4844,138.2969 Q1524.4063,138.75 1523.1094,138.75 Q1521.5938,138.75 1520.3906,138.125 Q1519.4063,137.625 1518.7188,136.5547 Q1518.0313,135.4844 1518.0313,134.2031 L1518.0313,133.0469 Q1518.0313,131.7188 1518.6484,130.5703 Q1519.2656,129.4219 1520.3594,128.8047 Q1521.4531,128.1875 1522.6875,128.1875 Q1523.4219,128.1875 1524.0703,128.3516 Q1524.7188,128.5156 1525.2656,128.875 Z "/><text fill="#000000" font-family="sans-serif" font-size="12" lengthAdjust="spacingAndGlyphs" textLength="26" x="1536.5" y="137.9102">Role</text><line style="stroke: #A80036; stroke-width: 1.5;" x1="1508.5" x2="1564.5" y1="149" y2="149"/><line style="stroke: #A80036; stroke-width: 1.5;" x1="1508.5" x2="1564.5" y1="157" y2="157"/><!--class IntegrationPlanConstructions--><rect fill="#008000" filter="url(#f1lrbm7vue0e7e)" height="48" id="IntegrationPlanConstructions" style="stroke: #A80036; stroke-width: 1.5;" width="211" x="6" y="352"/><rect fill="#008000" height="32" style="stroke: #A80036; stroke-width: 1.5;" width="211" x="6" y="352"/><ellipse cx="21" cy="368" fill="#ADD1B2" rx="11" ry="11" style="stroke: #A80036; stroke-width: 1.0;"/><path d="M23.7656,363.875 Q23.9219,363.6563 24.1094,363.5469 Q24.2969,363.4375 24.5156,363.4375 Q24.8906,363.4375 25.125,363.6953 Q25.3594,363.9531 25.3594,364.5625 L25.3594,366.0156 Q25.3594,366.625 25.125,366.8906 Q24.8906,367.1563 24.5156,367.1563 Q24.1719,367.1563 23.9688,366.9531 Q23.7656,366.7656 23.6563,366.25 Q23.6094,365.8906 23.4219,365.7031 Q23.0938,365.3281 22.4844,365.1094 Q21.875,364.8906 21.25,364.8906 Q20.4844,364.8906 19.8516,365.2188 Q19.2188,365.5469 18.7266,366.2969 Q18.2344,367.0469 18.2344,368.0781 L18.2344,369.1719 Q18.2344,370.4063 19.125,371.2266 Q20.0156,372.0469 21.6094,372.0469 Q22.5469,372.0469 23.2031,371.7969 Q23.5938,371.6406 24.0156,371.2031 Q24.2813,370.9375 24.4297,370.8594 Q24.5781,370.7813 24.7813,370.7813 Q25.1094,370.7813 25.3672,371.0391 Q25.625,371.2969 25.625,371.6406 Q25.625,371.9844 25.2813,372.3906 Q24.7813,372.9688 23.9844,373.2969 Q22.9063,373.75 21.6094,373.75 Q20.0938,373.75 18.8906,373.125 Q17.9063,372.625 17.2188,371.5547 Q16.5313,370.4844 16.5313,369.2031 L16.5313,368.0469 Q16.5313,366.7188 17.1484,365.5703 Q17.7656,364.4219 18.8594,363.8047 Q19.9531,363.1875 21.1875,363.1875 Q21.9219,363.1875 22.5703,363.3516 Q23.2188,363.5156 23.7656,363.875 Z "/><text fill="#000000" font-family="sans-serif" font-size="12" lengthAdjust="spacingAndGlyphs" textLength="179" x="35" y="372.9102">Integration Plan of Constructions</text><line style="stroke: #A80036; stroke-width: 1.5;" x1="7" x2="216" y1="384" y2="384"/><line style="stroke: #A80036; stroke-width: 1.5;" x1="7" x2="216" y1="392" y2="392"/><!--class ArchitectureDescription--><rect fill="#008000" filter="url(#f1lrbm7vue0e7e)" height="48" id="ArchitectureDescription" style="stroke: #A80036; stroke-width: 1.5;" width="332" x="252.5" y="352"/><rect fill="#008000" height="32" style="stroke: #A80036; stroke-width: 1.5;" width="332" x="252.5" y="352"/><ellipse cx="267.5" cy="368" fill="#ADD1B2" rx="11" ry="11" style="stroke: #A80036; stroke-width: 1.0;"/><path d="M270.2656,363.875 Q270.4219,363.6563 270.6094,363.5469 Q270.7969,363.4375 271.0156,363.4375 Q271.3906,363.4375 271.625,363.6953 Q271.8594,363.9531 271.8594,364.5625 L271.8594,366.0156 Q271.8594,366.625 271.625,366.8906 Q271.3906,367.1563 271.0156,367.1563 Q270.6719,367.1563 270.4688,366.9531 Q270.2656,366.7656 270.1563,366.25 Q270.1094,365.8906 269.9219,365.7031 Q269.5938,365.3281 268.9844,365.1094 Q268.375,364.8906 267.75,364.8906 Q266.9844,364.8906 266.3516,365.2188 Q265.7188,365.5469 265.2266,366.2969 Q264.7344,367.0469 264.7344,368.0781 L264.7344,369.1719 Q264.7344,370.4063 265.625,371.2266 Q266.5156,372.0469 268.1094,372.0469 Q269.0469,372.0469 269.7031,371.7969 Q270.0938,371.6406 270.5156,371.2031 Q270.7813,370.9375 270.9297,370.8594 Q271.0781,370.7813 271.2813,370.7813 Q271.6094,370.7813 271.8672,371.0391 Q272.125,371.2969 272.125,371.6406 Q272.125,371.9844 271.7813,372.3906 Q271.2813,372.9688 270.4844,373.2969 Q269.4063,373.75 268.1094,373.75 Q266.5938,373.75 265.3906,373.125 Q264.4063,372.625 263.7188,371.5547 Q263.0313,370.4844 263.0313,369.2031 L263.0313,368.0469 Q263.0313,366.7188 263.6484,365.5703 Q264.2656,364.4219 265.3594,363.8047 Q266.4531,363.1875 267.6875,363.1875 Q268.4219,363.1875 269.0703,363.3516 Q269.7188,363.5156 270.2656,363.875 Z "/><text fill="#000000" font-family="sans-serif" font-size="12" lengthAdjust="spacingAndGlyphs" textLength="300" x="281.5" y="372.9102">Architecture Description(Model view of implementation)</text><line style="stroke: #A80036; stroke-width: 1.5;" x1="253.5" x2="583.5" y1="384" y2="384"/><line style="stroke: #A80036; stroke-width: 1.5;" x1="253.5" x2="583.5" y1="392" y2="392"/><!--class SubsystemDesign--><rect fill="#008000" filter="url(#f1lrbm7vue0e7e)" height="48" id="SubsystemDesign" style="stroke: #A80036; stroke-width: 1.5;" width="200" x="619.5" y="352"/><rect fill="#008000" height="32" style="stroke: #A80036; stroke-width: 1.5;" width="200" x="619.5" y="352"/><ellipse cx="634.5" cy="368" fill="#ADD1B2" rx="11" ry="11" style="stroke: #A80036; stroke-width: 1.0;"/><path d="M637.2656,363.875 Q637.4219,363.6563 637.6094,363.5469 Q637.7969,363.4375 638.0156,363.4375 Q638.3906,363.4375 638.625,363.6953 Q638.8594,363.9531 638.8594,364.5625 L638.8594,366.0156 Q638.8594,366.625 638.625,366.8906 Q638.3906,367.1563 638.0156,367.1563 Q637.6719,367.1563 637.4688,366.9531 Q637.2656,366.7656 637.1563,366.25 Q637.1094,365.8906 636.9219,365.7031 Q636.5938,365.3281 635.9844,365.1094 Q635.375,364.8906 634.75,364.8906 Q633.9844,364.8906 633.3516,365.2188 Q632.7188,365.5469 632.2266,366.2969 Q631.7344,367.0469 631.7344,368.0781 L631.7344,369.1719 Q631.7344,370.4063 632.625,371.2266 Q633.5156,372.0469 635.1094,372.0469 Q636.0469,372.0469 636.7031,371.7969 Q637.0938,371.6406 637.5156,371.2031 Q637.7813,370.9375 637.9297,370.8594 Q638.0781,370.7813 638.2813,370.7813 Q638.6094,370.7813 638.8672,371.0391 Q639.125,371.2969 639.125,371.6406 Q639.125,371.9844 638.7813,372.3906 Q638.2813,372.9688 637.4844,373.2969 Q636.4063,373.75 635.1094,373.75 Q633.5938,373.75 632.3906,373.125 Q631.4063,372.625 630.7188,371.5547 Q630.0313,370.4844 630.0313,369.2031 L630.0313,368.0469 Q630.0313,366.7188 630.6484,365.5703 Q631.2656,364.4219 632.3594,363.8047 Q633.4531,363.1875 634.6875,363.1875 Q635.4219,363.1875 636.0703,363.3516 Q636.7188,363.5156 637.2656,363.875 Z "/><text fill="#000000" font-family="sans-serif" font-size="12" lengthAdjust="spacingAndGlyphs" textLength="168" x="648.5" y="372.9102">Subsystem Design (designed)</text><line style="stroke: #A80036; stroke-width: 1.5;" x1="620.5" x2="818.5" y1="384" y2="384"/><line style="stroke: #A80036; stroke-width: 1.5;" x1="620.5" x2="818.5" y1="392" y2="392"/><!--class Interface--><rect fill="#008000" filter="url(#f1lrbm7vue0e7e)" height="48" id="Interface" style="stroke: #A80036; stroke-width: 1.5;" width="142" x="854.5" y="352"/><rect fill="#008000" height="32" style="stroke: #A80036; stroke-width: 1.5;" width="142" x="854.5" y="352"/><ellipse cx="869.5" cy="368" fill="#ADD1B2" rx="11" ry="11" style="stroke: #A80036; stroke-width: 1.0;"/><path d="M872.2656,363.875 Q872.4219,363.6563 872.6094,363.5469 Q872.7969,363.4375 873.0156,363.4375 Q873.3906,363.4375 873.625,363.6953 Q873.8594,363.9531 873.8594,364.5625 L873.8594,366.0156 Q873.8594,366.625 873.625,366.8906 Q873.3906,367.1563 873.0156,367.1563 Q872.6719,367.1563 872.4688,366.9531 Q872.2656,366.7656 872.1563,366.25 Q872.1094,365.8906 871.9219,365.7031 Q871.5938,365.3281 870.9844,365.1094 Q870.375,364.8906 869.75,364.8906 Q868.9844,364.8906 868.3516,365.2188 Q867.7188,365.5469 867.2266,366.2969 Q866.7344,367.0469 866.7344,368.0781 L866.7344,369.1719 Q866.7344,370.4063 867.625,371.2266 Q868.5156,372.0469 870.1094,372.0469 Q871.0469,372.0469 871.7031,371.7969 Q872.0938,371.6406 872.5156,371.2031 Q872.7813,370.9375 872.9297,370.8594 Q873.0781,370.7813 873.2813,370.7813 Q873.6094,370.7813 873.8672,371.0391 Q874.125,371.2969 874.125,371.6406 Q874.125,371.9844 873.7813,372.3906 Q873.2813,372.9688 872.4844,373.2969 Q871.4063,373.75 870.1094,373.75 Q868.5938,373.75 867.3906,373.125 Q866.4063,372.625 865.7188,371.5547 Q865.0313,370.4844 865.0313,369.2031 L865.0313,368.0469 Q865.0313,366.7188 865.6484,365.5703 Q866.2656,364.4219 867.3594,363.8047 Q868.4531,363.1875 869.6875,363.1875 Q870.4219,363.1875 871.0703,363.3516 Q871.7188,363.5156 872.2656,363.875 Z "/><text fill="#000000" font-family="sans-serif" font-size="12" lengthAdjust="spacingAndGlyphs" textLength="110" x="883.5" y="372.9102">Interface (designed)</text><line style="stroke: #A80036; stroke-width: 1.5;" x1="855.5" x2="995.5" y1="384" y2="384"/><line style="stroke: #A80036; stroke-width: 1.5;" x1="855.5" x2="995.5" y1="392" y2="392"/><!--class SubsystemImplementation--><rect fill="#008000" filter="url(#f1lrbm7vue0e7e)" height="48" id="SubsystemImplementation" style="stroke: #A80036; stroke-width: 1.5;" width="377" x="1032" y="352"/><rect fill="#008000" height="32" style="stroke: #A80036; stroke-width: 1.5;" width="377" x="1032" y="352"/><ellipse cx="1047" cy="368" fill="#ADD1B2" rx="11" ry="11" style="stroke: #A80036; stroke-width: 1.0;"/><path d="M1049.7656,363.875 Q1049.9219,363.6563 1050.1094,363.5469 Q1050.2969,363.4375 1050.5156,363.4375 Q1050.8906,363.4375 1051.125,363.6953 Q1051.3594,363.9531 1051.3594,364.5625 L1051.3594,366.0156 Q1051.3594,366.625 1051.125,366.8906 Q1050.8906,367.1563 1050.5156,367.1563 Q1050.1719,367.1563 1049.9688,366.9531 Q1049.7656,366.7656 1049.6563,366.25 Q1049.6094,365.8906 1049.4219,365.7031 Q1049.0938,365.3281 1048.4844,365.1094 Q1047.875,364.8906 1047.25,364.8906 Q1046.4844,364.8906 1045.8516,365.2188 Q1045.2188,365.5469 1044.7266,366.2969 Q1044.2344,367.0469 1044.2344,368.0781 L1044.2344,369.1719 Q1044.2344,370.4063 1045.125,371.2266 Q1046.0156,372.0469 1047.6094,372.0469 Q1048.5469,372.0469 1049.2031,371.7969 Q1049.5938,371.6406 1050.0156,371.2031 Q1050.2813,370.9375 1050.4297,370.8594 Q1050.5781,370.7813 1050.7813,370.7813 Q1051.1094,370.7813 1051.3672,371.0391 Q1051.625,371.2969 1051.625,371.6406 Q1051.625,371.9844 1051.2813,372.3906 Q1050.7813,372.9688 1049.9844,373.2969 Q1048.9063,373.75 1047.6094,373.75 Q1046.0938,373.75 1044.8906,373.125 Q1043.9063,372.625 1043.2188,371.5547 Q1042.5313,370.4844 1042.5313,369.2031 L1042.5313,368.0469 Q1042.5313,366.7188 1043.1484,365.5703 Q1043.7656,364.4219 1044.8594,363.8047 Q1045.9531,363.1875 1047.1875,363.1875 Q1047.9219,363.1875 1048.5703,363.3516 Q1049.2188,363.5156 1049.7656,363.875 Z "/><text fill="#000000" font-family="sans-serif" font-size="12" lengthAdjust="spacingAndGlyphs" textLength="345" x="1061" y="372.9102">Subsystem Implementation (implementation for a construction)</text><line style="stroke: #A80036; stroke-width: 1.5;" x1="1033" x2="1408" y1="384" y2="384"/><line style="stroke: #A80036; stroke-width: 1.5;" x1="1033" x2="1408" y1="392" y2="392"/><!--class InterfaceX--><rect fill="#008000" filter="url(#f1lrbm7vue0e7e)" height="48" id="InterfaceX" style="stroke: #A80036; stroke-width: 1.5;" width="273" x="1444" y="352"/><rect fill="#008000" height="32" style="stroke: #A80036; stroke-width: 1.5;" width="273" x="1444" y="352"/><ellipse cx="1459" cy="368" fill="#ADD1B2" rx="11" ry="11" style="stroke: #A80036; stroke-width: 1.0;"/><path d="M1461.7656,363.875 Q1461.9219,363.6563 1462.1094,363.5469 Q1462.2969,363.4375 1462.5156,363.4375 Q1462.8906,363.4375 1463.125,363.6953 Q1463.3594,363.9531 1463.3594,364.5625 L1463.3594,366.0156 Q1463.3594,366.625 1463.125,366.8906 Q1462.8906,367.1563 1462.5156,367.1563 Q1462.1719,367.1563 1461.9688,366.9531 Q1461.7656,366.7656 1461.6563,366.25 Q1461.6094,365.8906 1461.4219,365.7031 Q1461.0938,365.3281 1460.4844,365.1094 Q1459.875,364.8906 1459.25,364.8906 Q1458.4844,364.8906 1457.8516,365.2188 Q1457.2188,365.5469 1456.7266,366.2969 Q1456.2344,367.0469 1456.2344,368.0781 L1456.2344,369.1719 Q1456.2344,370.4063 1457.125,371.2266 Q1458.0156,372.0469 1459.6094,372.0469 Q1460.5469,372.0469 1461.2031,371.7969 Q1461.5938,371.6406 1462.0156,371.2031 Q1462.2813,370.9375 1462.4297,370.8594 Q1462.5781,370.7813 1462.7813,370.7813 Q1463.1094,370.7813 1463.3672,371.0391 Q1463.625,371.2969 1463.625,371.6406 Q1463.625,371.9844 1463.2813,372.3906 Q1462.7813,372.9688 1461.9844,373.2969 Q1460.9063,373.75 1459.6094,373.75 Q1458.0938,373.75 1456.8906,373.125 Q1455.9063,372.625 1455.2188,371.5547 Q1454.5313,370.4844 1454.5313,369.2031 L1454.5313,368.0469 Q1454.5313,366.7188 1455.1484,365.5703 Q1455.7656,364.4219 1456.8594,363.8047 Q1457.9531,363.1875 1459.1875,363.1875 Q1459.9219,363.1875 1460.5703,363.3516 Q1461.2188,363.5156 1461.7656,363.875 Z "/><text fill="#000000" font-family="sans-serif" font-size="12" lengthAdjust="spacingAndGlyphs" textLength="241" x="1473" y="372.9102">Interface (implementation for a construction)</text><line style="stroke: #A80036; stroke-width: 1.5;" x1="1445" x2="1716" y1="384" y2="384"/><line style="stroke: #A80036; stroke-width: 1.5;" x1="1445" x2="1716" y1="392" y2="392"/><!--class ImplementationRole--><rect fill="#0000FF" filter="url(#f1lrbm7vue0e7e)" height="48" id="ImplementationRole" style="stroke: #A80036; stroke-width: 1.5;" width="144" x="1464.5" y="226"/><rect fill="#0000FF" height="32" style="stroke: #A80036; stroke-width: 1.5;" width="144" x="1464.5" y="226"/><ellipse cx="1479.5" cy="242" fill="#ADD1B2" rx="11" ry="11" style="stroke: #A80036; stroke-width: 1.0;"/><path d="M1482.2656,237.875 Q1482.4219,237.6563 1482.6094,237.5469 Q1482.7969,237.4375 1483.0156,237.4375 Q1483.3906,237.4375 1483.625,237.6953 Q1483.8594,237.9531 1483.8594,238.5625 L1483.8594,240.0156 Q1483.8594,240.625 1483.625,240.8906 Q1483.3906,241.1563 1483.0156,241.1563 Q1482.6719,241.1563 1482.4688,240.9531 Q1482.2656,240.7656 1482.1563,240.25 Q1482.1094,239.8906 1481.9219,239.7031 Q1481.5938,239.3281 1480.9844,239.1094 Q1480.375,238.8906 1479.75,238.8906 Q1478.9844,238.8906 1478.3516,239.2188 Q1477.7188,239.5469 1477.2266,240.2969 Q1476.7344,241.0469 1476.7344,242.0781 L1476.7344,243.1719 Q1476.7344,244.4063 1477.625,245.2266 Q1478.5156,246.0469 1480.1094,246.0469 Q1481.0469,246.0469 1481.7031,245.7969 Q1482.0938,245.6406 1482.5156,245.2031 Q1482.7813,244.9375 1482.9297,244.8594 Q1483.0781,244.7813 1483.2813,244.7813 Q1483.6094,244.7813 1483.8672,245.0391 Q1484.125,245.2969 1484.125,245.6406 Q1484.125,245.9844 1483.7813,246.3906 Q1483.2813,246.9688 1482.4844,247.2969 Q1481.4063,247.75 1480.1094,247.75 Q1478.5938,247.75 1477.3906,247.125 Q1476.4063,246.625 1475.7188,245.5547 Q1475.0313,244.4844 1475.0313,243.2031 L1475.0313,242.0469 Q1475.0313,240.7188 1475.6484,239.5703 Q1476.2656,238.4219 1477.3594,237.8047 Q1478.4531,237.1875 1479.6875,237.1875 Q1480.4219,237.1875 1481.0703,237.3516 Q1481.7188,237.5156 1482.2656,237.875 Z "/><text fill="#000000" font-family="sans-serif" font-size="12" lengthAdjust="spacingAndGlyphs" textLength="112" x="1493.5" y="246.9102">ImplementationRole</text><line style="stroke: #A80036; stroke-width: 1.5;" x1="1465.5" x2="1607.5" y1="258" y2="258"/><line style="stroke: #A80036; stroke-width: 1.5;" x1="1465.5" x2="1607.5" y1="266" y2="266"/><!--class ImplementSubsystems--><rect fill="#FF0000" filter="url(#f1lrbm7vue0e7e)" height="48" id="ImplementSubsystems" style="stroke: #A80036; stroke-width: 1.5;" width="163" x="991" y="226"/><rect fill="#FF0000" height="32" style="stroke: #A80036; stroke-width: 1.5;" width="163" x="991" y="226"/><ellipse cx="1006" cy="242" fill="#ADD1B2" rx="11" ry="11" style="stroke: #A80036; stroke-width: 1.0;"/><path d="M1008.7656,237.875 Q1008.9219,237.6563 1009.1094,237.5469 Q1009.2969,237.4375 1009.5156,237.4375 Q1009.8906,237.4375 1010.125,237.6953 Q1010.3594,237.9531 1010.3594,238.5625 L1010.3594,240.0156 Q1010.3594,240.625 1010.125,240.8906 Q1009.8906,241.1563 1009.5156,241.1563 Q1009.1719,241.1563 1008.9688,240.9531 Q1008.7656,240.7656 1008.6563,240.25 Q1008.6094,239.8906 1008.4219,239.7031 Q1008.0938,239.3281 1007.4844,239.1094 Q1006.875,238.8906 1006.25,238.8906 Q1005.4844,238.8906 1004.8516,239.2188 Q1004.2188,239.5469 1003.7266,240.2969 Q1003.2344,241.0469 1003.2344,242.0781 L1003.2344,243.1719 Q1003.2344,244.4063 1004.125,245.2266 Q1005.0156,246.0469 1006.6094,246.0469 Q1007.5469,246.0469 1008.2031,245.7969 Q1008.5938,245.6406 1009.0156,245.2031 Q1009.2813,244.9375 1009.4297,244.8594 Q1009.5781,244.7813 1009.7813,244.7813 Q1010.1094,244.7813 1010.3672,245.0391 Q1010.625,245.2969 1010.625,245.6406 Q1010.625,245.9844 1010.2813,246.3906 Q1009.7813,246.9688 1008.9844,247.2969 Q1007.9063,247.75 1006.6094,247.75 Q1005.0938,247.75 1003.8906,247.125 Q1002.9063,246.625 1002.2188,245.5547 Q1001.5313,244.4844 1001.5313,243.2031 L1001.5313,242.0469 Q1001.5313,240.7188 1002.1484,239.5703 Q1002.7656,238.4219 1003.8594,237.8047 Q1004.9531,237.1875 1006.1875,237.1875 Q1006.9219,237.1875 1007.5703,237.3516 Q1008.2188,237.5156 1008.7656,237.875 Z "/><text fill="#000000" font-family="sans-serif" font-size="12" lengthAdjust="spacingAndGlyphs" textLength="131" x="1020" y="246.9102">Implement Subsystems</text><line style="stroke: #A80036; stroke-width: 1.5;" x1="992" x2="1153" y1="258" y2="258"/><line style="stroke: #A80036; stroke-width: 1.5;" x1="992" x2="1153" y1="266" y2="266"/><!--class EngineerComponents--><rect fill="#0000FF" filter="url(#f1lrbm7vue0e7e)" height="48" id="EngineerComponents" style="stroke: #A80036; stroke-width: 1.5;" width="170" x="1752.5" y="352"/><rect fill="#0000FF" height="32" style="stroke: #A80036; stroke-width: 1.5;" width="170" x="1752.5" y="352"/><ellipse cx="1767.5" cy="368" fill="#ADD1B2" rx="11" ry="11" style="stroke: #A80036; stroke-width: 1.0;"/><path d="M1770.2656,363.875 Q1770.4219,363.6563 1770.6094,363.5469 Q1770.7969,363.4375 1771.0156,363.4375 Q1771.3906,363.4375 1771.625,363.6953 Q1771.8594,363.9531 1771.8594,364.5625 L1771.8594,366.0156 Q1771.8594,366.625 1771.625,366.8906 Q1771.3906,367.1563 1771.0156,367.1563 Q1770.6719,367.1563 1770.4688,366.9531 Q1770.2656,366.7656 1770.1563,366.25 Q1770.1094,365.8906 1769.9219,365.7031 Q1769.5938,365.3281 1768.9844,365.1094 Q1768.375,364.8906 1767.75,364.8906 Q1766.9844,364.8906 1766.3516,365.2188 Q1765.7188,365.5469 1765.2266,366.2969 Q1764.7344,367.0469 1764.7344,368.0781 L1764.7344,369.1719 Q1764.7344,370.4063 1765.625,371.2266 Q1766.5156,372.0469 1768.1094,372.0469 Q1769.0469,372.0469 1769.7031,371.7969 Q1770.0938,371.6406 1770.5156,371.2031 Q1770.7813,370.9375 1770.9297,370.8594 Q1771.0781,370.7813 1771.2813,370.7813 Q1771.6094,370.7813 1771.8672,371.0391 Q1772.125,371.2969 1772.125,371.6406 Q1772.125,371.9844 1771.7813,372.3906 Q1771.2813,372.9688 1770.4844,373.2969 Q1769.4063,373.75 1768.1094,373.75 Q1766.5938,373.75 1765.3906,373.125 Q1764.4063,372.625 1763.7188,371.5547 Q1763.0313,370.4844 1763.0313,369.2031 L1763.0313,368.0469 Q1763.0313,366.7188 1763.6484,365.5703 Q1764.2656,364.4219 1765.3594,363.8047 Q1766.4531,363.1875 1767.6875,363.1875 Q1768.4219,363.1875 1769.0703,363.3516 Q1769.7188,363.5156 1770.2656,363.875 Z "/><text fill="#000000" font-family="sans-serif" font-size="12" lengthAdjust="spacingAndGlyphs" textLength="138" x="1781.5" y="372.9102">Engineer of Components</text><line style="stroke: #A80036; stroke-width: 1.5;" x1="1753.5" x2="1921.5" y1="384" y2="384"/><line style="stroke: #A80036; stroke-width: 1.5;" x1="1753.5" x2="1921.5" y1="392" y2="392"/><!--link Activity to ImplementationActivity--><path d="M1439.23,73.153 C1429.59,87.893 1419,104.076 1410.66,116.828 " fill="none" id="Activity-ImplementationActivity" style="stroke: #A80036; stroke-width: 1.0;"/><polygon fill="none" points="1433.5,69.122,1450.31,56.217,1445.22,76.786,1433.5,69.122" style="stroke: #A80036; stroke-width: 1.0;"/><!--link Activity to Role--><path d="M1480.91,56.217 C1491.88,72.763 1506.69,95.07 1518.26,112.506 " fill="none" id="Activity-Role" style="stroke: #A80036; stroke-width: 1.0;"/><polygon fill="#A80036" points="1521.12,116.828,1519.4828,107.1162,1518.358,112.6601,1512.8141,111.5353,1521.12,116.828" style="stroke: #A80036; stroke-width: 1.0;"/><!--link ImplementationActivity to ImplementationRole--><path d="M1426.09,165.217 C1448.36,182.113 1478.54,205.017 1501.72,222.608 " fill="none" id="ImplementationActivity-ImplementationRole" style="stroke: #A80036; stroke-width: 1.0;"/><polygon fill="#A80036" points="1505.96,225.828,1501.2171,217.1964,1501.98,222.8016,1496.3748,223.5645,1505.96,225.828" style="stroke: #A80036; stroke-width: 1.0;"/><!--link ImplementationActivity to ImplementSubsystems--><path d="M1306.61,171.448 C1254.72,188.635 1190.22,210.004 1142.06,225.956 " fill="none" id="ImplementationActivity-ImplementSubsystems" style="stroke: #A80036; stroke-width: 1.0;"/><polygon fill="none" points="1304.62,164.73,1325.81,165.086,1309.03,178.02,1304.62,164.73" style="stroke: #A80036; stroke-width: 1.0;"/><!--link ImplementSubsystems to IntegrationPlanConstructions--><path d="M990.776,259.069 C840.597,274.293 510.783,309.5649 234.5,352 C230.41,352.6282 226.248,353.2902 222.047,353.9775 " fill="none" id="ImplementSubsystems-IntegrationPlanConstructions" style="stroke: #A80036; stroke-width: 1.0;"/><polygon fill="#A80036" points="217.099,354.7955,226.631,357.2736,222.032,353.9798,225.3258,349.3808,217.099,354.7955" style="stroke: #A80036; stroke-width: 1.0;"/><text fill="#000000" font-family="sans-serif" font-size="13" lengthAdjust="spacingAndGlyphs" textLength="10" x="580.5" y="318.4951">in</text><!--link ImplementSubsystems to ArchitectureDescription--><path d="M990.993,266.454 C879.092,287.671 676.807,326.0244 545.105,350.9953 " fill="none" id="ImplementSubsystems-ArchitectureDescription" style="stroke: #A80036; stroke-width: 1.0;"/><polygon fill="#A80036" points="540.06,351.9519,549.6476,354.2053,544.9725,351.0205,548.1573,346.3453,540.06,351.9519" style="stroke: #A80036; stroke-width: 1.0;"/><text fill="#000000" font-family="sans-serif" font-size="13" lengthAdjust="spacingAndGlyphs" textLength="10" x="786.5" y="318.4951">in</text><!--link ImplementSubsystems to SubsystemDesign--><path d="M1006.93,274.033 C945.233,295.706 853.124,328.0613 789.899,350.2708 " fill="none" id="ImplementSubsystems-SubsystemDesign" style="stroke: #A80036; stroke-width: 1.0;"/><polygon fill="#A80036" points="785.017,351.9856,794.834,352.7767,789.7344,350.3285,792.1826,345.2288,785.017,351.9856" style="stroke: #A80036; stroke-width: 1.0;"/><text fill="#000000" font-family="sans-serif" font-size="13" lengthAdjust="spacingAndGlyphs" textLength="10" x="918.5" y="318.4951">in</text><!--link ImplementSubsystems to Interface--><path d="M1045.19,274.033 C1020.29,295.041 983.485,326.0877 957.271,348.2004 " fill="none" id="ImplementSubsystems-Interface" style="stroke: #A80036; stroke-width: 1.0;"/><polygon fill="#A80036" points="953.158,351.6697,962.6163,348.9236,956.9797,348.4456,957.4577,342.809,953.158,351.6697" style="stroke: #A80036; stroke-width: 1.0;"/><text fill="#000000" font-family="sans-serif" font-size="13" lengthAdjust="spacingAndGlyphs" textLength="10" x="1009.5" y="318.4951">in</text><!--link ImplementSubsystems to SubsystemImplementation--><path d="M1099.99,274.033 C1125.14,295.108 1162.36,326.2843 1188.76,348.41 " fill="none" id="ImplementSubsystems-SubsystemImplementation" style="stroke: #A80036; stroke-width: 1.0;"/><polygon fill="#A80036" points="1192.91,351.8804,1188.5846,343.0322,1189.079,348.6674,1183.4438,349.1618,1192.91,351.8804" style="stroke: #A80036; stroke-width: 1.0;"/><text fill="#000000" font-family="sans-serif" font-size="13" lengthAdjust="spacingAndGlyphs" textLength="18" x="1156.5" y="318.4951">out</text><!--link ImplementSubsystems to InterfaceX--><path d="M1154.12,270.923 C1243.12,292.647 1385.58,327.4207 1481.05,350.724 " fill="none" id="ImplementSubsystems-InterfaceX" style="stroke: #A80036; stroke-width: 1.0;"/><polygon fill="#A80036" points="1486.13,351.9638,1478.3353,345.9436,1481.2726,350.7781,1476.4382,353.7154,1486.13,351.9638" style="stroke: #A80036; stroke-width: 1.0;"/><text fill="#000000" font-family="sans-serif" font-size="13" lengthAdjust="spacingAndGlyphs" textLength="18" x="1358.5" y="318.4951">out</text><!--link ImplementSubsystems to EngineerComponents--><path d="M1154.08,261.619 C1279.34,278.336 1526.4,312.9371 1734.5,352 C1738.71,352.7896 1743,353.6266 1747.34,354.4958 " fill="none" id="ImplementSubsystems-EngineerComponents" style="stroke: #A80036; stroke-width: 1.0;"/><polygon fill="#A80036" points="1752.44,355.53,1744.4215,349.8113,1747.541,354.5303,1742.822,357.6497,1752.44,355.53" style="stroke: #A80036; stroke-width: 1.0;"/><!--link Role to ImplementationRole--><path d="M1536.5,185.578 C1536.5,199.362 1536.5,214.057 1536.5,225.828 " fill="none" id="Role-ImplementationRole" style="stroke: #A80036; stroke-width: 1.0;"/><polygon fill="none" points="1529.5,185.217,1536.5,165.217,1543.5,185.217,1529.5,185.217" style="stroke: #A80036; stroke-width: 1.0;"/><!--link ImplementationRole to EngineerComponents--><path d="M1628.32,268.406 C1662.86,276.755 1701.88,288.41 1735.5,304 C1762.71,316.6163 1790.44,336.464 1810.11,351.9707 " fill="none" id="ImplementationRole-EngineerComponents" style="stroke: #A80036; stroke-width: 1.0;"/><polygon fill="none" points="1626.51,275.17,1608.58,263.866,1629.64,261.526,1626.51,275.17" style="stroke: #A80036; stroke-width: 1.0;"/><!--
@startuml

class Activity #red
Activity <|- - ImplementationActivity
Activity - -> Role

class "Integration Plan of Constructions" as IntegrationPlanConstructions #green
class "Architecture Description(Model view of implementation)" as ArchitectureDescription #green
class "Subsystem Design (designed)" as SubsystemDesign #green
class "Interface (designed)" as Interface  #green
class "Subsystem Implementation (implementation for a construction)" as SubsystemImplementation #green
class "Interface (implementation for a construction)" as InterfaceX #green

class ImplementationActivity #red
ImplementationActivity - -> ImplementationRole

class "Implement Subsystems" as ImplementSubsystems #red
ImplementationActivity <|- - ImplementSubsystems

ImplementSubsystems - -> IntegrationPlanConstructions :in
ImplementSubsystems - -> ArchitectureDescription :in
ImplementSubsystems - -> SubsystemDesign :in
ImplementSubsystems - -> Interface :in
ImplementSubsystems - -> SubsystemImplementation :out
ImplementSubsystems - -> InterfaceX :out


class Role #blue
class ImplementationRole #blue
class "Engineer of Components" as EngineerComponents #blue

ImplementSubsystems - -> EngineerComponents

Role <|- - ImplementationRole
ImplementationRole <|- - EngineerComponents
@enduml

PlantUML version 1.2019.05(Sat Apr 20 18:45:36 CEST 2019)
(GPL source distribution)
Java Runtime: OpenJDK Runtime Environment
JVM: OpenJDK 64-Bit Server VM
Java Version: 1.8.0_222-b10
Operating System: Windows 10
OS Version: 10.0
Default Encoding: windows-1252
Language: es
Country: ES
--></g></svg>