<?xml version="1.0" encoding="UTF-8" standalone="no"?><svg xmlns="http://www.w3.org/2000/svg" xmlns:xlink="http://www.w3.org/1999/xlink" contentScriptType="application/ecmascript" contentStyleType="text/css" height="411px" preserveAspectRatio="none" style="width:1363px;height:411px;" version="1.1" viewBox="0 0 1363 411" width="1363px" zoomAndPan="magnify"><defs><filter height="300%" id="f1dasiphtsr3c2" width="300%" x="-1" y="-1"><feGaussianBlur result="blurOut" stdDeviation="2.0"/><feColorMatrix in="blurOut" result="blurOut2" type="matrix" values="0 0 0 0 0 0 0 0 0 0 0 0 0 0 0 0 0 0 .4 0"/><feOffset dx="4.0" dy="4.0" in="blurOut2" result="blurOut3"/><feBlend in="SourceGraphic" in2="blurOut3" mode="normal"/></filter></defs><g><!--class Activity--><rect fill="#FF0000" filter="url(#f1dasiphtsr3c2)" height="48" id="Activity" style="stroke: #A80036; stroke-width: 1.5;" width="67" x="936" y="8"/><rect fill="#FF0000" height="32" style="stroke: #A80036; stroke-width: 1.5;" width="67" x="936" y="8"/><ellipse cx="951" cy="24" fill="#ADD1B2" rx="11" ry="11" style="stroke: #A80036; stroke-width: 1.0;"/><path d="M953.7656,19.875 Q953.9219,19.6563 954.1094,19.5469 Q954.2969,19.4375 954.5156,19.4375 Q954.8906,19.4375 955.125,19.6953 Q955.3594,19.9531 955.3594,20.5625 L955.3594,22.0156 Q955.3594,22.625 955.125,22.8906 Q954.8906,23.1563 954.5156,23.1563 Q954.1719,23.1563 953.9688,22.9531 Q953.7656,22.7656 953.6563,22.25 Q953.6094,21.8906 953.4219,21.7031 Q953.0938,21.3281 952.4844,21.1094 Q951.875,20.8906 951.25,20.8906 Q950.4844,20.8906 949.8516,21.2188 Q949.2188,21.5469 948.7266,22.2969 Q948.2344,23.0469 948.2344,24.0781 L948.2344,25.1719 Q948.2344,26.4063 949.125,27.2266 Q950.0156,28.0469 951.6094,28.0469 Q952.5469,28.0469 953.2031,27.7969 Q953.5938,27.6406 954.0156,27.2031 Q954.2813,26.9375 954.4297,26.8594 Q954.5781,26.7813 954.7813,26.7813 Q955.1094,26.7813 955.3672,27.0391 Q955.625,27.2969 955.625,27.6406 Q955.625,27.9844 955.2813,28.3906 Q954.7813,28.9688 953.9844,29.2969 Q952.9063,29.75 951.6094,29.75 Q950.0938,29.75 948.8906,29.125 Q947.9063,28.625 947.2188,27.5547 Q946.5313,26.4844 946.5313,25.2031 L946.5313,24.0469 Q946.5313,22.7188 947.1484,21.5703 Q947.7656,20.4219 948.8594,19.8047 Q949.9531,19.1875 951.1875,19.1875 Q951.9219,19.1875 952.5703,19.3516 Q953.2188,19.5156 953.7656,19.875 Z "/><text fill="#000000" font-family="sans-serif" font-size="12" lengthAdjust="spacingAndGlyphs" textLength="35" x="965" y="28.9102">Activity</text><line style="stroke: #A80036; stroke-width: 1.5;" x1="937" x2="1002" y1="40" y2="40"/><line style="stroke: #A80036; stroke-width: 1.5;" x1="937" x2="1002" y1="48" y2="48"/><!--class ImplementationActivity--><rect fill="#FF0000" filter="url(#f1dasiphtsr3c2)" height="48" id="ImplementationActivity" style="stroke: #A80036; stroke-width: 1.5;" width="153" x="823" y="117"/><rect fill="#FF0000" height="32" style="stroke: #A80036; stroke-width: 1.5;" width="153" x="823" y="117"/><ellipse cx="838" cy="133" fill="#ADD1B2" rx="11" ry="11" style="stroke: #A80036; stroke-width: 1.0;"/><path d="M840.7656,128.875 Q840.9219,128.6563 841.1094,128.5469 Q841.2969,128.4375 841.5156,128.4375 Q841.8906,128.4375 842.125,128.6953 Q842.3594,128.9531 842.3594,129.5625 L842.3594,131.0156 Q842.3594,131.625 842.125,131.8906 Q841.8906,132.1563 841.5156,132.1563 Q841.1719,132.1563 840.9688,131.9531 Q840.7656,131.7656 840.6563,131.25 Q840.6094,130.8906 840.4219,130.7031 Q840.0938,130.3281 839.4844,130.1094 Q838.875,129.8906 838.25,129.8906 Q837.4844,129.8906 836.8516,130.2188 Q836.2188,130.5469 835.7266,131.2969 Q835.2344,132.0469 835.2344,133.0781 L835.2344,134.1719 Q835.2344,135.4063 836.125,136.2266 Q837.0156,137.0469 838.6094,137.0469 Q839.5469,137.0469 840.2031,136.7969 Q840.5938,136.6406 841.0156,136.2031 Q841.2813,135.9375 841.4297,135.8594 Q841.5781,135.7813 841.7813,135.7813 Q842.1094,135.7813 842.3672,136.0391 Q842.625,136.2969 842.625,136.6406 Q842.625,136.9844 842.2813,137.3906 Q841.7813,137.9688 840.9844,138.2969 Q839.9063,138.75 838.6094,138.75 Q837.0938,138.75 835.8906,138.125 Q834.9063,137.625 834.2188,136.5547 Q833.5313,135.4844 833.5313,134.2031 L833.5313,133.0469 Q833.5313,131.7188 834.1484,130.5703 Q834.7656,129.4219 835.8594,128.8047 Q836.9531,128.1875 838.1875,128.1875 Q838.9219,128.1875 839.5703,128.3516 Q840.2188,128.5156 840.7656,128.875 Z "/><text fill="#000000" font-family="sans-serif" font-size="12" lengthAdjust="spacingAndGlyphs" textLength="121" x="852" y="137.9102">ImplementationActivity</text><line style="stroke: #A80036; stroke-width: 1.5;" x1="824" x2="975" y1="149" y2="149"/><line style="stroke: #A80036; stroke-width: 1.5;" x1="824" x2="975" y1="157" y2="157"/><!--class Role--><rect fill="#0000FF" filter="url(#f1dasiphtsr3c2)" height="48" id="Role" style="stroke: #A80036; stroke-width: 1.5;" width="58" x="1011.5" y="117"/><rect fill="#0000FF" height="32" style="stroke: #A80036; stroke-width: 1.5;" width="58" x="1011.5" y="117"/><ellipse cx="1026.5" cy="133" fill="#ADD1B2" rx="11" ry="11" style="stroke: #A80036; stroke-width: 1.0;"/><path d="M1029.2656,128.875 Q1029.4219,128.6563 1029.6094,128.5469 Q1029.7969,128.4375 1030.0156,128.4375 Q1030.3906,128.4375 1030.625,128.6953 Q1030.8594,128.9531 1030.8594,129.5625 L1030.8594,131.0156 Q1030.8594,131.625 1030.625,131.8906 Q1030.3906,132.1563 1030.0156,132.1563 Q1029.6719,132.1563 1029.4688,131.9531 Q1029.2656,131.7656 1029.1563,131.25 Q1029.1094,130.8906 1028.9219,130.7031 Q1028.5938,130.3281 1027.9844,130.1094 Q1027.375,129.8906 1026.75,129.8906 Q1025.9844,129.8906 1025.3516,130.2188 Q1024.7188,130.5469 1024.2266,131.2969 Q1023.7344,132.0469 1023.7344,133.0781 L1023.7344,134.1719 Q1023.7344,135.4063 1024.625,136.2266 Q1025.5156,137.0469 1027.1094,137.0469 Q1028.0469,137.0469 1028.7031,136.7969 Q1029.0938,136.6406 1029.5156,136.2031 Q1029.7813,135.9375 1029.9297,135.8594 Q1030.0781,135.7813 1030.2813,135.7813 Q1030.6094,135.7813 1030.8672,136.0391 Q1031.125,136.2969 1031.125,136.6406 Q1031.125,136.9844 1030.7813,137.3906 Q1030.2813,137.9688 1029.4844,138.2969 Q1028.4063,138.75 1027.1094,138.75 Q1025.5938,138.75 1024.3906,138.125 Q1023.4063,137.625 1022.7188,136.5547 Q1022.0313,135.4844 1022.0313,134.2031 L1022.0313,133.0469 Q1022.0313,131.7188 1022.6484,130.5703 Q1023.2656,129.4219 1024.3594,128.8047 Q1025.4531,128.1875 1026.6875,128.1875 Q1027.4219,128.1875 1028.0703,128.3516 Q1028.7188,128.5156 1029.2656,128.875 Z "/><text fill="#000000" font-family="sans-serif" font-size="12" lengthAdjust="spacingAndGlyphs" textLength="26" x="1040.5" y="137.9102">Role</text><line style="stroke: #A80036; stroke-width: 1.5;" x1="1012.5" x2="1068.5" y1="149" y2="149"/><line style="stroke: #A80036; stroke-width: 1.5;" x1="1012.5" x2="1068.5" y1="157" y2="157"/><!--class DesignModel--><rect fill="#008000" filter="url(#f1dasiphtsr3c2)" height="48" id="DesignModel" style="stroke: #A80036; stroke-width: 1.5;" width="105" x="6" y="352"/><rect fill="#008000" height="32" style="stroke: #A80036; stroke-width: 1.5;" width="105" x="6" y="352"/><ellipse cx="21" cy="368" fill="#ADD1B2" rx="11" ry="11" style="stroke: #A80036; stroke-width: 1.0;"/><path d="M23.7656,363.875 Q23.9219,363.6563 24.1094,363.5469 Q24.2969,363.4375 24.5156,363.4375 Q24.8906,363.4375 25.125,363.6953 Q25.3594,363.9531 25.3594,364.5625 L25.3594,366.0156 Q25.3594,366.625 25.125,366.8906 Q24.8906,367.1563 24.5156,367.1563 Q24.1719,367.1563 23.9688,366.9531 Q23.7656,366.7656 23.6563,366.25 Q23.6094,365.8906 23.4219,365.7031 Q23.0938,365.3281 22.4844,365.1094 Q21.875,364.8906 21.25,364.8906 Q20.4844,364.8906 19.8516,365.2188 Q19.2188,365.5469 18.7266,366.2969 Q18.2344,367.0469 18.2344,368.0781 L18.2344,369.1719 Q18.2344,370.4063 19.125,371.2266 Q20.0156,372.0469 21.6094,372.0469 Q22.5469,372.0469 23.2031,371.7969 Q23.5938,371.6406 24.0156,371.2031 Q24.2813,370.9375 24.4297,370.8594 Q24.5781,370.7813 24.7813,370.7813 Q25.1094,370.7813 25.3672,371.0391 Q25.625,371.2969 25.625,371.6406 Q25.625,371.9844 25.2813,372.3906 Q24.7813,372.9688 23.9844,373.2969 Q22.9063,373.75 21.6094,373.75 Q20.0938,373.75 18.8906,373.125 Q17.9063,372.625 17.2188,371.5547 Q16.5313,370.4844 16.5313,369.2031 L16.5313,368.0469 Q16.5313,366.7188 17.1484,365.5703 Q17.7656,364.4219 18.8594,363.8047 Q19.9531,363.1875 21.1875,363.1875 Q21.9219,363.1875 22.5703,363.3516 Q23.2188,363.5156 23.7656,363.875 Z "/><text fill="#000000" font-family="sans-serif" font-size="12" lengthAdjust="spacingAndGlyphs" textLength="73" x="35" y="372.9102">DesignModel</text><line style="stroke: #A80036; stroke-width: 1.5;" x1="7" x2="110" y1="384" y2="384"/><line style="stroke: #A80036; stroke-width: 1.5;" x1="7" x2="110" y1="392" y2="392"/><!--class DeploymentModel--><rect fill="#008000" filter="url(#f1dasiphtsr3c2)" height="48" id="DeploymentModel" style="stroke: #A80036; stroke-width: 1.5;" width="131" x="146" y="352"/><rect fill="#008000" height="32" style="stroke: #A80036; stroke-width: 1.5;" width="131" x="146" y="352"/><ellipse cx="161" cy="368" fill="#ADD1B2" rx="11" ry="11" style="stroke: #A80036; stroke-width: 1.0;"/><path d="M163.7656,363.875 Q163.9219,363.6563 164.1094,363.5469 Q164.2969,363.4375 164.5156,363.4375 Q164.8906,363.4375 165.125,363.6953 Q165.3594,363.9531 165.3594,364.5625 L165.3594,366.0156 Q165.3594,366.625 165.125,366.8906 Q164.8906,367.1563 164.5156,367.1563 Q164.1719,367.1563 163.9688,366.9531 Q163.7656,366.7656 163.6563,366.25 Q163.6094,365.8906 163.4219,365.7031 Q163.0938,365.3281 162.4844,365.1094 Q161.875,364.8906 161.25,364.8906 Q160.4844,364.8906 159.8516,365.2188 Q159.2188,365.5469 158.7266,366.2969 Q158.2344,367.0469 158.2344,368.0781 L158.2344,369.1719 Q158.2344,370.4063 159.125,371.2266 Q160.0156,372.0469 161.6094,372.0469 Q162.5469,372.0469 163.2031,371.7969 Q163.5938,371.6406 164.0156,371.2031 Q164.2813,370.9375 164.4297,370.8594 Q164.5781,370.7813 164.7813,370.7813 Q165.1094,370.7813 165.3672,371.0391 Q165.625,371.2969 165.625,371.6406 Q165.625,371.9844 165.2813,372.3906 Q164.7813,372.9688 163.9844,373.2969 Q162.9063,373.75 161.6094,373.75 Q160.0938,373.75 158.8906,373.125 Q157.9063,372.625 157.2188,371.5547 Q156.5313,370.4844 156.5313,369.2031 L156.5313,368.0469 Q156.5313,366.7188 157.1484,365.5703 Q157.7656,364.4219 158.8594,363.8047 Q159.9531,363.1875 161.1875,363.1875 Q161.9219,363.1875 162.5703,363.3516 Q163.2188,363.5156 163.7656,363.875 Z "/><text fill="#000000" font-family="sans-serif" font-size="12" lengthAdjust="spacingAndGlyphs" textLength="99" x="175" y="372.9102">DeploymentModel</text><line style="stroke: #A80036; stroke-width: 1.5;" x1="147" x2="276" y1="384" y2="384"/><line style="stroke: #A80036; stroke-width: 1.5;" x1="147" x2="276" y1="392" y2="392"/><!--class ArchitectureDescriptionX--><rect fill="#008000" filter="url(#f1dasiphtsr3c2)" height="48" id="ArchitectureDescriptionX" style="stroke: #A80036; stroke-width: 1.5;" width="333" x="312" y="352"/><rect fill="#008000" height="32" style="stroke: #A80036; stroke-width: 1.5;" width="333" x="312" y="352"/><ellipse cx="327" cy="368" fill="#ADD1B2" rx="11" ry="11" style="stroke: #A80036; stroke-width: 1.0;"/><path d="M329.7656,363.875 Q329.9219,363.6563 330.1094,363.5469 Q330.2969,363.4375 330.5156,363.4375 Q330.8906,363.4375 331.125,363.6953 Q331.3594,363.9531 331.3594,364.5625 L331.3594,366.0156 Q331.3594,366.625 331.125,366.8906 Q330.8906,367.1563 330.5156,367.1563 Q330.1719,367.1563 329.9688,366.9531 Q329.7656,366.7656 329.6563,366.25 Q329.6094,365.8906 329.4219,365.7031 Q329.0938,365.3281 328.4844,365.1094 Q327.875,364.8906 327.25,364.8906 Q326.4844,364.8906 325.8516,365.2188 Q325.2188,365.5469 324.7266,366.2969 Q324.2344,367.0469 324.2344,368.0781 L324.2344,369.1719 Q324.2344,370.4063 325.125,371.2266 Q326.0156,372.0469 327.6094,372.0469 Q328.5469,372.0469 329.2031,371.7969 Q329.5938,371.6406 330.0156,371.2031 Q330.2813,370.9375 330.4297,370.8594 Q330.5781,370.7813 330.7813,370.7813 Q331.1094,370.7813 331.3672,371.0391 Q331.625,371.2969 331.625,371.6406 Q331.625,371.9844 331.2813,372.3906 Q330.7813,372.9688 329.9844,373.2969 Q328.9063,373.75 327.6094,373.75 Q326.0938,373.75 324.8906,373.125 Q323.9063,372.625 323.2188,371.5547 Q322.5313,370.4844 322.5313,369.2031 L322.5313,368.0469 Q322.5313,366.7188 323.1484,365.5703 Q323.7656,364.4219 324.8594,363.8047 Q325.9531,363.1875 327.1875,363.1875 Q327.9219,363.1875 328.5703,363.3516 Q329.2188,363.5156 329.7656,363.875 Z "/><text fill="#000000" font-family="sans-serif" font-size="12" lengthAdjust="spacingAndGlyphs" textLength="301" x="341" y="372.9102">Architecture Description (Design View and deployment)</text><line style="stroke: #A80036; stroke-width: 1.5;" x1="313" x2="644" y1="384" y2="384"/><line style="stroke: #A80036; stroke-width: 1.5;" x1="313" x2="644" y1="392" y2="392"/><!--class Component--><rect fill="#008000" filter="url(#f1dasiphtsr3c2)" height="48" id="Component" style="stroke: #A80036; stroke-width: 1.5;" width="145" x="680" y="352"/><rect fill="#008000" height="32" style="stroke: #A80036; stroke-width: 1.5;" width="145" x="680" y="352"/><ellipse cx="695" cy="368" fill="#ADD1B2" rx="11" ry="11" style="stroke: #A80036; stroke-width: 1.0;"/><path d="M697.7656,363.875 Q697.9219,363.6563 698.1094,363.5469 Q698.2969,363.4375 698.5156,363.4375 Q698.8906,363.4375 699.125,363.6953 Q699.3594,363.9531 699.3594,364.5625 L699.3594,366.0156 Q699.3594,366.625 699.125,366.8906 Q698.8906,367.1563 698.5156,367.1563 Q698.1719,367.1563 697.9688,366.9531 Q697.7656,366.7656 697.6563,366.25 Q697.6094,365.8906 697.4219,365.7031 Q697.0938,365.3281 696.4844,365.1094 Q695.875,364.8906 695.25,364.8906 Q694.4844,364.8906 693.8516,365.2188 Q693.2188,365.5469 692.7266,366.2969 Q692.2344,367.0469 692.2344,368.0781 L692.2344,369.1719 Q692.2344,370.4063 693.125,371.2266 Q694.0156,372.0469 695.6094,372.0469 Q696.5469,372.0469 697.2031,371.7969 Q697.5938,371.6406 698.0156,371.2031 Q698.2813,370.9375 698.4297,370.8594 Q698.5781,370.7813 698.7813,370.7813 Q699.1094,370.7813 699.3672,371.0391 Q699.625,371.2969 699.625,371.6406 Q699.625,371.9844 699.2813,372.3906 Q698.7813,372.9688 697.9844,373.2969 Q696.9063,373.75 695.6094,373.75 Q694.0938,373.75 692.8906,373.125 Q691.9063,372.625 691.2188,371.5547 Q690.5313,370.4844 690.5313,369.2031 L690.5313,368.0469 Q690.5313,366.7188 691.1484,365.5703 Q691.7656,364.4219 692.8594,363.8047 Q693.9531,363.1875 695.1875,363.1875 Q695.9219,363.1875 696.5703,363.3516 Q697.2188,363.5156 697.7656,363.875 Z "/><text fill="#000000" font-family="sans-serif" font-size="12" lengthAdjust="spacingAndGlyphs" textLength="113" x="709" y="372.9102">Component (outline)</text><line style="stroke: #A80036; stroke-width: 1.5;" x1="681" x2="824" y1="384" y2="384"/><line style="stroke: #A80036; stroke-width: 1.5;" x1="681" x2="824" y1="392" y2="392"/><!--class ArchitectureDescription--><rect fill="#008000" filter="url(#f1dasiphtsr3c2)" height="48" id="ArchitectureDescription" style="stroke: #A80036; stroke-width: 1.5;" width="379" x="860" y="352"/><rect fill="#008000" height="32" style="stroke: #A80036; stroke-width: 1.5;" width="379" x="860" y="352"/><ellipse cx="875" cy="368" fill="#ADD1B2" rx="11" ry="11" style="stroke: #A80036; stroke-width: 1.0;"/><path d="M877.7656,363.875 Q877.9219,363.6563 878.1094,363.5469 Q878.2969,363.4375 878.5156,363.4375 Q878.8906,363.4375 879.125,363.6953 Q879.3594,363.9531 879.3594,364.5625 L879.3594,366.0156 Q879.3594,366.625 879.125,366.8906 Q878.8906,367.1563 878.5156,367.1563 Q878.1719,367.1563 877.9688,366.9531 Q877.7656,366.7656 877.6563,366.25 Q877.6094,365.8906 877.4219,365.7031 Q877.0938,365.3281 876.4844,365.1094 Q875.875,364.8906 875.25,364.8906 Q874.4844,364.8906 873.8516,365.2188 Q873.2188,365.5469 872.7266,366.2969 Q872.2344,367.0469 872.2344,368.0781 L872.2344,369.1719 Q872.2344,370.4063 873.125,371.2266 Q874.0156,372.0469 875.6094,372.0469 Q876.5469,372.0469 877.2031,371.7969 Q877.5938,371.6406 878.0156,371.2031 Q878.2813,370.9375 878.4297,370.8594 Q878.5781,370.7813 878.7813,370.7813 Q879.1094,370.7813 879.3672,371.0391 Q879.625,371.2969 879.625,371.6406 Q879.625,371.9844 879.2813,372.3906 Q878.7813,372.9688 877.9844,373.2969 Q876.9063,373.75 875.6094,373.75 Q874.0938,373.75 872.8906,373.125 Q871.9063,372.625 871.2188,371.5547 Q870.5313,370.4844 870.5313,369.2031 L870.5313,368.0469 Q870.5313,366.7188 871.1484,365.5703 Q871.7656,364.4219 872.8594,363.8047 Q873.9531,363.1875 875.1875,363.1875 Q875.9219,363.1875 876.5703,363.3516 Q877.2188,363.5156 877.7656,363.875 Z "/><text fill="#000000" font-family="sans-serif" font-size="12" lengthAdjust="spacingAndGlyphs" textLength="347" x="889" y="372.9102">Architecture Description (Implementation View and deployment)</text><line style="stroke: #A80036; stroke-width: 1.5;" x1="861" x2="1238" y1="384" y2="384"/><line style="stroke: #A80036; stroke-width: 1.5;" x1="861" x2="1238" y1="392" y2="392"/><!--class ImplementationRole--><rect fill="#0000FF" filter="url(#f1dasiphtsr3c2)" height="48" id="ImplementationRole" style="stroke: #A80036; stroke-width: 1.5;" width="144" x="968.5" y="226"/><rect fill="#0000FF" height="32" style="stroke: #A80036; stroke-width: 1.5;" width="144" x="968.5" y="226"/><ellipse cx="983.5" cy="242" fill="#ADD1B2" rx="11" ry="11" style="stroke: #A80036; stroke-width: 1.0;"/><path d="M986.2656,237.875 Q986.4219,237.6563 986.6094,237.5469 Q986.7969,237.4375 987.0156,237.4375 Q987.3906,237.4375 987.625,237.6953 Q987.8594,237.9531 987.8594,238.5625 L987.8594,240.0156 Q987.8594,240.625 987.625,240.8906 Q987.3906,241.1563 987.0156,241.1563 Q986.6719,241.1563 986.4688,240.9531 Q986.2656,240.7656 986.1563,240.25 Q986.1094,239.8906 985.9219,239.7031 Q985.5938,239.3281 984.9844,239.1094 Q984.375,238.8906 983.75,238.8906 Q982.9844,238.8906 982.3516,239.2188 Q981.7188,239.5469 981.2266,240.2969 Q980.7344,241.0469 980.7344,242.0781 L980.7344,243.1719 Q980.7344,244.4063 981.625,245.2266 Q982.5156,246.0469 984.1094,246.0469 Q985.0469,246.0469 985.7031,245.7969 Q986.0938,245.6406 986.5156,245.2031 Q986.7813,244.9375 986.9297,244.8594 Q987.0781,244.7813 987.2813,244.7813 Q987.6094,244.7813 987.8672,245.0391 Q988.125,245.2969 988.125,245.6406 Q988.125,245.9844 987.7813,246.3906 Q987.2813,246.9688 986.4844,247.2969 Q985.4063,247.75 984.1094,247.75 Q982.5938,247.75 981.3906,247.125 Q980.4063,246.625 979.7188,245.5547 Q979.0313,244.4844 979.0313,243.2031 L979.0313,242.0469 Q979.0313,240.7188 979.6484,239.5703 Q980.2656,238.4219 981.3594,237.8047 Q982.4531,237.1875 983.6875,237.1875 Q984.4219,237.1875 985.0703,237.3516 Q985.7188,237.5156 986.2656,237.875 Z "/><text fill="#000000" font-family="sans-serif" font-size="12" lengthAdjust="spacingAndGlyphs" textLength="112" x="997.5" y="246.9102">ImplementationRole</text><line style="stroke: #A80036; stroke-width: 1.5;" x1="969.5" x2="1111.5" y1="258" y2="258"/><line style="stroke: #A80036; stroke-width: 1.5;" x1="969.5" x2="1111.5" y1="266" y2="266"/><!--class ImplementArchitecture--><rect fill="#FF0000" filter="url(#f1dasiphtsr3c2)" height="48" id="ImplementArchitecture" style="stroke: #A80036; stroke-width: 1.5;" width="178" x="663.5" y="226"/><rect fill="#FF0000" height="32" style="stroke: #A80036; stroke-width: 1.5;" width="178" x="663.5" y="226"/><ellipse cx="678.5" cy="242" fill="#ADD1B2" rx="11" ry="11" style="stroke: #A80036; stroke-width: 1.0;"/><path d="M681.2656,237.875 Q681.4219,237.6563 681.6094,237.5469 Q681.7969,237.4375 682.0156,237.4375 Q682.3906,237.4375 682.625,237.6953 Q682.8594,237.9531 682.8594,238.5625 L682.8594,240.0156 Q682.8594,240.625 682.625,240.8906 Q682.3906,241.1563 682.0156,241.1563 Q681.6719,241.1563 681.4688,240.9531 Q681.2656,240.7656 681.1563,240.25 Q681.1094,239.8906 680.9219,239.7031 Q680.5938,239.3281 679.9844,239.1094 Q679.375,238.8906 678.75,238.8906 Q677.9844,238.8906 677.3516,239.2188 Q676.7188,239.5469 676.2266,240.2969 Q675.7344,241.0469 675.7344,242.0781 L675.7344,243.1719 Q675.7344,244.4063 676.625,245.2266 Q677.5156,246.0469 679.1094,246.0469 Q680.0469,246.0469 680.7031,245.7969 Q681.0938,245.6406 681.5156,245.2031 Q681.7813,244.9375 681.9297,244.8594 Q682.0781,244.7813 682.2813,244.7813 Q682.6094,244.7813 682.8672,245.0391 Q683.125,245.2969 683.125,245.6406 Q683.125,245.9844 682.7813,246.3906 Q682.2813,246.9688 681.4844,247.2969 Q680.4063,247.75 679.1094,247.75 Q677.5938,247.75 676.3906,247.125 Q675.4063,246.625 674.7188,245.5547 Q674.0313,244.4844 674.0313,243.2031 L674.0313,242.0469 Q674.0313,240.7188 674.6484,239.5703 Q675.2656,238.4219 676.3594,237.8047 Q677.4531,237.1875 678.6875,237.1875 Q679.4219,237.1875 680.0703,237.3516 Q680.7188,237.5156 681.2656,237.875 Z "/><text fill="#000000" font-family="sans-serif" font-size="12" lengthAdjust="spacingAndGlyphs" textLength="146" x="692.5" y="246.9102">Implement the Architecture</text><line style="stroke: #A80036; stroke-width: 1.5;" x1="664.5" x2="840.5" y1="258" y2="258"/><line style="stroke: #A80036; stroke-width: 1.5;" x1="664.5" x2="840.5" y1="266" y2="266"/><!--class Architect--><rect fill="#0000FF" filter="url(#f1dasiphtsr3c2)" height="48" id="Architect" style="stroke: #A80036; stroke-width: 1.5;" width="78" x="1274.5" y="352"/><rect fill="#0000FF" height="32" style="stroke: #A80036; stroke-width: 1.5;" width="78" x="1274.5" y="352"/><ellipse cx="1289.5" cy="368" fill="#ADD1B2" rx="11" ry="11" style="stroke: #A80036; stroke-width: 1.0;"/><path d="M1292.2656,363.875 Q1292.4219,363.6563 1292.6094,363.5469 Q1292.7969,363.4375 1293.0156,363.4375 Q1293.3906,363.4375 1293.625,363.6953 Q1293.8594,363.9531 1293.8594,364.5625 L1293.8594,366.0156 Q1293.8594,366.625 1293.625,366.8906 Q1293.3906,367.1563 1293.0156,367.1563 Q1292.6719,367.1563 1292.4688,366.9531 Q1292.2656,366.7656 1292.1563,366.25 Q1292.1094,365.8906 1291.9219,365.7031 Q1291.5938,365.3281 1290.9844,365.1094 Q1290.375,364.8906 1289.75,364.8906 Q1288.9844,364.8906 1288.3516,365.2188 Q1287.7188,365.5469 1287.2266,366.2969 Q1286.7344,367.0469 1286.7344,368.0781 L1286.7344,369.1719 Q1286.7344,370.4063 1287.625,371.2266 Q1288.5156,372.0469 1290.1094,372.0469 Q1291.0469,372.0469 1291.7031,371.7969 Q1292.0938,371.6406 1292.5156,371.2031 Q1292.7813,370.9375 1292.9297,370.8594 Q1293.0781,370.7813 1293.2813,370.7813 Q1293.6094,370.7813 1293.8672,371.0391 Q1294.125,371.2969 1294.125,371.6406 Q1294.125,371.9844 1293.7813,372.3906 Q1293.2813,372.9688 1292.4844,373.2969 Q1291.4063,373.75 1290.1094,373.75 Q1288.5938,373.75 1287.3906,373.125 Q1286.4063,372.625 1285.7188,371.5547 Q1285.0313,370.4844 1285.0313,369.2031 L1285.0313,368.0469 Q1285.0313,366.7188 1285.6484,365.5703 Q1286.2656,364.4219 1287.3594,363.8047 Q1288.4531,363.1875 1289.6875,363.1875 Q1290.4219,363.1875 1291.0703,363.3516 Q1291.7188,363.5156 1292.2656,363.875 Z "/><text fill="#000000" font-family="sans-serif" font-size="12" lengthAdjust="spacingAndGlyphs" textLength="46" x="1303.5" y="372.9102">Architect</text><line style="stroke: #A80036; stroke-width: 1.5;" x1="1275.5" x2="1351.5" y1="384" y2="384"/><line style="stroke: #A80036; stroke-width: 1.5;" x1="1275.5" x2="1351.5" y1="392" y2="392"/><!--link Activity to ImplementationActivity--><path d="M943.232,73.153 C933.589,87.893 923.001,104.076 914.659,116.828 " fill="none" id="Activity-ImplementationActivity" style="stroke: #A80036; stroke-width: 1.0;"/><polygon fill="none" points="937.504,69.122,954.311,56.217,949.22,76.786,937.504,69.122" style="stroke: #A80036; stroke-width: 1.0;"/><!--link Activity to Role--><path d="M984.906,56.217 C995.885,72.763 1010.69,95.07 1022.26,112.506 " fill="none" id="Activity-Role" style="stroke: #A80036; stroke-width: 1.0;"/><polygon fill="#A80036" points="1025.12,116.828,1023.4828,107.1162,1022.358,112.6601,1016.8141,111.5353,1025.12,116.828" style="stroke: #A80036; stroke-width: 1.0;"/><!--link ImplementationActivity to ImplementationRole--><path d="M930.095,165.217 C952.36,182.113 982.542,205.017 1005.722,222.608 " fill="none" id="ImplementationActivity-ImplementationRole" style="stroke: #A80036; stroke-width: 1.0;"/><polygon fill="#A80036" points="1009.96,225.828,1005.2092,217.2007,1005.9772,222.8052,1000.3727,223.5732,1009.96,225.828" style="stroke: #A80036; stroke-width: 1.0;"/><!--link ImplementationActivity to ImplementArchitecture--><path d="M851.257,177.116 C829.28,193.112 803.874,211.605 784.335,225.828 " fill="none" id="ImplementationActivity-ImplementArchitecture" style="stroke: #A80036; stroke-width: 1.0;"/><polygon fill="none" points="847.314,171.328,867.603,165.217,855.553,182.647,847.314,171.328" style="stroke: #A80036; stroke-width: 1.0;"/><!--link ImplementArchitecture to DesignModel--><path d="M663.484,260.748 C541.582,275.151 316.399,305.5308 128.5,352 C124.394,353.0154 120.182,354.1521 115.958,355.3619 " fill="none" id="ImplementArchitecture-DesignModel" style="stroke: #A80036; stroke-width: 1.0;"/><polygon fill="#A80036" points="111,356.8128,120.7612,358.1241,115.7987,355.4085,118.5143,350.4461,111,356.8128" style="stroke: #A80036; stroke-width: 1.0;"/><text fill="#000000" font-family="sans-serif" font-size="13" lengthAdjust="spacingAndGlyphs" textLength="10" x="351.5" y="318.4951">in</text><!--link ImplementArchitecture to DeploymentModel--><path d="M663.086,269.246 C570.531,288.478 421.918,320.3203 294.5,352 C290.432,353.0113 286.26,354.0769 282.056,355.1728 " fill="none" id="ImplementArchitecture-DeploymentModel" style="stroke: #A80036; stroke-width: 1.0;"/><polygon fill="#A80036" points="277.109,356.4718,286.8298,358.0546,281.945,355.2018,284.7978,350.317,277.109,356.4718" style="stroke: #A80036; stroke-width: 1.0;"/><text fill="#000000" font-family="sans-serif" font-size="13" lengthAdjust="spacingAndGlyphs" textLength="10" x="496.5" y="318.4951">in</text><!--link ImplementArchitecture to ArchitectureDescriptionX--><path d="M701.605,274.033 C654.078,295.541 583.301,327.5716 534.263,349.7642 " fill="none" id="ImplementArchitecture-ArchitectureDescriptionX" style="stroke: #A80036; stroke-width: 1.0;"/><polygon fill="#A80036" points="529.587,351.8804,539.4356,351.8114,534.1417,349.8177,536.1354,344.5238,529.587,351.8804" style="stroke: #A80036; stroke-width: 1.0;"/><text fill="#000000" font-family="sans-serif" font-size="13" lengthAdjust="spacingAndGlyphs" textLength="10" x="633.5" y="318.4951">in</text><!--link ImplementArchitecture to Component--><path d="M752.5,274.033 C752.5,294.522 752.5,324.5607 752.5,346.5464 " fill="none" id="ImplementArchitecture-Component" style="stroke: #A80036; stroke-width: 1.0;"/><polygon fill="#A80036" points="752.5,351.6697,756.5,342.6697,752.5,346.6697,748.5,342.6697,752.5,351.6697" style="stroke: #A80036; stroke-width: 1.0;"/><text fill="#000000" font-family="sans-serif" font-size="13" lengthAdjust="spacingAndGlyphs" textLength="18" x="753.5" y="318.4951">out</text><!--link ImplementArchitecture to ArchitectureDescription--><path d="M807.667,274.033 C859.369,295.619 936.453,327.8021 989.629,350.0032 " fill="none" id="ImplementArchitecture-ArchitectureDescription" style="stroke: #A80036; stroke-width: 1.0;"/><polygon fill="#A80036" points="994.377,351.9856,987.6139,344.826,989.7633,350.0586,984.5307,352.2079,994.377,351.9856" style="stroke: #A80036; stroke-width: 1.0;"/><text fill="#000000" font-family="sans-serif" font-size="13" lengthAdjust="spacingAndGlyphs" textLength="18" x="920.5" y="318.4951">out</text><!--link ImplementArchitecture to Architect--><path d="M841.578,263.719 C943.257,279.413 1113.93,309.3553 1256.5,352 C1260.78,353.2801 1265.18,354.7565 1269.56,356.3308 " fill="none" id="ImplementArchitecture-Architect" style="stroke: #A80036; stroke-width: 1.0;"/><polygon fill="#A80036" points="1274.28,358.0729,1267.2179,351.208,1269.5883,356.3442,1264.4521,358.7146,1274.28,358.0729" style="stroke: #A80036; stroke-width: 1.0;"/><!--link Role to ImplementationRole--><path d="M1040.5,185.578 C1040.5,199.362 1040.5,214.057 1040.5,225.828 " fill="none" id="Role-ImplementationRole" style="stroke: #A80036; stroke-width: 1.0;"/><polygon fill="none" points="1033.5,185.217,1040.5,165.217,1047.5,185.217,1033.5,185.217" style="stroke: #A80036; stroke-width: 1.0;"/><!--link ImplementationRole to Architect--><path d="M1131.96,274.601 C1157.32,282.545 1184.48,292.394 1208.5,304 C1235.65,317.1153 1263.81,336.527 1284.12,351.7398 " fill="none" id="ImplementationRole-Architect" style="stroke: #A80036; stroke-width: 1.0;"/><polygon fill="none" points="1129.69,281.228,1112.54,268.772,1133.71,267.819,1129.69,281.228" style="stroke: #A80036; stroke-width: 1.0;"/><!--
@startuml

class Activity #red
Activity <|- - ImplementationActivity
Activity - -> Role

class DesignModel #green
class DeploymentModel #green
class "Architecture Description (Design View and deployment)" as ArchitectureDescriptionX  #green
class "Component (outline)" as Component #green
class "Architecture Description (Implementation View and deployment)" as ArchitectureDescription  #green


class ImplementationActivity #red
ImplementationActivity - -> ImplementationRole

class "Implement the Architecture" as ImplementArchitecture #red
ImplementationActivity <|- - ImplementArchitecture

ImplementArchitecture - -> DesignModel :in
ImplementArchitecture - -> DeploymentModel :in
ImplementArchitecture - -> ArchitectureDescriptionX :in
ImplementArchitecture - -> Component :out
ImplementArchitecture - -> ArchitectureDescription :out


ImplementArchitecture - -> Architect

class Role #blue
class ImplementationRole #blue
class Architect #blue

Role <|- - ImplementationRole
ImplementationRole <|- - Architect
@enduml

PlantUML version 1.2019.05(Sat Apr 20 18:45:36 CEST 2019)
(GPL source distribution)
Java Runtime: OpenJDK Runtime Environment
JVM: OpenJDK 64-Bit Server VM
Java Version: 1.8.0_222-b10
Operating System: Windows 10
OS Version: 10.0
Default Encoding: windows-1252
Language: es
Country: ES
--></g></svg>