<?xml version="1.0" encoding="UTF-8" standalone="no"?><svg xmlns="http://www.w3.org/2000/svg" xmlns:xlink="http://www.w3.org/1999/xlink" contentScriptType="application/ecmascript" contentStyleType="text/css" height="1381px" preserveAspectRatio="none" style="width:564px;height:1381px;" version="1.1" viewBox="0 0 564 1381" width="564px" zoomAndPan="magnify"><defs><filter height="300%" id="f10s9a28fulqey" width="300%" x="-1" y="-1"><feGaussianBlur result="blurOut" stdDeviation="2.0"/><feColorMatrix in="blurOut" result="blurOut2" type="matrix" values="0 0 0 0 0 0 0 0 0 0 0 0 0 0 0 0 0 0 .4 0"/><feOffset dx="4.0" dy="4.0" in="blurOut2" result="blurOut3"/><feBlend in="SourceGraphic" in2="blurOut3" mode="normal"/></filter></defs><g><!--class Discipline--><rect fill="#FF0000" filter="url(#f10s9a28fulqey)" height="48" id="Discipline" style="stroke: #A80036; stroke-width: 1.5;" width="87" x="186.5" y="8"/><rect fill="#FF0000" height="32" style="stroke: #A80036; stroke-width: 1.5;" width="87" x="186.5" y="8"/><ellipse cx="201.5" cy="24" fill="#ADD1B2" rx="11" ry="11" style="stroke: #A80036; stroke-width: 1.0;"/><path d="M204.2656,19.875 Q204.4219,19.6563 204.6094,19.5469 Q204.7969,19.4375 205.0156,19.4375 Q205.3906,19.4375 205.625,19.6953 Q205.8594,19.9531 205.8594,20.5625 L205.8594,22.0156 Q205.8594,22.625 205.625,22.8906 Q205.3906,23.1563 205.0156,23.1563 Q204.6719,23.1563 204.4688,22.9531 Q204.2656,22.7656 204.1563,22.25 Q204.1094,21.8906 203.9219,21.7031 Q203.5938,21.3281 202.9844,21.1094 Q202.375,20.8906 201.75,20.8906 Q200.9844,20.8906 200.3516,21.2188 Q199.7188,21.5469 199.2266,22.2969 Q198.7344,23.0469 198.7344,24.0781 L198.7344,25.1719 Q198.7344,26.4063 199.625,27.2266 Q200.5156,28.0469 202.1094,28.0469 Q203.0469,28.0469 203.7031,27.7969 Q204.0938,27.6406 204.5156,27.2031 Q204.7813,26.9375 204.9297,26.8594 Q205.0781,26.7813 205.2813,26.7813 Q205.6094,26.7813 205.8672,27.0391 Q206.125,27.2969 206.125,27.6406 Q206.125,27.9844 205.7813,28.3906 Q205.2813,28.9688 204.4844,29.2969 Q203.4063,29.75 202.1094,29.75 Q200.5938,29.75 199.3906,29.125 Q198.4063,28.625 197.7188,27.5547 Q197.0313,26.4844 197.0313,25.2031 L197.0313,24.0469 Q197.0313,22.7188 197.6484,21.5703 Q198.2656,20.4219 199.3594,19.8047 Q200.4531,19.1875 201.6875,19.1875 Q202.4219,19.1875 203.0703,19.3516 Q203.7188,19.5156 204.2656,19.875 Z "/><text fill="#000000" font-family="sans-serif" font-size="12" lengthAdjust="spacingAndGlyphs" textLength="55" x="215.5" y="28.9102">Discipline</text><line style="stroke: #A80036; stroke-width: 1.5;" x1="187.5" x2="272.5" y1="40" y2="40"/><line style="stroke: #A80036; stroke-width: 1.5;" x1="187.5" x2="272.5" y1="48" y2="48"/><!--class Activity--><rect fill="#008000" filter="url(#f10s9a28fulqey)" height="48" id="Activity" style="stroke: #A80036; stroke-width: 1.5;" width="67" x="119.5" y="117"/><rect fill="#008000" height="32" style="stroke: #A80036; stroke-width: 1.5;" width="67" x="119.5" y="117"/><ellipse cx="134.5" cy="133" fill="#ADD1B2" rx="11" ry="11" style="stroke: #A80036; stroke-width: 1.0;"/><path d="M137.2656,128.875 Q137.4219,128.6563 137.6094,128.5469 Q137.7969,128.4375 138.0156,128.4375 Q138.3906,128.4375 138.625,128.6953 Q138.8594,128.9531 138.8594,129.5625 L138.8594,131.0156 Q138.8594,131.625 138.625,131.8906 Q138.3906,132.1563 138.0156,132.1563 Q137.6719,132.1563 137.4688,131.9531 Q137.2656,131.7656 137.1563,131.25 Q137.1094,130.8906 136.9219,130.7031 Q136.5938,130.3281 135.9844,130.1094 Q135.375,129.8906 134.75,129.8906 Q133.9844,129.8906 133.3516,130.2188 Q132.7188,130.5469 132.2266,131.2969 Q131.7344,132.0469 131.7344,133.0781 L131.7344,134.1719 Q131.7344,135.4063 132.625,136.2266 Q133.5156,137.0469 135.1094,137.0469 Q136.0469,137.0469 136.7031,136.7969 Q137.0938,136.6406 137.5156,136.2031 Q137.7813,135.9375 137.9297,135.8594 Q138.0781,135.7813 138.2813,135.7813 Q138.6094,135.7813 138.8672,136.0391 Q139.125,136.2969 139.125,136.6406 Q139.125,136.9844 138.7813,137.3906 Q138.2813,137.9688 137.4844,138.2969 Q136.4063,138.75 135.1094,138.75 Q133.5938,138.75 132.3906,138.125 Q131.4063,137.625 130.7188,136.5547 Q130.0313,135.4844 130.0313,134.2031 L130.0313,133.0469 Q130.0313,131.7188 130.6484,130.5703 Q131.2656,129.4219 132.3594,128.8047 Q133.4531,128.1875 134.6875,128.1875 Q135.4219,128.1875 136.0703,128.3516 Q136.7188,128.5156 137.2656,128.875 Z "/><text fill="#000000" font-family="sans-serif" font-size="12" lengthAdjust="spacingAndGlyphs" textLength="35" x="148.5" y="137.9102">Activity</text><line style="stroke: #A80036; stroke-width: 1.5;" x1="120.5" x2="185.5" y1="149" y2="149"/><line style="stroke: #A80036; stroke-width: 1.5;" x1="120.5" x2="185.5" y1="157" y2="157"/><!--class ImplementationDiscipline--><rect fill="#FF0000" filter="url(#f10s9a28fulqey)" height="48" id="ImplementationDiscipline" style="stroke: #A80036; stroke-width: 1.5;" width="173" x="221.5" y="117"/><rect fill="#FF0000" height="32" style="stroke: #A80036; stroke-width: 1.5;" width="173" x="221.5" y="117"/><ellipse cx="236.5" cy="133" fill="#ADD1B2" rx="11" ry="11" style="stroke: #A80036; stroke-width: 1.0;"/><path d="M239.2656,128.875 Q239.4219,128.6563 239.6094,128.5469 Q239.7969,128.4375 240.0156,128.4375 Q240.3906,128.4375 240.625,128.6953 Q240.8594,128.9531 240.8594,129.5625 L240.8594,131.0156 Q240.8594,131.625 240.625,131.8906 Q240.3906,132.1563 240.0156,132.1563 Q239.6719,132.1563 239.4688,131.9531 Q239.2656,131.7656 239.1563,131.25 Q239.1094,130.8906 238.9219,130.7031 Q238.5938,130.3281 237.9844,130.1094 Q237.375,129.8906 236.75,129.8906 Q235.9844,129.8906 235.3516,130.2188 Q234.7188,130.5469 234.2266,131.2969 Q233.7344,132.0469 233.7344,133.0781 L233.7344,134.1719 Q233.7344,135.4063 234.625,136.2266 Q235.5156,137.0469 237.1094,137.0469 Q238.0469,137.0469 238.7031,136.7969 Q239.0938,136.6406 239.5156,136.2031 Q239.7813,135.9375 239.9297,135.8594 Q240.0781,135.7813 240.2813,135.7813 Q240.6094,135.7813 240.8672,136.0391 Q241.125,136.2969 241.125,136.6406 Q241.125,136.9844 240.7813,137.3906 Q240.2813,137.9688 239.4844,138.2969 Q238.4063,138.75 237.1094,138.75 Q235.5938,138.75 234.3906,138.125 Q233.4063,137.625 232.7188,136.5547 Q232.0313,135.4844 232.0313,134.2031 L232.0313,133.0469 Q232.0313,131.7188 232.6484,130.5703 Q233.2656,129.4219 234.3594,128.8047 Q235.4531,128.1875 236.6875,128.1875 Q237.4219,128.1875 238.0703,128.3516 Q238.7188,128.5156 239.2656,128.875 Z "/><text fill="#000000" font-family="sans-serif" font-size="12" lengthAdjust="spacingAndGlyphs" textLength="141" x="250.5" y="137.9102">ImplementationDiscipline</text><line style="stroke: #A80036; stroke-width: 1.5;" x1="222.5" x2="393.5" y1="149" y2="149"/><line style="stroke: #A80036; stroke-width: 1.5;" x1="222.5" x2="393.5" y1="157" y2="157"/><!--class ImplementationActivity--><rect fill="#008000" filter="url(#f10s9a28fulqey)" height="48" id="ImplementationActivity" style="stroke: #A80036; stroke-width: 1.5;" width="153" x="167.5" y="226"/><rect fill="#008000" height="32" style="stroke: #A80036; stroke-width: 1.5;" width="153" x="167.5" y="226"/><ellipse cx="182.5" cy="242" fill="#ADD1B2" rx="11" ry="11" style="stroke: #A80036; stroke-width: 1.0;"/><path d="M185.2656,237.875 Q185.4219,237.6563 185.6094,237.5469 Q185.7969,237.4375 186.0156,237.4375 Q186.3906,237.4375 186.625,237.6953 Q186.8594,237.9531 186.8594,238.5625 L186.8594,240.0156 Q186.8594,240.625 186.625,240.8906 Q186.3906,241.1563 186.0156,241.1563 Q185.6719,241.1563 185.4688,240.9531 Q185.2656,240.7656 185.1563,240.25 Q185.1094,239.8906 184.9219,239.7031 Q184.5938,239.3281 183.9844,239.1094 Q183.375,238.8906 182.75,238.8906 Q181.9844,238.8906 181.3516,239.2188 Q180.7188,239.5469 180.2266,240.2969 Q179.7344,241.0469 179.7344,242.0781 L179.7344,243.1719 Q179.7344,244.4063 180.625,245.2266 Q181.5156,246.0469 183.1094,246.0469 Q184.0469,246.0469 184.7031,245.7969 Q185.0938,245.6406 185.5156,245.2031 Q185.7813,244.9375 185.9297,244.8594 Q186.0781,244.7813 186.2813,244.7813 Q186.6094,244.7813 186.8672,245.0391 Q187.125,245.2969 187.125,245.6406 Q187.125,245.9844 186.7813,246.3906 Q186.2813,246.9688 185.4844,247.2969 Q184.4063,247.75 183.1094,247.75 Q181.5938,247.75 180.3906,247.125 Q179.4063,246.625 178.7188,245.5547 Q178.0313,244.4844 178.0313,243.2031 L178.0313,242.0469 Q178.0313,240.7188 178.6484,239.5703 Q179.2656,238.4219 180.3594,237.8047 Q181.4531,237.1875 182.6875,237.1875 Q183.4219,237.1875 184.0703,237.3516 Q184.7188,237.5156 185.2656,237.875 Z "/><text fill="#000000" font-family="sans-serif" font-size="12" lengthAdjust="spacingAndGlyphs" textLength="121" x="196.5" y="246.9102">ImplementationActivity</text><line style="stroke: #A80036; stroke-width: 1.5;" x1="168.5" x2="319.5" y1="258" y2="258"/><line style="stroke: #A80036; stroke-width: 1.5;" x1="168.5" x2="319.5" y1="266" y2="266"/><!--class Member--><rect fill="#FFFFFF" filter="url(#f10s9a28fulqey)" height="48" id="Member" style="stroke: #A80036; stroke-width: 1.5;" width="77" x="253.5" y="335"/><rect fill="#FFFFFF" height="32" style="stroke: #A80036; stroke-width: 1.5;" width="77" x="253.5" y="335"/><ellipse cx="268.5" cy="351" fill="#ADD1B2" rx="11" ry="11" style="stroke: #A80036; stroke-width: 1.0;"/><path d="M271.2656,346.875 Q271.4219,346.6563 271.6094,346.5469 Q271.7969,346.4375 272.0156,346.4375 Q272.3906,346.4375 272.625,346.6953 Q272.8594,346.9531 272.8594,347.5625 L272.8594,349.0156 Q272.8594,349.625 272.625,349.8906 Q272.3906,350.1563 272.0156,350.1563 Q271.6719,350.1563 271.4688,349.9531 Q271.2656,349.7656 271.1563,349.25 Q271.1094,348.8906 270.9219,348.7031 Q270.5938,348.3281 269.9844,348.1094 Q269.375,347.8906 268.75,347.8906 Q267.9844,347.8906 267.3516,348.2188 Q266.7188,348.5469 266.2266,349.2969 Q265.7344,350.0469 265.7344,351.0781 L265.7344,352.1719 Q265.7344,353.4063 266.625,354.2266 Q267.5156,355.0469 269.1094,355.0469 Q270.0469,355.0469 270.7031,354.7969 Q271.0938,354.6406 271.5156,354.2031 Q271.7813,353.9375 271.9297,353.8594 Q272.0781,353.7813 272.2813,353.7813 Q272.6094,353.7813 272.8672,354.0391 Q273.125,354.2969 273.125,354.6406 Q273.125,354.9844 272.7813,355.3906 Q272.2813,355.9688 271.4844,356.2969 Q270.4063,356.75 269.1094,356.75 Q267.5938,356.75 266.3906,356.125 Q265.4063,355.625 264.7188,354.5547 Q264.0313,353.4844 264.0313,352.2031 L264.0313,351.0469 Q264.0313,349.7188 264.6484,348.5703 Q265.2656,347.4219 266.3594,346.8047 Q267.4531,346.1875 268.6875,346.1875 Q269.4219,346.1875 270.0703,346.3516 Q270.7188,346.5156 271.2656,346.875 Z "/><text fill="#000000" font-family="sans-serif" font-size="12" lengthAdjust="spacingAndGlyphs" textLength="45" x="282.5" y="355.9102">Member</text><line style="stroke: #A80036; stroke-width: 1.5;" x1="254.5" x2="329.5" y1="367" y2="367"/><line style="stroke: #A80036; stroke-width: 1.5;" x1="254.5" x2="329.5" y1="375" y2="375"/><!--class Role--><rect fill="#FFFFFF" filter="url(#f10s9a28fulqey)" height="48" id="Role" style="stroke: #A80036; stroke-width: 1.5;" width="58" x="280" y="444"/><rect fill="#FFFFFF" height="32" style="stroke: #A80036; stroke-width: 1.5;" width="58" x="280" y="444"/><ellipse cx="295" cy="460" fill="#ADD1B2" rx="11" ry="11" style="stroke: #A80036; stroke-width: 1.0;"/><path d="M297.7656,455.875 Q297.9219,455.6563 298.1094,455.5469 Q298.2969,455.4375 298.5156,455.4375 Q298.8906,455.4375 299.125,455.6953 Q299.3594,455.9531 299.3594,456.5625 L299.3594,458.0156 Q299.3594,458.625 299.125,458.8906 Q298.8906,459.1563 298.5156,459.1563 Q298.1719,459.1563 297.9688,458.9531 Q297.7656,458.7656 297.6563,458.25 Q297.6094,457.8906 297.4219,457.7031 Q297.0938,457.3281 296.4844,457.1094 Q295.875,456.8906 295.25,456.8906 Q294.4844,456.8906 293.8516,457.2188 Q293.2188,457.5469 292.7266,458.2969 Q292.2344,459.0469 292.2344,460.0781 L292.2344,461.1719 Q292.2344,462.4063 293.125,463.2266 Q294.0156,464.0469 295.6094,464.0469 Q296.5469,464.0469 297.2031,463.7969 Q297.5938,463.6406 298.0156,463.2031 Q298.2813,462.9375 298.4297,462.8594 Q298.5781,462.7813 298.7813,462.7813 Q299.1094,462.7813 299.3672,463.0391 Q299.625,463.2969 299.625,463.6406 Q299.625,463.9844 299.2813,464.3906 Q298.7813,464.9688 297.9844,465.2969 Q296.9063,465.75 295.6094,465.75 Q294.0938,465.75 292.8906,465.125 Q291.9063,464.625 291.2188,463.5547 Q290.5313,462.4844 290.5313,461.2031 L290.5313,460.0469 Q290.5313,458.7188 291.1484,457.5703 Q291.7656,456.4219 292.8594,455.8047 Q293.9531,455.1875 295.1875,455.1875 Q295.9219,455.1875 296.5703,455.3516 Q297.2188,455.5156 297.7656,455.875 Z "/><text fill="#000000" font-family="sans-serif" font-size="12" lengthAdjust="spacingAndGlyphs" textLength="26" x="309" y="464.9102">Role</text><line style="stroke: #A80036; stroke-width: 1.5;" x1="281" x2="337" y1="476" y2="476"/><line style="stroke: #A80036; stroke-width: 1.5;" x1="281" x2="337" y1="484" y2="484"/><!--class ImplementationRole--><rect fill="#0000FF" filter="url(#f10s9a28fulqey)" height="48" id="ImplementationRole" style="stroke: #A80036; stroke-width: 1.5;" width="144" x="263" y="553"/><rect fill="#0000FF" height="32" style="stroke: #A80036; stroke-width: 1.5;" width="144" x="263" y="553"/><ellipse cx="278" cy="569" fill="#ADD1B2" rx="11" ry="11" style="stroke: #A80036; stroke-width: 1.0;"/><path d="M280.7656,564.875 Q280.9219,564.6563 281.1094,564.5469 Q281.2969,564.4375 281.5156,564.4375 Q281.8906,564.4375 282.125,564.6953 Q282.3594,564.9531 282.3594,565.5625 L282.3594,567.0156 Q282.3594,567.625 282.125,567.8906 Q281.8906,568.1563 281.5156,568.1563 Q281.1719,568.1563 280.9688,567.9531 Q280.7656,567.7656 280.6563,567.25 Q280.6094,566.8906 280.4219,566.7031 Q280.0938,566.3281 279.4844,566.1094 Q278.875,565.8906 278.25,565.8906 Q277.4844,565.8906 276.8516,566.2188 Q276.2188,566.5469 275.7266,567.2969 Q275.2344,568.0469 275.2344,569.0781 L275.2344,570.1719 Q275.2344,571.4063 276.125,572.2266 Q277.0156,573.0469 278.6094,573.0469 Q279.5469,573.0469 280.2031,572.7969 Q280.5938,572.6406 281.0156,572.2031 Q281.2813,571.9375 281.4297,571.8594 Q281.5781,571.7813 281.7813,571.7813 Q282.1094,571.7813 282.3672,572.0391 Q282.625,572.2969 282.625,572.6406 Q282.625,572.9844 282.2813,573.3906 Q281.7813,573.9688 280.9844,574.2969 Q279.9063,574.75 278.6094,574.75 Q277.0938,574.75 275.8906,574.125 Q274.9063,573.625 274.2188,572.5547 Q273.5313,571.4844 273.5313,570.2031 L273.5313,569.0469 Q273.5313,567.7188 274.1484,566.5703 Q274.7656,565.4219 275.8594,564.8047 Q276.9531,564.1875 278.1875,564.1875 Q278.9219,564.1875 279.5703,564.3516 Q280.2188,564.5156 280.7656,564.875 Z "/><text fill="#000000" font-family="sans-serif" font-size="12" lengthAdjust="spacingAndGlyphs" textLength="112" x="292" y="573.9102">ImplementationRole</text><line style="stroke: #A80036; stroke-width: 1.5;" x1="264" x2="406" y1="585" y2="585"/><line style="stroke: #A80036; stroke-width: 1.5;" x1="264" x2="406" y1="593" y2="593"/><!--class Architect--><rect fill="#0000FF" filter="url(#f10s9a28fulqey)" height="48" id="Architect" style="stroke: #A80036; stroke-width: 1.5;" width="78" x="205" y="662"/><rect fill="#0000FF" height="32" style="stroke: #A80036; stroke-width: 1.5;" width="78" x="205" y="662"/><ellipse cx="220" cy="678" fill="#ADD1B2" rx="11" ry="11" style="stroke: #A80036; stroke-width: 1.0;"/><path d="M222.7656,673.875 Q222.9219,673.6563 223.1094,673.5469 Q223.2969,673.4375 223.5156,673.4375 Q223.8906,673.4375 224.125,673.6953 Q224.3594,673.9531 224.3594,674.5625 L224.3594,676.0156 Q224.3594,676.625 224.125,676.8906 Q223.8906,677.1563 223.5156,677.1563 Q223.1719,677.1563 222.9688,676.9531 Q222.7656,676.7656 222.6563,676.25 Q222.6094,675.8906 222.4219,675.7031 Q222.0938,675.3281 221.4844,675.1094 Q220.875,674.8906 220.25,674.8906 Q219.4844,674.8906 218.8516,675.2188 Q218.2188,675.5469 217.7266,676.2969 Q217.2344,677.0469 217.2344,678.0781 L217.2344,679.1719 Q217.2344,680.4063 218.125,681.2266 Q219.0156,682.0469 220.6094,682.0469 Q221.5469,682.0469 222.2031,681.7969 Q222.5938,681.6406 223.0156,681.2031 Q223.2813,680.9375 223.4297,680.8594 Q223.5781,680.7813 223.7813,680.7813 Q224.1094,680.7813 224.3672,681.0391 Q224.625,681.2969 224.625,681.6406 Q224.625,681.9844 224.2813,682.3906 Q223.7813,682.9688 222.9844,683.2969 Q221.9063,683.75 220.6094,683.75 Q219.0938,683.75 217.8906,683.125 Q216.9063,682.625 216.2188,681.5547 Q215.5313,680.4844 215.5313,679.2031 L215.5313,678.0469 Q215.5313,676.7188 216.1484,675.5703 Q216.7656,674.4219 217.8594,673.8047 Q218.9531,673.1875 220.1875,673.1875 Q220.9219,673.1875 221.5703,673.3516 Q222.2188,673.5156 222.7656,673.875 Z "/><text fill="#000000" font-family="sans-serif" font-size="12" lengthAdjust="spacingAndGlyphs" textLength="46" x="234" y="682.9102">Architect</text><line style="stroke: #A80036; stroke-width: 1.5;" x1="206" x2="282" y1="694" y2="694"/><line style="stroke: #A80036; stroke-width: 1.5;" x1="206" x2="282" y1="702" y2="702"/><!--class IntegratorSystems--><rect fill="#0000FF" filter="url(#f10s9a28fulqey)" height="48" id="IntegratorSystems" style="stroke: #A80036; stroke-width: 1.5;" width="132" x="255" y="740"/><rect fill="#0000FF" height="32" style="stroke: #A80036; stroke-width: 1.5;" width="132" x="255" y="740"/><ellipse cx="270" cy="756" fill="#ADD1B2" rx="11" ry="11" style="stroke: #A80036; stroke-width: 1.0;"/><path d="M272.7656,751.875 Q272.9219,751.6563 273.1094,751.5469 Q273.2969,751.4375 273.5156,751.4375 Q273.8906,751.4375 274.125,751.6953 Q274.3594,751.9531 274.3594,752.5625 L274.3594,754.0156 Q274.3594,754.625 274.125,754.8906 Q273.8906,755.1563 273.5156,755.1563 Q273.1719,755.1563 272.9688,754.9531 Q272.7656,754.7656 272.6563,754.25 Q272.6094,753.8906 272.4219,753.7031 Q272.0938,753.3281 271.4844,753.1094 Q270.875,752.8906 270.25,752.8906 Q269.4844,752.8906 268.8516,753.2188 Q268.2188,753.5469 267.7266,754.2969 Q267.2344,755.0469 267.2344,756.0781 L267.2344,757.1719 Q267.2344,758.4063 268.125,759.2266 Q269.0156,760.0469 270.6094,760.0469 Q271.5469,760.0469 272.2031,759.7969 Q272.5938,759.6406 273.0156,759.2031 Q273.2813,758.9375 273.4297,758.8594 Q273.5781,758.7813 273.7813,758.7813 Q274.1094,758.7813 274.3672,759.0391 Q274.625,759.2969 274.625,759.6406 Q274.625,759.9844 274.2813,760.3906 Q273.7813,760.9688 272.9844,761.2969 Q271.9063,761.75 270.6094,761.75 Q269.0938,761.75 267.8906,761.125 Q266.9063,760.625 266.2188,759.5547 Q265.5313,758.4844 265.5313,757.2031 L265.5313,756.0469 Q265.5313,754.7188 266.1484,753.5703 Q266.7656,752.4219 267.8594,751.8047 Q268.9531,751.1875 270.1875,751.1875 Q270.9219,751.1875 271.5703,751.3516 Q272.2188,751.5156 272.7656,751.875 Z "/><text fill="#000000" font-family="sans-serif" font-size="12" lengthAdjust="spacingAndGlyphs" textLength="100" x="284" y="760.9102">IntegratorSystems</text><line style="stroke: #A80036; stroke-width: 1.5;" x1="256" x2="386" y1="772" y2="772"/><line style="stroke: #A80036; stroke-width: 1.5;" x1="256" x2="386" y1="780" y2="780"/><!--class EngineerComponents--><rect fill="#0000FF" filter="url(#f10s9a28fulqey)" height="48" id="EngineerComponents" style="stroke: #A80036; stroke-width: 1.5;" width="154" x="274" y="944"/><rect fill="#0000FF" height="32" style="stroke: #A80036; stroke-width: 1.5;" width="154" x="274" y="944"/><ellipse cx="289" cy="960" fill="#ADD1B2" rx="11" ry="11" style="stroke: #A80036; stroke-width: 1.0;"/><path d="M291.7656,955.875 Q291.9219,955.6563 292.1094,955.5469 Q292.2969,955.4375 292.5156,955.4375 Q292.8906,955.4375 293.125,955.6953 Q293.3594,955.9531 293.3594,956.5625 L293.3594,958.0156 Q293.3594,958.625 293.125,958.8906 Q292.8906,959.1563 292.5156,959.1563 Q292.1719,959.1563 291.9688,958.9531 Q291.7656,958.7656 291.6563,958.25 Q291.6094,957.8906 291.4219,957.7031 Q291.0938,957.3281 290.4844,957.1094 Q289.875,956.8906 289.25,956.8906 Q288.4844,956.8906 287.8516,957.2188 Q287.2188,957.5469 286.7266,958.2969 Q286.2344,959.0469 286.2344,960.0781 L286.2344,961.1719 Q286.2344,962.4063 287.125,963.2266 Q288.0156,964.0469 289.6094,964.0469 Q290.5469,964.0469 291.2031,963.7969 Q291.5938,963.6406 292.0156,963.2031 Q292.2813,962.9375 292.4297,962.8594 Q292.5781,962.7813 292.7813,962.7813 Q293.1094,962.7813 293.3672,963.0391 Q293.625,963.2969 293.625,963.6406 Q293.625,963.9844 293.2813,964.3906 Q292.7813,964.9688 291.9844,965.2969 Q290.9063,965.75 289.6094,965.75 Q288.0938,965.75 286.8906,965.125 Q285.9063,964.625 285.2188,963.5547 Q284.5313,962.4844 284.5313,961.2031 L284.5313,960.0469 Q284.5313,958.7188 285.1484,957.5703 Q285.7656,956.4219 286.8594,955.8047 Q287.9531,955.1875 289.1875,955.1875 Q289.9219,955.1875 290.5703,955.3516 Q291.2188,955.5156 291.7656,955.875 Z "/><text fill="#000000" font-family="sans-serif" font-size="12" lengthAdjust="spacingAndGlyphs" textLength="122" x="303" y="964.9102">EngineerComponents</text><line style="stroke: #A80036; stroke-width: 1.5;" x1="275" x2="427" y1="976" y2="976"/><line style="stroke: #A80036; stroke-width: 1.5;" x1="275" x2="427" y1="984" y2="984"/><!--class ImplementArchitecture--><rect fill="#008000" filter="url(#f10s9a28fulqey)" height="48" id="ImplementArchitecture" style="stroke: #A80036; stroke-width: 1.5;" width="155" x="130.5" y="818"/><rect fill="#008000" height="32" style="stroke: #A80036; stroke-width: 1.5;" width="155" x="130.5" y="818"/><ellipse cx="145.5" cy="834" fill="#ADD1B2" rx="11" ry="11" style="stroke: #A80036; stroke-width: 1.0;"/><path d="M148.2656,829.875 Q148.4219,829.6563 148.6094,829.5469 Q148.7969,829.4375 149.0156,829.4375 Q149.3906,829.4375 149.625,829.6953 Q149.8594,829.9531 149.8594,830.5625 L149.8594,832.0156 Q149.8594,832.625 149.625,832.8906 Q149.3906,833.1563 149.0156,833.1563 Q148.6719,833.1563 148.4688,832.9531 Q148.2656,832.7656 148.1563,832.25 Q148.1094,831.8906 147.9219,831.7031 Q147.5938,831.3281 146.9844,831.1094 Q146.375,830.8906 145.75,830.8906 Q144.9844,830.8906 144.3516,831.2188 Q143.7188,831.5469 143.2266,832.2969 Q142.7344,833.0469 142.7344,834.0781 L142.7344,835.1719 Q142.7344,836.4063 143.625,837.2266 Q144.5156,838.0469 146.1094,838.0469 Q147.0469,838.0469 147.7031,837.7969 Q148.0938,837.6406 148.5156,837.2031 Q148.7813,836.9375 148.9297,836.8594 Q149.0781,836.7813 149.2813,836.7813 Q149.6094,836.7813 149.8672,837.0391 Q150.125,837.2969 150.125,837.6406 Q150.125,837.9844 149.7813,838.3906 Q149.2813,838.9688 148.4844,839.2969 Q147.4063,839.75 146.1094,839.75 Q144.5938,839.75 143.3906,839.125 Q142.4063,838.625 141.7188,837.5547 Q141.0313,836.4844 141.0313,835.2031 L141.0313,834.0469 Q141.0313,832.7188 141.6484,831.5703 Q142.2656,830.4219 143.3594,829.8047 Q144.4531,829.1875 145.6875,829.1875 Q146.4219,829.1875 147.0703,829.3516 Q147.7188,829.5156 148.2656,829.875 Z "/><text fill="#000000" font-family="sans-serif" font-size="12" lengthAdjust="spacingAndGlyphs" textLength="123" x="159.5" y="838.9102">ImplementArchitecture</text><line style="stroke: #A80036; stroke-width: 1.5;" x1="131.5" x2="284.5" y1="850" y2="850"/><line style="stroke: #A80036; stroke-width: 1.5;" x1="131.5" x2="284.5" y1="858" y2="858"/><!--class IntegrateSystems--><rect fill="#008000" filter="url(#f10s9a28fulqey)" height="48" id="IntegrateSystems" style="stroke: #A80036; stroke-width: 1.5;" width="128" x="99" y="944"/><rect fill="#008000" height="32" style="stroke: #A80036; stroke-width: 1.5;" width="128" x="99" y="944"/><ellipse cx="114" cy="960" fill="#ADD1B2" rx="11" ry="11" style="stroke: #A80036; stroke-width: 1.0;"/><path d="M116.7656,955.875 Q116.9219,955.6563 117.1094,955.5469 Q117.2969,955.4375 117.5156,955.4375 Q117.8906,955.4375 118.125,955.6953 Q118.3594,955.9531 118.3594,956.5625 L118.3594,958.0156 Q118.3594,958.625 118.125,958.8906 Q117.8906,959.1563 117.5156,959.1563 Q117.1719,959.1563 116.9688,958.9531 Q116.7656,958.7656 116.6563,958.25 Q116.6094,957.8906 116.4219,957.7031 Q116.0938,957.3281 115.4844,957.1094 Q114.875,956.8906 114.25,956.8906 Q113.4844,956.8906 112.8516,957.2188 Q112.2188,957.5469 111.7266,958.2969 Q111.2344,959.0469 111.2344,960.0781 L111.2344,961.1719 Q111.2344,962.4063 112.125,963.2266 Q113.0156,964.0469 114.6094,964.0469 Q115.5469,964.0469 116.2031,963.7969 Q116.5938,963.6406 117.0156,963.2031 Q117.2813,962.9375 117.4297,962.8594 Q117.5781,962.7813 117.7813,962.7813 Q118.1094,962.7813 118.3672,963.0391 Q118.625,963.2969 118.625,963.6406 Q118.625,963.9844 118.2813,964.3906 Q117.7813,964.9688 116.9844,965.2969 Q115.9063,965.75 114.6094,965.75 Q113.0938,965.75 111.8906,965.125 Q110.9063,964.625 110.2188,963.5547 Q109.5313,962.4844 109.5313,961.2031 L109.5313,960.0469 Q109.5313,958.7188 110.1484,957.5703 Q110.7656,956.4219 111.8594,955.8047 Q112.9531,955.1875 114.1875,955.1875 Q114.9219,955.1875 115.5703,955.3516 Q116.2188,955.5156 116.7656,955.875 Z "/><text fill="#000000" font-family="sans-serif" font-size="12" lengthAdjust="spacingAndGlyphs" textLength="96" x="128" y="964.9102">IntegrateSystems</text><line style="stroke: #A80036; stroke-width: 1.5;" x1="100" x2="226" y1="976" y2="976"/><line style="stroke: #A80036; stroke-width: 1.5;" x1="100" x2="226" y1="984" y2="984"/><!--class ImplementClass--><rect fill="#008000" filter="url(#f10s9a28fulqey)" height="48" id="ImplementClass" style="stroke: #A80036; stroke-width: 1.5;" width="124" x="159" y="1196"/><rect fill="#008000" height="32" style="stroke: #A80036; stroke-width: 1.5;" width="124" x="159" y="1196"/><ellipse cx="174" cy="1212" fill="#ADD1B2" rx="11" ry="11" style="stroke: #A80036; stroke-width: 1.0;"/><path d="M176.7656,1207.875 Q176.9219,1207.6563 177.1094,1207.5469 Q177.2969,1207.4375 177.5156,1207.4375 Q177.8906,1207.4375 178.125,1207.6953 Q178.3594,1207.9531 178.3594,1208.5625 L178.3594,1210.0156 Q178.3594,1210.625 178.125,1210.8906 Q177.8906,1211.1563 177.5156,1211.1563 Q177.1719,1211.1563 176.9688,1210.9531 Q176.7656,1210.7656 176.6563,1210.25 Q176.6094,1209.8906 176.4219,1209.7031 Q176.0938,1209.3281 175.4844,1209.1094 Q174.875,1208.8906 174.25,1208.8906 Q173.4844,1208.8906 172.8516,1209.2188 Q172.2188,1209.5469 171.7266,1210.2969 Q171.2344,1211.0469 171.2344,1212.0781 L171.2344,1213.1719 Q171.2344,1214.4063 172.125,1215.2266 Q173.0156,1216.0469 174.6094,1216.0469 Q175.5469,1216.0469 176.2031,1215.7969 Q176.5938,1215.6406 177.0156,1215.2031 Q177.2813,1214.9375 177.4297,1214.8594 Q177.5781,1214.7813 177.7813,1214.7813 Q178.1094,1214.7813 178.3672,1215.0391 Q178.625,1215.2969 178.625,1215.6406 Q178.625,1215.9844 178.2813,1216.3906 Q177.7813,1216.9688 176.9844,1217.2969 Q175.9063,1217.75 174.6094,1217.75 Q173.0938,1217.75 171.8906,1217.125 Q170.9063,1216.625 170.2188,1215.5547 Q169.5313,1214.4844 169.5313,1213.2031 L169.5313,1212.0469 Q169.5313,1210.7188 170.1484,1209.5703 Q170.7656,1208.4219 171.8594,1207.8047 Q172.9531,1207.1875 174.1875,1207.1875 Q174.9219,1207.1875 175.5703,1207.3516 Q176.2188,1207.5156 176.7656,1207.875 Z "/><text fill="#000000" font-family="sans-serif" font-size="12" lengthAdjust="spacingAndGlyphs" textLength="92" x="188" y="1216.9102">ImplementClass</text><line style="stroke: #A80036; stroke-width: 1.5;" x1="160" x2="282" y1="1228" y2="1228"/><line style="stroke: #A80036; stroke-width: 1.5;" x1="160" x2="282" y1="1236" y2="1236"/><!--class ImplementSubsystem--><rect fill="#008000" filter="url(#f10s9a28fulqey)" height="48" id="ImplementSubsystem" style="stroke: #A80036; stroke-width: 1.5;" width="153" x="274.5" y="1070"/><rect fill="#008000" height="32" style="stroke: #A80036; stroke-width: 1.5;" width="153" x="274.5" y="1070"/><ellipse cx="289.5" cy="1086" fill="#ADD1B2" rx="11" ry="11" style="stroke: #A80036; stroke-width: 1.0;"/><path d="M292.2656,1081.875 Q292.4219,1081.6563 292.6094,1081.5469 Q292.7969,1081.4375 293.0156,1081.4375 Q293.3906,1081.4375 293.625,1081.6953 Q293.8594,1081.9531 293.8594,1082.5625 L293.8594,1084.0156 Q293.8594,1084.625 293.625,1084.8906 Q293.3906,1085.1563 293.0156,1085.1563 Q292.6719,1085.1563 292.4688,1084.9531 Q292.2656,1084.7656 292.1563,1084.25 Q292.1094,1083.8906 291.9219,1083.7031 Q291.5938,1083.3281 290.9844,1083.1094 Q290.375,1082.8906 289.75,1082.8906 Q288.9844,1082.8906 288.3516,1083.2188 Q287.7188,1083.5469 287.2266,1084.2969 Q286.7344,1085.0469 286.7344,1086.0781 L286.7344,1087.1719 Q286.7344,1088.4063 287.625,1089.2266 Q288.5156,1090.0469 290.1094,1090.0469 Q291.0469,1090.0469 291.7031,1089.7969 Q292.0938,1089.6406 292.5156,1089.2031 Q292.7813,1088.9375 292.9297,1088.8594 Q293.0781,1088.7813 293.2813,1088.7813 Q293.6094,1088.7813 293.8672,1089.0391 Q294.125,1089.2969 294.125,1089.6406 Q294.125,1089.9844 293.7813,1090.3906 Q293.2813,1090.9688 292.4844,1091.2969 Q291.4063,1091.75 290.1094,1091.75 Q288.5938,1091.75 287.3906,1091.125 Q286.4063,1090.625 285.7188,1089.5547 Q285.0313,1088.4844 285.0313,1087.2031 L285.0313,1086.0469 Q285.0313,1084.7188 285.6484,1083.5703 Q286.2656,1082.4219 287.3594,1081.8047 Q288.4531,1081.1875 289.6875,1081.1875 Q290.4219,1081.1875 291.0703,1081.3516 Q291.7188,1081.5156 292.2656,1081.875 Z "/><text fill="#000000" font-family="sans-serif" font-size="12" lengthAdjust="spacingAndGlyphs" textLength="121" x="303.5" y="1090.9102">ImplementSubsystem</text><line style="stroke: #A80036; stroke-width: 1.5;" x1="275.5" x2="426.5" y1="1102" y2="1102"/><line style="stroke: #A80036; stroke-width: 1.5;" x1="275.5" x2="426.5" y1="1110" y2="1110"/><!--class PerformUnitTests--><rect fill="#008000" filter="url(#f10s9a28fulqey)" height="48" id="PerformUnitTests" style="stroke: #A80036; stroke-width: 1.5;" width="129" x="237.5" y="1322"/><rect fill="#008000" height="32" style="stroke: #A80036; stroke-width: 1.5;" width="129" x="237.5" y="1322"/><ellipse cx="252.5" cy="1338" fill="#ADD1B2" rx="11" ry="11" style="stroke: #A80036; stroke-width: 1.0;"/><path d="M255.2656,1333.875 Q255.4219,1333.6563 255.6094,1333.5469 Q255.7969,1333.4375 256.0156,1333.4375 Q256.3906,1333.4375 256.625,1333.6953 Q256.8594,1333.9531 256.8594,1334.5625 L256.8594,1336.0156 Q256.8594,1336.625 256.625,1336.8906 Q256.3906,1337.1563 256.0156,1337.1563 Q255.6719,1337.1563 255.4688,1336.9531 Q255.2656,1336.7656 255.1563,1336.25 Q255.1094,1335.8906 254.9219,1335.7031 Q254.5938,1335.3281 253.9844,1335.1094 Q253.375,1334.8906 252.75,1334.8906 Q251.9844,1334.8906 251.3516,1335.2188 Q250.7188,1335.5469 250.2266,1336.2969 Q249.7344,1337.0469 249.7344,1338.0781 L249.7344,1339.1719 Q249.7344,1340.4063 250.625,1341.2266 Q251.5156,1342.0469 253.1094,1342.0469 Q254.0469,1342.0469 254.7031,1341.7969 Q255.0938,1341.6406 255.5156,1341.2031 Q255.7813,1340.9375 255.9297,1340.8594 Q256.0781,1340.7813 256.2813,1340.7813 Q256.6094,1340.7813 256.8672,1341.0391 Q257.125,1341.2969 257.125,1341.6406 Q257.125,1341.9844 256.7813,1342.3906 Q256.2813,1342.9688 255.4844,1343.2969 Q254.4063,1343.75 253.1094,1343.75 Q251.5938,1343.75 250.3906,1343.125 Q249.4063,1342.625 248.7188,1341.5547 Q248.0313,1340.4844 248.0313,1339.2031 L248.0313,1338.0469 Q248.0313,1336.7188 248.6484,1335.5703 Q249.2656,1334.4219 250.3594,1333.8047 Q251.4531,1333.1875 252.6875,1333.1875 Q253.4219,1333.1875 254.0703,1333.3516 Q254.7188,1333.5156 255.2656,1333.875 Z "/><text fill="#000000" font-family="sans-serif" font-size="12" lengthAdjust="spacingAndGlyphs" textLength="97" x="266.5" y="1342.9102">PerformUnitTests</text><line style="stroke: #A80036; stroke-width: 1.5;" x1="238.5" x2="365.5" y1="1354" y2="1354"/><line style="stroke: #A80036; stroke-width: 1.5;" x1="238.5" x2="365.5" y1="1362" y2="1362"/><!--link Discipline to Activity--><path d="M205.577,66.94 C196.618,79.39 186.48,93.48 177.513,105.94 " fill="none" id="Discipline-Activity" style="stroke: #A80036; stroke-width: 1.0;"/><polygon fill="#A80036" points="169.675,116.83,178.1764,111.8574,172.5937,112.7703,171.6808,107.1876,169.675,116.83" style="stroke: #A80036; stroke-width: 1.0;"/><line style="stroke: #A80036; stroke-width: 1.0;" x1="172.5937" x2="177.269" y1="112.7703" y2="106.275"/><polygon fill="#A80036" points="213.292,56.22,206.5396,58.7507,206.2785,65.9571,213.031,63.4264,213.292,56.22" style="stroke: #A80036; stroke-width: 1.0;"/><!--link Discipline to ImplementationDiscipline--><path d="M258.916,72.67 C269.756,87.54 281.711,103.94 291.108,116.83 " fill="none" id="Discipline-ImplementationDiscipline" style="stroke: #A80036; stroke-width: 1.0;"/><polygon fill="none" points="253.05,76.5,246.925,56.22,264.363,68.26,253.05,76.5" style="stroke: #A80036; stroke-width: 1.0;"/><!--link ImplementationDiscipline to ImplementationActivity--><path d="M287.419,176.41 C280.096,188.65 271.854,202.43 264.535,214.67 " fill="none" id="ImplementationDiscipline-ImplementationActivity" style="stroke: #A80036; stroke-width: 1.0;"/><polygon fill="#A80036" points="257.86,225.83,265.9119,220.1584,260.426,221.5387,259.0458,216.0528,257.86,225.83" style="stroke: #A80036; stroke-width: 1.0;"/><line style="stroke: #A80036; stroke-width: 1.0;" x1="260.426" x2="264.533" y1="221.5387" y2="214.675"/><polygon fill="#A80036" points="294.113,165.22,287.6007,168.3168,287.9546,175.5192,294.4669,172.4224,294.113,165.22" style="stroke: #A80036; stroke-width: 1.0;"/><!--link Activity to ImplementationActivity--><path d="M185.913,180.7 C198.774,195.82 213.091,212.66 224.293,225.83 " fill="none" id="Activity-ImplementationActivity" style="stroke: #A80036; stroke-width: 1.0;"/><polygon fill="none" points="180.37,184.99,172.746,165.22,191.035,175.92,180.37,184.99" style="stroke: #A80036; stroke-width: 1.0;"/><!--link ImplementationActivity to Member--><path d="M259.859,286.35 C265.111,298.06 270.953,311.08 276.2,322.78 " fill="none" id="ImplementationActivity-Member" style="stroke: #A80036; stroke-width: 1.0;"/><polygon fill="#A80036" points="281.605,334.83,281.5652,324.9812,279.5559,330.2692,274.2679,328.2598,281.605,334.83" style="stroke: #A80036; stroke-width: 1.0;"/><line style="stroke: #A80036; stroke-width: 1.0;" x1="279.5559" x2="276.284" y1="330.2692" y2="322.965"/><polygon fill="#A80036" points="254.415,274.22,253.2178,281.331,259.3214,285.1711,260.5186,278.0601,254.415,274.22" style="stroke: #A80036; stroke-width: 1.0;"/><!--link Member to Role--><path d="M297.768,396.302 C299.543,407.477 301.497,419.772 303.269,430.931 " fill="none" id="Member-Role" style="stroke: #A80036; stroke-width: 1.0;"/><polygon fill="#A80036" points="305.318,443.828,307.8561,434.3118,304.5334,438.8899,299.9552,435.5672,305.318,443.828" style="stroke: #A80036; stroke-width: 1.0;"/><line style="stroke: #A80036; stroke-width: 1.0;" x1="304.5334" x2="303.2785" y1="438.8899" y2="430.989"/><polygon fill="#A80036" points="295.689,383.217,292.6801,389.7704,297.5721,395.0683,300.581,388.515,295.689,383.217" style="stroke: #A80036; stroke-width: 1.0;"/><!--link Role to ImplementationRole--><path d="M319.469,512.086 C322.853,526.012 326.475,540.917 329.369,552.828 " fill="none" id="Role-ImplementationRole" style="stroke: #A80036; stroke-width: 1.0;"/><polygon fill="none" points="312.562,513.305,314.642,492.217,326.166,509.999,312.562,513.305" style="stroke: #A80036; stroke-width: 1.0;"/><!--link ImplementationRole to Architect--><path d="M302.087,616.7 C289.226,631.822 274.909,648.656 263.707,661.828 " fill="none" id="ImplementationRole-Architect" style="stroke: #A80036; stroke-width: 1.0;"/><polygon fill="none" points="296.965,611.918,315.254,601.217,307.63,620.988,296.965,611.918" style="stroke: #A80036; stroke-width: 1.0;"/><!--link ImplementationRole to IntegratorSystems--><path d="M331.736,621.132 C328.929,658.225 324.988,710.299 322.745,739.944 " fill="none" id="ImplementationRole-IntegratorSystems" style="stroke: #A80036; stroke-width: 1.0;"/><polygon fill="none" points="324.766,620.471,333.255,601.056,338.726,621.528,324.766,620.471" style="stroke: #A80036; stroke-width: 1.0;"/><!--link ImplementationRole to EngineerComponents--><path d="M353.225,619.774 C366.12,651.925 382.122,697.847 388,740 C398.422,814.744 373.288,902.852 359.418,943.852 " fill="none" id="ImplementationRole-EngineerComponents" style="stroke: #A80036; stroke-width: 1.0;"/><polygon fill="none" points="346.739,622.408,345.527,601.253,359.667,617.034,346.739,622.408" style="stroke: #A80036; stroke-width: 1.0;"/><!--link Architect to ImplementArchitecture--><path d="M237.455,714.996 C230.57,744.45 219.858,790.272 213.426,817.787 " fill="none" id="Architect-ImplementArchitecture" style="stroke: #A80036; stroke-width: 1.0;"/><polygon fill="#A80036" points="238.61,710.055,232.6678,717.9093,237.4728,714.924,240.4581,719.7289,238.61,710.055" style="stroke: #A80036; stroke-width: 1.0;"/><!--link IntegratorSystems to IntegrateSystems--><path d="M321.038,793.41 C319.906,814.684 315.808,843.818 303,866 C282.844,900.909 245.222,927.016 214.052,943.934 " fill="none" id="IntegratorSystems-IntegrateSystems" style="stroke: #A80036; stroke-width: 1.0;"/><polygon fill="#A80036" points="321.266,788.179,316.8764,796.9956,321.0475,793.1742,324.8688,797.3452,321.266,788.179" style="stroke: #A80036; stroke-width: 1.0;"/><!--link EngineerComponents to ImplementClass--><path d="M318.798,995.65 C298.181,1014.397 272.483,1041.2 257,1070 C235.01,1110.902 226.272,1165.274 222.937,1195.747 " fill="none" id="EngineerComponents-ImplementClass" style="stroke: #A80036; stroke-width: 1.0;"/><polygon fill="#A80036" points="322.585,992.244,313.2177,995.2861,318.8666,995.5867,318.5661,1001.2356,322.585,992.244" style="stroke: #A80036; stroke-width: 1.0;"/><!--link EngineerComponents to ImplementSubsystem--><path d="M351,997.136 C351,1019.043 351,1049.088 351,1069.67 " fill="none" id="EngineerComponents-ImplementSubsystem" style="stroke: #A80036; stroke-width: 1.0;"/><polygon fill="#A80036" points="351,992.033,347,1001.033,351,997.033,355,1001.033,351,992.033" style="stroke: #A80036; stroke-width: 1.0;"/><!--link EngineerComponents to PerformUnitTests--><path d="M386.396,995.347 C407.813,1013.614 433.196,1039.991 445,1070 C452.809,1089.853 448.641,1096.98 445,1118 C434.851,1176.592 431.419,1193.514 400,1244 C381.153,1274.2855 351.928,1302.8775 330.293,1321.8571 " fill="none" id="EngineerComponents-PerformUnitTests" style="stroke: #A80036; stroke-width: 1.0;"/><polygon fill="#A80036" points="382.447,992.031,386.7676,1000.8816,386.2763,995.2461,391.9117,994.7548,382.447,992.031" style="stroke: #A80036; stroke-width: 1.0;"/><!--link ImplementationActivity to ImplementArchitecture--><path d="M191.095,286.91 C170.613,305.31 152,329.79 152,358 C152,358 152,358 152,687 C152,735.932 177.279,788.63 193.869,817.944 " fill="none" id="ImplementationActivity-ImplementArchitecture" style="stroke: #A80036; stroke-width: 1.0;"/><polygon fill="none" points="186.922,281.28,206.845,274.07,195.77,292.13,186.922,281.28" style="stroke: #A80036; stroke-width: 1.0;"/><!--link ImplementArchitecture to IntegrateSystems--><path d="M199.641,866.033 C192.174,886.609 181.213,916.814 173.225,938.824 " fill="none" id="ImplementArchitecture-IntegrateSystems" style="stroke: #A80036; stroke-width: 1.0;"/><polygon fill="#A80036" points="171.467,943.67,178.2974,936.5745,173.1727,938.9699,170.7773,933.8453,171.467,943.67" style="stroke: #A80036; stroke-width: 1.0;"/><text fill="#000000" font-family="sans-serif" font-size="13" lengthAdjust="spacingAndGlyphs" textLength="47" x="190" y="910.4951">previous</text><!--link ImplementationActivity to IntegrateSystems--><path d="M148.552,276.27 C111.142,292.45 77,318.14 77,358 C77,358 77,358 77,843 C77,883.87 108.935,920.975 133.884,943.728 " fill="none" id="ImplementationActivity-IntegrateSystems" style="stroke: #A80036; stroke-width: 1.0;"/><polygon fill="none" points="146.166,269.69,167.343,268.96,151.239,282.73,146.166,269.69" style="stroke: #A80036; stroke-width: 1.0;"/><!--link IntegrateSystems to ImplementClass--><path d="M154.423,992.087 C144.667,1021.918 131.818,1075.112 146,1118 C155.386,1146.383 176.175,1173.288 193.491,1192.181 " fill="none" id="IntegrateSystems-ImplementClass" style="stroke: #A80036; stroke-width: 1.0;"/><polygon fill="#A80036" points="196.903,1195.851,193.7041,1186.5361,193.4984,1192.1892,187.8453,1191.9835,196.903,1195.851" style="stroke: #A80036; stroke-width: 1.0;"/><text fill="#000000" font-family="sans-serif" font-size="13" lengthAdjust="spacingAndGlyphs" textLength="47" x="147" y="1099.4951">previous</text><!--link IntegrateSystems to ImplementSubsystem--><path d="M197.921,992.033 C230.136,1013.281 277.92,1044.798 311.512,1066.955 " fill="none" id="IntegrateSystems-ImplementSubsystem" style="stroke: #A80036; stroke-width: 1.0;"/><polygon fill="#A80036" points="315.948,1069.88,310.6382,1061.5851,311.7744,1067.1266,306.2328,1068.2629,315.948,1069.88" style="stroke: #A80036; stroke-width: 1.0;"/><text fill="#000000" font-family="sans-serif" font-size="13" lengthAdjust="spacingAndGlyphs" textLength="47" x="270" y="1036.4951">previous</text><!--link ImplementationActivity to ImplementClass--><path d="M340.433,265.56 C430.778,282.01 552,312.54 552,358 C552,358 552,358 552,1032 C552,1093.052 379.141,1163.522 283.259,1197.915 " fill="none" id="ImplementationActivity-ImplementClass" style="stroke: #A80036; stroke-width: 1.0;"/><polygon fill="none" points="339.021,272.42,320.531,262.07,341.439,258.63,339.021,272.42" style="stroke: #A80036; stroke-width: 1.0;"/><!--link ImplementClass to PerformUnitTests--><path d="M236.046,1244.033 C249.599,1264.782 269.549,1295.3227 283.956,1317.3774 " fill="none" id="ImplementClass-PerformUnitTests" style="stroke: #A80036; stroke-width: 1.0;"/><polygon fill="#A80036" points="286.76,1321.6697,285.188,1311.9471,284.0261,1317.4833,278.4898,1316.3214,286.76,1321.6697" style="stroke: #A80036; stroke-width: 1.0;"/><text fill="#000000" font-family="sans-serif" font-size="13" lengthAdjust="spacingAndGlyphs" textLength="47" x="268" y="1288.4951">previous</text><!--link ImplementationActivity to ImplementSubsystem--><path d="M340.579,257.22 C406.15,267.31 481,293.05 481,358 C481,358 481,358 481,969 C481,1015.005 437.843,1049.162 401.261,1069.85 " fill="none" id="ImplementationActivity-ImplementSubsystem" style="stroke: #A80036; stroke-width: 1.0;"/><polygon fill="none" points="339.522,264.14,320.62,254.56,341.368,250.26,339.522,264.14" style="stroke: #A80036; stroke-width: 1.0;"/><!--link ImplementSubsystem to ImplementClass--><path d="M315.347,1118.022 C302.959,1126.747 289.34,1137.197 278,1148 C264.102,1161.241 250.563,1177.896 240.17,1191.747 " fill="none" id="ImplementSubsystem-ImplementClass" style="stroke: #A80036; stroke-width: 1.0;"/><polygon fill="#A80036" points="237.048,1195.949,245.6265,1191.1107,240.0301,1191.9357,239.2052,1186.3393,237.048,1195.949" style="stroke: #A80036; stroke-width: 1.0;"/><text fill="#000000" font-family="sans-serif" font-size="13" lengthAdjust="spacingAndGlyphs" textLength="47" x="279" y="1162.4951">previous</text><!--link ImplementSubsystem to PerformUnitTests--><path d="M349.759,1118.132 C347.336,1155.338 340.671,1230.529 324,1292 C321.733,1300.3608 318.467,1309.1565 315.144,1317.1271 " fill="none" id="ImplementSubsystem-PerformUnitTests" style="stroke: #A80036; stroke-width: 1.0;"/><polygon fill="#A80036" points="313.075,1321.972,320.2878,1315.2656,315.0384,1317.3736,312.9303,1312.1242,313.075,1321.972" style="stroke: #A80036; stroke-width: 1.0;"/><text fill="#000000" font-family="sans-serif" font-size="13" lengthAdjust="spacingAndGlyphs" textLength="47" x="344" y="1225.4951">previous</text><!--link ImplementationActivity to PerformUnitTests--><path d="M147.325,257.04 C81.4028,267.03 6,292.72 6,358 C6,358 6,358 6,1221 C6,1320.5922 150.312,1341.5607 237.407,1345.1468 " fill="none" id="ImplementationActivity-PerformUnitTests" style="stroke: #A80036; stroke-width: 1.0;"/><polygon fill="none" points="146.647,250.07,167.385,254.42,148.461,263.95,146.647,250.07" style="stroke: #A80036; stroke-width: 1.0;"/><!--
@startuml
class Discipline #red
Discipline *- -> Activity

class ImplementationDiscipline #red
Discipline <|- - ImplementationDiscipline
ImplementationDiscipline *- -> ImplementationActivity

class Activity #green

class ImplementationActivity #green
Activity <|- - ImplementationActivity
ImplementationActivity *- -> Member

class Member #white
Member *- -> Role

class Role #white
class ImplementationRole #blue
Role <|- - ImplementationRole

class Architect #blue
class IntegratorSystems #blue
class EngineerComponents #blue
ImplementationRole <|- - Architect
ImplementationRole <|- - IntegratorSystems
ImplementationRole <|- - EngineerComponents
Architect <- - ImplementArchitecture
IntegratorSystems <- - IntegrateSystems
EngineerComponents <- - ImplementClass
EngineerComponents <- - ImplementSubsystem
EngineerComponents <- - PerformUnitTests

class ImplementArchitecture #green
class IntegrateSystems #green
class ImplementClass #green
class ImplementSubsystem #green
class PerformUnitTests #green
ImplementationActivity <|- - ImplementArchitecture
ImplementArchitecture - -> IntegrateSystems :previous
ImplementationActivity <|- - IntegrateSystems
IntegrateSystems - -> ImplementClass :previous
IntegrateSystems - -> ImplementSubsystem :previous
ImplementationActivity <|- - ImplementClass
ImplementClass - -> PerformUnitTests :previous
ImplementationActivity <|- - ImplementSubsystem
ImplementSubsystem - -> ImplementClass :previous
ImplementSubsystem - -> PerformUnitTests :previous
ImplementationActivity <|- - PerformUnitTests

@enduml

PlantUML version 1.2019.05(Sat Apr 20 18:45:36 CEST 2019)
(GPL source distribution)
Java Runtime: OpenJDK Runtime Environment
JVM: OpenJDK 64-Bit Server VM
Java Version: 1.8.0_222-b10
Operating System: Windows 10
OS Version: 10.0
Default Encoding: windows-1252
Language: es
Country: ES
--></g></svg>