<?xml version="1.0" encoding="UTF-8" standalone="no"?><svg xmlns="http://www.w3.org/2000/svg" xmlns:xlink="http://www.w3.org/1999/xlink" contentScriptType="application/ecmascript" contentStyleType="text/css" height="411px" preserveAspectRatio="none" style="width:893px;height:411px;" version="1.1" viewBox="0 0 893 411" width="893px" zoomAndPan="magnify"><defs><filter height="300%" id="f1ibhr8xw0841n" width="300%" x="-1" y="-1"><feGaussianBlur result="blurOut" stdDeviation="2.0"/><feColorMatrix in="blurOut" result="blurOut2" type="matrix" values="0 0 0 0 0 0 0 0 0 0 0 0 0 0 0 0 0 0 .4 0"/><feOffset dx="4.0" dy="4.0" in="blurOut2" result="blurOut3"/><feBlend in="SourceGraphic" in2="blurOut3" mode="normal"/></filter></defs><g><!--class Activity--><rect fill="#FF0000" filter="url(#f1ibhr8xw0841n)" height="48" id="Activity" style="stroke: #A80036; stroke-width: 1.5;" width="67" x="672.5" y="8"/><rect fill="#FF0000" height="32" style="stroke: #A80036; stroke-width: 1.5;" width="67" x="672.5" y="8"/><ellipse cx="687.5" cy="24" fill="#ADD1B2" rx="11" ry="11" style="stroke: #A80036; stroke-width: 1.0;"/><path d="M690.2656,19.875 Q690.4219,19.6563 690.6094,19.5469 Q690.7969,19.4375 691.0156,19.4375 Q691.3906,19.4375 691.625,19.6953 Q691.8594,19.9531 691.8594,20.5625 L691.8594,22.0156 Q691.8594,22.625 691.625,22.8906 Q691.3906,23.1563 691.0156,23.1563 Q690.6719,23.1563 690.4688,22.9531 Q690.2656,22.7656 690.1563,22.25 Q690.1094,21.8906 689.9219,21.7031 Q689.5938,21.3281 688.9844,21.1094 Q688.375,20.8906 687.75,20.8906 Q686.9844,20.8906 686.3516,21.2188 Q685.7188,21.5469 685.2266,22.2969 Q684.7344,23.0469 684.7344,24.0781 L684.7344,25.1719 Q684.7344,26.4063 685.625,27.2266 Q686.5156,28.0469 688.1094,28.0469 Q689.0469,28.0469 689.7031,27.7969 Q690.0938,27.6406 690.5156,27.2031 Q690.7813,26.9375 690.9297,26.8594 Q691.0781,26.7813 691.2813,26.7813 Q691.6094,26.7813 691.8672,27.0391 Q692.125,27.2969 692.125,27.6406 Q692.125,27.9844 691.7813,28.3906 Q691.2813,28.9688 690.4844,29.2969 Q689.4063,29.75 688.1094,29.75 Q686.5938,29.75 685.3906,29.125 Q684.4063,28.625 683.7188,27.5547 Q683.0313,26.4844 683.0313,25.2031 L683.0313,24.0469 Q683.0313,22.7188 683.6484,21.5703 Q684.2656,20.4219 685.3594,19.8047 Q686.4531,19.1875 687.6875,19.1875 Q688.4219,19.1875 689.0703,19.3516 Q689.7188,19.5156 690.2656,19.875 Z "/><text fill="#000000" font-family="sans-serif" font-size="12" lengthAdjust="spacingAndGlyphs" textLength="35" x="701.5" y="28.9102">Activity</text><line style="stroke: #A80036; stroke-width: 1.5;" x1="673.5" x2="738.5" y1="40" y2="40"/><line style="stroke: #A80036; stroke-width: 1.5;" x1="673.5" x2="738.5" y1="48" y2="48"/><!--class ImplementationActivity--><rect fill="#FF0000" filter="url(#f1ibhr8xw0841n)" height="48" id="ImplementationActivity" style="stroke: #A80036; stroke-width: 1.5;" width="153" x="559.5" y="117"/><rect fill="#FF0000" height="32" style="stroke: #A80036; stroke-width: 1.5;" width="153" x="559.5" y="117"/><ellipse cx="574.5" cy="133" fill="#ADD1B2" rx="11" ry="11" style="stroke: #A80036; stroke-width: 1.0;"/><path d="M577.2656,128.875 Q577.4219,128.6563 577.6094,128.5469 Q577.7969,128.4375 578.0156,128.4375 Q578.3906,128.4375 578.625,128.6953 Q578.8594,128.9531 578.8594,129.5625 L578.8594,131.0156 Q578.8594,131.625 578.625,131.8906 Q578.3906,132.1563 578.0156,132.1563 Q577.6719,132.1563 577.4688,131.9531 Q577.2656,131.7656 577.1563,131.25 Q577.1094,130.8906 576.9219,130.7031 Q576.5938,130.3281 575.9844,130.1094 Q575.375,129.8906 574.75,129.8906 Q573.9844,129.8906 573.3516,130.2188 Q572.7188,130.5469 572.2266,131.2969 Q571.7344,132.0469 571.7344,133.0781 L571.7344,134.1719 Q571.7344,135.4063 572.625,136.2266 Q573.5156,137.0469 575.1094,137.0469 Q576.0469,137.0469 576.7031,136.7969 Q577.0938,136.6406 577.5156,136.2031 Q577.7813,135.9375 577.9297,135.8594 Q578.0781,135.7813 578.2813,135.7813 Q578.6094,135.7813 578.8672,136.0391 Q579.125,136.2969 579.125,136.6406 Q579.125,136.9844 578.7813,137.3906 Q578.2813,137.9688 577.4844,138.2969 Q576.4063,138.75 575.1094,138.75 Q573.5938,138.75 572.3906,138.125 Q571.4063,137.625 570.7188,136.5547 Q570.0313,135.4844 570.0313,134.2031 L570.0313,133.0469 Q570.0313,131.7188 570.6484,130.5703 Q571.2656,129.4219 572.3594,128.8047 Q573.4531,128.1875 574.6875,128.1875 Q575.4219,128.1875 576.0703,128.3516 Q576.7188,128.5156 577.2656,128.875 Z "/><text fill="#000000" font-family="sans-serif" font-size="12" lengthAdjust="spacingAndGlyphs" textLength="121" x="588.5" y="137.9102">ImplementationActivity</text><line style="stroke: #A80036; stroke-width: 1.5;" x1="560.5" x2="711.5" y1="149" y2="149"/><line style="stroke: #A80036; stroke-width: 1.5;" x1="560.5" x2="711.5" y1="157" y2="157"/><!--class Role--><rect fill="#0000FF" filter="url(#f1ibhr8xw0841n)" height="48" id="Role" style="stroke: #A80036; stroke-width: 1.5;" width="58" x="748" y="117"/><rect fill="#0000FF" height="32" style="stroke: #A80036; stroke-width: 1.5;" width="58" x="748" y="117"/><ellipse cx="763" cy="133" fill="#ADD1B2" rx="11" ry="11" style="stroke: #A80036; stroke-width: 1.0;"/><path d="M765.7656,128.875 Q765.9219,128.6563 766.1094,128.5469 Q766.2969,128.4375 766.5156,128.4375 Q766.8906,128.4375 767.125,128.6953 Q767.3594,128.9531 767.3594,129.5625 L767.3594,131.0156 Q767.3594,131.625 767.125,131.8906 Q766.8906,132.1563 766.5156,132.1563 Q766.1719,132.1563 765.9688,131.9531 Q765.7656,131.7656 765.6563,131.25 Q765.6094,130.8906 765.4219,130.7031 Q765.0938,130.3281 764.4844,130.1094 Q763.875,129.8906 763.25,129.8906 Q762.4844,129.8906 761.8516,130.2188 Q761.2188,130.5469 760.7266,131.2969 Q760.2344,132.0469 760.2344,133.0781 L760.2344,134.1719 Q760.2344,135.4063 761.125,136.2266 Q762.0156,137.0469 763.6094,137.0469 Q764.5469,137.0469 765.2031,136.7969 Q765.5938,136.6406 766.0156,136.2031 Q766.2813,135.9375 766.4297,135.8594 Q766.5781,135.7813 766.7813,135.7813 Q767.1094,135.7813 767.3672,136.0391 Q767.625,136.2969 767.625,136.6406 Q767.625,136.9844 767.2813,137.3906 Q766.7813,137.9688 765.9844,138.2969 Q764.9063,138.75 763.6094,138.75 Q762.0938,138.75 760.8906,138.125 Q759.9063,137.625 759.2188,136.5547 Q758.5313,135.4844 758.5313,134.2031 L758.5313,133.0469 Q758.5313,131.7188 759.1484,130.5703 Q759.7656,129.4219 760.8594,128.8047 Q761.9531,128.1875 763.1875,128.1875 Q763.9219,128.1875 764.5703,128.3516 Q765.2188,128.5156 765.7656,128.875 Z "/><text fill="#000000" font-family="sans-serif" font-size="12" lengthAdjust="spacingAndGlyphs" textLength="26" x="777" y="137.9102">Role</text><line style="stroke: #A80036; stroke-width: 1.5;" x1="749" x2="805" y1="149" y2="149"/><line style="stroke: #A80036; stroke-width: 1.5;" x1="749" x2="805" y1="157" y2="157"/><!--class DesignClass--><rect fill="#008000" filter="url(#f1ibhr8xw0841n)" height="48" id="DesignClass" style="stroke: #A80036; stroke-width: 1.5;" width="168" x="6" y="352"/><rect fill="#008000" height="32" style="stroke: #A80036; stroke-width: 1.5;" width="168" x="6" y="352"/><ellipse cx="21" cy="368" fill="#ADD1B2" rx="11" ry="11" style="stroke: #A80036; stroke-width: 1.0;"/><path d="M23.7656,363.875 Q23.9219,363.6563 24.1094,363.5469 Q24.2969,363.4375 24.5156,363.4375 Q24.8906,363.4375 25.125,363.6953 Q25.3594,363.9531 25.3594,364.5625 L25.3594,366.0156 Q25.3594,366.625 25.125,366.8906 Q24.8906,367.1563 24.5156,367.1563 Q24.1719,367.1563 23.9688,366.9531 Q23.7656,366.7656 23.6563,366.25 Q23.6094,365.8906 23.4219,365.7031 Q23.0938,365.3281 22.4844,365.1094 Q21.875,364.8906 21.25,364.8906 Q20.4844,364.8906 19.8516,365.2188 Q19.2188,365.5469 18.7266,366.2969 Q18.2344,367.0469 18.2344,368.0781 L18.2344,369.1719 Q18.2344,370.4063 19.125,371.2266 Q20.0156,372.0469 21.6094,372.0469 Q22.5469,372.0469 23.2031,371.7969 Q23.5938,371.6406 24.0156,371.2031 Q24.2813,370.9375 24.4297,370.8594 Q24.5781,370.7813 24.7813,370.7813 Q25.1094,370.7813 25.3672,371.0391 Q25.625,371.2969 25.625,371.6406 Q25.625,371.9844 25.2813,372.3906 Q24.7813,372.9688 23.9844,373.2969 Q22.9063,373.75 21.6094,373.75 Q20.0938,373.75 18.8906,373.125 Q17.9063,372.625 17.2188,371.5547 Q16.5313,370.4844 16.5313,369.2031 L16.5313,368.0469 Q16.5313,366.7188 17.1484,365.5703 Q17.7656,364.4219 18.8594,363.8047 Q19.9531,363.1875 21.1875,363.1875 Q21.9219,363.1875 22.5703,363.3516 Q23.2188,363.5156 23.7656,363.875 Z "/><text fill="#000000" font-family="sans-serif" font-size="12" lengthAdjust="spacingAndGlyphs" textLength="136" x="35" y="372.9102">Design class (designed)</text><line style="stroke: #A80036; stroke-width: 1.5;" x1="7" x2="173" y1="384" y2="384"/><line style="stroke: #A80036; stroke-width: 1.5;" x1="7" x2="173" y1="392" y2="392"/><!--class Interface--><rect fill="#008000" filter="url(#f1ibhr8xw0841n)" height="48" id="Interface" style="stroke: #A80036; stroke-width: 1.5;" width="251" x="209.5" y="352"/><rect fill="#008000" height="32" style="stroke: #A80036; stroke-width: 1.5;" width="251" x="209.5" y="352"/><ellipse cx="224.5" cy="368" fill="#ADD1B2" rx="11" ry="11" style="stroke: #A80036; stroke-width: 1.0;"/><path d="M227.2656,363.875 Q227.4219,363.6563 227.6094,363.5469 Q227.7969,363.4375 228.0156,363.4375 Q228.3906,363.4375 228.625,363.6953 Q228.8594,363.9531 228.8594,364.5625 L228.8594,366.0156 Q228.8594,366.625 228.625,366.8906 Q228.3906,367.1563 228.0156,367.1563 Q227.6719,367.1563 227.4688,366.9531 Q227.2656,366.7656 227.1563,366.25 Q227.1094,365.8906 226.9219,365.7031 Q226.5938,365.3281 225.9844,365.1094 Q225.375,364.8906 224.75,364.8906 Q223.9844,364.8906 223.3516,365.2188 Q222.7188,365.5469 222.2266,366.2969 Q221.7344,367.0469 221.7344,368.0781 L221.7344,369.1719 Q221.7344,370.4063 222.625,371.2266 Q223.5156,372.0469 225.1094,372.0469 Q226.0469,372.0469 226.7031,371.7969 Q227.0938,371.6406 227.5156,371.2031 Q227.7813,370.9375 227.9297,370.8594 Q228.0781,370.7813 228.2813,370.7813 Q228.6094,370.7813 228.8672,371.0391 Q229.125,371.2969 229.125,371.6406 Q229.125,371.9844 228.7813,372.3906 Q228.2813,372.9688 227.4844,373.2969 Q226.4063,373.75 225.1094,373.75 Q223.5938,373.75 222.3906,373.125 Q221.4063,372.625 220.7188,371.5547 Q220.0313,370.4844 220.0313,369.2031 L220.0313,368.0469 Q220.0313,366.7188 220.6484,365.5703 Q221.2656,364.4219 222.3594,363.8047 Q223.4531,363.1875 224.6875,363.1875 Q225.4219,363.1875 226.0703,363.3516 Q226.7188,363.5156 227.2656,363.875 Z "/><text fill="#000000" font-family="sans-serif" font-size="12" lengthAdjust="spacingAndGlyphs" textLength="219" x="238.5" y="372.9102">Interface (provided by the Design Class)</text><line style="stroke: #A80036; stroke-width: 1.5;" x1="210.5" x2="459.5" y1="384" y2="384"/><line style="stroke: #A80036; stroke-width: 1.5;" x1="210.5" x2="459.5" y1="392" y2="392"/><!--class Component--><rect fill="#008000" filter="url(#f1ibhr8xw0841n)" height="48" id="Component" style="stroke: #A80036; stroke-width: 1.5;" width="181" x="495.5" y="352"/><rect fill="#008000" height="32" style="stroke: #A80036; stroke-width: 1.5;" width="181" x="495.5" y="352"/><ellipse cx="510.5" cy="368" fill="#ADD1B2" rx="11" ry="11" style="stroke: #A80036; stroke-width: 1.0;"/><path d="M513.2656,363.875 Q513.4219,363.6563 513.6094,363.5469 Q513.7969,363.4375 514.0156,363.4375 Q514.3906,363.4375 514.625,363.6953 Q514.8594,363.9531 514.8594,364.5625 L514.8594,366.0156 Q514.8594,366.625 514.625,366.8906 Q514.3906,367.1563 514.0156,367.1563 Q513.6719,367.1563 513.4688,366.9531 Q513.2656,366.7656 513.1563,366.25 Q513.1094,365.8906 512.9219,365.7031 Q512.5938,365.3281 511.9844,365.1094 Q511.375,364.8906 510.75,364.8906 Q509.9844,364.8906 509.3516,365.2188 Q508.7188,365.5469 508.2266,366.2969 Q507.7344,367.0469 507.7344,368.0781 L507.7344,369.1719 Q507.7344,370.4063 508.625,371.2266 Q509.5156,372.0469 511.1094,372.0469 Q512.0469,372.0469 512.7031,371.7969 Q513.0938,371.6406 513.5156,371.2031 Q513.7813,370.9375 513.9297,370.8594 Q514.0781,370.7813 514.2813,370.7813 Q514.6094,370.7813 514.8672,371.0391 Q515.125,371.2969 515.125,371.6406 Q515.125,371.9844 514.7813,372.3906 Q514.2813,372.9688 513.4844,373.2969 Q512.4063,373.75 511.1094,373.75 Q509.5938,373.75 508.3906,373.125 Q507.4063,372.625 506.7188,371.5547 Q506.0313,370.4844 506.0313,369.2031 L506.0313,368.0469 Q506.0313,366.7188 506.6484,365.5703 Q507.2656,364.4219 508.3594,363.8047 Q509.4531,363.1875 510.6875,363.1875 Q511.4219,363.1875 512.0703,363.3516 Q512.7188,363.5156 513.2656,363.875 Z "/><text fill="#000000" font-family="sans-serif" font-size="12" lengthAdjust="spacingAndGlyphs" textLength="149" x="524.5" y="372.9102">Component (implemented)</text><line style="stroke: #A80036; stroke-width: 1.5;" x1="496.5" x2="675.5" y1="384" y2="384"/><line style="stroke: #A80036; stroke-width: 1.5;" x1="496.5" x2="675.5" y1="392" y2="392"/><!--class ImplementationRole--><rect fill="#0000FF" filter="url(#f1ibhr8xw0841n)" height="48" id="ImplementationRole" style="stroke: #A80036; stroke-width: 1.5;" width="144" x="705" y="226"/><rect fill="#0000FF" height="32" style="stroke: #A80036; stroke-width: 1.5;" width="144" x="705" y="226"/><ellipse cx="720" cy="242" fill="#ADD1B2" rx="11" ry="11" style="stroke: #A80036; stroke-width: 1.0;"/><path d="M722.7656,237.875 Q722.9219,237.6563 723.1094,237.5469 Q723.2969,237.4375 723.5156,237.4375 Q723.8906,237.4375 724.125,237.6953 Q724.3594,237.9531 724.3594,238.5625 L724.3594,240.0156 Q724.3594,240.625 724.125,240.8906 Q723.8906,241.1563 723.5156,241.1563 Q723.1719,241.1563 722.9688,240.9531 Q722.7656,240.7656 722.6563,240.25 Q722.6094,239.8906 722.4219,239.7031 Q722.0938,239.3281 721.4844,239.1094 Q720.875,238.8906 720.25,238.8906 Q719.4844,238.8906 718.8516,239.2188 Q718.2188,239.5469 717.7266,240.2969 Q717.2344,241.0469 717.2344,242.0781 L717.2344,243.1719 Q717.2344,244.4063 718.125,245.2266 Q719.0156,246.0469 720.6094,246.0469 Q721.5469,246.0469 722.2031,245.7969 Q722.5938,245.6406 723.0156,245.2031 Q723.2813,244.9375 723.4297,244.8594 Q723.5781,244.7813 723.7813,244.7813 Q724.1094,244.7813 724.3672,245.0391 Q724.625,245.2969 724.625,245.6406 Q724.625,245.9844 724.2813,246.3906 Q723.7813,246.9688 722.9844,247.2969 Q721.9063,247.75 720.6094,247.75 Q719.0938,247.75 717.8906,247.125 Q716.9063,246.625 716.2188,245.5547 Q715.5313,244.4844 715.5313,243.2031 L715.5313,242.0469 Q715.5313,240.7188 716.1484,239.5703 Q716.7656,238.4219 717.8594,237.8047 Q718.9531,237.1875 720.1875,237.1875 Q720.9219,237.1875 721.5703,237.3516 Q722.2188,237.5156 722.7656,237.875 Z "/><text fill="#000000" font-family="sans-serif" font-size="12" lengthAdjust="spacingAndGlyphs" textLength="112" x="734" y="246.9102">ImplementationRole</text><line style="stroke: #A80036; stroke-width: 1.5;" x1="706" x2="848" y1="258" y2="258"/><line style="stroke: #A80036; stroke-width: 1.5;" x1="706" x2="848" y1="266" y2="266"/><!--class ImplementClass--><rect fill="#FF0000" filter="url(#f1ibhr8xw0841n)" height="48" id="ImplementClass" style="stroke: #A80036; stroke-width: 1.5;" width="127" x="522.5" y="226"/><rect fill="#FF0000" height="32" style="stroke: #A80036; stroke-width: 1.5;" width="127" x="522.5" y="226"/><ellipse cx="537.5" cy="242" fill="#ADD1B2" rx="11" ry="11" style="stroke: #A80036; stroke-width: 1.0;"/><path d="M540.2656,237.875 Q540.4219,237.6563 540.6094,237.5469 Q540.7969,237.4375 541.0156,237.4375 Q541.3906,237.4375 541.625,237.6953 Q541.8594,237.9531 541.8594,238.5625 L541.8594,240.0156 Q541.8594,240.625 541.625,240.8906 Q541.3906,241.1563 541.0156,241.1563 Q540.6719,241.1563 540.4688,240.9531 Q540.2656,240.7656 540.1563,240.25 Q540.1094,239.8906 539.9219,239.7031 Q539.5938,239.3281 538.9844,239.1094 Q538.375,238.8906 537.75,238.8906 Q536.9844,238.8906 536.3516,239.2188 Q535.7188,239.5469 535.2266,240.2969 Q534.7344,241.0469 534.7344,242.0781 L534.7344,243.1719 Q534.7344,244.4063 535.625,245.2266 Q536.5156,246.0469 538.1094,246.0469 Q539.0469,246.0469 539.7031,245.7969 Q540.0938,245.6406 540.5156,245.2031 Q540.7813,244.9375 540.9297,244.8594 Q541.0781,244.7813 541.2813,244.7813 Q541.6094,244.7813 541.8672,245.0391 Q542.125,245.2969 542.125,245.6406 Q542.125,245.9844 541.7813,246.3906 Q541.2813,246.9688 540.4844,247.2969 Q539.4063,247.75 538.1094,247.75 Q536.5938,247.75 535.3906,247.125 Q534.4063,246.625 533.7188,245.5547 Q533.0313,244.4844 533.0313,243.2031 L533.0313,242.0469 Q533.0313,240.7188 533.6484,239.5703 Q534.2656,238.4219 535.3594,237.8047 Q536.4531,237.1875 537.6875,237.1875 Q538.4219,237.1875 539.0703,237.3516 Q539.7188,237.5156 540.2656,237.875 Z "/><text fill="#000000" font-family="sans-serif" font-size="12" lengthAdjust="spacingAndGlyphs" textLength="95" x="551.5" y="246.9102">Implement Class</text><line style="stroke: #A80036; stroke-width: 1.5;" x1="523.5" x2="648.5" y1="258" y2="258"/><line style="stroke: #A80036; stroke-width: 1.5;" x1="523.5" x2="648.5" y1="266" y2="266"/><!--class EngineerComponents--><rect fill="#0000FF" filter="url(#f1ibhr8xw0841n)" height="48" id="EngineerComponents" style="stroke: #A80036; stroke-width: 1.5;" width="170" x="712" y="352"/><rect fill="#0000FF" height="32" style="stroke: #A80036; stroke-width: 1.5;" width="170" x="712" y="352"/><ellipse cx="727" cy="368" fill="#ADD1B2" rx="11" ry="11" style="stroke: #A80036; stroke-width: 1.0;"/><path d="M729.7656,363.875 Q729.9219,363.6563 730.1094,363.5469 Q730.2969,363.4375 730.5156,363.4375 Q730.8906,363.4375 731.125,363.6953 Q731.3594,363.9531 731.3594,364.5625 L731.3594,366.0156 Q731.3594,366.625 731.125,366.8906 Q730.8906,367.1563 730.5156,367.1563 Q730.1719,367.1563 729.9688,366.9531 Q729.7656,366.7656 729.6563,366.25 Q729.6094,365.8906 729.4219,365.7031 Q729.0938,365.3281 728.4844,365.1094 Q727.875,364.8906 727.25,364.8906 Q726.4844,364.8906 725.8516,365.2188 Q725.2188,365.5469 724.7266,366.2969 Q724.2344,367.0469 724.2344,368.0781 L724.2344,369.1719 Q724.2344,370.4063 725.125,371.2266 Q726.0156,372.0469 727.6094,372.0469 Q728.5469,372.0469 729.2031,371.7969 Q729.5938,371.6406 730.0156,371.2031 Q730.2813,370.9375 730.4297,370.8594 Q730.5781,370.7813 730.7813,370.7813 Q731.1094,370.7813 731.3672,371.0391 Q731.625,371.2969 731.625,371.6406 Q731.625,371.9844 731.2813,372.3906 Q730.7813,372.9688 729.9844,373.2969 Q728.9063,373.75 727.6094,373.75 Q726.0938,373.75 724.8906,373.125 Q723.9063,372.625 723.2188,371.5547 Q722.5313,370.4844 722.5313,369.2031 L722.5313,368.0469 Q722.5313,366.7188 723.1484,365.5703 Q723.7656,364.4219 724.8594,363.8047 Q725.9531,363.1875 727.1875,363.1875 Q727.9219,363.1875 728.5703,363.3516 Q729.2188,363.5156 729.7656,363.875 Z "/><text fill="#000000" font-family="sans-serif" font-size="12" lengthAdjust="spacingAndGlyphs" textLength="138" x="741" y="372.9102">Engineer of Components</text><line style="stroke: #A80036; stroke-width: 1.5;" x1="713" x2="881" y1="384" y2="384"/><line style="stroke: #A80036; stroke-width: 1.5;" x1="713" x2="881" y1="392" y2="392"/><!--link Activity to ImplementationActivity--><path d="M679.732,73.153 C670.089,87.893 659.501,104.076 651.159,116.828 " fill="none" id="Activity-ImplementationActivity" style="stroke: #A80036; stroke-width: 1.0;"/><polygon fill="none" points="674.004,69.122,690.811,56.217,685.72,76.786,674.004,69.122" style="stroke: #A80036; stroke-width: 1.0;"/><!--link Activity to Role--><path d="M721.406,56.217 C732.385,72.763 747.186,95.07 758.756,112.506 " fill="none" id="Activity-Role" style="stroke: #A80036; stroke-width: 1.0;"/><polygon fill="#A80036" points="761.624,116.828,759.9822,107.1169,758.8601,112.6614,753.3156,111.5392,761.624,116.828" style="stroke: #A80036; stroke-width: 1.0;"/><!--link ImplementationActivity to ImplementationRole--><path d="M666.595,165.217 C688.86,182.113 719.042,205.017 742.222,222.608 " fill="none" id="ImplementationActivity-ImplementationRole" style="stroke: #A80036; stroke-width: 1.0;"/><polygon fill="#A80036" points="746.465,225.828,741.7142,217.2007,742.4822,222.8052,736.8777,223.5732,746.465,225.828" style="stroke: #A80036; stroke-width: 1.0;"/><!--link ImplementationActivity to ImplementClass--><path d="M616.554,183.615 C609.852,197.956 602.59,213.497 596.828,225.828 " fill="none" id="ImplementationActivity-ImplementClass" style="stroke: #A80036; stroke-width: 1.0;"/><polygon fill="none" points="610.342,180.373,625.151,165.217,623.025,186.3,610.342,180.373" style="stroke: #A80036; stroke-width: 1.0;"/><!--link ImplementClass to DesignClass--><path d="M522.425,266.894 C435.28,288.68 278.29,327.9275 179.355,352.6612 " fill="none" id="ImplementClass-DesignClass" style="stroke: #A80036; stroke-width: 1.0;"/><polygon fill="#A80036" points="174.395,353.9013,184.0965,355.5987,179.2457,352.6885,182.1559,347.8376,174.395,353.9013" style="stroke: #A80036; stroke-width: 1.0;"/><text fill="#000000" font-family="sans-serif" font-size="13" lengthAdjust="spacingAndGlyphs" textLength="10" x="369" y="318.4951">in</text><!--link ImplementClass to Interface--><path d="M539.377,274.033 C495.928,295.498 431.266,327.4425 386.354,349.6298 " fill="none" id="ImplementClass-Interface" style="stroke: #A80036; stroke-width: 1.0;"/><polygon fill="#A80036" points="381.798,351.8804,391.6388,351.481,386.2809,349.6661,388.0958,344.3083,381.798,351.8804" style="stroke: #A80036; stroke-width: 1.0;"/><text fill="#000000" font-family="sans-serif" font-size="13" lengthAdjust="spacingAndGlyphs" textLength="10" x="477" y="318.4951">in</text><!--link ImplementClass to Component--><path d="M586,274.033 C586,294.522 586,324.5607 586,346.5464 " fill="none" id="ImplementClass-Component" style="stroke: #A80036; stroke-width: 1.0;"/><polygon fill="#A80036" points="586,351.6697,590,342.6697,586,346.6697,582,342.6697,586,351.6697" style="stroke: #A80036; stroke-width: 1.0;"/><text fill="#000000" font-family="sans-serif" font-size="13" lengthAdjust="spacingAndGlyphs" textLength="18" x="587" y="318.4951">out</text><!--link ImplementClass to EngineerComponents--><path d="M625.193,274.033 C661.497,295.368 715.417,327.0557 753.142,349.2253 " fill="none" id="ImplementClass-EngineerComponents" style="stroke: #A80036; stroke-width: 1.0;"/><polygon fill="#A80036" points="757.659,351.8804,751.9257,343.8723,753.3481,349.3474,747.873,350.7698,757.659,351.8804" style="stroke: #A80036; stroke-width: 1.0;"/><!--link Role to ImplementationRole--><path d="M777,185.578 C777,199.362 777,214.057 777,225.828 " fill="none" id="Role-ImplementationRole" style="stroke: #A80036; stroke-width: 1.0;"/><polygon fill="none" points="770,185.217,777,165.217,784,185.217,770,185.217" style="stroke: #A80036; stroke-width: 1.0;"/><!--link ImplementationRole to EngineerComponents--><path d="M783.923,293.923 C787.048,313.2993 790.618,335.4304 793.237,351.6697 " fill="none" id="ImplementationRole-EngineerComponents" style="stroke: #A80036; stroke-width: 1.0;"/><polygon fill="none" points="776.989,294.892,780.715,274.033,790.81,292.663,776.989,294.892" style="stroke: #A80036; stroke-width: 1.0;"/><!--
@startuml

class Activity #red
Activity <|- - ImplementationActivity
Activity - -> Role

class "Design class (designed)" as DesignClass #green
class "Interface (provided by the Design Class)" as Interface #green
class "Component (implemented)" as Component #green

class ImplementationActivity #red
ImplementationActivity - -> ImplementationRole

class "Implement Class" as ImplementClass #red
ImplementationActivity <|- - ImplementClass

ImplementClass - -> DesignClass :in
ImplementClass - -> Interface :in
ImplementClass - -> Component :out


class Role #blue
class ImplementationRole #blue
class "Engineer of Components" as EngineerComponents #blue

ImplementClass - -> EngineerComponents

Role <|- - ImplementationRole
ImplementationRole <|- - EngineerComponents
@enduml

PlantUML version 1.2019.05(Sat Apr 20 18:45:36 CEST 2019)
(GPL source distribution)
Java Runtime: OpenJDK Runtime Environment
JVM: OpenJDK 64-Bit Server VM
Java Version: 1.8.0_222-b10
Operating System: Windows 10
OS Version: 10.0
Default Encoding: windows-1252
Language: es
Country: ES
--></g></svg>