<?xml version="1.0" encoding="UTF-8" standalone="no"?><svg xmlns="http://www.w3.org/2000/svg" xmlns:xlink="http://www.w3.org/1999/xlink" contentScriptType="application/ecmascript" contentStyleType="text/css" height="433px" preserveAspectRatio="none" style="width:1616px;height:433px;" version="1.1" viewBox="0 0 1616 433" width="1616px" zoomAndPan="magnify"><defs><filter height="300%" id="f1m6vcwetg40dy" width="300%" x="-1" y="-1"><feGaussianBlur result="blurOut" stdDeviation="2.0"/><feColorMatrix in="blurOut" result="blurOut2" type="matrix" values="0 0 0 0 0 0 0 0 0 0 0 0 0 0 0 0 0 0 .4 0"/><feOffset dx="4.0" dy="4.0" in="blurOut2" result="blurOut3"/><feBlend in="SourceGraphic" in2="blurOut3" mode="normal"/></filter></defs><g><text fill="#000000" font-family="sans-serif" font-size="18" lengthAdjust="spacingAndGlyphs" textLength="143" x="740.5" y="18.6855">Integrate Systems</text><!--class Activity--><rect fill="#FF0000" filter="url(#f1m6vcwetg40dy)" height="48" id="Activity" style="stroke: #A80036; stroke-width: 1.5;" width="67" x="1150" y="30.6406"/><rect fill="#FF0000" height="32" style="stroke: #A80036; stroke-width: 1.5;" width="67" x="1150" y="30.6406"/><ellipse cx="1165" cy="46.6406" fill="#ADD1B2" rx="11" ry="11" style="stroke: #A80036; stroke-width: 1.0;"/><path d="M1167.7656,42.5156 Q1167.9219,42.2969 1168.1094,42.1875 Q1168.2969,42.0781 1168.5156,42.0781 Q1168.8906,42.0781 1169.125,42.3359 Q1169.3594,42.5938 1169.3594,43.2031 L1169.3594,44.6563 Q1169.3594,45.2656 1169.125,45.5313 Q1168.8906,45.7969 1168.5156,45.7969 Q1168.1719,45.7969 1167.9688,45.5938 Q1167.7656,45.4063 1167.6563,44.8906 Q1167.6094,44.5313 1167.4219,44.3438 Q1167.0938,43.9688 1166.4844,43.75 Q1165.875,43.5313 1165.25,43.5313 Q1164.4844,43.5313 1163.8516,43.8594 Q1163.2188,44.1875 1162.7266,44.9375 Q1162.2344,45.6875 1162.2344,46.7188 L1162.2344,47.8125 Q1162.2344,49.0469 1163.125,49.8672 Q1164.0156,50.6875 1165.6094,50.6875 Q1166.5469,50.6875 1167.2031,50.4375 Q1167.5938,50.2813 1168.0156,49.8438 Q1168.2813,49.5781 1168.4297,49.5 Q1168.5781,49.4219 1168.7813,49.4219 Q1169.1094,49.4219 1169.3672,49.6797 Q1169.625,49.9375 1169.625,50.2813 Q1169.625,50.625 1169.2813,51.0313 Q1168.7813,51.6094 1167.9844,51.9375 Q1166.9063,52.3906 1165.6094,52.3906 Q1164.0938,52.3906 1162.8906,51.7656 Q1161.9063,51.2656 1161.2188,50.1953 Q1160.5313,49.125 1160.5313,47.8438 L1160.5313,46.6875 Q1160.5313,45.3594 1161.1484,44.2109 Q1161.7656,43.0625 1162.8594,42.4453 Q1163.9531,41.8281 1165.1875,41.8281 Q1165.9219,41.8281 1166.5703,41.9922 Q1167.2188,42.1563 1167.7656,42.5156 Z "/><text fill="#000000" font-family="sans-serif" font-size="12" lengthAdjust="spacingAndGlyphs" textLength="35" x="1179" y="51.5508">Activity</text><line style="stroke: #A80036; stroke-width: 1.5;" x1="1151" x2="1216" y1="62.6406" y2="62.6406"/><line style="stroke: #A80036; stroke-width: 1.5;" x1="1151" x2="1216" y1="70.6406" y2="70.6406"/><!--class ImplementationActivity--><rect fill="#FF0000" filter="url(#f1m6vcwetg40dy)" height="48" id="ImplementationActivity" style="stroke: #A80036; stroke-width: 1.5;" width="153" x="1037" y="139.6406"/><rect fill="#FF0000" height="32" style="stroke: #A80036; stroke-width: 1.5;" width="153" x="1037" y="139.6406"/><ellipse cx="1052" cy="155.6406" fill="#ADD1B2" rx="11" ry="11" style="stroke: #A80036; stroke-width: 1.0;"/><path d="M1054.7656,151.5156 Q1054.9219,151.2969 1055.1094,151.1875 Q1055.2969,151.0781 1055.5156,151.0781 Q1055.8906,151.0781 1056.125,151.3359 Q1056.3594,151.5938 1056.3594,152.2031 L1056.3594,153.6563 Q1056.3594,154.2656 1056.125,154.5313 Q1055.8906,154.7969 1055.5156,154.7969 Q1055.1719,154.7969 1054.9688,154.5938 Q1054.7656,154.4063 1054.6563,153.8906 Q1054.6094,153.5313 1054.4219,153.3438 Q1054.0938,152.9688 1053.4844,152.75 Q1052.875,152.5313 1052.25,152.5313 Q1051.4844,152.5313 1050.8516,152.8594 Q1050.2188,153.1875 1049.7266,153.9375 Q1049.2344,154.6875 1049.2344,155.7188 L1049.2344,156.8125 Q1049.2344,158.0469 1050.125,158.8672 Q1051.0156,159.6875 1052.6094,159.6875 Q1053.5469,159.6875 1054.2031,159.4375 Q1054.5938,159.2813 1055.0156,158.8438 Q1055.2813,158.5781 1055.4297,158.5 Q1055.5781,158.4219 1055.7813,158.4219 Q1056.1094,158.4219 1056.3672,158.6797 Q1056.625,158.9375 1056.625,159.2813 Q1056.625,159.625 1056.2813,160.0313 Q1055.7813,160.6094 1054.9844,160.9375 Q1053.9063,161.3906 1052.6094,161.3906 Q1051.0938,161.3906 1049.8906,160.7656 Q1048.9063,160.2656 1048.2188,159.1953 Q1047.5313,158.125 1047.5313,156.8438 L1047.5313,155.6875 Q1047.5313,154.3594 1048.1484,153.2109 Q1048.7656,152.0625 1049.8594,151.4453 Q1050.9531,150.8281 1052.1875,150.8281 Q1052.9219,150.8281 1053.5703,150.9922 Q1054.2188,151.1563 1054.7656,151.5156 Z "/><text fill="#000000" font-family="sans-serif" font-size="12" lengthAdjust="spacingAndGlyphs" textLength="121" x="1066" y="160.5508">ImplementationActivity</text><line style="stroke: #A80036; stroke-width: 1.5;" x1="1038" x2="1189" y1="171.6406" y2="171.6406"/><line style="stroke: #A80036; stroke-width: 1.5;" x1="1038" x2="1189" y1="179.6406" y2="179.6406"/><!--class Role--><rect fill="#0000FF" filter="url(#f1m6vcwetg40dy)" height="48" id="Role" style="stroke: #A80036; stroke-width: 1.5;" width="58" x="1225.5" y="139.6406"/><rect fill="#0000FF" height="32" style="stroke: #A80036; stroke-width: 1.5;" width="58" x="1225.5" y="139.6406"/><ellipse cx="1240.5" cy="155.6406" fill="#ADD1B2" rx="11" ry="11" style="stroke: #A80036; stroke-width: 1.0;"/><path d="M1243.2656,151.5156 Q1243.4219,151.2969 1243.6094,151.1875 Q1243.7969,151.0781 1244.0156,151.0781 Q1244.3906,151.0781 1244.625,151.3359 Q1244.8594,151.5938 1244.8594,152.2031 L1244.8594,153.6563 Q1244.8594,154.2656 1244.625,154.5313 Q1244.3906,154.7969 1244.0156,154.7969 Q1243.6719,154.7969 1243.4688,154.5938 Q1243.2656,154.4063 1243.1563,153.8906 Q1243.1094,153.5313 1242.9219,153.3438 Q1242.5938,152.9688 1241.9844,152.75 Q1241.375,152.5313 1240.75,152.5313 Q1239.9844,152.5313 1239.3516,152.8594 Q1238.7188,153.1875 1238.2266,153.9375 Q1237.7344,154.6875 1237.7344,155.7188 L1237.7344,156.8125 Q1237.7344,158.0469 1238.625,158.8672 Q1239.5156,159.6875 1241.1094,159.6875 Q1242.0469,159.6875 1242.7031,159.4375 Q1243.0938,159.2813 1243.5156,158.8438 Q1243.7813,158.5781 1243.9297,158.5 Q1244.0781,158.4219 1244.2813,158.4219 Q1244.6094,158.4219 1244.8672,158.6797 Q1245.125,158.9375 1245.125,159.2813 Q1245.125,159.625 1244.7813,160.0313 Q1244.2813,160.6094 1243.4844,160.9375 Q1242.4063,161.3906 1241.1094,161.3906 Q1239.5938,161.3906 1238.3906,160.7656 Q1237.4063,160.2656 1236.7188,159.1953 Q1236.0313,158.125 1236.0313,156.8438 L1236.0313,155.6875 Q1236.0313,154.3594 1236.6484,153.2109 Q1237.2656,152.0625 1238.3594,151.4453 Q1239.4531,150.8281 1240.6875,150.8281 Q1241.4219,150.8281 1242.0703,150.9922 Q1242.7188,151.1563 1243.2656,151.5156 Z "/><text fill="#000000" font-family="sans-serif" font-size="12" lengthAdjust="spacingAndGlyphs" textLength="26" x="1254.5" y="160.5508">Role</text><line style="stroke: #A80036; stroke-width: 1.5;" x1="1226.5" x2="1282.5" y1="171.6406" y2="171.6406"/><line style="stroke: #A80036; stroke-width: 1.5;" x1="1226.5" x2="1282.5" y1="179.6406" y2="179.6406"/><!--class RequirementsSupplementary--><rect fill="#008000" filter="url(#f1m6vcwetg40dy)" height="48" id="RequirementsSupplementary" style="stroke: #A80036; stroke-width: 1.5;" width="197" x="6" y="374.6406"/><rect fill="#008000" height="32" style="stroke: #A80036; stroke-width: 1.5;" width="197" x="6" y="374.6406"/><ellipse cx="21" cy="390.6406" fill="#ADD1B2" rx="11" ry="11" style="stroke: #A80036; stroke-width: 1.0;"/><path d="M23.7656,386.5156 Q23.9219,386.2969 24.1094,386.1875 Q24.2969,386.0781 24.5156,386.0781 Q24.8906,386.0781 25.125,386.3359 Q25.3594,386.5938 25.3594,387.2031 L25.3594,388.6563 Q25.3594,389.2656 25.125,389.5313 Q24.8906,389.7969 24.5156,389.7969 Q24.1719,389.7969 23.9688,389.5938 Q23.7656,389.4063 23.6563,388.8906 Q23.6094,388.5313 23.4219,388.3438 Q23.0938,387.9688 22.4844,387.75 Q21.875,387.5313 21.25,387.5313 Q20.4844,387.5313 19.8516,387.8594 Q19.2188,388.1875 18.7266,388.9375 Q18.2344,389.6875 18.2344,390.7188 L18.2344,391.8125 Q18.2344,393.0469 19.125,393.8672 Q20.0156,394.6875 21.6094,394.6875 Q22.5469,394.6875 23.2031,394.4375 Q23.5938,394.2813 24.0156,393.8438 Q24.2813,393.5781 24.4297,393.5 Q24.5781,393.4219 24.7813,393.4219 Q25.1094,393.4219 25.3672,393.6797 Q25.625,393.9375 25.625,394.2813 Q25.625,394.625 25.2813,395.0313 Q24.7813,395.6094 23.9844,395.9375 Q22.9063,396.3906 21.6094,396.3906 Q20.0938,396.3906 18.8906,395.7656 Q17.9063,395.2656 17.2188,394.1953 Q16.5313,393.125 16.5313,391.8438 L16.5313,390.6875 Q16.5313,389.3594 17.1484,388.2109 Q17.7656,387.0625 18.8594,386.4453 Q19.9531,385.8281 21.1875,385.8281 Q21.9219,385.8281 22.5703,385.9922 Q23.2188,386.1563 23.7656,386.5156 Z "/><text fill="#000000" font-family="sans-serif" font-size="12" lengthAdjust="spacingAndGlyphs" textLength="165" x="35" y="395.5508">Requirements Supplementary</text><line style="stroke: #A80036; stroke-width: 1.5;" x1="7" x2="202" y1="406.6406" y2="406.6406"/><line style="stroke: #A80036; stroke-width: 1.5;" x1="7" x2="202" y1="414.6406" y2="414.6406"/><!--class ModelUseCases--><rect fill="#008000" filter="url(#f1m6vcwetg40dy)" height="48" id="ModelUseCases" style="stroke: #A80036; stroke-width: 1.5;" width="141" x="238" y="374.6406"/><rect fill="#008000" height="32" style="stroke: #A80036; stroke-width: 1.5;" width="141" x="238" y="374.6406"/><ellipse cx="253" cy="390.6406" fill="#ADD1B2" rx="11" ry="11" style="stroke: #A80036; stroke-width: 1.0;"/><path d="M255.7656,386.5156 Q255.9219,386.2969 256.1094,386.1875 Q256.2969,386.0781 256.5156,386.0781 Q256.8906,386.0781 257.125,386.3359 Q257.3594,386.5938 257.3594,387.2031 L257.3594,388.6563 Q257.3594,389.2656 257.125,389.5313 Q256.8906,389.7969 256.5156,389.7969 Q256.1719,389.7969 255.9688,389.5938 Q255.7656,389.4063 255.6563,388.8906 Q255.6094,388.5313 255.4219,388.3438 Q255.0938,387.9688 254.4844,387.75 Q253.875,387.5313 253.25,387.5313 Q252.4844,387.5313 251.8516,387.8594 Q251.2188,388.1875 250.7266,388.9375 Q250.2344,389.6875 250.2344,390.7188 L250.2344,391.8125 Q250.2344,393.0469 251.125,393.8672 Q252.0156,394.6875 253.6094,394.6875 Q254.5469,394.6875 255.2031,394.4375 Q255.5938,394.2813 256.0156,393.8438 Q256.2813,393.5781 256.4297,393.5 Q256.5781,393.4219 256.7813,393.4219 Q257.1094,393.4219 257.3672,393.6797 Q257.625,393.9375 257.625,394.2813 Q257.625,394.625 257.2813,395.0313 Q256.7813,395.6094 255.9844,395.9375 Q254.9063,396.3906 253.6094,396.3906 Q252.0938,396.3906 250.8906,395.7656 Q249.9063,395.2656 249.2188,394.1953 Q248.5313,393.125 248.5313,391.8438 L248.5313,390.6875 Q248.5313,389.3594 249.1484,388.2109 Q249.7656,387.0625 250.8594,386.4453 Q251.9531,385.8281 253.1875,385.8281 Q253.9219,385.8281 254.5703,385.9922 Q255.2188,386.1563 255.7656,386.5156 Z "/><text fill="#000000" font-family="sans-serif" font-size="12" lengthAdjust="spacingAndGlyphs" textLength="109" x="267" y="395.5508">Model of Use cases</text><line style="stroke: #A80036; stroke-width: 1.5;" x1="239" x2="378" y1="406.6406" y2="406.6406"/><line style="stroke: #A80036; stroke-width: 1.5;" x1="239" x2="378" y1="414.6406" y2="414.6406"/><!--class DesignModel--><rect fill="#008000" filter="url(#f1m6vcwetg40dy)" height="48" id="DesignModel" style="stroke: #A80036; stroke-width: 1.5;" width="108" x="414.5" y="374.6406"/><rect fill="#008000" height="32" style="stroke: #A80036; stroke-width: 1.5;" width="108" x="414.5" y="374.6406"/><ellipse cx="429.5" cy="390.6406" fill="#ADD1B2" rx="11" ry="11" style="stroke: #A80036; stroke-width: 1.0;"/><path d="M432.2656,386.5156 Q432.4219,386.2969 432.6094,386.1875 Q432.7969,386.0781 433.0156,386.0781 Q433.3906,386.0781 433.625,386.3359 Q433.8594,386.5938 433.8594,387.2031 L433.8594,388.6563 Q433.8594,389.2656 433.625,389.5313 Q433.3906,389.7969 433.0156,389.7969 Q432.6719,389.7969 432.4688,389.5938 Q432.2656,389.4063 432.1563,388.8906 Q432.1094,388.5313 431.9219,388.3438 Q431.5938,387.9688 430.9844,387.75 Q430.375,387.5313 429.75,387.5313 Q428.9844,387.5313 428.3516,387.8594 Q427.7188,388.1875 427.2266,388.9375 Q426.7344,389.6875 426.7344,390.7188 L426.7344,391.8125 Q426.7344,393.0469 427.625,393.8672 Q428.5156,394.6875 430.1094,394.6875 Q431.0469,394.6875 431.7031,394.4375 Q432.0938,394.2813 432.5156,393.8438 Q432.7813,393.5781 432.9297,393.5 Q433.0781,393.4219 433.2813,393.4219 Q433.6094,393.4219 433.8672,393.6797 Q434.125,393.9375 434.125,394.2813 Q434.125,394.625 433.7813,395.0313 Q433.2813,395.6094 432.4844,395.9375 Q431.4063,396.3906 430.1094,396.3906 Q428.5938,396.3906 427.3906,395.7656 Q426.4063,395.2656 425.7188,394.1953 Q425.0313,393.125 425.0313,391.8438 L425.0313,390.6875 Q425.0313,389.3594 425.6484,388.2109 Q426.2656,387.0625 427.3594,386.4453 Q428.4531,385.8281 429.6875,385.8281 Q430.4219,385.8281 431.0703,385.9922 Q431.7188,386.1563 432.2656,386.5156 Z "/><text fill="#000000" font-family="sans-serif" font-size="12" lengthAdjust="spacingAndGlyphs" textLength="76" x="443.5" y="395.5508">Design Model</text><line style="stroke: #A80036; stroke-width: 1.5;" x1="415.5" x2="521.5" y1="406.6406" y2="406.6406"/><line style="stroke: #A80036; stroke-width: 1.5;" x1="415.5" x2="521.5" y1="414.6406" y2="414.6406"/><!--class ImplementationModel--><rect fill="#008000" filter="url(#f1m6vcwetg40dy)" height="48" id="ImplementationModel" style="stroke: #A80036; stroke-width: 1.5;" width="282" x="557.5" y="374.6406"/><rect fill="#008000" height="32" style="stroke: #A80036; stroke-width: 1.5;" width="282" x="557.5" y="374.6406"/><ellipse cx="572.5" cy="390.6406" fill="#ADD1B2" rx="11" ry="11" style="stroke: #A80036; stroke-width: 1.0;"/><path d="M575.2656,386.5156 Q575.4219,386.2969 575.6094,386.1875 Q575.7969,386.0781 576.0156,386.0781 Q576.3906,386.0781 576.625,386.3359 Q576.8594,386.5938 576.8594,387.2031 L576.8594,388.6563 Q576.8594,389.2656 576.625,389.5313 Q576.3906,389.7969 576.0156,389.7969 Q575.6719,389.7969 575.4688,389.5938 Q575.2656,389.4063 575.1563,388.8906 Q575.1094,388.5313 574.9219,388.3438 Q574.5938,387.9688 573.9844,387.75 Q573.375,387.5313 572.75,387.5313 Q571.9844,387.5313 571.3516,387.8594 Q570.7188,388.1875 570.2266,388.9375 Q569.7344,389.6875 569.7344,390.7188 L569.7344,391.8125 Q569.7344,393.0469 570.625,393.8672 Q571.5156,394.6875 573.1094,394.6875 Q574.0469,394.6875 574.7031,394.4375 Q575.0938,394.2813 575.5156,393.8438 Q575.7813,393.5781 575.9297,393.5 Q576.0781,393.4219 576.2813,393.4219 Q576.6094,393.4219 576.8672,393.6797 Q577.125,393.9375 577.125,394.2813 Q577.125,394.625 576.7813,395.0313 Q576.2813,395.6094 575.4844,395.9375 Q574.4063,396.3906 573.1094,396.3906 Q571.5938,396.3906 570.3906,395.7656 Q569.4063,395.2656 568.7188,394.1953 Q568.0313,393.125 568.0313,391.8438 L568.0313,390.6875 Q568.0313,389.3594 568.6484,388.2109 Q569.2656,387.0625 570.3594,386.4453 Q571.4531,385.8281 572.6875,385.8281 Q573.4219,385.8281 574.0703,385.9922 Q574.7188,386.1563 575.2656,386.5156 Z "/><text fill="#000000" font-family="sans-serif" font-size="12" lengthAdjust="spacingAndGlyphs" textLength="250" x="586.5" y="395.5508">Implementation Model (previous construction)</text><line style="stroke: #A80036; stroke-width: 1.5;" x1="558.5" x2="838.5" y1="406.6406" y2="406.6406"/><line style="stroke: #A80036; stroke-width: 1.5;" x1="558.5" x2="838.5" y1="414.6406" y2="414.6406"/><!--class IntegrationPlanConstructions--><rect fill="#008000" filter="url(#f1m6vcwetg40dy)" height="48" id="IntegrationPlanConstructions" style="stroke: #A80036; stroke-width: 1.5;" width="211" x="875" y="374.6406"/><rect fill="#008000" height="32" style="stroke: #A80036; stroke-width: 1.5;" width="211" x="875" y="374.6406"/><ellipse cx="890" cy="390.6406" fill="#ADD1B2" rx="11" ry="11" style="stroke: #A80036; stroke-width: 1.0;"/><path d="M892.7656,386.5156 Q892.9219,386.2969 893.1094,386.1875 Q893.2969,386.0781 893.5156,386.0781 Q893.8906,386.0781 894.125,386.3359 Q894.3594,386.5938 894.3594,387.2031 L894.3594,388.6563 Q894.3594,389.2656 894.125,389.5313 Q893.8906,389.7969 893.5156,389.7969 Q893.1719,389.7969 892.9688,389.5938 Q892.7656,389.4063 892.6563,388.8906 Q892.6094,388.5313 892.4219,388.3438 Q892.0938,387.9688 891.4844,387.75 Q890.875,387.5313 890.25,387.5313 Q889.4844,387.5313 888.8516,387.8594 Q888.2188,388.1875 887.7266,388.9375 Q887.2344,389.6875 887.2344,390.7188 L887.2344,391.8125 Q887.2344,393.0469 888.125,393.8672 Q889.0156,394.6875 890.6094,394.6875 Q891.5469,394.6875 892.2031,394.4375 Q892.5938,394.2813 893.0156,393.8438 Q893.2813,393.5781 893.4297,393.5 Q893.5781,393.4219 893.7813,393.4219 Q894.1094,393.4219 894.3672,393.6797 Q894.625,393.9375 894.625,394.2813 Q894.625,394.625 894.2813,395.0313 Q893.7813,395.6094 892.9844,395.9375 Q891.9063,396.3906 890.6094,396.3906 Q889.0938,396.3906 887.8906,395.7656 Q886.9063,395.2656 886.2188,394.1953 Q885.5313,393.125 885.5313,391.8438 L885.5313,390.6875 Q885.5313,389.3594 886.1484,388.2109 Q886.7656,387.0625 887.8594,386.4453 Q888.9531,385.8281 890.1875,385.8281 Q890.9219,385.8281 891.5703,385.9922 Q892.2188,386.1563 892.7656,386.5156 Z "/><text fill="#000000" font-family="sans-serif" font-size="12" lengthAdjust="spacingAndGlyphs" textLength="179" x="904" y="395.5508">Integration Plan of Constructions</text><line style="stroke: #A80036; stroke-width: 1.5;" x1="876" x2="1085" y1="406.6406" y2="406.6406"/><line style="stroke: #A80036; stroke-width: 1.5;" x1="876" x2="1085" y1="414.6406" y2="414.6406"/><!--class ImplementationModelX--><rect fill="#008000" filter="url(#f1m6vcwetg40dy)" height="48" id="ImplementationModelX" style="stroke: #A80036; stroke-width: 1.5;" width="301" x="1121" y="374.6406"/><rect fill="#008000" height="32" style="stroke: #A80036; stroke-width: 1.5;" width="301" x="1121" y="374.6406"/><ellipse cx="1136" cy="390.6406" fill="#ADD1B2" rx="11" ry="11" style="stroke: #A80036; stroke-width: 1.0;"/><path d="M1138.7656,386.5156 Q1138.9219,386.2969 1139.1094,386.1875 Q1139.2969,386.0781 1139.5156,386.0781 Q1139.8906,386.0781 1140.125,386.3359 Q1140.3594,386.5938 1140.3594,387.2031 L1140.3594,388.6563 Q1140.3594,389.2656 1140.125,389.5313 Q1139.8906,389.7969 1139.5156,389.7969 Q1139.1719,389.7969 1138.9688,389.5938 Q1138.7656,389.4063 1138.6563,388.8906 Q1138.6094,388.5313 1138.4219,388.3438 Q1138.0938,387.9688 1137.4844,387.75 Q1136.875,387.5313 1136.25,387.5313 Q1135.4844,387.5313 1134.8516,387.8594 Q1134.2188,388.1875 1133.7266,388.9375 Q1133.2344,389.6875 1133.2344,390.7188 L1133.2344,391.8125 Q1133.2344,393.0469 1134.125,393.8672 Q1135.0156,394.6875 1136.6094,394.6875 Q1137.5469,394.6875 1138.2031,394.4375 Q1138.5938,394.2813 1139.0156,393.8438 Q1139.2813,393.5781 1139.4297,393.5 Q1139.5781,393.4219 1139.7813,393.4219 Q1140.1094,393.4219 1140.3672,393.6797 Q1140.625,393.9375 1140.625,394.2813 Q1140.625,394.625 1140.2813,395.0313 Q1139.7813,395.6094 1138.9844,395.9375 Q1137.9063,396.3906 1136.6094,396.3906 Q1135.0938,396.3906 1133.8906,395.7656 Q1132.9063,395.2656 1132.2188,394.1953 Q1131.5313,393.125 1131.5313,391.8438 L1131.5313,390.6875 Q1131.5313,389.3594 1132.1484,388.2109 Q1132.7656,387.0625 1133.8594,386.4453 Q1134.9531,385.8281 1136.1875,385.8281 Q1136.9219,385.8281 1137.5703,385.9922 Q1138.2188,386.1563 1138.7656,386.5156 Z "/><text fill="#000000" font-family="sans-serif" font-size="12" lengthAdjust="spacingAndGlyphs" textLength="269" x="1150" y="395.5508">Implementation Model (subsequent construction)</text><line style="stroke: #A80036; stroke-width: 1.5;" x1="1122" x2="1421" y1="406.6406" y2="406.6406"/><line style="stroke: #A80036; stroke-width: 1.5;" x1="1122" x2="1421" y1="414.6406" y2="414.6406"/><!--class ImplementationRole--><rect fill="#0000FF" filter="url(#f1m6vcwetg40dy)" height="48" id="ImplementationRole" style="stroke: #A80036; stroke-width: 1.5;" width="144" x="1182.5" y="248.6406"/><rect fill="#0000FF" height="32" style="stroke: #A80036; stroke-width: 1.5;" width="144" x="1182.5" y="248.6406"/><ellipse cx="1197.5" cy="264.6406" fill="#ADD1B2" rx="11" ry="11" style="stroke: #A80036; stroke-width: 1.0;"/><path d="M1200.2656,260.5156 Q1200.4219,260.2969 1200.6094,260.1875 Q1200.7969,260.0781 1201.0156,260.0781 Q1201.3906,260.0781 1201.625,260.3359 Q1201.8594,260.5938 1201.8594,261.2031 L1201.8594,262.6563 Q1201.8594,263.2656 1201.625,263.5313 Q1201.3906,263.7969 1201.0156,263.7969 Q1200.6719,263.7969 1200.4688,263.5938 Q1200.2656,263.4063 1200.1563,262.8906 Q1200.1094,262.5313 1199.9219,262.3438 Q1199.5938,261.9688 1198.9844,261.75 Q1198.375,261.5313 1197.75,261.5313 Q1196.9844,261.5313 1196.3516,261.8594 Q1195.7188,262.1875 1195.2266,262.9375 Q1194.7344,263.6875 1194.7344,264.7188 L1194.7344,265.8125 Q1194.7344,267.0469 1195.625,267.8672 Q1196.5156,268.6875 1198.1094,268.6875 Q1199.0469,268.6875 1199.7031,268.4375 Q1200.0938,268.2813 1200.5156,267.8438 Q1200.7813,267.5781 1200.9297,267.5 Q1201.0781,267.4219 1201.2813,267.4219 Q1201.6094,267.4219 1201.8672,267.6797 Q1202.125,267.9375 1202.125,268.2813 Q1202.125,268.625 1201.7813,269.0313 Q1201.2813,269.6094 1200.4844,269.9375 Q1199.4063,270.3906 1198.1094,270.3906 Q1196.5938,270.3906 1195.3906,269.7656 Q1194.4063,269.2656 1193.7188,268.1953 Q1193.0313,267.125 1193.0313,265.8438 L1193.0313,264.6875 Q1193.0313,263.3594 1193.6484,262.2109 Q1194.2656,261.0625 1195.3594,260.4453 Q1196.4531,259.8281 1197.6875,259.8281 Q1198.4219,259.8281 1199.0703,259.9922 Q1199.7188,260.1563 1200.2656,260.5156 Z "/><text fill="#000000" font-family="sans-serif" font-size="12" lengthAdjust="spacingAndGlyphs" textLength="112" x="1211.5" y="269.5508">ImplementationRole</text><line style="stroke: #A80036; stroke-width: 1.5;" x1="1183.5" x2="1325.5" y1="280.6406" y2="280.6406"/><line style="stroke: #A80036; stroke-width: 1.5;" x1="1183.5" x2="1325.5" y1="288.6406" y2="288.6406"/><!--class IntegrateSystems--><rect fill="#FF0000" filter="url(#f1m6vcwetg40dy)" height="48" id="IntegrateSystems" style="stroke: #A80036; stroke-width: 1.5;" width="131" x="774" y="248.6406"/><rect fill="#FF0000" height="32" style="stroke: #A80036; stroke-width: 1.5;" width="131" x="774" y="248.6406"/><ellipse cx="789" cy="264.6406" fill="#ADD1B2" rx="11" ry="11" style="stroke: #A80036; stroke-width: 1.0;"/><path d="M791.7656,260.5156 Q791.9219,260.2969 792.1094,260.1875 Q792.2969,260.0781 792.5156,260.0781 Q792.8906,260.0781 793.125,260.3359 Q793.3594,260.5938 793.3594,261.2031 L793.3594,262.6563 Q793.3594,263.2656 793.125,263.5313 Q792.8906,263.7969 792.5156,263.7969 Q792.1719,263.7969 791.9688,263.5938 Q791.7656,263.4063 791.6563,262.8906 Q791.6094,262.5313 791.4219,262.3438 Q791.0938,261.9688 790.4844,261.75 Q789.875,261.5313 789.25,261.5313 Q788.4844,261.5313 787.8516,261.8594 Q787.2188,262.1875 786.7266,262.9375 Q786.2344,263.6875 786.2344,264.7188 L786.2344,265.8125 Q786.2344,267.0469 787.125,267.8672 Q788.0156,268.6875 789.6094,268.6875 Q790.5469,268.6875 791.2031,268.4375 Q791.5938,268.2813 792.0156,267.8438 Q792.2813,267.5781 792.4297,267.5 Q792.5781,267.4219 792.7813,267.4219 Q793.1094,267.4219 793.3672,267.6797 Q793.625,267.9375 793.625,268.2813 Q793.625,268.625 793.2813,269.0313 Q792.7813,269.6094 791.9844,269.9375 Q790.9063,270.3906 789.6094,270.3906 Q788.0938,270.3906 786.8906,269.7656 Q785.9063,269.2656 785.2188,268.1953 Q784.5313,267.125 784.5313,265.8438 L784.5313,264.6875 Q784.5313,263.3594 785.1484,262.2109 Q785.7656,261.0625 786.8594,260.4453 Q787.9531,259.8281 789.1875,259.8281 Q789.9219,259.8281 790.5703,259.9922 Q791.2188,260.1563 791.7656,260.5156 Z "/><text fill="#000000" font-family="sans-serif" font-size="12" lengthAdjust="spacingAndGlyphs" textLength="99" x="803" y="269.5508">Integrate Systems</text><line style="stroke: #A80036; stroke-width: 1.5;" x1="775" x2="904" y1="280.6406" y2="280.6406"/><line style="stroke: #A80036; stroke-width: 1.5;" x1="775" x2="904" y1="288.6406" y2="288.6406"/><!--class IntegratorSystems--><rect fill="#0000FF" filter="url(#f1m6vcwetg40dy)" height="48" id="IntegratorSystems" style="stroke: #A80036; stroke-width: 1.5;" width="148" x="1457.5" y="374.6406"/><rect fill="#0000FF" height="32" style="stroke: #A80036; stroke-width: 1.5;" width="148" x="1457.5" y="374.6406"/><ellipse cx="1472.5" cy="390.6406" fill="#ADD1B2" rx="11" ry="11" style="stroke: #A80036; stroke-width: 1.0;"/><path d="M1475.2656,386.5156 Q1475.4219,386.2969 1475.6094,386.1875 Q1475.7969,386.0781 1476.0156,386.0781 Q1476.3906,386.0781 1476.625,386.3359 Q1476.8594,386.5938 1476.8594,387.2031 L1476.8594,388.6563 Q1476.8594,389.2656 1476.625,389.5313 Q1476.3906,389.7969 1476.0156,389.7969 Q1475.6719,389.7969 1475.4688,389.5938 Q1475.2656,389.4063 1475.1563,388.8906 Q1475.1094,388.5313 1474.9219,388.3438 Q1474.5938,387.9688 1473.9844,387.75 Q1473.375,387.5313 1472.75,387.5313 Q1471.9844,387.5313 1471.3516,387.8594 Q1470.7188,388.1875 1470.2266,388.9375 Q1469.7344,389.6875 1469.7344,390.7188 L1469.7344,391.8125 Q1469.7344,393.0469 1470.625,393.8672 Q1471.5156,394.6875 1473.1094,394.6875 Q1474.0469,394.6875 1474.7031,394.4375 Q1475.0938,394.2813 1475.5156,393.8438 Q1475.7813,393.5781 1475.9297,393.5 Q1476.0781,393.4219 1476.2813,393.4219 Q1476.6094,393.4219 1476.8672,393.6797 Q1477.125,393.9375 1477.125,394.2813 Q1477.125,394.625 1476.7813,395.0313 Q1476.2813,395.6094 1475.4844,395.9375 Q1474.4063,396.3906 1473.1094,396.3906 Q1471.5938,396.3906 1470.3906,395.7656 Q1469.4063,395.2656 1468.7188,394.1953 Q1468.0313,393.125 1468.0313,391.8438 L1468.0313,390.6875 Q1468.0313,389.3594 1468.6484,388.2109 Q1469.2656,387.0625 1470.3594,386.4453 Q1471.4531,385.8281 1472.6875,385.8281 Q1473.4219,385.8281 1474.0703,385.9922 Q1474.7188,386.1563 1475.2656,386.5156 Z "/><text fill="#000000" font-family="sans-serif" font-size="12" lengthAdjust="spacingAndGlyphs" textLength="116" x="1486.5" y="395.5508">Integrator of Systems</text><line style="stroke: #A80036; stroke-width: 1.5;" x1="1458.5" x2="1604.5" y1="406.6406" y2="406.6406"/><line style="stroke: #A80036; stroke-width: 1.5;" x1="1458.5" x2="1604.5" y1="414.6406" y2="414.6406"/><!--link Activity to ImplementationActivity--><path d="M1157.23,95.7936 C1147.59,110.5336 1137,126.7166 1128.66,139.4686 " fill="none" id="Activity-ImplementationActivity" style="stroke: #A80036; stroke-width: 1.0;"/><polygon fill="none" points="1151.5,91.7626,1168.31,78.8576,1163.22,99.4266,1151.5,91.7626" style="stroke: #A80036; stroke-width: 1.0;"/><!--link Activity to Role--><path d="M1198.91,78.8576 C1209.88,95.4036 1224.69,117.7106 1236.26,135.1466 " fill="none" id="Activity-Role" style="stroke: #A80036; stroke-width: 1.0;"/><polygon fill="#A80036" points="1239.12,139.4686,1237.4828,129.7568,1236.358,135.3007,1230.8141,134.1759,1239.12,139.4686" style="stroke: #A80036; stroke-width: 1.0;"/><!--link ImplementationActivity to ImplementationRole--><path d="M1144.09,187.8576 C1166.36,204.7536 1196.54,227.6576 1219.72,245.2486 " fill="none" id="ImplementationActivity-ImplementationRole" style="stroke: #A80036; stroke-width: 1.0;"/><polygon fill="#A80036" points="1223.96,248.4686,1219.2171,239.837,1219.98,245.4422,1214.3748,246.2051,1223.96,248.4686" style="stroke: #A80036; stroke-width: 1.0;"/><!--link ImplementationActivity to IntegrateSystems--><path d="M1035.46,195.1156 C991.916,212.1206 938.55,232.9606 898.511,248.5966 " fill="none" id="ImplementationActivity-IntegrateSystems" style="stroke: #A80036; stroke-width: 1.0;"/><polygon fill="none" points="1033.21,188.4806,1054.38,187.7266,1038.3,201.5216,1033.21,188.4806" style="stroke: #A80036; stroke-width: 1.0;"/><!--link IntegrateSystems to RequirementsSupplementary--><path d="M773.858,283.5496 C660.69,300.8126 421.636,338.0642 220.5,374.6406 C216.435,375.3799 212.292,376.145 208.109,376.9274 " fill="none" id="IntegrateSystems-RequirementsSupplementary" style="stroke: #A80036; stroke-width: 1.0;"/><polygon fill="#A80036" points="203.181,377.8534,212.7653,380.1208,208.0948,376.9292,211.2865,372.2587,203.181,377.8534" style="stroke: #A80036; stroke-width: 1.0;"/><text fill="#000000" font-family="sans-serif" font-size="13" lengthAdjust="spacingAndGlyphs" textLength="10" x="493.5" y="341.1357">in</text><!--link IntegrateSystems to ModelUseCases--><path d="M773.673,287.9696 C687.017,306.9876 530.018,341.9805 396.5,374.6406 C392.421,375.6384 388.24,376.6771 384.021,377.7375 " fill="none" id="IntegrateSystems-ModelUseCases" style="stroke: #A80036; stroke-width: 1.0;"/><polygon fill="#A80036" points="379.057,378.991,388.7625,380.6656,383.9048,377.7668,386.8036,372.9091,379.057,378.991" style="stroke: #A80036; stroke-width: 1.0;"/><text fill="#000000" font-family="sans-serif" font-size="13" lengthAdjust="spacingAndGlyphs" textLength="10" x="592.5" y="341.1357">in</text><!--link IntegrateSystems to DesignModel--><path d="M773.6,295.6666 C703.752,319.0116 594.464,355.5395 527.399,377.9548 " fill="none" id="IntegrateSystems-DesignModel" style="stroke: #A80036; stroke-width: 1.0;"/><polygon fill="#A80036" points="522.644,379.544,532.448,380.4834,527.3859,377.9584,529.9109,372.8963,522.644,379.544" style="stroke: #A80036; stroke-width: 1.0;"/><text fill="#000000" font-family="sans-serif" font-size="13" lengthAdjust="spacingAndGlyphs" textLength="10" x="677.5" y="341.1357">in</text><!--link IntegrateSystems to ImplementationModel--><path d="M813.309,296.6736 C789.421,317.6816 754.118,348.7283 728.974,370.841 " fill="none" id="IntegrateSystems-ImplementationModel" style="stroke: #A80036; stroke-width: 1.0;"/><polygon fill="#A80036" points="725.029,374.3103,734.4291,371.3714,728.7839,371.0087,729.1466,365.3635,725.029,374.3103" style="stroke: #A80036; stroke-width: 1.0;"/><text fill="#000000" font-family="sans-serif" font-size="13" lengthAdjust="spacingAndGlyphs" textLength="10" x="778.5" y="341.1357">in</text><!--link IntegrateSystems to IntegrationPlanConstructions--><path d="M865.691,296.6736 C889.579,317.6816 924.882,348.7283 950.026,370.841 " fill="none" id="IntegrateSystems-IntegrationPlanConstructions" style="stroke: #A80036; stroke-width: 1.0;"/><polygon fill="#A80036" points="953.971,374.3103,949.8534,365.3635,950.2161,371.0087,944.5709,371.3714,953.971,374.3103" style="stroke: #A80036; stroke-width: 1.0;"/><text fill="#000000" font-family="sans-serif" font-size="13" lengthAdjust="spacingAndGlyphs" textLength="18" x="919.5" y="341.1357">out</text><!--link IntegrateSystems to ImplementationModelX--><path d="M905.112,292.4736 C980.325,314.0626 1103.84,349.5146 1186.39,373.2115 " fill="none" id="IntegrateSystems-ImplementationModelX" style="stroke: #A80036; stroke-width: 1.0;"/><polygon fill="#A80036" points="1191.28,374.6134,1183.7231,368.2973,1186.4719,373.2414,1181.5278,375.9902,1191.28,374.6134" style="stroke: #A80036; stroke-width: 1.0;"/><text fill="#000000" font-family="sans-serif" font-size="13" lengthAdjust="spacingAndGlyphs" textLength="18" x="1082.5" y="341.1357">out</text><!--link IntegrateSystems to IntegratorSystems--><path d="M905.07,282.9616 C1015.73,299.0756 1246.4,334.3145 1439.5,374.6406 C1443.67,375.5114 1447.94,376.4412 1452.24,377.4091 " fill="none" id="IntegrateSystems-IntegratorSystems" style="stroke: #A80036; stroke-width: 1.0;"/><polygon fill="#A80036" points="1457.3,378.5616,1449.4011,372.6789,1452.4226,377.4611,1447.6403,380.4827,1457.3,378.5616" style="stroke: #A80036; stroke-width: 1.0;"/><!--link Role to ImplementationRole--><path d="M1254.5,208.2186 C1254.5,222.0026 1254.5,236.6976 1254.5,248.4686 " fill="none" id="Role-ImplementationRole" style="stroke: #A80036; stroke-width: 1.0;"/><polygon fill="none" points="1247.5,207.8576,1254.5,187.8576,1261.5,207.8576,1247.5,207.8576" style="stroke: #A80036; stroke-width: 1.0;"/><!--link ImplementationRole to IntegratorSystems--><path d="M1345.98,295.7646 C1373.2,303.8606 1402.64,314.1616 1428.5,326.6406 C1455.49,339.6664 1483.32,359.2806 1503.23,374.5948 " fill="none" id="ImplementationRole-IntegratorSystems" style="stroke: #A80036; stroke-width: 1.0;"/><polygon fill="none" points="1343.96,302.4676,1326.64,290.2606,1347.79,289.0026,1343.96,302.4676" style="stroke: #A80036; stroke-width: 1.0;"/><!--
@startuml
title Integrate Systems
class Activity #red
Activity <|- - ImplementationActivity
Activity - -> Role

class "Requirements Supplementary" as RequirementsSupplementary #green
class "Model of Use cases" as ModelUseCases #green
class "Design Model" as DesignModel #green
class "Implementation Model (previous construction)" as ImplementationModel  #green
class "Integration Plan of Constructions" as IntegrationPlanConstructions #green
class "Implementation Model (subsequent construction)" as ImplementationModelX #green

class ImplementationActivity #red
ImplementationActivity - -> ImplementationRole

class "Integrate Systems" as IntegrateSystems #red
ImplementationActivity <|- - IntegrateSystems

IntegrateSystems - -> RequirementsSupplementary :in
IntegrateSystems - -> ModelUseCases :in
IntegrateSystems - -> DesignModel :in
IntegrateSystems - -> ImplementationModel :in
IntegrateSystems - -> IntegrationPlanConstructions :out
IntegrateSystems - -> ImplementationModelX :out


class Role #blue
class ImplementationRole #blue
class "Integrator of Systems" as IntegratorSystems #blue

IntegrateSystems - -> IntegratorSystems

Role <|- - ImplementationRole
ImplementationRole <|- - IntegratorSystems
@enduml

PlantUML version 1.2019.05(Sat Apr 20 18:45:36 CEST 2019)
(GPL source distribution)
Java Runtime: OpenJDK Runtime Environment
JVM: OpenJDK 64-Bit Server VM
Java Version: 1.8.0_222-b10
Operating System: Windows 10
OS Version: 10.0
Default Encoding: windows-1252
Language: es
Country: ES
--></g></svg>