<?xml version="1.0" encoding="UTF-8" standalone="no"?><svg xmlns="http://www.w3.org/2000/svg" xmlns:xlink="http://www.w3.org/1999/xlink" contentScriptType="application/ecmascript" contentStyleType="text/css" height="411px" preserveAspectRatio="none" style="width:883px;height:411px;" version="1.1" viewBox="0 0 883 411" width="883px" zoomAndPan="magnify"><defs><filter height="300%" id="f190zpj4tlwv7m" width="300%" x="-1" y="-1"><feGaussianBlur result="blurOut" stdDeviation="2.0"/><feColorMatrix in="blurOut" result="blurOut2" type="matrix" values="0 0 0 0 0 0 0 0 0 0 0 0 0 0 0 0 0 0 .4 0"/><feOffset dx="4.0" dy="4.0" in="blurOut2" result="blurOut3"/><feBlend in="SourceGraphic" in2="blurOut3" mode="normal"/></filter></defs><g><!--class Activity--><rect fill="#FF0000" filter="url(#f190zpj4tlwv7m)" height="48" id="Activity" style="stroke: #A80036; stroke-width: 1.5;" width="67" x="627" y="8"/><rect fill="#FF0000" height="32" style="stroke: #A80036; stroke-width: 1.5;" width="67" x="627" y="8"/><ellipse cx="642" cy="24" fill="#ADD1B2" rx="11" ry="11" style="stroke: #A80036; stroke-width: 1.0;"/><path d="M644.7656,19.875 Q644.9219,19.6563 645.1094,19.5469 Q645.2969,19.4375 645.5156,19.4375 Q645.8906,19.4375 646.125,19.6953 Q646.3594,19.9531 646.3594,20.5625 L646.3594,22.0156 Q646.3594,22.625 646.125,22.8906 Q645.8906,23.1563 645.5156,23.1563 Q645.1719,23.1563 644.9688,22.9531 Q644.7656,22.7656 644.6563,22.25 Q644.6094,21.8906 644.4219,21.7031 Q644.0938,21.3281 643.4844,21.1094 Q642.875,20.8906 642.25,20.8906 Q641.4844,20.8906 640.8516,21.2188 Q640.2188,21.5469 639.7266,22.2969 Q639.2344,23.0469 639.2344,24.0781 L639.2344,25.1719 Q639.2344,26.4063 640.125,27.2266 Q641.0156,28.0469 642.6094,28.0469 Q643.5469,28.0469 644.2031,27.7969 Q644.5938,27.6406 645.0156,27.2031 Q645.2813,26.9375 645.4297,26.8594 Q645.5781,26.7813 645.7813,26.7813 Q646.1094,26.7813 646.3672,27.0391 Q646.625,27.2969 646.625,27.6406 Q646.625,27.9844 646.2813,28.3906 Q645.7813,28.9688 644.9844,29.2969 Q643.9063,29.75 642.6094,29.75 Q641.0938,29.75 639.8906,29.125 Q638.9063,28.625 638.2188,27.5547 Q637.5313,26.4844 637.5313,25.2031 L637.5313,24.0469 Q637.5313,22.7188 638.1484,21.5703 Q638.7656,20.4219 639.8594,19.8047 Q640.9531,19.1875 642.1875,19.1875 Q642.9219,19.1875 643.5703,19.3516 Q644.2188,19.5156 644.7656,19.875 Z "/><text fill="#000000" font-family="sans-serif" font-size="12" lengthAdjust="spacingAndGlyphs" textLength="35" x="656" y="28.9102">Activity</text><line style="stroke: #A80036; stroke-width: 1.5;" x1="628" x2="693" y1="40" y2="40"/><line style="stroke: #A80036; stroke-width: 1.5;" x1="628" x2="693" y1="48" y2="48"/><!--class TestsActivity--><rect fill="#FF0000" filter="url(#f190zpj4tlwv7m)" height="48" id="TestsActivity" style="stroke: #A80036; stroke-width: 1.5;" width="98" x="555.5" y="117"/><rect fill="#FF0000" height="32" style="stroke: #A80036; stroke-width: 1.5;" width="98" x="555.5" y="117"/><ellipse cx="570.5" cy="133" fill="#ADD1B2" rx="11" ry="11" style="stroke: #A80036; stroke-width: 1.0;"/><path d="M573.2656,128.875 Q573.4219,128.6563 573.6094,128.5469 Q573.7969,128.4375 574.0156,128.4375 Q574.3906,128.4375 574.625,128.6953 Q574.8594,128.9531 574.8594,129.5625 L574.8594,131.0156 Q574.8594,131.625 574.625,131.8906 Q574.3906,132.1563 574.0156,132.1563 Q573.6719,132.1563 573.4688,131.9531 Q573.2656,131.7656 573.1563,131.25 Q573.1094,130.8906 572.9219,130.7031 Q572.5938,130.3281 571.9844,130.1094 Q571.375,129.8906 570.75,129.8906 Q569.9844,129.8906 569.3516,130.2188 Q568.7188,130.5469 568.2266,131.2969 Q567.7344,132.0469 567.7344,133.0781 L567.7344,134.1719 Q567.7344,135.4063 568.625,136.2266 Q569.5156,137.0469 571.1094,137.0469 Q572.0469,137.0469 572.7031,136.7969 Q573.0938,136.6406 573.5156,136.2031 Q573.7813,135.9375 573.9297,135.8594 Q574.0781,135.7813 574.2813,135.7813 Q574.6094,135.7813 574.8672,136.0391 Q575.125,136.2969 575.125,136.6406 Q575.125,136.9844 574.7813,137.3906 Q574.2813,137.9688 573.4844,138.2969 Q572.4063,138.75 571.1094,138.75 Q569.5938,138.75 568.3906,138.125 Q567.4063,137.625 566.7188,136.5547 Q566.0313,135.4844 566.0313,134.2031 L566.0313,133.0469 Q566.0313,131.7188 566.6484,130.5703 Q567.2656,129.4219 568.3594,128.8047 Q569.4531,128.1875 570.6875,128.1875 Q571.4219,128.1875 572.0703,128.3516 Q572.7188,128.5156 573.2656,128.875 Z "/><text fill="#000000" font-family="sans-serif" font-size="12" lengthAdjust="spacingAndGlyphs" textLength="66" x="584.5" y="137.9102">TestsActivity</text><line style="stroke: #A80036; stroke-width: 1.5;" x1="556.5" x2="652.5" y1="149" y2="149"/><line style="stroke: #A80036; stroke-width: 1.5;" x1="556.5" x2="652.5" y1="157" y2="157"/><!--class Role--><rect fill="#0000FF" filter="url(#f190zpj4tlwv7m)" height="48" id="Role" style="stroke: #A80036; stroke-width: 1.5;" width="58" x="688.5" y="117"/><rect fill="#0000FF" height="32" style="stroke: #A80036; stroke-width: 1.5;" width="58" x="688.5" y="117"/><ellipse cx="703.5" cy="133" fill="#ADD1B2" rx="11" ry="11" style="stroke: #A80036; stroke-width: 1.0;"/><path d="M706.2656,128.875 Q706.4219,128.6563 706.6094,128.5469 Q706.7969,128.4375 707.0156,128.4375 Q707.3906,128.4375 707.625,128.6953 Q707.8594,128.9531 707.8594,129.5625 L707.8594,131.0156 Q707.8594,131.625 707.625,131.8906 Q707.3906,132.1563 707.0156,132.1563 Q706.6719,132.1563 706.4688,131.9531 Q706.2656,131.7656 706.1563,131.25 Q706.1094,130.8906 705.9219,130.7031 Q705.5938,130.3281 704.9844,130.1094 Q704.375,129.8906 703.75,129.8906 Q702.9844,129.8906 702.3516,130.2188 Q701.7188,130.5469 701.2266,131.2969 Q700.7344,132.0469 700.7344,133.0781 L700.7344,134.1719 Q700.7344,135.4063 701.625,136.2266 Q702.5156,137.0469 704.1094,137.0469 Q705.0469,137.0469 705.7031,136.7969 Q706.0938,136.6406 706.5156,136.2031 Q706.7813,135.9375 706.9297,135.8594 Q707.0781,135.7813 707.2813,135.7813 Q707.6094,135.7813 707.8672,136.0391 Q708.125,136.2969 708.125,136.6406 Q708.125,136.9844 707.7813,137.3906 Q707.2813,137.9688 706.4844,138.2969 Q705.4063,138.75 704.1094,138.75 Q702.5938,138.75 701.3906,138.125 Q700.4063,137.625 699.7188,136.5547 Q699.0313,135.4844 699.0313,134.2031 L699.0313,133.0469 Q699.0313,131.7188 699.6484,130.5703 Q700.2656,129.4219 701.3594,128.8047 Q702.4531,128.1875 703.6875,128.1875 Q704.4219,128.1875 705.0703,128.3516 Q705.7188,128.5156 706.2656,128.875 Z "/><text fill="#000000" font-family="sans-serif" font-size="12" lengthAdjust="spacingAndGlyphs" textLength="26" x="717.5" y="137.9102">Role</text><line style="stroke: #A80036; stroke-width: 1.5;" x1="689.5" x2="745.5" y1="149" y2="149"/><line style="stroke: #A80036; stroke-width: 1.5;" x1="689.5" x2="745.5" y1="157" y2="157"/><!--class TestCase--><rect fill="#008000" filter="url(#f190zpj4tlwv7m)" height="48" id="TestCase" style="stroke: #A80036; stroke-width: 1.5;" width="89" x="6" y="352"/><rect fill="#008000" height="32" style="stroke: #A80036; stroke-width: 1.5;" width="89" x="6" y="352"/><ellipse cx="21" cy="368" fill="#ADD1B2" rx="11" ry="11" style="stroke: #A80036; stroke-width: 1.0;"/><path d="M23.7656,363.875 Q23.9219,363.6563 24.1094,363.5469 Q24.2969,363.4375 24.5156,363.4375 Q24.8906,363.4375 25.125,363.6953 Q25.3594,363.9531 25.3594,364.5625 L25.3594,366.0156 Q25.3594,366.625 25.125,366.8906 Q24.8906,367.1563 24.5156,367.1563 Q24.1719,367.1563 23.9688,366.9531 Q23.7656,366.7656 23.6563,366.25 Q23.6094,365.8906 23.4219,365.7031 Q23.0938,365.3281 22.4844,365.1094 Q21.875,364.8906 21.25,364.8906 Q20.4844,364.8906 19.8516,365.2188 Q19.2188,365.5469 18.7266,366.2969 Q18.2344,367.0469 18.2344,368.0781 L18.2344,369.1719 Q18.2344,370.4063 19.125,371.2266 Q20.0156,372.0469 21.6094,372.0469 Q22.5469,372.0469 23.2031,371.7969 Q23.5938,371.6406 24.0156,371.2031 Q24.2813,370.9375 24.4297,370.8594 Q24.5781,370.7813 24.7813,370.7813 Q25.1094,370.7813 25.3672,371.0391 Q25.625,371.2969 25.625,371.6406 Q25.625,371.9844 25.2813,372.3906 Q24.7813,372.9688 23.9844,373.2969 Q22.9063,373.75 21.6094,373.75 Q20.0938,373.75 18.8906,373.125 Q17.9063,372.625 17.2188,371.5547 Q16.5313,370.4844 16.5313,369.2031 L16.5313,368.0469 Q16.5313,366.7188 17.1484,365.5703 Q17.7656,364.4219 18.8594,363.8047 Q19.9531,363.1875 21.1875,363.1875 Q21.9219,363.1875 22.5703,363.3516 Q23.2188,363.5156 23.7656,363.875 Z "/><text fill="#000000" font-family="sans-serif" font-size="12" lengthAdjust="spacingAndGlyphs" textLength="57" x="35" y="372.9102">Test Case</text><line style="stroke: #A80036; stroke-width: 1.5;" x1="7" x2="94" y1="384" y2="384"/><line style="stroke: #A80036; stroke-width: 1.5;" x1="7" x2="94" y1="392" y2="392"/><!--class TestProcedure--><rect fill="#008000" filter="url(#f190zpj4tlwv7m)" height="48" id="TestProcedure" style="stroke: #A80036; stroke-width: 1.5;" width="116" x="130.5" y="352"/><rect fill="#008000" height="32" style="stroke: #A80036; stroke-width: 1.5;" width="116" x="130.5" y="352"/><ellipse cx="145.5" cy="368" fill="#ADD1B2" rx="11" ry="11" style="stroke: #A80036; stroke-width: 1.0;"/><path d="M148.2656,363.875 Q148.4219,363.6563 148.6094,363.5469 Q148.7969,363.4375 149.0156,363.4375 Q149.3906,363.4375 149.625,363.6953 Q149.8594,363.9531 149.8594,364.5625 L149.8594,366.0156 Q149.8594,366.625 149.625,366.8906 Q149.3906,367.1563 149.0156,367.1563 Q148.6719,367.1563 148.4688,366.9531 Q148.2656,366.7656 148.1563,366.25 Q148.1094,365.8906 147.9219,365.7031 Q147.5938,365.3281 146.9844,365.1094 Q146.375,364.8906 145.75,364.8906 Q144.9844,364.8906 144.3516,365.2188 Q143.7188,365.5469 143.2266,366.2969 Q142.7344,367.0469 142.7344,368.0781 L142.7344,369.1719 Q142.7344,370.4063 143.625,371.2266 Q144.5156,372.0469 146.1094,372.0469 Q147.0469,372.0469 147.7031,371.7969 Q148.0938,371.6406 148.5156,371.2031 Q148.7813,370.9375 148.9297,370.8594 Q149.0781,370.7813 149.2813,370.7813 Q149.6094,370.7813 149.8672,371.0391 Q150.125,371.2969 150.125,371.6406 Q150.125,371.9844 149.7813,372.3906 Q149.2813,372.9688 148.4844,373.2969 Q147.4063,373.75 146.1094,373.75 Q144.5938,373.75 143.3906,373.125 Q142.4063,372.625 141.7188,371.5547 Q141.0313,370.4844 141.0313,369.2031 L141.0313,368.0469 Q141.0313,366.7188 141.6484,365.5703 Q142.2656,364.4219 143.3594,363.8047 Q144.4531,363.1875 145.6875,363.1875 Q146.4219,363.1875 147.0703,363.3516 Q147.7188,363.5156 148.2656,363.875 Z "/><text fill="#000000" font-family="sans-serif" font-size="12" lengthAdjust="spacingAndGlyphs" textLength="84" x="159.5" y="372.9102">Test Procedure</text><line style="stroke: #A80036; stroke-width: 1.5;" x1="131.5" x2="245.5" y1="384" y2="384"/><line style="stroke: #A80036; stroke-width: 1.5;" x1="131.5" x2="245.5" y1="392" y2="392"/><!--class TestComponent--><rect fill="#008000" filter="url(#f190zpj4tlwv7m)" height="48" id="TestComponent" style="stroke: #A80036; stroke-width: 1.5;" width="124" x="281.5" y="352"/><rect fill="#008000" height="32" style="stroke: #A80036; stroke-width: 1.5;" width="124" x="281.5" y="352"/><ellipse cx="296.5" cy="368" fill="#ADD1B2" rx="11" ry="11" style="stroke: #A80036; stroke-width: 1.0;"/><path d="M299.2656,363.875 Q299.4219,363.6563 299.6094,363.5469 Q299.7969,363.4375 300.0156,363.4375 Q300.3906,363.4375 300.625,363.6953 Q300.8594,363.9531 300.8594,364.5625 L300.8594,366.0156 Q300.8594,366.625 300.625,366.8906 Q300.3906,367.1563 300.0156,367.1563 Q299.6719,367.1563 299.4688,366.9531 Q299.2656,366.7656 299.1563,366.25 Q299.1094,365.8906 298.9219,365.7031 Q298.5938,365.3281 297.9844,365.1094 Q297.375,364.8906 296.75,364.8906 Q295.9844,364.8906 295.3516,365.2188 Q294.7188,365.5469 294.2266,366.2969 Q293.7344,367.0469 293.7344,368.0781 L293.7344,369.1719 Q293.7344,370.4063 294.625,371.2266 Q295.5156,372.0469 297.1094,372.0469 Q298.0469,372.0469 298.7031,371.7969 Q299.0938,371.6406 299.5156,371.2031 Q299.7813,370.9375 299.9297,370.8594 Q300.0781,370.7813 300.2813,370.7813 Q300.6094,370.7813 300.8672,371.0391 Q301.125,371.2969 301.125,371.6406 Q301.125,371.9844 300.7813,372.3906 Q300.2813,372.9688 299.4844,373.2969 Q298.4063,373.75 297.1094,373.75 Q295.5938,373.75 294.3906,373.125 Q293.4063,372.625 292.7188,371.5547 Q292.0313,370.4844 292.0313,369.2031 L292.0313,368.0469 Q292.0313,366.7188 292.6484,365.5703 Q293.2656,364.4219 294.3594,363.8047 Q295.4531,363.1875 296.6875,363.1875 Q297.4219,363.1875 298.0703,363.3516 Q298.7188,363.5156 299.2656,363.875 Z "/><text fill="#000000" font-family="sans-serif" font-size="12" lengthAdjust="spacingAndGlyphs" textLength="92" x="310.5" y="372.9102">Test Component</text><line style="stroke: #A80036; stroke-width: 1.5;" x1="282.5" x2="404.5" y1="384" y2="384"/><line style="stroke: #A80036; stroke-width: 1.5;" x1="282.5" x2="404.5" y1="392" y2="392"/><!--class ImplementationModel--><rect fill="#008000" filter="url(#f190zpj4tlwv7m)" height="48" id="ImplementationModel" style="stroke: #A80036; stroke-width: 1.5;" width="154" x="440.5" y="352"/><rect fill="#008000" height="32" style="stroke: #A80036; stroke-width: 1.5;" width="154" x="440.5" y="352"/><ellipse cx="455.5" cy="368" fill="#ADD1B2" rx="11" ry="11" style="stroke: #A80036; stroke-width: 1.0;"/><path d="M458.2656,363.875 Q458.4219,363.6563 458.6094,363.5469 Q458.7969,363.4375 459.0156,363.4375 Q459.3906,363.4375 459.625,363.6953 Q459.8594,363.9531 459.8594,364.5625 L459.8594,366.0156 Q459.8594,366.625 459.625,366.8906 Q459.3906,367.1563 459.0156,367.1563 Q458.6719,367.1563 458.4688,366.9531 Q458.2656,366.7656 458.1563,366.25 Q458.1094,365.8906 457.9219,365.7031 Q457.5938,365.3281 456.9844,365.1094 Q456.375,364.8906 455.75,364.8906 Q454.9844,364.8906 454.3516,365.2188 Q453.7188,365.5469 453.2266,366.2969 Q452.7344,367.0469 452.7344,368.0781 L452.7344,369.1719 Q452.7344,370.4063 453.625,371.2266 Q454.5156,372.0469 456.1094,372.0469 Q457.0469,372.0469 457.7031,371.7969 Q458.0938,371.6406 458.5156,371.2031 Q458.7813,370.9375 458.9297,370.8594 Q459.0781,370.7813 459.2813,370.7813 Q459.6094,370.7813 459.8672,371.0391 Q460.125,371.2969 460.125,371.6406 Q460.125,371.9844 459.7813,372.3906 Q459.2813,372.9688 458.4844,373.2969 Q457.4063,373.75 456.1094,373.75 Q454.5938,373.75 453.3906,373.125 Q452.4063,372.625 451.7188,371.5547 Q451.0313,370.4844 451.0313,369.2031 L451.0313,368.0469 Q451.0313,366.7188 451.6484,365.5703 Q452.2656,364.4219 453.3594,363.8047 Q454.4531,363.1875 455.6875,363.1875 Q456.4219,363.1875 457.0703,363.3516 Q457.7188,363.5156 458.2656,363.875 Z "/><text fill="#000000" font-family="sans-serif" font-size="12" lengthAdjust="spacingAndGlyphs" textLength="122" x="469.5" y="372.9102">Implementation Model</text><line style="stroke: #A80036; stroke-width: 1.5;" x1="441.5" x2="593.5" y1="384" y2="384"/><line style="stroke: #A80036; stroke-width: 1.5;" x1="441.5" x2="593.5" y1="392" y2="392"/><!--class DEFECT--><rect fill="#008000" filter="url(#f190zpj4tlwv7m)" height="48" id="DEFECT" style="stroke: #A80036; stroke-width: 1.5;" width="80" x="629.5" y="352"/><rect fill="#008000" height="32" style="stroke: #A80036; stroke-width: 1.5;" width="80" x="629.5" y="352"/><ellipse cx="644.5" cy="368" fill="#ADD1B2" rx="11" ry="11" style="stroke: #A80036; stroke-width: 1.0;"/><path d="M647.2656,363.875 Q647.4219,363.6563 647.6094,363.5469 Q647.7969,363.4375 648.0156,363.4375 Q648.3906,363.4375 648.625,363.6953 Q648.8594,363.9531 648.8594,364.5625 L648.8594,366.0156 Q648.8594,366.625 648.625,366.8906 Q648.3906,367.1563 648.0156,367.1563 Q647.6719,367.1563 647.4688,366.9531 Q647.2656,366.7656 647.1563,366.25 Q647.1094,365.8906 646.9219,365.7031 Q646.5938,365.3281 645.9844,365.1094 Q645.375,364.8906 644.75,364.8906 Q643.9844,364.8906 643.3516,365.2188 Q642.7188,365.5469 642.2266,366.2969 Q641.7344,367.0469 641.7344,368.0781 L641.7344,369.1719 Q641.7344,370.4063 642.625,371.2266 Q643.5156,372.0469 645.1094,372.0469 Q646.0469,372.0469 646.7031,371.7969 Q647.0938,371.6406 647.5156,371.2031 Q647.7813,370.9375 647.9297,370.8594 Q648.0781,370.7813 648.2813,370.7813 Q648.6094,370.7813 648.8672,371.0391 Q649.125,371.2969 649.125,371.6406 Q649.125,371.9844 648.7813,372.3906 Q648.2813,372.9688 647.4844,373.2969 Q646.4063,373.75 645.1094,373.75 Q643.5938,373.75 642.3906,373.125 Q641.4063,372.625 640.7188,371.5547 Q640.0313,370.4844 640.0313,369.2031 L640.0313,368.0469 Q640.0313,366.7188 640.6484,365.5703 Q641.2656,364.4219 642.3594,363.8047 Q643.4531,363.1875 644.6875,363.1875 Q645.4219,363.1875 646.0703,363.3516 Q646.7188,363.5156 647.2656,363.875 Z "/><text fill="#000000" font-family="sans-serif" font-size="12" lengthAdjust="spacingAndGlyphs" textLength="48" x="658.5" y="372.9102">DEFECT</text><line style="stroke: #A80036; stroke-width: 1.5;" x1="630.5" x2="708.5" y1="384" y2="384"/><line style="stroke: #A80036; stroke-width: 1.5;" x1="630.5" x2="708.5" y1="392" y2="392"/><!--class TestsRole--><rect fill="#0000FF" filter="url(#f190zpj4tlwv7m)" height="48" id="TestsRole" style="stroke: #A80036; stroke-width: 1.5;" width="89" x="673" y="226"/><rect fill="#0000FF" height="32" style="stroke: #A80036; stroke-width: 1.5;" width="89" x="673" y="226"/><ellipse cx="688" cy="242" fill="#ADD1B2" rx="11" ry="11" style="stroke: #A80036; stroke-width: 1.0;"/><path d="M690.7656,237.875 Q690.9219,237.6563 691.1094,237.5469 Q691.2969,237.4375 691.5156,237.4375 Q691.8906,237.4375 692.125,237.6953 Q692.3594,237.9531 692.3594,238.5625 L692.3594,240.0156 Q692.3594,240.625 692.125,240.8906 Q691.8906,241.1563 691.5156,241.1563 Q691.1719,241.1563 690.9688,240.9531 Q690.7656,240.7656 690.6563,240.25 Q690.6094,239.8906 690.4219,239.7031 Q690.0938,239.3281 689.4844,239.1094 Q688.875,238.8906 688.25,238.8906 Q687.4844,238.8906 686.8516,239.2188 Q686.2188,239.5469 685.7266,240.2969 Q685.2344,241.0469 685.2344,242.0781 L685.2344,243.1719 Q685.2344,244.4063 686.125,245.2266 Q687.0156,246.0469 688.6094,246.0469 Q689.5469,246.0469 690.2031,245.7969 Q690.5938,245.6406 691.0156,245.2031 Q691.2813,244.9375 691.4297,244.8594 Q691.5781,244.7813 691.7813,244.7813 Q692.1094,244.7813 692.3672,245.0391 Q692.625,245.2969 692.625,245.6406 Q692.625,245.9844 692.2813,246.3906 Q691.7813,246.9688 690.9844,247.2969 Q689.9063,247.75 688.6094,247.75 Q687.0938,247.75 685.8906,247.125 Q684.9063,246.625 684.2188,245.5547 Q683.5313,244.4844 683.5313,243.2031 L683.5313,242.0469 Q683.5313,240.7188 684.1484,239.5703 Q684.7656,238.4219 685.8594,237.8047 Q686.9531,237.1875 688.1875,237.1875 Q688.9219,237.1875 689.5703,237.3516 Q690.2188,237.5156 690.7656,237.875 Z "/><text fill="#000000" font-family="sans-serif" font-size="12" lengthAdjust="spacingAndGlyphs" textLength="57" x="702" y="246.9102">TestsRole</text><line style="stroke: #A80036; stroke-width: 1.5;" x1="674" x2="761" y1="258" y2="258"/><line style="stroke: #A80036; stroke-width: 1.5;" x1="674" x2="761" y1="266" y2="266"/><!--class PerformIntegrationTests--><rect fill="#FF0000" filter="url(#f190zpj4tlwv7m)" height="48" id="PerformIntegrationTests" style="stroke: #A80036; stroke-width: 1.5;" width="171" x="432" y="226"/><rect fill="#FF0000" height="32" style="stroke: #A80036; stroke-width: 1.5;" width="171" x="432" y="226"/><ellipse cx="447" cy="242" fill="#ADD1B2" rx="11" ry="11" style="stroke: #A80036; stroke-width: 1.0;"/><path d="M449.7656,237.875 Q449.9219,237.6563 450.1094,237.5469 Q450.2969,237.4375 450.5156,237.4375 Q450.8906,237.4375 451.125,237.6953 Q451.3594,237.9531 451.3594,238.5625 L451.3594,240.0156 Q451.3594,240.625 451.125,240.8906 Q450.8906,241.1563 450.5156,241.1563 Q450.1719,241.1563 449.9688,240.9531 Q449.7656,240.7656 449.6563,240.25 Q449.6094,239.8906 449.4219,239.7031 Q449.0938,239.3281 448.4844,239.1094 Q447.875,238.8906 447.25,238.8906 Q446.4844,238.8906 445.8516,239.2188 Q445.2188,239.5469 444.7266,240.2969 Q444.2344,241.0469 444.2344,242.0781 L444.2344,243.1719 Q444.2344,244.4063 445.125,245.2266 Q446.0156,246.0469 447.6094,246.0469 Q448.5469,246.0469 449.2031,245.7969 Q449.5938,245.6406 450.0156,245.2031 Q450.2813,244.9375 450.4297,244.8594 Q450.5781,244.7813 450.7813,244.7813 Q451.1094,244.7813 451.3672,245.0391 Q451.625,245.2969 451.625,245.6406 Q451.625,245.9844 451.2813,246.3906 Q450.7813,246.9688 449.9844,247.2969 Q448.9063,247.75 447.6094,247.75 Q446.0938,247.75 444.8906,247.125 Q443.9063,246.625 443.2188,245.5547 Q442.5313,244.4844 442.5313,243.2031 L442.5313,242.0469 Q442.5313,240.7188 443.1484,239.5703 Q443.7656,238.4219 444.8594,237.8047 Q445.9531,237.1875 447.1875,237.1875 Q447.9219,237.1875 448.5703,237.3516 Q449.2188,237.5156 449.7656,237.875 Z "/><text fill="#000000" font-family="sans-serif" font-size="12" lengthAdjust="spacingAndGlyphs" textLength="139" x="461" y="246.9102">Perform Integration Tests</text><line style="stroke: #A80036; stroke-width: 1.5;" x1="433" x2="602" y1="258" y2="258"/><line style="stroke: #A80036; stroke-width: 1.5;" x1="433" x2="602" y1="266" y2="266"/><!--class IntegrationTester--><rect fill="#0000FF" filter="url(#f190zpj4tlwv7m)" height="48" id="IntegrationTester" style="stroke: #A80036; stroke-width: 1.5;" width="128" x="744.5" y="352"/><rect fill="#0000FF" height="32" style="stroke: #A80036; stroke-width: 1.5;" width="128" x="744.5" y="352"/><ellipse cx="759.5" cy="368" fill="#ADD1B2" rx="11" ry="11" style="stroke: #A80036; stroke-width: 1.0;"/><path d="M762.2656,363.875 Q762.4219,363.6563 762.6094,363.5469 Q762.7969,363.4375 763.0156,363.4375 Q763.3906,363.4375 763.625,363.6953 Q763.8594,363.9531 763.8594,364.5625 L763.8594,366.0156 Q763.8594,366.625 763.625,366.8906 Q763.3906,367.1563 763.0156,367.1563 Q762.6719,367.1563 762.4688,366.9531 Q762.2656,366.7656 762.1563,366.25 Q762.1094,365.8906 761.9219,365.7031 Q761.5938,365.3281 760.9844,365.1094 Q760.375,364.8906 759.75,364.8906 Q758.9844,364.8906 758.3516,365.2188 Q757.7188,365.5469 757.2266,366.2969 Q756.7344,367.0469 756.7344,368.0781 L756.7344,369.1719 Q756.7344,370.4063 757.625,371.2266 Q758.5156,372.0469 760.1094,372.0469 Q761.0469,372.0469 761.7031,371.7969 Q762.0938,371.6406 762.5156,371.2031 Q762.7813,370.9375 762.9297,370.8594 Q763.0781,370.7813 763.2813,370.7813 Q763.6094,370.7813 763.8672,371.0391 Q764.125,371.2969 764.125,371.6406 Q764.125,371.9844 763.7813,372.3906 Q763.2813,372.9688 762.4844,373.2969 Q761.4063,373.75 760.1094,373.75 Q758.5938,373.75 757.3906,373.125 Q756.4063,372.625 755.7188,371.5547 Q755.0313,370.4844 755.0313,369.2031 L755.0313,368.0469 Q755.0313,366.7188 755.6484,365.5703 Q756.2656,364.4219 757.3594,363.8047 Q758.4531,363.1875 759.6875,363.1875 Q760.4219,363.1875 761.0703,363.3516 Q761.7188,363.5156 762.2656,363.875 Z "/><text fill="#000000" font-family="sans-serif" font-size="12" lengthAdjust="spacingAndGlyphs" textLength="96" x="773.5" y="372.9102">Integration Tester</text><line style="stroke: #A80036; stroke-width: 1.5;" x1="745.5" x2="871.5" y1="384" y2="384"/><line style="stroke: #A80036; stroke-width: 1.5;" x1="745.5" x2="871.5" y1="392" y2="392"/><!--link Activity to TestsActivity--><path d="M638.976,74.127 C631.4,88.602 623.154,104.357 616.627,116.828 " fill="none" id="Activity-TestsActivity" style="stroke: #A80036; stroke-width: 1.0;"/><polygon fill="none" points="632.873,70.691,648.349,56.217,645.277,77.183,632.873,70.691" style="stroke: #A80036; stroke-width: 1.0;"/><!--link Activity to Role--><path d="M672.868,56.217 C681.607,72.623 693.364,94.692 702.617,112.062 " fill="none" id="Activity-Role" style="stroke: #A80036; stroke-width: 1.0;"/><polygon fill="#A80036" points="705.156,116.828,704.4537,107.0042,702.8047,112.4154,697.3935,110.7663,705.156,116.828" style="stroke: #A80036; stroke-width: 1.0;"/><!--link TestsActivity to TestsRole--><path d="M629.019,165.217 C646.789,182.043 670.85,204.827 689.396,222.389 " fill="none" id="TestsActivity-TestsRole" style="stroke: #A80036; stroke-width: 1.0;"/><polygon fill="#A80036" points="693.029,225.828,689.2422,216.7362,689.3977,222.3909,683.7429,222.5464,693.029,225.828" style="stroke: #A80036; stroke-width: 1.0;"/><!--link TestsActivity to PerformIntegrationTests--><path d="M572.641,181.183 C560.447,196.18 546.937,212.796 536.341,225.828 " fill="none" id="TestsActivity-PerformIntegrationTests" style="stroke: #A80036; stroke-width: 1.0;"/><polygon fill="none" points="567.574,176.319,585.622,165.217,578.436,185.151,567.574,176.319" style="stroke: #A80036; stroke-width: 1.0;"/><!--link PerformIntegrationTests to TestCase--><path d="M431.802,269.468 C349.303,287.927 221.369,318.3449 112.5,352 C108.479,353.2429 104.3389,354.6015 100.1955,356.017 " fill="none" id="PerformIntegrationTests-TestCase" style="stroke: #A80036; stroke-width: 1.0;"/><polygon fill="#A80036" points="95.3371,357.7015,105.1508,358.5324,100.0612,356.0635,102.5301,350.9739,95.3371,357.7015" style="stroke: #A80036; stroke-width: 1.0;"/><text fill="#000000" font-family="sans-serif" font-size="13" lengthAdjust="spacingAndGlyphs" textLength="10" x="279.5" y="318.4951">in</text><!--link PerformIntegrationTests to TestProcedure--><path d="M456.389,274.033 C398.007,296.037 310.408,329.0529 251.429,351.2819 " fill="none" id="PerformIntegrationTests-TestProcedure" style="stroke: #A80036; stroke-width: 1.0;"/><polygon fill="#A80036" points="246.524,353.1306,256.3564,353.7005,251.2029,351.3677,253.5357,346.2142,246.524,353.1306" style="stroke: #A80036; stroke-width: 1.0;"/><text fill="#000000" font-family="sans-serif" font-size="13" lengthAdjust="spacingAndGlyphs" textLength="10" x="374.5" y="318.4951">in</text><!--link PerformIntegrationTests to TestComponent--><path d="M485.18,274.033 C455.364,295.281 411.138,326.7982 380.048,348.9545 " fill="none" id="PerformIntegrationTests-TestComponent" style="stroke: #A80036; stroke-width: 1.0;"/><polygon fill="#A80036" points="375.942,351.8804,385.5928,349.9152,380.014,348.9789,380.9504,343.4001,375.942,351.8804" style="stroke: #A80036; stroke-width: 1.0;"/><text fill="#000000" font-family="sans-serif" font-size="13" lengthAdjust="spacingAndGlyphs" textLength="10" x="442.5" y="318.4951">in</text><!--link PerformIntegrationTests to ImplementationModel--><path d="M517.5,274.033 C517.5,294.522 517.5,324.5607 517.5,346.5464 " fill="none" id="PerformIntegrationTests-ImplementationModel" style="stroke: #A80036; stroke-width: 1.0;"/><polygon fill="#A80036" points="517.5,351.6697,521.5,342.6697,517.5,346.6697,513.5,342.6697,517.5,351.6697" style="stroke: #A80036; stroke-width: 1.0;"/><text fill="#000000" font-family="sans-serif" font-size="13" lengthAdjust="spacingAndGlyphs" textLength="10" x="518.5" y="318.4951">in</text><!--link PerformIntegrationTests to DEFECT--><path d="M545.734,274.033 C571.674,295.194 610.099,326.5411 637.24,348.6827 " fill="none" id="PerformIntegrationTests-DEFECT" style="stroke: #A80036; stroke-width: 1.0;"/><polygon fill="#A80036" points="641.16,351.8804,636.7158,343.0912,637.2861,348.7193,631.658,349.2895,641.16,351.8804" style="stroke: #A80036; stroke-width: 1.0;"/><text fill="#000000" font-family="sans-serif" font-size="13" lengthAdjust="spacingAndGlyphs" textLength="18" x="604.5" y="318.4951">out</text><!--link PerformIntegrationTests to IntegrationTester--><path d="M571.553,274.033 C622.13,295.585 697.499,327.7008 749.592,349.8983 " fill="none" id="PerformIntegrationTests-IntegrationTester" style="stroke: #A80036; stroke-width: 1.0;"/><polygon fill="#A80036" points="754.244,351.8804,747.5323,344.6726,749.6442,349.9204,744.3963,352.0323,754.244,351.8804" style="stroke: #A80036; stroke-width: 1.0;"/><!--link Role to TestsRole--><path d="M717.5,185.578 C717.5,199.362 717.5,214.057 717.5,225.828 " fill="none" id="Role-TestsRole" style="stroke: #A80036; stroke-width: 1.0;"/><polygon fill="none" points="710.5,185.217,717.5,165.217,724.5,185.217,710.5,185.217" style="stroke: #A80036; stroke-width: 1.0;"/><!--link TestsRole to IntegrationTester--><path d="M753.95,289.562 C757.982,294.315 761.919,299.193 765.5,304 C776.864,319.2549 787.941,337.6549 796.006,351.9008 " fill="none" id="TestsRole-IntegrationTester" style="stroke: #A80036; stroke-width: 1.0;"/><polygon fill="none" points="748.325,293.77,740.257,274.177,758.782,284.462,748.325,293.77" style="stroke: #A80036; stroke-width: 1.0;"/><!--
@startuml

class Activity #red
Activity <|- - TestsActivity
Activity - -> Role

class "Test Case" as TestCase #green
class "Test Procedure" as TestProcedure #green
class "Test Component" as TestComponent #green
class "Implementation Model" as ImplementationModel #green
class DEFECT #green

class TestsActivity #red
TestsActivity - -> TestsRole

class "Perform Integration Tests" as PerformIntegrationTests #red
TestsActivity <|- - PerformIntegrationTests

PerformIntegrationTests - -> TestCase :in
PerformIntegrationTests - -> TestProcedure :in
PerformIntegrationTests - -> TestComponent :in
PerformIntegrationTests - -> ImplementationModel :in
PerformIntegrationTests - -> DEFECT :out

class Role #blue
class TestsRole #blue
class "Integration Tester" as IntegrationTester #blue

PerformIntegrationTests - -> IntegrationTester

Role <|- - TestsRole
TestsRole <|- - IntegrationTester
@enduml

PlantUML version 1.2019.05(Sat Apr 20 18:45:36 CEST 2019)
(GPL source distribution)
Java Runtime: OpenJDK Runtime Environment
JVM: OpenJDK 64-Bit Server VM
Java Version: 1.8.0_222-b10
Operating System: Windows 10
OS Version: 10.0
Default Encoding: windows-1252
Language: es
Country: ES
--></g></svg>