<?xml version="1.0" encoding="UTF-8" standalone="no"?><svg xmlns="http://www.w3.org/2000/svg" xmlns:xlink="http://www.w3.org/1999/xlink" contentScriptType="application/ecmascript" contentStyleType="text/css" height="402px" preserveAspectRatio="none" style="width:2170px;height:402px;background:#222222;" version="1.1" viewBox="0 0 2170 402" width="2170px" zoomAndPan="magnify"><defs/><g><text fill="#FFA500" font-family="courier" font-size="15" font-style="italic" lengthAdjust="spacingAndGlyphs" textLength="396" x="1762" y="16.0806">Universo Santa Tecla - USantaTecla@gmail.com</text><polygon fill="none" points="1029,23.585,1029,23.7951,1039,23.1706,1049,23.7782,1059,23.9846,1069,22.8716,1079,23.5072,1089,23.1585,1099,23.2015,1109,23.5168,1119,22.8936,1129,23.585,1129.5536,23.585,1128.3697,32.8844,1128.8022,42.1838,1129.4319,51.4832,1128.9142,60.7826,1129,70.082,1129,70.1503,1119,70.0501,1109,70.2606,1099,70.3212,1089,70.6677,1079,70.7531,1069,70.7613,1059,70.3367,1049,70.5456,1039,70.7843,1029,70.082,1028.2788,70.082,1029.6785,60.7826,1028.7035,51.4832,1029.5338,42.1838,1028.505,32.8844,1029,23.585" style="stroke: #FFA500; stroke-width: 5.0;"/><text fill="#FFA500" font-family="arial" font-size="30" font-weight="bold" lengthAdjust="spacingAndGlyphs" textLength="82" x="1038" y="57.7246">Roles</text><!--class Role--><polygon fill="#222222" points="958,81.082,958,81.2922,967.3333,80.6677,976.6667,81.2753,986,81.4817,995.3333,80.3686,1004.6667,81.0043,1014,81.082,1013.5735,81.082,1013.6165,91.9047,1013.9318,102.7273,1013.3086,113.55,1014.5536,124.3727,1014,135.1953,1014,134.565,1004.6667,134.9975,995.3333,135.6273,986,135.1095,976.6667,135.2636,967.3333,135.1634,958,135.1953,958.1785,135.1953,958.2391,124.3727,958.5857,113.55,958.6711,102.7273,958.6793,91.9047,958,81.082" style="stroke: #FFFFFF; stroke-width: 3.0;"/><text fill="#FFFFFF" font-family="courier" font-size="20" font-weight="bold" lengthAdjust="spacingAndGlyphs" textLength="48" x="962" y="107.1895">Role</text><path d="M959,119.1953 L959,119.4756 L969.8,118.6429 L980.6,119.453 L991.4,119.7282 L1002.2,118.2441 L1013,119.1953 " fill="#222222" style="stroke: #FFFFFF; stroke-width: 3.0;"/><path d="M959,127.1953 L959,127.4756 L969.8,126.6429 L980.6,127.453 L991.4,127.7282 L1002.2,126.2441 L1013,127.1953 " fill="#222222" style="stroke: #FFFFFF; stroke-width: 3.0;"/><!--class RequirementRole--><polygon fill="#222222" points="464,195.082,464,195.2922,473.8947,194.6677,483.7895,195.2753,493.6842,195.4817,503.5789,194.3686,513.4737,195.0043,523.3684,194.6555,533.2632,194.6985,543.1579,195.0139,553.0526,194.3907,562.9474,195.6357,572.8421,194.4518,582.7368,194.8843,592.6316,195.514,602.5263,194.9963,612.4211,195.1503,622.3158,195.0501,632.2105,195.2606,642.1053,195.3212,652,195.082,652.5857,195.082,652.6711,205.9047,652.6793,216.7273,652.2546,227.55,652.4636,238.3727,652,249.1953,652,249.8975,642.1053,248.4741,632.2105,249.8738,622.3158,248.8988,612.4211,249.7291,602.5263,248.7003,592.6316,249.1268,582.7368,249.9369,572.8421,249.1466,562.9474,249.3006,553.0526,249.5339,543.1579,249.6115,533.2632,249.1914,523.3684,249.4825,513.4737,248.6229,503.5789,249.4797,493.6842,249.7435,483.7895,249.6398,473.8947,249.8083,464,249.1953,463.5169,249.1953,463.3478,238.3727,463.3786,227.55,463.9411,216.7273,463.8035,205.9047,464,195.082" style="stroke: #FF0000; stroke-width: 3.0;"/><text fill="#FF0000" font-family="courier" font-size="20" font-weight="bold" lengthAdjust="spacingAndGlyphs" textLength="180" x="468" y="221.1895">RequirementRole</text><path d="M465,233.1953 L465,233.4756 L474.7895,232.6429 L484.5789,233.453 L494.3684,233.7282 L504.1579,232.2441 L513.9474,233.0917 L523.7368,232.6267 L533.5263,232.684 L543.3158,233.1044 L553.1053,232.2735 L562.8947,233.9335 L572.6842,232.3549 L582.4737,232.9316 L592.2632,233.7712 L602.0526,233.0809 L611.8421,233.2863 L621.6316,233.1527 L631.4211,233.4333 L641.2105,233.5142 L651,233.1953 " fill="#222222" style="stroke: #FF0000; stroke-width: 3.0;"/><path d="M465,241.1953 L465,241.4756 L474.7895,240.6429 L484.5789,241.453 L494.3684,241.7282 L504.1579,240.2441 L513.9474,241.0917 L523.7368,240.6267 L533.5263,240.684 L543.3158,241.1044 L553.1053,240.2735 L562.8947,241.9335 L572.6842,240.3549 L582.4737,240.9316 L592.2632,241.7712 L602.0526,241.0809 L611.8421,241.2863 L621.6316,241.1527 L631.4211,241.4333 L641.2105,241.5142 L651,241.1953 " fill="#222222" style="stroke: #FF0000; stroke-width: 3.0;"/><!--class AnalysisRole--><polygon fill="#222222" points="910,195.082,910,195.2922,920.1333,194.6677,930.2667,195.2753,940.4,195.4817,950.5333,194.3686,960.6667,195.0043,970.8,194.6555,980.9333,194.6985,991.0667,195.0139,1001.2,194.3907,1011.3333,195.6357,1021.4667,194.4518,1031.6,194.8843,1041.7333,195.514,1051.8667,194.9963,1062,195.082,1062.0682,195.082,1061.9681,205.9047,1062.1785,216.7273,1062.2391,227.55,1062.5857,238.3727,1062,249.1953,1062,249.8664,1051.8667,249.8746,1041.7333,249.4499,1031.6,249.6589,1021.4667,249.8975,1011.3333,248.4741,1001.2,249.8738,991.0667,248.8988,980.9333,249.7291,970.8,248.7003,960.6667,249.1268,950.5333,249.9369,940.4,249.1466,930.2667,249.3006,920.1333,249.5339,910,249.1953,910.4162,249.1953,909.9961,238.3727,910.2872,227.55,909.4276,216.7273,910.2844,205.9047,910,195.082" style="stroke: #FFFF00; stroke-width: 3.0;"/><text fill="#FFFF00" font-family="courier" font-size="20" font-weight="bold" lengthAdjust="spacingAndGlyphs" textLength="144" x="914" y="221.1895">AnalysisRole</text><path d="M911,233.1953 L911,233.4756 L921,232.6429 L931,233.453 L941,233.7282 L951,232.2441 L961,233.0917 L971,232.6267 L981,232.684 L991,233.1044 L1001,232.2735 L1011,233.9335 L1021,232.3549 L1031,232.9316 L1041,233.7712 L1051,233.0809 L1061,233.1953 " fill="#222222" style="stroke: #FFFF00; stroke-width: 3.0;"/><path d="M911,241.1953 L911,241.4756 L921,240.6429 L931,241.453 L941,241.7282 L951,240.2441 L961,241.0917 L971,240.6267 L981,240.684 L991,241.1044 L1001,240.2735 L1011,241.9335 L1021,240.3549 L1031,240.9316 L1041,241.7712 L1051,241.0809 L1061,241.1953 " fill="#222222" style="stroke: #FFFF00; stroke-width: 3.0;"/><!--class DesignRole--><polygon fill="#222222" points="747,195.082,747,195.2922,756.8462,194.6677,766.6923,195.2753,776.5385,195.4817,786.3846,194.3686,796.2308,195.0043,806.0769,194.6555,815.9231,194.6985,825.7692,195.0139,835.6154,194.3907,845.4615,195.6357,855.3077,194.4518,865.1538,194.8843,875,195.082,875.4319,195.082,874.9142,205.9047,875.0682,216.7273,874.9681,227.55,875.1785,238.3727,875,249.1953,875,249.4344,865.1538,249.781,855.3077,249.8664,845.4615,249.8746,835.6154,249.4499,825.7692,249.6589,815.9231,249.8975,806.0769,248.4741,796.2308,249.8738,786.3846,248.8988,776.5385,249.7291,766.6923,248.7003,756.8462,249.1268,747,249.1953,747.7416,249.1953,746.9513,238.3727,747.1053,227.55,747.3386,216.7273,747.4162,205.9047,747,195.082" style="stroke: #008000; stroke-width: 3.0;"/><text fill="#008000" font-family="courier" font-size="20" font-weight="bold" lengthAdjust="spacingAndGlyphs" textLength="120" x="751" y="221.1895">DesignRole</text><path d="M748,233.1953 L748,233.4756 L757.6923,232.6429 L767.3846,233.453 L777.0769,233.7282 L786.7692,232.2441 L796.4615,233.0917 L806.1538,232.6267 L815.8462,232.684 L825.5385,233.1044 L835.2308,232.2735 L844.9231,233.9335 L854.6154,232.3549 L864.3077,232.9316 L874,233.1953 " fill="#222222" style="stroke: #008000; stroke-width: 3.0;"/><path d="M748,241.1953 L748,241.4756 L757.6923,240.6429 L767.3846,241.453 L777.0769,241.7282 L786.7692,240.2441 L796.4615,241.0917 L806.1538,240.6267 L815.8462,240.684 L825.5385,241.1044 L835.2308,240.2735 L844.9231,241.9335 L854.6154,240.3549 L864.3077,240.9316 L874,241.1953 " fill="#222222" style="stroke: #008000; stroke-width: 3.0;"/><!--class ImplementRole--><polygon fill="#222222" points="1097,195.082,1097,195.2922,1107.25,194.6677,1117.5,195.2753,1127.75,195.4817,1138,194.3686,1148.25,195.0043,1158.5,194.6555,1168.75,194.6985,1179,195.0139,1189.25,194.3907,1199.5,195.6357,1209.75,194.4518,1220,194.8843,1230.25,195.514,1240.5,194.9963,1250.75,195.1503,1261,195.082,1260.9681,195.082,1261.1785,205.9047,1261.2391,216.7273,1261.5857,227.55,1261.6711,238.3727,1261,249.1953,1261,249.8746,1250.75,249.4499,1240.5,249.6589,1230.25,249.8975,1220,248.4741,1209.75,249.8738,1199.5,248.8988,1189.25,249.7291,1179,248.7003,1168.75,249.1268,1158.5,249.9369,1148.25,249.1466,1138,249.3006,1127.75,249.5339,1117.5,249.6115,1107.25,249.1914,1097,249.1953,1097.2872,249.1953,1096.4276,238.3727,1097.2844,227.55,1097.5482,216.7273,1097.4445,205.9047,1097,195.082" style="stroke: #00FFFF; stroke-width: 3.0;"/><text fill="#00FFFF" font-family="courier" font-size="20" font-weight="bold" lengthAdjust="spacingAndGlyphs" textLength="156" x="1101" y="221.1895">ImplementRole</text><path d="M1098,233.1953 L1098,233.4756 L1108.125,232.6429 L1118.25,233.453 L1128.375,233.7282 L1138.5,232.2441 L1148.625,233.0917 L1158.75,232.6267 L1168.875,232.684 L1179,233.1044 L1189.125,232.2735 L1199.25,233.9335 L1209.375,232.3549 L1219.5,232.9316 L1229.625,233.7712 L1239.75,233.0809 L1249.875,233.2863 L1260,233.1953 " fill="#222222" style="stroke: #00FFFF; stroke-width: 3.0;"/><path d="M1098,241.1953 L1098,241.4756 L1108.125,240.6429 L1118.25,241.453 L1128.375,241.7282 L1138.5,240.2441 L1148.625,241.0917 L1158.75,240.6267 L1168.875,240.684 L1179,241.1044 L1189.125,240.2735 L1199.25,241.9335 L1209.375,240.3549 L1219.5,240.9316 L1229.625,241.7712 L1239.75,241.0809 L1249.875,241.2863 L1260,241.1953 " fill="#222222" style="stroke: #00FFFF; stroke-width: 3.0;"/><!--class TestRole--><polygon fill="#222222" points="1579,195.082,1579,195.2922,1589.4,194.6677,1599.8,195.2753,1610.2,195.4817,1620.6,194.3686,1631,195.0043,1641.4,194.6555,1651.8,194.6985,1662.2,195.0139,1672.6,194.3907,1683,195.082,1683.5536,195.082,1682.3697,205.9047,1682.8022,216.7273,1683.4319,227.55,1682.9142,238.3727,1683,249.1953,1683,249.2636,1672.6,249.1634,1662.2,249.3738,1651.8,249.4344,1641.4,249.781,1631,249.8664,1620.6,249.8746,1610.2,249.4499,1599.8,249.6589,1589.4,249.8975,1579,249.1953,1578.2788,249.1953,1579.6785,238.3727,1578.7035,227.55,1579.5338,216.7273,1578.505,205.9047,1579,195.082" style="stroke: #0000FF; stroke-width: 3.0;"/><text fill="#0000FF" font-family="courier" font-size="20" font-weight="bold" lengthAdjust="spacingAndGlyphs" textLength="96" x="1583" y="221.1895">TestRole</text><path d="M1580,233.1953 L1580,233.4756 L1590.2,232.6429 L1600.4,233.453 L1610.6,233.7282 L1620.8,232.2441 L1631,233.0917 L1641.2,232.6267 L1651.4,232.684 L1661.6,233.1044 L1671.8,232.2735 L1682,233.1953 " fill="#222222" style="stroke: #0000FF; stroke-width: 3.0;"/><path d="M1580,241.1953 L1580,241.4756 L1590.2,240.6429 L1600.4,241.453 L1610.6,241.7282 L1620.8,240.2441 L1631,241.0917 L1641.2,240.6267 L1651.4,240.684 L1661.6,241.1044 L1671.8,240.2735 L1682,241.1953 " fill="#222222" style="stroke: #0000FF; stroke-width: 3.0;"/><!--class SystemsAnalyst--><polygon fill="#222222" points="6,309.082,6,309.2922,15.7778,308.6677,25.5556,309.2753,35.3333,309.4817,45.1111,308.3686,54.8889,309.0043,64.6667,308.6555,74.4444,308.6985,84.2222,309.0139,94,308.3907,103.7778,309.6357,113.5556,308.4518,123.3333,308.8843,133.1111,309.514,142.8889,308.9963,152.6667,309.1503,162.4444,309.0501,172.2222,309.2606,182,309.082,182.2391,309.082,182.5857,319.9047,182.6711,330.7273,182.6793,341.55,182.2546,352.3727,182,363.1953,182,363.6589,172.2222,363.8975,162.4444,362.4741,152.6667,363.8738,142.8889,362.8988,133.1111,363.7291,123.3333,362.7003,113.5556,363.1268,103.7778,363.9369,94,363.1466,84.2222,363.3006,74.4444,363.5339,64.6667,363.6115,54.8889,363.1914,45.1111,363.4825,35.3333,362.6229,25.5556,363.4797,15.7778,363.7435,6,363.1953,6.4445,363.1953,6.613,352.3727,5.5169,341.55,5.3478,330.7273,5.3786,319.9047,6,309.082" style="stroke: #FF0000; stroke-width: 3.0;"/><text fill="#FF0000" font-family="courier" font-size="20" font-weight="bold" lengthAdjust="spacingAndGlyphs" textLength="168" x="10" y="335.1895">SystemsAnalyst</text><path d="M7,347.1953 L7,347.4756 L17.2353,346.6429 L27.4706,347.453 L37.7059,347.7282 L47.9412,346.2441 L58.1765,347.0917 L68.4118,346.6267 L78.6471,346.684 L88.8824,347.1044 L99.1176,346.2735 L109.3529,347.9335 L119.5882,346.3549 L129.8235,346.9316 L140.0588,347.7712 L150.2941,347.0809 L160.5294,347.2863 L170.7647,347.1527 L181,347.1953 " fill="#222222" style="stroke: #FF0000; stroke-width: 3.0;"/><path d="M7,355.1953 L7,355.4756 L17.2353,354.6429 L27.4706,355.453 L37.7059,355.7282 L47.9412,354.2441 L58.1765,355.0917 L68.4118,354.6267 L78.6471,354.684 L88.8824,355.1044 L99.1176,354.2735 L109.3529,355.9335 L119.5882,354.3549 L129.8235,354.9316 L140.0588,355.7712 L150.2941,355.0809 L160.5294,355.2863 L170.7647,355.1527 L181,355.1953 " fill="#222222" style="stroke: #FF0000; stroke-width: 3.0;"/><!--class UseCaseSpecifier--><polygon fill="#222222" points="217,309.082,217,309.2922,227,308.6677,237,309.2753,247,309.4817,257,308.3686,267,309.0043,277,308.6555,287,308.6985,297,309.0139,307,308.3907,317,309.6357,327,308.4518,337,308.8843,347,309.514,357,308.9963,367,309.1503,377,309.0501,387,309.2606,397,309.3212,407,309.6677,417,309.082,417.6711,309.082,417.6793,319.9047,417.2546,330.7273,417.4636,341.55,417.7022,352.3727,417,363.1953,417,362.4741,407,363.8738,397,362.8988,387,363.7291,377,362.7003,367,363.1268,357,363.9369,347,363.1466,337,363.3006,327,363.5339,317,363.6115,307,363.1914,297,363.4825,287,362.6229,277,363.4797,267,363.7435,257,363.6398,247,363.8083,237,362.7122,227,362.5431,217,363.1953,216.3786,363.1953,216.9411,352.3727,216.8035,341.55,217.6814,330.7273,216.8253,319.9047,217,309.082" style="stroke: #FF0000; stroke-width: 3.0;"/><text fill="#FF0000" font-family="courier" font-size="20" font-weight="bold" lengthAdjust="spacingAndGlyphs" textLength="192" x="221" y="335.1895">UseCaseSpecifier</text><path d="M218,347.1953 L218,347.4756 L227.9,346.6429 L237.8,347.453 L247.7,347.7282 L257.6,346.2441 L267.5,347.0917 L277.4,346.6267 L287.3,346.684 L297.2,347.1044 L307.1,346.2735 L317,347.9335 L326.9,346.3549 L336.8,346.9316 L346.7,347.7712 L356.6,347.0809 L366.5,347.2863 L376.4,347.1527 L386.3,347.4333 L396.2,347.5142 L406.1,347.9762 L416,347.1953 " fill="#222222" style="stroke: #FF0000; stroke-width: 3.0;"/><path d="M218,355.1953 L218,355.4756 L227.9,354.6429 L237.8,355.453 L247.7,355.7282 L257.6,354.2441 L267.5,355.0917 L277.4,354.6267 L287.3,354.684 L297.2,355.1044 L307.1,354.2735 L317,355.9335 L326.9,354.3549 L336.8,354.9316 L346.7,355.7712 L356.6,355.0809 L366.5,355.2863 L376.4,355.1527 L386.3,355.4333 L396.2,355.5142 L406.1,355.9762 L416,355.1953 " fill="#222222" style="stroke: #FF0000; stroke-width: 3.0;"/><!--class InterfaceDesigner--><polygon fill="#222222" points="452,309.082,452,309.2922,462.0952,308.6677,472.1905,309.2753,482.2857,309.4817,492.381,308.3686,502.4762,309.0043,512.5714,308.6555,522.6667,308.6985,532.7619,309.0139,542.8571,308.3907,552.9524,309.6357,563.0476,308.4518,573.1429,308.8843,583.2381,309.514,593.3333,308.9963,603.4286,309.1503,613.5238,309.0501,623.619,309.2606,633.7143,309.3212,643.8095,309.6677,653.9048,309.7531,664,309.082,664.6793,309.082,664.2546,319.9047,664.4636,330.7273,664.7022,341.55,663.2788,352.3727,664,363.1953,664,363.8738,653.9048,362.8988,643.8095,363.7291,633.7143,362.7003,623.619,363.1268,613.5238,363.9369,603.4286,363.1466,593.3333,363.3006,583.2381,363.5339,573.1429,363.6115,563.0476,363.1914,552.9524,363.4825,542.8571,362.6229,532.7619,363.4797,522.6667,363.7435,512.5714,363.6398,502.4762,363.8083,492.381,362.7122,482.2857,362.5431,472.1905,362.5739,462.0952,363.1364,452,363.1953,451.8035,363.1953,452.6814,352.3727,451.8253,341.55,451.6569,330.7273,452.2283,319.9047,452,309.082" style="stroke: #FF0000; stroke-width: 3.0;"/><text fill="#FF0000" font-family="courier" font-size="20" font-weight="bold" lengthAdjust="spacingAndGlyphs" textLength="204" x="456" y="335.1895">InterfaceDesigner</text><path d="M453,347.1953 L453,347.4756 L463,346.6429 L473,347.453 L483,347.7282 L493,346.2441 L503,347.0917 L513,346.6267 L523,346.684 L533,347.1044 L543,346.2735 L553,347.9335 L563,346.3549 L573,346.9316 L583,347.7712 L593,347.0809 L603,347.2863 L613,347.1527 L623,347.4333 L633,347.5142 L643,347.9762 L653,348.0901 L663,347.1953 " fill="#222222" style="stroke: #FF0000; stroke-width: 3.0;"/><path d="M453,355.1953 L453,355.4756 L463,354.6429 L473,355.453 L483,355.7282 L493,354.2441 L503,355.0917 L513,354.6267 L523,354.684 L533,355.1044 L543,354.2735 L553,355.9335 L563,354.3549 L573,354.9316 L583,355.7712 L593,355.0809 L603,355.2863 L613,355.1527 L623,355.4333 L633,355.5142 L643,355.9762 L653,356.0901 L663,355.1953 " fill="#222222" style="stroke: #FF0000; stroke-width: 3.0;"/><!--class Architect--><polygon fill="#222222" points="699,309.082,699,309.2922,708.6667,308.6677,718.3333,309.2753,728,309.4817,737.6667,308.3686,747.3333,309.0043,757,308.6555,766.6667,308.6985,776.3333,309.0139,786,308.3907,795.6667,309.6357,805.3333,308.4518,815,309.082,814.8022,309.082,815.4319,319.9047,814.9142,330.7273,815.0682,341.55,814.9681,352.3727,815,363.1953,815,363.3738,805.3333,363.4344,795.6667,363.781,786,363.8664,776.3333,363.8746,766.6667,363.4499,757,363.6589,747.3333,363.8975,737.6667,362.4741,728,363.8738,718.3333,362.8988,708.6667,363.7291,699,363.1953,698.505,363.1953,698.9315,352.3727,699.7416,341.55,698.9513,330.7273,699.1053,319.9047,699,309.082" style="stroke: #FFA500; stroke-width: 3.0;"/><text fill="#FFA500" font-family="courier" font-size="20" font-weight="bold" lengthAdjust="spacingAndGlyphs" textLength="108" x="703" y="335.1895">Architect</text><path d="M700,347.1953 L700,347.4756 L710.3636,346.6429 L720.7273,347.453 L731.0909,347.7282 L741.4545,346.2441 L751.8182,347.0917 L762.1818,346.6267 L772.5455,346.684 L782.9091,347.1044 L793.2727,346.2735 L803.6364,347.9335 L814,347.1953 " fill="#222222" style="stroke: #FFA500; stroke-width: 3.0;"/><path d="M700,355.1953 L700,355.4756 L710.3636,354.6429 L720.7273,355.453 L731.0909,355.7282 L741.4545,354.2441 L751.8182,355.0917 L762.1818,354.6267 L772.5455,354.684 L782.9091,355.1044 L793.2727,354.2735 L803.6364,355.9335 L814,355.1953 " fill="#222222" style="stroke: #FFA500; stroke-width: 3.0;"/><!--class UseCaseEngineer--><polygon fill="#222222" points="850,309.082,850,309.2922,859.8947,308.6677,869.7895,309.2753,879.6842,309.4817,889.5789,308.3686,899.4737,309.0043,909.3684,308.6555,919.2632,308.6985,929.1579,309.0139,939.0526,308.3907,948.9474,309.6357,958.8421,308.4518,968.7368,308.8843,978.6316,309.514,988.5263,308.9963,998.4211,309.1503,1008.3158,309.0501,1018.2105,309.2606,1028.1053,309.3212,1038,309.082,1038.5857,309.082,1038.6711,319.9047,1038.6793,330.7273,1038.2546,341.55,1038.4636,352.3727,1038,363.1953,1038,363.8975,1028.1053,362.4741,1018.2105,363.8738,1008.3158,362.8988,998.4211,363.7291,988.5263,362.7003,978.6316,363.1268,968.7368,363.9369,958.8421,363.1466,948.9474,363.3006,939.0526,363.5339,929.1579,363.6115,919.2632,363.1914,909.3684,363.4825,899.4737,362.6229,889.5789,363.4797,879.6842,363.7435,869.7895,363.6398,859.8947,363.8083,850,363.1953,849.5169,363.1953,849.3478,352.3727,849.3786,341.55,849.9411,330.7273,849.8035,319.9047,850,309.082" style="stroke: #FFA500; stroke-width: 3.0;"/><text fill="#FFA500" font-family="courier" font-size="20" font-weight="bold" lengthAdjust="spacingAndGlyphs" textLength="180" x="854" y="335.1895">UseCaseEngineer</text><path d="M851,347.1953 L851,347.4756 L860.7895,346.6429 L870.5789,347.453 L880.3684,347.7282 L890.1579,346.2441 L899.9474,347.0917 L909.7368,346.6267 L919.5263,346.684 L929.3158,347.1044 L939.1053,346.2735 L948.8947,347.9335 L958.6842,346.3549 L968.4737,346.9316 L978.2632,347.7712 L988.0526,347.0809 L997.8421,347.2863 L1007.6316,347.1527 L1017.4211,347.4333 L1027.2105,347.5142 L1037,347.1953 " fill="#222222" style="stroke: #FFA500; stroke-width: 3.0;"/><path d="M851,355.1953 L851,355.4756 L860.7895,354.6429 L870.5789,355.453 L880.3684,355.7282 L890.1579,354.2441 L899.9474,355.0917 L909.7368,354.6267 L919.5263,354.684 L929.3158,355.1044 L939.1053,354.2735 L948.8947,355.9335 L958.6842,354.3549 L968.4737,354.9316 L978.2632,355.7712 L988.0526,355.0809 L997.8421,355.2863 L1007.6316,355.1527 L1017.4211,355.4333 L1027.2105,355.5142 L1037,355.1953 " fill="#222222" style="stroke: #FFA500; stroke-width: 3.0;"/><!--class ComponentEngineer--><polygon fill="#222222" points="1073,309.082,1073,309.2922,1083.0952,308.6677,1093.1905,309.2753,1103.2857,309.4817,1113.381,308.3686,1123.4762,309.0043,1133.5714,308.6555,1143.6667,308.6985,1153.7619,309.0139,1163.8571,308.3907,1173.9524,309.6357,1184.0476,308.4518,1194.1429,308.8843,1204.2381,309.514,1214.3333,308.9963,1224.4286,309.1503,1234.5238,309.0501,1244.619,309.2606,1254.7143,309.3212,1264.8095,309.6677,1274.9048,309.7531,1285,309.082,1285.6793,309.082,1285.2546,319.9047,1285.4636,330.7273,1285.7022,341.55,1284.2788,352.3727,1285,363.1953,1285,363.8738,1274.9048,362.8988,1264.8095,363.7291,1254.7143,362.7003,1244.619,363.1268,1234.5238,363.9369,1224.4286,363.1466,1214.3333,363.3006,1204.2381,363.5339,1194.1429,363.6115,1184.0476,363.1914,1173.9524,363.4825,1163.8571,362.6229,1153.7619,363.4797,1143.6667,363.7435,1133.5714,363.6398,1123.4762,363.8083,1113.381,362.7122,1103.2857,362.5431,1093.1905,362.5739,1083.0952,363.1364,1073,363.1953,1072.8035,363.1953,1073.6814,352.3727,1072.8253,341.55,1072.6569,330.7273,1073.2283,319.9047,1073,309.082" style="stroke: #FFA500; stroke-width: 3.0;"/><text fill="#FFA500" font-family="courier" font-size="20" font-weight="bold" lengthAdjust="spacingAndGlyphs" textLength="204" x="1077" y="335.1895">ComponentEngineer</text><path d="M1074,347.1953 L1074,347.4756 L1084,346.6429 L1094,347.453 L1104,347.7282 L1114,346.2441 L1124,347.0917 L1134,346.6267 L1144,346.684 L1154,347.1044 L1164,346.2735 L1174,347.9335 L1184,346.3549 L1194,346.9316 L1204,347.7712 L1214,347.0809 L1224,347.2863 L1234,347.1527 L1244,347.4333 L1254,347.5142 L1264,347.9762 L1274,348.0901 L1284,347.1953 " fill="#222222" style="stroke: #FFA500; stroke-width: 3.0;"/><path d="M1074,355.1953 L1074,355.4756 L1084,354.6429 L1094,355.453 L1104,355.7282 L1114,354.2441 L1124,355.0917 L1134,354.6267 L1144,354.684 L1154,355.1044 L1164,354.2735 L1174,355.9335 L1184,354.3549 L1194,354.9316 L1204,355.7712 L1214,355.0809 L1224,355.2863 L1234,355.1527 L1244,355.4333 L1254,355.5142 L1264,355.9762 L1274,356.0901 L1284,355.1953 " fill="#222222" style="stroke: #FFA500; stroke-width: 3.0;"/><!--class SystemIntegrator--><polygon fill="#222222" points="1320,309.082,1320,309.2922,1330,308.6677,1340,309.2753,1350,309.4817,1360,308.3686,1370,309.0043,1380,308.6555,1390,308.6985,1400,309.0139,1410,308.3907,1420,309.6357,1430,308.4518,1440,308.8843,1450,309.514,1460,308.9963,1470,309.1503,1480,309.0501,1490,309.2606,1500,309.3212,1510,309.6677,1520,309.082,1520.6711,309.082,1520.6793,319.9047,1520.2546,330.7273,1520.4636,341.55,1520.7022,352.3727,1520,363.1953,1520,362.4741,1510,363.8738,1500,362.8988,1490,363.7291,1480,362.7003,1470,363.1268,1460,363.9369,1450,363.1466,1440,363.3006,1430,363.5339,1420,363.6115,1410,363.1914,1400,363.4825,1390,362.6229,1380,363.4797,1370,363.7435,1360,363.6398,1350,363.8083,1340,362.7122,1330,362.5431,1320,363.1953,1319.3786,363.1953,1319.9411,352.3727,1319.8035,341.55,1320.6814,330.7273,1319.8253,319.9047,1320,309.082" style="stroke: #00FFFF; stroke-width: 3.0;"/><text fill="#00FFFF" font-family="courier" font-size="20" font-weight="bold" lengthAdjust="spacingAndGlyphs" textLength="192" x="1324" y="335.1895">SystemIntegrator</text><path d="M1321,347.1953 L1321,347.4756 L1330.9,346.6429 L1340.8,347.453 L1350.7,347.7282 L1360.6,346.2441 L1370.5,347.0917 L1380.4,346.6267 L1390.3,346.684 L1400.2,347.1044 L1410.1,346.2735 L1420,347.9335 L1429.9,346.3549 L1439.8,346.9316 L1449.7,347.7712 L1459.6,347.0809 L1469.5,347.2863 L1479.4,347.1527 L1489.3,347.4333 L1499.2,347.5142 L1509.1,347.9762 L1519,347.1953 " fill="#222222" style="stroke: #00FFFF; stroke-width: 3.0;"/><path d="M1321,355.1953 L1321,355.4756 L1330.9,354.6429 L1340.8,355.453 L1350.7,355.7282 L1360.6,354.2441 L1370.5,355.0917 L1380.4,354.6267 L1390.3,354.684 L1400.2,355.1044 L1410.1,354.2735 L1420,355.9335 L1429.9,354.3549 L1439.8,354.9316 L1449.7,355.7712 L1459.6,355.0809 L1469.5,355.2863 L1479.4,355.1527 L1489.3,355.4333 L1499.2,355.5142 L1509.1,355.9762 L1519,355.1953 " fill="#222222" style="stroke: #00FFFF; stroke-width: 3.0;"/><!--class TestEngineer--><polygon fill="#222222" points="1555,309.082,1555,309.2922,1565.1333,308.6677,1575.2667,309.2753,1585.4,309.4817,1595.5333,308.3686,1605.6667,309.0043,1615.8,308.6555,1625.9333,308.6985,1636.0667,309.0139,1646.2,308.3907,1656.3333,309.6357,1666.4667,308.4518,1676.6,308.8843,1686.7333,309.514,1696.8667,308.9963,1707,309.082,1707.0682,309.082,1706.9681,319.9047,1707.1785,330.7273,1707.2391,341.55,1707.5857,352.3727,1707,363.1953,1707,363.8664,1696.8667,363.8746,1686.7333,363.4499,1676.6,363.6589,1666.4667,363.8975,1656.3333,362.4741,1646.2,363.8738,1636.0667,362.8988,1625.9333,363.7291,1615.8,362.7003,1605.6667,363.1268,1595.5333,363.9369,1585.4,363.1466,1575.2667,363.3006,1565.1333,363.5339,1555,363.1953,1555.4162,363.1953,1554.9961,352.3727,1555.2872,341.55,1554.4276,330.7273,1555.2844,319.9047,1555,309.082" style="stroke: #0000FF; stroke-width: 3.0;"/><text fill="#0000FF" font-family="courier" font-size="20" font-weight="bold" lengthAdjust="spacingAndGlyphs" textLength="144" x="1559" y="335.1895">TestEngineer</text><path d="M1556,347.1953 L1556,347.4756 L1566,346.6429 L1576,347.453 L1586,347.7282 L1596,346.2441 L1606,347.0917 L1616,346.6267 L1626,346.684 L1636,347.1044 L1646,346.2735 L1656,347.9335 L1666,346.3549 L1676,346.9316 L1686,347.7712 L1696,347.0809 L1706,347.1953 " fill="#222222" style="stroke: #0000FF; stroke-width: 3.0;"/><path d="M1556,355.1953 L1556,355.4756 L1566,354.6429 L1576,355.453 L1586,355.7282 L1596,354.2441 L1606,355.0917 L1616,354.6267 L1626,354.684 L1636,355.1044 L1646,354.2735 L1656,355.9335 L1666,354.3549 L1676,354.9316 L1686,355.7712 L1696,355.0809 L1706,355.1953 " fill="#222222" style="stroke: #0000FF; stroke-width: 3.0;"/><!--class SystemTester--><polygon fill="#222222" points="1742,309.082,1742,309.2922,1752.1333,308.6677,1762.2667,309.2753,1772.4,309.4817,1782.5333,308.3686,1792.6667,309.0043,1802.8,308.6555,1812.9333,308.6985,1823.0667,309.0139,1833.2,308.3907,1843.3333,309.6357,1853.4667,308.4518,1863.6,308.8843,1873.7333,309.514,1883.8667,308.9963,1894,309.082,1894.0682,309.082,1893.9681,319.9047,1894.1785,330.7273,1894.2391,341.55,1894.5857,352.3727,1894,363.1953,1894,363.8664,1883.8667,363.8746,1873.7333,363.4499,1863.6,363.6589,1853.4667,363.8975,1843.3333,362.4741,1833.2,363.8738,1823.0667,362.8988,1812.9333,363.7291,1802.8,362.7003,1792.6667,363.1268,1782.5333,363.9369,1772.4,363.1466,1762.2667,363.3006,1752.1333,363.5339,1742,363.1953,1742.4162,363.1953,1741.9961,352.3727,1742.2872,341.55,1741.4276,330.7273,1742.2844,319.9047,1742,309.082" style="stroke: #0000FF; stroke-width: 3.0;"/><text fill="#0000FF" font-family="courier" font-size="20" font-weight="bold" lengthAdjust="spacingAndGlyphs" textLength="144" x="1746" y="335.1895">SystemTester</text><path d="M1743,347.1953 L1743,347.4756 L1753,346.6429 L1763,347.453 L1773,347.7282 L1783,346.2441 L1793,347.0917 L1803,346.6267 L1813,346.684 L1823,347.1044 L1833,346.2735 L1843,347.9335 L1853,346.3549 L1863,346.9316 L1873,347.7712 L1883,347.0809 L1893,347.1953 " fill="#222222" style="stroke: #0000FF; stroke-width: 3.0;"/><path d="M1743,355.1953 L1743,355.4756 L1753,354.6429 L1763,355.453 L1773,355.7282 L1783,354.2441 L1793,355.0917 L1803,354.6267 L1813,354.684 L1823,355.1044 L1833,354.2735 L1843,355.9335 L1853,354.3549 L1863,354.9316 L1873,355.7712 L1883,355.0809 L1893,355.1953 " fill="#222222" style="stroke: #0000FF; stroke-width: 3.0;"/><!--class IntegrationTester--><polygon fill="#222222" points="1929,309.082,1929,309.2922,1939.0952,308.6677,1949.1905,309.2753,1959.2857,309.4817,1969.381,308.3686,1979.4762,309.0043,1989.5714,308.6555,1999.6667,308.6985,2009.7619,309.0139,2019.8571,308.3907,2029.9524,309.6357,2040.0476,308.4518,2050.1429,308.8843,2060.2381,309.514,2070.3333,308.9963,2080.4286,309.1503,2090.5238,309.0501,2100.619,309.2606,2110.7143,309.3212,2120.8095,309.6677,2130.9048,309.7531,2141,309.082,2141.6793,309.082,2141.2546,319.9047,2141.4636,330.7273,2141.7022,341.55,2140.2788,352.3727,2141,363.1953,2141,363.8738,2130.9048,362.8988,2120.8095,363.7291,2110.7143,362.7003,2100.619,363.1268,2090.5238,363.9369,2080.4286,363.1466,2070.3333,363.3006,2060.2381,363.5339,2050.1429,363.6115,2040.0476,363.1914,2029.9524,363.4825,2019.8571,362.6229,2009.7619,363.4797,1999.6667,363.7435,1989.5714,363.6398,1979.4762,363.8083,1969.381,362.7122,1959.2857,362.5431,1949.1905,362.5739,1939.0952,363.1364,1929,363.1953,1928.8035,363.1953,1929.6814,352.3727,1928.8253,341.55,1928.6569,330.7273,1929.2283,319.9047,1929,309.082" style="stroke: #0000FF; stroke-width: 3.0;"/><text fill="#0000FF" font-family="courier" font-size="20" font-weight="bold" lengthAdjust="spacingAndGlyphs" textLength="204" x="1933" y="335.1895">IntegrationTester</text><path d="M1930,347.1953 L1930,347.4756 L1940,346.6429 L1950,347.453 L1960,347.7282 L1970,346.2441 L1980,347.0917 L1990,346.6267 L2000,346.684 L2010,347.1044 L2020,346.2735 L2030,347.9335 L2040,346.3549 L2050,346.9316 L2060,347.7712 L2070,347.0809 L2080,347.2863 L2090,347.1527 L2100,347.4333 L2110,347.5142 L2120,347.9762 L2130,348.0901 L2140,347.1953 " fill="#222222" style="stroke: #0000FF; stroke-width: 3.0;"/><path d="M1930,355.1953 L1930,355.4756 L1940,354.6429 L1950,355.453 L1960,355.7282 L1970,354.2441 L1980,355.0917 L1990,354.6267 L2000,354.684 L2010,355.1044 L2020,354.2735 L2030,355.9335 L2040,354.3549 L2050,354.9316 L2060,355.7712 L2070,355.0809 L2080,355.2863 L2090,355.1527 L2100,355.4333 L2110,355.5142 L2120,355.9762 L2130,356.0901 L2140,355.1953 " fill="#222222" style="stroke: #0000FF; stroke-width: 3.0;"/><!--link Role to RequirementRole--><path d="M938.16,121.601 L938.2309,121.8721 L928.4878,123.561 L919.1606,126.8392 L909.698,129.5999 L899.79,130.6586 L890.4723,133.973 L880.8222,136.0175 L871.3045,138.5674 L861.8786,141.4686 L852.1359,143.1591 L843.0239,147.2595 L833.092,148.2268 L823.7056,151.2791 L814.3859,154.5858 L804.6788,156.4125 L795.1985,159.1056 L785.6324,161.4708 L776.1712,164.2367 L766.6593,166.8093 L757.244,169.7507 L747.7405,172.3553 L738.211,174.8603 L728.5353,176.807 L719.0736,179.571 L709.6218,182.3732 L699.6091,183.0316 L690.5492,187.3315 L680.6878,188.5683 L671.4358,192.1337 L661.5562,193.3011 L652.191,196.434 " fill="none" style="stroke: #FFFFFF; stroke-width: 2.0;"/><polygon fill="none" points="936.797,114.722,936.8027,114.7919,941.0101,114.9262,945.2506,115.4699,949.4803,115.8802,953.6746,115.8522,957.918,116.431,957.9035,116.4095,954.3232,118.6801,950.8158,121.059,947.3591,123.5132,943.7277,125.7079,940.341,128.266,940.5195,128.3127,939.4289,125.504,938.8596,122.8317,938.3539,120.1761,937.4781,117.4236,936.797,114.722" style="stroke: #FFFFFF; stroke-width: 2.0;"/><!--link Role to AnalysisRole--><path d="M986,155.449 L986.0934,155.449 L985.8159,163.3566 L986.0859,171.2642 L986.1776,179.1718 L985.6829,187.0794 L986,194.987 " fill="none" style="stroke: #FFFFFF; stroke-width: 2.0;"/><polygon fill="none" points="979,155.341,979.0661,155.3642,980.2696,151.2954,981.8608,147.3623,983.3257,143.385,984.3756,139.2625,986,135.341,985.9755,135.3325,987.2658,139.2941,988.6793,143.2988,990.1786,147.3335,991.3825,151.2649,993,155.341,993,155.5256,990.2,155.1309,987.4,155.2751,984.6,155.485,981.8,155.3124,979,155.341" style="stroke: #FFFFFF; stroke-width: 2.0;"/><!--link Role to DesignRole--><path d="M941.016,137.872 L941.1671,138.1081 L932.6048,142.5993 L924.9282,148.4742 L916.9632,153.8985 L908.0498,157.8411 L900.3933,163.7475 L892.0293,168.5483 L883.9468,173.7892 L876.0601,179.3359 L867.4988,183.8285 L860.2803,190.4192 L851.769,194.99 " fill="none" style="stroke: #FFFFFF; stroke-width: 2.0;"/><polygon fill="none" points="937.264,131.962,937.2802,132.0302,941.356,130.8506,945.5265,130.0707,949.6661,129.1607,953.7044,127.8226,957.883,127.077,957.8626,127.0611,955.1567,130.3247,952.5536,133.669,950.0219,137.0692,947.244,140.2765,944.811,143.754,944.9664,143.8535,943.1246,141.2824,941.7367,139.0017,940.4041,136.7564,938.7493,134.305,937.264,131.962" style="stroke: #FFFFFF; stroke-width: 2.0;"/><!--link Role to ImplementRole--><path d="M1031.45,135.458 L1031.5907,135.7004 L1039.7261,139.9436 L1048.686,145.6076 L1057.3775,150.809 L1065.1859,154.4887 L1074.1647,160.1851 L1082.4846,164.7462 L1091.0667,169.7591 L1099.8311,175.0861 L1107.9673,179.3307 L1117.3538,185.7298 L1125.1149,189.3278 L1134.09,195.018 " fill="none" style="stroke: #FFFFFF; stroke-width: 2.0;"/><polygon fill="none" points="1027.85,141.461,1027.9032,141.5066,1024.9871,138.1526,1022.3829,135.0658,1019.6772,131.8919,1016.6374,128.4319,1014.06,125.368,1014.0551,125.3426,1018.1973,126.0252,1022.364,126.8361,1026.5477,127.7361,1030.6727,128.3289,1034.88,129.352,1035.0396,129.4447,1033.2923,131.6683,1032.011,134.1625,1030.7865,136.6897,1029.2313,139.0249,1027.85,141.461" style="stroke: #FFFFFF; stroke-width: 2.0;"/><!--link Role to TestRole--><path d="M1033.92,117.403 L1033.9679,117.6791 L1043.73,118.5786 L1053.7732,121.0967 L1063.7248,123.0876 L1073.3754,123.3453 L1083.425,125.9002 L1093.25,127.1619 L1103.1643,128.9382 L1113.1408,131.0723 L1122.9032,131.9735 L1133.0917,135.3289 L1142.7262,135.4934 L1152.7294,137.7815 L1162.7776,140.3286 L1172.5641,141.3683 L1182.5037,143.2905 L1192.3854,144.8787 L1202.338,146.8751 L1212.2564,148.6746 L1222.24,150.8497 L1232.164,152.6817 L1242.0704,154.4123 L1251.8781,155.5743 L1261.8303,157.5687 L1271.7893,159.602 L1281.3691,159.452 L1291.593,163.0106 L1301.2751,163.4496 L1311.369,166.2602 L1321.0389,166.6285 L1331.0407,168.9087 L1341.1301,171.6928 L1350.8543,172.3744 L1360.794,174.2966 L1370.7518,176.3229 L1380.674,178.1447 L1390.4827,179.3127 L1400.4537,181.415 L1410.1622,182.0055 L1420.2621,184.851 L1430.2269,186.9174 L1440.1078,188.501 L1450.0507,190.4422 L1459.7053,190.7222 L1469.5712,192.2199 L1479.4828,193.9802 L1489.5157,196.439 L1499.3888,197.978 L1509.4936,200.8512 L1519.2029,201.4464 L1529.069,202.9451 L1539.1039,205.4155 L1548.8043,205.9595 L1558.7425,207.8734 L1568.9135,211.1277 L1578.67,211.995 " fill="none" style="stroke: #FFFFFF; stroke-width: 2.0;"/><polygon fill="none" points="1032.64,124.285,1032.6741,124.3462,1028.8708,122.1008,1025.2674,120.2141,1021.5989,118.2106,1017.7162,115.8229,1014.13,113.967,1014.1258,113.9415,1018.2867,113.1316,1022.469,112.4505,1026.6663,111.859,1030.8122,110.9589,1035.03,110.491,1035.2118,110.5225,1034.345,113.214,1034.009,115.9974,1033.7379,118.792,1033.0898,121.5213,1032.64,124.285" style="stroke: #FFFFFF; stroke-width: 2.0;"/><!--link RequirementRole to SystemsAnalyst--><path d="M444.076,250.139 L444.1412,250.4116 L434.0898,251.9599 L424.4207,255.106 L414.6271,257.7318 L404.4242,258.6466 L394.7638,261.829 L384.7979,263.7349 L374.9537,266.1488 L365.1939,268.9159 L355.1429,270.4659 L345.6715,274.4385 L335.4466,275.2615 L325.7845,278.4369 L325.7225,278.1806 L316.1672,281.3541 L306.2523,283.0404 L296.5479,285.5973 L286.7639,287.8248 L277.0772,290.4549 L267.3435,292.8907 L257.6994,295.6972 L247.9735,298.1651 L238.2234,300.5331 L228.3377,302.3401 L218.6505,304.9682 L208.9726,307.6348 L199,309.082 L198.9239,308.7707 L195.7144,310.1959 L192.2543,310.596 L188.9848,311.7754 L185.5189,312.1522 L182.214,313.1869 " fill="none" style="stroke: #FFFFFF; stroke-width: 2.0;"/><polygon fill="none" points="442.769,243.255,442.7762,243.3247,446.9704,243.5527,451.2068,244.1891,455.4295,244.6926,459.607,244.7585,463.847,245.43,463.833,245.4082,460.2034,247.5992,456.6444,249.9,453.1343,252.2773,449.4553,254.3913,446.013,256.874,446.1925,256.9168,445.1598,254.1015,444.6513,251.4112,444.2067,248.736,443.39,245.9722,442.769,243.255" style="stroke: #FFFFFF; stroke-width: 2.0;"/><!--link RequirementRole to UseCaseSpecifier--><path d="M483.347,257.776 L483.4651,258.0302 L473.9427,261.5373 L465.1126,266.5342 L456.0571,271.046 L446.2601,273.9624 L437.4458,278.9933 L428.0783,282.8338 L418.931,287.148 L409.9367,291.7916 L400.415,295.3002 L391.9431,301.0679 L382.1063,303.8986 L373.289,308.9229 " fill="none" style="stroke: #FFFFFF; stroke-width: 2.0;"/><polygon fill="none" points="480.713,251.281,480.7199,251.3508,484.9168,250.7274,489.1541,250.5127,493.3783,250.165,497.5592,249.3796,501.8,249.2,501.7819,249.1815,498.6635,252.0535,495.6361,255.0191,492.672,258.0497,489.4897,260.8561,486.613,263.9766,486.7804,264.0544,485.2425,261.349,484.1932,258.8706,483.2036,256.42,481.8671,253.8081,480.713,251.281" style="stroke: #FFFFFF; stroke-width: 2.0;"/><!--link RequirementRole to Architect--><path d="M622.087,259.151 L622.2245,259.3953 L630.6595,263.6468 L639.9002,269.33 L648.8786,274.547 L656.9941,278.2309 L666.2532,283.9467 L674.8685,288.5186 L683.74,293.5458 L692.7896,298.8894 L701.2255,303.1424 L710.521,308.9229 " fill="none" style="stroke: #FFFFFF; stroke-width: 2.0;"/><polygon fill="none" points="618.401,265.1093,618.4536,265.1556,615.4983,261.8363,612.8514,258.7882,610.104,255.6517,607.0265,252.2248,604.406,249.2,604.4015,249.1745,608.5535,249.8019,612.7284,250.5578,616.9192,251.4031,621.0553,251.9403,625.268,252.909,625.4288,252.9996,623.7115,255.246,622.4638,257.7568,621.2733,260.2998,619.7495,262.6552,618.401,265.1093" style="stroke: #FFFFFF; stroke-width: 2.0;"/><!--link RequirementRole to InterfaceDesigner--><path d="M558,269.4492 L558.0934,269.4492 L557.8159,277.3569 L558.0859,285.2646 L558.1776,293.1722 L557.6829,301.0799 L558,308.9875 " fill="none" style="stroke: #FFFFFF; stroke-width: 2.0;"/><polygon fill="none" points="551,269.3411,551.0661,269.3643,552.2696,265.2955,553.8608,261.3624,555.3257,257.3851,556.3756,253.2625,558,249.341,557.9755,249.3325,559.2658,253.2941,560.6793,257.2988,562.1786,261.3335,563.3825,265.2649,565,269.341,565,269.5256,562.2,269.131,559.4,269.2751,556.6,269.4851,553.8,269.3125,551,269.3411" style="stroke: #FFFFFF; stroke-width: 2.0;"/><!--link AnalysisRole to Architect--><path d="M914.597,258.004 L914.7201,258.2558 L905.6784,261.751 L897.3584,266.722 L888.8034,271.2125 L879.4754,274.1225 L871.1719,279.1272 L862.2917,282.9526 L853.6409,287.2474 L845.1497,291.8683 L836.1087,295.3651 L828.1622,301.0996 L818.7927,303.9248 L810.486,308.9229 " fill="none" style="stroke: #FFFFFF; stroke-width: 2.0;"/><polygon fill="none" points="911.557,251.699,911.5653,251.7686,915.7491,251.0621,919.9814,250.7634,924.1979,250.3319,928.3626,249.4637,932.599,249.2,932.5806,249.1818,929.5197,252.1151,926.5517,255.1402,923.6482,258.2291,920.5222,261.0981,917.708,264.275,917.8738,264.3561,916.2891,261.6675,915.1884,259.2157,914.1467,256.7927,912.7615,254.2017,911.557,251.699" style="stroke: #FFFFFF; stroke-width: 2.0;"/><!--link AnalysisRole to UseCaseEngineer--><path d="M968.973,268.4864 L969.0605,268.5192 L965.763,276.522 L962.9782,284.717 L960.0265,292.8495 L956.5257,300.776 L953.785,308.9875 " fill="none" style="stroke: #FFFFFF; stroke-width: 2.0;"/><polygon fill="none" points="962.576,265.6097,962.6298,265.6546,965.1854,262.2675,968.0563,259.1435,970.8245,255.9339,973.255,252.4424,976.153,249.341,976.1271,249.3405,975.9173,253.5748,975.838,257.812,975.8495,262.0512,975.5482,266.2835,975.685,270.5255,975.7498,270.6983,972.9894,269.3457,970.4183,268.4975,967.8702,267.7109,965.1878,266.5661,962.576,265.6097" style="stroke: #FFFFFF; stroke-width: 2.0;"/><!--link AnalysisRole to ComponentEngineer--><path d="M1048.79,259.521 L1048.9307,259.7634 L1057.0367,263.9899 L1065.9674,269.6372 L1074.6295,274.8219 L1082.4086,278.4849 L1091.358,284.1647 L1099.6486,288.7091 L1108.2013,293.7053 L1116.9364,299.0156 L1125.0433,303.2436 L1134.03,308.9875 " fill="none" style="stroke: #FFFFFF; stroke-width: 2.0;"/><polygon fill="none" points="1045.03,265.4339,1045.0832,265.4795,1042.1691,262.1255,1039.5669,259.0387,1036.8632,255.8648,1033.8254,252.4049,1031.25,249.341,1031.2451,249.3156,1035.3853,249.9982,1039.55,250.8091,1043.7317,251.7091,1047.8547,252.3019,1052.06,253.325,1052.2196,253.4177,1050.4723,255.6413,1049.191,258.1355,1047.9665,260.6627,1046.4113,262.9978,1045.03,265.4339" style="stroke: #FFFFFF; stroke-width: 2.0;"/><!--link ImplementRole to Architect--><path d="M1077.29,249.67 L1077.3118,249.7609 L1069.6318,251.3198 L1062.0798,253.4112 L1054.486,255.3292 L1046.7553,256.6769 L1039.2142,258.814 L1039.2066,258.7804 L1032.6845,260.1082 L1026.2012,261.6059 L1019.7449,263.2216 L1013.1957,264.4305 L1006.7765,266.2092 L1006.9346,266.9302 L997.4297,267.3983 L988.3865,269.9716 L979.3995,272.8017 L970.0849,274.1374 L960.9621,276.348 L951.7759,278.2691 L951.7727,278.2553 L946.577,279.5311 L941.3664,280.7419 L936.1841,282.0767 L930.976,283.2983 L925.6934,284.1921 L925.7648,284.4854 L920.2235,285.6401 L914.7487,287.0685 L909.2771,288.5096 L903.6307,289.233 L898.2098,290.8825 L898.2853,291.1745 L895.2134,291.5209 L892.3423,292.6441 L889.2645,292.9673 L886.3485,293.9167 L883.3927,294.7121 L883.4783,295.0304 L880.2216,295.5427 L877.0739,296.4603 L873.9353,297.4119 L870.7788,298.2966 L867.5653,298.9695 L867.5648,298.9678 L864.1881,300.0452 L860.6738,300.6299 L857.3647,301.9495 L853.9848,303.0151 L850.5077,303.7332 L850.5626,303.923 L846.8818,305.0647 L843.045,305.6665 L839.3226,306.664 L835.6249,307.747 L832,309.082 L831.9923,309.057 L828.6487,310.0296 L825.4389,311.4332 L822.0008,312.1008 L818.6533,313.0602 L815.373,314.2368 " fill="none" style="stroke: #FFFFFF; stroke-width: 2.0;"/><polygon fill="none" points="1075.82,242.823,1075.8264,242.8928,1080.0273,243.0749,1084.2659,243.666,1088.4922,244.1239,1092.6782,244.1438,1096.92,244.77,1096.9058,244.7484,1093.2999,246.9784,1089.7658,249.3176,1086.2815,251.7326,1082.6255,253.8862,1079.21,256.406,1079.3891,256.4507,1078.3282,253.6386,1077.79,250.9569,1077.3157,248.2911,1076.4703,245.5327,1075.82,242.823" style="stroke: #FFFFFF; stroke-width: 2.0;"/><!--link ImplementRole to SystemIntegrator--><path d="M1253.65,257.776 L1253.7681,258.0302 L1262.5889,261.5373 L1272.1019,266.5342 L1281.3896,271.046 L1289.9358,273.9624 L1299.4647,278.9933 L1308.4403,282.8338 L1317.6362,287.148 L1326.985,291.7916 L1335.8065,295.3002 L1345.6778,301.0679 L1354.1842,303.8986 L1363.71,308.9229 " fill="none" style="stroke: #FFFFFF; stroke-width: 2.0;"/><polygon fill="none" points="1250.39,263.9766,1250.4389,264.0269,1247.2557,260.9223,1244.3589,258.1122,1241.3689,255.2062,1238.0722,251.9849,1235.2,249.2,1235.1975,249.1743,1239.404,249.4748,1243.6234,249.9052,1247.8518,250.426,1252.0494,250.6355,1256.29,251.281,1256.4574,251.3588,1254.9195,253.7316,1253.8702,256.3315,1252.8806,258.9591,1251.5441,261.4255,1250.39,263.9766" style="stroke: #FFFFFF; stroke-width: 2.0;"/><!--link ImplementRole to ComponentEngineer--><path d="M1179,269.4492 L1179.0934,269.4492 L1178.8159,277.3569 L1179.0859,285.2646 L1179.1776,293.1722 L1178.6829,301.0799 L1179,308.9875 " fill="none" style="stroke: #FFFFFF; stroke-width: 2.0;"/><polygon fill="none" points="1172,269.3411,1172.0661,269.3643,1173.2696,265.2955,1174.8608,261.3624,1176.3257,257.3851,1177.3756,253.2625,1179,249.341,1178.9755,249.3325,1180.2658,253.2941,1181.6793,257.2988,1183.1786,261.3335,1184.3825,265.2649,1186,269.341,1186,269.5256,1183.2,269.131,1180.4,269.2751,1177.6,269.4851,1174.8,269.3125,1172,269.3411" style="stroke: #FFFFFF; stroke-width: 2.0;"/><!--link TestRole to TestEngineer--><path d="M1631,269.4492 L1631.0934,269.4492 L1630.8159,277.3569 L1631.0859,285.2646 L1631.1776,293.1722 L1630.6829,301.0799 L1631,308.9875 " fill="none" style="stroke: #FFFFFF; stroke-width: 2.0;"/><polygon fill="none" points="1624,269.3411,1624.0661,269.3643,1625.2696,265.2955,1626.8608,261.3624,1628.3257,257.3851,1629.3756,253.2625,1631,249.341,1630.9755,249.3325,1632.2658,253.2941,1633.6793,257.2988,1635.1786,261.3335,1636.3825,265.2649,1638,269.341,1638,269.5256,1635.2,269.131,1632.4,269.2751,1629.6,269.4851,1626.8,269.3125,1624,269.3411" style="stroke: #FFFFFF; stroke-width: 2.0;"/><!--link TestRole to SystemTester--><path d="M1692.23,259.752 L1692.374,259.9924 L1700.1661,264.2017 L1708.8024,269.8202 L1717.1638,274.9799 L1724.6212,278.6302 L1733.2768,284.2809 L1741.2578,288.8055 L1749.5073,293.7782 L1757.9433,299.0625 L1765.7363,303.2732 L1774.43,308.9875 " fill="none" style="stroke: #FFFFFF; stroke-width: 2.0;"/><polygon fill="none" points="1688.4,265.6228,1688.4538,265.6677,1685.5819,262.2781,1683.0255,259.1513,1680.3664,255.939,1677.3693,252.4452,1674.84,249.341,1674.8348,249.3157,1678.9634,250.056,1683.1182,250.9242,1687.2914,251.8814,1691.4016,252.5321,1695.6,253.612,1695.7583,253.7069,1693.9798,255.9062,1692.6635,258.3825,1691.4035,260.8925,1689.8155,263.206,1688.4,265.6228" style="stroke: #FFFFFF; stroke-width: 2.0;"/><!--link TestRole to IntegrationTester--><path d="M1702.89,243.013 L1702.9649,243.2831 L1712.2664,245.121 L1722.0068,248.5419 L1731.6044,251.4474 L1740.7319,252.6575 L1750.4823,256.1145 L1759.8821,258.3067 L1769.4214,261.0022 L1779.0577,264.0476 L1788.3597,265.8872 L1798.3272,270.1271 L1807.4295,271.2462 L1817.1076,274.4422 L1826.8559,277.8916 L1836.1954,279.8666 L1845.7743,282.7048 L1855.2626,285.2163 L1864.8616,288.127 L1874.4072,290.8452 L1884.0546,293.9307 L1893.609,296.6807 L1903.1359,299.3315 L1912.5087,301.4262 L1922.1071,304.3349 L1931.7161,307.2818 L1940.99,309.0198 " fill="none" style="stroke: #FFFFFF; stroke-width: 2.0;"/><polygon fill="none" points="1700.8,249.698,1700.84,249.7556,1697.2412,247.1668,1693.8768,244.9153,1690.436,242.554,1686.7443,239.8315,1683.4,237.609,1683.3983,237.5832,1687.6186,237.1868,1691.8475,236.9207,1696.0825,236.7452,1700.2967,236.2575,1704.54,236.207,1704.7178,236.2563,1703.5895,238.8491,1702.9805,241.5858,1702.4347,244.3401,1701.5204,246.9922,1700.8,249.698" style="stroke: #FFFFFF; stroke-width: 2.0;"/><!--link TestRole to ComponentEngineer--><path d="M1558.99,240.926 L1559.0574,241.198 L1549.0454,242.821 L1539.4284,246.0386 L1529.6828,248.7369 L1519.5141,249.7275 L1509.9062,252.9814 L1499.9825,254.9612 L1490.1845,257.4481 L1480.4739,260.2874 L1470.4622,261.912 L1461.0497,265.9545 L1450.8582,266.8535 L1441.1852,269.8444 L1431.5753,273.0906 L1421.5975,274.8518 L1411.8351,277.4823 L1401.9912,279.7838 L1392.2469,282.4874 L1382.4545,284.9971 L1372.7539,287.8768 L1362.9695,290.4184 L1353.1603,292.8602 L1343.2124,294.7419 L1333.4676,297.4435 L1323.7323,300.1836 L1313.4641,300.7726 L1304.1012,305.0153 L1293.9767,306.1846 L1284.26,308.9995 " fill="none" style="stroke: #FFFFFF; stroke-width: 2.0;"/><polygon fill="none" points="1557.61,234.055,1557.6166,234.1248,1561.8171,234.3143,1566.056,234.9128,1570.2825,235.3781,1574.4677,235.4055,1578.71,236.039,1578.6958,236.0174,1575.0861,238.2411,1571.548,240.5741,1568.0596,242.983,1564.3998,245.1302,1560.98,247.644,1561.1591,247.6885,1560.1021,244.8757,1559.568,242.1926,1559.0977,239.5253,1558.2562,236.7659,1557.61,234.055" style="stroke: #FFFFFF; stroke-width: 2.0;"/><!--link DesignRole to Architect--><path d="M789.571,267.5265 L789.8234,267.6482 L785.0754,275.5788 L781.8071,284.2229 L778.057,292.6346 L772.7222,300.2822 L769.581,308.9875 " fill="none" style="stroke: #FFFFFF; stroke-width: 2.0;"/><polygon fill="none" points="783.348,264.3163,783.3975,264.3659,786.2486,261.2236,789.3899,258.3718,792.4368,255.4254,795.1727,252.1679,798.339,249.341,798.3133,249.3381,797.7217,253.5362,797.26,257.7489,796.8884,261.9718,796.206,266.1595,795.959,270.3965,796.0391,270.5628,793.3456,268.9912,790.886,267.9051,788.4549,266.8781,785.8578,265.5066,783.348,264.3163" style="stroke: #FFFFFF; stroke-width: 2.0;"/><!--link DesignRole to UseCaseEngineer--><path d="M857.584,262.31 L857.7645,262.5244 L865.1466,268.5557 L873.5869,275.8436 L881.6826,282.7223 L888.645,288.2553 L897.1094,295.5718 L904.7283,301.8843 L913.013,308.9875 " fill="none" style="stroke: #FFFFFF; stroke-width: 2.0;"/><polygon fill="none" points="852.972,267.5782,853.0323,267.6139,850.6953,263.8605,848.7119,260.3162,846.6133,256.7037,844.1361,252.8674,842.183,249.341,842.1738,249.3168,846.0939,250.7137,850.0604,252.2327,854.0591,253.8366,857.9467,255.148,861.99,256.869,862.1312,256.9879,860.0257,258.8755,858.3324,261.1102,856.6893,263.3873,854.7537,265.418,852.972,267.5782" style="stroke: #FFFFFF; stroke-width: 2.0;"/><!--link DesignRole to ComponentEngineer--><path d="M894.433,249.78 L894.5153,250.0479 L903.4552,252.073 L912.8775,255.6684 L922.1427,258.7525 L930.8913,260.1548 L940.3246,263.786 L949.5394,266.7061 L949.3744,266.1619 L959.6954,269.3413 L970.1218,272.8681 L980.185,275.1974 L990.9711,279.9105 L1001.0613,282.3286 L1000.8207,281.5234 L1010.9012,285.0381 L1021.0569,288.8047 L1030.7748,291.1055 L1040.749,294.2644 L1050.6261,297.0985 L1060.6219,300.3296 L1070.5604,303.3691 L1080.6081,306.774 L1090.3,308.9879 " fill="none" style="stroke: #FFFFFF; stroke-width: 2.0;"/><polygon fill="none" points="892.104,256.386,892.1457,256.4423,888.616,253.753,885.3307,251.3938,881.9659,248.9271,878.3393,246.1069,875.075,243.776,875.0741,243.7501,879.3051,243.4818,883.5408,243.3439,887.7798,243.2967,892.0075,242.9369,896.251,243.015,896.4273,243.0697,895.2209,245.627,894.5292,248.3439,893.9003,251.0803,892.9061,253.7034,892.104,256.386" style="stroke: #FFFFFF; stroke-width: 2.0;"/><text fill="#FFA500" font-family="courier" font-size="15" font-style="italic" lengthAdjust="spacingAndGlyphs" textLength="630" x="764.5" y="389.1626">Luis Fernández Muñoz - https://www.linkedin.com/in/luisfernandezmunyoz</text><!--
@startuml

skinparam backgroundColor #222222

skinparam default {
    FontSize 20
    FontName courier
    FontStyle normal
    FontColor #white
}
skinparam handwritten true

skinparam shadowing false
skinparam padding 1
skinparam arrow {
    Thickness 2
    Color #white
    FontSize 20
    FontName courier
    FontStyle normal
    FontColor #white
}

skinparam title {
    BorderThickness 5
    BorderColor #orange
    FontSize 30
    FontName arial
    FontStyle bold
    FontColor #orange
 }

skinparam header {
    FontSize 15
    FontName courier
    FontStyle italic
    FontColor #orange
}

skinparam footer {
    FontSize 15
    FontName courier
    FontStyle italic
    FontColor #orange
}

skinparam legend {
    BorderThickness 1
    BorderColor #orange
    backgroundColor #222222
    FontSize 15
    FontName courier
    FontStyle italic
    FontColor #orange
}

skinparam package {
    BorderThickness 3
    BorderColor #white
    BackgroundColor #222222
    FontSize 20
    FontName courier
    FontStyle bold
}

skinparam class {
    BorderThickness 3
    BorderColor #white
    BackgroundColor #222222
    FontSize 20
    FontName courier
    FontStyle bold
    FontColor #white
}

skinparam classAttribute {
    FontSize 15
    FontName courier
    FontStyle normal
    FontColor #white
}

hide circle
hide stereotype

header Universo Santa Tecla - USantaTecla@gmail.com
footer Luis Fernández Muñoz - https://www.linkedin.com/in/luisfernandezmunyoz

skinparam class {
    BorderColor<<requirement>> #red
    BorderColor<<analysis>> #yellow
    BorderColor<<design>> #green
    BorderColor<<implementation>> #cyan
    BorderColor<<test>> #blue
    BorderColor<<several>> #orange
    FontColor<<requirement>> #red
    FontColor<<analysis>> #yellow
    FontColor<<design>> #green
    FontColor<<implementation>> #cyan
    FontColor<<test>> #blue
    FontColor<<several>> #orange
}

skinparam package {
    BorderColor<<requirement>> #red
    BorderColor<<analysis>> #yellow
    BorderColor<<design>> #green
    BorderColor<<implementation>> #cyan
    BorderColor<<test>> #blue
    BorderColor<<several>> #orange
    FontColor<<requirement>> #red
    FontColor<<analysis>> #yellow
    FontColor<<design>> #green
    FontColor<<implementation>> #cyan
    FontColor<<test>> #blue
    FontColor<<several>> #orange
}

skinparam classAttribute {
    FontColor<<requirement>> #red
    FontColor<<analysis>> #yellow
    FontColor<<design>> #green
    FontColor<<implementation>> #cyan
    FontColor<<test>> #blue
    FontColor<<several>> #orange
}

title Roles

class Role
class RequirementRole <<requirement>>
class AnalysisRole <<analysis>>
class DesignRole <<design>>
class ImplementRole <<implementation>>
class TestRole <<test>>

class SystemsAnalyst <<requirement>>
class UseCaseSpecifier <<requirement>>
class InterfaceDesigner <<requirement>>
class Architect <<several>>
class UseCaseEngineer <<several>>
class ComponentEngineer <<several>>
class SystemIntegrator <<implementation>>
class TestEngineer <<test>>
class SystemTester <<test>>
class IntegrationTester <<test>>

Role <|- - RequirementRole
Role <|- - AnalysisRole
Role <|- - DesignRole
Role <|- - ImplementRole
Role <|- - TestRole

RequirementRole <|- - SystemsAnalyst
RequirementRole <|- - UseCaseSpecifier
RequirementRole <|- - Architect
RequirementRole <|- - InterfaceDesigner

AnalysisRole <|- - Architect
AnalysisRole <|- - UseCaseEngineer
AnalysisRole <|- - ComponentEngineer

ImplementRole <|- - Architect
ImplementRole <|- - SystemIntegrator
ImplementRole <|- - ComponentEngineer

TestRole <|- - TestEngineer
TestRole <|- - SystemTester
TestRole <|- - IntegrationTester
TestRole <|- - ComponentEngineer

DesignRole <|- - Architect
DesignRole <|- - UseCaseEngineer
DesignRole <|- - ComponentEngineer
@enduml

PlantUML version 1.2019.05(Sat Apr 20 18:45:36 CEST 2019)
(GPL source distribution)
Java Runtime: OpenJDK Runtime Environment
JVM: OpenJDK 64-Bit Server VM
Java Version: 1.8.0_222-b10
Operating System: Windows 10
OS Version: 10.0
Default Encoding: windows-1252
Language: es
Country: ES
--></g></svg>