<?xml version="1.0" encoding="UTF-8" standalone="no"?><svg xmlns="http://www.w3.org/2000/svg" xmlns:xlink="http://www.w3.org/1999/xlink" contentScriptType="application/ecmascript" contentStyleType="text/css" height="433px" preserveAspectRatio="none" style="width:1107px;height:433px;" version="1.1" viewBox="0 0 1107 433" width="1107px" zoomAndPan="magnify"><defs><filter height="300%" id="f199mvv4p0887x" width="300%" x="-1" y="-1"><feGaussianBlur result="blurOut" stdDeviation="2.0"/><feColorMatrix in="blurOut" result="blurOut2" type="matrix" values="0 0 0 0 0 0 0 0 0 0 0 0 0 0 0 0 0 0 .4 0"/><feOffset dx="4.0" dy="4.0" in="blurOut2" result="blurOut3"/><feBlend in="SourceGraphic" in2="blurOut3" mode="normal"/></filter></defs><g><text fill="#000000" font-family="sans-serif" font-size="18" lengthAdjust="spacingAndGlyphs" textLength="180" x="467.5" y="18.6855">Structuring Use Cases</text><!--class Activity--><rect fill="#FF0000" filter="url(#f199mvv4p0887x)" height="48" id="Activity" style="stroke: #A80036; stroke-width: 1.5;" width="67" x="841.5" y="30.6406"/><rect fill="#FF0000" height="32" style="stroke: #A80036; stroke-width: 1.5;" width="67" x="841.5" y="30.6406"/><ellipse cx="856.5" cy="46.6406" fill="#ADD1B2" rx="11" ry="11" style="stroke: #A80036; stroke-width: 1.0;"/><path d="M859.2656,42.5156 Q859.4219,42.2969 859.6094,42.1875 Q859.7969,42.0781 860.0156,42.0781 Q860.3906,42.0781 860.625,42.3359 Q860.8594,42.5938 860.8594,43.2031 L860.8594,44.6563 Q860.8594,45.2656 860.625,45.5313 Q860.3906,45.7969 860.0156,45.7969 Q859.6719,45.7969 859.4688,45.5938 Q859.2656,45.4063 859.1563,44.8906 Q859.1094,44.5313 858.9219,44.3438 Q858.5938,43.9688 857.9844,43.75 Q857.375,43.5313 856.75,43.5313 Q855.9844,43.5313 855.3516,43.8594 Q854.7188,44.1875 854.2266,44.9375 Q853.7344,45.6875 853.7344,46.7188 L853.7344,47.8125 Q853.7344,49.0469 854.625,49.8672 Q855.5156,50.6875 857.1094,50.6875 Q858.0469,50.6875 858.7031,50.4375 Q859.0938,50.2813 859.5156,49.8438 Q859.7813,49.5781 859.9297,49.5 Q860.0781,49.4219 860.2813,49.4219 Q860.6094,49.4219 860.8672,49.6797 Q861.125,49.9375 861.125,50.2813 Q861.125,50.625 860.7813,51.0313 Q860.2813,51.6094 859.4844,51.9375 Q858.4063,52.3906 857.1094,52.3906 Q855.5938,52.3906 854.3906,51.7656 Q853.4063,51.2656 852.7188,50.1953 Q852.0313,49.125 852.0313,47.8438 L852.0313,46.6875 Q852.0313,45.3594 852.6484,44.2109 Q853.2656,43.0625 854.3594,42.4453 Q855.4531,41.8281 856.6875,41.8281 Q857.4219,41.8281 858.0703,41.9922 Q858.7188,42.1563 859.2656,42.5156 Z "/><text fill="#000000" font-family="sans-serif" font-size="12" lengthAdjust="spacingAndGlyphs" textLength="35" x="870.5" y="51.5508">Activity</text><line style="stroke: #A80036; stroke-width: 1.5;" x1="842.5" x2="907.5" y1="62.6406" y2="62.6406"/><line style="stroke: #A80036; stroke-width: 1.5;" x1="842.5" x2="907.5" y1="70.6406" y2="70.6406"/><!--class RequirementsActivity--><rect fill="#FF0000" filter="url(#f199mvv4p0887x)" height="48" id="RequirementsActivity" style="stroke: #A80036; stroke-width: 1.5;" width="146" x="734" y="139.6406"/><rect fill="#FF0000" height="32" style="stroke: #A80036; stroke-width: 1.5;" width="146" x="734" y="139.6406"/><ellipse cx="749" cy="155.6406" fill="#ADD1B2" rx="11" ry="11" style="stroke: #A80036; stroke-width: 1.0;"/><path d="M751.7656,151.5156 Q751.9219,151.2969 752.1094,151.1875 Q752.2969,151.0781 752.5156,151.0781 Q752.8906,151.0781 753.125,151.3359 Q753.3594,151.5938 753.3594,152.2031 L753.3594,153.6563 Q753.3594,154.2656 753.125,154.5313 Q752.8906,154.7969 752.5156,154.7969 Q752.1719,154.7969 751.9688,154.5938 Q751.7656,154.4063 751.6563,153.8906 Q751.6094,153.5313 751.4219,153.3438 Q751.0938,152.9688 750.4844,152.75 Q749.875,152.5313 749.25,152.5313 Q748.4844,152.5313 747.8516,152.8594 Q747.2188,153.1875 746.7266,153.9375 Q746.2344,154.6875 746.2344,155.7188 L746.2344,156.8125 Q746.2344,158.0469 747.125,158.8672 Q748.0156,159.6875 749.6094,159.6875 Q750.5469,159.6875 751.2031,159.4375 Q751.5938,159.2813 752.0156,158.8438 Q752.2813,158.5781 752.4297,158.5 Q752.5781,158.4219 752.7813,158.4219 Q753.1094,158.4219 753.3672,158.6797 Q753.625,158.9375 753.625,159.2813 Q753.625,159.625 753.2813,160.0313 Q752.7813,160.6094 751.9844,160.9375 Q750.9063,161.3906 749.6094,161.3906 Q748.0938,161.3906 746.8906,160.7656 Q745.9063,160.2656 745.2188,159.1953 Q744.5313,158.125 744.5313,156.8438 L744.5313,155.6875 Q744.5313,154.3594 745.1484,153.2109 Q745.7656,152.0625 746.8594,151.4453 Q747.9531,150.8281 749.1875,150.8281 Q749.9219,150.8281 750.5703,150.9922 Q751.2188,151.1563 751.7656,151.5156 Z "/><text fill="#000000" font-family="sans-serif" font-size="12" lengthAdjust="spacingAndGlyphs" textLength="114" x="763" y="160.5508">RequirementsActivity</text><line style="stroke: #A80036; stroke-width: 1.5;" x1="735" x2="879" y1="171.6406" y2="171.6406"/><line style="stroke: #A80036; stroke-width: 1.5;" x1="735" x2="879" y1="179.6406" y2="179.6406"/><!--class Role--><rect fill="#0000FF" filter="url(#f199mvv4p0887x)" height="48" id="Role" style="stroke: #A80036; stroke-width: 1.5;" width="58" x="915" y="139.6406"/><rect fill="#0000FF" height="32" style="stroke: #A80036; stroke-width: 1.5;" width="58" x="915" y="139.6406"/><ellipse cx="930" cy="155.6406" fill="#ADD1B2" rx="11" ry="11" style="stroke: #A80036; stroke-width: 1.0;"/><path d="M932.7656,151.5156 Q932.9219,151.2969 933.1094,151.1875 Q933.2969,151.0781 933.5156,151.0781 Q933.8906,151.0781 934.125,151.3359 Q934.3594,151.5938 934.3594,152.2031 L934.3594,153.6563 Q934.3594,154.2656 934.125,154.5313 Q933.8906,154.7969 933.5156,154.7969 Q933.1719,154.7969 932.9688,154.5938 Q932.7656,154.4063 932.6563,153.8906 Q932.6094,153.5313 932.4219,153.3438 Q932.0938,152.9688 931.4844,152.75 Q930.875,152.5313 930.25,152.5313 Q929.4844,152.5313 928.8516,152.8594 Q928.2188,153.1875 927.7266,153.9375 Q927.2344,154.6875 927.2344,155.7188 L927.2344,156.8125 Q927.2344,158.0469 928.125,158.8672 Q929.0156,159.6875 930.6094,159.6875 Q931.5469,159.6875 932.2031,159.4375 Q932.5938,159.2813 933.0156,158.8438 Q933.2813,158.5781 933.4297,158.5 Q933.5781,158.4219 933.7813,158.4219 Q934.1094,158.4219 934.3672,158.6797 Q934.625,158.9375 934.625,159.2813 Q934.625,159.625 934.2813,160.0313 Q933.7813,160.6094 932.9844,160.9375 Q931.9063,161.3906 930.6094,161.3906 Q929.0938,161.3906 927.8906,160.7656 Q926.9063,160.2656 926.2188,159.1953 Q925.5313,158.125 925.5313,156.8438 L925.5313,155.6875 Q925.5313,154.3594 926.1484,153.2109 Q926.7656,152.0625 927.8594,151.4453 Q928.9531,150.8281 930.1875,150.8281 Q930.9219,150.8281 931.5703,150.9922 Q932.2188,151.1563 932.7656,151.5156 Z "/><text fill="#000000" font-family="sans-serif" font-size="12" lengthAdjust="spacingAndGlyphs" textLength="26" x="944" y="160.5508">Role</text><line style="stroke: #A80036; stroke-width: 1.5;" x1="916" x2="972" y1="171.6406" y2="171.6406"/><line style="stroke: #A80036; stroke-width: 1.5;" x1="916" x2="972" y1="179.6406" y2="179.6406"/><!--class UseCaseModel--><rect fill="#008000" filter="url(#f199mvv4p0887x)" height="48" id="UseCaseModel" style="stroke: #A80036; stroke-width: 1.5;" width="172" x="6" y="374.6406"/><rect fill="#008000" height="32" style="stroke: #A80036; stroke-width: 1.5;" width="172" x="6" y="374.6406"/><ellipse cx="21" cy="390.6406" fill="#ADD1B2" rx="11" ry="11" style="stroke: #A80036; stroke-width: 1.0;"/><path d="M23.7656,386.5156 Q23.9219,386.2969 24.1094,386.1875 Q24.2969,386.0781 24.5156,386.0781 Q24.8906,386.0781 25.125,386.3359 Q25.3594,386.5938 25.3594,387.2031 L25.3594,388.6563 Q25.3594,389.2656 25.125,389.5313 Q24.8906,389.7969 24.5156,389.7969 Q24.1719,389.7969 23.9688,389.5938 Q23.7656,389.4063 23.6563,388.8906 Q23.6094,388.5313 23.4219,388.3438 Q23.0938,387.9688 22.4844,387.75 Q21.875,387.5313 21.25,387.5313 Q20.4844,387.5313 19.8516,387.8594 Q19.2188,388.1875 18.7266,388.9375 Q18.2344,389.6875 18.2344,390.7188 L18.2344,391.8125 Q18.2344,393.0469 19.125,393.8672 Q20.0156,394.6875 21.6094,394.6875 Q22.5469,394.6875 23.2031,394.4375 Q23.5938,394.2813 24.0156,393.8438 Q24.2813,393.5781 24.4297,393.5 Q24.5781,393.4219 24.7813,393.4219 Q25.1094,393.4219 25.3672,393.6797 Q25.625,393.9375 25.625,394.2813 Q25.625,394.625 25.2813,395.0313 Q24.7813,395.6094 23.9844,395.9375 Q22.9063,396.3906 21.6094,396.3906 Q20.0938,396.3906 18.8906,395.7656 Q17.9063,395.2656 17.2188,394.1953 Q16.5313,393.125 16.5313,391.8438 L16.5313,390.6875 Q16.5313,389.3594 17.1484,388.2109 Q17.7656,387.0625 18.8594,386.4453 Q19.9531,385.8281 21.1875,385.8281 Q21.9219,385.8281 22.5703,385.9922 Q23.2188,386.1563 23.7656,386.5156 Z "/><text fill="#000000" font-family="sans-serif" font-size="12" lengthAdjust="spacingAndGlyphs" textLength="140" x="35" y="395.5508">Use Case Model (outline)</text><line style="stroke: #A80036; stroke-width: 1.5;" x1="7" x2="177" y1="406.6406" y2="406.6406"/><line style="stroke: #A80036; stroke-width: 1.5;" x1="7" x2="177" y1="414.6406" y2="414.6406"/><!--class SupplementaryRequirements--><rect fill="#008000" filter="url(#f199mvv4p0887x)" height="48" id="SupplementaryRequirements" style="stroke: #A80036; stroke-width: 1.5;" width="197" x="213.5" y="374.6406"/><rect fill="#008000" height="32" style="stroke: #A80036; stroke-width: 1.5;" width="197" x="213.5" y="374.6406"/><ellipse cx="228.5" cy="390.6406" fill="#ADD1B2" rx="11" ry="11" style="stroke: #A80036; stroke-width: 1.0;"/><path d="M231.2656,386.5156 Q231.4219,386.2969 231.6094,386.1875 Q231.7969,386.0781 232.0156,386.0781 Q232.3906,386.0781 232.625,386.3359 Q232.8594,386.5938 232.8594,387.2031 L232.8594,388.6563 Q232.8594,389.2656 232.625,389.5313 Q232.3906,389.7969 232.0156,389.7969 Q231.6719,389.7969 231.4688,389.5938 Q231.2656,389.4063 231.1563,388.8906 Q231.1094,388.5313 230.9219,388.3438 Q230.5938,387.9688 229.9844,387.75 Q229.375,387.5313 228.75,387.5313 Q227.9844,387.5313 227.3516,387.8594 Q226.7188,388.1875 226.2266,388.9375 Q225.7344,389.6875 225.7344,390.7188 L225.7344,391.8125 Q225.7344,393.0469 226.625,393.8672 Q227.5156,394.6875 229.1094,394.6875 Q230.0469,394.6875 230.7031,394.4375 Q231.0938,394.2813 231.5156,393.8438 Q231.7813,393.5781 231.9297,393.5 Q232.0781,393.4219 232.2813,393.4219 Q232.6094,393.4219 232.8672,393.6797 Q233.125,393.9375 233.125,394.2813 Q233.125,394.625 232.7813,395.0313 Q232.2813,395.6094 231.4844,395.9375 Q230.4063,396.3906 229.1094,396.3906 Q227.5938,396.3906 226.3906,395.7656 Q225.4063,395.2656 224.7188,394.1953 Q224.0313,393.125 224.0313,391.8438 L224.0313,390.6875 Q224.0313,389.3594 224.6484,388.2109 Q225.2656,387.0625 226.3594,386.4453 Q227.4531,385.8281 228.6875,385.8281 Q229.4219,385.8281 230.0703,385.9922 Q230.7188,386.1563 231.2656,386.5156 Z "/><text fill="#000000" font-family="sans-serif" font-size="12" lengthAdjust="spacingAndGlyphs" textLength="165" x="242.5" y="395.5508">Supplementary Requirements</text><line style="stroke: #A80036; stroke-width: 1.5;" x1="214.5" x2="409.5" y1="406.6406" y2="406.6406"/><line style="stroke: #A80036; stroke-width: 1.5;" x1="214.5" x2="409.5" y1="414.6406" y2="414.6406"/><!--class CaseUse--><rect fill="#008000" filter="url(#f199mvv4p0887x)" height="48" id="CaseUse" style="stroke: #A80036; stroke-width: 1.5;" width="154" x="446" y="374.6406"/><rect fill="#008000" height="32" style="stroke: #A80036; stroke-width: 1.5;" width="154" x="446" y="374.6406"/><ellipse cx="461" cy="390.6406" fill="#ADD1B2" rx="11" ry="11" style="stroke: #A80036; stroke-width: 1.0;"/><path d="M463.7656,386.5156 Q463.9219,386.2969 464.1094,386.1875 Q464.2969,386.0781 464.5156,386.0781 Q464.8906,386.0781 465.125,386.3359 Q465.3594,386.5938 465.3594,387.2031 L465.3594,388.6563 Q465.3594,389.2656 465.125,389.5313 Q464.8906,389.7969 464.5156,389.7969 Q464.1719,389.7969 463.9688,389.5938 Q463.7656,389.4063 463.6563,388.8906 Q463.6094,388.5313 463.4219,388.3438 Q463.0938,387.9688 462.4844,387.75 Q461.875,387.5313 461.25,387.5313 Q460.4844,387.5313 459.8516,387.8594 Q459.2188,388.1875 458.7266,388.9375 Q458.2344,389.6875 458.2344,390.7188 L458.2344,391.8125 Q458.2344,393.0469 459.125,393.8672 Q460.0156,394.6875 461.6094,394.6875 Q462.5469,394.6875 463.2031,394.4375 Q463.5938,394.2813 464.0156,393.8438 Q464.2813,393.5781 464.4297,393.5 Q464.5781,393.4219 464.7813,393.4219 Q465.1094,393.4219 465.3672,393.6797 Q465.625,393.9375 465.625,394.2813 Q465.625,394.625 465.2813,395.0313 Q464.7813,395.6094 463.9844,395.9375 Q462.9063,396.3906 461.6094,396.3906 Q460.0938,396.3906 458.8906,395.7656 Q457.9063,395.2656 457.2188,394.1953 Q456.5313,393.125 456.5313,391.8438 L456.5313,390.6875 Q456.5313,389.3594 457.1484,388.2109 Q457.7656,387.0625 458.8594,386.4453 Q459.9531,385.8281 461.1875,385.8281 Q461.9219,385.8281 462.5703,385.9922 Q463.2188,386.1563 463.7656,386.5156 Z "/><text fill="#000000" font-family="sans-serif" font-size="12" lengthAdjust="spacingAndGlyphs" textLength="122" x="475" y="395.5508">Case of use (detailed)</text><line style="stroke: #A80036; stroke-width: 1.5;" x1="447" x2="599" y1="406.6406" y2="406.6406"/><line style="stroke: #A80036; stroke-width: 1.5;" x1="447" x2="599" y1="414.6406" y2="414.6406"/><!--class Glossary--><rect fill="#008000" filter="url(#f199mvv4p0887x)" height="48" id="Glossary" style="stroke: #A80036; stroke-width: 1.5;" width="81" x="635.5" y="374.6406"/><rect fill="#008000" height="32" style="stroke: #A80036; stroke-width: 1.5;" width="81" x="635.5" y="374.6406"/><ellipse cx="650.5" cy="390.6406" fill="#ADD1B2" rx="11" ry="11" style="stroke: #A80036; stroke-width: 1.0;"/><path d="M653.2656,386.5156 Q653.4219,386.2969 653.6094,386.1875 Q653.7969,386.0781 654.0156,386.0781 Q654.3906,386.0781 654.625,386.3359 Q654.8594,386.5938 654.8594,387.2031 L654.8594,388.6563 Q654.8594,389.2656 654.625,389.5313 Q654.3906,389.7969 654.0156,389.7969 Q653.6719,389.7969 653.4688,389.5938 Q653.2656,389.4063 653.1563,388.8906 Q653.1094,388.5313 652.9219,388.3438 Q652.5938,387.9688 651.9844,387.75 Q651.375,387.5313 650.75,387.5313 Q649.9844,387.5313 649.3516,387.8594 Q648.7188,388.1875 648.2266,388.9375 Q647.7344,389.6875 647.7344,390.7188 L647.7344,391.8125 Q647.7344,393.0469 648.625,393.8672 Q649.5156,394.6875 651.1094,394.6875 Q652.0469,394.6875 652.7031,394.4375 Q653.0938,394.2813 653.5156,393.8438 Q653.7813,393.5781 653.9297,393.5 Q654.0781,393.4219 654.2813,393.4219 Q654.6094,393.4219 654.8672,393.6797 Q655.125,393.9375 655.125,394.2813 Q655.125,394.625 654.7813,395.0313 Q654.2813,395.6094 653.4844,395.9375 Q652.4063,396.3906 651.1094,396.3906 Q649.5938,396.3906 648.3906,395.7656 Q647.4063,395.2656 646.7188,394.1953 Q646.0313,393.125 646.0313,391.8438 L646.0313,390.6875 Q646.0313,389.3594 646.6484,388.2109 Q647.2656,387.0625 648.3594,386.4453 Q649.4531,385.8281 650.6875,385.8281 Q651.4219,385.8281 652.0703,385.9922 Q652.7188,386.1563 653.2656,386.5156 Z "/><text fill="#000000" font-family="sans-serif" font-size="12" lengthAdjust="spacingAndGlyphs" textLength="49" x="664.5" y="395.5508">Glossary</text><line style="stroke: #A80036; stroke-width: 1.5;" x1="636.5" x2="715.5" y1="406.6406" y2="406.6406"/><line style="stroke: #A80036; stroke-width: 1.5;" x1="636.5" x2="715.5" y1="414.6406" y2="414.6406"/><!--class UseCaseModelX--><rect fill="#008000" filter="url(#f199mvv4p0887x)" height="48" id="UseCaseModelX" style="stroke: #A80036; stroke-width: 1.5;" width="190" x="752" y="374.6406"/><rect fill="#008000" height="32" style="stroke: #A80036; stroke-width: 1.5;" width="190" x="752" y="374.6406"/><ellipse cx="767" cy="390.6406" fill="#ADD1B2" rx="11" ry="11" style="stroke: #A80036; stroke-width: 1.0;"/><path d="M769.7656,386.5156 Q769.9219,386.2969 770.1094,386.1875 Q770.2969,386.0781 770.5156,386.0781 Q770.8906,386.0781 771.125,386.3359 Q771.3594,386.5938 771.3594,387.2031 L771.3594,388.6563 Q771.3594,389.2656 771.125,389.5313 Q770.8906,389.7969 770.5156,389.7969 Q770.1719,389.7969 769.9688,389.5938 Q769.7656,389.4063 769.6563,388.8906 Q769.6094,388.5313 769.4219,388.3438 Q769.0938,387.9688 768.4844,387.75 Q767.875,387.5313 767.25,387.5313 Q766.4844,387.5313 765.8516,387.8594 Q765.2188,388.1875 764.7266,388.9375 Q764.2344,389.6875 764.2344,390.7188 L764.2344,391.8125 Q764.2344,393.0469 765.125,393.8672 Q766.0156,394.6875 767.6094,394.6875 Q768.5469,394.6875 769.2031,394.4375 Q769.5938,394.2813 770.0156,393.8438 Q770.2813,393.5781 770.4297,393.5 Q770.5781,393.4219 770.7813,393.4219 Q771.1094,393.4219 771.3672,393.6797 Q771.625,393.9375 771.625,394.2813 Q771.625,394.625 771.2813,395.0313 Q770.7813,395.6094 769.9844,395.9375 Q768.9063,396.3906 767.6094,396.3906 Q766.0938,396.3906 764.8906,395.7656 Q763.9063,395.2656 763.2188,394.1953 Q762.5313,393.125 762.5313,391.8438 L762.5313,390.6875 Q762.5313,389.3594 763.1484,388.2109 Q763.7656,387.0625 764.8594,386.4453 Q765.9531,385.8281 767.1875,385.8281 Q767.9219,385.8281 768.5703,385.9922 Q769.2188,386.1563 769.7656,386.5156 Z "/><text fill="#000000" font-family="sans-serif" font-size="12" lengthAdjust="spacingAndGlyphs" textLength="158" x="781" y="395.5508">Use Case Model (structured)</text><line style="stroke: #A80036; stroke-width: 1.5;" x1="753" x2="941" y1="406.6406" y2="406.6406"/><line style="stroke: #A80036; stroke-width: 1.5;" x1="753" x2="941" y1="414.6406" y2="414.6406"/><!--class RequirementsRole--><rect fill="#0000FF" filter="url(#f199mvv4p0887x)" height="48" id="RequirementsRole" style="stroke: #A80036; stroke-width: 1.5;" width="137" x="875.5" y="248.6406"/><rect fill="#0000FF" height="32" style="stroke: #A80036; stroke-width: 1.5;" width="137" x="875.5" y="248.6406"/><ellipse cx="890.5" cy="264.6406" fill="#ADD1B2" rx="11" ry="11" style="stroke: #A80036; stroke-width: 1.0;"/><path d="M893.2656,260.5156 Q893.4219,260.2969 893.6094,260.1875 Q893.7969,260.0781 894.0156,260.0781 Q894.3906,260.0781 894.625,260.3359 Q894.8594,260.5938 894.8594,261.2031 L894.8594,262.6563 Q894.8594,263.2656 894.625,263.5313 Q894.3906,263.7969 894.0156,263.7969 Q893.6719,263.7969 893.4688,263.5938 Q893.2656,263.4063 893.1563,262.8906 Q893.1094,262.5313 892.9219,262.3438 Q892.5938,261.9688 891.9844,261.75 Q891.375,261.5313 890.75,261.5313 Q889.9844,261.5313 889.3516,261.8594 Q888.7188,262.1875 888.2266,262.9375 Q887.7344,263.6875 887.7344,264.7188 L887.7344,265.8125 Q887.7344,267.0469 888.625,267.8672 Q889.5156,268.6875 891.1094,268.6875 Q892.0469,268.6875 892.7031,268.4375 Q893.0938,268.2813 893.5156,267.8438 Q893.7813,267.5781 893.9297,267.5 Q894.0781,267.4219 894.2813,267.4219 Q894.6094,267.4219 894.8672,267.6797 Q895.125,267.9375 895.125,268.2813 Q895.125,268.625 894.7813,269.0313 Q894.2813,269.6094 893.4844,269.9375 Q892.4063,270.3906 891.1094,270.3906 Q889.5938,270.3906 888.3906,269.7656 Q887.4063,269.2656 886.7188,268.1953 Q886.0313,267.125 886.0313,265.8438 L886.0313,264.6875 Q886.0313,263.3594 886.6484,262.2109 Q887.2656,261.0625 888.3594,260.4453 Q889.4531,259.8281 890.6875,259.8281 Q891.4219,259.8281 892.0703,259.9922 Q892.7188,260.1563 893.2656,260.5156 Z "/><text fill="#000000" font-family="sans-serif" font-size="12" lengthAdjust="spacingAndGlyphs" textLength="105" x="904.5" y="269.5508">RequirementsRole</text><line style="stroke: #A80036; stroke-width: 1.5;" x1="876.5" x2="1011.5" y1="280.6406" y2="280.6406"/><line style="stroke: #A80036; stroke-width: 1.5;" x1="876.5" x2="1011.5" y1="288.6406" y2="288.6406"/><!--class StructureUseCaseModel--><rect fill="#FF0000" filter="url(#f199mvv4p0887x)" height="48" id="StructureUseCaseModel" style="stroke: #A80036; stroke-width: 1.5;" width="196" x="578" y="248.6406"/><rect fill="#FF0000" height="32" style="stroke: #A80036; stroke-width: 1.5;" width="196" x="578" y="248.6406"/><ellipse cx="593" cy="264.6406" fill="#ADD1B2" rx="11" ry="11" style="stroke: #A80036; stroke-width: 1.0;"/><path d="M595.7656,260.5156 Q595.9219,260.2969 596.1094,260.1875 Q596.2969,260.0781 596.5156,260.0781 Q596.8906,260.0781 597.125,260.3359 Q597.3594,260.5938 597.3594,261.2031 L597.3594,262.6563 Q597.3594,263.2656 597.125,263.5313 Q596.8906,263.7969 596.5156,263.7969 Q596.1719,263.7969 595.9688,263.5938 Q595.7656,263.4063 595.6563,262.8906 Q595.6094,262.5313 595.4219,262.3438 Q595.0938,261.9688 594.4844,261.75 Q593.875,261.5313 593.25,261.5313 Q592.4844,261.5313 591.8516,261.8594 Q591.2188,262.1875 590.7266,262.9375 Q590.2344,263.6875 590.2344,264.7188 L590.2344,265.8125 Q590.2344,267.0469 591.125,267.8672 Q592.0156,268.6875 593.6094,268.6875 Q594.5469,268.6875 595.2031,268.4375 Q595.5938,268.2813 596.0156,267.8438 Q596.2813,267.5781 596.4297,267.5 Q596.5781,267.4219 596.7813,267.4219 Q597.1094,267.4219 597.3672,267.6797 Q597.625,267.9375 597.625,268.2813 Q597.625,268.625 597.2813,269.0313 Q596.7813,269.6094 595.9844,269.9375 Q594.9063,270.3906 593.6094,270.3906 Q592.0938,270.3906 590.8906,269.7656 Q589.9063,269.2656 589.2188,268.1953 Q588.5313,267.125 588.5313,265.8438 L588.5313,264.6875 Q588.5313,263.3594 589.1484,262.2109 Q589.7656,261.0625 590.8594,260.4453 Q591.9531,259.8281 593.1875,259.8281 Q593.9219,259.8281 594.5703,259.9922 Q595.2188,260.1563 595.7656,260.5156 Z "/><text fill="#000000" font-family="sans-serif" font-size="12" lengthAdjust="spacingAndGlyphs" textLength="164" x="607" y="269.5508">Structure the Use Case Model</text><line style="stroke: #A80036; stroke-width: 1.5;" x1="579" x2="773" y1="280.6406" y2="280.6406"/><line style="stroke: #A80036; stroke-width: 1.5;" x1="579" x2="773" y1="288.6406" y2="288.6406"/><!--class SystemsAnalyst--><rect fill="#0000FF" filter="url(#f199mvv4p0887x)" height="48" id="SystemsAnalyst" style="stroke: #A80036; stroke-width: 1.5;" width="119" x="977.5" y="374.6406"/><rect fill="#0000FF" height="32" style="stroke: #A80036; stroke-width: 1.5;" width="119" x="977.5" y="374.6406"/><ellipse cx="992.5" cy="390.6406" fill="#ADD1B2" rx="11" ry="11" style="stroke: #A80036; stroke-width: 1.0;"/><path d="M995.2656,386.5156 Q995.4219,386.2969 995.6094,386.1875 Q995.7969,386.0781 996.0156,386.0781 Q996.3906,386.0781 996.625,386.3359 Q996.8594,386.5938 996.8594,387.2031 L996.8594,388.6563 Q996.8594,389.2656 996.625,389.5313 Q996.3906,389.7969 996.0156,389.7969 Q995.6719,389.7969 995.4688,389.5938 Q995.2656,389.4063 995.1563,388.8906 Q995.1094,388.5313 994.9219,388.3438 Q994.5938,387.9688 993.9844,387.75 Q993.375,387.5313 992.75,387.5313 Q991.9844,387.5313 991.3516,387.8594 Q990.7188,388.1875 990.2266,388.9375 Q989.7344,389.6875 989.7344,390.7188 L989.7344,391.8125 Q989.7344,393.0469 990.625,393.8672 Q991.5156,394.6875 993.1094,394.6875 Q994.0469,394.6875 994.7031,394.4375 Q995.0938,394.2813 995.5156,393.8438 Q995.7813,393.5781 995.9297,393.5 Q996.0781,393.4219 996.2813,393.4219 Q996.6094,393.4219 996.8672,393.6797 Q997.125,393.9375 997.125,394.2813 Q997.125,394.625 996.7813,395.0313 Q996.2813,395.6094 995.4844,395.9375 Q994.4063,396.3906 993.1094,396.3906 Q991.5938,396.3906 990.3906,395.7656 Q989.4063,395.2656 988.7188,394.1953 Q988.0313,393.125 988.0313,391.8438 L988.0313,390.6875 Q988.0313,389.3594 988.6484,388.2109 Q989.2656,387.0625 990.3594,386.4453 Q991.4531,385.8281 992.6875,385.8281 Q993.4219,385.8281 994.0703,385.9922 Q994.7188,386.1563 995.2656,386.5156 Z "/><text fill="#000000" font-family="sans-serif" font-size="12" lengthAdjust="spacingAndGlyphs" textLength="87" x="1006.5" y="395.5508">SystemsAnalyst</text><line style="stroke: #A80036; stroke-width: 1.5;" x1="978.5" x2="1095.5" y1="406.6406" y2="406.6406"/><line style="stroke: #A80036; stroke-width: 1.5;" x1="978.5" x2="1095.5" y1="414.6406" y2="414.6406"/><!--link Activity to RequirementsActivity--><path d="M849.482,95.7936 C840.115,110.5336 829.83,126.7166 821.726,139.4686 " fill="none" id="Activity-RequirementsActivity" style="stroke: #A80036; stroke-width: 1.0;"/><polygon fill="none" points="843.61,91.9836,860.245,78.8576,855.426,99.4926,843.61,91.9836" style="stroke: #A80036; stroke-width: 1.0;"/><!--link Activity to Role--><path d="M889.972,78.8576 C900.641,95.4036 915.026,117.7106 926.27,135.1466 " fill="none" id="Activity-Role" style="stroke: #A80036; stroke-width: 1.0;"/><polygon fill="#A80036" points="929.057,139.4686,927.54,129.7373,926.3468,135.2669,920.8172,134.0736,929.057,139.4686" style="stroke: #A80036; stroke-width: 1.0;"/><!--link RequirementsActivity to RequirementsRole--><path d="M836.727,187.8576 C858.36,204.7536 887.686,227.6576 910.208,245.2486 " fill="none" id="RequirementsActivity-RequirementsRole" style="stroke: #A80036; stroke-width: 1.0;"/><polygon fill="#A80036" points="914.331,248.4686,909.702,239.7754,910.3911,245.3901,904.7764,246.0793,914.331,248.4686" style="stroke: #A80036; stroke-width: 1.0;"/><!--link RequirementsActivity to StructureUseCaseModel--><path d="M762.847,200.7046 C743.533,216.4796 721.439,234.5256 704.37,248.4686 " fill="none" id="RequirementsActivity-StructureUseCaseModel" style="stroke: #A80036; stroke-width: 1.0;"/><polygon fill="none" points="758.657,195.0886,778.575,187.8576,767.513,205.9316,758.657,195.0886" style="stroke: #A80036; stroke-width: 1.0;"/><!--link StructureUseCaseModel to UseCaseModel--><path d="M577.573,294.0436 C480.501,314.2376 327.939,346.1709 196,374.6406 C191.843,375.5377 187.593,376.4592 183.301,377.3936 " fill="none" id="StructureUseCaseModel-UseCaseModel" style="stroke: #A80036; stroke-width: 1.0;"/><polygon fill="#A80036" points="178.246,378.4957,187.8917,380.4856,183.1311,377.43,186.1867,372.6694,178.246,378.4957" style="stroke: #A80036; stroke-width: 1.0;"/><text fill="#000000" font-family="sans-serif" font-size="13" lengthAdjust="spacingAndGlyphs" textLength="10" x="421" y="341.1357">in</text><!--link StructureUseCaseModel to SupplementaryRequirements--><path d="M608.387,296.6736 C544.768,318.3466 449.788,350.7019 384.592,372.9114 " fill="none" id="StructureUseCaseModel-SupplementaryRequirements" style="stroke: #A80036; stroke-width: 1.0;"/><polygon fill="#A80036" points="379.559,374.6262,389.3682,375.5093,384.2917,373.0134,386.7877,367.937,379.559,374.6262" style="stroke: #A80036; stroke-width: 1.0;"/><text fill="#000000" font-family="sans-serif" font-size="13" lengthAdjust="spacingAndGlyphs" textLength="10" x="517" y="341.1357">in</text><!--link StructureUseCaseModel to CaseUse--><path d="M647.58,296.6736 C621.47,317.8346 582.792,349.1817 555.472,371.3233 " fill="none" id="StructureUseCaseModel-CaseUse" style="stroke: #A80036; stroke-width: 1.0;"/><polygon fill="#A80036" points="551.527,374.521,561.0374,371.9613,555.4113,371.3726,555.9999,365.7465,551.527,374.521" style="stroke: #A80036; stroke-width: 1.0;"/><text fill="#000000" font-family="sans-serif" font-size="13" lengthAdjust="spacingAndGlyphs" textLength="10" x="610" y="341.1357">in</text><!--link StructureUseCaseModel to Glossary--><path d="M676,296.6736 C676,317.1626 676,347.2013 676,369.187 " fill="none" id="StructureUseCaseModel-Glossary" style="stroke: #A80036; stroke-width: 1.0;"/><polygon fill="#A80036" points="676,374.3103,680,365.3103,676,369.3103,672,365.3103,676,374.3103" style="stroke: #A80036; stroke-width: 1.0;"/><text fill="#000000" font-family="sans-serif" font-size="13" lengthAdjust="spacingAndGlyphs" textLength="10" x="677" y="341.1357">in</text><!--link StructureUseCaseModel to UseCaseModelX--><path d="M707.763,296.6736 C736.946,317.8346 780.174,349.1817 810.708,371.3233 " fill="none" id="StructureUseCaseModel-UseCaseModelX" style="stroke: #A80036; stroke-width: 1.0;"/><polygon fill="#A80036" points="815.117,374.521,810.1799,365.999,811.0695,371.5855,805.483,372.475,815.117,374.521" style="stroke: #A80036; stroke-width: 1.0;"/><text fill="#000000" font-family="sans-serif" font-size="13" lengthAdjust="spacingAndGlyphs" textLength="18" x="773" y="341.1357">out</text><!--link StructureUseCaseModel to SystemsAnalyst--><path d="M743.055,296.6736 C808.635,319.1996 907.813,353.2662 972.502,375.4861 " fill="none" id="StructureUseCaseModel-SystemsAnalyst" style="stroke: #A80036; stroke-width: 1.0;"/><polygon fill="#A80036" points="977.486,377.1982,970.2735,370.4915,972.7572,375.574,967.6747,378.0576,977.486,377.1982" style="stroke: #A80036; stroke-width: 1.0;"/><!--link Role to RequirementsRole--><path d="M944,208.2186 C944,222.0026 944,236.6976 944,248.4686 " fill="none" id="Role-RequirementsRole" style="stroke: #A80036; stroke-width: 1.0;"/><polygon fill="none" points="937,207.8576,944,187.8576,951,207.8576,937,207.8576" style="stroke: #A80036; stroke-width: 1.0;"/><!--link RequirementsRole to SystemsAnalyst--><path d="M973.421,312.8696 C988.576,333.0753 1006.54,357.0289 1019.5,374.3103 " fill="none" id="RequirementsRole-SystemsAnalyst" style="stroke: #A80036; stroke-width: 1.0;"/><polygon fill="none" points="967.675,316.8736,961.275,296.6736,978.875,308.4736,967.675,316.8736" style="stroke: #A80036; stroke-width: 1.0;"/><!--
@startuml
title Structuring Use Cases
class Activity #red
Activity <|- - RequirementsActivity
Activity - -> Role

class "Use Case Model (outline)" as UseCaseModel #green
class "Supplementary Requirements" as SupplementaryRequirements #green
class "Case of use (detailed)" as CaseUse #green
class Glossary #green
class "Use Case Model (structured)" as UseCaseModelX #green

class RequirementsActivity #red
RequirementsActivity - -> RequirementsRole

class "Structure the Use Case Model" as StructureUseCaseModel #red
RequirementsActivity <|- - StructureUseCaseModel

StructureUseCaseModel - -> UseCaseModel :in
StructureUseCaseModel - -> SupplementaryRequirements :in
StructureUseCaseModel - -> CaseUse :in
StructureUseCaseModel - -> Glossary :in
StructureUseCaseModel - -> UseCaseModelX :out


StructureUseCaseModel - -> SystemsAnalyst

class Role #blue
class RequirementsRole #blue
class SystemsAnalyst #blue

Role <|- - RequirementsRole
RequirementsRole <|- - SystemsAnalyst
@enduml

PlantUML version 1.2019.05(Sat Apr 20 18:45:36 CEST 2019)
(GPL source distribution)
Java Runtime: OpenJDK Runtime Environment
JVM: OpenJDK 64-Bit Server VM
Java Version: 1.8.0_222-b10
Operating System: Windows 10
OS Version: 10.0
Default Encoding: windows-1252
Language: es
Country: ES
--></g></svg>