<?xml version="1.0" encoding="UTF-8" standalone="no"?><svg xmlns="http://www.w3.org/2000/svg" xmlns:xlink="http://www.w3.org/1999/xlink" contentScriptType="application/ecmascript" contentStyleType="text/css" height="411px" preserveAspectRatio="none" style="width:1107px;height:411px;" version="1.1" viewBox="0 0 1107 411" width="1107px" zoomAndPan="magnify"><defs><filter height="300%" id="f19xp661pztf6j" width="300%" x="-1" y="-1"><feGaussianBlur result="blurOut" stdDeviation="2.0"/><feColorMatrix in="blurOut" result="blurOut2" type="matrix" values="0 0 0 0 0 0 0 0 0 0 0 0 0 0 0 0 0 0 .4 0"/><feOffset dx="4.0" dy="4.0" in="blurOut2" result="blurOut3"/><feBlend in="SourceGraphic" in2="blurOut3" mode="normal"/></filter></defs><g><!--class Activity--><rect fill="#FF0000" filter="url(#f19xp661pztf6j)" height="48" id="Activity" style="stroke: #A80036; stroke-width: 1.5;" width="67" x="841.5" y="8"/><rect fill="#FF0000" height="32" style="stroke: #A80036; stroke-width: 1.5;" width="67" x="841.5" y="8"/><ellipse cx="856.5" cy="24" fill="#ADD1B2" rx="11" ry="11" style="stroke: #A80036; stroke-width: 1.0;"/><path d="M859.2656,19.875 Q859.4219,19.6563 859.6094,19.5469 Q859.7969,19.4375 860.0156,19.4375 Q860.3906,19.4375 860.625,19.6953 Q860.8594,19.9531 860.8594,20.5625 L860.8594,22.0156 Q860.8594,22.625 860.625,22.8906 Q860.3906,23.1563 860.0156,23.1563 Q859.6719,23.1563 859.4688,22.9531 Q859.2656,22.7656 859.1563,22.25 Q859.1094,21.8906 858.9219,21.7031 Q858.5938,21.3281 857.9844,21.1094 Q857.375,20.8906 856.75,20.8906 Q855.9844,20.8906 855.3516,21.2188 Q854.7188,21.5469 854.2266,22.2969 Q853.7344,23.0469 853.7344,24.0781 L853.7344,25.1719 Q853.7344,26.4063 854.625,27.2266 Q855.5156,28.0469 857.1094,28.0469 Q858.0469,28.0469 858.7031,27.7969 Q859.0938,27.6406 859.5156,27.2031 Q859.7813,26.9375 859.9297,26.8594 Q860.0781,26.7813 860.2813,26.7813 Q860.6094,26.7813 860.8672,27.0391 Q861.125,27.2969 861.125,27.6406 Q861.125,27.9844 860.7813,28.3906 Q860.2813,28.9688 859.4844,29.2969 Q858.4063,29.75 857.1094,29.75 Q855.5938,29.75 854.3906,29.125 Q853.4063,28.625 852.7188,27.5547 Q852.0313,26.4844 852.0313,25.2031 L852.0313,24.0469 Q852.0313,22.7188 852.6484,21.5703 Q853.2656,20.4219 854.3594,19.8047 Q855.4531,19.1875 856.6875,19.1875 Q857.4219,19.1875 858.0703,19.3516 Q858.7188,19.5156 859.2656,19.875 Z "/><text fill="#000000" font-family="sans-serif" font-size="12" lengthAdjust="spacingAndGlyphs" textLength="35" x="870.5" y="28.9102">Activity</text><line style="stroke: #A80036; stroke-width: 1.5;" x1="842.5" x2="907.5" y1="40" y2="40"/><line style="stroke: #A80036; stroke-width: 1.5;" x1="842.5" x2="907.5" y1="48" y2="48"/><!--class RequirementsActivity--><rect fill="#FF0000" filter="url(#f19xp661pztf6j)" height="48" id="RequirementsActivity" style="stroke: #A80036; stroke-width: 1.5;" width="146" x="734" y="117"/><rect fill="#FF0000" height="32" style="stroke: #A80036; stroke-width: 1.5;" width="146" x="734" y="117"/><ellipse cx="749" cy="133" fill="#ADD1B2" rx="11" ry="11" style="stroke: #A80036; stroke-width: 1.0;"/><path d="M751.7656,128.875 Q751.9219,128.6563 752.1094,128.5469 Q752.2969,128.4375 752.5156,128.4375 Q752.8906,128.4375 753.125,128.6953 Q753.3594,128.9531 753.3594,129.5625 L753.3594,131.0156 Q753.3594,131.625 753.125,131.8906 Q752.8906,132.1563 752.5156,132.1563 Q752.1719,132.1563 751.9688,131.9531 Q751.7656,131.7656 751.6563,131.25 Q751.6094,130.8906 751.4219,130.7031 Q751.0938,130.3281 750.4844,130.1094 Q749.875,129.8906 749.25,129.8906 Q748.4844,129.8906 747.8516,130.2188 Q747.2188,130.5469 746.7266,131.2969 Q746.2344,132.0469 746.2344,133.0781 L746.2344,134.1719 Q746.2344,135.4063 747.125,136.2266 Q748.0156,137.0469 749.6094,137.0469 Q750.5469,137.0469 751.2031,136.7969 Q751.5938,136.6406 752.0156,136.2031 Q752.2813,135.9375 752.4297,135.8594 Q752.5781,135.7813 752.7813,135.7813 Q753.1094,135.7813 753.3672,136.0391 Q753.625,136.2969 753.625,136.6406 Q753.625,136.9844 753.2813,137.3906 Q752.7813,137.9688 751.9844,138.2969 Q750.9063,138.75 749.6094,138.75 Q748.0938,138.75 746.8906,138.125 Q745.9063,137.625 745.2188,136.5547 Q744.5313,135.4844 744.5313,134.2031 L744.5313,133.0469 Q744.5313,131.7188 745.1484,130.5703 Q745.7656,129.4219 746.8594,128.8047 Q747.9531,128.1875 749.1875,128.1875 Q749.9219,128.1875 750.5703,128.3516 Q751.2188,128.5156 751.7656,128.875 Z "/><text fill="#000000" font-family="sans-serif" font-size="12" lengthAdjust="spacingAndGlyphs" textLength="114" x="763" y="137.9102">RequirementsActivity</text><line style="stroke: #A80036; stroke-width: 1.5;" x1="735" x2="879" y1="149" y2="149"/><line style="stroke: #A80036; stroke-width: 1.5;" x1="735" x2="879" y1="157" y2="157"/><!--class Role--><rect fill="#0000FF" filter="url(#f19xp661pztf6j)" height="48" id="Role" style="stroke: #A80036; stroke-width: 1.5;" width="58" x="915" y="117"/><rect fill="#0000FF" height="32" style="stroke: #A80036; stroke-width: 1.5;" width="58" x="915" y="117"/><ellipse cx="930" cy="133" fill="#ADD1B2" rx="11" ry="11" style="stroke: #A80036; stroke-width: 1.0;"/><path d="M932.7656,128.875 Q932.9219,128.6563 933.1094,128.5469 Q933.2969,128.4375 933.5156,128.4375 Q933.8906,128.4375 934.125,128.6953 Q934.3594,128.9531 934.3594,129.5625 L934.3594,131.0156 Q934.3594,131.625 934.125,131.8906 Q933.8906,132.1563 933.5156,132.1563 Q933.1719,132.1563 932.9688,131.9531 Q932.7656,131.7656 932.6563,131.25 Q932.6094,130.8906 932.4219,130.7031 Q932.0938,130.3281 931.4844,130.1094 Q930.875,129.8906 930.25,129.8906 Q929.4844,129.8906 928.8516,130.2188 Q928.2188,130.5469 927.7266,131.2969 Q927.2344,132.0469 927.2344,133.0781 L927.2344,134.1719 Q927.2344,135.4063 928.125,136.2266 Q929.0156,137.0469 930.6094,137.0469 Q931.5469,137.0469 932.2031,136.7969 Q932.5938,136.6406 933.0156,136.2031 Q933.2813,135.9375 933.4297,135.8594 Q933.5781,135.7813 933.7813,135.7813 Q934.1094,135.7813 934.3672,136.0391 Q934.625,136.2969 934.625,136.6406 Q934.625,136.9844 934.2813,137.3906 Q933.7813,137.9688 932.9844,138.2969 Q931.9063,138.75 930.6094,138.75 Q929.0938,138.75 927.8906,138.125 Q926.9063,137.625 926.2188,136.5547 Q925.5313,135.4844 925.5313,134.2031 L925.5313,133.0469 Q925.5313,131.7188 926.1484,130.5703 Q926.7656,129.4219 927.8594,128.8047 Q928.9531,128.1875 930.1875,128.1875 Q930.9219,128.1875 931.5703,128.3516 Q932.2188,128.5156 932.7656,128.875 Z "/><text fill="#000000" font-family="sans-serif" font-size="12" lengthAdjust="spacingAndGlyphs" textLength="26" x="944" y="137.9102">Role</text><line style="stroke: #A80036; stroke-width: 1.5;" x1="916" x2="972" y1="149" y2="149"/><line style="stroke: #A80036; stroke-width: 1.5;" x1="916" x2="972" y1="157" y2="157"/><!--class UseCaseModel--><rect fill="#008000" filter="url(#f19xp661pztf6j)" height="48" id="UseCaseModel" style="stroke: #A80036; stroke-width: 1.5;" width="172" x="6" y="352"/><rect fill="#008000" height="32" style="stroke: #A80036; stroke-width: 1.5;" width="172" x="6" y="352"/><ellipse cx="21" cy="368" fill="#ADD1B2" rx="11" ry="11" style="stroke: #A80036; stroke-width: 1.0;"/><path d="M23.7656,363.875 Q23.9219,363.6563 24.1094,363.5469 Q24.2969,363.4375 24.5156,363.4375 Q24.8906,363.4375 25.125,363.6953 Q25.3594,363.9531 25.3594,364.5625 L25.3594,366.0156 Q25.3594,366.625 25.125,366.8906 Q24.8906,367.1563 24.5156,367.1563 Q24.1719,367.1563 23.9688,366.9531 Q23.7656,366.7656 23.6563,366.25 Q23.6094,365.8906 23.4219,365.7031 Q23.0938,365.3281 22.4844,365.1094 Q21.875,364.8906 21.25,364.8906 Q20.4844,364.8906 19.8516,365.2188 Q19.2188,365.5469 18.7266,366.2969 Q18.2344,367.0469 18.2344,368.0781 L18.2344,369.1719 Q18.2344,370.4063 19.125,371.2266 Q20.0156,372.0469 21.6094,372.0469 Q22.5469,372.0469 23.2031,371.7969 Q23.5938,371.6406 24.0156,371.2031 Q24.2813,370.9375 24.4297,370.8594 Q24.5781,370.7813 24.7813,370.7813 Q25.1094,370.7813 25.3672,371.0391 Q25.625,371.2969 25.625,371.6406 Q25.625,371.9844 25.2813,372.3906 Q24.7813,372.9688 23.9844,373.2969 Q22.9063,373.75 21.6094,373.75 Q20.0938,373.75 18.8906,373.125 Q17.9063,372.625 17.2188,371.5547 Q16.5313,370.4844 16.5313,369.2031 L16.5313,368.0469 Q16.5313,366.7188 17.1484,365.5703 Q17.7656,364.4219 18.8594,363.8047 Q19.9531,363.1875 21.1875,363.1875 Q21.9219,363.1875 22.5703,363.3516 Q23.2188,363.5156 23.7656,363.875 Z "/><text fill="#000000" font-family="sans-serif" font-size="12" lengthAdjust="spacingAndGlyphs" textLength="140" x="35" y="372.9102">Use Case Model (outline)</text><line style="stroke: #A80036; stroke-width: 1.5;" x1="7" x2="177" y1="384" y2="384"/><line style="stroke: #A80036; stroke-width: 1.5;" x1="7" x2="177" y1="392" y2="392"/><!--class SupplementaryRequirements--><rect fill="#008000" filter="url(#f19xp661pztf6j)" height="48" id="SupplementaryRequirements" style="stroke: #A80036; stroke-width: 1.5;" width="197" x="213.5" y="352"/><rect fill="#008000" height="32" style="stroke: #A80036; stroke-width: 1.5;" width="197" x="213.5" y="352"/><ellipse cx="228.5" cy="368" fill="#ADD1B2" rx="11" ry="11" style="stroke: #A80036; stroke-width: 1.0;"/><path d="M231.2656,363.875 Q231.4219,363.6563 231.6094,363.5469 Q231.7969,363.4375 232.0156,363.4375 Q232.3906,363.4375 232.625,363.6953 Q232.8594,363.9531 232.8594,364.5625 L232.8594,366.0156 Q232.8594,366.625 232.625,366.8906 Q232.3906,367.1563 232.0156,367.1563 Q231.6719,367.1563 231.4688,366.9531 Q231.2656,366.7656 231.1563,366.25 Q231.1094,365.8906 230.9219,365.7031 Q230.5938,365.3281 229.9844,365.1094 Q229.375,364.8906 228.75,364.8906 Q227.9844,364.8906 227.3516,365.2188 Q226.7188,365.5469 226.2266,366.2969 Q225.7344,367.0469 225.7344,368.0781 L225.7344,369.1719 Q225.7344,370.4063 226.625,371.2266 Q227.5156,372.0469 229.1094,372.0469 Q230.0469,372.0469 230.7031,371.7969 Q231.0938,371.6406 231.5156,371.2031 Q231.7813,370.9375 231.9297,370.8594 Q232.0781,370.7813 232.2813,370.7813 Q232.6094,370.7813 232.8672,371.0391 Q233.125,371.2969 233.125,371.6406 Q233.125,371.9844 232.7813,372.3906 Q232.2813,372.9688 231.4844,373.2969 Q230.4063,373.75 229.1094,373.75 Q227.5938,373.75 226.3906,373.125 Q225.4063,372.625 224.7188,371.5547 Q224.0313,370.4844 224.0313,369.2031 L224.0313,368.0469 Q224.0313,366.7188 224.6484,365.5703 Q225.2656,364.4219 226.3594,363.8047 Q227.4531,363.1875 228.6875,363.1875 Q229.4219,363.1875 230.0703,363.3516 Q230.7188,363.5156 231.2656,363.875 Z "/><text fill="#000000" font-family="sans-serif" font-size="12" lengthAdjust="spacingAndGlyphs" textLength="165" x="242.5" y="372.9102">Supplementary Requirements</text><line style="stroke: #A80036; stroke-width: 1.5;" x1="214.5" x2="409.5" y1="384" y2="384"/><line style="stroke: #A80036; stroke-width: 1.5;" x1="214.5" x2="409.5" y1="392" y2="392"/><!--class CaseUse--><rect fill="#008000" filter="url(#f19xp661pztf6j)" height="48" id="CaseUse" style="stroke: #A80036; stroke-width: 1.5;" width="154" x="446" y="352"/><rect fill="#008000" height="32" style="stroke: #A80036; stroke-width: 1.5;" width="154" x="446" y="352"/><ellipse cx="461" cy="368" fill="#ADD1B2" rx="11" ry="11" style="stroke: #A80036; stroke-width: 1.0;"/><path d="M463.7656,363.875 Q463.9219,363.6563 464.1094,363.5469 Q464.2969,363.4375 464.5156,363.4375 Q464.8906,363.4375 465.125,363.6953 Q465.3594,363.9531 465.3594,364.5625 L465.3594,366.0156 Q465.3594,366.625 465.125,366.8906 Q464.8906,367.1563 464.5156,367.1563 Q464.1719,367.1563 463.9688,366.9531 Q463.7656,366.7656 463.6563,366.25 Q463.6094,365.8906 463.4219,365.7031 Q463.0938,365.3281 462.4844,365.1094 Q461.875,364.8906 461.25,364.8906 Q460.4844,364.8906 459.8516,365.2188 Q459.2188,365.5469 458.7266,366.2969 Q458.2344,367.0469 458.2344,368.0781 L458.2344,369.1719 Q458.2344,370.4063 459.125,371.2266 Q460.0156,372.0469 461.6094,372.0469 Q462.5469,372.0469 463.2031,371.7969 Q463.5938,371.6406 464.0156,371.2031 Q464.2813,370.9375 464.4297,370.8594 Q464.5781,370.7813 464.7813,370.7813 Q465.1094,370.7813 465.3672,371.0391 Q465.625,371.2969 465.625,371.6406 Q465.625,371.9844 465.2813,372.3906 Q464.7813,372.9688 463.9844,373.2969 Q462.9063,373.75 461.6094,373.75 Q460.0938,373.75 458.8906,373.125 Q457.9063,372.625 457.2188,371.5547 Q456.5313,370.4844 456.5313,369.2031 L456.5313,368.0469 Q456.5313,366.7188 457.1484,365.5703 Q457.7656,364.4219 458.8594,363.8047 Q459.9531,363.1875 461.1875,363.1875 Q461.9219,363.1875 462.5703,363.3516 Q463.2188,363.5156 463.7656,363.875 Z "/><text fill="#000000" font-family="sans-serif" font-size="12" lengthAdjust="spacingAndGlyphs" textLength="122" x="475" y="372.9102">Case of use (detailed)</text><line style="stroke: #A80036; stroke-width: 1.5;" x1="447" x2="599" y1="384" y2="384"/><line style="stroke: #A80036; stroke-width: 1.5;" x1="447" x2="599" y1="392" y2="392"/><!--class Glossary--><rect fill="#008000" filter="url(#f19xp661pztf6j)" height="48" id="Glossary" style="stroke: #A80036; stroke-width: 1.5;" width="81" x="635.5" y="352"/><rect fill="#008000" height="32" style="stroke: #A80036; stroke-width: 1.5;" width="81" x="635.5" y="352"/><ellipse cx="650.5" cy="368" fill="#ADD1B2" rx="11" ry="11" style="stroke: #A80036; stroke-width: 1.0;"/><path d="M653.2656,363.875 Q653.4219,363.6563 653.6094,363.5469 Q653.7969,363.4375 654.0156,363.4375 Q654.3906,363.4375 654.625,363.6953 Q654.8594,363.9531 654.8594,364.5625 L654.8594,366.0156 Q654.8594,366.625 654.625,366.8906 Q654.3906,367.1563 654.0156,367.1563 Q653.6719,367.1563 653.4688,366.9531 Q653.2656,366.7656 653.1563,366.25 Q653.1094,365.8906 652.9219,365.7031 Q652.5938,365.3281 651.9844,365.1094 Q651.375,364.8906 650.75,364.8906 Q649.9844,364.8906 649.3516,365.2188 Q648.7188,365.5469 648.2266,366.2969 Q647.7344,367.0469 647.7344,368.0781 L647.7344,369.1719 Q647.7344,370.4063 648.625,371.2266 Q649.5156,372.0469 651.1094,372.0469 Q652.0469,372.0469 652.7031,371.7969 Q653.0938,371.6406 653.5156,371.2031 Q653.7813,370.9375 653.9297,370.8594 Q654.0781,370.7813 654.2813,370.7813 Q654.6094,370.7813 654.8672,371.0391 Q655.125,371.2969 655.125,371.6406 Q655.125,371.9844 654.7813,372.3906 Q654.2813,372.9688 653.4844,373.2969 Q652.4063,373.75 651.1094,373.75 Q649.5938,373.75 648.3906,373.125 Q647.4063,372.625 646.7188,371.5547 Q646.0313,370.4844 646.0313,369.2031 L646.0313,368.0469 Q646.0313,366.7188 646.6484,365.5703 Q647.2656,364.4219 648.3594,363.8047 Q649.4531,363.1875 650.6875,363.1875 Q651.4219,363.1875 652.0703,363.3516 Q652.7188,363.5156 653.2656,363.875 Z "/><text fill="#000000" font-family="sans-serif" font-size="12" lengthAdjust="spacingAndGlyphs" textLength="49" x="664.5" y="372.9102">Glossary</text><line style="stroke: #A80036; stroke-width: 1.5;" x1="636.5" x2="715.5" y1="384" y2="384"/><line style="stroke: #A80036; stroke-width: 1.5;" x1="636.5" x2="715.5" y1="392" y2="392"/><!--class UseCaseModelX--><rect fill="#008000" filter="url(#f19xp661pztf6j)" height="48" id="UseCaseModelX" style="stroke: #A80036; stroke-width: 1.5;" width="190" x="752" y="352"/><rect fill="#008000" height="32" style="stroke: #A80036; stroke-width: 1.5;" width="190" x="752" y="352"/><ellipse cx="767" cy="368" fill="#ADD1B2" rx="11" ry="11" style="stroke: #A80036; stroke-width: 1.0;"/><path d="M769.7656,363.875 Q769.9219,363.6563 770.1094,363.5469 Q770.2969,363.4375 770.5156,363.4375 Q770.8906,363.4375 771.125,363.6953 Q771.3594,363.9531 771.3594,364.5625 L771.3594,366.0156 Q771.3594,366.625 771.125,366.8906 Q770.8906,367.1563 770.5156,367.1563 Q770.1719,367.1563 769.9688,366.9531 Q769.7656,366.7656 769.6563,366.25 Q769.6094,365.8906 769.4219,365.7031 Q769.0938,365.3281 768.4844,365.1094 Q767.875,364.8906 767.25,364.8906 Q766.4844,364.8906 765.8516,365.2188 Q765.2188,365.5469 764.7266,366.2969 Q764.2344,367.0469 764.2344,368.0781 L764.2344,369.1719 Q764.2344,370.4063 765.125,371.2266 Q766.0156,372.0469 767.6094,372.0469 Q768.5469,372.0469 769.2031,371.7969 Q769.5938,371.6406 770.0156,371.2031 Q770.2813,370.9375 770.4297,370.8594 Q770.5781,370.7813 770.7813,370.7813 Q771.1094,370.7813 771.3672,371.0391 Q771.625,371.2969 771.625,371.6406 Q771.625,371.9844 771.2813,372.3906 Q770.7813,372.9688 769.9844,373.2969 Q768.9063,373.75 767.6094,373.75 Q766.0938,373.75 764.8906,373.125 Q763.9063,372.625 763.2188,371.5547 Q762.5313,370.4844 762.5313,369.2031 L762.5313,368.0469 Q762.5313,366.7188 763.1484,365.5703 Q763.7656,364.4219 764.8594,363.8047 Q765.9531,363.1875 767.1875,363.1875 Q767.9219,363.1875 768.5703,363.3516 Q769.2188,363.5156 769.7656,363.875 Z "/><text fill="#000000" font-family="sans-serif" font-size="12" lengthAdjust="spacingAndGlyphs" textLength="158" x="781" y="372.9102">Use Case Model (structured)</text><line style="stroke: #A80036; stroke-width: 1.5;" x1="753" x2="941" y1="384" y2="384"/><line style="stroke: #A80036; stroke-width: 1.5;" x1="753" x2="941" y1="392" y2="392"/><!--class RequirementsRole--><rect fill="#0000FF" filter="url(#f19xp661pztf6j)" height="48" id="RequirementsRole" style="stroke: #A80036; stroke-width: 1.5;" width="137" x="875.5" y="226"/><rect fill="#0000FF" height="32" style="stroke: #A80036; stroke-width: 1.5;" width="137" x="875.5" y="226"/><ellipse cx="890.5" cy="242" fill="#ADD1B2" rx="11" ry="11" style="stroke: #A80036; stroke-width: 1.0;"/><path d="M893.2656,237.875 Q893.4219,237.6563 893.6094,237.5469 Q893.7969,237.4375 894.0156,237.4375 Q894.3906,237.4375 894.625,237.6953 Q894.8594,237.9531 894.8594,238.5625 L894.8594,240.0156 Q894.8594,240.625 894.625,240.8906 Q894.3906,241.1563 894.0156,241.1563 Q893.6719,241.1563 893.4688,240.9531 Q893.2656,240.7656 893.1563,240.25 Q893.1094,239.8906 892.9219,239.7031 Q892.5938,239.3281 891.9844,239.1094 Q891.375,238.8906 890.75,238.8906 Q889.9844,238.8906 889.3516,239.2188 Q888.7188,239.5469 888.2266,240.2969 Q887.7344,241.0469 887.7344,242.0781 L887.7344,243.1719 Q887.7344,244.4063 888.625,245.2266 Q889.5156,246.0469 891.1094,246.0469 Q892.0469,246.0469 892.7031,245.7969 Q893.0938,245.6406 893.5156,245.2031 Q893.7813,244.9375 893.9297,244.8594 Q894.0781,244.7813 894.2813,244.7813 Q894.6094,244.7813 894.8672,245.0391 Q895.125,245.2969 895.125,245.6406 Q895.125,245.9844 894.7813,246.3906 Q894.2813,246.9688 893.4844,247.2969 Q892.4063,247.75 891.1094,247.75 Q889.5938,247.75 888.3906,247.125 Q887.4063,246.625 886.7188,245.5547 Q886.0313,244.4844 886.0313,243.2031 L886.0313,242.0469 Q886.0313,240.7188 886.6484,239.5703 Q887.2656,238.4219 888.3594,237.8047 Q889.4531,237.1875 890.6875,237.1875 Q891.4219,237.1875 892.0703,237.3516 Q892.7188,237.5156 893.2656,237.875 Z "/><text fill="#000000" font-family="sans-serif" font-size="12" lengthAdjust="spacingAndGlyphs" textLength="105" x="904.5" y="246.9102">RequirementsRole</text><line style="stroke: #A80036; stroke-width: 1.5;" x1="876.5" x2="1011.5" y1="258" y2="258"/><line style="stroke: #A80036; stroke-width: 1.5;" x1="876.5" x2="1011.5" y1="266" y2="266"/><!--class StructureUseCaseModel--><rect fill="#FF0000" filter="url(#f19xp661pztf6j)" height="48" id="StructureUseCaseModel" style="stroke: #A80036; stroke-width: 1.5;" width="196" x="578" y="226"/><rect fill="#FF0000" height="32" style="stroke: #A80036; stroke-width: 1.5;" width="196" x="578" y="226"/><ellipse cx="593" cy="242" fill="#ADD1B2" rx="11" ry="11" style="stroke: #A80036; stroke-width: 1.0;"/><path d="M595.7656,237.875 Q595.9219,237.6563 596.1094,237.5469 Q596.2969,237.4375 596.5156,237.4375 Q596.8906,237.4375 597.125,237.6953 Q597.3594,237.9531 597.3594,238.5625 L597.3594,240.0156 Q597.3594,240.625 597.125,240.8906 Q596.8906,241.1563 596.5156,241.1563 Q596.1719,241.1563 595.9688,240.9531 Q595.7656,240.7656 595.6563,240.25 Q595.6094,239.8906 595.4219,239.7031 Q595.0938,239.3281 594.4844,239.1094 Q593.875,238.8906 593.25,238.8906 Q592.4844,238.8906 591.8516,239.2188 Q591.2188,239.5469 590.7266,240.2969 Q590.2344,241.0469 590.2344,242.0781 L590.2344,243.1719 Q590.2344,244.4063 591.125,245.2266 Q592.0156,246.0469 593.6094,246.0469 Q594.5469,246.0469 595.2031,245.7969 Q595.5938,245.6406 596.0156,245.2031 Q596.2813,244.9375 596.4297,244.8594 Q596.5781,244.7813 596.7813,244.7813 Q597.1094,244.7813 597.3672,245.0391 Q597.625,245.2969 597.625,245.6406 Q597.625,245.9844 597.2813,246.3906 Q596.7813,246.9688 595.9844,247.2969 Q594.9063,247.75 593.6094,247.75 Q592.0938,247.75 590.8906,247.125 Q589.9063,246.625 589.2188,245.5547 Q588.5313,244.4844 588.5313,243.2031 L588.5313,242.0469 Q588.5313,240.7188 589.1484,239.5703 Q589.7656,238.4219 590.8594,237.8047 Q591.9531,237.1875 593.1875,237.1875 Q593.9219,237.1875 594.5703,237.3516 Q595.2188,237.5156 595.7656,237.875 Z "/><text fill="#000000" font-family="sans-serif" font-size="12" lengthAdjust="spacingAndGlyphs" textLength="164" x="607" y="246.9102">Structure the Use Case Model</text><line style="stroke: #A80036; stroke-width: 1.5;" x1="579" x2="773" y1="258" y2="258"/><line style="stroke: #A80036; stroke-width: 1.5;" x1="579" x2="773" y1="266" y2="266"/><!--class SystemsAnalyst--><rect fill="#0000FF" filter="url(#f19xp661pztf6j)" height="48" id="SystemsAnalyst" style="stroke: #A80036; stroke-width: 1.5;" width="119" x="977.5" y="352"/><rect fill="#0000FF" height="32" style="stroke: #A80036; stroke-width: 1.5;" width="119" x="977.5" y="352"/><ellipse cx="992.5" cy="368" fill="#ADD1B2" rx="11" ry="11" style="stroke: #A80036; stroke-width: 1.0;"/><path d="M995.2656,363.875 Q995.4219,363.6563 995.6094,363.5469 Q995.7969,363.4375 996.0156,363.4375 Q996.3906,363.4375 996.625,363.6953 Q996.8594,363.9531 996.8594,364.5625 L996.8594,366.0156 Q996.8594,366.625 996.625,366.8906 Q996.3906,367.1563 996.0156,367.1563 Q995.6719,367.1563 995.4688,366.9531 Q995.2656,366.7656 995.1563,366.25 Q995.1094,365.8906 994.9219,365.7031 Q994.5938,365.3281 993.9844,365.1094 Q993.375,364.8906 992.75,364.8906 Q991.9844,364.8906 991.3516,365.2188 Q990.7188,365.5469 990.2266,366.2969 Q989.7344,367.0469 989.7344,368.0781 L989.7344,369.1719 Q989.7344,370.4063 990.625,371.2266 Q991.5156,372.0469 993.1094,372.0469 Q994.0469,372.0469 994.7031,371.7969 Q995.0938,371.6406 995.5156,371.2031 Q995.7813,370.9375 995.9297,370.8594 Q996.0781,370.7813 996.2813,370.7813 Q996.6094,370.7813 996.8672,371.0391 Q997.125,371.2969 997.125,371.6406 Q997.125,371.9844 996.7813,372.3906 Q996.2813,372.9688 995.4844,373.2969 Q994.4063,373.75 993.1094,373.75 Q991.5938,373.75 990.3906,373.125 Q989.4063,372.625 988.7188,371.5547 Q988.0313,370.4844 988.0313,369.2031 L988.0313,368.0469 Q988.0313,366.7188 988.6484,365.5703 Q989.2656,364.4219 990.3594,363.8047 Q991.4531,363.1875 992.6875,363.1875 Q993.4219,363.1875 994.0703,363.3516 Q994.7188,363.5156 995.2656,363.875 Z "/><text fill="#000000" font-family="sans-serif" font-size="12" lengthAdjust="spacingAndGlyphs" textLength="87" x="1006.5" y="372.9102">SystemsAnalyst</text><line style="stroke: #A80036; stroke-width: 1.5;" x1="978.5" x2="1095.5" y1="384" y2="384"/><line style="stroke: #A80036; stroke-width: 1.5;" x1="978.5" x2="1095.5" y1="392" y2="392"/><!--link Activity to RequirementsActivity--><path d="M849.482,73.153 C840.115,87.893 829.83,104.076 821.726,116.828 " fill="none" id="Activity-RequirementsActivity" style="stroke: #A80036; stroke-width: 1.0;"/><polygon fill="none" points="843.61,69.343,860.245,56.217,855.426,76.852,843.61,69.343" style="stroke: #A80036; stroke-width: 1.0;"/><!--link Activity to Role--><path d="M889.972,56.217 C900.641,72.763 915.026,95.07 926.27,112.506 " fill="none" id="Activity-Role" style="stroke: #A80036; stroke-width: 1.0;"/><polygon fill="#A80036" points="929.057,116.828,927.54,107.0967,926.3468,112.6262,920.8172,111.433,929.057,116.828" style="stroke: #A80036; stroke-width: 1.0;"/><!--link RequirementsActivity to RequirementsRole--><path d="M836.727,165.217 C858.36,182.113 887.686,205.017 910.208,222.608 " fill="none" id="RequirementsActivity-RequirementsRole" style="stroke: #A80036; stroke-width: 1.0;"/><polygon fill="#A80036" points="914.331,225.828,909.702,217.1348,910.3911,222.7495,904.7764,223.4386,914.331,225.828" style="stroke: #A80036; stroke-width: 1.0;"/><!--link RequirementsActivity to StructureUseCaseModel--><path d="M762.847,178.064 C743.533,193.839 721.439,211.885 704.37,225.828 " fill="none" id="RequirementsActivity-StructureUseCaseModel" style="stroke: #A80036; stroke-width: 1.0;"/><polygon fill="none" points="758.657,172.448,778.575,165.217,767.513,183.291,758.657,172.448" style="stroke: #A80036; stroke-width: 1.0;"/><!--link StructureUseCaseModel to UseCaseModel--><path d="M577.573,271.403 C480.501,291.597 327.939,323.5303 196,352 C191.843,352.8971 187.593,353.8186 183.301,354.753 " fill="none" id="StructureUseCaseModel-UseCaseModel" style="stroke: #A80036; stroke-width: 1.0;"/><polygon fill="#A80036" points="178.246,355.8551,187.8917,357.845,183.1311,354.7894,186.1867,350.0288,178.246,355.8551" style="stroke: #A80036; stroke-width: 1.0;"/><text fill="#000000" font-family="sans-serif" font-size="13" lengthAdjust="spacingAndGlyphs" textLength="10" x="421" y="318.4951">in</text><!--link StructureUseCaseModel to SupplementaryRequirements--><path d="M608.387,274.033 C544.768,295.706 449.788,328.0613 384.592,350.2708 " fill="none" id="StructureUseCaseModel-SupplementaryRequirements" style="stroke: #A80036; stroke-width: 1.0;"/><polygon fill="#A80036" points="379.559,351.9856,389.3682,352.8687,384.2917,350.3728,386.7877,345.2963,379.559,351.9856" style="stroke: #A80036; stroke-width: 1.0;"/><text fill="#000000" font-family="sans-serif" font-size="13" lengthAdjust="spacingAndGlyphs" textLength="10" x="517" y="318.4951">in</text><!--link StructureUseCaseModel to CaseUse--><path d="M647.58,274.033 C621.47,295.194 582.792,326.5411 555.472,348.6827 " fill="none" id="StructureUseCaseModel-CaseUse" style="stroke: #A80036; stroke-width: 1.0;"/><polygon fill="#A80036" points="551.527,351.8804,561.0374,349.3206,555.4113,348.732,555.9999,343.1058,551.527,351.8804" style="stroke: #A80036; stroke-width: 1.0;"/><text fill="#000000" font-family="sans-serif" font-size="13" lengthAdjust="spacingAndGlyphs" textLength="10" x="610" y="318.4951">in</text><!--link StructureUseCaseModel to Glossary--><path d="M676,274.033 C676,294.522 676,324.5607 676,346.5464 " fill="none" id="StructureUseCaseModel-Glossary" style="stroke: #A80036; stroke-width: 1.0;"/><polygon fill="#A80036" points="676,351.6697,680,342.6697,676,346.6697,672,342.6697,676,351.6697" style="stroke: #A80036; stroke-width: 1.0;"/><text fill="#000000" font-family="sans-serif" font-size="13" lengthAdjust="spacingAndGlyphs" textLength="10" x="677" y="318.4951">in</text><!--link StructureUseCaseModel to UseCaseModelX--><path d="M707.763,274.033 C736.946,295.194 780.174,326.5411 810.708,348.6827 " fill="none" id="StructureUseCaseModel-UseCaseModelX" style="stroke: #A80036; stroke-width: 1.0;"/><polygon fill="#A80036" points="815.117,351.8804,810.1799,343.3584,811.0695,348.9448,805.483,349.8344,815.117,351.8804" style="stroke: #A80036; stroke-width: 1.0;"/><text fill="#000000" font-family="sans-serif" font-size="13" lengthAdjust="spacingAndGlyphs" textLength="18" x="773" y="318.4951">out</text><!--link StructureUseCaseModel to SystemsAnalyst--><path d="M743.055,274.033 C808.635,296.559 907.813,330.6256 972.502,352.8455 " fill="none" id="StructureUseCaseModel-SystemsAnalyst" style="stroke: #A80036; stroke-width: 1.0;"/><polygon fill="#A80036" points="977.486,354.5576,970.2735,347.8509,972.7572,352.9333,967.6747,355.417,977.486,354.5576" style="stroke: #A80036; stroke-width: 1.0;"/><!--link Role to RequirementsRole--><path d="M944,185.578 C944,199.362 944,214.057 944,225.828 " fill="none" id="Role-RequirementsRole" style="stroke: #A80036; stroke-width: 1.0;"/><polygon fill="none" points="937,185.217,944,165.217,951,185.217,937,185.217" style="stroke: #A80036; stroke-width: 1.0;"/><!--link RequirementsRole to SystemsAnalyst--><path d="M973.421,290.229 C988.576,310.4347 1006.54,334.3883 1019.5,351.6697 " fill="none" id="RequirementsRole-SystemsAnalyst" style="stroke: #A80036; stroke-width: 1.0;"/><polygon fill="none" points="967.675,294.233,961.275,274.033,978.875,285.833,967.675,294.233" style="stroke: #A80036; stroke-width: 1.0;"/><!--
@startuml

class Activity #red
Activity <|- - RequirementsActivity
Activity - -> Role

class "Use Case Model (outline)" as UseCaseModel #green
class "Supplementary Requirements" as SupplementaryRequirements #green
class "Case of use (detailed)" as CaseUse #green
class Glossary #green
class "Use Case Model (structured)" as UseCaseModelX #green

class RequirementsActivity #red
RequirementsActivity - -> RequirementsRole

class "Structure the Use Case Model" as StructureUseCaseModel #red
RequirementsActivity <|- - StructureUseCaseModel

StructureUseCaseModel - -> UseCaseModel :in
StructureUseCaseModel - -> SupplementaryRequirements :in
StructureUseCaseModel - -> CaseUse :in
StructureUseCaseModel - -> Glossary :in
StructureUseCaseModel - -> UseCaseModelX :out


StructureUseCaseModel - -> SystemsAnalyst

class Role #blue
class RequirementsRole #blue
class SystemsAnalyst #blue

Role <|- - RequirementsRole
RequirementsRole <|- - SystemsAnalyst
@enduml

PlantUML version 1.2019.05(Sat Apr 20 18:45:36 CEST 2019)
(GPL source distribution)
Java Runtime: OpenJDK Runtime Environment
JVM: OpenJDK 64-Bit Server VM
Java Version: 1.8.0_222-b10
Operating System: Windows 10
OS Version: 10.0
Default Encoding: windows-1252
Language: es
Country: ES
--></g></svg>