<?xml version="1.0" encoding="UTF-8" standalone="no"?><svg xmlns="http://www.w3.org/2000/svg" xmlns:xlink="http://www.w3.org/1999/xlink" contentScriptType="application/ecmascript" contentStyleType="text/css" height="411px" preserveAspectRatio="none" style="width:1517px;height:411px;" version="1.1" viewBox="0 0 1517 411" width="1517px" zoomAndPan="magnify"><defs><filter height="300%" id="f11k8te75gvoih" width="300%" x="-1" y="-1"><feGaussianBlur result="blurOut" stdDeviation="2.0"/><feColorMatrix in="blurOut" result="blurOut2" type="matrix" values="0 0 0 0 0 0 0 0 0 0 0 0 0 0 0 0 0 0 .4 0"/><feOffset dx="4.0" dy="4.0" in="blurOut2" result="blurOut3"/><feBlend in="SourceGraphic" in2="blurOut3" mode="normal"/></filter></defs><g><!--class Activity--><rect fill="#FF0000" filter="url(#f11k8te75gvoih)" height="48" id="Activity" style="stroke: #A80036; stroke-width: 1.5;" width="67" x="1139.5" y="8"/><rect fill="#FF0000" height="32" style="stroke: #A80036; stroke-width: 1.5;" width="67" x="1139.5" y="8"/><ellipse cx="1154.5" cy="24" fill="#ADD1B2" rx="11" ry="11" style="stroke: #A80036; stroke-width: 1.0;"/><path d="M1157.2656,19.875 Q1157.4219,19.6563 1157.6094,19.5469 Q1157.7969,19.4375 1158.0156,19.4375 Q1158.3906,19.4375 1158.625,19.6953 Q1158.8594,19.9531 1158.8594,20.5625 L1158.8594,22.0156 Q1158.8594,22.625 1158.625,22.8906 Q1158.3906,23.1563 1158.0156,23.1563 Q1157.6719,23.1563 1157.4688,22.9531 Q1157.2656,22.7656 1157.1563,22.25 Q1157.1094,21.8906 1156.9219,21.7031 Q1156.5938,21.3281 1155.9844,21.1094 Q1155.375,20.8906 1154.75,20.8906 Q1153.9844,20.8906 1153.3516,21.2188 Q1152.7188,21.5469 1152.2266,22.2969 Q1151.7344,23.0469 1151.7344,24.0781 L1151.7344,25.1719 Q1151.7344,26.4063 1152.625,27.2266 Q1153.5156,28.0469 1155.1094,28.0469 Q1156.0469,28.0469 1156.7031,27.7969 Q1157.0938,27.6406 1157.5156,27.2031 Q1157.7813,26.9375 1157.9297,26.8594 Q1158.0781,26.7813 1158.2813,26.7813 Q1158.6094,26.7813 1158.8672,27.0391 Q1159.125,27.2969 1159.125,27.6406 Q1159.125,27.9844 1158.7813,28.3906 Q1158.2813,28.9688 1157.4844,29.2969 Q1156.4063,29.75 1155.1094,29.75 Q1153.5938,29.75 1152.3906,29.125 Q1151.4063,28.625 1150.7188,27.5547 Q1150.0313,26.4844 1150.0313,25.2031 L1150.0313,24.0469 Q1150.0313,22.7188 1150.6484,21.5703 Q1151.2656,20.4219 1152.3594,19.8047 Q1153.4531,19.1875 1154.6875,19.1875 Q1155.4219,19.1875 1156.0703,19.3516 Q1156.7188,19.5156 1157.2656,19.875 Z "/><text fill="#000000" font-family="sans-serif" font-size="12" lengthAdjust="spacingAndGlyphs" textLength="35" x="1168.5" y="28.9102">Activity</text><line style="stroke: #A80036; stroke-width: 1.5;" x1="1140.5" x2="1205.5" y1="40" y2="40"/><line style="stroke: #A80036; stroke-width: 1.5;" x1="1140.5" x2="1205.5" y1="48" y2="48"/><!--class AnalysisActivity--><rect fill="#FF0000" filter="url(#f11k8te75gvoih)" height="48" id="AnalysisActivity" style="stroke: #A80036; stroke-width: 1.5;" width="113" x="1056.5" y="117"/><rect fill="#FF0000" height="32" style="stroke: #A80036; stroke-width: 1.5;" width="113" x="1056.5" y="117"/><ellipse cx="1071.5" cy="133" fill="#ADD1B2" rx="11" ry="11" style="stroke: #A80036; stroke-width: 1.0;"/><path d="M1074.2656,128.875 Q1074.4219,128.6563 1074.6094,128.5469 Q1074.7969,128.4375 1075.0156,128.4375 Q1075.3906,128.4375 1075.625,128.6953 Q1075.8594,128.9531 1075.8594,129.5625 L1075.8594,131.0156 Q1075.8594,131.625 1075.625,131.8906 Q1075.3906,132.1563 1075.0156,132.1563 Q1074.6719,132.1563 1074.4688,131.9531 Q1074.2656,131.7656 1074.1563,131.25 Q1074.1094,130.8906 1073.9219,130.7031 Q1073.5938,130.3281 1072.9844,130.1094 Q1072.375,129.8906 1071.75,129.8906 Q1070.9844,129.8906 1070.3516,130.2188 Q1069.7188,130.5469 1069.2266,131.2969 Q1068.7344,132.0469 1068.7344,133.0781 L1068.7344,134.1719 Q1068.7344,135.4063 1069.625,136.2266 Q1070.5156,137.0469 1072.1094,137.0469 Q1073.0469,137.0469 1073.7031,136.7969 Q1074.0938,136.6406 1074.5156,136.2031 Q1074.7813,135.9375 1074.9297,135.8594 Q1075.0781,135.7813 1075.2813,135.7813 Q1075.6094,135.7813 1075.8672,136.0391 Q1076.125,136.2969 1076.125,136.6406 Q1076.125,136.9844 1075.7813,137.3906 Q1075.2813,137.9688 1074.4844,138.2969 Q1073.4063,138.75 1072.1094,138.75 Q1070.5938,138.75 1069.3906,138.125 Q1068.4063,137.625 1067.7188,136.5547 Q1067.0313,135.4844 1067.0313,134.2031 L1067.0313,133.0469 Q1067.0313,131.7188 1067.6484,130.5703 Q1068.2656,129.4219 1069.3594,128.8047 Q1070.4531,128.1875 1071.6875,128.1875 Q1072.4219,128.1875 1073.0703,128.3516 Q1073.7188,128.5156 1074.2656,128.875 Z "/><text fill="#000000" font-family="sans-serif" font-size="12" lengthAdjust="spacingAndGlyphs" textLength="81" x="1085.5" y="137.9102">AnalysisActivity</text><line style="stroke: #A80036; stroke-width: 1.5;" x1="1057.5" x2="1168.5" y1="149" y2="149"/><line style="stroke: #A80036; stroke-width: 1.5;" x1="1057.5" x2="1168.5" y1="157" y2="157"/><!--class Role--><rect fill="#0000FF" filter="url(#f11k8te75gvoih)" height="48" id="Role" style="stroke: #A80036; stroke-width: 1.5;" width="58" x="1205" y="117"/><rect fill="#0000FF" height="32" style="stroke: #A80036; stroke-width: 1.5;" width="58" x="1205" y="117"/><ellipse cx="1220" cy="133" fill="#ADD1B2" rx="11" ry="11" style="stroke: #A80036; stroke-width: 1.0;"/><path d="M1222.7656,128.875 Q1222.9219,128.6563 1223.1094,128.5469 Q1223.2969,128.4375 1223.5156,128.4375 Q1223.8906,128.4375 1224.125,128.6953 Q1224.3594,128.9531 1224.3594,129.5625 L1224.3594,131.0156 Q1224.3594,131.625 1224.125,131.8906 Q1223.8906,132.1563 1223.5156,132.1563 Q1223.1719,132.1563 1222.9688,131.9531 Q1222.7656,131.7656 1222.6563,131.25 Q1222.6094,130.8906 1222.4219,130.7031 Q1222.0938,130.3281 1221.4844,130.1094 Q1220.875,129.8906 1220.25,129.8906 Q1219.4844,129.8906 1218.8516,130.2188 Q1218.2188,130.5469 1217.7266,131.2969 Q1217.2344,132.0469 1217.2344,133.0781 L1217.2344,134.1719 Q1217.2344,135.4063 1218.125,136.2266 Q1219.0156,137.0469 1220.6094,137.0469 Q1221.5469,137.0469 1222.2031,136.7969 Q1222.5938,136.6406 1223.0156,136.2031 Q1223.2813,135.9375 1223.4297,135.8594 Q1223.5781,135.7813 1223.7813,135.7813 Q1224.1094,135.7813 1224.3672,136.0391 Q1224.625,136.2969 1224.625,136.6406 Q1224.625,136.9844 1224.2813,137.3906 Q1223.7813,137.9688 1222.9844,138.2969 Q1221.9063,138.75 1220.6094,138.75 Q1219.0938,138.75 1217.8906,138.125 Q1216.9063,137.625 1216.2188,136.5547 Q1215.5313,135.4844 1215.5313,134.2031 L1215.5313,133.0469 Q1215.5313,131.7188 1216.1484,130.5703 Q1216.7656,129.4219 1217.8594,128.8047 Q1218.9531,128.1875 1220.1875,128.1875 Q1220.9219,128.1875 1221.5703,128.3516 Q1222.2188,128.5156 1222.7656,128.875 Z "/><text fill="#000000" font-family="sans-serif" font-size="12" lengthAdjust="spacingAndGlyphs" textLength="26" x="1234" y="137.9102">Role</text><line style="stroke: #A80036; stroke-width: 1.5;" x1="1206" x2="1262" y1="149" y2="149"/><line style="stroke: #A80036; stroke-width: 1.5;" x1="1206" x2="1262" y1="157" y2="157"/><!--class UseCaseModel--><rect fill="#008000" filter="url(#f11k8te75gvoih)" height="48" id="UseCaseModel" style="stroke: #A80036; stroke-width: 1.5;" width="124" x="6" y="352"/><rect fill="#008000" height="32" style="stroke: #A80036; stroke-width: 1.5;" width="124" x="6" y="352"/><ellipse cx="21" cy="368" fill="#ADD1B2" rx="11" ry="11" style="stroke: #A80036; stroke-width: 1.0;"/><path d="M23.7656,363.875 Q23.9219,363.6563 24.1094,363.5469 Q24.2969,363.4375 24.5156,363.4375 Q24.8906,363.4375 25.125,363.6953 Q25.3594,363.9531 25.3594,364.5625 L25.3594,366.0156 Q25.3594,366.625 25.125,366.8906 Q24.8906,367.1563 24.5156,367.1563 Q24.1719,367.1563 23.9688,366.9531 Q23.7656,366.7656 23.6563,366.25 Q23.6094,365.8906 23.4219,365.7031 Q23.0938,365.3281 22.4844,365.1094 Q21.875,364.8906 21.25,364.8906 Q20.4844,364.8906 19.8516,365.2188 Q19.2188,365.5469 18.7266,366.2969 Q18.2344,367.0469 18.2344,368.0781 L18.2344,369.1719 Q18.2344,370.4063 19.125,371.2266 Q20.0156,372.0469 21.6094,372.0469 Q22.5469,372.0469 23.2031,371.7969 Q23.5938,371.6406 24.0156,371.2031 Q24.2813,370.9375 24.4297,370.8594 Q24.5781,370.7813 24.7813,370.7813 Q25.1094,370.7813 25.3672,371.0391 Q25.625,371.2969 25.625,371.6406 Q25.625,371.9844 25.2813,372.3906 Q24.7813,372.9688 23.9844,373.2969 Q22.9063,373.75 21.6094,373.75 Q20.0938,373.75 18.8906,373.125 Q17.9063,372.625 17.2188,371.5547 Q16.5313,370.4844 16.5313,369.2031 L16.5313,368.0469 Q16.5313,366.7188 17.1484,365.5703 Q17.7656,364.4219 18.8594,363.8047 Q19.9531,363.1875 21.1875,363.1875 Q21.9219,363.1875 22.5703,363.3516 Q23.2188,363.5156 23.7656,363.875 Z "/><text fill="#000000" font-family="sans-serif" font-size="12" lengthAdjust="spacingAndGlyphs" textLength="92" x="35" y="372.9102">Use Case Model</text><line style="stroke: #A80036; stroke-width: 1.5;" x1="7" x2="129" y1="384" y2="384"/><line style="stroke: #A80036; stroke-width: 1.5;" x1="7" x2="129" y1="392" y2="392"/><!--class SupplementaryRequirements--><rect fill="#008000" filter="url(#f11k8te75gvoih)" height="48" id="SupplementaryRequirements" style="stroke: #A80036; stroke-width: 1.5;" width="197" x="165.5" y="352"/><rect fill="#008000" height="32" style="stroke: #A80036; stroke-width: 1.5;" width="197" x="165.5" y="352"/><ellipse cx="180.5" cy="368" fill="#ADD1B2" rx="11" ry="11" style="stroke: #A80036; stroke-width: 1.0;"/><path d="M183.2656,363.875 Q183.4219,363.6563 183.6094,363.5469 Q183.7969,363.4375 184.0156,363.4375 Q184.3906,363.4375 184.625,363.6953 Q184.8594,363.9531 184.8594,364.5625 L184.8594,366.0156 Q184.8594,366.625 184.625,366.8906 Q184.3906,367.1563 184.0156,367.1563 Q183.6719,367.1563 183.4688,366.9531 Q183.2656,366.7656 183.1563,366.25 Q183.1094,365.8906 182.9219,365.7031 Q182.5938,365.3281 181.9844,365.1094 Q181.375,364.8906 180.75,364.8906 Q179.9844,364.8906 179.3516,365.2188 Q178.7188,365.5469 178.2266,366.2969 Q177.7344,367.0469 177.7344,368.0781 L177.7344,369.1719 Q177.7344,370.4063 178.625,371.2266 Q179.5156,372.0469 181.1094,372.0469 Q182.0469,372.0469 182.7031,371.7969 Q183.0938,371.6406 183.5156,371.2031 Q183.7813,370.9375 183.9297,370.8594 Q184.0781,370.7813 184.2813,370.7813 Q184.6094,370.7813 184.8672,371.0391 Q185.125,371.2969 185.125,371.6406 Q185.125,371.9844 184.7813,372.3906 Q184.2813,372.9688 183.4844,373.2969 Q182.4063,373.75 181.1094,373.75 Q179.5938,373.75 178.3906,373.125 Q177.4063,372.625 176.7188,371.5547 Q176.0313,370.4844 176.0313,369.2031 L176.0313,368.0469 Q176.0313,366.7188 176.6484,365.5703 Q177.2656,364.4219 178.3594,363.8047 Q179.4531,363.1875 180.6875,363.1875 Q181.4219,363.1875 182.0703,363.3516 Q182.7188,363.5156 183.2656,363.875 Z "/><text fill="#000000" font-family="sans-serif" font-size="12" lengthAdjust="spacingAndGlyphs" textLength="165" x="194.5" y="372.9102">Supplementary Requirements</text><line style="stroke: #A80036; stroke-width: 1.5;" x1="166.5" x2="361.5" y1="384" y2="384"/><line style="stroke: #A80036; stroke-width: 1.5;" x1="166.5" x2="361.5" y1="392" y2="392"/><!--class DomainModel--><rect fill="#008000" filter="url(#f11k8te75gvoih)" height="48" id="DomainModel" style="stroke: #A80036; stroke-width: 1.5;" width="112" x="398" y="352"/><rect fill="#008000" height="32" style="stroke: #A80036; stroke-width: 1.5;" width="112" x="398" y="352"/><ellipse cx="413" cy="368" fill="#ADD1B2" rx="11" ry="11" style="stroke: #A80036; stroke-width: 1.0;"/><path d="M415.7656,363.875 Q415.9219,363.6563 416.1094,363.5469 Q416.2969,363.4375 416.5156,363.4375 Q416.8906,363.4375 417.125,363.6953 Q417.3594,363.9531 417.3594,364.5625 L417.3594,366.0156 Q417.3594,366.625 417.125,366.8906 Q416.8906,367.1563 416.5156,367.1563 Q416.1719,367.1563 415.9688,366.9531 Q415.7656,366.7656 415.6563,366.25 Q415.6094,365.8906 415.4219,365.7031 Q415.0938,365.3281 414.4844,365.1094 Q413.875,364.8906 413.25,364.8906 Q412.4844,364.8906 411.8516,365.2188 Q411.2188,365.5469 410.7266,366.2969 Q410.2344,367.0469 410.2344,368.0781 L410.2344,369.1719 Q410.2344,370.4063 411.125,371.2266 Q412.0156,372.0469 413.6094,372.0469 Q414.5469,372.0469 415.2031,371.7969 Q415.5938,371.6406 416.0156,371.2031 Q416.2813,370.9375 416.4297,370.8594 Q416.5781,370.7813 416.7813,370.7813 Q417.1094,370.7813 417.3672,371.0391 Q417.625,371.2969 417.625,371.6406 Q417.625,371.9844 417.2813,372.3906 Q416.7813,372.9688 415.9844,373.2969 Q414.9063,373.75 413.6094,373.75 Q412.0938,373.75 410.8906,373.125 Q409.9063,372.625 409.2188,371.5547 Q408.5313,370.4844 408.5313,369.2031 L408.5313,368.0469 Q408.5313,366.7188 409.1484,365.5703 Q409.7656,364.4219 410.8594,363.8047 Q411.9531,363.1875 413.1875,363.1875 Q413.9219,363.1875 414.5703,363.3516 Q415.2188,363.5156 415.7656,363.875 Z "/><text fill="#000000" font-family="sans-serif" font-size="12" lengthAdjust="spacingAndGlyphs" textLength="80" x="427" y="372.9102">Domain Model</text><line style="stroke: #A80036; stroke-width: 1.5;" x1="399" x2="509" y1="384" y2="384"/><line style="stroke: #A80036; stroke-width: 1.5;" x1="399" x2="509" y1="392" y2="392"/><!--class ArchitectureDescription--><rect fill="#008000" filter="url(#f11k8te75gvoih)" height="48" id="ArchitectureDescription" style="stroke: #A80036; stroke-width: 1.5;" width="303" x="545.5" y="352"/><rect fill="#008000" height="32" style="stroke: #A80036; stroke-width: 1.5;" width="303" x="545.5" y="352"/><ellipse cx="560.5" cy="368" fill="#ADD1B2" rx="11" ry="11" style="stroke: #A80036; stroke-width: 1.0;"/><path d="M563.2656,363.875 Q563.4219,363.6563 563.6094,363.5469 Q563.7969,363.4375 564.0156,363.4375 Q564.3906,363.4375 564.625,363.6953 Q564.8594,363.9531 564.8594,364.5625 L564.8594,366.0156 Q564.8594,366.625 564.625,366.8906 Q564.3906,367.1563 564.0156,367.1563 Q563.6719,367.1563 563.4688,366.9531 Q563.2656,366.7656 563.1563,366.25 Q563.1094,365.8906 562.9219,365.7031 Q562.5938,365.3281 561.9844,365.1094 Q561.375,364.8906 560.75,364.8906 Q559.9844,364.8906 559.3516,365.2188 Q558.7188,365.5469 558.2266,366.2969 Q557.7344,367.0469 557.7344,368.0781 L557.7344,369.1719 Q557.7344,370.4063 558.625,371.2266 Q559.5156,372.0469 561.1094,372.0469 Q562.0469,372.0469 562.7031,371.7969 Q563.0938,371.6406 563.5156,371.2031 Q563.7813,370.9375 563.9297,370.8594 Q564.0781,370.7813 564.2813,370.7813 Q564.6094,370.7813 564.8672,371.0391 Q565.125,371.2969 565.125,371.6406 Q565.125,371.9844 564.7813,372.3906 Q564.2813,372.9688 563.4844,373.2969 Q562.4063,373.75 561.1094,373.75 Q559.5938,373.75 558.3906,373.125 Q557.4063,372.625 556.7188,371.5547 Q556.0313,370.4844 556.0313,369.2031 L556.0313,368.0469 Q556.0313,366.7188 556.6484,365.5703 Q557.2656,364.4219 558.3594,363.8047 Q559.4531,363.1875 560.6875,363.1875 Q561.4219,363.1875 562.0703,363.3516 Q562.7188,363.5156 563.2656,363.875 Z "/><text fill="#000000" font-family="sans-serif" font-size="12" lengthAdjust="spacingAndGlyphs" textLength="271" x="574.5" y="372.9102">Architecture Description (from the Analysis Model)</text><line style="stroke: #A80036; stroke-width: 1.5;" x1="546.5" x2="847.5" y1="384" y2="384"/><line style="stroke: #A80036; stroke-width: 1.5;" x1="546.5" x2="847.5" y1="392" y2="392"/><!--class CompletionUseCases--><rect fill="#008000" filter="url(#f11k8te75gvoih)" height="48" id="CompletionUseCases" style="stroke: #A80036; stroke-width: 1.5;" width="232" x="884" y="352"/><rect fill="#008000" height="32" style="stroke: #A80036; stroke-width: 1.5;" width="232" x="884" y="352"/><ellipse cx="899" cy="368" fill="#ADD1B2" rx="11" ry="11" style="stroke: #A80036; stroke-width: 1.0;"/><path d="M901.7656,363.875 Q901.9219,363.6563 902.1094,363.5469 Q902.2969,363.4375 902.5156,363.4375 Q902.8906,363.4375 903.125,363.6953 Q903.3594,363.9531 903.3594,364.5625 L903.3594,366.0156 Q903.3594,366.625 903.125,366.8906 Q902.8906,367.1563 902.5156,367.1563 Q902.1719,367.1563 901.9688,366.9531 Q901.7656,366.7656 901.6563,366.25 Q901.6094,365.8906 901.4219,365.7031 Q901.0938,365.3281 900.4844,365.1094 Q899.875,364.8906 899.25,364.8906 Q898.4844,364.8906 897.8516,365.2188 Q897.2188,365.5469 896.7266,366.2969 Q896.2344,367.0469 896.2344,368.0781 L896.2344,369.1719 Q896.2344,370.4063 897.125,371.2266 Q898.0156,372.0469 899.6094,372.0469 Q900.5469,372.0469 901.2031,371.7969 Q901.5938,371.6406 902.0156,371.2031 Q902.2813,370.9375 902.4297,370.8594 Q902.5781,370.7813 902.7813,370.7813 Q903.1094,370.7813 903.3672,371.0391 Q903.625,371.2969 903.625,371.6406 Q903.625,371.9844 903.2813,372.3906 Q902.7813,372.9688 901.9844,373.2969 Q900.9063,373.75 899.6094,373.75 Q898.0938,373.75 896.8906,373.125 Q895.9063,372.625 895.2188,371.5547 Q894.5313,370.4844 894.5313,369.2031 L894.5313,368.0469 Q894.5313,366.7188 895.1484,365.5703 Q895.7656,364.4219 896.8594,363.8047 Q897.9531,363.1875 899.1875,363.1875 Q899.9219,363.1875 900.5703,363.3516 Q901.2188,363.5156 901.7656,363.875 Z "/><text fill="#000000" font-family="sans-serif" font-size="12" lengthAdjust="spacingAndGlyphs" textLength="200" x="913" y="372.9102">Completion of Use Cases (analysis)</text><line style="stroke: #A80036; stroke-width: 1.5;" x1="885" x2="1115" y1="384" y2="384"/><line style="stroke: #A80036; stroke-width: 1.5;" x1="885" x2="1115" y1="392" y2="392"/><!--class AnalysisClass--><rect fill="#008000" filter="url(#f11k8te75gvoih)" height="48" id="AnalysisClass" style="stroke: #A80036; stroke-width: 1.5;" width="162" x="1151" y="352"/><rect fill="#008000" height="32" style="stroke: #A80036; stroke-width: 1.5;" width="162" x="1151" y="352"/><ellipse cx="1166" cy="368" fill="#ADD1B2" rx="11" ry="11" style="stroke: #A80036; stroke-width: 1.0;"/><path d="M1168.7656,363.875 Q1168.9219,363.6563 1169.1094,363.5469 Q1169.2969,363.4375 1169.5156,363.4375 Q1169.8906,363.4375 1170.125,363.6953 Q1170.3594,363.9531 1170.3594,364.5625 L1170.3594,366.0156 Q1170.3594,366.625 1170.125,366.8906 Q1169.8906,367.1563 1169.5156,367.1563 Q1169.1719,367.1563 1168.9688,366.9531 Q1168.7656,366.7656 1168.6563,366.25 Q1168.6094,365.8906 1168.4219,365.7031 Q1168.0938,365.3281 1167.4844,365.1094 Q1166.875,364.8906 1166.25,364.8906 Q1165.4844,364.8906 1164.8516,365.2188 Q1164.2188,365.5469 1163.7266,366.2969 Q1163.2344,367.0469 1163.2344,368.0781 L1163.2344,369.1719 Q1163.2344,370.4063 1164.125,371.2266 Q1165.0156,372.0469 1166.6094,372.0469 Q1167.5469,372.0469 1168.2031,371.7969 Q1168.5938,371.6406 1169.0156,371.2031 Q1169.2813,370.9375 1169.4297,370.8594 Q1169.5781,370.7813 1169.7813,370.7813 Q1170.1094,370.7813 1170.3672,371.0391 Q1170.625,371.2969 1170.625,371.6406 Q1170.625,371.9844 1170.2813,372.3906 Q1169.7813,372.9688 1168.9844,373.2969 Q1167.9063,373.75 1166.6094,373.75 Q1165.0938,373.75 1163.8906,373.125 Q1162.9063,372.625 1162.2188,371.5547 Q1161.5313,370.4844 1161.5313,369.2031 L1161.5313,368.0469 Q1161.5313,366.7188 1162.1484,365.5703 Q1162.7656,364.4219 1163.8594,363.8047 Q1164.9531,363.1875 1166.1875,363.1875 Q1166.9219,363.1875 1167.5703,363.3516 Q1168.2188,363.5156 1168.7656,363.875 Z "/><text fill="#000000" font-family="sans-serif" font-size="12" lengthAdjust="spacingAndGlyphs" textLength="130" x="1180" y="372.9102">Analysis Class (outline)</text><line style="stroke: #A80036; stroke-width: 1.5;" x1="1152" x2="1312" y1="384" y2="384"/><line style="stroke: #A80036; stroke-width: 1.5;" x1="1152" x2="1312" y1="392" y2="392"/><!--class AnalysisRole--><rect fill="#0000FF" filter="url(#f11k8te75gvoih)" height="48" id="AnalysisRole" style="stroke: #A80036; stroke-width: 1.5;" width="104" x="1182" y="226"/><rect fill="#0000FF" height="32" style="stroke: #A80036; stroke-width: 1.5;" width="104" x="1182" y="226"/><ellipse cx="1197" cy="242" fill="#ADD1B2" rx="11" ry="11" style="stroke: #A80036; stroke-width: 1.0;"/><path d="M1199.7656,237.875 Q1199.9219,237.6563 1200.1094,237.5469 Q1200.2969,237.4375 1200.5156,237.4375 Q1200.8906,237.4375 1201.125,237.6953 Q1201.3594,237.9531 1201.3594,238.5625 L1201.3594,240.0156 Q1201.3594,240.625 1201.125,240.8906 Q1200.8906,241.1563 1200.5156,241.1563 Q1200.1719,241.1563 1199.9688,240.9531 Q1199.7656,240.7656 1199.6563,240.25 Q1199.6094,239.8906 1199.4219,239.7031 Q1199.0938,239.3281 1198.4844,239.1094 Q1197.875,238.8906 1197.25,238.8906 Q1196.4844,238.8906 1195.8516,239.2188 Q1195.2188,239.5469 1194.7266,240.2969 Q1194.2344,241.0469 1194.2344,242.0781 L1194.2344,243.1719 Q1194.2344,244.4063 1195.125,245.2266 Q1196.0156,246.0469 1197.6094,246.0469 Q1198.5469,246.0469 1199.2031,245.7969 Q1199.5938,245.6406 1200.0156,245.2031 Q1200.2813,244.9375 1200.4297,244.8594 Q1200.5781,244.7813 1200.7813,244.7813 Q1201.1094,244.7813 1201.3672,245.0391 Q1201.625,245.2969 1201.625,245.6406 Q1201.625,245.9844 1201.2813,246.3906 Q1200.7813,246.9688 1199.9844,247.2969 Q1198.9063,247.75 1197.6094,247.75 Q1196.0938,247.75 1194.8906,247.125 Q1193.9063,246.625 1193.2188,245.5547 Q1192.5313,244.4844 1192.5313,243.2031 L1192.5313,242.0469 Q1192.5313,240.7188 1193.1484,239.5703 Q1193.7656,238.4219 1194.8594,237.8047 Q1195.9531,237.1875 1197.1875,237.1875 Q1197.9219,237.1875 1198.5703,237.3516 Q1199.2188,237.5156 1199.7656,237.875 Z "/><text fill="#000000" font-family="sans-serif" font-size="12" lengthAdjust="spacingAndGlyphs" textLength="72" x="1211" y="246.9102">AnalysisRole</text><line style="stroke: #A80036; stroke-width: 1.5;" x1="1183" x2="1285" y1="258" y2="258"/><line style="stroke: #A80036; stroke-width: 1.5;" x1="1183" x2="1285" y1="266" y2="266"/><!--class AnalyzeUseCase--><rect fill="#FF0000" filter="url(#f11k8te75gvoih)" height="48" id="AnalyzeUseCase" style="stroke: #A80036; stroke-width: 1.5;" width="132" x="782" y="226"/><rect fill="#FF0000" height="32" style="stroke: #A80036; stroke-width: 1.5;" width="132" x="782" y="226"/><ellipse cx="797" cy="242" fill="#ADD1B2" rx="11" ry="11" style="stroke: #A80036; stroke-width: 1.0;"/><path d="M799.7656,237.875 Q799.9219,237.6563 800.1094,237.5469 Q800.2969,237.4375 800.5156,237.4375 Q800.8906,237.4375 801.125,237.6953 Q801.3594,237.9531 801.3594,238.5625 L801.3594,240.0156 Q801.3594,240.625 801.125,240.8906 Q800.8906,241.1563 800.5156,241.1563 Q800.1719,241.1563 799.9688,240.9531 Q799.7656,240.7656 799.6563,240.25 Q799.6094,239.8906 799.4219,239.7031 Q799.0938,239.3281 798.4844,239.1094 Q797.875,238.8906 797.25,238.8906 Q796.4844,238.8906 795.8516,239.2188 Q795.2188,239.5469 794.7266,240.2969 Q794.2344,241.0469 794.2344,242.0781 L794.2344,243.1719 Q794.2344,244.4063 795.125,245.2266 Q796.0156,246.0469 797.6094,246.0469 Q798.5469,246.0469 799.2031,245.7969 Q799.5938,245.6406 800.0156,245.2031 Q800.2813,244.9375 800.4297,244.8594 Q800.5781,244.7813 800.7813,244.7813 Q801.1094,244.7813 801.3672,245.0391 Q801.625,245.2969 801.625,245.6406 Q801.625,245.9844 801.2813,246.3906 Q800.7813,246.9688 799.9844,247.2969 Q798.9063,247.75 797.6094,247.75 Q796.0938,247.75 794.8906,247.125 Q793.9063,246.625 793.2188,245.5547 Q792.5313,244.4844 792.5313,243.2031 L792.5313,242.0469 Q792.5313,240.7188 793.1484,239.5703 Q793.7656,238.4219 794.8594,237.8047 Q795.9531,237.1875 797.1875,237.1875 Q797.9219,237.1875 798.5703,237.3516 Q799.2188,237.5156 799.7656,237.875 Z "/><text fill="#000000" font-family="sans-serif" font-size="12" lengthAdjust="spacingAndGlyphs" textLength="100" x="811" y="246.9102">Analyze Use Case</text><line style="stroke: #A80036; stroke-width: 1.5;" x1="783" x2="913" y1="258" y2="258"/><line style="stroke: #A80036; stroke-width: 1.5;" x1="783" x2="913" y1="266" y2="266"/><!--class EngineerUseCases--><rect fill="#0000FF" filter="url(#f11k8te75gvoih)" height="48" id="EngineerUseCases" style="stroke: #A80036; stroke-width: 1.5;" width="158" x="1348" y="352"/><rect fill="#0000FF" height="32" style="stroke: #A80036; stroke-width: 1.5;" width="158" x="1348" y="352"/><ellipse cx="1363" cy="368" fill="#ADD1B2" rx="11" ry="11" style="stroke: #A80036; stroke-width: 1.0;"/><path d="M1365.7656,363.875 Q1365.9219,363.6563 1366.1094,363.5469 Q1366.2969,363.4375 1366.5156,363.4375 Q1366.8906,363.4375 1367.125,363.6953 Q1367.3594,363.9531 1367.3594,364.5625 L1367.3594,366.0156 Q1367.3594,366.625 1367.125,366.8906 Q1366.8906,367.1563 1366.5156,367.1563 Q1366.1719,367.1563 1365.9688,366.9531 Q1365.7656,366.7656 1365.6563,366.25 Q1365.6094,365.8906 1365.4219,365.7031 Q1365.0938,365.3281 1364.4844,365.1094 Q1363.875,364.8906 1363.25,364.8906 Q1362.4844,364.8906 1361.8516,365.2188 Q1361.2188,365.5469 1360.7266,366.2969 Q1360.2344,367.0469 1360.2344,368.0781 L1360.2344,369.1719 Q1360.2344,370.4063 1361.125,371.2266 Q1362.0156,372.0469 1363.6094,372.0469 Q1364.5469,372.0469 1365.2031,371.7969 Q1365.5938,371.6406 1366.0156,371.2031 Q1366.2813,370.9375 1366.4297,370.8594 Q1366.5781,370.7813 1366.7813,370.7813 Q1367.1094,370.7813 1367.3672,371.0391 Q1367.625,371.2969 1367.625,371.6406 Q1367.625,371.9844 1367.2813,372.3906 Q1366.7813,372.9688 1365.9844,373.2969 Q1364.9063,373.75 1363.6094,373.75 Q1362.0938,373.75 1360.8906,373.125 Q1359.9063,372.625 1359.2188,371.5547 Q1358.5313,370.4844 1358.5313,369.2031 L1358.5313,368.0469 Q1358.5313,366.7188 1359.1484,365.5703 Q1359.7656,364.4219 1360.8594,363.8047 Q1361.9531,363.1875 1363.1875,363.1875 Q1363.9219,363.1875 1364.5703,363.3516 Q1365.2188,363.5156 1365.7656,363.875 Z "/><text fill="#000000" font-family="sans-serif" font-size="12" lengthAdjust="spacingAndGlyphs" textLength="126" x="1377" y="372.9102">Engineer of Use cases</text><line style="stroke: #A80036; stroke-width: 1.5;" x1="1349" x2="1505" y1="384" y2="384"/><line style="stroke: #A80036; stroke-width: 1.5;" x1="1349" x2="1505" y1="392" y2="392"/><!--link Activity to AnalysisActivity--><path d="M1149.94,74.127 C1141.82,88.602 1132.99,104.357 1125.99,116.828 " fill="none" id="Activity-AnalysisActivity" style="stroke: #A80036; stroke-width: 1.0;"/><polygon fill="none" points="1144.09,70.238,1159.98,56.217,1156.3,77.086,1144.09,70.238" style="stroke: #A80036; stroke-width: 1.0;"/><!--link Activity to Role--><path d="M1186.24,56.217 C1195.59,72.623 1208.17,94.692 1218.07,112.062 " fill="none" id="Activity-Role" style="stroke: #A80036; stroke-width: 1.0;"/><polygon fill="#A80036" points="1220.79,116.828,1219.8054,107.0285,1218.3127,112.4849,1212.8563,110.9922,1220.79,116.828" style="stroke: #A80036; stroke-width: 1.0;"/><!--link AnalysisActivity to AnalysisRole--><path d="M1139.26,165.217 C1158.28,182.043 1184.05,204.827 1203.91,222.389 " fill="none" id="AnalysisActivity-AnalysisRole" style="stroke: #A80036; stroke-width: 1.0;"/><polygon fill="#A80036" points="1207.8,225.828,1203.7104,216.8684,1204.0554,222.5147,1198.4091,222.8597,1207.8,225.828" style="stroke: #A80036; stroke-width: 1.0;"/><!--link AnalysisActivity to AnalyzeUseCase--><path d="M1037.9,172.325 C995.814,189.317 944.158,210.174 905.351,225.843 " fill="none" id="AnalysisActivity-AnalyzeUseCase" style="stroke: #A80036; stroke-width: 1.0;"/><polygon fill="none" points="1035.31,165.82,1056.48,164.823,1040.55,178.802,1035.31,165.82" style="stroke: #A80036; stroke-width: 1.0;"/><!--link AnalyzeUseCase to UseCaseModel--><path d="M781.842,257.497 C656.995,270.428 378.49,302.4814 148,352 C143.836,352.8945 139.571,353.8879 135.283,354.9454 " fill="none" id="AnalyzeUseCase-UseCaseModel" style="stroke: #A80036; stroke-width: 1.0;"/><polygon fill="#A80036" points="130.243,356.2144,139.947,357.8974,135.0919,354.9944,137.9949,350.1392,130.243,356.2144" style="stroke: #A80036; stroke-width: 1.0;"/><text fill="#000000" font-family="sans-serif" font-size="13" lengthAdjust="spacingAndGlyphs" textLength="10" x="398" y="318.4951">in</text><!--link AnalyzeUseCase to SupplementaryRequirements--><path d="M781.86,265.043 C680.83,286.495 487.212,327.6056 367.474,353.0294 " fill="none" id="AnalyzeUseCase-SupplementaryRequirements" style="stroke: #A80036; stroke-width: 1.0;"/><polygon fill="#A80036" points="362.538,354.0775,372.1726,356.1209,367.4289,353.0389,370.5109,348.2953,362.538,354.0775" style="stroke: #A80036; stroke-width: 1.0;"/><text fill="#000000" font-family="sans-serif" font-size="13" lengthAdjust="spacingAndGlyphs" textLength="10" x="592" y="318.4951">in</text><!--link AnalyzeUseCase to DomainModel--><path d="M781.609,271.895 C707.185,295.318 587.496,332.9859 515.241,355.726 " fill="none" id="AnalyzeUseCase-DomainModel" style="stroke: #A80036; stroke-width: 1.0;"/><polygon fill="#A80036" points="510.122,357.3371,519.9078,358.4499,514.8913,355.8357,517.5055,350.8191,510.122,357.3371" style="stroke: #A80036; stroke-width: 1.0;"/><text fill="#000000" font-family="sans-serif" font-size="13" lengthAdjust="spacingAndGlyphs" textLength="10" x="676" y="318.4951">in</text><!--link AnalyzeUseCase to ArchitectureDescription--><path d="M819.952,274.033 C794.183,295.194 756.01,326.5411 729.048,348.6827 " fill="none" id="AnalyzeUseCase-ArchitectureDescription" style="stroke: #A80036; stroke-width: 1.0;"/><polygon fill="#A80036" points="725.154,351.8804,734.648,349.2605,729.0182,348.7075,729.5713,343.0777,725.154,351.8804" style="stroke: #A80036; stroke-width: 1.0;"/><text fill="#000000" font-family="sans-serif" font-size="13" lengthAdjust="spacingAndGlyphs" textLength="10" x="783" y="318.4951">in</text><!--link AnalyzeUseCase to CompletionUseCases--><path d="M876.234,274.033 C902.174,295.194 940.599,326.5411 967.74,348.6827 " fill="none" id="AnalyzeUseCase-CompletionUseCases" style="stroke: #A80036; stroke-width: 1.0;"/><polygon fill="#A80036" points="971.66,351.8804,967.2158,343.0912,967.7861,348.7193,962.158,349.2895,971.66,351.8804" style="stroke: #A80036; stroke-width: 1.0;"/><text fill="#000000" font-family="sans-serif" font-size="13" lengthAdjust="spacingAndGlyphs" textLength="18" x="935" y="318.4951">out</text><!--link AnalyzeUseCase to AnalysisClass--><path d="M914.012,272.316 C981.128,293.989 1085.02,327.5369 1155.64,350.3421 " fill="none" id="AnalyzeUseCase-AnalysisClass" style="stroke: #A80036; stroke-width: 1.0;"/><polygon fill="#A80036" points="1160.67,351.9652,1153.3426,345.3842,1155.9138,350.423,1150.875,352.9942,1160.67,351.9652" style="stroke: #A80036; stroke-width: 1.0;"/><text fill="#000000" font-family="sans-serif" font-size="13" lengthAdjust="spacingAndGlyphs" textLength="18" x="1064" y="318.4951">out</text><!--link AnalyzeUseCase to EngineerUseCases--><path d="M914.39,264.337 C1007.45,283.162 1181.89,318.9285 1330,352 C1334.19,352.9352 1338.48,353.9051 1342.8,354.8941 " fill="none" id="AnalyzeUseCase-EngineerUseCases" style="stroke: #A80036; stroke-width: 1.0;"/><polygon fill="#A80036" points="1347.9,356.0629,1340.0345,350.1356,1343.0289,354.9349,1338.2296,357.9293,1347.9,356.0629" style="stroke: #A80036; stroke-width: 1.0;"/><!--link Role to AnalysisRole--><path d="M1234,185.578 C1234,199.362 1234,214.057 1234,225.828 " fill="none" id="Role-AnalysisRole" style="stroke: #A80036; stroke-width: 1.0;"/><polygon fill="none" points="1227,185.217,1234,165.217,1241,185.217,1227,185.217" style="stroke: #A80036; stroke-width: 1.0;"/><!--link AnalysisRole to EngineerUseCases--><path d="M1304.61,276.333 C1322.09,284.022 1340.3,293.313 1356,304 C1375.74,317.4377 1394.69,336.8267 1408.04,351.9488 " fill="none" id="AnalysisRole-EngineerUseCases" style="stroke: #A80036; stroke-width: 1.0;"/><polygon fill="none" points="1301.86,282.771,1286.08,268.629,1307.24,269.844,1301.86,282.771" style="stroke: #A80036; stroke-width: 1.0;"/><!--
@startuml

class Activity #red
Activity <|- - AnalysisActivity
Activity - -> Role

class "Use Case Model" as UseCaseModel #green
class "Supplementary Requirements" as SupplementaryRequirements #green
class "Domain Model" as DomainModel #green
class "Architecture Description (from the Analysis Model)" as ArchitectureDescription #green
class "Completion of Use Cases (analysis)" as CompletionUseCases #green
class "Analysis Class (outline)" as AnalysisClass #green

class AnalysisActivity #red
AnalysisActivity - -> AnalysisRole

class "Analyze Use Case" as AnalyzeUseCase #red
AnalysisActivity <|- - AnalyzeUseCase

AnalyzeUseCase - -> UseCaseModel :in
AnalyzeUseCase - -> SupplementaryRequirements :in
AnalyzeUseCase - -> DomainModel :in
AnalyzeUseCase - -> ArchitectureDescription :in
AnalyzeUseCase - -> CompletionUseCases :out
AnalyzeUseCase - -> AnalysisClass :out

class Role #blue
class AnalysisRole #blue
class "Engineer of Use cases" as EngineerUseCases #blue

AnalyzeUseCase - -> EngineerUseCases

Role <|- - AnalysisRole
AnalysisRole <|- - EngineerUseCases
@enduml

PlantUML version 1.2019.05(Sat Apr 20 18:45:36 CEST 2019)
(GPL source distribution)
Java Runtime: OpenJDK Runtime Environment
JVM: OpenJDK 64-Bit Server VM
Java Version: 1.8.0_222-b10
Operating System: Windows 10
OS Version: 10.0
Default Encoding: windows-1252
Language: es
Country: ES
--></g></svg>