<?xml version="1.0" encoding="UTF-8" standalone="no"?><svg xmlns="http://www.w3.org/2000/svg" xmlns:xlink="http://www.w3.org/1999/xlink" contentScriptType="application/ecmascript" contentStyleType="text/css" height="411px" preserveAspectRatio="none" style="width:1675px;height:411px;" version="1.1" viewBox="0 0 1675 411" width="1675px" zoomAndPan="magnify"><defs><filter height="300%" id="f1m11rwu09b3ef" width="300%" x="-1" y="-1"><feGaussianBlur result="blurOut" stdDeviation="2.0"/><feColorMatrix in="blurOut" result="blurOut2" type="matrix" values="0 0 0 0 0 0 0 0 0 0 0 0 0 0 0 0 0 0 .4 0"/><feOffset dx="4.0" dy="4.0" in="blurOut2" result="blurOut3"/><feBlend in="SourceGraphic" in2="blurOut3" mode="normal"/></filter></defs><g><!--class Activity--><rect fill="#FF0000" filter="url(#f1m11rwu09b3ef)" height="48" id="Activity" style="stroke: #A80036; stroke-width: 1.5;" width="67" x="1193" y="8"/><rect fill="#FF0000" height="32" style="stroke: #A80036; stroke-width: 1.5;" width="67" x="1193" y="8"/><ellipse cx="1208" cy="24" fill="#ADD1B2" rx="11" ry="11" style="stroke: #A80036; stroke-width: 1.0;"/><path d="M1210.7656,19.875 Q1210.9219,19.6563 1211.1094,19.5469 Q1211.2969,19.4375 1211.5156,19.4375 Q1211.8906,19.4375 1212.125,19.6953 Q1212.3594,19.9531 1212.3594,20.5625 L1212.3594,22.0156 Q1212.3594,22.625 1212.125,22.8906 Q1211.8906,23.1563 1211.5156,23.1563 Q1211.1719,23.1563 1210.9688,22.9531 Q1210.7656,22.7656 1210.6563,22.25 Q1210.6094,21.8906 1210.4219,21.7031 Q1210.0938,21.3281 1209.4844,21.1094 Q1208.875,20.8906 1208.25,20.8906 Q1207.4844,20.8906 1206.8516,21.2188 Q1206.2188,21.5469 1205.7266,22.2969 Q1205.2344,23.0469 1205.2344,24.0781 L1205.2344,25.1719 Q1205.2344,26.4063 1206.125,27.2266 Q1207.0156,28.0469 1208.6094,28.0469 Q1209.5469,28.0469 1210.2031,27.7969 Q1210.5938,27.6406 1211.0156,27.2031 Q1211.2813,26.9375 1211.4297,26.8594 Q1211.5781,26.7813 1211.7813,26.7813 Q1212.1094,26.7813 1212.3672,27.0391 Q1212.625,27.2969 1212.625,27.6406 Q1212.625,27.9844 1212.2813,28.3906 Q1211.7813,28.9688 1210.9844,29.2969 Q1209.9063,29.75 1208.6094,29.75 Q1207.0938,29.75 1205.8906,29.125 Q1204.9063,28.625 1204.2188,27.5547 Q1203.5313,26.4844 1203.5313,25.2031 L1203.5313,24.0469 Q1203.5313,22.7188 1204.1484,21.5703 Q1204.7656,20.4219 1205.8594,19.8047 Q1206.9531,19.1875 1208.1875,19.1875 Q1208.9219,19.1875 1209.5703,19.3516 Q1210.2188,19.5156 1210.7656,19.875 Z "/><text fill="#000000" font-family="sans-serif" font-size="12" lengthAdjust="spacingAndGlyphs" textLength="35" x="1222" y="28.9102">Activity</text><line style="stroke: #A80036; stroke-width: 1.5;" x1="1194" x2="1259" y1="40" y2="40"/><line style="stroke: #A80036; stroke-width: 1.5;" x1="1194" x2="1259" y1="48" y2="48"/><!--class AnalyzeActivity--><rect fill="#FF0000" filter="url(#f1m11rwu09b3ef)" height="48" id="AnalyzeActivity" style="stroke: #A80036; stroke-width: 1.5;" width="108" x="1114.5" y="117"/><rect fill="#FF0000" height="32" style="stroke: #A80036; stroke-width: 1.5;" width="108" x="1114.5" y="117"/><ellipse cx="1129.5" cy="133" fill="#ADD1B2" rx="11" ry="11" style="stroke: #A80036; stroke-width: 1.0;"/><path d="M1132.2656,128.875 Q1132.4219,128.6563 1132.6094,128.5469 Q1132.7969,128.4375 1133.0156,128.4375 Q1133.3906,128.4375 1133.625,128.6953 Q1133.8594,128.9531 1133.8594,129.5625 L1133.8594,131.0156 Q1133.8594,131.625 1133.625,131.8906 Q1133.3906,132.1563 1133.0156,132.1563 Q1132.6719,132.1563 1132.4688,131.9531 Q1132.2656,131.7656 1132.1563,131.25 Q1132.1094,130.8906 1131.9219,130.7031 Q1131.5938,130.3281 1130.9844,130.1094 Q1130.375,129.8906 1129.75,129.8906 Q1128.9844,129.8906 1128.3516,130.2188 Q1127.7188,130.5469 1127.2266,131.2969 Q1126.7344,132.0469 1126.7344,133.0781 L1126.7344,134.1719 Q1126.7344,135.4063 1127.625,136.2266 Q1128.5156,137.0469 1130.1094,137.0469 Q1131.0469,137.0469 1131.7031,136.7969 Q1132.0938,136.6406 1132.5156,136.2031 Q1132.7813,135.9375 1132.9297,135.8594 Q1133.0781,135.7813 1133.2813,135.7813 Q1133.6094,135.7813 1133.8672,136.0391 Q1134.125,136.2969 1134.125,136.6406 Q1134.125,136.9844 1133.7813,137.3906 Q1133.2813,137.9688 1132.4844,138.2969 Q1131.4063,138.75 1130.1094,138.75 Q1128.5938,138.75 1127.3906,138.125 Q1126.4063,137.625 1125.7188,136.5547 Q1125.0313,135.4844 1125.0313,134.2031 L1125.0313,133.0469 Q1125.0313,131.7188 1125.6484,130.5703 Q1126.2656,129.4219 1127.3594,128.8047 Q1128.4531,128.1875 1129.6875,128.1875 Q1130.4219,128.1875 1131.0703,128.3516 Q1131.7188,128.5156 1132.2656,128.875 Z "/><text fill="#000000" font-family="sans-serif" font-size="12" lengthAdjust="spacingAndGlyphs" textLength="76" x="1143.5" y="137.9102">AnalyzeActivity</text><line style="stroke: #A80036; stroke-width: 1.5;" x1="1115.5" x2="1221.5" y1="149" y2="149"/><line style="stroke: #A80036; stroke-width: 1.5;" x1="1115.5" x2="1221.5" y1="157" y2="157"/><!--class Role--><rect fill="#0000FF" filter="url(#f1m11rwu09b3ef)" height="48" id="Role" style="stroke: #A80036; stroke-width: 1.5;" width="58" x="1257.5" y="117"/><rect fill="#0000FF" height="32" style="stroke: #A80036; stroke-width: 1.5;" width="58" x="1257.5" y="117"/><ellipse cx="1272.5" cy="133" fill="#ADD1B2" rx="11" ry="11" style="stroke: #A80036; stroke-width: 1.0;"/><path d="M1275.2656,128.875 Q1275.4219,128.6563 1275.6094,128.5469 Q1275.7969,128.4375 1276.0156,128.4375 Q1276.3906,128.4375 1276.625,128.6953 Q1276.8594,128.9531 1276.8594,129.5625 L1276.8594,131.0156 Q1276.8594,131.625 1276.625,131.8906 Q1276.3906,132.1563 1276.0156,132.1563 Q1275.6719,132.1563 1275.4688,131.9531 Q1275.2656,131.7656 1275.1563,131.25 Q1275.1094,130.8906 1274.9219,130.7031 Q1274.5938,130.3281 1273.9844,130.1094 Q1273.375,129.8906 1272.75,129.8906 Q1271.9844,129.8906 1271.3516,130.2188 Q1270.7188,130.5469 1270.2266,131.2969 Q1269.7344,132.0469 1269.7344,133.0781 L1269.7344,134.1719 Q1269.7344,135.4063 1270.625,136.2266 Q1271.5156,137.0469 1273.1094,137.0469 Q1274.0469,137.0469 1274.7031,136.7969 Q1275.0938,136.6406 1275.5156,136.2031 Q1275.7813,135.9375 1275.9297,135.8594 Q1276.0781,135.7813 1276.2813,135.7813 Q1276.6094,135.7813 1276.8672,136.0391 Q1277.125,136.2969 1277.125,136.6406 Q1277.125,136.9844 1276.7813,137.3906 Q1276.2813,137.9688 1275.4844,138.2969 Q1274.4063,138.75 1273.1094,138.75 Q1271.5938,138.75 1270.3906,138.125 Q1269.4063,137.625 1268.7188,136.5547 Q1268.0313,135.4844 1268.0313,134.2031 L1268.0313,133.0469 Q1268.0313,131.7188 1268.6484,130.5703 Q1269.2656,129.4219 1270.3594,128.8047 Q1271.4531,128.1875 1272.6875,128.1875 Q1273.4219,128.1875 1274.0703,128.3516 Q1274.7188,128.5156 1275.2656,128.875 Z "/><text fill="#000000" font-family="sans-serif" font-size="12" lengthAdjust="spacingAndGlyphs" textLength="26" x="1286.5" y="137.9102">Role</text><line style="stroke: #A80036; stroke-width: 1.5;" x1="1258.5" x2="1314.5" y1="149" y2="149"/><line style="stroke: #A80036; stroke-width: 1.5;" x1="1258.5" x2="1314.5" y1="157" y2="157"/><!--class ModelUseCases--><rect fill="#008000" filter="url(#f1m11rwu09b3ef)" height="48" id="ModelUseCases" style="stroke: #A80036; stroke-width: 1.5;" width="125" x="6" y="352"/><rect fill="#008000" height="32" style="stroke: #A80036; stroke-width: 1.5;" width="125" x="6" y="352"/><ellipse cx="21" cy="368" fill="#ADD1B2" rx="11" ry="11" style="stroke: #A80036; stroke-width: 1.0;"/><path d="M23.7656,363.875 Q23.9219,363.6563 24.1094,363.5469 Q24.2969,363.4375 24.5156,363.4375 Q24.8906,363.4375 25.125,363.6953 Q25.3594,363.9531 25.3594,364.5625 L25.3594,366.0156 Q25.3594,366.625 25.125,366.8906 Q24.8906,367.1563 24.5156,367.1563 Q24.1719,367.1563 23.9688,366.9531 Q23.7656,366.7656 23.6563,366.25 Q23.6094,365.8906 23.4219,365.7031 Q23.0938,365.3281 22.4844,365.1094 Q21.875,364.8906 21.25,364.8906 Q20.4844,364.8906 19.8516,365.2188 Q19.2188,365.5469 18.7266,366.2969 Q18.2344,367.0469 18.2344,368.0781 L18.2344,369.1719 Q18.2344,370.4063 19.125,371.2266 Q20.0156,372.0469 21.6094,372.0469 Q22.5469,372.0469 23.2031,371.7969 Q23.5938,371.6406 24.0156,371.2031 Q24.2813,370.9375 24.4297,370.8594 Q24.5781,370.7813 24.7813,370.7813 Q25.1094,370.7813 25.3672,371.0391 Q25.625,371.2969 25.625,371.6406 Q25.625,371.9844 25.2813,372.3906 Q24.7813,372.9688 23.9844,373.2969 Q22.9063,373.75 21.6094,373.75 Q20.0938,373.75 18.8906,373.125 Q17.9063,372.625 17.2188,371.5547 Q16.5313,370.4844 16.5313,369.2031 L16.5313,368.0469 Q16.5313,366.7188 17.1484,365.5703 Q17.7656,364.4219 18.8594,363.8047 Q19.9531,363.1875 21.1875,363.1875 Q21.9219,363.1875 22.5703,363.3516 Q23.2188,363.5156 23.7656,363.875 Z "/><text fill="#000000" font-family="sans-serif" font-size="12" lengthAdjust="spacingAndGlyphs" textLength="93" x="35" y="372.9102">ModelUseCases</text><line style="stroke: #A80036; stroke-width: 1.5;" x1="7" x2="130" y1="384" y2="384"/><line style="stroke: #A80036; stroke-width: 1.5;" x1="7" x2="130" y1="392" y2="392"/><!--class RequirementsSupplementary--><rect fill="#008000" filter="url(#f1m11rwu09b3ef)" height="48" id="RequirementsSupplementary" style="stroke: #A80036; stroke-width: 1.5;" width="194" x="166.5" y="352"/><rect fill="#008000" height="32" style="stroke: #A80036; stroke-width: 1.5;" width="194" x="166.5" y="352"/><ellipse cx="181.5" cy="368" fill="#ADD1B2" rx="11" ry="11" style="stroke: #A80036; stroke-width: 1.0;"/><path d="M184.2656,363.875 Q184.4219,363.6563 184.6094,363.5469 Q184.7969,363.4375 185.0156,363.4375 Q185.3906,363.4375 185.625,363.6953 Q185.8594,363.9531 185.8594,364.5625 L185.8594,366.0156 Q185.8594,366.625 185.625,366.8906 Q185.3906,367.1563 185.0156,367.1563 Q184.6719,367.1563 184.4688,366.9531 Q184.2656,366.7656 184.1563,366.25 Q184.1094,365.8906 183.9219,365.7031 Q183.5938,365.3281 182.9844,365.1094 Q182.375,364.8906 181.75,364.8906 Q180.9844,364.8906 180.3516,365.2188 Q179.7188,365.5469 179.2266,366.2969 Q178.7344,367.0469 178.7344,368.0781 L178.7344,369.1719 Q178.7344,370.4063 179.625,371.2266 Q180.5156,372.0469 182.1094,372.0469 Q183.0469,372.0469 183.7031,371.7969 Q184.0938,371.6406 184.5156,371.2031 Q184.7813,370.9375 184.9297,370.8594 Q185.0781,370.7813 185.2813,370.7813 Q185.6094,370.7813 185.8672,371.0391 Q186.125,371.2969 186.125,371.6406 Q186.125,371.9844 185.7813,372.3906 Q185.2813,372.9688 184.4844,373.2969 Q183.4063,373.75 182.1094,373.75 Q180.5938,373.75 179.3906,373.125 Q178.4063,372.625 177.7188,371.5547 Q177.0313,370.4844 177.0313,369.2031 L177.0313,368.0469 Q177.0313,366.7188 177.6484,365.5703 Q178.2656,364.4219 179.3594,363.8047 Q180.4531,363.1875 181.6875,363.1875 Q182.4219,363.1875 183.0703,363.3516 Q183.7188,363.5156 184.2656,363.875 Z "/><text fill="#000000" font-family="sans-serif" font-size="12" lengthAdjust="spacingAndGlyphs" textLength="162" x="195.5" y="372.9102">RequirementsSupplementary</text><line style="stroke: #A80036; stroke-width: 1.5;" x1="167.5" x2="359.5" y1="384" y2="384"/><line style="stroke: #A80036; stroke-width: 1.5;" x1="167.5" x2="359.5" y1="392" y2="392"/><!--class DomainModel--><rect fill="#008000" filter="url(#f1m11rwu09b3ef)" height="48" id="DomainModel" style="stroke: #A80036; stroke-width: 1.5;" width="109" x="396" y="352"/><rect fill="#008000" height="32" style="stroke: #A80036; stroke-width: 1.5;" width="109" x="396" y="352"/><ellipse cx="411" cy="368" fill="#ADD1B2" rx="11" ry="11" style="stroke: #A80036; stroke-width: 1.0;"/><path d="M413.7656,363.875 Q413.9219,363.6563 414.1094,363.5469 Q414.2969,363.4375 414.5156,363.4375 Q414.8906,363.4375 415.125,363.6953 Q415.3594,363.9531 415.3594,364.5625 L415.3594,366.0156 Q415.3594,366.625 415.125,366.8906 Q414.8906,367.1563 414.5156,367.1563 Q414.1719,367.1563 413.9688,366.9531 Q413.7656,366.7656 413.6563,366.25 Q413.6094,365.8906 413.4219,365.7031 Q413.0938,365.3281 412.4844,365.1094 Q411.875,364.8906 411.25,364.8906 Q410.4844,364.8906 409.8516,365.2188 Q409.2188,365.5469 408.7266,366.2969 Q408.2344,367.0469 408.2344,368.0781 L408.2344,369.1719 Q408.2344,370.4063 409.125,371.2266 Q410.0156,372.0469 411.6094,372.0469 Q412.5469,372.0469 413.2031,371.7969 Q413.5938,371.6406 414.0156,371.2031 Q414.2813,370.9375 414.4297,370.8594 Q414.5781,370.7813 414.7813,370.7813 Q415.1094,370.7813 415.3672,371.0391 Q415.625,371.2969 415.625,371.6406 Q415.625,371.9844 415.2813,372.3906 Q414.7813,372.9688 413.9844,373.2969 Q412.9063,373.75 411.6094,373.75 Q410.0938,373.75 408.8906,373.125 Q407.9063,372.625 407.2188,371.5547 Q406.5313,370.4844 406.5313,369.2031 L406.5313,368.0469 Q406.5313,366.7188 407.1484,365.5703 Q407.7656,364.4219 408.8594,363.8047 Q409.9531,363.1875 411.1875,363.1875 Q411.9219,363.1875 412.5703,363.3516 Q413.2188,363.5156 413.7656,363.875 Z "/><text fill="#000000" font-family="sans-serif" font-size="12" lengthAdjust="spacingAndGlyphs" textLength="77" x="425" y="372.9102">DomainModel</text><line style="stroke: #A80036; stroke-width: 1.5;" x1="397" x2="504" y1="384" y2="384"/><line style="stroke: #A80036; stroke-width: 1.5;" x1="397" x2="504" y1="392" y2="392"/><!--class ArchitectureDescriptionX--><rect fill="#008000" filter="url(#f1m11rwu09b3ef)" height="48" id="ArchitectureDescriptionX" style="stroke: #A80036; stroke-width: 1.5;" width="265" x="540" y="352"/><rect fill="#008000" height="32" style="stroke: #A80036; stroke-width: 1.5;" width="265" x="540" y="352"/><ellipse cx="555" cy="368" fill="#ADD1B2" rx="11" ry="11" style="stroke: #A80036; stroke-width: 1.0;"/><path d="M557.7656,363.875 Q557.9219,363.6563 558.1094,363.5469 Q558.2969,363.4375 558.5156,363.4375 Q558.8906,363.4375 559.125,363.6953 Q559.3594,363.9531 559.3594,364.5625 L559.3594,366.0156 Q559.3594,366.625 559.125,366.8906 Q558.8906,367.1563 558.5156,367.1563 Q558.1719,367.1563 557.9688,366.9531 Q557.7656,366.7656 557.6563,366.25 Q557.6094,365.8906 557.4219,365.7031 Q557.0938,365.3281 556.4844,365.1094 Q555.875,364.8906 555.25,364.8906 Q554.4844,364.8906 553.8516,365.2188 Q553.2188,365.5469 552.7266,366.2969 Q552.2344,367.0469 552.2344,368.0781 L552.2344,369.1719 Q552.2344,370.4063 553.125,371.2266 Q554.0156,372.0469 555.6094,372.0469 Q556.5469,372.0469 557.2031,371.7969 Q557.5938,371.6406 558.0156,371.2031 Q558.2813,370.9375 558.4297,370.8594 Q558.5781,370.7813 558.7813,370.7813 Q559.1094,370.7813 559.3672,371.0391 Q559.625,371.2969 559.625,371.6406 Q559.625,371.9844 559.2813,372.3906 Q558.7813,372.9688 557.9844,373.2969 Q556.9063,373.75 555.6094,373.75 Q554.0938,373.75 552.8906,373.125 Q551.9063,372.625 551.2188,371.5547 Q550.5313,370.4844 550.5313,369.2031 L550.5313,368.0469 Q550.5313,366.7188 551.1484,365.5703 Q551.7656,364.4219 552.8594,363.8047 Q553.9531,363.1875 555.1875,363.1875 Q555.9219,363.1875 556.5703,363.3516 Q557.2188,363.5156 557.7656,363.875 Z "/><text fill="#000000" font-family="sans-serif" font-size="12" lengthAdjust="spacingAndGlyphs" textLength="233" x="569" y="372.9102">Architecture Description (Use Case Model)</text><line style="stroke: #A80036; stroke-width: 1.5;" x1="541" x2="804" y1="384" y2="384"/><line style="stroke: #A80036; stroke-width: 1.5;" x1="541" x2="804" y1="392" y2="392"/><!--class AnalysisPackage--><rect fill="#008000" filter="url(#f1m11rwu09b3ef)" height="48" id="AnalysisPackage" style="stroke: #A80036; stroke-width: 1.5;" width="177" x="840" y="352"/><rect fill="#008000" height="32" style="stroke: #A80036; stroke-width: 1.5;" width="177" x="840" y="352"/><ellipse cx="855" cy="368" fill="#ADD1B2" rx="11" ry="11" style="stroke: #A80036; stroke-width: 1.0;"/><path d="M857.7656,363.875 Q857.9219,363.6563 858.1094,363.5469 Q858.2969,363.4375 858.5156,363.4375 Q858.8906,363.4375 859.125,363.6953 Q859.3594,363.9531 859.3594,364.5625 L859.3594,366.0156 Q859.3594,366.625 859.125,366.8906 Q858.8906,367.1563 858.5156,367.1563 Q858.1719,367.1563 857.9688,366.9531 Q857.7656,366.7656 857.6563,366.25 Q857.6094,365.8906 857.4219,365.7031 Q857.0938,365.3281 856.4844,365.1094 Q855.875,364.8906 855.25,364.8906 Q854.4844,364.8906 853.8516,365.2188 Q853.2188,365.5469 852.7266,366.2969 Q852.2344,367.0469 852.2344,368.0781 L852.2344,369.1719 Q852.2344,370.4063 853.125,371.2266 Q854.0156,372.0469 855.6094,372.0469 Q856.5469,372.0469 857.2031,371.7969 Q857.5938,371.6406 858.0156,371.2031 Q858.2813,370.9375 858.4297,370.8594 Q858.5781,370.7813 858.7813,370.7813 Q859.1094,370.7813 859.3672,371.0391 Q859.625,371.2969 859.625,371.6406 Q859.625,371.9844 859.2813,372.3906 Q858.7813,372.9688 857.9844,373.2969 Q856.9063,373.75 855.6094,373.75 Q854.0938,373.75 852.8906,373.125 Q851.9063,372.625 851.2188,371.5547 Q850.5313,370.4844 850.5313,369.2031 L850.5313,368.0469 Q850.5313,366.7188 851.1484,365.5703 Q851.7656,364.4219 852.8594,363.8047 Q853.9531,363.1875 855.1875,363.1875 Q855.9219,363.1875 856.5703,363.3516 Q857.2188,363.5156 857.7656,363.875 Z "/><text fill="#000000" font-family="sans-serif" font-size="12" lengthAdjust="spacingAndGlyphs" textLength="145" x="869" y="372.9102">Analysis Package (outline)</text><line style="stroke: #A80036; stroke-width: 1.5;" x1="841" x2="1016" y1="384" y2="384"/><line style="stroke: #A80036; stroke-width: 1.5;" x1="841" x2="1016" y1="392" y2="392"/><!--class AnalysisClasses--><rect fill="#008000" filter="url(#f1m11rwu09b3ef)" height="48" id="AnalysisClasses" style="stroke: #A80036; stroke-width: 1.5;" width="176" x="1052.5" y="352"/><rect fill="#008000" height="32" style="stroke: #A80036; stroke-width: 1.5;" width="176" x="1052.5" y="352"/><ellipse cx="1067.5" cy="368" fill="#ADD1B2" rx="11" ry="11" style="stroke: #A80036; stroke-width: 1.0;"/><path d="M1070.2656,363.875 Q1070.4219,363.6563 1070.6094,363.5469 Q1070.7969,363.4375 1071.0156,363.4375 Q1071.3906,363.4375 1071.625,363.6953 Q1071.8594,363.9531 1071.8594,364.5625 L1071.8594,366.0156 Q1071.8594,366.625 1071.625,366.8906 Q1071.3906,367.1563 1071.0156,367.1563 Q1070.6719,367.1563 1070.4688,366.9531 Q1070.2656,366.7656 1070.1563,366.25 Q1070.1094,365.8906 1069.9219,365.7031 Q1069.5938,365.3281 1068.9844,365.1094 Q1068.375,364.8906 1067.75,364.8906 Q1066.9844,364.8906 1066.3516,365.2188 Q1065.7188,365.5469 1065.2266,366.2969 Q1064.7344,367.0469 1064.7344,368.0781 L1064.7344,369.1719 Q1064.7344,370.4063 1065.625,371.2266 Q1066.5156,372.0469 1068.1094,372.0469 Q1069.0469,372.0469 1069.7031,371.7969 Q1070.0938,371.6406 1070.5156,371.2031 Q1070.7813,370.9375 1070.9297,370.8594 Q1071.0781,370.7813 1071.2813,370.7813 Q1071.6094,370.7813 1071.8672,371.0391 Q1072.125,371.2969 1072.125,371.6406 Q1072.125,371.9844 1071.7813,372.3906 Q1071.2813,372.9688 1070.4844,373.2969 Q1069.4063,373.75 1068.1094,373.75 Q1066.5938,373.75 1065.3906,373.125 Q1064.4063,372.625 1063.7188,371.5547 Q1063.0313,370.4844 1063.0313,369.2031 L1063.0313,368.0469 Q1063.0313,366.7188 1063.6484,365.5703 Q1064.2656,364.4219 1065.3594,363.8047 Q1066.4531,363.1875 1067.6875,363.1875 Q1068.4219,363.1875 1069.0703,363.3516 Q1069.7188,363.5156 1070.2656,363.875 Z "/><text fill="#000000" font-family="sans-serif" font-size="12" lengthAdjust="spacingAndGlyphs" textLength="144" x="1081.5" y="372.9102">Analysis Classes (outline)</text><line style="stroke: #A80036; stroke-width: 1.5;" x1="1053.5" x2="1227.5" y1="384" y2="384"/><line style="stroke: #A80036; stroke-width: 1.5;" x1="1053.5" x2="1227.5" y1="392" y2="392"/><!--class ArchitectureDescription--><rect fill="#008000" filter="url(#f1m11rwu09b3ef)" height="48" id="ArchitectureDescription" style="stroke: #A80036; stroke-width: 1.5;" width="288" x="1263.5" y="352"/><rect fill="#008000" height="32" style="stroke: #A80036; stroke-width: 1.5;" width="288" x="1263.5" y="352"/><ellipse cx="1278.5" cy="368" fill="#ADD1B2" rx="11" ry="11" style="stroke: #A80036; stroke-width: 1.0;"/><path d="M1281.2656,363.875 Q1281.4219,363.6563 1281.6094,363.5469 Q1281.7969,363.4375 1282.0156,363.4375 Q1282.3906,363.4375 1282.625,363.6953 Q1282.8594,363.9531 1282.8594,364.5625 L1282.8594,366.0156 Q1282.8594,366.625 1282.625,366.8906 Q1282.3906,367.1563 1282.0156,367.1563 Q1281.6719,367.1563 1281.4688,366.9531 Q1281.2656,366.7656 1281.1563,366.25 Q1281.1094,365.8906 1280.9219,365.7031 Q1280.5938,365.3281 1279.9844,365.1094 Q1279.375,364.8906 1278.75,364.8906 Q1277.9844,364.8906 1277.3516,365.2188 Q1276.7188,365.5469 1276.2266,366.2969 Q1275.7344,367.0469 1275.7344,368.0781 L1275.7344,369.1719 Q1275.7344,370.4063 1276.625,371.2266 Q1277.5156,372.0469 1279.1094,372.0469 Q1280.0469,372.0469 1280.7031,371.7969 Q1281.0938,371.6406 1281.5156,371.2031 Q1281.7813,370.9375 1281.9297,370.8594 Q1282.0781,370.7813 1282.2813,370.7813 Q1282.6094,370.7813 1282.8672,371.0391 Q1283.125,371.2969 1283.125,371.6406 Q1283.125,371.9844 1282.7813,372.3906 Q1282.2813,372.9688 1281.4844,373.2969 Q1280.4063,373.75 1279.1094,373.75 Q1277.5938,373.75 1276.3906,373.125 Q1275.4063,372.625 1274.7188,371.5547 Q1274.0313,370.4844 1274.0313,369.2031 L1274.0313,368.0469 Q1274.0313,366.7188 1274.6484,365.5703 Q1275.2656,364.4219 1276.3594,363.8047 Q1277.4531,363.1875 1278.6875,363.1875 Q1279.4219,363.1875 1280.0703,363.3516 Q1280.7188,363.5156 1281.2656,363.875 Z "/><text fill="#000000" font-family="sans-serif" font-size="12" lengthAdjust="spacingAndGlyphs" textLength="256" x="1292.5" y="372.9102">Architecture Description (of the Analysis Model)</text><line style="stroke: #A80036; stroke-width: 1.5;" x1="1264.5" x2="1550.5" y1="384" y2="384"/><line style="stroke: #A80036; stroke-width: 1.5;" x1="1264.5" x2="1550.5" y1="392" y2="392"/><!--class AnalyzeRole--><rect fill="#0000FF" filter="url(#f1m11rwu09b3ef)" height="48" id="AnalyzeRole" style="stroke: #A80036; stroke-width: 1.5;" width="99" x="1237" y="226"/><rect fill="#0000FF" height="32" style="stroke: #A80036; stroke-width: 1.5;" width="99" x="1237" y="226"/><ellipse cx="1252" cy="242" fill="#ADD1B2" rx="11" ry="11" style="stroke: #A80036; stroke-width: 1.0;"/><path d="M1254.7656,237.875 Q1254.9219,237.6563 1255.1094,237.5469 Q1255.2969,237.4375 1255.5156,237.4375 Q1255.8906,237.4375 1256.125,237.6953 Q1256.3594,237.9531 1256.3594,238.5625 L1256.3594,240.0156 Q1256.3594,240.625 1256.125,240.8906 Q1255.8906,241.1563 1255.5156,241.1563 Q1255.1719,241.1563 1254.9688,240.9531 Q1254.7656,240.7656 1254.6563,240.25 Q1254.6094,239.8906 1254.4219,239.7031 Q1254.0938,239.3281 1253.4844,239.1094 Q1252.875,238.8906 1252.25,238.8906 Q1251.4844,238.8906 1250.8516,239.2188 Q1250.2188,239.5469 1249.7266,240.2969 Q1249.2344,241.0469 1249.2344,242.0781 L1249.2344,243.1719 Q1249.2344,244.4063 1250.125,245.2266 Q1251.0156,246.0469 1252.6094,246.0469 Q1253.5469,246.0469 1254.2031,245.7969 Q1254.5938,245.6406 1255.0156,245.2031 Q1255.2813,244.9375 1255.4297,244.8594 Q1255.5781,244.7813 1255.7813,244.7813 Q1256.1094,244.7813 1256.3672,245.0391 Q1256.625,245.2969 1256.625,245.6406 Q1256.625,245.9844 1256.2813,246.3906 Q1255.7813,246.9688 1254.9844,247.2969 Q1253.9063,247.75 1252.6094,247.75 Q1251.0938,247.75 1249.8906,247.125 Q1248.9063,246.625 1248.2188,245.5547 Q1247.5313,244.4844 1247.5313,243.2031 L1247.5313,242.0469 Q1247.5313,240.7188 1248.1484,239.5703 Q1248.7656,238.4219 1249.8594,237.8047 Q1250.9531,237.1875 1252.1875,237.1875 Q1252.9219,237.1875 1253.5703,237.3516 Q1254.2188,237.5156 1254.7656,237.875 Z "/><text fill="#000000" font-family="sans-serif" font-size="12" lengthAdjust="spacingAndGlyphs" textLength="67" x="1266" y="246.9102">AnalyzeRole</text><line style="stroke: #A80036; stroke-width: 1.5;" x1="1238" x2="1335" y1="258" y2="258"/><line style="stroke: #A80036; stroke-width: 1.5;" x1="1238" x2="1335" y1="266" y2="266"/><!--class AnalyzeArchitecture--><rect fill="#FF0000" filter="url(#f1m11rwu09b3ef)" height="48" id="AnalyzeArchitecture" style="stroke: #A80036; stroke-width: 1.5;" width="137" x="860" y="226"/><rect fill="#FF0000" height="32" style="stroke: #A80036; stroke-width: 1.5;" width="137" x="860" y="226"/><ellipse cx="875" cy="242" fill="#ADD1B2" rx="11" ry="11" style="stroke: #A80036; stroke-width: 1.0;"/><path d="M877.7656,237.875 Q877.9219,237.6563 878.1094,237.5469 Q878.2969,237.4375 878.5156,237.4375 Q878.8906,237.4375 879.125,237.6953 Q879.3594,237.9531 879.3594,238.5625 L879.3594,240.0156 Q879.3594,240.625 879.125,240.8906 Q878.8906,241.1563 878.5156,241.1563 Q878.1719,241.1563 877.9688,240.9531 Q877.7656,240.7656 877.6563,240.25 Q877.6094,239.8906 877.4219,239.7031 Q877.0938,239.3281 876.4844,239.1094 Q875.875,238.8906 875.25,238.8906 Q874.4844,238.8906 873.8516,239.2188 Q873.2188,239.5469 872.7266,240.2969 Q872.2344,241.0469 872.2344,242.0781 L872.2344,243.1719 Q872.2344,244.4063 873.125,245.2266 Q874.0156,246.0469 875.6094,246.0469 Q876.5469,246.0469 877.2031,245.7969 Q877.5938,245.6406 878.0156,245.2031 Q878.2813,244.9375 878.4297,244.8594 Q878.5781,244.7813 878.7813,244.7813 Q879.1094,244.7813 879.3672,245.0391 Q879.625,245.2969 879.625,245.6406 Q879.625,245.9844 879.2813,246.3906 Q878.7813,246.9688 877.9844,247.2969 Q876.9063,247.75 875.6094,247.75 Q874.0938,247.75 872.8906,247.125 Q871.9063,246.625 871.2188,245.5547 Q870.5313,244.4844 870.5313,243.2031 L870.5313,242.0469 Q870.5313,240.7188 871.1484,239.5703 Q871.7656,238.4219 872.8594,237.8047 Q873.9531,237.1875 875.1875,237.1875 Q875.9219,237.1875 876.5703,237.3516 Q877.2188,237.5156 877.7656,237.875 Z "/><text fill="#000000" font-family="sans-serif" font-size="12" lengthAdjust="spacingAndGlyphs" textLength="105" x="889" y="246.9102">AnalyzeArchitecture</text><line style="stroke: #A80036; stroke-width: 1.5;" x1="861" x2="996" y1="258" y2="258"/><line style="stroke: #A80036; stroke-width: 1.5;" x1="861" x2="996" y1="266" y2="266"/><!--class Architect--><rect fill="#0000FF" filter="url(#f1m11rwu09b3ef)" height="48" id="Architect" style="stroke: #A80036; stroke-width: 1.5;" width="78" x="1586.5" y="352"/><rect fill="#0000FF" height="32" style="stroke: #A80036; stroke-width: 1.5;" width="78" x="1586.5" y="352"/><ellipse cx="1601.5" cy="368" fill="#ADD1B2" rx="11" ry="11" style="stroke: #A80036; stroke-width: 1.0;"/><path d="M1604.2656,363.875 Q1604.4219,363.6563 1604.6094,363.5469 Q1604.7969,363.4375 1605.0156,363.4375 Q1605.3906,363.4375 1605.625,363.6953 Q1605.8594,363.9531 1605.8594,364.5625 L1605.8594,366.0156 Q1605.8594,366.625 1605.625,366.8906 Q1605.3906,367.1563 1605.0156,367.1563 Q1604.6719,367.1563 1604.4688,366.9531 Q1604.2656,366.7656 1604.1563,366.25 Q1604.1094,365.8906 1603.9219,365.7031 Q1603.5938,365.3281 1602.9844,365.1094 Q1602.375,364.8906 1601.75,364.8906 Q1600.9844,364.8906 1600.3516,365.2188 Q1599.7188,365.5469 1599.2266,366.2969 Q1598.7344,367.0469 1598.7344,368.0781 L1598.7344,369.1719 Q1598.7344,370.4063 1599.625,371.2266 Q1600.5156,372.0469 1602.1094,372.0469 Q1603.0469,372.0469 1603.7031,371.7969 Q1604.0938,371.6406 1604.5156,371.2031 Q1604.7813,370.9375 1604.9297,370.8594 Q1605.0781,370.7813 1605.2813,370.7813 Q1605.6094,370.7813 1605.8672,371.0391 Q1606.125,371.2969 1606.125,371.6406 Q1606.125,371.9844 1605.7813,372.3906 Q1605.2813,372.9688 1604.4844,373.2969 Q1603.4063,373.75 1602.1094,373.75 Q1600.5938,373.75 1599.3906,373.125 Q1598.4063,372.625 1597.7188,371.5547 Q1597.0313,370.4844 1597.0313,369.2031 L1597.0313,368.0469 Q1597.0313,366.7188 1597.6484,365.5703 Q1598.2656,364.4219 1599.3594,363.8047 Q1600.4531,363.1875 1601.6875,363.1875 Q1602.4219,363.1875 1603.0703,363.3516 Q1603.7188,363.5156 1604.2656,363.875 Z "/><text fill="#000000" font-family="sans-serif" font-size="12" lengthAdjust="spacingAndGlyphs" textLength="46" x="1615.5" y="372.9102">Architect</text><line style="stroke: #A80036; stroke-width: 1.5;" x1="1587.5" x2="1663.5" y1="384" y2="384"/><line style="stroke: #A80036; stroke-width: 1.5;" x1="1587.5" x2="1663.5" y1="392" y2="392"/><!--link Activity to AnalyzeActivity--><path d="M1204.21,74.127 C1196.36,88.602 1187.82,104.357 1181.06,116.828 " fill="none" id="Activity-AnalyzeActivity" style="stroke: #A80036; stroke-width: 1.0;"/><polygon fill="none" points="1198.23,70.465,1213.91,56.217,1210.54,77.136,1198.23,70.465" style="stroke: #A80036; stroke-width: 1.0;"/><!--link Activity to Role--><path d="M1239.52,56.217 C1248.72,72.623 1261.09,94.692 1270.83,112.062 " fill="none" id="Activity-Role" style="stroke: #A80036; stroke-width: 1.0;"/><polygon fill="#A80036" points="1273.51,116.828,1272.6065,107.0207,1271.0687,112.4645,1265.6249,110.9267,1273.51,116.828" style="stroke: #A80036; stroke-width: 1.0;"/><!--link AnalyzeActivity to AnalyzeRole--><path d="M1194.1,165.217 C1212.66,182.043 1237.79,204.827 1257.15,222.389 " fill="none" id="AnalyzeActivity-AnalyzeRole" style="stroke: #A80036; stroke-width: 1.0;"/><polygon fill="#A80036" points="1260.95,225.828,1256.9674,216.8203,1257.2451,222.4703,1251.5951,222.7481,1260.95,225.828" style="stroke: #A80036; stroke-width: 1.0;"/><!--link AnalyzeActivity to AnalyzeArchitecture--><path d="M1098.34,173.28 C1060.54,190.134 1014.71,210.566 980.188,225.956 " fill="none" id="AnalyzeActivity-AnalyzeArchitecture" style="stroke: #A80036; stroke-width: 1.0;"/><polygon fill="none" points="1095.6,166.836,1116.72,165.086,1101.3,179.623,1095.6,166.836" style="stroke: #A80036; stroke-width: 1.0;"/><!--link AnalyzeArchitecture to ModelUseCases--><path d="M859.831,256.316 C723.26,267.672 408.318,297.786 148.5,352 C144.433,352.8487 140.27,353.7968 136.085,354.8114 " fill="none" id="AnalyzeArchitecture-ModelUseCases" style="stroke: #A80036; stroke-width: 1.0;"/><polygon fill="#A80036" points="131.165,356.0309,140.8634,357.7456,136.0178,354.8267,138.9367,349.9811,131.165,356.0309" style="stroke: #A80036; stroke-width: 1.0;"/><text fill="#000000" font-family="sans-serif" font-size="13" lengthAdjust="spacingAndGlyphs" textLength="10" x="426.5" y="318.4951">in</text><!--link AnalyzeArchitecture to RequirementsSupplementary--><path d="M859.841,262.632 C798.385,273.133 705.849,289.167 625.5,304 C515.527,324.3019 488.219,330.3673 378.5,352 C374.336,352.8209 370.088,353.6607 365.797,354.5107 " fill="none" id="AnalyzeArchitecture-RequirementsSupplementary" style="stroke: #A80036; stroke-width: 1.0;"/><polygon fill="#A80036" points="360.742,355.5128,370.3477,357.688,365.6467,354.5413,368.7933,349.8404,360.742,355.5128" style="stroke: #A80036; stroke-width: 1.0;"/><text fill="#000000" font-family="sans-serif" font-size="13" lengthAdjust="spacingAndGlyphs" textLength="10" x="626.5" y="318.4951">in</text><!--link AnalyzeArchitecture to DomainModel--><path d="M859.896,266.622 C778.878,285.403 640.24,318.5879 522.5,352 C518.417,353.1587 514.216,354.3917 509.993,355.6618 " fill="none" id="AnalyzeArchitecture-DomainModel" style="stroke: #A80036; stroke-width: 1.0;"/><polygon fill="#A80036" points="505.031,357.1676,514.8046,358.3827,509.8157,355.7161,512.4823,350.7272,505.031,357.1676" style="stroke: #A80036; stroke-width: 1.0;"/><text fill="#000000" font-family="sans-serif" font-size="13" lengthAdjust="spacingAndGlyphs" textLength="10" x="701.5" y="318.4951">in</text><!--link AnalyzeArchitecture to ArchitectureDescriptionX--><path d="M880.948,274.033 C836.633,295.498 770.683,327.4425 724.877,349.6298 " fill="none" id="AnalyzeArchitecture-ArchitectureDescriptionX" style="stroke: #A80036; stroke-width: 1.0;"/><polygon fill="#A80036" points="720.231,351.8804,730.0746,351.5588,724.7313,349.7016,726.5885,344.3583,720.231,351.8804" style="stroke: #A80036; stroke-width: 1.0;"/><text fill="#000000" font-family="sans-serif" font-size="13" lengthAdjust="spacingAndGlyphs" textLength="10" x="817.5" y="318.4951">in</text><!--link AnalyzeArchitecture to AnalysisPackage--><path d="M928.5,274.033 C928.5,294.522 928.5,324.5607 928.5,346.5464 " fill="none" id="AnalyzeArchitecture-AnalysisPackage" style="stroke: #A80036; stroke-width: 1.0;"/><polygon fill="#A80036" points="928.5,351.6697,932.5,342.6697,928.5,346.6697,924.5,342.6697,928.5,351.6697" style="stroke: #A80036; stroke-width: 1.0;"/><text fill="#000000" font-family="sans-serif" font-size="13" lengthAdjust="spacingAndGlyphs" textLength="18" x="929.5" y="318.4951">out</text><!--link AnalyzeArchitecture to AnalysisClasses--><path d="M967.879,274.033 C1004.355,295.368 1058.53,327.0557 1096.43,349.2253 " fill="none" id="AnalyzeArchitecture-AnalysisClasses" style="stroke: #A80036; stroke-width: 1.0;"/><polygon fill="#A80036" points="1100.97,351.8804,1095.2265,343.8796,1096.6559,349.3529,1091.1826,350.7822,1100.97,351.8804" style="stroke: #A80036; stroke-width: 1.0;"/><text fill="#000000" font-family="sans-serif" font-size="13" lengthAdjust="spacingAndGlyphs" textLength="18" x="1048.5" y="318.4951">out</text><!--link AnalyzeArchitecture to ArchitectureDescription--><path d="M997.129,268.766 C1080.23,290.279 1220.61,326.6189 1313.67,350.7097 " fill="none" id="AnalyzeArchitecture-ArchitectureDescription" style="stroke: #A80036; stroke-width: 1.0;"/><polygon fill="#A80036" points="1318.62,351.9909,1310.9145,345.8569,1313.7806,350.734,1308.9035,353.6001,1318.62,351.9909" style="stroke: #A80036; stroke-width: 1.0;"/><text fill="#000000" font-family="sans-serif" font-size="13" lengthAdjust="spacingAndGlyphs" textLength="18" x="1198.5" y="318.4951">out</text><!--link AnalyzeArchitecture to Architect--><path d="M997.311,256.696 C1115.73,267.636 1364.96,295.663 1568.5,352 C1572.8,353.1916 1577.23,354.6084 1581.61,356.1449 " fill="none" id="AnalyzeArchitecture-Architect" style="stroke: #A80036; stroke-width: 1.0;"/><polygon fill="#A80036" points="1586.35,357.8543,1579.2458,351.033,1581.6478,356.1546,1576.5262,358.5566,1586.35,357.8543" style="stroke: #A80036; stroke-width: 1.0;"/><!--link Role to AnalyzeRole--><path d="M1286.5,185.578 C1286.5,199.362 1286.5,214.057 1286.5,225.828 " fill="none" id="Role-AnalyzeRole" style="stroke: #A80036; stroke-width: 1.0;"/><polygon fill="none" points="1279.5,185.217,1286.5,165.217,1293.5,185.217,1279.5,185.217" style="stroke: #A80036; stroke-width: 1.0;"/><!--link AnalyzeRole to Architect--><path d="M1356.38,255.788 C1409.91,261.682 1484.35,274.807 1543.5,304 C1567.14,315.6685 1589.45,335.8088 1604.81,351.665 " fill="none" id="AnalyzeRole-Architect" style="stroke: #A80036; stroke-width: 1.0;"/><polygon fill="none" points="1355.48,262.733,1336.26,253.803,1356.85,248.8,1355.48,262.733" style="stroke: #A80036; stroke-width: 1.0;"/><!--
@startuml

class Activity #red
Activity <|- - AnalyzeActivity
Activity - -> Role

class ModelUseCases #green
class RequirementsSupplementary #green
class DomainModel #green
class "Architecture Description (Use Case Model)" as ArchitectureDescriptionX  #green
class "Analysis Package (outline)" as AnalysisPackage #green
class "Analysis Classes (outline)" as AnalysisClasses  #green
class "Architecture Description (of the Analysis Model)" as ArchitectureDescription  #green


class AnalyzeActivity #red
AnalyzeActivity - -> AnalyzeRole

class AnalyzeArchitecture #red
AnalyzeActivity <|- - AnalyzeArchitecture

AnalyzeArchitecture - -> ModelUseCases :in
AnalyzeArchitecture - -> RequirementsSupplementary :in
AnalyzeArchitecture - -> DomainModel :in
AnalyzeArchitecture - -> ArchitectureDescriptionX :in
AnalyzeArchitecture - -> AnalysisPackage :out
AnalyzeArchitecture - -> AnalysisClasses :out
AnalyzeArchitecture - -> ArchitectureDescription :out


AnalyzeArchitecture - -> Architect

class Role #blue
class AnalyzeRole #blue
class Architect #blue

Role <|- - AnalyzeRole
AnalyzeRole <|- - Architect
@enduml

PlantUML version 1.2019.05(Sat Apr 20 18:45:36 CEST 2019)
(GPL source distribution)
Java Runtime: OpenJDK Runtime Environment
JVM: OpenJDK 64-Bit Server VM
Java Version: 1.8.0_222-b10
Operating System: Windows 10
OS Version: 10.0
Default Encoding: windows-1252
Language: es
Country: ES
--></g></svg>