<?xml version="1.0" encoding="UTF-8" standalone="no"?><svg xmlns="http://www.w3.org/2000/svg" xmlns:xlink="http://www.w3.org/1999/xlink" contentScriptType="application/ecmascript" contentStyleType="text/css" height="1231px" preserveAspectRatio="none" style="width:1392px;height:1231px;background:#222222;" version="1.1" viewBox="0 0 1392 1231" width="1392px" zoomAndPan="magnify"><defs/><g><text fill="#FFA500" font-family="courier" font-size="15" font-style="italic" lengthAdjust="spacingAndGlyphs" textLength="396" x="984" y="16.0806">Universo Santa Tecla - USantaTecla@gmail.com</text><polygon fill="none" points="545.5,23.585,545.5,23.7951,555.4655,23.1706,565.431,23.7782,575.3966,23.9846,585.3621,22.8716,595.3276,23.5072,605.2931,23.1585,615.2586,23.2015,625.2241,23.5168,635.1897,22.8936,645.1552,24.1386,655.1207,22.9547,665.0862,23.3872,675.0517,24.0169,685.0172,23.4992,694.9828,23.6532,704.9483,23.553,714.9138,23.7635,724.8793,23.8241,734.8448,24.1707,744.8103,24.256,754.7759,24.2642,764.7414,23.8396,774.7069,24.0485,784.6724,24.2872,794.6379,22.8638,804.6034,24.2635,814.569,23.2885,824.5345,24.1188,834.5,23.585,834.005,23.585,834.4315,32.8844,835.2416,42.1838,834.4513,51.4832,834.6053,60.7826,834.5,70.082,834.5,70.4207,824.5345,70.4983,814.569,70.0781,804.6034,70.3692,794.6379,69.5096,784.6724,70.3664,774.7069,70.6302,764.7414,70.5266,754.7759,70.6951,744.8103,69.599,734.8448,69.4298,724.8793,69.4606,714.9138,70.0232,704.9483,69.8855,694.9828,70.7634,685.0172,69.9074,675.0517,69.739,665.0862,70.3103,655.1207,69.4152,645.1552,69.5629,635.1897,70.731,625.2241,70.5177,615.2586,70.8165,605.2931,69.7602,595.3276,70.4012,585.3621,70.6725,575.3966,69.6096,565.431,69.9862,555.4655,70.208,545.5,70.082,546.1518,70.082,545.4958,60.7826,545.9626,51.4832,544.9462,42.1838,544.8227,32.8844,545.5,23.585" style="stroke: #FFA500; stroke-width: 5.0;"/><text fill="#FFA500" font-family="arial" font-size="30" font-weight="bold" lengthAdjust="spacingAndGlyphs" textLength="271" x="554.5" y="57.7246">Analysis Discipline</text><!--cluster disciplines--><polygon fill="#222222" points="22,97.082,22,97.2922,32,96.6677,42,97.2753,52,97.4817,62,96.3686,72,97.0043,82,96.6555,92,96.6985,102,97.0139,112,96.3907,122,97.6357,132,96.4518,142,96.8843,152,97.514,162,97.082,161.972,97.0763,163.4223,103.9093,164.7896,110.7252,166.2583,117.562,167.6781,124.3887,169,131.1953,169,131.781,178.9091,131.8664,188.8182,131.8746,198.7273,131.4499,208.6364,131.6589,218.5455,131.8975,228.4545,130.4741,238.3636,131.8738,248.2727,130.8988,258.1818,131.7291,268.0909,130.7003,278,131.1953,277.9315,131.1953,278.7416,141.2339,277.9513,151.2724,278.1053,161.311,278.3386,171.3495,278.4162,181.3881,277.9961,191.4266,278.2872,201.4652,277.4276,211.5037,278.2844,221.5423,278.5482,231.5808,278.4445,241.6194,278.613,251.6579,277.5169,261.6965,277.3478,271.7351,277.3786,281.7736,277.9411,291.8122,277.8035,301.8507,278.6814,311.8893,277.8253,321.9278,277.6569,331.9664,278.2283,342.0049,277.3332,352.0435,278,362.082,278,361.5629,268.1538,362.731,258.3077,362.5177,248.4615,362.8165,238.6154,361.7602,228.7692,362.4012,218.9231,362.6725,209.0769,361.6096,199.2308,361.9862,189.3846,362.208,179.5385,362.7338,169.6923,362.0778,159.8462,362.5446,150,361.5282,140.1538,361.4048,130.3077,362.5856,120.4615,361.3651,110.6154,362.591,100.7692,362.2887,90.9231,361.8141,81.0769,361.7283,71.2308,362.5408,61.3846,361.7827,51.5385,362.6739,41.6923,361.5293,31.8462,362.6995,22,362.082,22.4843,362.082,22.245,352.2672,22.0472,342.4524,22.7266,332.6376,22.6136,322.8228,22.1693,313.008,22.2682,303.1931,21.8697,293.3783,22.7165,283.5635,22.1549,273.7487,22.1726,263.9339,21.3916,254.1191,21.5948,244.3043,22.5307,234.4894,22.4298,224.6746,21.9571,214.8598,21.6778,205.045,21.7811,195.2302,21.3138,185.4154,22.4147,175.6005,22.7396,165.7857,22.5264,155.9709,22.6949,146.1561,21.8633,136.3413,22.0872,126.5265,21.6124,116.7117,22.284,106.8968,22,97.082" style="stroke: #FF0000; stroke-width: 3.0;"/><path d="M22,131.1953 L22,131.4756 L31.8,130.6429 L41.6,131.453 L51.4,131.7282 L61.2,130.2441 L71,131.0917 L80.8,130.6267 L90.6,130.684 L100.4,131.1044 L110.2,130.2735 L120,131.9335 L129.8,130.3549 L139.6,130.9316 L149.4,131.7712 L159.2,131.0809 L169,131.1953 " fill="#222222" style="stroke: #FF0000; stroke-width: 3.0;"/><text fill="#FF0000" font-family="courier" font-size="20" font-weight="bold" lengthAdjust="spacingAndGlyphs" textLength="132" x="27" y="120.1895">disciplines</text><!--cluster activities--><polygon fill="#222222" points="302,245.082,302,245.2922,311.8462,244.6677,321.6923,245.2753,331.5385,245.4817,341.3846,244.3686,351.2308,245.0043,361.0769,244.6555,370.9231,244.6985,380.7692,245.0139,390.6154,244.3907,400.4615,245.6357,410.3077,244.4518,420.1538,244.8843,430,245.082,430.141,245.111,431.372,251.8989,432.8223,258.7319,434.1896,265.5479,435.6583,272.3846,437,279.1953,437,279.4344,447.1667,279.781,457.3333,279.8664,467.5,279.8746,477.6667,279.4499,487.8333,279.6589,498,279.8975,508.1667,278.4741,518.3333,279.8738,528.5,278.8988,538.6667,279.7291,548.8333,278.7003,559,279.1268,569.1667,279.9369,579.3333,279.1466,589.5,279.3006,599.6667,279.5339,609.8333,279.6115,620,279.1914,630.1667,279.4825,640.3333,278.6229,650.5,279.4797,660.6667,279.7435,670.8333,279.6398,681,279.1953,681.613,279.1953,680.5169,289.1939,680.3478,299.1924,680.3786,309.191,680.9411,319.1895,680.8035,329.1881,681.6814,339.1866,680.8253,349.1851,680.6569,359.1837,681.2283,369.1822,680.3332,379.1808,680.4809,389.1793,681.649,399.1779,681.4357,409.1764,681.7345,419.175,680.6782,429.1735,681.3192,439.1721,681.5904,449.1706,680.5276,459.1692,680.9041,469.1677,681.126,479.1663,681.6518,489.1648,680.9958,499.1634,681.4626,509.1619,680.4462,519.1605,680.3227,529.159,681.5036,539.1576,680.2831,549.1561,681.509,559.1546,681.2066,569.1532,680.7321,579.1517,680.6462,589.1503,681.4588,599.1488,680.7007,609.1474,681.5919,619.1459,680.4473,629.1445,681.6174,639.143,681.4843,649.1416,681.245,659.1401,681.0472,669.1387,681.7266,679.1372,681.6136,689.1358,681.1693,699.1343,681.2682,709.1329,680.8697,719.1314,681.7165,729.13,681.1549,739.1285,681.1726,749.1271,680.3916,759.1256,680.5948,769.1241,681.5307,779.1227,681.4298,789.1212,680.9571,799.1198,680.6778,809.1183,680.7811,819.1169,680.3138,829.1154,681.4147,839.114,681.7396,849.1125,681.5264,859.1111,681.6949,869.1096,680.8633,879.1082,681.0872,889.1067,680.6124,899.1053,681.284,909.1038,681.2468,919.1024,681.5524,929.1009,680.7703,939.0995,680.8656,949.098,681.4435,959.0966,681.5673,969.0951,680.4875,979.0936,680.8061,989.0922,681.1493,999.0907,680.3892,1009.0893,681.3534,1019.0878,681.258,1029.0864,680.8992,1039.0849,681.1422,1049.0835,681,1059.082,681,1059.8107,671.0263,1058.7692,661.0526,1059.397,651.0789,1059.3677,641.1053,1059.1978,631.1316,1059.223,621.1579,1059.1955,611.1842,1058.4579,601.2105,1058.6812,591.2368,1058.6205,581.2632,1059.1459,571.2895,1059.1702,561.3158,1059.2438,551.3421,1058.7911,541.3684,1059.0145,531.3947,1058.9618,521.4211,1059.6589,511.4474,1059.5086,501.4737,1058.5965,491.5,1059.0091,481.5263,1058.5048,471.5526,1059.3704,461.5789,1059.6905,451.6053,1059.6266,441.6316,1058.6465,431.6579,1059.546,421.6842,1058.3392,411.7105,1059.2822,401.7368,1058.7827,391.7632,1059.1788,381.7895,1059.3224,371.8158,1059.5541,361.8421,1058.3621,351.8684,1059.5575,341.8947,1059.2602,331.9211,1059.4374,321.9474,1059.8298,311.9737,1059.0875,302,1059.082,302.1753,1059.082,302.2134,1049.0326,302.1972,1038.9833,301.9992,1028.9339,302.7107,1018.8845,301.3903,1008.8351,302.5653,998.7857,301.376,988.7364,301.4597,978.687,302.04,968.6376,302.0283,958.5882,301.5072,948.5388,302.4137,938.4894,302.1089,928.4401,302.7267,918.3907,302.6671,908.3413,301.5517,898.2919,301.6021,888.2425,301.8708,878.1931,302.3555,868.1438,302.403,858.0944,302.3012,848.045,301.658,837.9956,302.6364,827.9462,302.6338,817.8968,301.9527,807.8475,301.7609,797.7981,301.5986,787.7487,301.7854,777.6993,302.1374,767.6499,301.9316,757.6005,301.5822,747.5512,302.4874,737.5018,301.5411,727.4524,302.5024,717.403,302.4272,707.3536,302.3719,697.3043,302.6925,687.2549,301.7541,677.2055,301.6994,667.1561,302.5189,657.1067,301.4031,647.0573,301.766,637.008,302.1155,626.9586,302.0687,616.9092,301.6415,606.8598,301.957,596.8104,302.7446,586.761,302.6485,576.7117,301.4037,566.6623,302.0785,556.6129,301.4861,546.5635,301.9737,536.5141,302.293,526.4647,302.4199,516.4154,301.3353,506.366,302.4005,496.3166,302.0084,486.2672,301.4447,476.2178,301.5289,466.1685,302.3266,456.1191,302.2499,446.0697,301.9836,436.0203,301.3279,425.9709,302.6581,415.9215,301.6882,405.8722,301.4719,395.8228,301.9327,385.7734,302.5897,375.724,302.6154,365.6746,302.0351,355.6252,301.8488,345.5759,302.1698,335.5265,302.1862,325.4771,301.4922,315.4277,302.414,305.3783,302.5588,295.3289,301.7842,285.2796,301.5708,275.2302,302.6746,265.1808,302.021,255.1314,302,245.082" style="stroke: #008000; stroke-width: 3.0;"/><path d="M302,279.1953 L302,279.4756 L311.6429,278.6429 L321.2857,279.453 L330.9286,279.7282 L340.5714,278.2441 L350.2143,279.0917 L359.8571,278.6267 L369.5,278.684 L379.1429,279.1044 L388.7857,278.2735 L398.4286,279.9335 L408.0714,278.3549 L417.7143,278.9316 L427.3571,279.7712 L437,279.1953 " fill="#222222" style="stroke: #008000; stroke-width: 3.0;"/><text fill="#008000" font-family="courier" font-size="20" font-weight="bold" lengthAdjust="spacingAndGlyphs" textLength="120" x="307" y="268.1895">activities</text><!--cluster team--><polygon fill="#222222" points="705,654.082,705,654.2922,714.3333,653.6677,723.6667,654.2753,733,654.4817,742.3333,653.3686,751.6667,654.0043,761,654.082,760.8607,654.0535,762.2748,660.879,763.7777,667.7228,764.9742,674.5037,766.7808,681.4098,768,688.1953,768,687.565,777.9828,687.9975,787.9655,688.6273,797.9483,688.1095,807.931,688.2636,817.9138,688.1634,827.8966,688.3738,837.8793,688.4344,847.8621,688.781,857.8448,688.8664,867.8276,688.8746,877.8103,688.4499,887.7931,688.6589,897.7759,688.8975,907.7586,687.4741,917.7414,688.8738,927.7241,687.8988,937.7069,688.7291,947.6897,687.7003,957.6724,688.1268,967.6552,688.9369,977.6379,688.1466,987.6207,688.3006,997.6034,688.5339,1007.5862,688.6115,1017.569,688.1914,1027.5517,688.4825,1037.5345,687.6229,1047.5172,688.4797,1057.5,688.7435,1067.4828,688.6398,1077.4655,688.8083,1087.4483,687.7122,1097.431,687.5431,1107.4138,687.5739,1117.3966,688.1364,1127.3793,687.9988,1137.3621,688.8767,1147.3448,688.0206,1157.3276,687.8523,1167.3103,688.4236,1177.2931,687.5285,1187.2759,687.6762,1197.2586,688.8443,1207.2414,688.631,1217.2241,688.9298,1227.2069,687.8735,1237.1897,688.5145,1247.1724,688.7857,1257.1552,687.7229,1267.1379,688.0995,1277.1207,688.3213,1287.1034,688.8471,1297.0862,688.1911,1307.069,688.6579,1317.0517,687.6415,1327.0345,687.5181,1337.0172,688.6989,1347,688.1953,1346.2831,688.1953,1347.509,698.1522,1347.2066,708.1091,1346.7321,718.0659,1346.6462,728.0228,1347.4588,737.9797,1346.7007,747.9365,1347.5919,757.8934,1346.4473,767.8503,1347.6174,777.8072,1347.4843,787.764,1347.245,797.7209,1347.0472,807.6778,1347.7266,817.6346,1347.6136,827.5915,1347.1693,837.5484,1347.2682,847.5053,1346.8697,857.4621,1347.7165,867.419,1347.1549,877.3759,1347.1726,887.3327,1346.3916,897.2896,1346.5948,907.2465,1347.5307,917.2034,1347.4298,927.1602,1346.9571,937.1171,1346.6778,947.074,1346.7811,957.0309,1346.3138,966.9877,1347.4147,976.9446,1347.7396,986.9015,1347.5264,996.8583,1347.6949,1006.8152,1346.8633,1016.7721,1347.0872,1026.729,1346.6124,1036.6858,1347.284,1046.6427,1347.2468,1056.5996,1347.5524,1066.5564,1346.7703,1076.5133,1346.8656,1086.4702,1347.4435,1096.4271,1347.5673,1106.3839,1346.4875,1116.3408,1346.8061,1126.2977,1347.1493,1136.2545,1346.3892,1146.2114,1347.3534,1156.1683,1347.258,1166.1252,1347,1176.082,1347,1175.9813,1336.9688,1176.2243,1326.9375,1176.8107,1316.9063,1175.7692,1306.875,1176.397,1296.8438,1176.3677,1286.8125,1176.1978,1276.7813,1176.223,1266.75,1176.1955,1256.7188,1175.4579,1246.6875,1175.6812,1236.6563,1175.6205,1226.625,1176.1459,1216.5938,1176.1702,1206.5625,1176.2438,1196.5313,1175.7911,1186.5,1176.0145,1176.4688,1175.9618,1166.4375,1176.6589,1156.4063,1176.5086,1146.375,1175.5965,1136.3438,1176.0091,1126.3125,1175.5048,1116.2813,1176.3704,1106.25,1176.6905,1096.2188,1176.6266,1086.1875,1175.6465,1076.1563,1176.546,1066.125,1175.3392,1056.0938,1176.2822,1046.0625,1175.7827,1036.0313,1176.1788,1026,1176.3224,1015.9688,1176.5541,1005.9375,1175.3621,995.9063,1176.5575,985.875,1176.2602,975.8438,1176.4374,965.8125,1176.8298,955.7813,1176.0875,945.75,1176.2573,935.7188,1176.2955,925.6875,1176.2793,915.6563,1176.0812,905.625,1176.7927,895.5938,1175.4723,885.5625,1176.6473,875.5313,1175.458,865.5,1175.5417,855.4688,1176.122,845.4375,1176.1103,835.4063,1175.5892,825.375,1176.4957,815.3438,1176.1909,805.3125,1176.8087,795.2813,1176.7491,785.25,1175.6338,775.2188,1175.6841,765.1875,1175.9529,755.1563,1176.4376,745.125,1176.485,735.0938,1176.3832,725.0625,1175.7401,715.0313,1176.7184,705,1176.082,705.6338,1176.082,704.9527,1166.0436,704.7609,1156.0051,704.5986,1145.9666,704.7854,1135.9282,705.1374,1125.8897,704.9316,1115.8513,704.5822,1105.8128,705.4874,1095.7743,704.5411,1085.7359,705.5024,1075.6974,705.4272,1065.659,705.3719,1055.6205,705.6925,1045.582,704.7541,1035.5436,704.6994,1025.5051,705.5189,1015.4666,704.4031,1005.4282,704.766,995.3897,705.1155,985.3513,705.0687,975.3128,704.6415,965.2743,704.957,955.2359,705.7446,945.1974,705.6485,935.159,704.4037,925.1205,705.0785,915.082,704.4861,905.0436,704.9737,895.0051,705.293,884.9666,705.4199,874.9282,704.3353,864.8897,705.4005,854.8513,705.0084,844.8128,704.4447,834.7743,704.5289,824.7359,705.3266,814.6974,705.2499,804.659,704.9836,794.6205,704.3279,784.582,705.6581,774.5436,704.6882,764.5051,704.4719,754.4666,704.9327,744.4282,705.5897,734.3897,705.6154,724.3513,705.0351,714.3128,704.8488,704.2743,705.1698,694.2359,705.1862,684.1974,704.4922,674.159,705.414,664.1205,705,654.082" style="stroke: #0000FF; stroke-width: 3.0;"/><path d="M705,688.1953 L705,688.4756 L715.5,687.6429 L726,688.453 L736.5,688.7282 L747,687.2441 L757.5,688.0917 L768,688.1953 " fill="#222222" style="stroke: #0000FF; stroke-width: 3.0;"/><text fill="#0000FF" font-family="courier" font-size="20" font-weight="bold" lengthAdjust="spacingAndGlyphs" textLength="48" x="710" y="677.1895">team</text><!--class Discipline--><polygon fill="#222222" points="119,144.082,119,144.2922,128.8462,143.6677,138.6923,144.2753,148.5385,144.4817,158.3846,143.3686,168.2308,144.0043,178.0769,143.6555,187.9231,143.6985,197.7692,144.0139,207.6154,143.3907,217.4615,144.6357,227.3077,143.4518,237.1538,143.8843,247,144.082,247.4319,144.082,246.9142,154.9047,247.0682,165.7273,246.9681,176.55,247.1785,187.3727,247,198.1953,247,198.4344,237.1538,198.781,227.3077,198.8664,217.4615,198.8746,207.6154,198.4499,197.7692,198.6589,187.9231,198.8975,178.0769,197.4741,168.2308,198.8738,158.3846,197.8988,148.5385,198.7291,138.6923,197.7003,128.8462,198.1268,119,198.1953,119.7416,198.1953,118.9513,187.3727,119.1053,176.55,119.3386,165.7273,119.4162,154.9047,119,144.082" style="stroke: #FF0000; stroke-width: 3.0;"/><text fill="#FF0000" font-family="courier" font-size="20" font-weight="bold" lengthAdjust="spacingAndGlyphs" textLength="120" x="123" y="170.1895">Discipline</text><path d="M120,182.1953 L120,182.4756 L129.6923,181.6429 L139.3846,182.453 L149.0769,182.7282 L158.7692,181.2441 L168.4615,182.0917 L178.1538,181.6267 L187.8462,181.684 L197.5385,182.1044 L207.2308,181.2735 L216.9231,182.9335 L226.6154,181.3549 L236.3077,181.9316 L246,182.1953 " fill="#222222" style="stroke: #FF0000; stroke-width: 3.0;"/><path d="M120,190.1953 L120,190.4756 L129.6923,189.6429 L139.3846,190.453 L149.0769,190.7282 L158.7692,189.2441 L168.4615,190.0917 L178.1538,189.6267 L187.8462,189.684 L197.5385,190.1044 L207.2308,189.2735 L216.9231,190.9335 L226.6154,189.3549 L236.3077,189.9316 L246,190.1953 " fill="#222222" style="stroke: #FF0000; stroke-width: 3.0;"/><!--class AnalysisDiscipline--><polygon fill="#222222" points="38,292.082,38,292.2922,48.1818,291.6677,58.3636,292.2753,68.5455,292.4817,78.7273,291.3686,88.9091,292.0043,99.0909,291.6555,109.2727,291.6985,119.4545,292.0139,129.6364,291.3907,139.8182,292.6357,150,291.4518,160.1818,291.8843,170.3636,292.514,180.5455,291.9963,190.7273,292.1503,200.9091,292.0501,211.0909,292.2606,221.2727,292.3212,231.4545,292.6677,241.6364,292.7531,251.8182,292.7613,262,292.082,262.2546,292.082,262.4636,302.9047,262.7022,313.7273,261.2788,324.55,262.6785,335.3727,262,346.1953,262,345.8988,251.8182,346.7291,241.6364,345.7003,231.4545,346.1268,221.2727,346.9369,211.0909,346.1466,200.9091,346.3006,190.7273,346.5339,180.5455,346.6115,170.3636,346.1914,160.1818,346.4825,150,345.6229,139.8182,346.4797,129.6364,346.7435,119.4545,346.6398,109.2727,346.8083,99.0909,345.7122,88.9091,345.5431,78.7273,345.5739,68.5455,346.1364,58.3636,345.9988,48.1818,346.8767,38,346.1953,37.8253,346.1953,37.6569,335.3727,38.2283,324.55,37.3332,313.7273,37.4809,302.9047,38,292.082" style="stroke: #FF0000; stroke-width: 3.0;"/><text fill="#FF0000" font-family="courier" font-size="20" font-weight="bold" lengthAdjust="spacingAndGlyphs" textLength="216" x="42" y="318.1895">AnalysisDiscipline</text><path d="M39,330.1953 L39,330.4756 L49.0909,329.6429 L59.1818,330.453 L69.2727,330.7282 L79.3636,329.2441 L89.4545,330.0917 L99.5455,329.6267 L109.6364,329.684 L119.7273,330.1044 L129.8182,329.2735 L139.9091,330.9335 L150,329.3549 L160.0909,329.9316 L170.1818,330.7712 L180.2727,330.0809 L190.3636,330.2863 L200.4545,330.1527 L210.5455,330.4333 L220.6364,330.5142 L230.7273,330.9762 L240.8182,331.0901 L250.9091,331.101 L261,330.1953 " fill="#222222" style="stroke: #FF0000; stroke-width: 3.0;"/><path d="M39,338.1953 L39,338.4756 L49.0909,337.6429 L59.1818,338.453 L69.2727,338.7282 L79.3636,337.2441 L89.4545,338.0917 L99.5455,337.6267 L109.6364,337.684 L119.7273,338.1044 L129.8182,337.2735 L139.9091,338.9335 L150,337.3549 L160.0909,337.9316 L170.1818,338.7712 L180.2727,338.0809 L190.3636,338.2863 L200.4545,338.1527 L210.5455,338.4333 L220.6364,338.5142 L230.7273,338.9762 L240.8182,339.0901 L250.9091,339.101 L261,338.1953 " fill="#222222" style="stroke: #FF0000; stroke-width: 3.0;"/><!--class Activity--><polygon fill="#222222" points="369,292.082,369,292.2922,379.4,291.6677,389.8,292.2753,400.2,292.4817,410.6,291.3686,421,292.0043,431.4,291.6555,441.8,291.6985,452.2,292.0139,462.6,291.3907,473,292.082,473.5536,292.082,472.3697,302.9047,472.8022,313.7273,473.4319,324.55,472.9142,335.3727,473,346.1953,473,346.2636,462.6,346.1634,452.2,346.3738,441.8,346.4344,431.4,346.781,421,346.8664,410.6,346.8746,400.2,346.4499,389.8,346.6589,379.4,346.8975,369,346.1953,368.2788,346.1953,369.6785,335.3727,368.7035,324.55,369.5338,313.7273,368.505,302.9047,369,292.082" style="stroke: #008000; stroke-width: 3.0;"/><text fill="#008000" font-family="courier" font-size="20" font-weight="bold" lengthAdjust="spacingAndGlyphs" textLength="96" x="373" y="318.1895">Activity</text><path d="M370,330.1953 L370,330.4756 L380.2,329.6429 L390.4,330.453 L400.6,330.7282 L410.8,329.2441 L421,330.0917 L431.2,329.6267 L441.4,329.684 L451.6,330.1044 L461.8,329.2735 L472,330.1953 " fill="#222222" style="stroke: #008000; stroke-width: 3.0;"/><path d="M370,338.1953 L370,338.4756 L380.2,337.6429 L390.4,338.453 L400.6,338.7282 L410.8,337.2441 L421,338.0917 L431.2,337.6267 L441.4,337.684 L451.6,338.1044 L461.8,337.2735 L472,338.1953 " fill="#222222" style="stroke: #008000; stroke-width: 3.0;"/><!--class AnalysisActivity--><polygon fill="#222222" points="373,409.082,373,409.2922,383,408.6677,393,409.2753,403,409.4817,413,408.3686,423,409.0043,433,408.6555,443,408.6985,453,409.0139,463,408.3907,473,409.6357,483,408.4518,493,408.8843,503,409.514,513,408.9963,523,409.1503,533,409.0501,543,409.2606,553,409.3212,563,409.6677,573,409.082,573.6711,409.082,573.6793,419.9047,573.2546,430.7273,573.4636,441.55,573.7022,452.3727,573,463.1953,573,462.4741,563,463.8738,553,462.8988,543,463.7291,533,462.7003,523,463.1268,513,463.9369,503,463.1466,493,463.3006,483,463.5339,473,463.6115,463,463.1914,453,463.4825,443,462.6229,433,463.4797,423,463.7435,413,463.6398,403,463.8083,393,462.7122,383,462.5431,373,463.1953,372.3786,463.1953,372.9411,452.3727,372.8035,441.55,373.6814,430.7273,372.8253,419.9047,373,409.082" style="stroke: #008000; stroke-width: 3.0;"/><text fill="#008000" font-family="courier" font-size="20" font-weight="bold" lengthAdjust="spacingAndGlyphs" textLength="192" x="377" y="435.1895">AnalysisActivity</text><path d="M374,447.1953 L374,447.4756 L383.9,446.6429 L393.8,447.453 L403.7,447.7282 L413.6,446.2441 L423.5,447.0917 L433.4,446.6267 L443.3,446.684 L453.2,447.1044 L463.1,446.2735 L473,447.9335 L482.9,446.3549 L492.8,446.9316 L502.7,447.7712 L512.6,447.0809 L522.5,447.2863 L532.4,447.1527 L542.3,447.4333 L552.2,447.5142 L562.1,447.9762 L572,447.1953 " fill="#222222" style="stroke: #008000; stroke-width: 3.0;"/><path d="M374,455.1953 L374,455.4756 L383.9,454.6429 L393.8,455.453 L403.7,455.7282 L413.6,454.2441 L423.5,455.0917 L433.4,454.6267 L443.3,454.684 L453.2,455.1044 L463.1,454.2735 L473,455.9335 L482.9,454.3549 L492.8,454.9316 L502.7,455.7712 L512.6,455.0809 L522.5,455.2863 L532.4,455.1527 L542.3,455.4333 L552.2,455.5142 L562.1,455.9762 L572,455.1953 " fill="#222222" style="stroke: #008000; stroke-width: 3.0;"/><!--class AnalyzeArchitecture--><polygon fill="#222222" points="355,524.082,355,524.2922,364.8333,523.6677,374.6667,524.2753,384.5,524.4817,394.3333,523.3686,404.1667,524.0043,414,523.6555,423.8333,523.6985,433.6667,524.0139,443.5,523.3907,453.3333,524.6357,463.1667,523.4518,473,523.8843,482.8333,524.514,492.6667,523.9963,502.5,524.1503,512.3333,524.0501,522.1667,524.2606,532,524.3212,541.8333,524.6677,551.6667,524.7531,561.5,524.7613,571.3333,524.3367,581.1667,524.5456,591,524.082,591.7022,524.082,590.2788,534.9047,591.6785,545.7273,590.7035,556.55,591.5338,567.3727,591,578.1953,591,577.7003,581.1667,578.1268,571.3333,578.9369,561.5,578.1466,551.6667,578.3006,541.8333,578.5339,532,578.6115,522.1667,578.1914,512.3333,578.4825,502.5,577.6229,492.6667,578.4797,482.8333,578.7435,473,578.6398,463.1667,578.8083,453.3333,577.7122,443.5,577.5431,433.6667,577.5739,423.8333,578.1364,414,577.9988,404.1667,578.8767,394.3333,578.0206,384.5,577.8523,374.6667,578.4236,364.8333,577.5285,355,578.1953,354.4809,578.1953,355.649,567.3727,355.4357,556.55,355.7345,545.7273,354.6782,534.9047,355,524.082" style="stroke: #008000; stroke-width: 3.0;"/><text fill="#008000" font-family="courier" font-size="20" font-weight="bold" lengthAdjust="spacingAndGlyphs" textLength="228" x="359" y="550.1895">AnalyzeArchitecture</text><path d="M356,562.1953 L356,562.4756 L366.1739,561.6429 L376.3478,562.453 L386.5217,562.7282 L396.6957,561.2441 L406.8696,562.0917 L417.0435,561.6267 L427.2174,561.684 L437.3913,562.1044 L447.5652,561.2735 L457.7391,562.9335 L467.913,561.3549 L478.087,561.9316 L488.2609,562.7712 L498.4348,562.0809 L508.6087,562.2863 L518.7826,562.1527 L528.9565,562.4333 L539.1304,562.5142 L549.3043,562.9762 L559.4783,563.0901 L569.6522,563.101 L579.8261,562.5348 L590,562.1953 " fill="#222222" style="stroke: #008000; stroke-width: 3.0;"/><path d="M356,570.1953 L356,570.4756 L366.1739,569.6429 L376.3478,570.453 L386.5217,570.7282 L396.6957,569.2441 L406.8696,570.0917 L417.0435,569.6267 L427.2174,569.684 L437.3913,570.1044 L447.5652,569.2735 L457.7391,570.9335 L467.913,569.3549 L478.087,569.9316 L488.2609,570.7712 L498.4348,570.0809 L508.6087,570.2863 L518.7826,570.1527 L528.9565,570.4333 L539.1304,570.5142 L549.3043,570.9762 L559.4783,571.0901 L569.6522,571.101 L579.8261,570.5348 L590,570.1953 " fill="#222222" style="stroke: #008000; stroke-width: 3.0;"/><!--class AnalyzeUseCases--><polygon fill="#222222" points="397,701.082,397,701.2922,406.8947,700.6677,416.7895,701.2753,426.6842,701.4817,436.5789,700.3686,446.4737,701.0043,456.3684,700.6555,466.2632,700.6985,476.1579,701.0139,486.0526,700.3907,495.9474,701.6357,505.8421,700.4518,515.7368,700.8843,525.6316,701.514,535.5263,700.9963,545.4211,701.1503,555.3158,701.0501,565.2105,701.2606,575.1053,701.3212,585,701.082,585.5857,701.082,585.6711,711.9047,585.6793,722.7273,585.2546,733.55,585.4636,744.3727,585,755.1953,585,755.8975,575.1053,754.4741,565.2105,755.8738,555.3158,754.8988,545.4211,755.7291,535.5263,754.7003,525.6316,755.1268,515.7368,755.9369,505.8421,755.1466,495.9474,755.3006,486.0526,755.5339,476.1579,755.6115,466.2632,755.1914,456.3684,755.4825,446.4737,754.6229,436.5789,755.4797,426.6842,755.7435,416.7895,755.6398,406.8947,755.8083,397,755.1953,396.5169,755.1953,396.3478,744.3727,396.3786,733.55,396.9411,722.7273,396.8035,711.9047,397,701.082" style="stroke: #008000; stroke-width: 3.0;"/><text fill="#008000" font-family="courier" font-size="20" font-weight="bold" lengthAdjust="spacingAndGlyphs" textLength="180" x="401" y="727.1895">AnalyzeUseCases</text><path d="M398,739.1953 L398,739.4756 L407.7895,738.6429 L417.5789,739.453 L427.3684,739.7282 L437.1579,738.2441 L446.9474,739.0917 L456.7368,738.6267 L466.5263,738.684 L476.3158,739.1044 L486.1053,738.2735 L495.8947,739.9335 L505.6842,738.3549 L515.4737,738.9316 L525.2632,739.7712 L535.0526,739.0809 L544.8421,739.2863 L554.6316,739.1527 L564.4211,739.4333 L574.2105,739.5142 L584,739.1953 " fill="#222222" style="stroke: #008000; stroke-width: 3.0;"/><path d="M398,747.1953 L398,747.4756 L407.7895,746.6429 L417.5789,747.453 L427.3684,747.7282 L437.1579,746.2441 L446.9474,747.0917 L456.7368,746.6267 L466.5263,746.684 L476.3158,747.1044 L486.1053,746.2735 L495.8947,747.9335 L505.6842,746.3549 L515.4737,746.9316 L525.2632,747.7712 L535.0526,747.0809 L544.8421,747.2863 L554.6316,747.1527 L564.4211,747.4333 L574.2105,747.5142 L584,747.1953 " fill="#222222" style="stroke: #008000; stroke-width: 3.0;"/><!--class AnalyzeClasses--><polygon fill="#222222" points="366,845.082,366,845.2922,375.7778,844.6677,385.5556,845.2753,395.3333,845.4817,405.1111,844.3686,414.8889,845.0043,424.6667,844.6555,434.4444,844.6985,444.2222,845.0139,454,844.3907,463.7778,845.6357,473.5556,844.4518,483.3333,844.8843,493.1111,845.514,502.8889,844.9963,512.6667,845.1503,522.4444,845.0501,532.2222,845.2606,542,845.082,542.2391,845.082,542.5857,855.9047,542.6711,866.7273,542.6793,877.55,542.2546,888.3727,542,899.1953,542,899.6589,532.2222,899.8975,522.4444,898.4741,512.6667,899.8738,502.8889,898.8988,493.1111,899.7291,483.3333,898.7003,473.5556,899.1268,463.7778,899.9369,454,899.1466,444.2222,899.3006,434.4444,899.5339,424.6667,899.6115,414.8889,899.1914,405.1111,899.4825,395.3333,898.6229,385.5556,899.4797,375.7778,899.7435,366,899.1953,366.4445,899.1953,366.613,888.3727,365.5169,877.55,365.3478,866.7273,365.3786,855.9047,366,845.082" style="stroke: #008000; stroke-width: 3.0;"/><text fill="#008000" font-family="courier" font-size="20" font-weight="bold" lengthAdjust="spacingAndGlyphs" textLength="168" x="370" y="871.1895">AnalyzeClasses</text><path d="M367,883.1953 L367,883.4756 L377.2353,882.6429 L387.4706,883.453 L397.7059,883.7282 L407.9412,882.2441 L418.1765,883.0917 L428.4118,882.6267 L438.6471,882.684 L448.8824,883.1044 L459.1176,882.2735 L469.3529,883.9335 L479.5882,882.3549 L489.8235,882.9316 L500.0588,883.7712 L510.2941,883.0809 L520.5294,883.2863 L530.7647,883.1527 L541,883.1953 " fill="#222222" style="stroke: #008000; stroke-width: 3.0;"/><path d="M367,891.1953 L367,891.4756 L377.2353,890.6429 L387.4706,891.453 L397.7059,891.7282 L407.9412,890.2441 L418.1765,891.0917 L428.4118,890.6267 L438.6471,890.684 L448.8824,891.1044 L459.1176,890.2735 L469.3529,891.9335 L479.5882,890.3549 L489.8235,890.9316 L500.0588,891.7712 L510.2941,891.0809 L520.5294,891.2863 L530.7647,891.1527 L541,891.1953 " fill="#222222" style="stroke: #008000; stroke-width: 3.0;"/><!--class AnalyzePackages--><polygon fill="#222222" points="477,989.082,477,989.2922,486.8947,988.6677,496.7895,989.2753,506.6842,989.4817,516.5789,988.3686,526.4737,989.0043,536.3684,988.6555,546.2632,988.6985,556.1579,989.0139,566.0526,988.3907,575.9474,989.6357,585.8421,988.4518,595.7368,988.8843,605.6316,989.514,615.5263,988.9963,625.4211,989.1503,635.3158,989.0501,645.2105,989.2606,655.1053,989.3212,665,989.082,665.5857,989.082,665.6711,999.9047,665.6793,1010.7273,665.2546,1021.55,665.4636,1032.3727,665,1043.1953,665,1043.8975,655.1053,1042.4741,645.2105,1043.8738,635.3158,1042.8988,625.4211,1043.7291,615.5263,1042.7003,605.6316,1043.1268,595.7368,1043.9369,585.8421,1043.1466,575.9474,1043.3006,566.0526,1043.5339,556.1579,1043.6115,546.2632,1043.1914,536.3684,1043.4825,526.4737,1042.6229,516.5789,1043.4797,506.6842,1043.7435,496.7895,1043.6398,486.8947,1043.8083,477,1043.1953,476.5169,1043.1953,476.3478,1032.3727,476.3786,1021.55,476.9411,1010.7273,476.8035,999.9047,477,989.082" style="stroke: #008000; stroke-width: 3.0;"/><text fill="#008000" font-family="courier" font-size="20" font-weight="bold" lengthAdjust="spacingAndGlyphs" textLength="180" x="481" y="1015.1895">AnalyzePackages</text><path d="M478,1027.1953 L478,1027.4756 L487.7895,1026.6429 L497.5789,1027.453 L507.3684,1027.7282 L517.1579,1026.2441 L526.9474,1027.0917 L536.7368,1026.6267 L546.5263,1026.684 L556.3158,1027.1044 L566.1053,1026.2735 L575.8947,1027.9335 L585.6842,1026.3549 L595.4737,1026.9316 L605.2632,1027.7712 L615.0526,1027.0809 L624.8421,1027.2863 L634.6316,1027.1527 L644.4211,1027.4333 L654.2105,1027.5142 L664,1027.1953 " fill="#222222" style="stroke: #008000; stroke-width: 3.0;"/><path d="M478,1035.1953 L478,1035.4756 L487.7895,1034.6429 L497.5789,1035.453 L507.3684,1035.7282 L517.1579,1034.2441 L526.9474,1035.0917 L536.7368,1034.6267 L546.5263,1034.684 L556.3158,1035.1044 L566.1053,1034.2735 L575.8947,1035.9335 L585.6842,1034.3549 L595.4737,1034.9316 L605.2632,1035.7712 L615.0526,1035.0809 L624.8421,1035.2863 L634.6316,1035.1527 L644.4211,1035.4333 L654.2105,1035.5142 L664,1035.1953 " fill="#222222" style="stroke: #008000; stroke-width: 3.0;"/><!--class Member--><polygon fill="#222222" points="740,701.082,740,701.2922,750,700.6677,760,701.2753,770,701.4817,780,700.3686,790,701.0043,800,700.6555,810,700.6985,820,701.082,819.9318,701.082,819.3086,711.9047,820.5536,722.7273,819.3697,733.55,819.8022,744.3727,820,755.1953,820,755.6273,810,755.1095,800,755.2636,790,755.1634,780,755.3738,770,755.4344,760,755.781,750,755.8664,740,755.1953,740.6793,755.1953,740.2546,744.3727,740.4636,733.55,740.7022,722.7273,739.2788,711.9047,740,701.082" style="stroke: #0000FF; stroke-width: 3.0;"/><text fill="#0000FF" font-family="courier" font-size="20" font-weight="bold" lengthAdjust="spacingAndGlyphs" textLength="72" x="744" y="727.1895">Member</text><path d="M741,739.1953 L741,739.4756 L750.75,738.6429 L760.5,739.453 L770.25,739.7282 L780,738.2441 L789.75,739.0917 L799.5,738.6267 L809.25,738.684 L819,739.1953 " fill="#222222" style="stroke: #0000FF; stroke-width: 3.0;"/><path d="M741,747.1953 L741,747.4756 L750.75,746.6429 L760.5,747.453 L770.25,747.7282 L780,746.2441 L789.75,747.0917 L799.5,746.6267 L809.25,746.684 L819,747.1953 " fill="#222222" style="stroke: #0000FF; stroke-width: 3.0;"/><!--class Role--><polygon fill="#222222" points="817,845.082,817,845.2922,826.3333,844.6677,835.6667,845.2753,845,845.4817,854.3333,844.3686,863.6667,845.0043,873,845.082,872.5735,845.082,872.6165,855.9047,872.9318,866.7273,872.3086,877.55,873.5536,888.3727,873,899.1953,873,898.565,863.6667,898.9975,854.3333,899.6273,845,899.1095,835.6667,899.2636,826.3333,899.1634,817,899.1953,817.1785,899.1953,817.2391,888.3727,817.5857,877.55,817.6711,866.7273,817.6793,855.9047,817,845.082" style="stroke: #0000FF; stroke-width: 3.0;"/><text fill="#0000FF" font-family="courier" font-size="20" font-weight="bold" lengthAdjust="spacingAndGlyphs" textLength="48" x="821" y="871.1895">Role</text><path d="M818,883.1953 L818,883.4756 L828.8,882.6429 L839.6,883.453 L850.4,883.7282 L861.2,882.2441 L872,883.1953 " fill="#222222" style="stroke: #0000FF; stroke-width: 3.0;"/><path d="M818,891.1953 L818,891.4756 L828.8,890.6429 L839.6,891.453 L850.4,891.7282 L861.2,890.2441 L872,891.1953 " fill="#222222" style="stroke: #0000FF; stroke-width: 3.0;"/><!--class AnalysisRole--><polygon fill="#222222" points="822,989.082,822,989.2922,832.1333,988.6677,842.2667,989.2753,852.4,989.4817,862.5333,988.3686,872.6667,989.0043,882.8,988.6555,892.9333,988.6985,903.0667,989.0139,913.2,988.3907,923.3333,989.6357,933.4667,988.4518,943.6,988.8843,953.7333,989.514,963.8667,988.9963,974,989.082,974.0682,989.082,973.9681,999.9047,974.1785,1010.7273,974.2391,1021.55,974.5857,1032.3727,974,1043.1953,974,1043.8664,963.8667,1043.8746,953.7333,1043.4499,943.6,1043.6589,933.4667,1043.8975,923.3333,1042.4741,913.2,1043.8738,903.0667,1042.8988,892.9333,1043.7291,882.8,1042.7003,872.6667,1043.1268,862.5333,1043.9369,852.4,1043.1466,842.2667,1043.3006,832.1333,1043.5339,822,1043.1953,822.4162,1043.1953,821.9961,1032.3727,822.2872,1021.55,821.4276,1010.7273,822.2844,999.9047,822,989.082" style="stroke: #0000FF; stroke-width: 3.0;"/><text fill="#0000FF" font-family="courier" font-size="20" font-weight="bold" lengthAdjust="spacingAndGlyphs" textLength="144" x="826" y="1015.1895">AnalysisRole</text><path d="M823,1027.1953 L823,1027.4756 L833,1026.6429 L843,1027.453 L853,1027.7282 L863,1026.2441 L873,1027.0917 L883,1026.6267 L893,1026.684 L903,1027.1044 L913,1026.2735 L923,1027.9335 L933,1026.3549 L943,1026.9316 L953,1027.7712 L963,1027.0809 L973,1027.1953 " fill="#222222" style="stroke: #0000FF; stroke-width: 3.0;"/><path d="M823,1035.1953 L823,1035.4756 L833,1034.6429 L843,1035.453 L853,1035.7282 L863,1034.2441 L873,1035.0917 L883,1034.6267 L893,1034.684 L903,1035.1044 L913,1034.2735 L923,1035.9335 L933,1034.3549 L943,1034.9316 L953,1035.7712 L963,1035.0809 L973,1035.1953 " fill="#222222" style="stroke: #0000FF; stroke-width: 3.0;"/><!--class Architect--><polygon fill="#222222" points="721,1106.082,721,1106.2922,730.6667,1105.6677,740.3333,1106.2753,750,1106.4817,759.6667,1105.3686,769.3333,1106.0043,779,1105.6555,788.6667,1105.6985,798.3333,1106.0139,808,1105.3907,817.6667,1106.6357,827.3333,1105.4518,837,1106.082,836.8022,1106.082,837.4319,1116.9047,836.9142,1127.7273,837.0682,1138.55,836.9681,1149.3727,837,1160.1953,837,1160.3738,827.3333,1160.4344,817.6667,1160.781,808,1160.8664,798.3333,1160.8746,788.6667,1160.4499,779,1160.6589,769.3333,1160.8975,759.6667,1159.4741,750,1160.8738,740.3333,1159.8988,730.6667,1160.7291,721,1160.1953,720.505,1160.1953,720.9315,1149.3727,721.7416,1138.55,720.9513,1127.7273,721.1053,1116.9047,721,1106.082" style="stroke: #0000FF; stroke-width: 3.0;"/><text fill="#0000FF" font-family="courier" font-size="20" font-weight="bold" lengthAdjust="spacingAndGlyphs" textLength="108" x="725" y="1132.1895">Architect</text><path d="M722,1144.1953 L722,1144.4756 L732.3636,1143.6429 L742.7273,1144.453 L753.0909,1144.7282 L763.4545,1143.2441 L773.8182,1144.0917 L784.1818,1143.6267 L794.5455,1143.684 L804.9091,1144.1044 L815.2727,1143.2735 L825.6364,1144.9335 L836,1144.1953 " fill="#222222" style="stroke: #0000FF; stroke-width: 3.0;"/><path d="M722,1152.1953 L722,1152.4756 L732.3636,1151.6429 L742.7273,1152.453 L753.0909,1152.7282 L763.4545,1151.2441 L773.8182,1152.0917 L784.1818,1151.6267 L794.5455,1151.684 L804.9091,1152.1044 L815.2727,1151.2735 L825.6364,1152.9335 L836,1152.1953 " fill="#222222" style="stroke: #0000FF; stroke-width: 3.0;"/><!--class EngineerUseCases--><polygon fill="#222222" points="1131,1106.082,1131,1106.2922,1141,1105.6677,1151,1106.2753,1161,1106.4817,1171,1105.3686,1181,1106.0043,1191,1105.6555,1201,1105.6985,1211,1106.0139,1221,1105.3907,1231,1106.6357,1241,1105.4518,1251,1105.8843,1261,1106.514,1271,1105.9963,1281,1106.1503,1291,1106.0501,1301,1106.2606,1311,1106.3212,1321,1106.6677,1331,1106.082,1331.6711,1106.082,1331.6793,1116.9047,1331.2546,1127.7273,1331.4636,1138.55,1331.7022,1149.3727,1331,1160.1953,1331,1159.4741,1321,1160.8738,1311,1159.8988,1301,1160.7291,1291,1159.7003,1281,1160.1268,1271,1160.9369,1261,1160.1466,1251,1160.3006,1241,1160.5339,1231,1160.6115,1221,1160.1914,1211,1160.4825,1201,1159.6229,1191,1160.4797,1181,1160.7435,1171,1160.6398,1161,1160.8083,1151,1159.7122,1141,1159.5431,1131,1160.1953,1130.3786,1160.1953,1130.9411,1149.3727,1130.8035,1138.55,1131.6814,1127.7273,1130.8253,1116.9047,1131,1106.082" style="stroke: #0000FF; stroke-width: 3.0;"/><text fill="#0000FF" font-family="courier" font-size="20" font-weight="bold" lengthAdjust="spacingAndGlyphs" textLength="192" x="1135" y="1132.1895">EngineerUseCases</text><path d="M1132,1144.1953 L1132,1144.4756 L1141.9,1143.6429 L1151.8,1144.453 L1161.7,1144.7282 L1171.6,1143.2441 L1181.5,1144.0917 L1191.4,1143.6267 L1201.3,1143.684 L1211.2,1144.1044 L1221.1,1143.2735 L1231,1144.9335 L1240.9,1143.3549 L1250.8,1143.9316 L1260.7,1144.7712 L1270.6,1144.0809 L1280.5,1144.2863 L1290.4,1144.1527 L1300.3,1144.4333 L1310.2,1144.5142 L1320.1,1144.9762 L1330,1144.1953 " fill="#222222" style="stroke: #0000FF; stroke-width: 3.0;"/><path d="M1132,1152.1953 L1132,1152.4756 L1141.9,1151.6429 L1151.8,1152.453 L1161.7,1152.7282 L1171.6,1151.2441 L1181.5,1152.0917 L1191.4,1151.6267 L1201.3,1151.684 L1211.2,1152.1044 L1221.1,1151.2735 L1231,1152.9335 L1240.9,1151.3549 L1250.8,1151.9316 L1260.7,1152.7712 L1270.6,1152.0809 L1280.5,1152.2863 L1290.4,1152.1527 L1300.3,1152.4333 L1310.2,1152.5142 L1320.1,1152.9762 L1330,1152.1953 " fill="#222222" style="stroke: #0000FF; stroke-width: 3.0;"/><!--class EngineerComponents--><polygon fill="#222222" points="872,1106.082,872,1106.2922,882.1818,1105.6677,892.3636,1106.2753,902.5455,1106.4817,912.7273,1105.3686,922.9091,1106.0043,933.0909,1105.6555,943.2727,1105.6985,953.4545,1106.0139,963.6364,1105.3907,973.8182,1106.6357,984,1105.4518,994.1818,1105.8843,1004.3636,1106.514,1014.5455,1105.9963,1024.7273,1106.1503,1034.9091,1106.0501,1045.0909,1106.2606,1055.2727,1106.3212,1065.4545,1106.6677,1075.6364,1106.7531,1085.8182,1106.7613,1096,1106.082,1096.2546,1106.082,1096.4636,1116.9047,1096.7022,1127.7273,1095.2788,1138.55,1096.6785,1149.3727,1096,1160.1953,1096,1159.8988,1085.8182,1160.7291,1075.6364,1159.7003,1065.4545,1160.1268,1055.2727,1160.9369,1045.0909,1160.1466,1034.9091,1160.3006,1024.7273,1160.5339,1014.5455,1160.6115,1004.3636,1160.1914,994.1818,1160.4825,984,1159.6229,973.8182,1160.4797,963.6364,1160.7435,953.4545,1160.6398,943.2727,1160.8083,933.0909,1159.7122,922.9091,1159.5431,912.7273,1159.5739,902.5455,1160.1364,892.3636,1159.9988,882.1818,1160.8767,872,1160.1953,871.8253,1160.1953,871.6569,1149.3727,872.2283,1138.55,871.3332,1127.7273,871.4809,1116.9047,872,1106.082" style="stroke: #0000FF; stroke-width: 3.0;"/><text fill="#0000FF" font-family="courier" font-size="20" font-weight="bold" lengthAdjust="spacingAndGlyphs" textLength="216" x="876" y="1132.1895">EngineerComponents</text><path d="M873,1144.1953 L873,1144.4756 L883.0909,1143.6429 L893.1818,1144.453 L903.2727,1144.7282 L913.3636,1143.2441 L923.4545,1144.0917 L933.5455,1143.6267 L943.6364,1143.684 L953.7273,1144.1044 L963.8182,1143.2735 L973.9091,1144.9335 L984,1143.3549 L994.0909,1143.9316 L1004.1818,1144.7712 L1014.2727,1144.0809 L1024.3636,1144.2863 L1034.4545,1144.1527 L1044.5455,1144.4333 L1054.6364,1144.5142 L1064.7273,1144.9762 L1074.8182,1145.0901 L1084.9091,1145.101 L1095,1144.1953 " fill="#222222" style="stroke: #0000FF; stroke-width: 3.0;"/><path d="M873,1152.1953 L873,1152.4756 L883.0909,1151.6429 L893.1818,1152.453 L903.2727,1152.7282 L913.3636,1151.2441 L923.4545,1152.0917 L933.5455,1151.6267 L943.6364,1151.684 L953.7273,1152.1044 L963.8182,1151.2735 L973.9091,1152.9335 L984,1151.3549 L994.0909,1151.9316 L1004.1818,1152.7712 L1014.2727,1152.0809 L1024.3636,1152.2863 L1034.4545,1152.1527 L1044.5455,1152.4333 L1054.6364,1152.5142 L1064.7273,1152.9762 L1074.8182,1153.0901 L1084.9091,1153.101 L1095,1152.1953 " fill="#222222" style="stroke: #0000FF; stroke-width: 3.0;"/><!--link Discipline to Activity--><path d="M236.896,205.144 L237.0425,205.3829 L245.3011,210.0064 L254.4188,216.0302 L263.2567,221.5981 L271.1746,225.6663 L280.3118,231.722 L288.7627,236.6589 L297.4866,242.041 L306.4005,247.7327 L314.66,252.3577 L324.222,259.1059 L332.0906,263.0936 L341.0861,268.9185 L350.2192,274.9674 L358.5522,279.7123 L367.306,285.143 " fill="none" style="stroke: #FFFFFF; stroke-width: 2.0;"/><polygon fill="#FFFFFF" points="378.418,291.96,378.4757,291.9997,377.1881,290.2587,376.239,288.7504,375.1796,287.1663,373.7578,285.333,372.8377,283.8446,372.8125,283.8386,372.9631,284.9117,373.2406,286.0153,373.6065,287.14,373.6681,288.1918,374.1559,289.3457,374.1989,289.5252,373.0067,289.4051,371.9401,289.8089,370.8888,290.2767,369.7483,290.3725,368.6548,290.664,368.6578,290.6865,370.606,290.9126,372.5679,291.2414,374.5232,291.5206,376.491,291.8944,378.418,291.96" style="stroke: #FFFFFF; stroke-width: 2.0;"/><path d="M374.1559,289.3457 L374.2047,289.4254 L372.6958,288.3521 L371.4733,287.7457 L370.1574,286.9872 L368.535,285.7289 L367.337,285.1625 " fill="#FFFFFF" style="stroke: #FFFFFF; stroke-width: 2.0;"/><polygon fill="#FFFFFF" points="225.55,198.184,225.6136,198.2134,226.0292,199.4355,226.8177,200.8298,227.4848,202.168,227.7526,203.3218,228.5731,204.7309,228.5721,204.705,230.0089,204.5343,231.4506,204.4941,232.8958,204.5446,234.3291,204.2825,235.779,204.4583,235.9466,204.5357,234.9837,203.0609,234.51,201.812,234.0959,200.5906,233.3346,199.2089,232.756,197.9115,232.7568,197.9342,231.3144,197.9554,229.8758,198.08,228.4354,198.1547,226.9986,198.3246,225.55,198.184" style="stroke: #FFFFFF; stroke-width: 2.0;"/><!--link Discipline to AnalysisDiscipline--><path d="M172.623,217.993 L172.8963,218.0548 L170.0013,227.0864 L168.7086,236.4801 L166.8942,245.7559 L163.3637,254.6438 L162.1076,264.0458 L159.5711,273.1584 L157.5441,282.3862 L155.96,291.714 " fill="none" style="stroke: #FFFFFF; stroke-width: 2.0;"/><polygon fill="none" points="165.863,216.148,165.9224,216.1852,167.9933,212.482,170.4124,208.9966,172.7181,205.4403,174.651,201.6507,177.1,198.184,177.0743,198.1811,177.4426,202.378,177.9406,206.5898,178.5288,210.812,178.8063,214.9985,179.519,219.235,179.5597,219.415,176.7415,218.4127,174.0421,217.9359,171.3571,217.5233,168.5879,216.7375,165.863,216.148" style="stroke: #FFFFFF; stroke-width: 2.0;"/><!--link AnalysisDiscipline to AnalysisActivity--><path d="M235.651,350.577 L235.745,350.841 L244.9516,353.4339 L254.7092,357.5744 L264.2874,361.211 L273.2755,363.1902 L283.0456,367.366 L292.3755,370.3052 L301.8806,373.7365 L311.5075,377.5099 L320.7147,380.1044 L330.7573,385.0456 L339.7138,386.9358 L349.3931,390.8564 L359.1605,395.0247 L368.4149,397.7517 L377.9696,401.3224 L387.425,404.614 " fill="none" style="stroke: #FFFFFF; stroke-width: 2.0;"/><polygon fill="#FFFFFF" points="399.717,408.991,399.7653,409.0418,398.1945,407.5335,396.9068,406.3227,395.5269,405.0151,393.8439,403.3887,392.5805,402.2035,392.5571,402.1924,392.9373,403.1646,393.4355,404.1927,394.0157,405.2598,394.3133,406.1928,395.0068,407.3136,395.0859,407.4803,393.8946,407.6091,392.9344,408.2246,392.0025,408.8995,390.9064,409.2288,389.8967,409.7399,389.8984,409.7626,391.8599,409.5795,393.8293,409.4997,395.7949,409.3701,397.7678,409.3355,399.717,408.991" style="stroke: #FFFFFF; stroke-width: 2.0;"/><path d="M395.0068,407.3136 L395.0381,407.4016 L393.4377,406.6035 L392.0211,406.3213 L390.5446,405.8711 L388.8714,404.8685 L387.4705,404.6305 " fill="#FFFFFF" style="stroke: #FFFFFF; stroke-width: 2.0;"/><polygon fill="#FFFFFF" points="223.294,346.177,223.3502,346.2189,224.0454,347.2507,225.0698,348.528,225.987,349.7253,226.5517,350.6597,227.6044,351.9581,227.5981,351.933,228.9686,351.4692,230.3709,351.132,231.7954,350.8829,233.1436,350.3303,234.5986,350.2028,234.7465,350.3131,233.5681,348.921,232.8216,347.851,232.1278,346.8202,231.1274,345.5608,230.2882,344.4217,230.2937,344.4438,228.8868,344.7625,227.505,345.1816,226.1111,345.5522,224.7404,346.0153,223.294,346.177" style="stroke: #FFFFFF; stroke-width: 2.0;"/><text fill="#FFFFFF" font-family="courier" font-size="20" lengthAdjust="spacingAndGlyphs" textLength="12" x="370.9113" y="394.0087">4</text><!--link Activity to AnalysisActivity--><path d="M441.052,364.427 L441.3074,364.5425 L444.5516,373.0524 L449.2928,382.2392 L453.5466,391.2056 L456.1973,399.4471 L461.067,408.692 " fill="none" style="stroke: #FFFFFF; stroke-width: 2.0;"/><polygon fill="none" points="434.662,367.285,434.7318,367.2912,434.152,363.0513,433.9814,358.8475,433.6775,354.6319,432.9355,350.3777,432.8,346.177,432.7812,346.1592,435.6207,349.147,438.5547,352.2248,441.5544,355.3654,444.3276,358.29,447.418,361.517,447.494,361.6852,444.7802,362.4792,442.2884,363.7642,439.8237,365.109,437.2014,366.1054,434.662,367.285" style="stroke: #FFFFFF; stroke-width: 2.0;"/><!--link AnalysisActivity to AnalyzeArchitecture--><path d="M473,483.752 L473.0934,483.752 L472.8159,491.8048 L473.0859,499.8576 L473.1776,507.9104 L472.6829,515.9632 L473,524.016 " fill="none" style="stroke: #FFFFFF; stroke-width: 2.0;"/><polygon fill="none" points="466,483.291,466.0661,483.3142,467.2696,479.2452,468.8608,475.3119,470.3257,471.3344,471.3756,467.2117,473,463.29,472.9755,463.2815,474.2658,467.2431,475.6793,471.2478,477.1786,475.2825,478.3825,479.2139,480,483.29,480,483.4746,477.2,483.0801,474.4,483.2245,471.6,483.4346,468.8,483.2622,466,483.291" style="stroke: #FFFFFF; stroke-width: 2.0;"/><!--link AnalysisActivity to AnalyzeUseCases--><path d="M592.169,458.225 L592.213,458.3074 L594.593,459.4053 L597.2312,460.986 L599.7854,462.4096 L602.0629,463.316 L604.7233,464.9382 L604.7038,464.9097 L606.9511,466.3768 L609.2965,467.9877 L611.7103,469.6985 L613.8887,471.0649 L616.3968,472.9138 L616.5602,473.0977 L618.3141,474.5735 L620.5453,476.5863 L622.8347,478.6646 L624.7853,480.3617 L626.9141,482.2593 L626.9373,482.2788 L628.7204,484.4147 L630.6092,486.6394 L632.447,488.8213 L634.3822,491.0848 L636,493.082 L636.2583,493.2312 L637.8557,495.9936 L639.2865,498.6599 L640.9611,501.4669 L642.6472,504.2806 L643.9711,506.8851 L643.6669,506.7843 L645.1942,509.808 L645.7197,512.4999 L647.0068,515.4441 L647.5096,518.1284 L648.6552,521.0257 L648.625,521.0221 L649.319,523.9404 L649.3066,526.776 L649.711,529.6604 L650.1504,532.5489 L650.3373,535.4079 L650.5218,535.421 L650.1286,538.3134 L650.0507,541.2281 L649.4626,544.1066 L649.6355,547.0392 L649.3024,549.9359 L649.5394,549.9922 L648.8012,552.8971 L648.1807,555.83 L647.0134,558.6329 L646.2469,561.5311 L645.8355,564.5137 L645.5779,564.4142 L644.6883,567.4107 L643.5085,570.295 L642.7497,573.342 L641.272,576.1113 L640.2217,579.0457 L640.0864,578.9754 L638.8166,581.9704 L636.9684,584.6651 L635.5315,587.5733 L634.4971,590.6907 L632.746,593.4357 L632.9091,593.5401 L631.2104,596.4421 L629.0044,599.0196 L627.4339,602.0036 L625.7249,604.8991 L623.6934,607.5882 L623.5253,607.4623 L621.5904,610.3264 L619.6004,613.1493 L617.7186,616.0531 L615.4163,618.6421 L613.3489,621.407 L613.5058,621.54 L610.891,623.9257 L608.5789,626.5681 L606.7089,629.5854 L604.0249,631.9125 L601.9977,634.7965 L602.1626,634.9513 L599.6501,637.4321 L597.0817,639.8606 L594.6392,642.4074 L592.488,645.2273 L589.9247,647.6606 L589.8316,647.5655 L587.6067,650.2972 L584.749,652.3823 L582.6108,655.2025 L580.0674,657.6089 L577.4149,659.9036 L577.4882,659.9842 L574.8968,662.2244 L572.5677,664.7529 L570.0016,667.0209 L567.3364,669.1801 L564.7534,671.4297 L564.8309,671.5202 L562.2102,673.5283 L559.9491,675.9569 L557.2813,677.9099 L554.7808,680.0585 L552.2253,682.1428 L552.0551,681.9327 L549.69,683.9637 L547.5298,686.2479 L545.0796,688.1739 L542.5254,689.9715 L540.1154,691.9472 L540.028,691.8338 L537.7747,693.6301 L535.3666,695.2257 L533.3842,697.373 L531.1911,699.2473 L528.709,700.747 " fill="none" style="stroke: #FFFFFF; stroke-width: 2.0;"/><polygon fill="none" points="589.33,464.628,589.3762,464.6807,586.052,461.7306,582.9985,459.0893,579.8568,456.3474,576.4253,453.2748,573.395,450.66,573.3938,450.6342,577.6218,450.7144,581.8559,450.9251,586.0941,451.2265,590.3179,451.2154,594.562,451.642,594.7332,451.711,593.3207,454.1607,592.4081,456.8118,591.5564,459.4874,590.3499,462.0201,589.33,464.628" style="stroke: #FFFFFF; stroke-width: 2.0;"/><!--link AnalysisActivity to AnalyzeClasses--><path d="M387.971,473.298 L388.0245,473.3746 L384.8852,475.2306 L382.0597,477.5354 L379.1319,479.6941 L375.8682,481.3721 L373.0696,483.7155 L373.0471,483.6893 L370.174,485.952 L367.4144,488.3467 L364.7336,490.8334 L361.781,493.0035 L359.2091,495.6169 L359.3912,495.7825 L356.5574,498.116 L354.2552,500.933 L352.0178,503.8089 L349.4031,506.3416 L346.9868,509.0549 L347.0121,509.0717 L344.9776,512.0525 L343.0582,515.1097 L341.0832,518.13 L339.2142,521.2207 L337,524.082 L337.2672,524.2146 L336.2197,526.334 L334.9999,528.3679 L334.0323,530.527 L333.0765,532.6919 L331.7462,534.671 L331.4486,534.552 L331.1637,536.9402 L329.8988,538.9367 L329.3789,541.231 L328.0917,543.2185 L327.4335,545.4575 L327.4044,545.4485 L327.0656,547.7477 L326.0477,549.8354 L325.4305,552.0479 L324.8469,554.2708 L324.0206,556.4183 L324.2009,556.4597 L323.5081,558.6402 L323.1233,560.8915 L322.2402,563.0282 L322.1004,565.3358 L321.4664,567.5298 L321.7072,567.567 L321.3143,569.8078 L321.041,572.067 L320.2122,574.2404 L319.7905,576.4768 L319.7297,578.7688 L319.4545,578.7455 L319.5115,581.0353 L319.2584,583.2987 L319.4551,585.6003 L318.8839,587.8368 L318.7691,590.1119 L318.6167,590.1089 L318.8255,592.3987 L318.3826,594.6756 L318.4032,596.9617 L318.8771,599.2567 L318.5436,601.5357 L318.7371,601.5436 L318.9635,603.8453 L318.5881,606.1224 L318.9664,608.4302 L319.1805,610.7314 L319.012,613.0169 L318.803,612.9965 L319.1937,615.3158 L319.5161,617.6284 L319.9728,619.954 L319.9068,622.2288 L320.1329,624.532 L320.3362,624.5625 L320.236,626.8005 L320.5282,629.0975 L321.3936,631.4807 L321.2037,633.7052 L321.8652,636.0577 L322.087,636.102 L322.4158,638.3783 L322.6695,640.6395 L323.0926,642.9346 L323.9072,645.308 L324.1678,647.5706 L324.0386,647.5387 L324.9895,649.9289 L325.0619,652.1024 L326.1331,654.5224 L326.642,656.8035 L326.9993,659.0473 L327.1038,659.0777 L327.6833,661.3366 L328.6371,663.7043 L329.2527,665.9738 L329.727,668.2021 L330.3186,670.4645 L330.4317,670.5021 L331.0168,672.7131 L332.1271,675.0986 L332.6434,677.2868 L333.4041,679.5561 L334.0845,681.7988 L333.831,681.7046 L334.7499,683.9817 L335.9741,686.3722 L336.7663,688.6021 L337.4036,690.7746 L338.2557,693.0268 L338.1232,692.9726 L339.0727,695.2097 L339.7876,697.3508 L341.1476,699.7555 L342.1883,702.0298 L342.7911,704.1252 L343.005,704.2201 L344.0451,706.4395 L344.6789,708.4786 L345.7416,710.7081 L346.5204,712.8115 L347.6495,715.0705 L347.7634,715.1248 L348.7765,717.2715 L349.9271,719.4838 L350.6414,721.4878 L351.7076,723.6599 L352.7896,725.8394 L352.9652,725.9288 L354.0904,728.0676 L354.7388,729.9637 L355.9411,732.1418 L357.1532,734.3248 L358.1702,736.4085 L357.9312,736.2796 L359.4244,738.5523 L360.5031,740.6013 L361.4787,742.5948 L362.6898,744.7153 L363.7501,746.7545 L364.0317,746.9145 L364.7768,748.7057 L366.1671,750.8634 L367.3033,752.8769 L368.3853,754.8595 L369.4882,756.8539 L369.542,756.886 L370.7025,758.8456 L371.5918,760.6438 L372.8481,762.6605 L373.9959,764.6126 L375.3432,766.6835 L375.3672,766.6985 L376.5625,768.6114 L377.7765,770.5359 L378.7917,772.3369 L380.0622,774.2966 L381.2738,776.2197 L381.229,776.1907 L382.6821,778.2029 L383.8191,780.0106 L384.6717,781.6343 L386.0187,783.5778 L387.239,785.4394 L387.026,785.2964 L388.5371,787.2867 L389.8469,789.1419 L391.015,790.902 L391.845,792.4352 L393.1974,794.319 L393.3668,794.4365 L394.1083,795.834 L395.6347,797.7762 L396.6345,799.3528 L397.9612,801.1564 L399.1079,802.8352 L399.1944,802.8979 L401.5802,806.1282 L403.454,808.9866 L406.1864,812.4686 L408.382,815.5607 L410.6204,818.6839 L410.7457,818.78 L413.0493,821.7091 L414.9528,824.3312 L417.1779,827.2 L419.3566,830.0333 L421.4466,832.7985 L421.5149,832.8534 L423.4084,835.237 L425.6169,837.8739 L427.1217,839.9447 L429.4907,842.7108 L431.257,844.992 " fill="none" style="stroke: #FFFFFF; stroke-width: 2.0;"/><polygon fill="none" points="384.738,467.081,384.7511,467.1499,388.8754,466.153,393.0764,465.5595,397.2525,464.8347,401.3463,463.6778,405.554,463.119,405.5343,463.1022,402.6857,466.2422,399.9362,469.4674,397.2556,472.7516,394.3375,475.8321,391.752,479.198,391.9117,479.2905,390.1674,476.6694,388.8893,474.3182,387.6682,472,386.1161,469.4901,384.738,467.081" style="stroke: #FFFFFF; stroke-width: 2.0;"/><!--link AnalysisActivity to AnalyzePackages--><path d="M570.914,472.526 L570.9636,472.6052 L573.0435,473.7674 L575.4143,475.3936 L577.6904,476.8687 L579.6548,477.847 L582.0506,479.513 L582.0301,479.4852 L584.028,480.9035 L586.1293,482.4618 L588.3025,484.1175 L590.2279,485.4376 L592.5003,487.2277 L592.6639,487.4116 L594.2175,488.7115 L596.2486,490.5482 L598.338,492.4504 L600.0884,493.9715 L602.0171,495.6931 L602.0397,495.7134 L603.6742,497.5314 L605.4112,499.4418 L607.0988,501.3077 L608.8808,503.2586 L610.3551,504.932 L610.6007,505.1012 L611.9864,507.1104 L613.2136,509.0104 L614.6727,511.0702 L616.1427,513.1374 L617.2683,514.9675 L616.9797,514.8281 L618.5884,517.2696 L619.2467,519.2521 L620.6275,521.5836 L621.2642,523.5557 L622.5109,525.8223 L622.4816,525.814 L623.4931,528.2519 L623.8204,530.4953 L624.5514,532.8535 L625.3163,535.2213 L625.8367,537.5196 L626.0209,537.5366 L626.0677,540.0319 L626.4291,542.5563 L626.2814,545.0336 L626.8932,547.5812 L627,550.082 L627.7309,550.082 L627.5927,560.1758 L627.8174,570.2695 L626.3559,580.3633 L626.1304,590.457 L626.1715,600.5508 L626.9215,610.6445 L626.738,620.7383 L627.9085,630.832 L626.7671,640.9258 L626.5426,651.0195 L627.3044,661.1133 L626.1109,671.207 L626.3078,681.3008 L627.8653,691.3945 L627.5809,701.4883 L627.9793,711.582 L626.5709,721.6758 L627.4256,731.7695 L627.7872,741.8633 L626.3701,751.957 L626.8722,762.0508 L627.168,772.1445 L627.869,782.2383 L626.9944,792.332 L627.6168,802.4258 L626.2616,812.5195 L626.097,822.6133 L627.6715,832.707 L626.0441,842.8008 L627.6786,852.8945 L627.2755,862.9883 L627,873.082 L626.8812,873.0747 L626.6439,876.3079 L626.8052,879.5657 L626.2698,882.7806 L626.466,886.0405 L626.0043,889.2599 L625.7621,889.2185 L625.7216,892.5414 L625.1102,895.7666 L624.4523,898.9839 L623.8126,902.2043 L623.2388,905.436 L623.551,905.5183 L622.6619,908.6926 L621.6304,911.8293 L620.8324,915.0275 L619.8207,918.1694 L619.0361,921.3712 L619.3373,921.4746 L618.0398,924.4847 L616.9858,927.5783 L615.596,930.5567 L614.62,933.6771 L613.7289,936.8267 L613.9469,936.9166 L612.6896,939.8468 L611.2795,942.714 L609.949,945.614 L608.7756,948.5788 L607.6497,951.5633 L607.374,951.4328 L606.5126,954.3978 L605.3393,957.2153 L603.95,959.9306 L602.714,962.7183 L601.131,965.342 L601.0773,965.3137 L599.8403,967.8765 L598.3285,970.2945 L597.2675,972.95 L595.9278,975.4587 L594.5056,977.9239 L594.7185,978.0462 L593.1372,980.1023 L591.894,982.3526 L590.8368,984.7097 L589.6046,986.9664 L588.106,989.07 " fill="none" style="stroke: #FFFFFF; stroke-width: 2.0;"/><polygon fill="none" points="567.621,478.704,567.6722,478.7519,564.6273,475.5126,561.8825,472.5536,559.04,469.5034,555.876,466.1529,553.157,463.218,553.1532,463.1924,557.3291,463.6946,561.524,464.326,565.7321,465.0472,569.8946,465.4588,574.121,466.304,574.2845,466.3897,572.6349,468.6865,571.4626,471.2334,570.3485,473.8109,568.8957,476.2108,567.621,478.704" style="stroke: #FFFFFF; stroke-width: 2.0;"/><!--link AnalyzeArchitecture to AnalyzeUseCases--><path d="M475.695,578.281 L475.9738,578.3097 L476.1526,588.0162 L477.9655,597.8907 L479.2464,607.7106 L478.7771,617.3504 L480.6273,627.2288 L481.1718,636.9729 L482.2359,646.7704 L483.6613,656.6051 L483.8418,666.3117 L486.5001,676.2732 L485.937,685.9034 L487.78,695.781 " fill="none" style="stroke: #FFFFFF; stroke-width: 2.0;"/><polygon fill="#FFFFFF" points="488.316,700.99,488.3826,701.0118,488.7964,699.0747,489.6006,697.2652,490.2776,695.4142,490.5366,693.4266,491.3743,691.628,491.3542,691.6117,490.55,692.416,489.8472,693.3027,489.2148,694.2466,488.3397,694.9932,487.8045,696.0163,487.9209,696.1594,486.7943,695.1393,486.0076,694.5372,485.2624,693.9861,484.2759,693.1382,483.4162,692.4465,483.436,692.4578,484.387,694.1499,485.4278,695.8935,486.4252,697.6123,487.5054,699.3784,488.316,700.99" style="stroke: #FFFFFF; stroke-width: 2.0;"/><text fill="#FFFFFF" font-family="courier" font-size="20" lengthAdjust="spacingAndGlyphs" textLength="48" x="484" y="630.1895">next</text><!--link AnalyzeUseCases to AnalyzeClasses--><path d="M484.214,755.127 L484.4852,755.1977 L481.2285,764.3937 L479.5616,774.004 L477.377,783.4794 L473.49,792.5112 L471.8593,802.1309 L468.9584,811.4196 L466.563,820.8401 L464.5189,830.3521 L462.156,839.781 " fill="none" style="stroke: #FFFFFF; stroke-width: 2.0;"/><polygon fill="#FFFFFF" points="460.869,844.721,460.9238,844.7647,461.9888,843.0946,463.375,841.6806,464.6565,840.1832,465.5942,838.4116,467.0079,837.0195,466.9948,836.9972,465.9602,837.4695,464.9917,838.0544,464.0691,838.7176,462.9882,839.1111,462.129,839.8824,462.2882,839.9758,461.3752,838.8003,460.927,837.8975,460.5355,837.0279,459.814,835.9648,459.2661,835.0035,459.2886,835.0072,459.5762,836.9453,459.966,838.9002,460.3065,840.847,460.7411,842.8093,460.869,844.721" style="stroke: #FFFFFF; stroke-width: 2.0;"/><text fill="#FFFFFF" font-family="courier" font-size="20" lengthAdjust="spacingAndGlyphs" textLength="48" x="478" y="807.1895">next</text><!--link AnalyzeClasses to AnalyzePackages--><path d="M475.46,899.127 L475.6763,899.3052 L481.4456,906.5577 L488.4827,914.8549 L495.107,922.8119 L500.3735,929.6502 L507.4396,937.9711 L513.4926,945.4574 L519.9487,953.2759 L526.6851,961.3252 L532.4557,968.5788 L540.1488,977.4164 L545.991,984.729 " fill="none" style="stroke: #FFFFFF; stroke-width: 2.0;"/><polygon fill="#FFFFFF" points="549.28,988.721,549.3475,988.7398,548.6199,986.7861,548.2881,984.9423,547.8274,983.0628,546.9429,981.0655,546.645,979.2312,546.6192,979.2287,546.3947,980.3437,546.3001,981.4712,546.2959,982.6074,545.9803,983.7135,546.1009,984.8618,546.1187,985.0455,544.9546,984.5439,543.8423,984.5786,542.7364,984.6787,541.5937,984.3981,540.4703,984.3177,540.4805,984.3381,542.2275,985.1889,544.0208,986.1323,545.7918,987.031,547.6053,988.015,549.28,988.721" style="stroke: #FFFFFF; stroke-width: 2.0;"/><text fill="#FFFFFF" font-family="courier" font-size="20" lengthAdjust="spacingAndGlyphs" textLength="48" x="525" y="951.1895">next</text><!--link AnalysisActivity to Member--><path d="M585.836,460.675 L585.8714,460.7615 L588.9118,461.7924 L592.1598,463.3301 L595.3401,464.7028 L598.2983,465.5327 L601.564,467.1139 L601.5488,467.0829 L604.5425,468.4427 L607.6127,469.9589 L610.7361,471.5838 L613.6761,472.834 L616.873,474.609 L616.9983,474.8208 L619.6466,476.0939 L622.6608,477.9853 L625.7197,479.9521 L628.5188,481.4801 L631.4545,483.2389 L631.4723,483.2634 L634.1552,485.196 L636.9193,487.2403 L639.6443,489.2307 L642.4439,491.324 L645,493.082 L645.1955,493.3073 L647.5478,495.3491 L649.774,497.2456 L652.1848,499.3547 L654.6042,501.4739 L656.7496,503.2772 L656.5248,503.0487 L659.1975,505.6919 L661.1301,507.5828 L663.6253,510.0456 L665.5411,511.9194 L667.9318,514.2761 L667.9092,514.2556 L670.2996,516.8352 L672.1635,518.9365 L674.3381,521.32 L676.5387,523.7273 L678.5512,525.9636 L678.6942,526.0809 L680.5622,528.4147 L682.6745,530.949 L684.3914,533.1588 L686.6981,535.8526 L688.6126,538.2246 L688.8078,538.3705 L690.6725,540.8868 L692.6341,543.4755 L694.1455,545.7277 L695.9869,548.2266 L698.1207,550.944 L697.8929,550.7878 L699.891,553.5417 L701.6324,556.1197 L703.746,558.9529 L705.2241,561.3502 L707.08,564.0067 L706.9512,563.9251 L708.8488,566.7191 L710.1958,569.1644 L711.9343,571.8577 L714.056,574.7936 L715.4954,577.2974 L715.6624,577.3955 L717.3521,580.1435 L718.5225,582.5865 L720.3434,585.4115 L722.0225,588.1533 L723.3715,590.7012 L723.1874,590.6003 L724.8024,593.361 L726.3572,596.0887 L728.0304,598.8813 L729.243,601.4215 L730.713,604.1028 L730.8959,604.1966 L731.8563,606.6473 L733.1698,609.2791 L734.9991,612.1755 L735.8787,614.5848 L737.5245,617.3871 L737.7283,617.4852 L738.8645,620.0373 L739.9318,622.5562 L741.1547,625.15 L742.7373,627.9171 L743.8109,630.439 L743.6897,630.384 L745.2035,633.0886 L745.8935,635.4192 L747.5202,638.175 L748.6195,640.6915 L749.5766,643.1434 L749.6767,643.1863 L750.6459,645.6 L751.9734,648.1674 L752.9772,650.5959 L753.8457,652.9664 L754.8265,655.3851 L754.937,655.43 L755.7206,657.6961 L757.017,660.1705 L757.7336,662.4094 L758.6886,664.7451 L759.5653,667.0491 L759.313,666.9517 L760.2437,669.1784 L761.4783,671.5224 L762.2828,673.7004 L762.9333,675.819 L763.7975,678.0201 L763.6631,677.9707 L764.4523,680.0191 L765.0034,681.9802 L766.2089,684.1814 L767.0905,686.2637 L767.528,688.183 " fill="none" style="stroke: #FFFFFF; stroke-width: 2.0;"/><polygon fill="#FFFFFF" points="771.897,700.774,771.9668,700.7799,771.9251,698.7996,772.2927,696.8539,772.527,694.8969,772.323,692.9029,772.7257,690.9601,772.7024,690.9488,772.1042,691.9161,771.6236,692.9404,771.2246,694.0043,770.5441,694.9317,770.258,696.0503,770.3385,696.2164,769.1483,695.3677,768.1931,695.0039,767.2666,694.6992,766.1733,694.0504,765.1677,693.5826,765.1844,693.5981,766.5058,695.0136,767.9029,696.4998,769.2635,697.9519,770.6937,699.4691,771.897,700.774" style="stroke: #FFFFFF; stroke-width: 2.0;"/><path d="M770.258,696.0503 L770.3462,696.0809 L769.5595,694.4784 L769.2901,693.0554 L768.8523,691.5739 L767.8604,689.9001 L767.6355,688.4925 " fill="#FFFFFF" style="stroke: #FFFFFF; stroke-width: 2.0;"/><polygon fill="#FFFFFF" points="573.396,456.309,573.452,456.3512,574.1529,457.3783,575.1821,458.6524,576.1043,459.8461,576.6751,460.7753,577.7324,462.0706,577.726,462.0455,579.0944,461.5755,580.4952,461.232,581.9185,460.9764,583.2643,460.4178,584.7186,460.2837,584.8661,460.3947,583.6835,459.005,582.9314,457.9394,582.2318,456.9134,581.2266,455.6573,580.3822,454.5221,580.3878,454.5442,578.9823,454.8692,577.6025,455.2946,576.2102,455.6715,574.8416,456.1408,573.396,456.309" style="stroke: #FFFFFF; stroke-width: 2.0;"/><!--link Member to Role--><path d="M797.469,767.246 L797.7238,767.3627 L801.2497,776.3725 L806.2693,786.0662 L810.8026,795.5371 L813.7361,804.2758 L818.7898,813.985 L822.6499,823.1479 L827.45,832.741 " fill="none" style="stroke: #FFFFFF; stroke-width: 2.0;"/><polygon fill="#FFFFFF" points="832.933,844.721,833.0031,844.7218,832.7731,842.7499,832.9538,840.7824,833.0008,838.8136,832.608,836.8398,832.824,834.8728,832.7997,834.8637,832.2963,835.8836,831.9153,836.949,831.6194,838.046,831.0303,839.034,830.8519,840.1747,830.9162,840.3477,829.7182,839.5834,828.7081,839.3241,827.7209,839.1264,826.6003,838.5702,825.5499,838.2026,825.565,838.2196,827.0195,839.4983,828.5425,840.8546,830.0325,842.1734,831.5856,843.5637,832.933,844.721" style="stroke: #FFFFFF; stroke-width: 2.0;"/><path d="M830.8519,840.1747 L830.9368,840.2136 L830.0186,838.6433 L829.5982,837.301 L829.0158,835.8844 L827.9001,834.2238 L827.5225,832.901 " fill="#FFFFFF" style="stroke: #FFFFFF; stroke-width: 2.0;"/><polygon fill="#FFFFFF" points="791.922,755.127,791.9912,755.1381,791.5576,756.5293,791.5296,757.9854,791.3695,759.4203,790.7751,760.7858,790.7819,762.2474,790.7683,762.2254,791.934,762.8847,793.1684,763.6551,794.4505,764.5027,795.5681,765.0842,796.9161,766.0384,797.0984,766.0676,796.9367,764.5811,797.3071,763.1798,797.7423,761.7889,797.8,760.3376,798.0562,758.918,798.0682,758.9374,796.8238,758.1508,795.6338,757.4522,794.4176,756.7112,793.2515,756.0513,791.922,755.127" style="stroke: #FFFFFF; stroke-width: 2.0;"/><!--link Role to AnalysisRole--><path d="M861.82,918.147 L862.0826,918.245 L864.5951,926.7756 L868.6467,935.8806 L872.1971,944.7986 L874.0994,953.1014 L878.186,962.2195 L881.043,970.8787 L884.3893,979.7205 L888.161,988.721 " fill="none" style="stroke: #FFFFFF; stroke-width: 2.0;"/><polygon fill="none" points="855.157,920.312,855.227,920.3135,854.9317,916.0722,855.047,911.8394,855.0286,907.6038,854.5705,903.3591,854.721,899.127,854.7011,899.1105,857.3221,902.2941,860.0435,905.5613,862.8347,908.8865,865.3854,912.0116,868.273,915.417,868.3375,915.5899,865.5763,916.1992,863.0036,917.3133,860.4537,918.4889,857.7702,919.3062,855.157,920.312" style="stroke: #FFFFFF; stroke-width: 2.0;"/><!--link AnalysisRole to Architect--><path d="M856.481,1057.206 L856.6757,1057.4076 L848.9295,1063.7353 L842.3249,1071.2445 L835.3486,1078.3689 L827.1497,1084.2283 L820.5711,1091.7643 L813.0804,1098.3565 L806.308,1105.6919 " fill="none" style="stroke: #FFFFFF; stroke-width: 2.0;"/><polygon fill="none" points="851.751,1052.042,851.7803,1052.1057,855.5424,1050.1436,859.4764,1048.5546,863.3543,1046.844,867.0483,1044.734,870.997,1043.177,870.9739,1043.1654,868.9666,1046.8996,867.076,1050.6924,865.2665,1054.526,863.1775,1058.2191,861.48,1062.109,861.6127,1062.2373,859.3831,1059.9496,857.541,1058.0364,855.7461,1056.1689,853.6762,1054.0356,851.751,1052.042" style="stroke: #FFFFFF; stroke-width: 2.0;"/><!--link AnalysisRole to EngineerUseCases--><path d="M992.716,1049.792 L992.8075,1050.0569 L1002.1083,1052.5757 L1011.9453,1056.6472 L1021.6077,1060.2132 L1030.6959,1062.1162 L1040.5451,1066.2231 L1049.9659,1069.0894 L1059.5572,1072.4493 L1069.267,1076.1526 L1078.5684,1078.673 L1088.6828,1083.5478 L1097.7402,1085.3616 L1107.501,1089.2125 L1117.3476,1093.3119 L1126.6949,1095.9652 L1136.3345,1099.4651 L1145.8635,1102.6447 L1155.45,1105.9907 " fill="none" style="stroke: #FFFFFF; stroke-width: 2.0;"/><polygon fill="none" points="990.182,1056.322,990.2255,1056.377,986.7725,1053.5847,983.5744,1051.1146,980.2932,1048.5395,976.7393,1045.6195,973.563,1043.177,973.5629,1043.1511,977.8002,1043.0173,982.0381,1043.014,986.2763,1043.1015,990.5132,1042.8762,994.752,1043.089,994.9264,1043.1493,993.6394,1045.6671,992.8617,1048.3607,992.1461,1051.0758,991.069,1053.6661,990.182,1056.322" style="stroke: #FFFFFF; stroke-width: 2.0;"/><!--link AnalysisRole to EngineerComponents--><path d="M929.856,1059.68 L930.0804,1059.8479 L935.1484,1067.0178 L941.5321,1075.1717 L947.4873,1083.0051 L952.0336,1089.785 L958.4472,1097.9612 L964.265,1105.6919 " fill="none" style="stroke: #FFFFFF; stroke-width: 2.0;"/><polygon fill="none" points="923.887,1063.386,923.9538,1063.4071,922.4809,1059.3027,921.3996,1055.3218,920.1909,1051.3007,918.5626,1047.1473,917.515,1043.177,917.5005,1043.1555,920.9523,1045.4241,924.4769,1047.801,928.0521,1050.2532,931.4528,1052.4458,935.098,1055.002,935.2085,1055.1498,932.73,1056.5106,930.5741,1058.3028,928.4576,1060.1477,926.1121,1061.6863,923.887,1063.386" style="stroke: #FFFFFF; stroke-width: 2.0;"/><!--link AnalyzeArchitecture to Architect--><path d="M401.418,578.15 L401.4574,578.2347 L399.0508,579.0487 L396.8753,580.3592 L394.6246,581.5081 L392.1264,582.1252 L389.9707,583.4783 L389.9553,583.4474 L387.5482,584.4768 L385.219,585.6619 L382.9438,586.9553 L380.4822,587.8756 L378.2818,589.3185 L378.3985,589.5351 L375.7898,590.3431 L373.5219,591.7835 L371.2956,593.301 L368.8274,594.3697 L366.4864,595.6744 L366.5017,595.7006 L364.1259,597.0373 L361.8197,598.4933 L359.48,599.8917 L357.2044,601.3999 L354.7197,602.5503 L354.8801,602.8018 L352.5616,604.2848 L350.1396,605.6056 L347.869,607.1639 L345.6055,608.7333 L343.1172,609.9501 L342.9331,609.6877 L341.0297,611.7825 L338.5202,613.0133 L336.4714,614.901 L333.9482,616.1122 L331.8139,617.8778 L331.7952,617.8538 L329.8426,619.8299 L327.4531,621.2447 L325.3215,622.9906 L323.2114,624.7644 L320.9452,626.3376 L321.0669,626.4769 L318.8843,628.1355 L316.9097,630.0321 L314.5986,631.5435 L312.7893,633.6294 L310.6464,635.3334 L310.8181,635.5062 L308.8669,637.3807 L307.0009,639.341 L304.7388,640.9027 L302.767,642.7565 L301.0526,644.8693 L300.8441,644.6882 L299.2822,646.8681 L297.4853,648.844 L296.0292,651.1159 L293.9912,652.8824 L292.2992,654.9493 L292.1761,654.8593 L290.8255,657.1348 L288.9489,659.0255 L287.4463,661.1899 L286.3096,663.6222 L284.5213,665.5775 L284.6876,665.6766 L283.4683,667.9807 L281.7317,669.9764 L280.643,672.3583 L279.4131,674.6562 L277.8543,676.7578 L277.6637,676.6698 L276.7315,679.0873 L275.7368,681.4759 L274.8648,683.9213 L273.5159,686.1463 L272.4334,688.4944 L272.6288,688.5586 L271.3917,690.877 L270.5317,693.3192 L270.2224,695.9424 L268.8991,698.2325 L268.3939,700.7913 L268.6159,700.8348 L267.9795,703.3812 L267.2679,705.9129 L266.7259,708.4777 L266.5757,711.1195 L265.871,713.6525 L265.7383,713.6439 L265.9593,716.3554 L265.2775,719.0084 L265.6222,721.728 L265.389,724.4101 L265,727.082 L265.3266,727.082 L265.063,737.082 L265.9688,747.082 L265.8181,757.082 L265.2257,767.082 L265.3576,777.082 L264.8263,787.082 L265.9553,797.082 L265.2065,807.082 L265.2301,817.082 L264.1889,827.082 L264.4597,837.082 L265.7077,847.082 L265.573,857.082 L264.9428,867.082 L264.5704,877.082 L264.7081,887.082 L264.0851,897.082 L265.553,907.082 L265.9861,917.082 L265.7019,927.082 L265.9266,937.082 L264.8177,947.082 L265.1163,957.082 L264.4832,967.082 L265.3787,977.082 L265.329,987.082 L265.7365,997.082 L264.6938,1007.082 L265,1017.082 L264.9416,1017.0693 L265.9017,1020.3806 L266.6646,1023.6489 L266.9048,1026.8034 L267.7523,1030.0902 L268.5456,1033.3652 L268.6002,1033.4029 L270.3546,1036.1444 L272.739,1039.3222 L274.7362,1042.2319 L276.6372,1045.075 L278.7061,1048.0343 L278.749,1048.0808 L280.393,1049.6237 L281.547,1050.6342 L283.2035,1052.1906 L284.6621,1053.5322 L286.0436,1054.7899 L286.074,1054.8314 L287.8253,1056.1172 L289.5627,1057.3841 L291.1137,1058.3963 L292.917,1059.7531 L294.7669,1061.1736 L294.6612,1060.9978 L296.7854,1062.4024 L298.7949,1063.6161 L300.8157,1064.8486 L302.7159,1065.8806 L304.7865,1067.1959 L304.773,1067.1691 L307.0077,1068.2825 L309.3928,1069.6933 L311.608,1070.768 L313.6705,1071.5404 L316.0132,1072.8673 L316.0003,1072.8376 L318.3803,1073.698 L321.0018,1075.1174 L323.527,1076.3143 L325.9847,1077.3544 L328.3576,1078.1984 L328.2898,1078.0171 L331.1044,1079.3918 L333.5911,1079.8897 L336.4125,1081.2825 L339.0093,1082.0748 L341.7304,1083.1997 L341.7438,1083.2405 L344.626,1084.2376 L347.5204,1085.2719 L350.2181,1085.7048 L353.2457,1087.1461 L356.0424,1087.8817 L356.0643,1087.9578 L359.1185,1088.9081 L362.1991,1089.9503 L365.14,1090.5079 L368.1933,1091.4551 L371.204,1092.2549 L371.2275,1092.3468 L374.4102,1093.1548 L377.5728,1093.8845 L380.8356,1095.0059 L383.8745,1095.2523 L387.1261,1096.3299 L387.182,1096.5748 L390.383,1096.8169 L393.71,1097.6106 L397.086,1098.6196 L400.4035,1099.3719 L403.7193,1100.1171 L403.6754,1099.9025 L407.1911,1100.9993 L410.599,1101.5686 L414.0889,1102.5396 L417.5186,1103.2157 L420.8942,1103.6272 L420.8583,1103.4313 L424.3958,1104.1019 L427.9508,1104.8681 L431.5232,1105.7287 L435.0605,1106.3981 L438.5616,1106.8706 L438.5835,1107.0027 L442.1509,1107.3181 L445.8359,1108.3446 L449.4499,1108.9409 L453.0146,1109.2397 L456.6321,1109.8579 L456.6164,1109.7528 L460.2826,1110.2298 L463.9717,1110.8603 L467.6717,1111.5633 L471.335,1112.0212 L475.0164,1112.5996 L474.9916,1112.4156 L478.767,1113.3156 L482.4326,1113.4001 L486.2114,1114.3249 L489.9287,1114.7931 L493.6251,1115.1062 L493.645,1115.2703 L497.411,1115.8681 L501.1094,1115.9106 L504.8552,1116.3428 L508.648,1117.1608 L512.3689,1117.3883 L512.3399,1117.1246 L516.1154,1117.6985 L519.8904,1118.2665 L523.646,1118.6594 L527.3832,1118.8843 L531.1585,1119.4563 L531.1566,1119.4373 L534.9405,1120.1585 L538.6855,1120.4889 L542.3799,1120.3113 L546.1588,1120.9826 L549.9046,1121.3208 L549.8841,1121.0933 L553.6262,1121.6435 L557.3615,1122.1191 L561.0892,1122.5096 L564.7687,1122.3638 L568.5178,1122.9924 L568.5321,1123.1698 L572.1963,1123.2939 L575.8542,1123.342 L579.5355,1123.6772 L583.2423,1124.3283 L586.9088,1124.4815 L586.9164,1124.5923 L594.0599,1124.9688 L601.1914,1125.1727 L608.3838,1126.2571 L615.5057,1126.3216 L622.6668,1126.9545 L622.6539,1126.7201 L629.4246,1127.2985 L636.2002,1127.964 L642.9603,1128.3493 L649.7056,1128.4657 L656.4642,1128.824 L656.4612,1128.7568 L662.6918,1129.1694 L668.9165,1129.4468 L675.1275,1129.4087 L681.3697,1130.088 L687.5861,1130.1742 L687.5943,1130.4224 L693.1293,1130.2614 L698.6726,1130.3497 L704.2351,1131.023 L709.7719,1130.9157 L715.318,1131.0894 " fill="none" style="stroke: #FFFFFF; stroke-width: 2.0;"/><polygon fill="#FFFFFF" points="720.538,1131.2314,720.5682,1131.2946,718.7011,1130.2577,717.011,1129.5914,715.2633,1128.8044,713.326,1127.6206,711.6511,1126.9861,711.6323,1126.9683,712.3256,1127.71,713.1138,1128.5415,713.9679,1129.4354,714.5948,1130.1142,715.5399,1131.0943,715.6667,1131.2283,714.5738,1131.7195,713.8513,1132.6019,713.1739,1133.5321,712.2337,1134.1845,711.4317,1134.9831,711.4403,1135.0041,713.2489,1134.2229,715.0969,1133.5374,716.9258,1132.8058,718.7911,1132.1623,720.538,1131.2314" style="stroke: #FFFFFF; stroke-width: 2.0;"/><!--link AnalyzeUseCases to EngineerUseCases--><path d="M513.444,755.225 L513.6559,755.4084 L518.9835,761.7484 L525.5533,769.1633 L531.7187,776.2281 L536.5536,782.1418 L543.2301,789.649 L543.1521,789.5809 L549.1537,796.5497 L555.5487,803.8622 L562.2173,811.4135 L567.9433,818.1417 L575.5456,826.5082 L581.3414,833.2975 L580.7117,832.741 L587.3188,840.1103 L594.123,847.6537 L599.7807,854.184 L606.1096,861.3074 L612.1845,868.2063 L618.5698,875.3796 L624.5665,882.2093 L624.6457,882.2802 L629.2658,887.4212 L633.7994,892.4849 L638.3075,897.5257 L642.6721,902.4383 L647.0931,907.4012 L647.246,907.5393 L651.8448,912.6149 L655.8955,917.1953 L660.8773,922.6167 L665.0759,927.3307 L669.6939,932.4235 L669.869,932.5836 L673.9862,937.1466 L678.5808,942.146 L683.3012,947.2605 L687.4967,951.895 L691.9674,956.7812 L692.0017,956.813 L696.3867,961.5231 L700.7209,966.1862 L704.8931,970.6987 L709.2969,975.4263 L713.5123,979.979 L713.3276,979.804 L717.687,984.3745 L721.8551,988.7637 L725.9046,993.0406 L730.0419,997.4007 L733.9271,1001.5218 L733.7733,1001.372 L737.4961,1005.1982 L741.2826,1009.0863 L745.2383,1013.1392 L748.9712,1016.9751 L752.8104,1020.9146 L753.0232,1021.13 L756.1459,1024.2089 L759.4834,1027.5052 L763.0519,1031.0353 L766.1624,1034.1018 L769.7607,1037.6621 L769.6035,1037.4933 L772.8805,1040.5947 L775.7391,1043.2467 L778.7528,1046.0654 L781.3561,1048.4432 L784.3767,1051.2693 L784.4679,1051.378 L786.9215,1053.4646 L788.9939,1055.0972 L791.4775,1057.2197 L793.9169,1059.2895 L796.257,1061.241 L796.4179,1061.4818 L798.0045,1062.4076 L799.8684,1063.7483 L801.3661,1064.541 L803.0842,1065.6635 L805,1067.082 L805.0992,1067.2827 L807.1261,1067.9168 L809.6347,1069.5257 L811.8424,1070.5257 L814.0161,1071.457 L816.3361,1072.6842 L816.2709,1072.5411 L818.6074,1073.8667 L820.6544,1074.5571 L823.0054,1075.9145 L824.9811,1076.4487 L827.2697,1077.6692 L827.3753,1077.9225 L829.4646,1078.7481 L831.5358,1079.5302 L833.6141,1080.3293 L835.8423,1081.4883 L837.8302,1082.0704 L837.9264,1082.3256 L839.9001,1082.911 L841.9589,1083.7223 L843.9398,1084.3268 L846.1159,1085.4491 L848.047,1085.9213 L848.0689,1085.9866 L850.052,1086.6608 L851.9217,1086.9987 L853.931,1087.7511 L856.0442,1088.8121 L857.9495,1089.2554 L858.0038,1089.4385 L859.8676,1089.8072 L861.7558,1090.2584 L863.6924,1090.8725 L865.5569,1091.2435 L867.5671,1092.106 L867.6096,1092.2854 L871.3426,1093.3028 L875.0204,1094.0875 L878.7373,1095.0374 L882.3518,1095.5546 L886.0654,1096.4907 L886.0716,1096.529 L889.5804,1096.8911 L893.1702,1097.7562 L896.71,1098.3103 L900.2739,1099.0149 L903.7773,1099.3429 L903.7679,1099.2413 L907.2039,1099.6009 L910.6597,1100.1741 L914.0969,1100.5464 L917.4848,1100.3859 L920.9379,1100.9302 L920.9349,1100.8441 L924.3092,1101.1145 L927.6664,1100.8948 L931.0503,1101.4411 L934.4178,1101.5167 L937.7827,1101.52 L937.7824,1101.4752 L941.1361,1101.5552 L944.4911,1101.7878 L947.8401,1101.2969 L951.1953,1101.5479 L954.547,1101.3799 L954.5515,1101.5068 L957.9326,1101.3108 L961.3168,1101.2015 L964.7002,1101.0688 L968.0724,1100.6206 L971.466,1100.7774 L971.4578,1100.5994 L974.9184,1100.4129 L978.391,1100.4867 L981.8533,1100.338 L985.3167,1100.2112 L988.7752,1099.9799 L988.77,1099.8507 L992.3609,1099.8049 L995.9469,1099.6365 L999.5463,1099.8011 L1003.1305,1099.5894 L1006.7098,1099.255 L1006.7053,1099.0392 L1010.4682,1099.1456 L1014.2226,1098.8446 L1017.9896,1099.1522 L1021.7515,1099.2175 L1025.5051,1098.8702 L1025.5078,1099.1122 L1029.4812,1098.7212 L1033.4639,1099.1655 L1037.4362,1098.6737 L1041.4191,1099.1374 L1045.3964,1099.093 L1045.391,1098.96 L1047.4842,1099.2205 L1049.5728,1099.3688 L1051.6631,1099.5563 L1053.7276,1099.1115 L1055.8267,1099.5158 L1055.8398,1099.7267 L1057.9901,1099.7299 L1060.1535,1099.9435 L1062.3229,1100.2526 L1064.4608,1100.0583 L1066.6191,1100.1909 L1066.6258,1100.2685 L1068.8641,1100.4775 L1071.1003,1100.6625 L1073.3296,1100.7669 L1075.5935,1101.2741 L1077.8033,1101.1516 L1077.7736,1100.8822 L1080.1519,1101.6573 L1082.415,1101.3878 L1084.7401,1101.6808 L1087.0895,1102.1931 L1089.4086,1102.4314 L1089.4103,1102.4438 L1091.7903,1102.5408 L1094.2555,1103.2665 L1096.6485,1103.4587 L1099.0965,1104.0573 L1101.4643,1104.0637 L1101.5115,1104.3564 L1103.9398,1104.2707 L1106.4505,1104.6964 L1108.9766,1105.218 L1111.518,1105.8344 L1114,1106.082 L1114.032,1106.2583 L1116.3919,1106.6432 L1118.7089,1106.7915 L1121.1545,1107.6488 L1123.5223,1108.0772 L1125.84,1108.2295 " fill="none" style="stroke: #FFFFFF; stroke-width: 2.0;"/><polygon fill="#FFFFFF" points="1130.92,1109.1984,1130.9599,1109.2561,1129.2214,1107.9644,1127.7166,1107.0105,1126.1357,1105.9466,1124.3046,1104.521,1122.8198,1103.5961,1122.7984,1103.5815,1123.3398,1104.4507,1123.9891,1105.3934,1124.7134,1106.3874,1125.1792,1107.205,1126.007,1108.2695,1126.111,1108.422,1124.954,1108.7334,1124.1005,1109.49,1123.2841,1110.3009,1122.2521,1110.7957,1121.3336,1111.4568,1121.3388,1111.4789,1123.2484,1110.9948,1125.1818,1110.6114,1127.1037,1110.1794,1129.0475,1109.8401,1130.92,1109.1984" style="stroke: #FFFFFF; stroke-width: 2.0;"/><!--link AnalyzeClasses to EngineerComponents--><path d="M445.045,899.377 L445.1352,899.4014 L443.9342,902.7806 L443.2618,906.3027 L442.4173,909.7783 L441.0066,913.1009 L440.3797,916.6353 L440.346,916.6275 L439.7472,918.5395 L439.3182,920.4905 L439.0071,922.4687 L438.2895,924.3533 L438.1413,926.3689 L438.3826,926.4169 L437.4557,928.3793 L437.2335,930.4817 L437.0972,932.6013 L436.4607,934.6214 L436.0873,936.6938 L436.1172,936.6988 L435.7176,938.853 L435.4542,941.0296 L435.1251,943.1954 L434.9213,945.3819 L434.3088,947.5011 L434.6047,947.5385 L434.326,949.7751 L433.8564,951.9876 L433.6661,954.2354 L433.489,956.4848 L432.897,958.6818 L432.5776,958.6552 L433.0068,960.996 L432.3841,963.2491 L432.5611,965.5688 L431.9146,967.8199 L431.9431,970.1272 L431.9127,970.1262 L432.1915,972.459 L431.7595,974.767 L431.7469,977.0896 L431.7695,979.4134 L431.5381,981.7284 L431.7231,981.7321 L431.5834,984.058 L431.7598,986.3902 L431.4249,988.7121 L431.8526,991.0494 L431.7733,993.3765 L432.0161,993.3967 L432.1635,995.7101 L432.4314,998.0336 L432.1392,1000.3103 L432.2576,1002.6213 L432.7398,1004.9626 L432.4669,1004.9198 L433.0717,1007.2416 L433.369,1009.5152 L434.1123,1011.8587 L434.0942,1014.0828 L434.5287,1016.3779 L434.3805,1016.342 L435.1678,1018.629 L435.3217,1020.7623 L435.926,1023.0049 L436.971,1025.3544 L437.2312,1027.5135 L437.4142,1027.5767 L438.2812,1029.7694 L438.5789,1031.7657 L439.5896,1034.0081 L440.445,1036.1968 L440.9384,1038.2606 L440.7483,1038.1715 L441.8604,1040.2925 L442.9103,1042.3843 L444.0826,1044.5334 L444.7792,1046.4596 L445.7415,1048.5103 L445.9162,1048.6188 L446.7305,1050.3091 L447.8819,1052.2089 L449.5257,1054.4145 L450.263,1056.0569 L451.7317,1058.1537 L451.9071,1058.2966 L453.2566,1059.9974 L454.5467,1061.6499 L455.9707,1063.4114 L457.7045,1065.4251 L459,1067.082 L458.9158,1066.979 L461.8487,1069.4786 L464.2088,1071.2776 L467.2202,1073.8731 L469.8649,1076.0202 L472.4108,1078.0465 L472.46,1078.1436 L475.8819,1079.8181 L479.48,1081.8404 L482.9189,1083.5485 L486.2914,1085.1252 L489.719,1086.811 L489.7598,1086.923 L491.6904,1087.4823 L493.8104,1088.5616 L495.7162,1089.0528 L497.71,1089.7858 L499.675,1090.4395 L499.5986,1090.1801 L501.7718,1090.8995 L504.0371,1091.9313 L506.1721,1092.521 L508.2605,1092.9523 L510.4136,1093.6034 L510.3804,1093.4641 L512.6825,1094.0543 L514.9259,1094.3978 L517.3307,1095.4194 L519.6556,1096.1054 L521.871,1096.3312 L521.915,1096.561 L524.3515,1097.0986 L526.7044,1097.1996 L529.1456,1097.7614 L531.5284,1098.0182 L533.9832,1098.6514 L534.0023,1098.7762 L536.5404,1099.148 L539.1016,1099.6705 L541.5897,1099.7152 L544.1368,1100.1452 L546.6865,1100.5925 L546.71,1100.7882 L549.3626,1101.1609 L551.9514,1101.0025 L554.6143,1101.4612 L557.2786,1101.9307 L559.9168,1102.1829 L559.8917,1101.9125 L562.6699,1102.5929 L565.4047,1102.8043 L568.1287,1102.8992 L570.8774,1103.2604 L573.6102,1103.4511 L573.6326,1103.7742 L576.4192,1103.5073 L579.257,1103.9805 L582.0746,1104.1624 L584.888,1104.282 L587.703,1104.4256 L587.7061,1104.4881 L590.5911,1104.6178 L593.4606,1104.4322 L596.3511,1104.6732 L599.2354,1104.7881 L602.1311,1105.1348 L602.132,1105.1631 L605.0723,1105.2684 L608.0133,1105.3956 L610.9467,1105.289 L613.8898,1105.4827 L616.8307,1105.6072 L616.8298,1105.5538 L619.8167,1105.9164 L622.7969,1105.9024 L625.7712,1105.55 L628.7559,1105.7861 L631.7379,1105.8714 L631.7365,1105.6148 L634.7488,1106.0164 L637.7598,1106.1755 L640.7698,1106.164 L643.7775,1105.7453 L646.7888,1105.9557 L646.7905,1106.1619 L652.8414,1105.5742 L658.9004,1105.9419 L664.9539,1105.6685 L671.0108,1105.7931 L677.0659,1105.6987 L677.0681,1105.8055 L683.0873,1105.7816 L689.0931,1105.125 L695.1214,1105.5292 L701.1356,1105.2702 L707.1509,1105.0641 L707.1632,1105.5377 L716.7682,1105.8124 L726.3341,1104.5744 L735.9315,1104.5522 L745.5243,1104.3546 L755.1152,1104.0845 L764.6999,1103.5731 L764.6999,1103.5728 L769.993,1103.8088 L775.2724,1103.1418 L780.5686,1103.5839 L785.8489,1102.9752 L791.1415,1103.1723 L791.1412,1102.9322 L793.6243,1103.1872 L796.107,1103.1791 L798.5895,1102.9445 L801.0728,1103.3445 L803.5554,1103.1577 L803.556,1103.2061 L805.9175,1103.5101 L808.2754,1103.5131 L810.6273,1103.0469 L812.9858,1103.0987 L815.3461,1103.305 L815.3444,1103.2476 L817.5717,1103.5305 L819.7931,1103.6191 L822.0124,1103.6413 L824.2245,1103.4232 L826.4499,1103.6426 L826.4651,1103.925 L828.5356,1104.0352 L830.5899,1103.8442 L832.6559,1103.8703 L834.7226,1103.9096 L836.8027,1104.199 L836.7929,1104.1041 L840.4485,1104.6363 L844.0785,1104.922 L847.702,1105.1441 L851.3828,1105.9209 L855,1106.082 L854.9684,1105.8805 L857.401,1106.6741 L859.7622,1107.0125 L862.1248,1107.3597 L864.5133,1107.8719 L866.832,1107.9393 " fill="none" style="stroke: #FFFFFF; stroke-width: 2.0;"/><polygon fill="#FFFFFF" points="871.899,1108.7829,871.9376,1108.8414,870.1788,1107.5828,868.6462,1106.667,867.04,1105.6396,865.1916,1104.2451,863.6784,1103.3587,863.6573,1103.3437,864.2204,1104.1966,864.8898,1105.1255,865.633,1106.1072,866.1217,1106.907,866.9669,1107.9615,867.0742,1108.1117,865.9242,1108.4483,865.0875,1109.2233,864.289,1110.0518,863.2681,1110.5691,862.3641,1111.25,862.3698,1111.2721,864.2685,1110.7463,866.193,1110.3208,868.105,1109.8469,870.0409,1109.4654,871.899,1108.7829" style="stroke: #FFFFFF; stroke-width: 2.0;"/><!--link AnalyzePackages to EngineerComponents--><path d="M624.772,1043.087 L624.8096,1043.1725 L628.6499,1044.6588 L632.7109,1046.6463 L636.7,1048.4706 L640.4528,1049.7581 L644.5327,1051.7886 L644.5193,1051.7568 L646.5446,1052.4921 L648.6374,1053.3878 L650.7772,1054.3951 L652.7552,1055.018 L654.9599,1056.1793 L655.0525,1056.4073 L656.989,1056.7869 L659.1959,1057.8321 L661.4358,1058.9585 L663.4838,1059.6125 L665.6328,1060.5149 L665.6438,1060.5432 L667.7935,1061.3455 L669.9934,1062.2766 L672.1691,1063.1455 L674.3909,1064.1329 L676.4623,1064.7342 L676.566,1065.0138 L678.7467,1065.8256 L680.8605,1066.457 L683.0722,1067.3525 L685.2885,1068.2603 L687.3594,1068.776 L687.2536,1068.4734 L689.6341,1069.8212 L691.6661,1070.1728 L693.9631,1071.2817 L695.9873,1071.6107 L698.235,1072.579 L698.2256,1072.5501 L700.49,1073.593 L702.5343,1073.9596 L704.7085,1074.7253 L706.8936,1075.5245 L709,1076.082 L709.0383,1076.263 L712.0164,1076.7192 L715.0601,1077.4847 L717.9977,1077.7499 L721.0934,1078.7613 L724.084,1079.2766 L724.133,1079.5153 L731.4718,1080.9768 L738.8349,1082.5568 L746.0852,1083.5862 L753.4182,1085.0192 L760.8245,1086.8098 L760.6595,1085.9979 L770.4135,1088.6853 L779.9815,1090.4578 L789.8193,1093.5573 L799.1965,1094.3911 L808.7563,1096.1235 L818.5127,1098.8224 L827.8795,1099.6053 L837.5233,1101.7507 L847.4382,1105.2293 L856.9861,1106.903 L866.475,1108.2861 " fill="none" style="stroke: #FFFFFF; stroke-width: 2.0;"/><polygon fill="#FFFFFF" points="871.774,1109.3604,871.8146,1109.4175,870.089,1108.1059,868.6014,1107.129,867.0363,1106.0431,865.2163,1104.5988,863.7491,1103.6506,863.7275,1103.6363,864.2556,1104.5152,864.8925,1105.4662,865.605,1106.4674,866.0568,1107.2958,866.8739,1108.3662,866.9758,1108.52,865.8147,1108.816,864.9512,1109.5611,864.1241,1110.361,863.0856,1110.8421,862.1583,1111.4909,862.1632,1111.5131,864.0792,1111.0544,866.0175,1110.6968,867.945,1110.2904,869.8931,1109.9771,871.774,1109.3604" style="stroke: #FFFFFF; stroke-width: 2.0;"/><text fill="#FFA500" font-family="courier" font-size="15" font-style="italic" lengthAdjust="spacingAndGlyphs" textLength="630" x="375.5" y="1218.1626">Luis Fernández Muñoz - https://www.linkedin.com/in/luisfernandezmunyoz</text><!--
@startuml

skinparam backgroundColor #222222

skinparam default {
    FontSize 20
    FontName courier
    FontStyle normal
    FontColor #white
}
skinparam handwritten true

skinparam shadowing false
skinparam padding 1
skinparam arrow {
    Thickness 2
    Color #white
    FontSize 20
    FontName courier
    FontStyle normal
    FontColor #white
}

skinparam title {
    BorderThickness 5
    BorderColor #orange
    FontSize 30
    FontName arial
    FontStyle bold
    FontColor #orange
 }

skinparam header {
    FontSize 15
    FontName courier
    FontStyle italic
    FontColor #orange
}

skinparam footer {
    FontSize 15
    FontName courier
    FontStyle italic
    FontColor #orange
}

skinparam legend {
    BorderThickness 1
    BorderColor #orange
    backgroundColor #222222
    FontSize 15
    FontName courier
    FontStyle italic
    FontColor #orange
}

skinparam package {
    BorderThickness 3
    BorderColor #white
    BackgroundColor #222222
    FontSize 20
    FontName courier
    FontStyle bold
    FontColor #white
}

skinparam class {
    BorderThickness 3
    BorderColor #white
    BackgroundColor #222222
    FontSize 20
    FontName courier
    FontStyle bold
    FontColor #white
}

skinparam classAttribute {
    FontSize 15
    FontName courier
    FontStyle normal
    FontColor #white
}

hide circle
hide stereotype

header Universo Santa Tecla - USantaTecla@gmail.com
footer Luis Fernández Muñoz - https://www.linkedin.com/in/luisfernandezmunyoz

skinparam class {
    BorderColor<<disciplines>> #red
    BorderColor<<activities>> #green
    BorderColor<<team>> #blue
    FontColor<<disciplines>> #red
    FontColor<<activities>> #green
    FontColor<<team>> #blue
}

skinparam package {
    BorderColor<<disciplines>> #red
    BorderColor<<activities>> #green
    BorderColor<<team>> #blue
    FontColor<<disciplines>> #red
    FontColor<<activities>> #green
    FontColor<<team>> #blue
}

skinparam classAttribute {
    FontColor<<disciplines>> #red
    FontColor<<activities>> #green
    FontColor<<team>> #blue
}

title Analysis Discipline

package disciplines <<disciplines>> {
class Discipline  <<disciplines>>
class AnalysisDiscipline  <<disciplines>>
}

package activities <<activities>>{
class Activity <<activities>>
class AnalysisActivity <<activities>>
class AnalyzeArchitecture <<activities>>
class AnalyzeUseCases <<activities>>
class AnalyzeClasses <<activities>>
class AnalyzePackages <<activities>>
}

package team <<team>> {
class Member <<team>>
class Role <<team>>
class AnalysisRole <<team>>
class Architect <<team>>
class EngineerUseCases <<team>>
class EngineerComponents <<team>>
}

Discipline *- -> Activity
Discipline <|- - AnalysisDiscipline
AnalysisDiscipline *- -> "4" AnalysisActivity
Activity <|- - AnalysisActivity

AnalysisActivity <|- - AnalyzeArchitecture
AnalysisActivity <|- - AnalyzeUseCases
AnalysisActivity <|- - AnalyzeClasses
AnalysisActivity <|- - AnalyzePackages
AnalyzeArchitecture - -> AnalyzeUseCases :next
AnalyzeUseCases - -> AnalyzeClasses :next
AnalyzeClasses - -> AnalyzePackages :next

AnalysisActivity *- -> Member
Member *- -> Role
Role <|- - AnalysisRole
AnalysisRole <|- - Architect
AnalysisRole <|- - EngineerUseCases
AnalysisRole <|- - EngineerComponents

AnalyzeArchitecture - -> Architect
AnalyzeUseCases - -> EngineerUseCases
AnalyzeClasses - -> EngineerComponents
AnalyzePackages - -> EngineerComponents
@enduml

PlantUML version 1.2019.05(Sat Apr 20 18:45:36 CEST 2019)
(GPL source distribution)
Java Runtime: OpenJDK Runtime Environment
JVM: OpenJDK 64-Bit Server VM
Java Version: 1.8.0_222-b10
Operating System: Windows 10
OS Version: 10.0
Default Encoding: windows-1252
Language: es
Country: ES
--></g></svg>