<?xml version="1.0" encoding="UTF-8" standalone="no"?><svg xmlns="http://www.w3.org/2000/svg" xmlns:xlink="http://www.w3.org/1999/xlink" contentScriptType="application/ecmascript" contentStyleType="text/css" height="433px" preserveAspectRatio="none" style="width:852px;height:433px;" version="1.1" viewBox="0 0 852 433" width="852px" zoomAndPan="magnify"><defs><filter height="300%" id="f1vyelepxpb4g6" width="300%" x="-1" y="-1"><feGaussianBlur result="blurOut" stdDeviation="2.0"/><feColorMatrix in="blurOut" result="blurOut2" type="matrix" values="0 0 0 0 0 0 0 0 0 0 0 0 0 0 0 0 0 0 .4 0"/><feOffset dx="4.0" dy="4.0" in="blurOut2" result="blurOut3"/><feBlend in="SourceGraphic" in2="blurOut3" mode="normal"/></filter></defs><g><text fill="#000000" font-family="sans-serif" font-size="18" lengthAdjust="spacingAndGlyphs" textLength="112" x="373.5" y="18.6855">Analyze Class</text><!--class Activity--><rect fill="#FF0000" filter="url(#f1vyelepxpb4g6)" height="48" id="Activity" style="stroke: #A80036; stroke-width: 1.5;" width="67" x="631.5" y="30.6406"/><rect fill="#FF0000" height="32" style="stroke: #A80036; stroke-width: 1.5;" width="67" x="631.5" y="30.6406"/><ellipse cx="646.5" cy="46.6406" fill="#ADD1B2" rx="11" ry="11" style="stroke: #A80036; stroke-width: 1.0;"/><path d="M649.2656,42.5156 Q649.4219,42.2969 649.6094,42.1875 Q649.7969,42.0781 650.0156,42.0781 Q650.3906,42.0781 650.625,42.3359 Q650.8594,42.5938 650.8594,43.2031 L650.8594,44.6563 Q650.8594,45.2656 650.625,45.5313 Q650.3906,45.7969 650.0156,45.7969 Q649.6719,45.7969 649.4688,45.5938 Q649.2656,45.4063 649.1563,44.8906 Q649.1094,44.5313 648.9219,44.3438 Q648.5938,43.9688 647.9844,43.75 Q647.375,43.5313 646.75,43.5313 Q645.9844,43.5313 645.3516,43.8594 Q644.7188,44.1875 644.2266,44.9375 Q643.7344,45.6875 643.7344,46.7188 L643.7344,47.8125 Q643.7344,49.0469 644.625,49.8672 Q645.5156,50.6875 647.1094,50.6875 Q648.0469,50.6875 648.7031,50.4375 Q649.0938,50.2813 649.5156,49.8438 Q649.7813,49.5781 649.9297,49.5 Q650.0781,49.4219 650.2813,49.4219 Q650.6094,49.4219 650.8672,49.6797 Q651.125,49.9375 651.125,50.2813 Q651.125,50.625 650.7813,51.0313 Q650.2813,51.6094 649.4844,51.9375 Q648.4063,52.3906 647.1094,52.3906 Q645.5938,52.3906 644.3906,51.7656 Q643.4063,51.2656 642.7188,50.1953 Q642.0313,49.125 642.0313,47.8438 L642.0313,46.6875 Q642.0313,45.3594 642.6484,44.2109 Q643.2656,43.0625 644.3594,42.4453 Q645.4531,41.8281 646.6875,41.8281 Q647.4219,41.8281 648.0703,41.9922 Q648.7188,42.1563 649.2656,42.5156 Z "/><text fill="#000000" font-family="sans-serif" font-size="12" lengthAdjust="spacingAndGlyphs" textLength="35" x="660.5" y="51.5508">Activity</text><line style="stroke: #A80036; stroke-width: 1.5;" x1="632.5" x2="697.5" y1="62.6406" y2="62.6406"/><line style="stroke: #A80036; stroke-width: 1.5;" x1="632.5" x2="697.5" y1="70.6406" y2="70.6406"/><!--class AnalysisActivity--><rect fill="#FF0000" filter="url(#f1vyelepxpb4g6)" height="48" id="AnalysisActivity" style="stroke: #A80036; stroke-width: 1.5;" width="113" x="548.5" y="139.6406"/><rect fill="#FF0000" height="32" style="stroke: #A80036; stroke-width: 1.5;" width="113" x="548.5" y="139.6406"/><ellipse cx="563.5" cy="155.6406" fill="#ADD1B2" rx="11" ry="11" style="stroke: #A80036; stroke-width: 1.0;"/><path d="M566.2656,151.5156 Q566.4219,151.2969 566.6094,151.1875 Q566.7969,151.0781 567.0156,151.0781 Q567.3906,151.0781 567.625,151.3359 Q567.8594,151.5938 567.8594,152.2031 L567.8594,153.6563 Q567.8594,154.2656 567.625,154.5313 Q567.3906,154.7969 567.0156,154.7969 Q566.6719,154.7969 566.4688,154.5938 Q566.2656,154.4063 566.1563,153.8906 Q566.1094,153.5313 565.9219,153.3438 Q565.5938,152.9688 564.9844,152.75 Q564.375,152.5313 563.75,152.5313 Q562.9844,152.5313 562.3516,152.8594 Q561.7188,153.1875 561.2266,153.9375 Q560.7344,154.6875 560.7344,155.7188 L560.7344,156.8125 Q560.7344,158.0469 561.625,158.8672 Q562.5156,159.6875 564.1094,159.6875 Q565.0469,159.6875 565.7031,159.4375 Q566.0938,159.2813 566.5156,158.8438 Q566.7813,158.5781 566.9297,158.5 Q567.0781,158.4219 567.2813,158.4219 Q567.6094,158.4219 567.8672,158.6797 Q568.125,158.9375 568.125,159.2813 Q568.125,159.625 567.7813,160.0313 Q567.2813,160.6094 566.4844,160.9375 Q565.4063,161.3906 564.1094,161.3906 Q562.5938,161.3906 561.3906,160.7656 Q560.4063,160.2656 559.7188,159.1953 Q559.0313,158.125 559.0313,156.8438 L559.0313,155.6875 Q559.0313,154.3594 559.6484,153.2109 Q560.2656,152.0625 561.3594,151.4453 Q562.4531,150.8281 563.6875,150.8281 Q564.4219,150.8281 565.0703,150.9922 Q565.7188,151.1563 566.2656,151.5156 Z "/><text fill="#000000" font-family="sans-serif" font-size="12" lengthAdjust="spacingAndGlyphs" textLength="81" x="577.5" y="160.5508">AnalysisActivity</text><line style="stroke: #A80036; stroke-width: 1.5;" x1="549.5" x2="660.5" y1="171.6406" y2="171.6406"/><line style="stroke: #A80036; stroke-width: 1.5;" x1="549.5" x2="660.5" y1="179.6406" y2="179.6406"/><!--class Role--><rect fill="#0000FF" filter="url(#f1vyelepxpb4g6)" height="48" id="Role" style="stroke: #A80036; stroke-width: 1.5;" width="58" x="697" y="139.6406"/><rect fill="#0000FF" height="32" style="stroke: #A80036; stroke-width: 1.5;" width="58" x="697" y="139.6406"/><ellipse cx="712" cy="155.6406" fill="#ADD1B2" rx="11" ry="11" style="stroke: #A80036; stroke-width: 1.0;"/><path d="M714.7656,151.5156 Q714.9219,151.2969 715.1094,151.1875 Q715.2969,151.0781 715.5156,151.0781 Q715.8906,151.0781 716.125,151.3359 Q716.3594,151.5938 716.3594,152.2031 L716.3594,153.6563 Q716.3594,154.2656 716.125,154.5313 Q715.8906,154.7969 715.5156,154.7969 Q715.1719,154.7969 714.9688,154.5938 Q714.7656,154.4063 714.6563,153.8906 Q714.6094,153.5313 714.4219,153.3438 Q714.0938,152.9688 713.4844,152.75 Q712.875,152.5313 712.25,152.5313 Q711.4844,152.5313 710.8516,152.8594 Q710.2188,153.1875 709.7266,153.9375 Q709.2344,154.6875 709.2344,155.7188 L709.2344,156.8125 Q709.2344,158.0469 710.125,158.8672 Q711.0156,159.6875 712.6094,159.6875 Q713.5469,159.6875 714.2031,159.4375 Q714.5938,159.2813 715.0156,158.8438 Q715.2813,158.5781 715.4297,158.5 Q715.5781,158.4219 715.7813,158.4219 Q716.1094,158.4219 716.3672,158.6797 Q716.625,158.9375 716.625,159.2813 Q716.625,159.625 716.2813,160.0313 Q715.7813,160.6094 714.9844,160.9375 Q713.9063,161.3906 712.6094,161.3906 Q711.0938,161.3906 709.8906,160.7656 Q708.9063,160.2656 708.2188,159.1953 Q707.5313,158.125 707.5313,156.8438 L707.5313,155.6875 Q707.5313,154.3594 708.1484,153.2109 Q708.7656,152.0625 709.8594,151.4453 Q710.9531,150.8281 712.1875,150.8281 Q712.9219,150.8281 713.5703,150.9922 Q714.2188,151.1563 714.7656,151.5156 Z "/><text fill="#000000" font-family="sans-serif" font-size="12" lengthAdjust="spacingAndGlyphs" textLength="26" x="726" y="160.5508">Role</text><line style="stroke: #A80036; stroke-width: 1.5;" x1="698" x2="754" y1="171.6406" y2="171.6406"/><line style="stroke: #A80036; stroke-width: 1.5;" x1="698" x2="754" y1="179.6406" y2="179.6406"/><!--class RealizationUseCase--><rect fill="#008000" filter="url(#f1vyelepxpb4g6)" height="48" id="RealizationUseCase" style="stroke: #A80036; stroke-width: 1.5;" width="222" x="6" y="374.6406"/><rect fill="#008000" height="32" style="stroke: #A80036; stroke-width: 1.5;" width="222" x="6" y="374.6406"/><ellipse cx="21" cy="390.6406" fill="#ADD1B2" rx="11" ry="11" style="stroke: #A80036; stroke-width: 1.0;"/><path d="M23.7656,386.5156 Q23.9219,386.2969 24.1094,386.1875 Q24.2969,386.0781 24.5156,386.0781 Q24.8906,386.0781 25.125,386.3359 Q25.3594,386.5938 25.3594,387.2031 L25.3594,388.6563 Q25.3594,389.2656 25.125,389.5313 Q24.8906,389.7969 24.5156,389.7969 Q24.1719,389.7969 23.9688,389.5938 Q23.7656,389.4063 23.6563,388.8906 Q23.6094,388.5313 23.4219,388.3438 Q23.0938,387.9688 22.4844,387.75 Q21.875,387.5313 21.25,387.5313 Q20.4844,387.5313 19.8516,387.8594 Q19.2188,388.1875 18.7266,388.9375 Q18.2344,389.6875 18.2344,390.7188 L18.2344,391.8125 Q18.2344,393.0469 19.125,393.8672 Q20.0156,394.6875 21.6094,394.6875 Q22.5469,394.6875 23.2031,394.4375 Q23.5938,394.2813 24.0156,393.8438 Q24.2813,393.5781 24.4297,393.5 Q24.5781,393.4219 24.7813,393.4219 Q25.1094,393.4219 25.3672,393.6797 Q25.625,393.9375 25.625,394.2813 Q25.625,394.625 25.2813,395.0313 Q24.7813,395.6094 23.9844,395.9375 Q22.9063,396.3906 21.6094,396.3906 Q20.0938,396.3906 18.8906,395.7656 Q17.9063,395.2656 17.2188,394.1953 Q16.5313,393.125 16.5313,391.8438 L16.5313,390.6875 Q16.5313,389.3594 17.1484,388.2109 Q17.7656,387.0625 18.8594,386.4453 Q19.9531,385.8281 21.1875,385.8281 Q21.9219,385.8281 22.5703,385.9922 Q23.2188,386.1563 23.7656,386.5156 Z "/><text fill="#000000" font-family="sans-serif" font-size="12" lengthAdjust="spacingAndGlyphs" textLength="190" x="35" y="395.5508">Realization of Use Case (Analysis)</text><line style="stroke: #A80036; stroke-width: 1.5;" x1="7" x2="227" y1="406.6406" y2="406.6406"/><line style="stroke: #A80036; stroke-width: 1.5;" x1="7" x2="227" y1="414.6406" y2="414.6406"/><!--class AnalysisClass--><rect fill="#008000" filter="url(#f1vyelepxpb4g6)" height="48" id="AnalysisClass" style="stroke: #A80036; stroke-width: 1.5;" width="162" x="263" y="374.6406"/><rect fill="#008000" height="32" style="stroke: #A80036; stroke-width: 1.5;" width="162" x="263" y="374.6406"/><ellipse cx="278" cy="390.6406" fill="#ADD1B2" rx="11" ry="11" style="stroke: #A80036; stroke-width: 1.0;"/><path d="M280.7656,386.5156 Q280.9219,386.2969 281.1094,386.1875 Q281.2969,386.0781 281.5156,386.0781 Q281.8906,386.0781 282.125,386.3359 Q282.3594,386.5938 282.3594,387.2031 L282.3594,388.6563 Q282.3594,389.2656 282.125,389.5313 Q281.8906,389.7969 281.5156,389.7969 Q281.1719,389.7969 280.9688,389.5938 Q280.7656,389.4063 280.6563,388.8906 Q280.6094,388.5313 280.4219,388.3438 Q280.0938,387.9688 279.4844,387.75 Q278.875,387.5313 278.25,387.5313 Q277.4844,387.5313 276.8516,387.8594 Q276.2188,388.1875 275.7266,388.9375 Q275.2344,389.6875 275.2344,390.7188 L275.2344,391.8125 Q275.2344,393.0469 276.125,393.8672 Q277.0156,394.6875 278.6094,394.6875 Q279.5469,394.6875 280.2031,394.4375 Q280.5938,394.2813 281.0156,393.8438 Q281.2813,393.5781 281.4297,393.5 Q281.5781,393.4219 281.7813,393.4219 Q282.1094,393.4219 282.3672,393.6797 Q282.625,393.9375 282.625,394.2813 Q282.625,394.625 282.2813,395.0313 Q281.7813,395.6094 280.9844,395.9375 Q279.9063,396.3906 278.6094,396.3906 Q277.0938,396.3906 275.8906,395.7656 Q274.9063,395.2656 274.2188,394.1953 Q273.5313,393.125 273.5313,391.8438 L273.5313,390.6875 Q273.5313,389.3594 274.1484,388.2109 Q274.7656,387.0625 275.8594,386.4453 Q276.9531,385.8281 278.1875,385.8281 Q278.9219,385.8281 279.5703,385.9922 Q280.2188,386.1563 280.7656,386.5156 Z "/><text fill="#000000" font-family="sans-serif" font-size="12" lengthAdjust="spacingAndGlyphs" textLength="130" x="292" y="395.5508">Analysis Class (outline)</text><line style="stroke: #A80036; stroke-width: 1.5;" x1="264" x2="424" y1="406.6406" y2="406.6406"/><line style="stroke: #A80036; stroke-width: 1.5;" x1="264" x2="424" y1="414.6406" y2="414.6406"/><!--class AnalysisClassX--><rect fill="#008000" filter="url(#f1vyelepxpb4g6)" height="48" id="AnalysisClassX" style="stroke: #A80036; stroke-width: 1.5;" width="176" x="460" y="374.6406"/><rect fill="#008000" height="32" style="stroke: #A80036; stroke-width: 1.5;" width="176" x="460" y="374.6406"/><ellipse cx="475" cy="390.6406" fill="#ADD1B2" rx="11" ry="11" style="stroke: #A80036; stroke-width: 1.0;"/><path d="M477.7656,386.5156 Q477.9219,386.2969 478.1094,386.1875 Q478.2969,386.0781 478.5156,386.0781 Q478.8906,386.0781 479.125,386.3359 Q479.3594,386.5938 479.3594,387.2031 L479.3594,388.6563 Q479.3594,389.2656 479.125,389.5313 Q478.8906,389.7969 478.5156,389.7969 Q478.1719,389.7969 477.9688,389.5938 Q477.7656,389.4063 477.6563,388.8906 Q477.6094,388.5313 477.4219,388.3438 Q477.0938,387.9688 476.4844,387.75 Q475.875,387.5313 475.25,387.5313 Q474.4844,387.5313 473.8516,387.8594 Q473.2188,388.1875 472.7266,388.9375 Q472.2344,389.6875 472.2344,390.7188 L472.2344,391.8125 Q472.2344,393.0469 473.125,393.8672 Q474.0156,394.6875 475.6094,394.6875 Q476.5469,394.6875 477.2031,394.4375 Q477.5938,394.2813 478.0156,393.8438 Q478.2813,393.5781 478.4297,393.5 Q478.5781,393.4219 478.7813,393.4219 Q479.1094,393.4219 479.3672,393.6797 Q479.625,393.9375 479.625,394.2813 Q479.625,394.625 479.2813,395.0313 Q478.7813,395.6094 477.9844,395.9375 Q476.9063,396.3906 475.6094,396.3906 Q474.0938,396.3906 472.8906,395.7656 Q471.9063,395.2656 471.2188,394.1953 Q470.5313,393.125 470.5313,391.8438 L470.5313,390.6875 Q470.5313,389.3594 471.1484,388.2109 Q471.7656,387.0625 472.8594,386.4453 Q473.9531,385.8281 475.1875,385.8281 Q475.9219,385.8281 476.5703,385.9922 Q477.2188,386.1563 477.7656,386.5156 Z "/><text fill="#000000" font-family="sans-serif" font-size="12" lengthAdjust="spacingAndGlyphs" textLength="144" x="489" y="395.5508">Analysis Class (complete)</text><line style="stroke: #A80036; stroke-width: 1.5;" x1="461" x2="635" y1="406.6406" y2="406.6406"/><line style="stroke: #A80036; stroke-width: 1.5;" x1="461" x2="635" y1="414.6406" y2="414.6406"/><!--class AnalysisRole--><rect fill="#0000FF" filter="url(#f1vyelepxpb4g6)" height="48" id="AnalysisRole" style="stroke: #A80036; stroke-width: 1.5;" width="104" x="674" y="248.6406"/><rect fill="#0000FF" height="32" style="stroke: #A80036; stroke-width: 1.5;" width="104" x="674" y="248.6406"/><ellipse cx="689" cy="264.6406" fill="#ADD1B2" rx="11" ry="11" style="stroke: #A80036; stroke-width: 1.0;"/><path d="M691.7656,260.5156 Q691.9219,260.2969 692.1094,260.1875 Q692.2969,260.0781 692.5156,260.0781 Q692.8906,260.0781 693.125,260.3359 Q693.3594,260.5938 693.3594,261.2031 L693.3594,262.6563 Q693.3594,263.2656 693.125,263.5313 Q692.8906,263.7969 692.5156,263.7969 Q692.1719,263.7969 691.9688,263.5938 Q691.7656,263.4063 691.6563,262.8906 Q691.6094,262.5313 691.4219,262.3438 Q691.0938,261.9688 690.4844,261.75 Q689.875,261.5313 689.25,261.5313 Q688.4844,261.5313 687.8516,261.8594 Q687.2188,262.1875 686.7266,262.9375 Q686.2344,263.6875 686.2344,264.7188 L686.2344,265.8125 Q686.2344,267.0469 687.125,267.8672 Q688.0156,268.6875 689.6094,268.6875 Q690.5469,268.6875 691.2031,268.4375 Q691.5938,268.2813 692.0156,267.8438 Q692.2813,267.5781 692.4297,267.5 Q692.5781,267.4219 692.7813,267.4219 Q693.1094,267.4219 693.3672,267.6797 Q693.625,267.9375 693.625,268.2813 Q693.625,268.625 693.2813,269.0313 Q692.7813,269.6094 691.9844,269.9375 Q690.9063,270.3906 689.6094,270.3906 Q688.0938,270.3906 686.8906,269.7656 Q685.9063,269.2656 685.2188,268.1953 Q684.5313,267.125 684.5313,265.8438 L684.5313,264.6875 Q684.5313,263.3594 685.1484,262.2109 Q685.7656,261.0625 686.8594,260.4453 Q687.9531,259.8281 689.1875,259.8281 Q689.9219,259.8281 690.5703,259.9922 Q691.2188,260.1563 691.7656,260.5156 Z "/><text fill="#000000" font-family="sans-serif" font-size="12" lengthAdjust="spacingAndGlyphs" textLength="72" x="703" y="269.5508">AnalysisRole</text><line style="stroke: #A80036; stroke-width: 1.5;" x1="675" x2="777" y1="280.6406" y2="280.6406"/><line style="stroke: #A80036; stroke-width: 1.5;" x1="675" x2="777" y1="288.6406" y2="288.6406"/><!--class AnalyzeClasses--><rect fill="#FF0000" filter="url(#f1vyelepxpb4g6)" height="48" id="AnalyzeClasses" style="stroke: #A80036; stroke-width: 1.5;" width="123" x="486.5" y="248.6406"/><rect fill="#FF0000" height="32" style="stroke: #A80036; stroke-width: 1.5;" width="123" x="486.5" y="248.6406"/><ellipse cx="501.5" cy="264.6406" fill="#ADD1B2" rx="11" ry="11" style="stroke: #A80036; stroke-width: 1.0;"/><path d="M504.2656,260.5156 Q504.4219,260.2969 504.6094,260.1875 Q504.7969,260.0781 505.0156,260.0781 Q505.3906,260.0781 505.625,260.3359 Q505.8594,260.5938 505.8594,261.2031 L505.8594,262.6563 Q505.8594,263.2656 505.625,263.5313 Q505.3906,263.7969 505.0156,263.7969 Q504.6719,263.7969 504.4688,263.5938 Q504.2656,263.4063 504.1563,262.8906 Q504.1094,262.5313 503.9219,262.3438 Q503.5938,261.9688 502.9844,261.75 Q502.375,261.5313 501.75,261.5313 Q500.9844,261.5313 500.3516,261.8594 Q499.7188,262.1875 499.2266,262.9375 Q498.7344,263.6875 498.7344,264.7188 L498.7344,265.8125 Q498.7344,267.0469 499.625,267.8672 Q500.5156,268.6875 502.1094,268.6875 Q503.0469,268.6875 503.7031,268.4375 Q504.0938,268.2813 504.5156,267.8438 Q504.7813,267.5781 504.9297,267.5 Q505.0781,267.4219 505.2813,267.4219 Q505.6094,267.4219 505.8672,267.6797 Q506.125,267.9375 506.125,268.2813 Q506.125,268.625 505.7813,269.0313 Q505.2813,269.6094 504.4844,269.9375 Q503.4063,270.3906 502.1094,270.3906 Q500.5938,270.3906 499.3906,269.7656 Q498.4063,269.2656 497.7188,268.1953 Q497.0313,267.125 497.0313,265.8438 L497.0313,264.6875 Q497.0313,263.3594 497.6484,262.2109 Q498.2656,261.0625 499.3594,260.4453 Q500.4531,259.8281 501.6875,259.8281 Q502.4219,259.8281 503.0703,259.9922 Q503.7188,260.1563 504.2656,260.5156 Z "/><text fill="#000000" font-family="sans-serif" font-size="12" lengthAdjust="spacingAndGlyphs" textLength="91" x="515.5" y="269.5508">Analyze Classes</text><line style="stroke: #A80036; stroke-width: 1.5;" x1="487.5" x2="608.5" y1="280.6406" y2="280.6406"/><line style="stroke: #A80036; stroke-width: 1.5;" x1="487.5" x2="608.5" y1="288.6406" y2="288.6406"/><!--class EngineerComponents--><rect fill="#0000FF" filter="url(#f1vyelepxpb4g6)" height="48" id="EngineerComponents" style="stroke: #A80036; stroke-width: 1.5;" width="170" x="671" y="374.6406"/><rect fill="#0000FF" height="32" style="stroke: #A80036; stroke-width: 1.5;" width="170" x="671" y="374.6406"/><ellipse cx="686" cy="390.6406" fill="#ADD1B2" rx="11" ry="11" style="stroke: #A80036; stroke-width: 1.0;"/><path d="M688.7656,386.5156 Q688.9219,386.2969 689.1094,386.1875 Q689.2969,386.0781 689.5156,386.0781 Q689.8906,386.0781 690.125,386.3359 Q690.3594,386.5938 690.3594,387.2031 L690.3594,388.6563 Q690.3594,389.2656 690.125,389.5313 Q689.8906,389.7969 689.5156,389.7969 Q689.1719,389.7969 688.9688,389.5938 Q688.7656,389.4063 688.6563,388.8906 Q688.6094,388.5313 688.4219,388.3438 Q688.0938,387.9688 687.4844,387.75 Q686.875,387.5313 686.25,387.5313 Q685.4844,387.5313 684.8516,387.8594 Q684.2188,388.1875 683.7266,388.9375 Q683.2344,389.6875 683.2344,390.7188 L683.2344,391.8125 Q683.2344,393.0469 684.125,393.8672 Q685.0156,394.6875 686.6094,394.6875 Q687.5469,394.6875 688.2031,394.4375 Q688.5938,394.2813 689.0156,393.8438 Q689.2813,393.5781 689.4297,393.5 Q689.5781,393.4219 689.7813,393.4219 Q690.1094,393.4219 690.3672,393.6797 Q690.625,393.9375 690.625,394.2813 Q690.625,394.625 690.2813,395.0313 Q689.7813,395.6094 688.9844,395.9375 Q687.9063,396.3906 686.6094,396.3906 Q685.0938,396.3906 683.8906,395.7656 Q682.9063,395.2656 682.2188,394.1953 Q681.5313,393.125 681.5313,391.8438 L681.5313,390.6875 Q681.5313,389.3594 682.1484,388.2109 Q682.7656,387.0625 683.8594,386.4453 Q684.9531,385.8281 686.1875,385.8281 Q686.9219,385.8281 687.5703,385.9922 Q688.2188,386.1563 688.7656,386.5156 Z "/><text fill="#000000" font-family="sans-serif" font-size="12" lengthAdjust="spacingAndGlyphs" textLength="138" x="700" y="395.5508">Engineer of Components</text><line style="stroke: #A80036; stroke-width: 1.5;" x1="672" x2="840" y1="406.6406" y2="406.6406"/><line style="stroke: #A80036; stroke-width: 1.5;" x1="672" x2="840" y1="414.6406" y2="414.6406"/><!--link Activity to AnalysisActivity--><path d="M641.938,96.7676 C633.821,111.2426 624.987,126.9976 617.994,139.4686 " fill="none" id="Activity-AnalysisActivity" style="stroke: #A80036; stroke-width: 1.0;"/><polygon fill="none" points="636.093,92.8786,651.981,78.8576,648.304,99.7266,636.093,92.8786" style="stroke: #A80036; stroke-width: 1.0;"/><!--link Activity to Role--><path d="M678.236,78.8576 C687.589,95.2636 700.17,117.3326 710.073,134.7026 " fill="none" id="Activity-Role" style="stroke: #A80036; stroke-width: 1.0;"/><polygon fill="#A80036" points="712.79,139.4686,711.8067,129.669,710.3133,135.1251,704.8572,133.6317,712.79,139.4686" style="stroke: #A80036; stroke-width: 1.0;"/><!--link AnalysisActivity to AnalysisRole--><path d="M631.255,187.8576 C650.282,204.6836 676.048,227.4676 695.907,245.0296 " fill="none" id="AnalysisActivity-AnalysisRole" style="stroke: #A80036; stroke-width: 1.0;"/><polygon fill="#A80036" points="699.796,248.4686,695.7044,239.5099,696.0507,245.1561,690.4044,245.5024,699.796,248.4686" style="stroke: #A80036; stroke-width: 1.0;"/><!--link AnalysisActivity to AnalyzeClasses--><path d="M583.091,205.7676 C575.38,220.2426 566.988,235.9976 560.344,248.4686 " fill="none" id="AnalysisActivity-AnalyzeClasses" style="stroke: #A80036; stroke-width: 1.0;"/><polygon fill="none" points="577.051,202.2186,592.632,187.8576,589.407,208.8006,577.051,202.2186" style="stroke: #A80036; stroke-width: 1.0;"/><!--link AnalyzeClasses to RealizationUseCase--><path d="M486.248,291.4066 C411.621,312.8776 285.666,349.115 201.928,373.2065 " fill="none" id="AnalyzeClasses-RealizationUseCase" style="stroke: #A80036; stroke-width: 1.0;"/><polygon fill="#A80036" points="196.975,374.6315,206.7302,375.9865,201.78,373.2487,204.5177,368.2985,196.975,374.6315" style="stroke: #A80036; stroke-width: 1.0;"/><text fill="#000000" font-family="sans-serif" font-size="13" lengthAdjust="spacingAndGlyphs" textLength="10" x="360" y="341.1357">in</text><!--link AnalyzeClasses to AnalysisClass--><path d="M510.107,296.6736 C475.008,318.0086 422.876,349.6963 386.403,371.8659 " fill="none" id="AnalyzeClasses-AnalysisClass" style="stroke: #A80036; stroke-width: 1.0;"/><polygon fill="#A80036" points="382.035,374.521,391.8033,373.2642,386.3076,371.9239,387.6479,366.4281,382.035,374.521" style="stroke: #A80036; stroke-width: 1.0;"/><text fill="#000000" font-family="sans-serif" font-size="13" lengthAdjust="spacingAndGlyphs" textLength="10" x="460" y="341.1357">in</text><!--link AnalyzeClasses to AnalysisClassX--><path d="M548,296.6736 C548,317.1626 548,347.2013 548,369.187 " fill="none" id="AnalyzeClasses-AnalysisClassX" style="stroke: #A80036; stroke-width: 1.0;"/><polygon fill="#A80036" points="548,374.3103,552,365.3103,548,369.3103,544,365.3103,548,374.3103" style="stroke: #A80036; stroke-width: 1.0;"/><text fill="#000000" font-family="sans-serif" font-size="13" lengthAdjust="spacingAndGlyphs" textLength="18" x="549" y="341.1357">out</text><!--link AnalyzeClasses to EngineerComponents--><path d="M586.636,296.6736 C622.424,318.0086 675.577,349.6963 712.765,371.8659 " fill="none" id="AnalyzeClasses-EngineerComponents" style="stroke: #A80036; stroke-width: 1.0;"/><polygon fill="#A80036" points="717.219,374.521,711.5363,366.477,712.9241,371.9609,707.4402,373.3488,717.219,374.521" style="stroke: #A80036; stroke-width: 1.0;"/><!--link Role to AnalysisRole--><path d="M726,208.2186 C726,222.0026 726,236.6976 726,248.4686 " fill="none" id="Role-AnalysisRole" style="stroke: #A80036; stroke-width: 1.0;"/><polygon fill="none" points="719,207.8576,726,187.8576,733,207.8576,719,207.8576" style="stroke: #A80036; stroke-width: 1.0;"/><!--link AnalysisRole to EngineerComponents--><path d="M736.309,316.2526 C741.015,335.703 746.406,357.9841 750.356,374.3103 " fill="none" id="AnalysisRole-EngineerComponents" style="stroke: #A80036; stroke-width: 1.0;"/><polygon fill="none" points="729.472,317.7586,731.572,296.6736,743.079,314.4666,729.472,317.7586" style="stroke: #A80036; stroke-width: 1.0;"/><!--
@startuml
title Analyze Class
class Activity #red
Activity <|- - AnalysisActivity
Activity - -> Role

class "Realization of Use Case (Analysis)" as RealizationUseCase #green
class "Analysis Class (outline)" as AnalysisClass #green
class "Analysis Class (complete)" as AnalysisClassX #green

class AnalysisActivity #red
AnalysisActivity - -> AnalysisRole

class "Analyze Classes" as AnalyzeClasses #red
AnalysisActivity <|- - AnalyzeClasses

AnalyzeClasses - -> RealizationUseCase :in
AnalyzeClasses - -> AnalysisClass :in
AnalyzeClasses - -> AnalysisClassX :out

class Role #blue
class AnalysisRole #blue
class "Engineer of Components" as EngineerComponents #blue

AnalyzeClasses - -> EngineerComponents

Role <|- - AnalysisRole
AnalysisRole <|- - EngineerComponents
@enduml

PlantUML version 1.2019.05(Sat Apr 20 18:45:36 CEST 2019)
(GPL source distribution)
Java Runtime: OpenJDK Runtime Environment
JVM: OpenJDK 64-Bit Server VM
Java Version: 1.8.0_222-b10
Operating System: Windows 10
OS Version: 10.0
Default Encoding: windows-1252
Language: es
Country: ES
--></g></svg>