<?xml version="1.0" encoding="UTF-8" standalone="no"?><svg xmlns="http://www.w3.org/2000/svg" xmlns:xlink="http://www.w3.org/1999/xlink" contentScriptType="application/ecmascript" contentStyleType="text/css" height="411px" preserveAspectRatio="none" style="width:1203px;height:411px;" version="1.1" viewBox="0 0 1203 411" width="1203px" zoomAndPan="magnify"><defs><filter height="300%" id="f1nf0d89kpxwjn" width="300%" x="-1" y="-1"><feGaussianBlur result="blurOut" stdDeviation="2.0"/><feColorMatrix in="blurOut" result="blurOut2" type="matrix" values="0 0 0 0 0 0 0 0 0 0 0 0 0 0 0 0 0 0 .4 0"/><feOffset dx="4.0" dy="4.0" in="blurOut2" result="blurOut3"/><feBlend in="SourceGraphic" in2="blurOut3" mode="normal"/></filter></defs><g><!--class Activity--><rect fill="#FF0000" filter="url(#f1nf0d89kpxwjn)" height="48" id="Activity" style="stroke: #A80036; stroke-width: 1.5;" width="67" x="858" y="8"/><rect fill="#FF0000" height="32" style="stroke: #A80036; stroke-width: 1.5;" width="67" x="858" y="8"/><ellipse cx="873" cy="24" fill="#ADD1B2" rx="11" ry="11" style="stroke: #A80036; stroke-width: 1.0;"/><path d="M875.7656,19.875 Q875.9219,19.6563 876.1094,19.5469 Q876.2969,19.4375 876.5156,19.4375 Q876.8906,19.4375 877.125,19.6953 Q877.3594,19.9531 877.3594,20.5625 L877.3594,22.0156 Q877.3594,22.625 877.125,22.8906 Q876.8906,23.1563 876.5156,23.1563 Q876.1719,23.1563 875.9688,22.9531 Q875.7656,22.7656 875.6563,22.25 Q875.6094,21.8906 875.4219,21.7031 Q875.0938,21.3281 874.4844,21.1094 Q873.875,20.8906 873.25,20.8906 Q872.4844,20.8906 871.8516,21.2188 Q871.2188,21.5469 870.7266,22.2969 Q870.2344,23.0469 870.2344,24.0781 L870.2344,25.1719 Q870.2344,26.4063 871.125,27.2266 Q872.0156,28.0469 873.6094,28.0469 Q874.5469,28.0469 875.2031,27.7969 Q875.5938,27.6406 876.0156,27.2031 Q876.2813,26.9375 876.4297,26.8594 Q876.5781,26.7813 876.7813,26.7813 Q877.1094,26.7813 877.3672,27.0391 Q877.625,27.2969 877.625,27.6406 Q877.625,27.9844 877.2813,28.3906 Q876.7813,28.9688 875.9844,29.2969 Q874.9063,29.75 873.6094,29.75 Q872.0938,29.75 870.8906,29.125 Q869.9063,28.625 869.2188,27.5547 Q868.5313,26.4844 868.5313,25.2031 L868.5313,24.0469 Q868.5313,22.7188 869.1484,21.5703 Q869.7656,20.4219 870.8594,19.8047 Q871.9531,19.1875 873.1875,19.1875 Q873.9219,19.1875 874.5703,19.3516 Q875.2188,19.5156 875.7656,19.875 Z "/><text fill="#000000" font-family="sans-serif" font-size="12" lengthAdjust="spacingAndGlyphs" textLength="35" x="887" y="28.9102">Activity</text><line style="stroke: #A80036; stroke-width: 1.5;" x1="859" x2="924" y1="40" y2="40"/><line style="stroke: #A80036; stroke-width: 1.5;" x1="859" x2="924" y1="48" y2="48"/><!--class DesignActivity--><rect fill="#FF0000" filter="url(#f1nf0d89kpxwjn)" height="48" id="DesignActivity" style="stroke: #A80036; stroke-width: 1.5;" width="107" x="780" y="117"/><rect fill="#FF0000" height="32" style="stroke: #A80036; stroke-width: 1.5;" width="107" x="780" y="117"/><ellipse cx="795" cy="133" fill="#ADD1B2" rx="11" ry="11" style="stroke: #A80036; stroke-width: 1.0;"/><path d="M797.7656,128.875 Q797.9219,128.6563 798.1094,128.5469 Q798.2969,128.4375 798.5156,128.4375 Q798.8906,128.4375 799.125,128.6953 Q799.3594,128.9531 799.3594,129.5625 L799.3594,131.0156 Q799.3594,131.625 799.125,131.8906 Q798.8906,132.1563 798.5156,132.1563 Q798.1719,132.1563 797.9688,131.9531 Q797.7656,131.7656 797.6563,131.25 Q797.6094,130.8906 797.4219,130.7031 Q797.0938,130.3281 796.4844,130.1094 Q795.875,129.8906 795.25,129.8906 Q794.4844,129.8906 793.8516,130.2188 Q793.2188,130.5469 792.7266,131.2969 Q792.2344,132.0469 792.2344,133.0781 L792.2344,134.1719 Q792.2344,135.4063 793.125,136.2266 Q794.0156,137.0469 795.6094,137.0469 Q796.5469,137.0469 797.2031,136.7969 Q797.5938,136.6406 798.0156,136.2031 Q798.2813,135.9375 798.4297,135.8594 Q798.5781,135.7813 798.7813,135.7813 Q799.1094,135.7813 799.3672,136.0391 Q799.625,136.2969 799.625,136.6406 Q799.625,136.9844 799.2813,137.3906 Q798.7813,137.9688 797.9844,138.2969 Q796.9063,138.75 795.6094,138.75 Q794.0938,138.75 792.8906,138.125 Q791.9063,137.625 791.2188,136.5547 Q790.5313,135.4844 790.5313,134.2031 L790.5313,133.0469 Q790.5313,131.7188 791.1484,130.5703 Q791.7656,129.4219 792.8594,128.8047 Q793.9531,128.1875 795.1875,128.1875 Q795.9219,128.1875 796.5703,128.3516 Q797.2188,128.5156 797.7656,128.875 Z "/><text fill="#000000" font-family="sans-serif" font-size="12" lengthAdjust="spacingAndGlyphs" textLength="75" x="809" y="137.9102">DesignActivity</text><line style="stroke: #A80036; stroke-width: 1.5;" x1="781" x2="886" y1="149" y2="149"/><line style="stroke: #A80036; stroke-width: 1.5;" x1="781" x2="886" y1="157" y2="157"/><!--class Role--><rect fill="#0000FF" filter="url(#f1nf0d89kpxwjn)" height="48" id="Role" style="stroke: #A80036; stroke-width: 1.5;" width="58" x="922.5" y="117"/><rect fill="#0000FF" height="32" style="stroke: #A80036; stroke-width: 1.5;" width="58" x="922.5" y="117"/><ellipse cx="937.5" cy="133" fill="#ADD1B2" rx="11" ry="11" style="stroke: #A80036; stroke-width: 1.0;"/><path d="M940.2656,128.875 Q940.4219,128.6563 940.6094,128.5469 Q940.7969,128.4375 941.0156,128.4375 Q941.3906,128.4375 941.625,128.6953 Q941.8594,128.9531 941.8594,129.5625 L941.8594,131.0156 Q941.8594,131.625 941.625,131.8906 Q941.3906,132.1563 941.0156,132.1563 Q940.6719,132.1563 940.4688,131.9531 Q940.2656,131.7656 940.1563,131.25 Q940.1094,130.8906 939.9219,130.7031 Q939.5938,130.3281 938.9844,130.1094 Q938.375,129.8906 937.75,129.8906 Q936.9844,129.8906 936.3516,130.2188 Q935.7188,130.5469 935.2266,131.2969 Q934.7344,132.0469 934.7344,133.0781 L934.7344,134.1719 Q934.7344,135.4063 935.625,136.2266 Q936.5156,137.0469 938.1094,137.0469 Q939.0469,137.0469 939.7031,136.7969 Q940.0938,136.6406 940.5156,136.2031 Q940.7813,135.9375 940.9297,135.8594 Q941.0781,135.7813 941.2813,135.7813 Q941.6094,135.7813 941.8672,136.0391 Q942.125,136.2969 942.125,136.6406 Q942.125,136.9844 941.7813,137.3906 Q941.2813,137.9688 940.4844,138.2969 Q939.4063,138.75 938.1094,138.75 Q936.5938,138.75 935.3906,138.125 Q934.4063,137.625 933.7188,136.5547 Q933.0313,135.4844 933.0313,134.2031 L933.0313,133.0469 Q933.0313,131.7188 933.6484,130.5703 Q934.2656,129.4219 935.3594,128.8047 Q936.4531,128.1875 937.6875,128.1875 Q938.4219,128.1875 939.0703,128.3516 Q939.7188,128.5156 940.2656,128.875 Z "/><text fill="#000000" font-family="sans-serif" font-size="12" lengthAdjust="spacingAndGlyphs" textLength="26" x="951.5" y="137.9102">Role</text><line style="stroke: #A80036; stroke-width: 1.5;" x1="923.5" x2="979.5" y1="149" y2="149"/><line style="stroke: #A80036; stroke-width: 1.5;" x1="923.5" x2="979.5" y1="157" y2="157"/><!--class DescriptionArchitecture--><rect fill="#008000" filter="url(#f1nf0d89kpxwjn)" height="48" id="DescriptionArchitecture" style="stroke: #A80036; stroke-width: 1.5;" width="309" x="6" y="352"/><rect fill="#008000" height="32" style="stroke: #A80036; stroke-width: 1.5;" width="309" x="6" y="352"/><ellipse cx="21" cy="368" fill="#ADD1B2" rx="11" ry="11" style="stroke: #A80036; stroke-width: 1.0;"/><path d="M23.7656,363.875 Q23.9219,363.6563 24.1094,363.5469 Q24.2969,363.4375 24.5156,363.4375 Q24.8906,363.4375 25.125,363.6953 Q25.3594,363.9531 25.3594,364.5625 L25.3594,366.0156 Q25.3594,366.625 25.125,366.8906 Q24.8906,367.1563 24.5156,367.1563 Q24.1719,367.1563 23.9688,366.9531 Q23.7656,366.7656 23.6563,366.25 Q23.6094,365.8906 23.4219,365.7031 Q23.0938,365.3281 22.4844,365.1094 Q21.875,364.8906 21.25,364.8906 Q20.4844,364.8906 19.8516,365.2188 Q19.2188,365.5469 18.7266,366.2969 Q18.2344,367.0469 18.2344,368.0781 L18.2344,369.1719 Q18.2344,370.4063 19.125,371.2266 Q20.0156,372.0469 21.6094,372.0469 Q22.5469,372.0469 23.2031,371.7969 Q23.5938,371.6406 24.0156,371.2031 Q24.2813,370.9375 24.4297,370.8594 Q24.5781,370.7813 24.7813,370.7813 Q25.1094,370.7813 25.3672,371.0391 Q25.625,371.2969 25.625,371.6406 Q25.625,371.9844 25.2813,372.3906 Q24.7813,372.9688 23.9844,373.2969 Q22.9063,373.75 21.6094,373.75 Q20.0938,373.75 18.8906,373.125 Q17.9063,372.625 17.2188,371.5547 Q16.5313,370.4844 16.5313,369.2031 L16.5313,368.0469 Q16.5313,366.7188 17.1484,365.5703 Q17.7656,364.4219 18.8594,363.8047 Q19.9531,363.1875 21.1875,363.1875 Q21.9219,363.1875 22.5703,363.3516 Q23.2188,363.5156 23.7656,363.875 Z "/><text fill="#000000" font-family="sans-serif" font-size="12" lengthAdjust="spacingAndGlyphs" textLength="277" x="35" y="372.9102">Description of the Architecture (Design Model view)</text><line style="stroke: #A80036; stroke-width: 1.5;" x1="7" x2="314" y1="384" y2="384"/><line style="stroke: #A80036; stroke-width: 1.5;" x1="7" x2="314" y1="392" y2="392"/><!--class Subsystem--><rect fill="#008000" filter="url(#f1nf0d89kpxwjn)" height="48" id="Subsystem" style="stroke: #A80036; stroke-width: 1.5;" width="142" x="350.5" y="352"/><rect fill="#008000" height="32" style="stroke: #A80036; stroke-width: 1.5;" width="142" x="350.5" y="352"/><ellipse cx="365.5" cy="368" fill="#ADD1B2" rx="11" ry="11" style="stroke: #A80036; stroke-width: 1.0;"/><path d="M368.2656,363.875 Q368.4219,363.6563 368.6094,363.5469 Q368.7969,363.4375 369.0156,363.4375 Q369.3906,363.4375 369.625,363.6953 Q369.8594,363.9531 369.8594,364.5625 L369.8594,366.0156 Q369.8594,366.625 369.625,366.8906 Q369.3906,367.1563 369.0156,367.1563 Q368.6719,367.1563 368.4688,366.9531 Q368.2656,366.7656 368.1563,366.25 Q368.1094,365.8906 367.9219,365.7031 Q367.5938,365.3281 366.9844,365.1094 Q366.375,364.8906 365.75,364.8906 Q364.9844,364.8906 364.3516,365.2188 Q363.7188,365.5469 363.2266,366.2969 Q362.7344,367.0469 362.7344,368.0781 L362.7344,369.1719 Q362.7344,370.4063 363.625,371.2266 Q364.5156,372.0469 366.1094,372.0469 Q367.0469,372.0469 367.7031,371.7969 Q368.0938,371.6406 368.5156,371.2031 Q368.7813,370.9375 368.9297,370.8594 Q369.0781,370.7813 369.2813,370.7813 Q369.6094,370.7813 369.8672,371.0391 Q370.125,371.2969 370.125,371.6406 Q370.125,371.9844 369.7813,372.3906 Q369.2813,372.9688 368.4844,373.2969 Q367.4063,373.75 366.1094,373.75 Q364.5938,373.75 363.3906,373.125 Q362.4063,372.625 361.7188,371.5547 Q361.0313,370.4844 361.0313,369.2031 L361.0313,368.0469 Q361.0313,366.7188 361.6484,365.5703 Q362.2656,364.4219 363.3594,363.8047 Q364.4531,363.1875 365.6875,363.1875 Q366.4219,363.1875 367.0703,363.3516 Q367.7188,363.5156 368.2656,363.875 Z "/><text fill="#000000" font-family="sans-serif" font-size="12" lengthAdjust="spacingAndGlyphs" textLength="110" x="379.5" y="372.9102">Subsystem (outline)</text><line style="stroke: #A80036; stroke-width: 1.5;" x1="351.5" x2="491.5" y1="384" y2="384"/><line style="stroke: #A80036; stroke-width: 1.5;" x1="351.5" x2="491.5" y1="392" y2="392"/><!--class Interface--><rect fill="#008000" filter="url(#f1nf0d89kpxwjn)" height="48" id="Interface" style="stroke: #A80036; stroke-width: 1.5;" width="127" x="528" y="352"/><rect fill="#008000" height="32" style="stroke: #A80036; stroke-width: 1.5;" width="127" x="528" y="352"/><ellipse cx="543" cy="368" fill="#ADD1B2" rx="11" ry="11" style="stroke: #A80036; stroke-width: 1.0;"/><path d="M545.7656,363.875 Q545.9219,363.6563 546.1094,363.5469 Q546.2969,363.4375 546.5156,363.4375 Q546.8906,363.4375 547.125,363.6953 Q547.3594,363.9531 547.3594,364.5625 L547.3594,366.0156 Q547.3594,366.625 547.125,366.8906 Q546.8906,367.1563 546.5156,367.1563 Q546.1719,367.1563 545.9688,366.9531 Q545.7656,366.7656 545.6563,366.25 Q545.6094,365.8906 545.4219,365.7031 Q545.0938,365.3281 544.4844,365.1094 Q543.875,364.8906 543.25,364.8906 Q542.4844,364.8906 541.8516,365.2188 Q541.2188,365.5469 540.7266,366.2969 Q540.2344,367.0469 540.2344,368.0781 L540.2344,369.1719 Q540.2344,370.4063 541.125,371.2266 Q542.0156,372.0469 543.6094,372.0469 Q544.5469,372.0469 545.2031,371.7969 Q545.5938,371.6406 546.0156,371.2031 Q546.2813,370.9375 546.4297,370.8594 Q546.5781,370.7813 546.7813,370.7813 Q547.1094,370.7813 547.3672,371.0391 Q547.625,371.2969 547.625,371.6406 Q547.625,371.9844 547.2813,372.3906 Q546.7813,372.9688 545.9844,373.2969 Q544.9063,373.75 543.6094,373.75 Q542.0938,373.75 540.8906,373.125 Q539.9063,372.625 539.2188,371.5547 Q538.5313,370.4844 538.5313,369.2031 L538.5313,368.0469 Q538.5313,366.7188 539.1484,365.5703 Q539.7656,364.4219 540.8594,363.8047 Q541.9531,363.1875 543.1875,363.1875 Q543.9219,363.1875 544.5703,363.3516 Q545.2188,363.5156 545.7656,363.875 Z "/><text fill="#000000" font-family="sans-serif" font-size="12" lengthAdjust="spacingAndGlyphs" textLength="95" x="557" y="372.9102">Interface (outline)</text><line style="stroke: #A80036; stroke-width: 1.5;" x1="529" x2="654" y1="384" y2="384"/><line style="stroke: #A80036; stroke-width: 1.5;" x1="529" x2="654" y1="392" y2="392"/><!--class SubsystemX--><rect fill="#008000" filter="url(#f1nf0d89kpxwjn)" height="48" id="SubsystemX" style="stroke: #A80036; stroke-width: 1.5;" width="121" x="690" y="352"/><rect fill="#008000" height="32" style="stroke: #A80036; stroke-width: 1.5;" width="121" x="690" y="352"/><ellipse cx="705" cy="368" fill="#ADD1B2" rx="11" ry="11" style="stroke: #A80036; stroke-width: 1.0;"/><path d="M707.7656,363.875 Q707.9219,363.6563 708.1094,363.5469 Q708.2969,363.4375 708.5156,363.4375 Q708.8906,363.4375 709.125,363.6953 Q709.3594,363.9531 709.3594,364.5625 L709.3594,366.0156 Q709.3594,366.625 709.125,366.8906 Q708.8906,367.1563 708.5156,367.1563 Q708.1719,367.1563 707.9688,366.9531 Q707.7656,366.7656 707.6563,366.25 Q707.6094,365.8906 707.4219,365.7031 Q707.0938,365.3281 706.4844,365.1094 Q705.875,364.8906 705.25,364.8906 Q704.4844,364.8906 703.8516,365.2188 Q703.2188,365.5469 702.7266,366.2969 Q702.2344,367.0469 702.2344,368.0781 L702.2344,369.1719 Q702.2344,370.4063 703.125,371.2266 Q704.0156,372.0469 705.6094,372.0469 Q706.5469,372.0469 707.2031,371.7969 Q707.5938,371.6406 708.0156,371.2031 Q708.2813,370.9375 708.4297,370.8594 Q708.5781,370.7813 708.7813,370.7813 Q709.1094,370.7813 709.3672,371.0391 Q709.625,371.2969 709.625,371.6406 Q709.625,371.9844 709.2813,372.3906 Q708.7813,372.9688 707.9844,373.2969 Q706.9063,373.75 705.6094,373.75 Q704.0938,373.75 702.8906,373.125 Q701.9063,372.625 701.2188,371.5547 Q700.5313,370.4844 700.5313,369.2031 L700.5313,368.0469 Q700.5313,366.7188 701.1484,365.5703 Q701.7656,364.4219 702.8594,363.8047 Q703.9531,363.1875 705.1875,363.1875 Q705.9219,363.1875 706.5703,363.3516 Q707.2188,363.5156 707.7656,363.875 Z "/><text fill="#000000" font-family="sans-serif" font-size="12" lengthAdjust="spacingAndGlyphs" textLength="89" x="719" y="372.9102">Subsystem (full)</text><line style="stroke: #A80036; stroke-width: 1.5;" x1="691" x2="810" y1="384" y2="384"/><line style="stroke: #A80036; stroke-width: 1.5;" x1="691" x2="810" y1="392" y2="392"/><!--class InterfaceX--><rect fill="#008000" filter="url(#f1nf0d89kpxwjn)" height="48" id="InterfaceX" style="stroke: #A80036; stroke-width: 1.5;" width="141" x="846" y="352"/><rect fill="#008000" height="32" style="stroke: #A80036; stroke-width: 1.5;" width="141" x="846" y="352"/><ellipse cx="861" cy="368" fill="#ADD1B2" rx="11" ry="11" style="stroke: #A80036; stroke-width: 1.0;"/><path d="M863.7656,363.875 Q863.9219,363.6563 864.1094,363.5469 Q864.2969,363.4375 864.5156,363.4375 Q864.8906,363.4375 865.125,363.6953 Q865.3594,363.9531 865.3594,364.5625 L865.3594,366.0156 Q865.3594,366.625 865.125,366.8906 Q864.8906,367.1563 864.5156,367.1563 Q864.1719,367.1563 863.9688,366.9531 Q863.7656,366.7656 863.6563,366.25 Q863.6094,365.8906 863.4219,365.7031 Q863.0938,365.3281 862.4844,365.1094 Q861.875,364.8906 861.25,364.8906 Q860.4844,364.8906 859.8516,365.2188 Q859.2188,365.5469 858.7266,366.2969 Q858.2344,367.0469 858.2344,368.0781 L858.2344,369.1719 Q858.2344,370.4063 859.125,371.2266 Q860.0156,372.0469 861.6094,372.0469 Q862.5469,372.0469 863.2031,371.7969 Q863.5938,371.6406 864.0156,371.2031 Q864.2813,370.9375 864.4297,370.8594 Q864.5781,370.7813 864.7813,370.7813 Q865.1094,370.7813 865.3672,371.0391 Q865.625,371.2969 865.625,371.6406 Q865.625,371.9844 865.2813,372.3906 Q864.7813,372.9688 863.9844,373.2969 Q862.9063,373.75 861.6094,373.75 Q860.0938,373.75 858.8906,373.125 Q857.9063,372.625 857.2188,371.5547 Q856.5313,370.4844 856.5313,369.2031 L856.5313,368.0469 Q856.5313,366.7188 857.1484,365.5703 Q857.7656,364.4219 858.8594,363.8047 Q859.9531,363.1875 861.1875,363.1875 Q861.9219,363.1875 862.5703,363.3516 Q863.2188,363.5156 863.7656,363.875 Z "/><text fill="#000000" font-family="sans-serif" font-size="12" lengthAdjust="spacingAndGlyphs" textLength="109" x="875" y="372.9102">Interface (complete)</text><line style="stroke: #A80036; stroke-width: 1.5;" x1="847" x2="986" y1="384" y2="384"/><line style="stroke: #A80036; stroke-width: 1.5;" x1="847" x2="986" y1="392" y2="392"/><!--class DesignRole--><rect fill="#0000FF" filter="url(#f1nf0d89kpxwjn)" height="48" id="DesignRole" style="stroke: #A80036; stroke-width: 1.5;" width="98" x="902.5" y="226"/><rect fill="#0000FF" height="32" style="stroke: #A80036; stroke-width: 1.5;" width="98" x="902.5" y="226"/><ellipse cx="917.5" cy="242" fill="#ADD1B2" rx="11" ry="11" style="stroke: #A80036; stroke-width: 1.0;"/><path d="M920.2656,237.875 Q920.4219,237.6563 920.6094,237.5469 Q920.7969,237.4375 921.0156,237.4375 Q921.3906,237.4375 921.625,237.6953 Q921.8594,237.9531 921.8594,238.5625 L921.8594,240.0156 Q921.8594,240.625 921.625,240.8906 Q921.3906,241.1563 921.0156,241.1563 Q920.6719,241.1563 920.4688,240.9531 Q920.2656,240.7656 920.1563,240.25 Q920.1094,239.8906 919.9219,239.7031 Q919.5938,239.3281 918.9844,239.1094 Q918.375,238.8906 917.75,238.8906 Q916.9844,238.8906 916.3516,239.2188 Q915.7188,239.5469 915.2266,240.2969 Q914.7344,241.0469 914.7344,242.0781 L914.7344,243.1719 Q914.7344,244.4063 915.625,245.2266 Q916.5156,246.0469 918.1094,246.0469 Q919.0469,246.0469 919.7031,245.7969 Q920.0938,245.6406 920.5156,245.2031 Q920.7813,244.9375 920.9297,244.8594 Q921.0781,244.7813 921.2813,244.7813 Q921.6094,244.7813 921.8672,245.0391 Q922.125,245.2969 922.125,245.6406 Q922.125,245.9844 921.7813,246.3906 Q921.2813,246.9688 920.4844,247.2969 Q919.4063,247.75 918.1094,247.75 Q916.5938,247.75 915.3906,247.125 Q914.4063,246.625 913.7188,245.5547 Q913.0313,244.4844 913.0313,243.2031 L913.0313,242.0469 Q913.0313,240.7188 913.6484,239.5703 Q914.2656,238.4219 915.3594,237.8047 Q916.4531,237.1875 917.6875,237.1875 Q918.4219,237.1875 919.0703,237.3516 Q919.7188,237.5156 920.2656,237.875 Z "/><text fill="#000000" font-family="sans-serif" font-size="12" lengthAdjust="spacingAndGlyphs" textLength="66" x="931.5" y="246.9102">DesignRole</text><line style="stroke: #A80036; stroke-width: 1.5;" x1="903.5" x2="999.5" y1="258" y2="258"/><line style="stroke: #A80036; stroke-width: 1.5;" x1="903.5" x2="999.5" y1="266" y2="266"/><!--class DesignSubsystem--><rect fill="#FF0000" filter="url(#f1nf0d89kpxwjn)" height="48" id="DesignSubsystem" style="stroke: #A80036; stroke-width: 1.5;" width="137" x="682" y="226"/><rect fill="#FF0000" height="32" style="stroke: #A80036; stroke-width: 1.5;" width="137" x="682" y="226"/><ellipse cx="697" cy="242" fill="#ADD1B2" rx="11" ry="11" style="stroke: #A80036; stroke-width: 1.0;"/><path d="M699.7656,237.875 Q699.9219,237.6563 700.1094,237.5469 Q700.2969,237.4375 700.5156,237.4375 Q700.8906,237.4375 701.125,237.6953 Q701.3594,237.9531 701.3594,238.5625 L701.3594,240.0156 Q701.3594,240.625 701.125,240.8906 Q700.8906,241.1563 700.5156,241.1563 Q700.1719,241.1563 699.9688,240.9531 Q699.7656,240.7656 699.6563,240.25 Q699.6094,239.8906 699.4219,239.7031 Q699.0938,239.3281 698.4844,239.1094 Q697.875,238.8906 697.25,238.8906 Q696.4844,238.8906 695.8516,239.2188 Q695.2188,239.5469 694.7266,240.2969 Q694.2344,241.0469 694.2344,242.0781 L694.2344,243.1719 Q694.2344,244.4063 695.125,245.2266 Q696.0156,246.0469 697.6094,246.0469 Q698.5469,246.0469 699.2031,245.7969 Q699.5938,245.6406 700.0156,245.2031 Q700.2813,244.9375 700.4297,244.8594 Q700.5781,244.7813 700.7813,244.7813 Q701.1094,244.7813 701.3672,245.0391 Q701.625,245.2969 701.625,245.6406 Q701.625,245.9844 701.2813,246.3906 Q700.7813,246.9688 699.9844,247.2969 Q698.9063,247.75 697.6094,247.75 Q696.0938,247.75 694.8906,247.125 Q693.9063,246.625 693.2188,245.5547 Q692.5313,244.4844 692.5313,243.2031 L692.5313,242.0469 Q692.5313,240.7188 693.1484,239.5703 Q693.7656,238.4219 694.8594,237.8047 Q695.9531,237.1875 697.1875,237.1875 Q697.9219,237.1875 698.5703,237.3516 Q699.2188,237.5156 699.7656,237.875 Z "/><text fill="#000000" font-family="sans-serif" font-size="12" lengthAdjust="spacingAndGlyphs" textLength="105" x="711" y="246.9102">Design Subsystem</text><line style="stroke: #A80036; stroke-width: 1.5;" x1="683" x2="818" y1="258" y2="258"/><line style="stroke: #A80036; stroke-width: 1.5;" x1="683" x2="818" y1="266" y2="266"/><!--class EngineerComponents--><rect fill="#0000FF" filter="url(#f1nf0d89kpxwjn)" height="48" id="EngineerComponents" style="stroke: #A80036; stroke-width: 1.5;" width="170" x="1022.5" y="352"/><rect fill="#0000FF" height="32" style="stroke: #A80036; stroke-width: 1.5;" width="170" x="1022.5" y="352"/><ellipse cx="1037.5" cy="368" fill="#ADD1B2" rx="11" ry="11" style="stroke: #A80036; stroke-width: 1.0;"/><path d="M1040.2656,363.875 Q1040.4219,363.6563 1040.6094,363.5469 Q1040.7969,363.4375 1041.0156,363.4375 Q1041.3906,363.4375 1041.625,363.6953 Q1041.8594,363.9531 1041.8594,364.5625 L1041.8594,366.0156 Q1041.8594,366.625 1041.625,366.8906 Q1041.3906,367.1563 1041.0156,367.1563 Q1040.6719,367.1563 1040.4688,366.9531 Q1040.2656,366.7656 1040.1563,366.25 Q1040.1094,365.8906 1039.9219,365.7031 Q1039.5938,365.3281 1038.9844,365.1094 Q1038.375,364.8906 1037.75,364.8906 Q1036.9844,364.8906 1036.3516,365.2188 Q1035.7188,365.5469 1035.2266,366.2969 Q1034.7344,367.0469 1034.7344,368.0781 L1034.7344,369.1719 Q1034.7344,370.4063 1035.625,371.2266 Q1036.5156,372.0469 1038.1094,372.0469 Q1039.0469,372.0469 1039.7031,371.7969 Q1040.0938,371.6406 1040.5156,371.2031 Q1040.7813,370.9375 1040.9297,370.8594 Q1041.0781,370.7813 1041.2813,370.7813 Q1041.6094,370.7813 1041.8672,371.0391 Q1042.125,371.2969 1042.125,371.6406 Q1042.125,371.9844 1041.7813,372.3906 Q1041.2813,372.9688 1040.4844,373.2969 Q1039.4063,373.75 1038.1094,373.75 Q1036.5938,373.75 1035.3906,373.125 Q1034.4063,372.625 1033.7188,371.5547 Q1033.0313,370.4844 1033.0313,369.2031 L1033.0313,368.0469 Q1033.0313,366.7188 1033.6484,365.5703 Q1034.2656,364.4219 1035.3594,363.8047 Q1036.4531,363.1875 1037.6875,363.1875 Q1038.4219,363.1875 1039.0703,363.3516 Q1039.7188,363.5156 1040.2656,363.875 Z "/><text fill="#000000" font-family="sans-serif" font-size="12" lengthAdjust="spacingAndGlyphs" textLength="138" x="1051.5" y="372.9102">Engineer of Components</text><line style="stroke: #A80036; stroke-width: 1.5;" x1="1023.5" x2="1191.5" y1="384" y2="384"/><line style="stroke: #A80036; stroke-width: 1.5;" x1="1023.5" x2="1191.5" y1="392" y2="392"/><!--link Activity to DesignActivity--><path d="M869.207,74.127 C861.36,88.602 852.821,104.357 846.061,116.828 " fill="none" id="Activity-DesignActivity" style="stroke: #A80036; stroke-width: 1.0;"/><polygon fill="none" points="863.23,70.465,878.915,56.217,875.538,77.136,863.23,70.465" style="stroke: #A80036; stroke-width: 1.0;"/><!--link Activity to Role--><path d="M904.519,56.217 C913.718,72.623 926.094,94.692 935.834,112.062 " fill="none" id="Activity-Role" style="stroke: #A80036; stroke-width: 1.0;"/><polygon fill="#A80036" points="938.506,116.828,937.5929,107.0216,936.0605,112.4669,930.6151,110.9344,938.506,116.828" style="stroke: #A80036; stroke-width: 1.0;"/><!--link DesignActivity to DesignRole--><path d="M859.104,165.217 C877.66,182.043 902.786,204.827 922.153,222.389 " fill="none" id="DesignActivity-DesignRole" style="stroke: #A80036; stroke-width: 1.0;"/><polygon fill="#A80036" points="925.946,225.828,921.9653,216.8195,922.2418,222.4695,916.5918,222.7461,925.946,225.828" style="stroke: #A80036; stroke-width: 1.0;"/><!--link DesignActivity to DesignSubsystem--><path d="M803.106,181.183 C791.473,196.18 778.583,212.796 768.475,225.828 " fill="none" id="DesignActivity-DesignSubsystem" style="stroke: #A80036; stroke-width: 1.0;"/><polygon fill="none" points="797.701,176.73,815.49,165.217,808.763,185.311,797.701,176.73" style="stroke: #A80036; stroke-width: 1.0;"/><!--link DesignSubsystem to DescriptionArchitecture--><path d="M681.954,265.406 C582.22,286.367 395.855,325.5355 275.05,350.9252 " fill="none" id="DesignSubsystem-DescriptionArchitecture" style="stroke: #A80036; stroke-width: 1.0;"/><polygon fill="#A80036" points="270.064,351.973,279.6944,354.0361,274.9571,350.9444,278.0487,346.2072,270.064,351.973" style="stroke: #A80036; stroke-width: 1.0;"/><text fill="#000000" font-family="sans-serif" font-size="13" lengthAdjust="spacingAndGlyphs" textLength="10" x="492.5" y="318.4951">in</text><!--link DesignSubsystem to Subsystem--><path d="M689.389,274.033 C632.001,295.662 546.383,327.9317 487.467,350.1371 " fill="none" id="DesignSubsystem-Subsystem" style="stroke: #A80036; stroke-width: 1.0;"/><polygon fill="#A80036" points="482.563,351.9856,492.3954,352.5555,487.2419,350.2227,489.5747,345.0692,482.563,351.9856" style="stroke: #A80036; stroke-width: 1.0;"/><text fill="#000000" font-family="sans-serif" font-size="13" lengthAdjust="spacingAndGlyphs" textLength="10" x="607.5" y="318.4951">in</text><!--link DesignSubsystem to Interface--><path d="M720.966,274.033 C693.831,295.194 653.637,326.5411 625.246,348.6827 " fill="none" id="DesignSubsystem-Interface" style="stroke: #A80036; stroke-width: 1.0;"/><polygon fill="#A80036" points="621.145,351.8804,630.702,349.5007,625.088,348.8059,625.7828,343.1919,621.145,351.8804" style="stroke: #A80036; stroke-width: 1.0;"/><text fill="#000000" font-family="sans-serif" font-size="13" lengthAdjust="spacingAndGlyphs" textLength="10" x="682.5" y="318.4951">in</text><!--link DesignSubsystem to SubsystemX--><path d="M750.5,274.033 C750.5,294.522 750.5,324.5607 750.5,346.5464 " fill="none" id="DesignSubsystem-SubsystemX" style="stroke: #A80036; stroke-width: 1.0;"/><polygon fill="#A80036" points="750.5,351.6697,754.5,342.6697,750.5,346.6697,746.5,342.6697,750.5,351.6697" style="stroke: #A80036; stroke-width: 1.0;"/><text fill="#000000" font-family="sans-serif" font-size="13" lengthAdjust="spacingAndGlyphs" textLength="18" x="751.5" y="318.4951">out</text><!--link DesignSubsystem to InterfaceX--><path d="M781.334,274.033 C809.663,295.194 851.628,326.5411 881.269,348.6827 " fill="none" id="DesignSubsystem-InterfaceX" style="stroke: #A80036; stroke-width: 1.0;"/><polygon fill="#A80036" points="885.55,351.8804,880.7322,343.2904,881.5438,348.8887,875.9455,349.7003,885.55,351.8804" style="stroke: #A80036; stroke-width: 1.0;"/><text fill="#000000" font-family="sans-serif" font-size="13" lengthAdjust="spacingAndGlyphs" textLength="18" x="844.5" y="318.4951">out</text><!--link DesignSubsystem to EngineerComponents--><path d="M816.812,274.033 C879.209,295.706 972.362,328.0613 1036.3,350.2708 " fill="none" id="DesignSubsystem-EngineerComponents" style="stroke: #A80036; stroke-width: 1.0;"/><polygon fill="#A80036" points="1041.24,351.9856,1034.0536,345.251,1036.5175,350.343,1031.4255,352.8069,1041.24,351.9856" style="stroke: #A80036; stroke-width: 1.0;"/><!--link Role to DesignRole--><path d="M951.5,185.578 C951.5,199.362 951.5,214.057 951.5,225.828 " fill="none" id="Role-DesignRole" style="stroke: #A80036; stroke-width: 1.0;"/><polygon fill="none" points="944.5,185.217,951.5,165.217,958.5,185.217,944.5,185.217" style="stroke: #A80036; stroke-width: 1.0;"/><!--link DesignRole to EngineerComponents--><path d="M1011.31,284.664 C1020.68,290.719 1030.05,297.26 1038.5,304 C1056.5,318.3644 1074.57,337.1442 1087.69,351.7813 " fill="none" id="DesignRole-EngineerComponents" style="stroke: #A80036; stroke-width: 1.0;"/><polygon fill="none" points="1007.43,290.494,994.087,274.03,1014.78,278.582,1007.43,290.494" style="stroke: #A80036; stroke-width: 1.0;"/><!--
@startuml

class Activity #red
Activity <|- - DesignActivity
Activity - -> Role

class "Description of the Architecture (Design Model view)" as DescriptionArchitecture #green
class "Subsystem (outline)" as Subsystem #green
class "Interface (outline)" as Interface #green
class "Subsystem (full)" as SubsystemX #green
class "Interface (complete)" as InterfaceX #green

class DesignActivity #red
DesignActivity - -> DesignRole

class "Design Subsystem" as DesignSubsystem #red
DesignActivity <|- - DesignSubsystem

DesignSubsystem - -> DescriptionArchitecture :in
DesignSubsystem - -> Subsystem :in
DesignSubsystem - -> Interface :in
DesignSubsystem - -> SubsystemX :out
DesignSubsystem - -> InterfaceX :out


class Role #blue
class DesignRole #blue
class "Engineer of Components" as EngineerComponents #blue

DesignSubsystem - -> EngineerComponents

Role <|- - DesignRole
DesignRole <|- - EngineerComponents
@enduml

PlantUML version 1.2019.05(Sat Apr 20 18:45:36 CEST 2019)
(GPL source distribution)
Java Runtime: OpenJDK Runtime Environment
JVM: OpenJDK 64-Bit Server VM
Java Version: 1.8.0_222-b10
Operating System: Windows 10
OS Version: 10.0
Default Encoding: windows-1252
Language: es
Country: ES
--></g></svg>