<?xml version="1.0" encoding="UTF-8" standalone="no"?><svg xmlns="http://www.w3.org/2000/svg" xmlns:xlink="http://www.w3.org/1999/xlink" contentScriptType="application/ecmascript" contentStyleType="text/css" height="433px" preserveAspectRatio="none" style="width:2050px;height:433px;" version="1.1" viewBox="0 0 2050 433" width="2050px" zoomAndPan="magnify"><defs><filter height="300%" id="f1cn2b7ihehkpd" width="300%" x="-1" y="-1"><feGaussianBlur result="blurOut" stdDeviation="2.0"/><feColorMatrix in="blurOut" result="blurOut2" type="matrix" values="0 0 0 0 0 0 0 0 0 0 0 0 0 0 0 0 0 0 .4 0"/><feOffset dx="4.0" dy="4.0" in="blurOut2" result="blurOut3"/><feBlend in="SourceGraphic" in2="blurOut3" mode="normal"/></filter></defs><g><text fill="#000000" font-family="sans-serif" font-size="18" lengthAdjust="spacingAndGlyphs" textLength="186" x="936" y="18.6855">Design the Architecture</text><!--class Activity--><rect fill="#FF0000" filter="url(#f1cn2b7ihehkpd)" height="48" id="Activity" style="stroke: #A80036; stroke-width: 1.5;" width="67" x="1465" y="30.6406"/><rect fill="#FF0000" height="32" style="stroke: #A80036; stroke-width: 1.5;" width="67" x="1465" y="30.6406"/><ellipse cx="1480" cy="46.6406" fill="#ADD1B2" rx="11" ry="11" style="stroke: #A80036; stroke-width: 1.0;"/><path d="M1482.7656,42.5156 Q1482.9219,42.2969 1483.1094,42.1875 Q1483.2969,42.0781 1483.5156,42.0781 Q1483.8906,42.0781 1484.125,42.3359 Q1484.3594,42.5938 1484.3594,43.2031 L1484.3594,44.6563 Q1484.3594,45.2656 1484.125,45.5313 Q1483.8906,45.7969 1483.5156,45.7969 Q1483.1719,45.7969 1482.9688,45.5938 Q1482.7656,45.4063 1482.6563,44.8906 Q1482.6094,44.5313 1482.4219,44.3438 Q1482.0938,43.9688 1481.4844,43.75 Q1480.875,43.5313 1480.25,43.5313 Q1479.4844,43.5313 1478.8516,43.8594 Q1478.2188,44.1875 1477.7266,44.9375 Q1477.2344,45.6875 1477.2344,46.7188 L1477.2344,47.8125 Q1477.2344,49.0469 1478.125,49.8672 Q1479.0156,50.6875 1480.6094,50.6875 Q1481.5469,50.6875 1482.2031,50.4375 Q1482.5938,50.2813 1483.0156,49.8438 Q1483.2813,49.5781 1483.4297,49.5 Q1483.5781,49.4219 1483.7813,49.4219 Q1484.1094,49.4219 1484.3672,49.6797 Q1484.625,49.9375 1484.625,50.2813 Q1484.625,50.625 1484.2813,51.0313 Q1483.7813,51.6094 1482.9844,51.9375 Q1481.9063,52.3906 1480.6094,52.3906 Q1479.0938,52.3906 1477.8906,51.7656 Q1476.9063,51.2656 1476.2188,50.1953 Q1475.5313,49.125 1475.5313,47.8438 L1475.5313,46.6875 Q1475.5313,45.3594 1476.1484,44.2109 Q1476.7656,43.0625 1477.8594,42.4453 Q1478.9531,41.8281 1480.1875,41.8281 Q1480.9219,41.8281 1481.5703,41.9922 Q1482.2188,42.1563 1482.7656,42.5156 Z "/><text fill="#000000" font-family="sans-serif" font-size="12" lengthAdjust="spacingAndGlyphs" textLength="35" x="1494" y="51.5508">Activity</text><line style="stroke: #A80036; stroke-width: 1.5;" x1="1466" x2="1531" y1="62.6406" y2="62.6406"/><line style="stroke: #A80036; stroke-width: 1.5;" x1="1466" x2="1531" y1="70.6406" y2="70.6406"/><!--class DesignActivity--><rect fill="#FF0000" filter="url(#f1cn2b7ihehkpd)" height="48" id="DesignActivity" style="stroke: #A80036; stroke-width: 1.5;" width="107" x="1387" y="139.6406"/><rect fill="#FF0000" height="32" style="stroke: #A80036; stroke-width: 1.5;" width="107" x="1387" y="139.6406"/><ellipse cx="1402" cy="155.6406" fill="#ADD1B2" rx="11" ry="11" style="stroke: #A80036; stroke-width: 1.0;"/><path d="M1404.7656,151.5156 Q1404.9219,151.2969 1405.1094,151.1875 Q1405.2969,151.0781 1405.5156,151.0781 Q1405.8906,151.0781 1406.125,151.3359 Q1406.3594,151.5938 1406.3594,152.2031 L1406.3594,153.6563 Q1406.3594,154.2656 1406.125,154.5313 Q1405.8906,154.7969 1405.5156,154.7969 Q1405.1719,154.7969 1404.9688,154.5938 Q1404.7656,154.4063 1404.6563,153.8906 Q1404.6094,153.5313 1404.4219,153.3438 Q1404.0938,152.9688 1403.4844,152.75 Q1402.875,152.5313 1402.25,152.5313 Q1401.4844,152.5313 1400.8516,152.8594 Q1400.2188,153.1875 1399.7266,153.9375 Q1399.2344,154.6875 1399.2344,155.7188 L1399.2344,156.8125 Q1399.2344,158.0469 1400.125,158.8672 Q1401.0156,159.6875 1402.6094,159.6875 Q1403.5469,159.6875 1404.2031,159.4375 Q1404.5938,159.2813 1405.0156,158.8438 Q1405.2813,158.5781 1405.4297,158.5 Q1405.5781,158.4219 1405.7813,158.4219 Q1406.1094,158.4219 1406.3672,158.6797 Q1406.625,158.9375 1406.625,159.2813 Q1406.625,159.625 1406.2813,160.0313 Q1405.7813,160.6094 1404.9844,160.9375 Q1403.9063,161.3906 1402.6094,161.3906 Q1401.0938,161.3906 1399.8906,160.7656 Q1398.9063,160.2656 1398.2188,159.1953 Q1397.5313,158.125 1397.5313,156.8438 L1397.5313,155.6875 Q1397.5313,154.3594 1398.1484,153.2109 Q1398.7656,152.0625 1399.8594,151.4453 Q1400.9531,150.8281 1402.1875,150.8281 Q1402.9219,150.8281 1403.5703,150.9922 Q1404.2188,151.1563 1404.7656,151.5156 Z "/><text fill="#000000" font-family="sans-serif" font-size="12" lengthAdjust="spacingAndGlyphs" textLength="75" x="1416" y="160.5508">DesignActivity</text><line style="stroke: #A80036; stroke-width: 1.5;" x1="1388" x2="1493" y1="171.6406" y2="171.6406"/><line style="stroke: #A80036; stroke-width: 1.5;" x1="1388" x2="1493" y1="179.6406" y2="179.6406"/><!--class Role--><rect fill="#0000FF" filter="url(#f1cn2b7ihehkpd)" height="48" id="Role" style="stroke: #A80036; stroke-width: 1.5;" width="58" x="1529.5" y="139.6406"/><rect fill="#0000FF" height="32" style="stroke: #A80036; stroke-width: 1.5;" width="58" x="1529.5" y="139.6406"/><ellipse cx="1544.5" cy="155.6406" fill="#ADD1B2" rx="11" ry="11" style="stroke: #A80036; stroke-width: 1.0;"/><path d="M1547.2656,151.5156 Q1547.4219,151.2969 1547.6094,151.1875 Q1547.7969,151.0781 1548.0156,151.0781 Q1548.3906,151.0781 1548.625,151.3359 Q1548.8594,151.5938 1548.8594,152.2031 L1548.8594,153.6563 Q1548.8594,154.2656 1548.625,154.5313 Q1548.3906,154.7969 1548.0156,154.7969 Q1547.6719,154.7969 1547.4688,154.5938 Q1547.2656,154.4063 1547.1563,153.8906 Q1547.1094,153.5313 1546.9219,153.3438 Q1546.5938,152.9688 1545.9844,152.75 Q1545.375,152.5313 1544.75,152.5313 Q1543.9844,152.5313 1543.3516,152.8594 Q1542.7188,153.1875 1542.2266,153.9375 Q1541.7344,154.6875 1541.7344,155.7188 L1541.7344,156.8125 Q1541.7344,158.0469 1542.625,158.8672 Q1543.5156,159.6875 1545.1094,159.6875 Q1546.0469,159.6875 1546.7031,159.4375 Q1547.0938,159.2813 1547.5156,158.8438 Q1547.7813,158.5781 1547.9297,158.5 Q1548.0781,158.4219 1548.2813,158.4219 Q1548.6094,158.4219 1548.8672,158.6797 Q1549.125,158.9375 1549.125,159.2813 Q1549.125,159.625 1548.7813,160.0313 Q1548.2813,160.6094 1547.4844,160.9375 Q1546.4063,161.3906 1545.1094,161.3906 Q1543.5938,161.3906 1542.3906,160.7656 Q1541.4063,160.2656 1540.7188,159.1953 Q1540.0313,158.125 1540.0313,156.8438 L1540.0313,155.6875 Q1540.0313,154.3594 1540.6484,153.2109 Q1541.2656,152.0625 1542.3594,151.4453 Q1543.4531,150.8281 1544.6875,150.8281 Q1545.4219,150.8281 1546.0703,150.9922 Q1546.7188,151.1563 1547.2656,151.5156 Z "/><text fill="#000000" font-family="sans-serif" font-size="12" lengthAdjust="spacingAndGlyphs" textLength="26" x="1558.5" y="160.5508">Role</text><line style="stroke: #A80036; stroke-width: 1.5;" x1="1530.5" x2="1586.5" y1="171.6406" y2="171.6406"/><line style="stroke: #A80036; stroke-width: 1.5;" x1="1530.5" x2="1586.5" y1="179.6406" y2="179.6406"/><!--class ModelUseCases--><rect fill="#008000" filter="url(#f1cn2b7ihehkpd)" height="48" id="ModelUseCases" style="stroke: #A80036; stroke-width: 1.5;" width="125" x="6" y="374.6406"/><rect fill="#008000" height="32" style="stroke: #A80036; stroke-width: 1.5;" width="125" x="6" y="374.6406"/><ellipse cx="21" cy="390.6406" fill="#ADD1B2" rx="11" ry="11" style="stroke: #A80036; stroke-width: 1.0;"/><path d="M23.7656,386.5156 Q23.9219,386.2969 24.1094,386.1875 Q24.2969,386.0781 24.5156,386.0781 Q24.8906,386.0781 25.125,386.3359 Q25.3594,386.5938 25.3594,387.2031 L25.3594,388.6563 Q25.3594,389.2656 25.125,389.5313 Q24.8906,389.7969 24.5156,389.7969 Q24.1719,389.7969 23.9688,389.5938 Q23.7656,389.4063 23.6563,388.8906 Q23.6094,388.5313 23.4219,388.3438 Q23.0938,387.9688 22.4844,387.75 Q21.875,387.5313 21.25,387.5313 Q20.4844,387.5313 19.8516,387.8594 Q19.2188,388.1875 18.7266,388.9375 Q18.2344,389.6875 18.2344,390.7188 L18.2344,391.8125 Q18.2344,393.0469 19.125,393.8672 Q20.0156,394.6875 21.6094,394.6875 Q22.5469,394.6875 23.2031,394.4375 Q23.5938,394.2813 24.0156,393.8438 Q24.2813,393.5781 24.4297,393.5 Q24.5781,393.4219 24.7813,393.4219 Q25.1094,393.4219 25.3672,393.6797 Q25.625,393.9375 25.625,394.2813 Q25.625,394.625 25.2813,395.0313 Q24.7813,395.6094 23.9844,395.9375 Q22.9063,396.3906 21.6094,396.3906 Q20.0938,396.3906 18.8906,395.7656 Q17.9063,395.2656 17.2188,394.1953 Q16.5313,393.125 16.5313,391.8438 L16.5313,390.6875 Q16.5313,389.3594 17.1484,388.2109 Q17.7656,387.0625 18.8594,386.4453 Q19.9531,385.8281 21.1875,385.8281 Q21.9219,385.8281 22.5703,385.9922 Q23.2188,386.1563 23.7656,386.5156 Z "/><text fill="#000000" font-family="sans-serif" font-size="12" lengthAdjust="spacingAndGlyphs" textLength="93" x="35" y="395.5508">ModelUseCases</text><line style="stroke: #A80036; stroke-width: 1.5;" x1="7" x2="130" y1="406.6406" y2="406.6406"/><line style="stroke: #A80036; stroke-width: 1.5;" x1="7" x2="130" y1="414.6406" y2="414.6406"/><!--class RequirementsSupplementary--><rect fill="#008000" filter="url(#f1cn2b7ihehkpd)" height="48" id="RequirementsSupplementary" style="stroke: #A80036; stroke-width: 1.5;" width="194" x="166.5" y="374.6406"/><rect fill="#008000" height="32" style="stroke: #A80036; stroke-width: 1.5;" width="194" x="166.5" y="374.6406"/><ellipse cx="181.5" cy="390.6406" fill="#ADD1B2" rx="11" ry="11" style="stroke: #A80036; stroke-width: 1.0;"/><path d="M184.2656,386.5156 Q184.4219,386.2969 184.6094,386.1875 Q184.7969,386.0781 185.0156,386.0781 Q185.3906,386.0781 185.625,386.3359 Q185.8594,386.5938 185.8594,387.2031 L185.8594,388.6563 Q185.8594,389.2656 185.625,389.5313 Q185.3906,389.7969 185.0156,389.7969 Q184.6719,389.7969 184.4688,389.5938 Q184.2656,389.4063 184.1563,388.8906 Q184.1094,388.5313 183.9219,388.3438 Q183.5938,387.9688 182.9844,387.75 Q182.375,387.5313 181.75,387.5313 Q180.9844,387.5313 180.3516,387.8594 Q179.7188,388.1875 179.2266,388.9375 Q178.7344,389.6875 178.7344,390.7188 L178.7344,391.8125 Q178.7344,393.0469 179.625,393.8672 Q180.5156,394.6875 182.1094,394.6875 Q183.0469,394.6875 183.7031,394.4375 Q184.0938,394.2813 184.5156,393.8438 Q184.7813,393.5781 184.9297,393.5 Q185.0781,393.4219 185.2813,393.4219 Q185.6094,393.4219 185.8672,393.6797 Q186.125,393.9375 186.125,394.2813 Q186.125,394.625 185.7813,395.0313 Q185.2813,395.6094 184.4844,395.9375 Q183.4063,396.3906 182.1094,396.3906 Q180.5938,396.3906 179.3906,395.7656 Q178.4063,395.2656 177.7188,394.1953 Q177.0313,393.125 177.0313,391.8438 L177.0313,390.6875 Q177.0313,389.3594 177.6484,388.2109 Q178.2656,387.0625 179.3594,386.4453 Q180.4531,385.8281 181.6875,385.8281 Q182.4219,385.8281 183.0703,385.9922 Q183.7188,386.1563 184.2656,386.5156 Z "/><text fill="#000000" font-family="sans-serif" font-size="12" lengthAdjust="spacingAndGlyphs" textLength="162" x="195.5" y="395.5508">RequirementsSupplementary</text><line style="stroke: #A80036; stroke-width: 1.5;" x1="167.5" x2="359.5" y1="406.6406" y2="406.6406"/><line style="stroke: #A80036; stroke-width: 1.5;" x1="167.5" x2="359.5" y1="414.6406" y2="414.6406"/><!--class ModelAnalysis--><rect fill="#008000" filter="url(#f1cn2b7ihehkpd)" height="48" id="ModelAnalysis" style="stroke: #A80036; stroke-width: 1.5;" width="127" x="396" y="374.6406"/><rect fill="#008000" height="32" style="stroke: #A80036; stroke-width: 1.5;" width="127" x="396" y="374.6406"/><ellipse cx="411" cy="390.6406" fill="#ADD1B2" rx="11" ry="11" style="stroke: #A80036; stroke-width: 1.0;"/><path d="M413.7656,386.5156 Q413.9219,386.2969 414.1094,386.1875 Q414.2969,386.0781 414.5156,386.0781 Q414.8906,386.0781 415.125,386.3359 Q415.3594,386.5938 415.3594,387.2031 L415.3594,388.6563 Q415.3594,389.2656 415.125,389.5313 Q414.8906,389.7969 414.5156,389.7969 Q414.1719,389.7969 413.9688,389.5938 Q413.7656,389.4063 413.6563,388.8906 Q413.6094,388.5313 413.4219,388.3438 Q413.0938,387.9688 412.4844,387.75 Q411.875,387.5313 411.25,387.5313 Q410.4844,387.5313 409.8516,387.8594 Q409.2188,388.1875 408.7266,388.9375 Q408.2344,389.6875 408.2344,390.7188 L408.2344,391.8125 Q408.2344,393.0469 409.125,393.8672 Q410.0156,394.6875 411.6094,394.6875 Q412.5469,394.6875 413.2031,394.4375 Q413.5938,394.2813 414.0156,393.8438 Q414.2813,393.5781 414.4297,393.5 Q414.5781,393.4219 414.7813,393.4219 Q415.1094,393.4219 415.3672,393.6797 Q415.625,393.9375 415.625,394.2813 Q415.625,394.625 415.2813,395.0313 Q414.7813,395.6094 413.9844,395.9375 Q412.9063,396.3906 411.6094,396.3906 Q410.0938,396.3906 408.8906,395.7656 Q407.9063,395.2656 407.2188,394.1953 Q406.5313,393.125 406.5313,391.8438 L406.5313,390.6875 Q406.5313,389.3594 407.1484,388.2109 Q407.7656,387.0625 408.8594,386.4453 Q409.9531,385.8281 411.1875,385.8281 Q411.9219,385.8281 412.5703,385.9922 Q413.2188,386.1563 413.7656,386.5156 Z "/><text fill="#000000" font-family="sans-serif" font-size="12" lengthAdjust="spacingAndGlyphs" textLength="95" x="425" y="395.5508">Model of Analysis</text><line style="stroke: #A80036; stroke-width: 1.5;" x1="397" x2="522" y1="406.6406" y2="406.6406"/><line style="stroke: #A80036; stroke-width: 1.5;" x1="397" x2="522" y1="414.6406" y2="414.6406"/><!--class ArchitectureDescriptionX--><rect fill="#008000" filter="url(#f1cn2b7ihehkpd)" height="48" id="ArchitectureDescriptionX" style="stroke: #A80036; stroke-width: 1.5;" width="282" x="558.5" y="374.6406"/><rect fill="#008000" height="32" style="stroke: #A80036; stroke-width: 1.5;" width="282" x="558.5" y="374.6406"/><ellipse cx="573.5" cy="390.6406" fill="#ADD1B2" rx="11" ry="11" style="stroke: #A80036; stroke-width: 1.0;"/><path d="M576.2656,386.5156 Q576.4219,386.2969 576.6094,386.1875 Q576.7969,386.0781 577.0156,386.0781 Q577.3906,386.0781 577.625,386.3359 Q577.8594,386.5938 577.8594,387.2031 L577.8594,388.6563 Q577.8594,389.2656 577.625,389.5313 Q577.3906,389.7969 577.0156,389.7969 Q576.6719,389.7969 576.4688,389.5938 Q576.2656,389.4063 576.1563,388.8906 Q576.1094,388.5313 575.9219,388.3438 Q575.5938,387.9688 574.9844,387.75 Q574.375,387.5313 573.75,387.5313 Q572.9844,387.5313 572.3516,387.8594 Q571.7188,388.1875 571.2266,388.9375 Q570.7344,389.6875 570.7344,390.7188 L570.7344,391.8125 Q570.7344,393.0469 571.625,393.8672 Q572.5156,394.6875 574.1094,394.6875 Q575.0469,394.6875 575.7031,394.4375 Q576.0938,394.2813 576.5156,393.8438 Q576.7813,393.5781 576.9297,393.5 Q577.0781,393.4219 577.2813,393.4219 Q577.6094,393.4219 577.8672,393.6797 Q578.125,393.9375 578.125,394.2813 Q578.125,394.625 577.7813,395.0313 Q577.2813,395.6094 576.4844,395.9375 Q575.4063,396.3906 574.1094,396.3906 Q572.5938,396.3906 571.3906,395.7656 Q570.4063,395.2656 569.7188,394.1953 Q569.0313,393.125 569.0313,391.8438 L569.0313,390.6875 Q569.0313,389.3594 569.6484,388.2109 Q570.2656,387.0625 571.3594,386.4453 Q572.4531,385.8281 573.6875,385.8281 Q574.4219,385.8281 575.0703,385.9922 Q575.7188,386.1563 576.2656,386.5156 Z "/><text fill="#000000" font-family="sans-serif" font-size="12" lengthAdjust="spacingAndGlyphs" textLength="250" x="587.5" y="395.5508">Architecture Description (Model view Analysis)</text><line style="stroke: #A80036; stroke-width: 1.5;" x1="559.5" x2="839.5" y1="406.6406" y2="406.6406"/><line style="stroke: #A80036; stroke-width: 1.5;" x1="559.5" x2="839.5" y1="414.6406" y2="414.6406"/><!--class Subsystem--><rect fill="#008000" filter="url(#f1cn2b7ihehkpd)" height="48" id="Subsystem" style="stroke: #A80036; stroke-width: 1.5;" width="142" x="875.5" y="374.6406"/><rect fill="#008000" height="32" style="stroke: #A80036; stroke-width: 1.5;" width="142" x="875.5" y="374.6406"/><ellipse cx="890.5" cy="390.6406" fill="#ADD1B2" rx="11" ry="11" style="stroke: #A80036; stroke-width: 1.0;"/><path d="M893.2656,386.5156 Q893.4219,386.2969 893.6094,386.1875 Q893.7969,386.0781 894.0156,386.0781 Q894.3906,386.0781 894.625,386.3359 Q894.8594,386.5938 894.8594,387.2031 L894.8594,388.6563 Q894.8594,389.2656 894.625,389.5313 Q894.3906,389.7969 894.0156,389.7969 Q893.6719,389.7969 893.4688,389.5938 Q893.2656,389.4063 893.1563,388.8906 Q893.1094,388.5313 892.9219,388.3438 Q892.5938,387.9688 891.9844,387.75 Q891.375,387.5313 890.75,387.5313 Q889.9844,387.5313 889.3516,387.8594 Q888.7188,388.1875 888.2266,388.9375 Q887.7344,389.6875 887.7344,390.7188 L887.7344,391.8125 Q887.7344,393.0469 888.625,393.8672 Q889.5156,394.6875 891.1094,394.6875 Q892.0469,394.6875 892.7031,394.4375 Q893.0938,394.2813 893.5156,393.8438 Q893.7813,393.5781 893.9297,393.5 Q894.0781,393.4219 894.2813,393.4219 Q894.6094,393.4219 894.8672,393.6797 Q895.125,393.9375 895.125,394.2813 Q895.125,394.625 894.7813,395.0313 Q894.2813,395.6094 893.4844,395.9375 Q892.4063,396.3906 891.1094,396.3906 Q889.5938,396.3906 888.3906,395.7656 Q887.4063,395.2656 886.7188,394.1953 Q886.0313,393.125 886.0313,391.8438 L886.0313,390.6875 Q886.0313,389.3594 886.6484,388.2109 Q887.2656,387.0625 888.3594,386.4453 Q889.4531,385.8281 890.6875,385.8281 Q891.4219,385.8281 892.0703,385.9922 Q892.7188,386.1563 893.2656,386.5156 Z "/><text fill="#000000" font-family="sans-serif" font-size="12" lengthAdjust="spacingAndGlyphs" textLength="110" x="904.5" y="395.5508">Subsystem (outline)</text><line style="stroke: #A80036; stroke-width: 1.5;" x1="876.5" x2="1016.5" y1="406.6406" y2="406.6406"/><line style="stroke: #A80036; stroke-width: 1.5;" x1="876.5" x2="1016.5" y1="414.6406" y2="414.6406"/><!--class Interface--><rect fill="#008000" filter="url(#f1cn2b7ihehkpd)" height="48" id="Interface" style="stroke: #A80036; stroke-width: 1.5;" width="127" x="1053" y="374.6406"/><rect fill="#008000" height="32" style="stroke: #A80036; stroke-width: 1.5;" width="127" x="1053" y="374.6406"/><ellipse cx="1068" cy="390.6406" fill="#ADD1B2" rx="11" ry="11" style="stroke: #A80036; stroke-width: 1.0;"/><path d="M1070.7656,386.5156 Q1070.9219,386.2969 1071.1094,386.1875 Q1071.2969,386.0781 1071.5156,386.0781 Q1071.8906,386.0781 1072.125,386.3359 Q1072.3594,386.5938 1072.3594,387.2031 L1072.3594,388.6563 Q1072.3594,389.2656 1072.125,389.5313 Q1071.8906,389.7969 1071.5156,389.7969 Q1071.1719,389.7969 1070.9688,389.5938 Q1070.7656,389.4063 1070.6563,388.8906 Q1070.6094,388.5313 1070.4219,388.3438 Q1070.0938,387.9688 1069.4844,387.75 Q1068.875,387.5313 1068.25,387.5313 Q1067.4844,387.5313 1066.8516,387.8594 Q1066.2188,388.1875 1065.7266,388.9375 Q1065.2344,389.6875 1065.2344,390.7188 L1065.2344,391.8125 Q1065.2344,393.0469 1066.125,393.8672 Q1067.0156,394.6875 1068.6094,394.6875 Q1069.5469,394.6875 1070.2031,394.4375 Q1070.5938,394.2813 1071.0156,393.8438 Q1071.2813,393.5781 1071.4297,393.5 Q1071.5781,393.4219 1071.7813,393.4219 Q1072.1094,393.4219 1072.3672,393.6797 Q1072.625,393.9375 1072.625,394.2813 Q1072.625,394.625 1072.2813,395.0313 Q1071.7813,395.6094 1070.9844,395.9375 Q1069.9063,396.3906 1068.6094,396.3906 Q1067.0938,396.3906 1065.8906,395.7656 Q1064.9063,395.2656 1064.2188,394.1953 Q1063.5313,393.125 1063.5313,391.8438 L1063.5313,390.6875 Q1063.5313,389.3594 1064.1484,388.2109 Q1064.7656,387.0625 1065.8594,386.4453 Q1066.9531,385.8281 1068.1875,385.8281 Q1068.9219,385.8281 1069.5703,385.9922 Q1070.2188,386.1563 1070.7656,386.5156 Z "/><text fill="#000000" font-family="sans-serif" font-size="12" lengthAdjust="spacingAndGlyphs" textLength="95" x="1082" y="395.5508">Interface (outline)</text><line style="stroke: #A80036; stroke-width: 1.5;" x1="1054" x2="1179" y1="406.6406" y2="406.6406"/><line style="stroke: #A80036; stroke-width: 1.5;" x1="1054" x2="1179" y1="414.6406" y2="414.6406"/><!--class DesignClass--><rect fill="#008000" filter="url(#f1cn2b7ihehkpd)" height="48" id="DesignClass" style="stroke: #A80036; stroke-width: 1.5;" width="153" x="1215" y="374.6406"/><rect fill="#008000" height="32" style="stroke: #A80036; stroke-width: 1.5;" width="153" x="1215" y="374.6406"/><ellipse cx="1230" cy="390.6406" fill="#ADD1B2" rx="11" ry="11" style="stroke: #A80036; stroke-width: 1.0;"/><path d="M1232.7656,386.5156 Q1232.9219,386.2969 1233.1094,386.1875 Q1233.2969,386.0781 1233.5156,386.0781 Q1233.8906,386.0781 1234.125,386.3359 Q1234.3594,386.5938 1234.3594,387.2031 L1234.3594,388.6563 Q1234.3594,389.2656 1234.125,389.5313 Q1233.8906,389.7969 1233.5156,389.7969 Q1233.1719,389.7969 1232.9688,389.5938 Q1232.7656,389.4063 1232.6563,388.8906 Q1232.6094,388.5313 1232.4219,388.3438 Q1232.0938,387.9688 1231.4844,387.75 Q1230.875,387.5313 1230.25,387.5313 Q1229.4844,387.5313 1228.8516,387.8594 Q1228.2188,388.1875 1227.7266,388.9375 Q1227.2344,389.6875 1227.2344,390.7188 L1227.2344,391.8125 Q1227.2344,393.0469 1228.125,393.8672 Q1229.0156,394.6875 1230.6094,394.6875 Q1231.5469,394.6875 1232.2031,394.4375 Q1232.5938,394.2813 1233.0156,393.8438 Q1233.2813,393.5781 1233.4297,393.5 Q1233.5781,393.4219 1233.7813,393.4219 Q1234.1094,393.4219 1234.3672,393.6797 Q1234.625,393.9375 1234.625,394.2813 Q1234.625,394.625 1234.2813,395.0313 Q1233.7813,395.6094 1232.9844,395.9375 Q1231.9063,396.3906 1230.6094,396.3906 Q1229.0938,396.3906 1227.8906,395.7656 Q1226.9063,395.2656 1226.2188,394.1953 Q1225.5313,393.125 1225.5313,391.8438 L1225.5313,390.6875 Q1225.5313,389.3594 1226.1484,388.2109 Q1226.7656,387.0625 1227.8594,386.4453 Q1228.9531,385.8281 1230.1875,385.8281 Q1230.9219,385.8281 1231.5703,385.9922 Q1232.2188,386.1563 1232.7656,386.5156 Z "/><text fill="#000000" font-family="sans-serif" font-size="12" lengthAdjust="spacingAndGlyphs" textLength="121" x="1244" y="395.5508">Design class (outline)</text><line style="stroke: #A80036; stroke-width: 1.5;" x1="1216" x2="1367" y1="406.6406" y2="406.6406"/><line style="stroke: #A80036; stroke-width: 1.5;" x1="1216" x2="1367" y1="414.6406" y2="414.6406"/><!--class DeploymentModel--><rect fill="#008000" filter="url(#f1cn2b7ihehkpd)" height="48" id="DeploymentModel" style="stroke: #A80036; stroke-width: 1.5;" width="182" x="1403.5" y="374.6406"/><rect fill="#008000" height="32" style="stroke: #A80036; stroke-width: 1.5;" width="182" x="1403.5" y="374.6406"/><ellipse cx="1418.5" cy="390.6406" fill="#ADD1B2" rx="11" ry="11" style="stroke: #A80036; stroke-width: 1.0;"/><path d="M1421.2656,386.5156 Q1421.4219,386.2969 1421.6094,386.1875 Q1421.7969,386.0781 1422.0156,386.0781 Q1422.3906,386.0781 1422.625,386.3359 Q1422.8594,386.5938 1422.8594,387.2031 L1422.8594,388.6563 Q1422.8594,389.2656 1422.625,389.5313 Q1422.3906,389.7969 1422.0156,389.7969 Q1421.6719,389.7969 1421.4688,389.5938 Q1421.2656,389.4063 1421.1563,388.8906 Q1421.1094,388.5313 1420.9219,388.3438 Q1420.5938,387.9688 1419.9844,387.75 Q1419.375,387.5313 1418.75,387.5313 Q1417.9844,387.5313 1417.3516,387.8594 Q1416.7188,388.1875 1416.2266,388.9375 Q1415.7344,389.6875 1415.7344,390.7188 L1415.7344,391.8125 Q1415.7344,393.0469 1416.625,393.8672 Q1417.5156,394.6875 1419.1094,394.6875 Q1420.0469,394.6875 1420.7031,394.4375 Q1421.0938,394.2813 1421.5156,393.8438 Q1421.7813,393.5781 1421.9297,393.5 Q1422.0781,393.4219 1422.2813,393.4219 Q1422.6094,393.4219 1422.8672,393.6797 Q1423.125,393.9375 1423.125,394.2813 Q1423.125,394.625 1422.7813,395.0313 Q1422.2813,395.6094 1421.4844,395.9375 Q1420.4063,396.3906 1419.1094,396.3906 Q1417.5938,396.3906 1416.3906,395.7656 Q1415.4063,395.2656 1414.7188,394.1953 Q1414.0313,393.125 1414.0313,391.8438 L1414.0313,390.6875 Q1414.0313,389.3594 1414.6484,388.2109 Q1415.2656,387.0625 1416.3594,386.4453 Q1417.4531,385.8281 1418.6875,385.8281 Q1419.4219,385.8281 1420.0703,385.9922 Q1420.7188,386.1563 1421.2656,386.5156 Z "/><text fill="#000000" font-family="sans-serif" font-size="12" lengthAdjust="spacingAndGlyphs" textLength="150" x="1432.5" y="395.5508">Deployment Model (outline)</text><line style="stroke: #A80036; stroke-width: 1.5;" x1="1404.5" x2="1584.5" y1="406.6406" y2="406.6406"/><line style="stroke: #A80036; stroke-width: 1.5;" x1="1404.5" x2="1584.5" y1="414.6406" y2="414.6406"/><!--class ArchitectureDescription--><rect fill="#008000" filter="url(#f1cn2b7ihehkpd)" height="48" id="ArchitectureDescription" style="stroke: #A80036; stroke-width: 1.5;" width="287" x="1621" y="374.6406"/><rect fill="#008000" height="32" style="stroke: #A80036; stroke-width: 1.5;" width="287" x="1621" y="374.6406"/><ellipse cx="1636" cy="390.6406" fill="#ADD1B2" rx="11" ry="11" style="stroke: #A80036; stroke-width: 1.0;"/><path d="M1638.7656,386.5156 Q1638.9219,386.2969 1639.1094,386.1875 Q1639.2969,386.0781 1639.5156,386.0781 Q1639.8906,386.0781 1640.125,386.3359 Q1640.3594,386.5938 1640.3594,387.2031 L1640.3594,388.6563 Q1640.3594,389.2656 1640.125,389.5313 Q1639.8906,389.7969 1639.5156,389.7969 Q1639.1719,389.7969 1638.9688,389.5938 Q1638.7656,389.4063 1638.6563,388.8906 Q1638.6094,388.5313 1638.4219,388.3438 Q1638.0938,387.9688 1637.4844,387.75 Q1636.875,387.5313 1636.25,387.5313 Q1635.4844,387.5313 1634.8516,387.8594 Q1634.2188,388.1875 1633.7266,388.9375 Q1633.2344,389.6875 1633.2344,390.7188 L1633.2344,391.8125 Q1633.2344,393.0469 1634.125,393.8672 Q1635.0156,394.6875 1636.6094,394.6875 Q1637.5469,394.6875 1638.2031,394.4375 Q1638.5938,394.2813 1639.0156,393.8438 Q1639.2813,393.5781 1639.4297,393.5 Q1639.5781,393.4219 1639.7813,393.4219 Q1640.1094,393.4219 1640.3672,393.6797 Q1640.625,393.9375 1640.625,394.2813 Q1640.625,394.625 1640.2813,395.0313 Q1639.7813,395.6094 1638.9844,395.9375 Q1637.9063,396.3906 1636.6094,396.3906 Q1635.0938,396.3906 1633.8906,395.7656 Q1632.9063,395.2656 1632.2188,394.1953 Q1631.5313,393.125 1631.5313,391.8438 L1631.5313,390.6875 Q1631.5313,389.3594 1632.1484,388.2109 Q1632.7656,387.0625 1633.8594,386.4453 Q1634.9531,385.8281 1636.1875,385.8281 Q1636.9219,385.8281 1637.5703,385.9922 Q1638.2188,386.1563 1638.7656,386.5156 Z "/><text fill="#000000" font-family="sans-serif" font-size="12" lengthAdjust="spacingAndGlyphs" textLength="255" x="1650" y="395.5508">Architecture Description (Model view of design)</text><line style="stroke: #A80036; stroke-width: 1.5;" x1="1622" x2="1907" y1="406.6406" y2="406.6406"/><line style="stroke: #A80036; stroke-width: 1.5;" x1="1622" x2="1907" y1="414.6406" y2="414.6406"/><!--class DesignRole--><rect fill="#0000FF" filter="url(#f1cn2b7ihehkpd)" height="48" id="DesignRole" style="stroke: #A80036; stroke-width: 1.5;" width="98" x="1509.5" y="248.6406"/><rect fill="#0000FF" height="32" style="stroke: #A80036; stroke-width: 1.5;" width="98" x="1509.5" y="248.6406"/><ellipse cx="1524.5" cy="264.6406" fill="#ADD1B2" rx="11" ry="11" style="stroke: #A80036; stroke-width: 1.0;"/><path d="M1527.2656,260.5156 Q1527.4219,260.2969 1527.6094,260.1875 Q1527.7969,260.0781 1528.0156,260.0781 Q1528.3906,260.0781 1528.625,260.3359 Q1528.8594,260.5938 1528.8594,261.2031 L1528.8594,262.6563 Q1528.8594,263.2656 1528.625,263.5313 Q1528.3906,263.7969 1528.0156,263.7969 Q1527.6719,263.7969 1527.4688,263.5938 Q1527.2656,263.4063 1527.1563,262.8906 Q1527.1094,262.5313 1526.9219,262.3438 Q1526.5938,261.9688 1525.9844,261.75 Q1525.375,261.5313 1524.75,261.5313 Q1523.9844,261.5313 1523.3516,261.8594 Q1522.7188,262.1875 1522.2266,262.9375 Q1521.7344,263.6875 1521.7344,264.7188 L1521.7344,265.8125 Q1521.7344,267.0469 1522.625,267.8672 Q1523.5156,268.6875 1525.1094,268.6875 Q1526.0469,268.6875 1526.7031,268.4375 Q1527.0938,268.2813 1527.5156,267.8438 Q1527.7813,267.5781 1527.9297,267.5 Q1528.0781,267.4219 1528.2813,267.4219 Q1528.6094,267.4219 1528.8672,267.6797 Q1529.125,267.9375 1529.125,268.2813 Q1529.125,268.625 1528.7813,269.0313 Q1528.2813,269.6094 1527.4844,269.9375 Q1526.4063,270.3906 1525.1094,270.3906 Q1523.5938,270.3906 1522.3906,269.7656 Q1521.4063,269.2656 1520.7188,268.1953 Q1520.0313,267.125 1520.0313,265.8438 L1520.0313,264.6875 Q1520.0313,263.3594 1520.6484,262.2109 Q1521.2656,261.0625 1522.3594,260.4453 Q1523.4531,259.8281 1524.6875,259.8281 Q1525.4219,259.8281 1526.0703,259.9922 Q1526.7188,260.1563 1527.2656,260.5156 Z "/><text fill="#000000" font-family="sans-serif" font-size="12" lengthAdjust="spacingAndGlyphs" textLength="66" x="1538.5" y="269.5508">DesignRole</text><line style="stroke: #A80036; stroke-width: 1.5;" x1="1510.5" x2="1606.5" y1="280.6406" y2="280.6406"/><line style="stroke: #A80036; stroke-width: 1.5;" x1="1510.5" x2="1606.5" y1="288.6406" y2="288.6406"/><!--class DesignArchitecture--><rect fill="#FF0000" filter="url(#f1cn2b7ihehkpd)" height="48" id="DesignArchitecture" style="stroke: #A80036; stroke-width: 1.5;" width="136" x="1048.5" y="248.6406"/><rect fill="#FF0000" height="32" style="stroke: #A80036; stroke-width: 1.5;" width="136" x="1048.5" y="248.6406"/><ellipse cx="1063.5" cy="264.6406" fill="#ADD1B2" rx="11" ry="11" style="stroke: #A80036; stroke-width: 1.0;"/><path d="M1066.2656,260.5156 Q1066.4219,260.2969 1066.6094,260.1875 Q1066.7969,260.0781 1067.0156,260.0781 Q1067.3906,260.0781 1067.625,260.3359 Q1067.8594,260.5938 1067.8594,261.2031 L1067.8594,262.6563 Q1067.8594,263.2656 1067.625,263.5313 Q1067.3906,263.7969 1067.0156,263.7969 Q1066.6719,263.7969 1066.4688,263.5938 Q1066.2656,263.4063 1066.1563,262.8906 Q1066.1094,262.5313 1065.9219,262.3438 Q1065.5938,261.9688 1064.9844,261.75 Q1064.375,261.5313 1063.75,261.5313 Q1062.9844,261.5313 1062.3516,261.8594 Q1061.7188,262.1875 1061.2266,262.9375 Q1060.7344,263.6875 1060.7344,264.7188 L1060.7344,265.8125 Q1060.7344,267.0469 1061.625,267.8672 Q1062.5156,268.6875 1064.1094,268.6875 Q1065.0469,268.6875 1065.7031,268.4375 Q1066.0938,268.2813 1066.5156,267.8438 Q1066.7813,267.5781 1066.9297,267.5 Q1067.0781,267.4219 1067.2813,267.4219 Q1067.6094,267.4219 1067.8672,267.6797 Q1068.125,267.9375 1068.125,268.2813 Q1068.125,268.625 1067.7813,269.0313 Q1067.2813,269.6094 1066.4844,269.9375 Q1065.4063,270.3906 1064.1094,270.3906 Q1062.5938,270.3906 1061.3906,269.7656 Q1060.4063,269.2656 1059.7188,268.1953 Q1059.0313,267.125 1059.0313,265.8438 L1059.0313,264.6875 Q1059.0313,263.3594 1059.6484,262.2109 Q1060.2656,261.0625 1061.3594,260.4453 Q1062.4531,259.8281 1063.6875,259.8281 Q1064.4219,259.8281 1065.0703,259.9922 Q1065.7188,260.1563 1066.2656,260.5156 Z "/><text fill="#000000" font-family="sans-serif" font-size="12" lengthAdjust="spacingAndGlyphs" textLength="104" x="1077.5" y="269.5508">DesignArchitecture</text><line style="stroke: #A80036; stroke-width: 1.5;" x1="1049.5" x2="1183.5" y1="280.6406" y2="280.6406"/><line style="stroke: #A80036; stroke-width: 1.5;" x1="1049.5" x2="1183.5" y1="288.6406" y2="288.6406"/><!--class Architecture--><rect fill="#0000FF" filter="url(#f1cn2b7ihehkpd)" height="48" id="Architecture" style="stroke: #A80036; stroke-width: 1.5;" width="96" x="1943.5" y="374.6406"/><rect fill="#0000FF" height="32" style="stroke: #A80036; stroke-width: 1.5;" width="96" x="1943.5" y="374.6406"/><ellipse cx="1958.5" cy="390.6406" fill="#ADD1B2" rx="11" ry="11" style="stroke: #A80036; stroke-width: 1.0;"/><path d="M1961.2656,386.5156 Q1961.4219,386.2969 1961.6094,386.1875 Q1961.7969,386.0781 1962.0156,386.0781 Q1962.3906,386.0781 1962.625,386.3359 Q1962.8594,386.5938 1962.8594,387.2031 L1962.8594,388.6563 Q1962.8594,389.2656 1962.625,389.5313 Q1962.3906,389.7969 1962.0156,389.7969 Q1961.6719,389.7969 1961.4688,389.5938 Q1961.2656,389.4063 1961.1563,388.8906 Q1961.1094,388.5313 1960.9219,388.3438 Q1960.5938,387.9688 1959.9844,387.75 Q1959.375,387.5313 1958.75,387.5313 Q1957.9844,387.5313 1957.3516,387.8594 Q1956.7188,388.1875 1956.2266,388.9375 Q1955.7344,389.6875 1955.7344,390.7188 L1955.7344,391.8125 Q1955.7344,393.0469 1956.625,393.8672 Q1957.5156,394.6875 1959.1094,394.6875 Q1960.0469,394.6875 1960.7031,394.4375 Q1961.0938,394.2813 1961.5156,393.8438 Q1961.7813,393.5781 1961.9297,393.5 Q1962.0781,393.4219 1962.2813,393.4219 Q1962.6094,393.4219 1962.8672,393.6797 Q1963.125,393.9375 1963.125,394.2813 Q1963.125,394.625 1962.7813,395.0313 Q1962.2813,395.6094 1961.4844,395.9375 Q1960.4063,396.3906 1959.1094,396.3906 Q1957.5938,396.3906 1956.3906,395.7656 Q1955.4063,395.2656 1954.7188,394.1953 Q1954.0313,393.125 1954.0313,391.8438 L1954.0313,390.6875 Q1954.0313,389.3594 1954.6484,388.2109 Q1955.2656,387.0625 1956.3594,386.4453 Q1957.4531,385.8281 1958.6875,385.8281 Q1959.4219,385.8281 1960.0703,385.9922 Q1960.7188,386.1563 1961.2656,386.5156 Z "/><text fill="#000000" font-family="sans-serif" font-size="12" lengthAdjust="spacingAndGlyphs" textLength="64" x="1972.5" y="395.5508">Architecture</text><line style="stroke: #A80036; stroke-width: 1.5;" x1="1944.5" x2="2038.5" y1="406.6406" y2="406.6406"/><line style="stroke: #A80036; stroke-width: 1.5;" x1="1944.5" x2="2038.5" y1="414.6406" y2="414.6406"/><!--link Activity to DesignActivity--><path d="M1476.21,96.7676 C1468.36,111.2426 1459.82,126.9976 1453.06,139.4686 " fill="none" id="Activity-DesignActivity" style="stroke: #A80036; stroke-width: 1.0;"/><polygon fill="none" points="1470.23,93.1056,1485.91,78.8576,1482.54,99.7766,1470.23,93.1056" style="stroke: #A80036; stroke-width: 1.0;"/><!--link Activity to Role--><path d="M1511.52,78.8576 C1520.72,95.2636 1533.09,117.3326 1542.83,134.7026 " fill="none" id="Activity-Role" style="stroke: #A80036; stroke-width: 1.0;"/><polygon fill="#A80036" points="1545.51,139.4686,1544.6065,129.6613,1543.0687,135.1051,1537.6249,133.5673,1545.51,139.4686" style="stroke: #A80036; stroke-width: 1.0;"/><!--link DesignActivity to DesignRole--><path d="M1466.1,187.8576 C1484.66,204.6836 1509.79,227.4676 1529.15,245.0296 " fill="none" id="DesignActivity-DesignRole" style="stroke: #A80036; stroke-width: 1.0;"/><polygon fill="#A80036" points="1532.95,248.4686,1528.9674,239.4609,1529.2451,245.111,1523.5951,245.3887,1532.95,248.4686" style="stroke: #A80036; stroke-width: 1.0;"/><!--link DesignActivity to DesignArchitecture--><path d="M1367.79,188.6546 C1313,206.7466 1238.41,231.3816 1184.74,249.1036 " fill="none" id="DesignActivity-DesignArchitecture" style="stroke: #A80036; stroke-width: 1.0;"/><polygon fill="none" points="1365.81,181.9346,1387,182.3096,1370.2,195.2286,1365.81,181.9346" style="stroke: #A80036; stroke-width: 1.0;"/><!--link DesignArchitecture to ModelUseCases--><path d="M1048.33,276.2056 C889.249,283.1756 481.698,306.7336 148.5,374.6406 C144.429,375.4703 140.263,376.4037 136.076,377.4071 " fill="none" id="DesignArchitecture-ModelUseCases" style="stroke: #A80036; stroke-width: 1.0;"/><polygon fill="#A80036" points="131.154,378.6151,140.8484,380.3526,136.0096,377.4223,138.9399,372.5836,131.154,378.6151" style="stroke: #A80036; stroke-width: 1.0;"/><text fill="#000000" font-family="sans-serif" font-size="13" lengthAdjust="spacingAndGlyphs" textLength="10" x="440.5" y="341.1357">in</text><!--link DesignArchitecture to RequirementsSupplementary--><path d="M1048.49,281.0546 C962.282,290.6396 809.155,308.2906 678.5,326.6406 C544.783,345.4211 511.395,350.7287 378.5,374.6406 C374.323,375.3921 370.064,376.1738 365.764,376.9756 " fill="none" id="DesignArchitecture-RequirementsSupplementary" style="stroke: #A80036; stroke-width: 1.0;"/><polygon fill="#A80036" points="360.699,377.9256,370.282,380.1985,365.6134,377.0042,368.8077,372.3355,360.699,377.9256" style="stroke: #A80036; stroke-width: 1.0;"/><text fill="#000000" font-family="sans-serif" font-size="13" lengthAdjust="spacingAndGlyphs" textLength="10" x="679.5" y="341.1357">in</text><!--link DesignArchitecture to ModelAnalysis--><path d="M1048.21,283.2826 C939.898,299.0996 722.346,332.9965 540.5,374.6406 C536.403,375.5788 532.205,376.5963 527.98,377.6636 " fill="none" id="DesignArchitecture-ModelAnalysis" style="stroke: #A80036; stroke-width: 1.0;"/><polygon fill="#A80036" points="523.012,378.9375,532.7233,380.5776,527.8554,377.6961,530.737,372.8281,523.012,378.9375" style="stroke: #A80036; stroke-width: 1.0;"/><text fill="#000000" font-family="sans-serif" font-size="13" lengthAdjust="spacingAndGlyphs" textLength="10" x="778.5" y="341.1357">in</text><!--link DesignArchitecture to ArchitectureDescriptionX--><path d="M1048.11,293.9776 C975.306,315.6266 860.086,349.8884 782.227,373.0407 " fill="none" id="DesignArchitecture-ArchitectureDescriptionX" style="stroke: #A80036; stroke-width: 1.0;"/><polygon fill="#A80036" points="777.153,374.5494,786.9199,375.8172,781.9454,373.1238,784.6388,368.1493,777.153,374.5494" style="stroke: #A80036; stroke-width: 1.0;"/><text fill="#000000" font-family="sans-serif" font-size="13" lengthAdjust="spacingAndGlyphs" textLength="10" x="934.5" y="341.1357">in</text><!--link DesignArchitecture to Subsystem--><path d="M1084.92,296.6736 C1055.91,317.8346 1012.94,349.1817 982.58,371.3233 " fill="none" id="DesignArchitecture-Subsystem" style="stroke: #A80036; stroke-width: 1.0;"/><polygon fill="#A80036" points="978.196,374.521,987.8242,372.4481,982.2353,371.5742,983.1093,365.9852,978.196,374.521" style="stroke: #A80036; stroke-width: 1.0;"/><text fill="#000000" font-family="sans-serif" font-size="13" lengthAdjust="spacingAndGlyphs" textLength="18" x="1043.5" y="341.1357">out</text><!--link DesignArchitecture to Interface--><path d="M1116.5,296.6736 C1116.5,317.1626 1116.5,347.2013 1116.5,369.187 " fill="none" id="DesignArchitecture-Interface" style="stroke: #A80036; stroke-width: 1.0;"/><polygon fill="#A80036" points="1116.5,374.3103,1120.5,365.3103,1116.5,369.3103,1112.5,365.3103,1116.5,374.3103" style="stroke: #A80036; stroke-width: 1.0;"/><text fill="#000000" font-family="sans-serif" font-size="13" lengthAdjust="spacingAndGlyphs" textLength="18" x="1117.5" y="341.1357">out</text><!--link DesignArchitecture to DesignClass--><path d="M1149.01,296.6736 C1178.99,317.9216 1223.47,349.4388 1254.74,371.5951 " fill="none" id="DesignArchitecture-DesignClass" style="stroke: #A80036; stroke-width: 1.0;"/><polygon fill="#A80036" points="1258.87,374.521,1253.8322,366.0581,1254.788,371.6337,1249.2124,372.5894,1258.87,374.521" style="stroke: #A80036; stroke-width: 1.0;"/><text fill="#000000" font-family="sans-serif" font-size="13" lengthAdjust="spacingAndGlyphs" textLength="18" x="1215.5" y="341.1357">out</text><!--link DesignArchitecture to DeploymentModel--><path d="M1184.52,295.9526 C1250.63,317.6406 1350.81,350.5052 1419.27,372.9636 " fill="none" id="DesignArchitecture-DeploymentModel" style="stroke: #A80036; stroke-width: 1.0;"/><polygon fill="#A80036" points="1424.15,374.5623,1416.8435,367.9582,1419.3987,373.005,1414.3518,375.5602,1424.15,374.5623" style="stroke: #A80036; stroke-width: 1.0;"/><text fill="#000000" font-family="sans-serif" font-size="13" lengthAdjust="spacingAndGlyphs" textLength="18" x="1329.5" y="341.1357">out</text><!--link DesignArchitecture to ArchitectureDescription--><path d="M1184.62,286.6766 C1292.26,307.2736 1503.33,347.6637 1638.95,373.6159 " fill="none" id="DesignArchitecture-ArchitectureDescription" style="stroke: #A80036; stroke-width: 1.0;"/><polygon fill="#A80036" points="1644.15,374.6097,1636.0499,369.0072,1639.2371,373.6808,1634.5635,376.8679,1644.15,374.6097" style="stroke: #A80036; stroke-width: 1.0;"/><text fill="#000000" font-family="sans-serif" font-size="13" lengthAdjust="spacingAndGlyphs" textLength="18" x="1480.5" y="341.1357">out</text><!--link DesignArchitecture to Architecture--><path d="M1184.74,277.2886 C1325.08,285.8526 1655.54,311.4986 1925.5,374.6406 C1929.66,375.6139 1933.93,376.7547 1938.19,377.9985 " fill="none" id="DesignArchitecture-Architecture" style="stroke: #A80036; stroke-width: 1.0;"/><polygon fill="#A80036" points="1943.18,379.502,1935.717,373.0752,1938.3927,378.0593,1933.4086,380.735,1943.18,379.502" style="stroke: #A80036; stroke-width: 1.0;"/><!--link Role to DesignRole--><path d="M1558.5,208.2186 C1558.5,222.0026 1558.5,236.6976 1558.5,248.4686 " fill="none" id="Role-DesignRole" style="stroke: #A80036; stroke-width: 1.0;"/><polygon fill="none" points="1551.5,207.8576,1558.5,187.8576,1565.5,207.8576,1551.5,207.8576" style="stroke: #A80036; stroke-width: 1.0;"/><!--link DesignRole to Architecture--><path d="M1627.79,273.6566 C1699.87,276.0516 1814.53,286.6546 1904.5,326.6406 C1929.8,337.8843 1953.8,358.4997 1970.16,374.6306 " fill="none" id="DesignRole-Architecture" style="stroke: #A80036; stroke-width: 1.0;"/><polygon fill="none" points="1627.58,280.6536,1607.76,273.1676,1627.92,266.6586,1627.58,280.6536" style="stroke: #A80036; stroke-width: 1.0;"/><!--
@startuml
title Design the Architecture
class Activity #red
Activity <|- - DesignActivity
Activity - -> Role

class ModelUseCases #green
class RequirementsSupplementary #green
class "Model of Analysis" as ModelAnalysis #green
class "Architecture Description (Model view Analysis)" as ArchitectureDescriptionX  #green
class "Subsystem (outline)" as Subsystem #green
class "Interface (outline)" as Interface  #green
class "Design class (outline)" as DesignClass #green
class "Deployment Model (outline)" as DeploymentModel #green
class "Architecture Description (Model view of design)" as ArchitectureDescription  #green


class DesignActivity #red
DesignActivity - -> DesignRole

class DesignArchitecture #red
DesignActivity <|- - DesignArchitecture

DesignArchitecture - -> ModelUseCases :in
DesignArchitecture - -> RequirementsSupplementary :in
DesignArchitecture - -> ModelAnalysis :in
DesignArchitecture - -> ArchitectureDescriptionX :in
DesignArchitecture - -> Subsystem :out
DesignArchitecture - -> Interface :out
DesignArchitecture - -> DesignClass :out
DesignArchitecture - -> DeploymentModel :out
DesignArchitecture - -> ArchitectureDescription :out


DesignArchitecture - -> Architecture

class Role #blue
class DesignRole #blue
class Architecture #blue

Role <|- - DesignRole
DesignRole <|- - Architecture
@enduml

PlantUML version 1.2019.05(Sat Apr 20 18:45:36 CEST 2019)
(GPL source distribution)
Java Runtime: OpenJDK Runtime Environment
JVM: OpenJDK 64-Bit Server VM
Java Version: 1.8.0_222-b10
Operating System: Windows 10
OS Version: 10.0
Default Encoding: windows-1252
Language: es
Country: ES
--></g></svg>