<?xml version="1.0" encoding="UTF-8" standalone="no"?><svg xmlns="http://www.w3.org/2000/svg" xmlns:xlink="http://www.w3.org/1999/xlink" contentScriptType="application/ecmascript" contentStyleType="text/css" height="1277px" preserveAspectRatio="none" style="width:591px;height:1277px;" version="1.1" viewBox="0 0 591 1277" width="591px" zoomAndPan="magnify"><defs><filter height="300%" id="fze0tcwu5qd55" width="300%" x="-1" y="-1"><feGaussianBlur result="blurOut" stdDeviation="2.0"/><feColorMatrix in="blurOut" result="blurOut2" type="matrix" values="0 0 0 0 0 0 0 0 0 0 0 0 0 0 0 0 0 0 .4 0"/><feOffset dx="4.0" dy="4.0" in="blurOut2" result="blurOut3"/><feBlend in="SourceGraphic" in2="blurOut3" mode="normal"/></filter></defs><g><text fill="#000000" font-family="sans-serif" font-size="18" lengthAdjust="spacingAndGlyphs" textLength="112" x="242.5" y="18.6855">DesignActivity</text><!--class Discipline--><rect fill="#FF0000" filter="url(#fze0tcwu5qd55)" height="48" id="Discipline" style="stroke: #A80036; stroke-width: 1.5;" width="87" x="208.5" y="30.6406"/><rect fill="#FF0000" height="32" style="stroke: #A80036; stroke-width: 1.5;" width="87" x="208.5" y="30.6406"/><ellipse cx="223.5" cy="46.6406" fill="#ADD1B2" rx="11" ry="11" style="stroke: #A80036; stroke-width: 1.0;"/><path d="M226.2656,42.5156 Q226.4219,42.2969 226.6094,42.1875 Q226.7969,42.0781 227.0156,42.0781 Q227.3906,42.0781 227.625,42.3359 Q227.8594,42.5938 227.8594,43.2031 L227.8594,44.6563 Q227.8594,45.2656 227.625,45.5313 Q227.3906,45.7969 227.0156,45.7969 Q226.6719,45.7969 226.4688,45.5938 Q226.2656,45.4063 226.1563,44.8906 Q226.1094,44.5313 225.9219,44.3438 Q225.5938,43.9688 224.9844,43.75 Q224.375,43.5313 223.75,43.5313 Q222.9844,43.5313 222.3516,43.8594 Q221.7188,44.1875 221.2266,44.9375 Q220.7344,45.6875 220.7344,46.7188 L220.7344,47.8125 Q220.7344,49.0469 221.625,49.8672 Q222.5156,50.6875 224.1094,50.6875 Q225.0469,50.6875 225.7031,50.4375 Q226.0938,50.2813 226.5156,49.8438 Q226.7813,49.5781 226.9297,49.5 Q227.0781,49.4219 227.2813,49.4219 Q227.6094,49.4219 227.8672,49.6797 Q228.125,49.9375 228.125,50.2813 Q228.125,50.625 227.7813,51.0313 Q227.2813,51.6094 226.4844,51.9375 Q225.4063,52.3906 224.1094,52.3906 Q222.5938,52.3906 221.3906,51.7656 Q220.4063,51.2656 219.7188,50.1953 Q219.0313,49.125 219.0313,47.8438 L219.0313,46.6875 Q219.0313,45.3594 219.6484,44.2109 Q220.2656,43.0625 221.3594,42.4453 Q222.4531,41.8281 223.6875,41.8281 Q224.4219,41.8281 225.0703,41.9922 Q225.7188,42.1563 226.2656,42.5156 Z "/><text fill="#000000" font-family="sans-serif" font-size="12" lengthAdjust="spacingAndGlyphs" textLength="55" x="237.5" y="51.5508">Discipline</text><line style="stroke: #A80036; stroke-width: 1.5;" x1="209.5" x2="294.5" y1="62.6406" y2="62.6406"/><line style="stroke: #A80036; stroke-width: 1.5;" x1="209.5" x2="294.5" y1="70.6406" y2="70.6406"/><!--class Activity--><rect fill="#008000" filter="url(#fze0tcwu5qd55)" height="48" id="Activity" style="stroke: #A80036; stroke-width: 1.5;" width="67" x="152.5" y="139.6406"/><rect fill="#008000" height="32" style="stroke: #A80036; stroke-width: 1.5;" width="67" x="152.5" y="139.6406"/><ellipse cx="167.5" cy="155.6406" fill="#ADD1B2" rx="11" ry="11" style="stroke: #A80036; stroke-width: 1.0;"/><path d="M170.2656,151.5156 Q170.4219,151.2969 170.6094,151.1875 Q170.7969,151.0781 171.0156,151.0781 Q171.3906,151.0781 171.625,151.3359 Q171.8594,151.5938 171.8594,152.2031 L171.8594,153.6563 Q171.8594,154.2656 171.625,154.5313 Q171.3906,154.7969 171.0156,154.7969 Q170.6719,154.7969 170.4688,154.5938 Q170.2656,154.4063 170.1563,153.8906 Q170.1094,153.5313 169.9219,153.3438 Q169.5938,152.9688 168.9844,152.75 Q168.375,152.5313 167.75,152.5313 Q166.9844,152.5313 166.3516,152.8594 Q165.7188,153.1875 165.2266,153.9375 Q164.7344,154.6875 164.7344,155.7188 L164.7344,156.8125 Q164.7344,158.0469 165.625,158.8672 Q166.5156,159.6875 168.1094,159.6875 Q169.0469,159.6875 169.7031,159.4375 Q170.0938,159.2813 170.5156,158.8438 Q170.7813,158.5781 170.9297,158.5 Q171.0781,158.4219 171.2813,158.4219 Q171.6094,158.4219 171.8672,158.6797 Q172.125,158.9375 172.125,159.2813 Q172.125,159.625 171.7813,160.0313 Q171.2813,160.6094 170.4844,160.9375 Q169.4063,161.3906 168.1094,161.3906 Q166.5938,161.3906 165.3906,160.7656 Q164.4063,160.2656 163.7188,159.1953 Q163.0313,158.125 163.0313,156.8438 L163.0313,155.6875 Q163.0313,154.3594 163.6484,153.2109 Q164.2656,152.0625 165.3594,151.4453 Q166.4531,150.8281 167.6875,150.8281 Q168.4219,150.8281 169.0703,150.9922 Q169.7188,151.1563 170.2656,151.5156 Z "/><text fill="#000000" font-family="sans-serif" font-size="12" lengthAdjust="spacingAndGlyphs" textLength="35" x="181.5" y="160.5508">Activity</text><line style="stroke: #A80036; stroke-width: 1.5;" x1="153.5" x2="218.5" y1="171.6406" y2="171.6406"/><line style="stroke: #A80036; stroke-width: 1.5;" x1="153.5" x2="218.5" y1="179.6406" y2="179.6406"/><!--class DesignDiscipline--><rect fill="#FF0000" filter="url(#fze0tcwu5qd55)" height="48" id="DesignDiscipline" style="stroke: #A80036; stroke-width: 1.5;" width="127" x="254.5" y="139.6406"/><rect fill="#FF0000" height="32" style="stroke: #A80036; stroke-width: 1.5;" width="127" x="254.5" y="139.6406"/><ellipse cx="269.5" cy="155.6406" fill="#ADD1B2" rx="11" ry="11" style="stroke: #A80036; stroke-width: 1.0;"/><path d="M272.2656,151.5156 Q272.4219,151.2969 272.6094,151.1875 Q272.7969,151.0781 273.0156,151.0781 Q273.3906,151.0781 273.625,151.3359 Q273.8594,151.5938 273.8594,152.2031 L273.8594,153.6563 Q273.8594,154.2656 273.625,154.5313 Q273.3906,154.7969 273.0156,154.7969 Q272.6719,154.7969 272.4688,154.5938 Q272.2656,154.4063 272.1563,153.8906 Q272.1094,153.5313 271.9219,153.3438 Q271.5938,152.9688 270.9844,152.75 Q270.375,152.5313 269.75,152.5313 Q268.9844,152.5313 268.3516,152.8594 Q267.7188,153.1875 267.2266,153.9375 Q266.7344,154.6875 266.7344,155.7188 L266.7344,156.8125 Q266.7344,158.0469 267.625,158.8672 Q268.5156,159.6875 270.1094,159.6875 Q271.0469,159.6875 271.7031,159.4375 Q272.0938,159.2813 272.5156,158.8438 Q272.7813,158.5781 272.9297,158.5 Q273.0781,158.4219 273.2813,158.4219 Q273.6094,158.4219 273.8672,158.6797 Q274.125,158.9375 274.125,159.2813 Q274.125,159.625 273.7813,160.0313 Q273.2813,160.6094 272.4844,160.9375 Q271.4063,161.3906 270.1094,161.3906 Q268.5938,161.3906 267.3906,160.7656 Q266.4063,160.2656 265.7188,159.1953 Q265.0313,158.125 265.0313,156.8438 L265.0313,155.6875 Q265.0313,154.3594 265.6484,153.2109 Q266.2656,152.0625 267.3594,151.4453 Q268.4531,150.8281 269.6875,150.8281 Q270.4219,150.8281 271.0703,150.9922 Q271.7188,151.1563 272.2656,151.5156 Z "/><text fill="#000000" font-family="sans-serif" font-size="12" lengthAdjust="spacingAndGlyphs" textLength="95" x="283.5" y="160.5508">DesignDiscipline</text><line style="stroke: #A80036; stroke-width: 1.5;" x1="255.5" x2="380.5" y1="171.6406" y2="171.6406"/><line style="stroke: #A80036; stroke-width: 1.5;" x1="255.5" x2="380.5" y1="179.6406" y2="179.6406"/><!--class DesignActivity--><rect fill="#008000" filter="url(#fze0tcwu5qd55)" height="48" id="DesignActivity" style="stroke: #A80036; stroke-width: 1.5;" width="107" x="209.5" y="248.6406"/><rect fill="#008000" height="32" style="stroke: #A80036; stroke-width: 1.5;" width="107" x="209.5" y="248.6406"/><ellipse cx="224.5" cy="264.6406" fill="#ADD1B2" rx="11" ry="11" style="stroke: #A80036; stroke-width: 1.0;"/><path d="M227.2656,260.5156 Q227.4219,260.2969 227.6094,260.1875 Q227.7969,260.0781 228.0156,260.0781 Q228.3906,260.0781 228.625,260.3359 Q228.8594,260.5938 228.8594,261.2031 L228.8594,262.6563 Q228.8594,263.2656 228.625,263.5313 Q228.3906,263.7969 228.0156,263.7969 Q227.6719,263.7969 227.4688,263.5938 Q227.2656,263.4063 227.1563,262.8906 Q227.1094,262.5313 226.9219,262.3438 Q226.5938,261.9688 225.9844,261.75 Q225.375,261.5313 224.75,261.5313 Q223.9844,261.5313 223.3516,261.8594 Q222.7188,262.1875 222.2266,262.9375 Q221.7344,263.6875 221.7344,264.7188 L221.7344,265.8125 Q221.7344,267.0469 222.625,267.8672 Q223.5156,268.6875 225.1094,268.6875 Q226.0469,268.6875 226.7031,268.4375 Q227.0938,268.2813 227.5156,267.8438 Q227.7813,267.5781 227.9297,267.5 Q228.0781,267.4219 228.2813,267.4219 Q228.6094,267.4219 228.8672,267.6797 Q229.125,267.9375 229.125,268.2813 Q229.125,268.625 228.7813,269.0313 Q228.2813,269.6094 227.4844,269.9375 Q226.4063,270.3906 225.1094,270.3906 Q223.5938,270.3906 222.3906,269.7656 Q221.4063,269.2656 220.7188,268.1953 Q220.0313,267.125 220.0313,265.8438 L220.0313,264.6875 Q220.0313,263.3594 220.6484,262.2109 Q221.2656,261.0625 222.3594,260.4453 Q223.4531,259.8281 224.6875,259.8281 Q225.4219,259.8281 226.0703,259.9922 Q226.7188,260.1563 227.2656,260.5156 Z "/><text fill="#000000" font-family="sans-serif" font-size="12" lengthAdjust="spacingAndGlyphs" textLength="75" x="238.5" y="269.5508">DesignActivity</text><line style="stroke: #A80036; stroke-width: 1.5;" x1="210.5" x2="315.5" y1="280.6406" y2="280.6406"/><line style="stroke: #A80036; stroke-width: 1.5;" x1="210.5" x2="315.5" y1="288.6406" y2="288.6406"/><!--class Member--><rect fill="#FFFFFF" filter="url(#fze0tcwu5qd55)" height="48" id="Member" style="stroke: #A80036; stroke-width: 1.5;" width="77" x="224.5" y="357.6406"/><rect fill="#FFFFFF" height="32" style="stroke: #A80036; stroke-width: 1.5;" width="77" x="224.5" y="357.6406"/><ellipse cx="239.5" cy="373.6406" fill="#ADD1B2" rx="11" ry="11" style="stroke: #A80036; stroke-width: 1.0;"/><path d="M242.2656,369.5156 Q242.4219,369.2969 242.6094,369.1875 Q242.7969,369.0781 243.0156,369.0781 Q243.3906,369.0781 243.625,369.3359 Q243.8594,369.5938 243.8594,370.2031 L243.8594,371.6563 Q243.8594,372.2656 243.625,372.5313 Q243.3906,372.7969 243.0156,372.7969 Q242.6719,372.7969 242.4688,372.5938 Q242.2656,372.4063 242.1563,371.8906 Q242.1094,371.5313 241.9219,371.3438 Q241.5938,370.9688 240.9844,370.75 Q240.375,370.5313 239.75,370.5313 Q238.9844,370.5313 238.3516,370.8594 Q237.7188,371.1875 237.2266,371.9375 Q236.7344,372.6875 236.7344,373.7188 L236.7344,374.8125 Q236.7344,376.0469 237.625,376.8672 Q238.5156,377.6875 240.1094,377.6875 Q241.0469,377.6875 241.7031,377.4375 Q242.0938,377.2813 242.5156,376.8438 Q242.7813,376.5781 242.9297,376.5 Q243.0781,376.4219 243.2813,376.4219 Q243.6094,376.4219 243.8672,376.6797 Q244.125,376.9375 244.125,377.2813 Q244.125,377.625 243.7813,378.0313 Q243.2813,378.6094 242.4844,378.9375 Q241.4063,379.3906 240.1094,379.3906 Q238.5938,379.3906 237.3906,378.7656 Q236.4063,378.2656 235.7188,377.1953 Q235.0313,376.125 235.0313,374.8438 L235.0313,373.6875 Q235.0313,372.3594 235.6484,371.2109 Q236.2656,370.0625 237.3594,369.4453 Q238.4531,368.8281 239.6875,368.8281 Q240.4219,368.8281 241.0703,368.9922 Q241.7188,369.1563 242.2656,369.5156 Z "/><text fill="#000000" font-family="sans-serif" font-size="12" lengthAdjust="spacingAndGlyphs" textLength="45" x="253.5" y="378.5508">Member</text><line style="stroke: #A80036; stroke-width: 1.5;" x1="225.5" x2="300.5" y1="389.6406" y2="389.6406"/><line style="stroke: #A80036; stroke-width: 1.5;" x1="225.5" x2="300.5" y1="397.6406" y2="397.6406"/><!--class Role--><rect fill="#FFFFFF" filter="url(#fze0tcwu5qd55)" height="48" id="Role" style="stroke: #A80036; stroke-width: 1.5;" width="58" x="234" y="466.6406"/><rect fill="#FFFFFF" height="32" style="stroke: #A80036; stroke-width: 1.5;" width="58" x="234" y="466.6406"/><ellipse cx="249" cy="482.6406" fill="#ADD1B2" rx="11" ry="11" style="stroke: #A80036; stroke-width: 1.0;"/><path d="M251.7656,478.5156 Q251.9219,478.2969 252.1094,478.1875 Q252.2969,478.0781 252.5156,478.0781 Q252.8906,478.0781 253.125,478.3359 Q253.3594,478.5938 253.3594,479.2031 L253.3594,480.6563 Q253.3594,481.2656 253.125,481.5313 Q252.8906,481.7969 252.5156,481.7969 Q252.1719,481.7969 251.9688,481.5938 Q251.7656,481.4063 251.6563,480.8906 Q251.6094,480.5313 251.4219,480.3438 Q251.0938,479.9688 250.4844,479.75 Q249.875,479.5313 249.25,479.5313 Q248.4844,479.5313 247.8516,479.8594 Q247.2188,480.1875 246.7266,480.9375 Q246.2344,481.6875 246.2344,482.7188 L246.2344,483.8125 Q246.2344,485.0469 247.125,485.8672 Q248.0156,486.6875 249.6094,486.6875 Q250.5469,486.6875 251.2031,486.4375 Q251.5938,486.2813 252.0156,485.8438 Q252.2813,485.5781 252.4297,485.5 Q252.5781,485.4219 252.7813,485.4219 Q253.1094,485.4219 253.3672,485.6797 Q253.625,485.9375 253.625,486.2813 Q253.625,486.625 253.2813,487.0313 Q252.7813,487.6094 251.9844,487.9375 Q250.9063,488.3906 249.6094,488.3906 Q248.0938,488.3906 246.8906,487.7656 Q245.9063,487.2656 245.2188,486.1953 Q244.5313,485.125 244.5313,483.8438 L244.5313,482.6875 Q244.5313,481.3594 245.1484,480.2109 Q245.7656,479.0625 246.8594,478.4453 Q247.9531,477.8281 249.1875,477.8281 Q249.9219,477.8281 250.5703,477.9922 Q251.2188,478.1563 251.7656,478.5156 Z "/><text fill="#000000" font-family="sans-serif" font-size="12" lengthAdjust="spacingAndGlyphs" textLength="26" x="263" y="487.5508">Role</text><line style="stroke: #A80036; stroke-width: 1.5;" x1="235" x2="291" y1="498.6406" y2="498.6406"/><line style="stroke: #A80036; stroke-width: 1.5;" x1="235" x2="291" y1="506.6406" y2="506.6406"/><!--class DesignRole--><rect fill="#0000FF" filter="url(#fze0tcwu5qd55)" height="48" id="DesignRole" style="stroke: #A80036; stroke-width: 1.5;" width="98" x="214" y="575.6406"/><rect fill="#0000FF" height="32" style="stroke: #A80036; stroke-width: 1.5;" width="98" x="214" y="575.6406"/><ellipse cx="229" cy="591.6406" fill="#ADD1B2" rx="11" ry="11" style="stroke: #A80036; stroke-width: 1.0;"/><path d="M231.7656,587.5156 Q231.9219,587.2969 232.1094,587.1875 Q232.2969,587.0781 232.5156,587.0781 Q232.8906,587.0781 233.125,587.3359 Q233.3594,587.5938 233.3594,588.2031 L233.3594,589.6563 Q233.3594,590.2656 233.125,590.5313 Q232.8906,590.7969 232.5156,590.7969 Q232.1719,590.7969 231.9688,590.5938 Q231.7656,590.4063 231.6563,589.8906 Q231.6094,589.5313 231.4219,589.3438 Q231.0938,588.9688 230.4844,588.75 Q229.875,588.5313 229.25,588.5313 Q228.4844,588.5313 227.8516,588.8594 Q227.2188,589.1875 226.7266,589.9375 Q226.2344,590.6875 226.2344,591.7188 L226.2344,592.8125 Q226.2344,594.0469 227.125,594.8672 Q228.0156,595.6875 229.6094,595.6875 Q230.5469,595.6875 231.2031,595.4375 Q231.5938,595.2813 232.0156,594.8438 Q232.2813,594.5781 232.4297,594.5 Q232.5781,594.4219 232.7813,594.4219 Q233.1094,594.4219 233.3672,594.6797 Q233.625,594.9375 233.625,595.2813 Q233.625,595.625 233.2813,596.0313 Q232.7813,596.6094 231.9844,596.9375 Q230.9063,597.3906 229.6094,597.3906 Q228.0938,597.3906 226.8906,596.7656 Q225.9063,596.2656 225.2188,595.1953 Q224.5313,594.125 224.5313,592.8438 L224.5313,591.6875 Q224.5313,590.3594 225.1484,589.2109 Q225.7656,588.0625 226.8594,587.4453 Q227.9531,586.8281 229.1875,586.8281 Q229.9219,586.8281 230.5703,586.9922 Q231.2188,587.1563 231.7656,587.5156 Z "/><text fill="#000000" font-family="sans-serif" font-size="12" lengthAdjust="spacingAndGlyphs" textLength="66" x="243" y="596.5508">DesignRole</text><line style="stroke: #A80036; stroke-width: 1.5;" x1="215" x2="311" y1="607.6406" y2="607.6406"/><line style="stroke: #A80036; stroke-width: 1.5;" x1="215" x2="311" y1="615.6406" y2="615.6406"/><!--class Architect--><rect fill="#0000FF" filter="url(#fze0tcwu5qd55)" height="48" id="Architect" style="stroke: #A80036; stroke-width: 1.5;" width="78" x="224" y="684.6406"/><rect fill="#0000FF" height="32" style="stroke: #A80036; stroke-width: 1.5;" width="78" x="224" y="684.6406"/><ellipse cx="239" cy="700.6406" fill="#ADD1B2" rx="11" ry="11" style="stroke: #A80036; stroke-width: 1.0;"/><path d="M241.7656,696.5156 Q241.9219,696.2969 242.1094,696.1875 Q242.2969,696.0781 242.5156,696.0781 Q242.8906,696.0781 243.125,696.3359 Q243.3594,696.5938 243.3594,697.2031 L243.3594,698.6563 Q243.3594,699.2656 243.125,699.5313 Q242.8906,699.7969 242.5156,699.7969 Q242.1719,699.7969 241.9688,699.5938 Q241.7656,699.4063 241.6563,698.8906 Q241.6094,698.5313 241.4219,698.3438 Q241.0938,697.9688 240.4844,697.75 Q239.875,697.5313 239.25,697.5313 Q238.4844,697.5313 237.8516,697.8594 Q237.2188,698.1875 236.7266,698.9375 Q236.2344,699.6875 236.2344,700.7188 L236.2344,701.8125 Q236.2344,703.0469 237.125,703.8672 Q238.0156,704.6875 239.6094,704.6875 Q240.5469,704.6875 241.2031,704.4375 Q241.5938,704.2813 242.0156,703.8438 Q242.2813,703.5781 242.4297,703.5 Q242.5781,703.4219 242.7813,703.4219 Q243.1094,703.4219 243.3672,703.6797 Q243.625,703.9375 243.625,704.2813 Q243.625,704.625 243.2813,705.0313 Q242.7813,705.6094 241.9844,705.9375 Q240.9063,706.3906 239.6094,706.3906 Q238.0938,706.3906 236.8906,705.7656 Q235.9063,705.2656 235.2188,704.1953 Q234.5313,703.125 234.5313,701.8438 L234.5313,700.6875 Q234.5313,699.3594 235.1484,698.2109 Q235.7656,697.0625 236.8594,696.4453 Q237.9531,695.8281 239.1875,695.8281 Q239.9219,695.8281 240.5703,695.9922 Q241.2188,696.1563 241.7656,696.5156 Z "/><text fill="#000000" font-family="sans-serif" font-size="12" lengthAdjust="spacingAndGlyphs" textLength="46" x="253" y="705.5508">Architect</text><line style="stroke: #A80036; stroke-width: 1.5;" x1="225" x2="301" y1="716.6406" y2="716.6406"/><line style="stroke: #A80036; stroke-width: 1.5;" x1="225" x2="301" y1="724.6406" y2="724.6406"/><!--class EngineerUseCases--><rect fill="#0000FF" filter="url(#fze0tcwu5qd55)" height="48" id="EngineerUseCases" style="stroke: #A80036; stroke-width: 1.5;" width="142" x="100" y="762.6406"/><rect fill="#0000FF" height="32" style="stroke: #A80036; stroke-width: 1.5;" width="142" x="100" y="762.6406"/><ellipse cx="115" cy="778.6406" fill="#ADD1B2" rx="11" ry="11" style="stroke: #A80036; stroke-width: 1.0;"/><path d="M117.7656,774.5156 Q117.9219,774.2969 118.1094,774.1875 Q118.2969,774.0781 118.5156,774.0781 Q118.8906,774.0781 119.125,774.3359 Q119.3594,774.5938 119.3594,775.2031 L119.3594,776.6563 Q119.3594,777.2656 119.125,777.5313 Q118.8906,777.7969 118.5156,777.7969 Q118.1719,777.7969 117.9688,777.5938 Q117.7656,777.4063 117.6563,776.8906 Q117.6094,776.5313 117.4219,776.3438 Q117.0938,775.9688 116.4844,775.75 Q115.875,775.5313 115.25,775.5313 Q114.4844,775.5313 113.8516,775.8594 Q113.2188,776.1875 112.7266,776.9375 Q112.2344,777.6875 112.2344,778.7188 L112.2344,779.8125 Q112.2344,781.0469 113.125,781.8672 Q114.0156,782.6875 115.6094,782.6875 Q116.5469,782.6875 117.2031,782.4375 Q117.5938,782.2813 118.0156,781.8438 Q118.2813,781.5781 118.4297,781.5 Q118.5781,781.4219 118.7813,781.4219 Q119.1094,781.4219 119.3672,781.6797 Q119.625,781.9375 119.625,782.2813 Q119.625,782.625 119.2813,783.0313 Q118.7813,783.6094 117.9844,783.9375 Q116.9063,784.3906 115.6094,784.3906 Q114.0938,784.3906 112.8906,783.7656 Q111.9063,783.2656 111.2188,782.1953 Q110.5313,781.125 110.5313,779.8438 L110.5313,778.6875 Q110.5313,777.3594 111.1484,776.2109 Q111.7656,775.0625 112.8594,774.4453 Q113.9531,773.8281 115.1875,773.8281 Q115.9219,773.8281 116.5703,773.9922 Q117.2188,774.1563 117.7656,774.5156 Z "/><text fill="#000000" font-family="sans-serif" font-size="12" lengthAdjust="spacingAndGlyphs" textLength="110" x="129" y="783.5508">EngineerUseCases</text><line style="stroke: #A80036; stroke-width: 1.5;" x1="101" x2="241" y1="794.6406" y2="794.6406"/><line style="stroke: #A80036; stroke-width: 1.5;" x1="101" x2="241" y1="802.6406" y2="802.6406"/><!--class EngineerComponents--><rect fill="#0000FF" filter="url(#fze0tcwu5qd55)" height="48" id="EngineerComponents" style="stroke: #A80036; stroke-width: 1.5;" width="154" x="372" y="840.6406"/><rect fill="#0000FF" height="32" style="stroke: #A80036; stroke-width: 1.5;" width="154" x="372" y="840.6406"/><ellipse cx="387" cy="856.6406" fill="#ADD1B2" rx="11" ry="11" style="stroke: #A80036; stroke-width: 1.0;"/><path d="M389.7656,852.5156 Q389.9219,852.2969 390.1094,852.1875 Q390.2969,852.0781 390.5156,852.0781 Q390.8906,852.0781 391.125,852.3359 Q391.3594,852.5938 391.3594,853.2031 L391.3594,854.6563 Q391.3594,855.2656 391.125,855.5313 Q390.8906,855.7969 390.5156,855.7969 Q390.1719,855.7969 389.9688,855.5938 Q389.7656,855.4063 389.6563,854.8906 Q389.6094,854.5313 389.4219,854.3438 Q389.0938,853.9688 388.4844,853.75 Q387.875,853.5313 387.25,853.5313 Q386.4844,853.5313 385.8516,853.8594 Q385.2188,854.1875 384.7266,854.9375 Q384.2344,855.6875 384.2344,856.7188 L384.2344,857.8125 Q384.2344,859.0469 385.125,859.8672 Q386.0156,860.6875 387.6094,860.6875 Q388.5469,860.6875 389.2031,860.4375 Q389.5938,860.2813 390.0156,859.8438 Q390.2813,859.5781 390.4297,859.5 Q390.5781,859.4219 390.7813,859.4219 Q391.1094,859.4219 391.3672,859.6797 Q391.625,859.9375 391.625,860.2813 Q391.625,860.625 391.2813,861.0313 Q390.7813,861.6094 389.9844,861.9375 Q388.9063,862.3906 387.6094,862.3906 Q386.0938,862.3906 384.8906,861.7656 Q383.9063,861.2656 383.2188,860.1953 Q382.5313,859.125 382.5313,857.8438 L382.5313,856.6875 Q382.5313,855.3594 383.1484,854.2109 Q383.7656,853.0625 384.8594,852.4453 Q385.9531,851.8281 387.1875,851.8281 Q387.9219,851.8281 388.5703,851.9922 Q389.2188,852.1563 389.7656,852.5156 Z "/><text fill="#000000" font-family="sans-serif" font-size="12" lengthAdjust="spacingAndGlyphs" textLength="122" x="401" y="861.5508">EngineerComponents</text><line style="stroke: #A80036; stroke-width: 1.5;" x1="373" x2="525" y1="872.6406" y2="872.6406"/><line style="stroke: #A80036; stroke-width: 1.5;" x1="373" x2="525" y1="880.6406" y2="880.6406"/><!--class DesignArchitecture--><rect fill="#008000" filter="url(#fze0tcwu5qd55)" height="48" id="DesignArchitecture" style="stroke: #A80036; stroke-width: 1.5;" width="136" x="201" y="840.6406"/><rect fill="#008000" height="32" style="stroke: #A80036; stroke-width: 1.5;" width="136" x="201" y="840.6406"/><ellipse cx="216" cy="856.6406" fill="#ADD1B2" rx="11" ry="11" style="stroke: #A80036; stroke-width: 1.0;"/><path d="M218.7656,852.5156 Q218.9219,852.2969 219.1094,852.1875 Q219.2969,852.0781 219.5156,852.0781 Q219.8906,852.0781 220.125,852.3359 Q220.3594,852.5938 220.3594,853.2031 L220.3594,854.6563 Q220.3594,855.2656 220.125,855.5313 Q219.8906,855.7969 219.5156,855.7969 Q219.1719,855.7969 218.9688,855.5938 Q218.7656,855.4063 218.6563,854.8906 Q218.6094,854.5313 218.4219,854.3438 Q218.0938,853.9688 217.4844,853.75 Q216.875,853.5313 216.25,853.5313 Q215.4844,853.5313 214.8516,853.8594 Q214.2188,854.1875 213.7266,854.9375 Q213.2344,855.6875 213.2344,856.7188 L213.2344,857.8125 Q213.2344,859.0469 214.125,859.8672 Q215.0156,860.6875 216.6094,860.6875 Q217.5469,860.6875 218.2031,860.4375 Q218.5938,860.2813 219.0156,859.8438 Q219.2813,859.5781 219.4297,859.5 Q219.5781,859.4219 219.7813,859.4219 Q220.1094,859.4219 220.3672,859.6797 Q220.625,859.9375 220.625,860.2813 Q220.625,860.625 220.2813,861.0313 Q219.7813,861.6094 218.9844,861.9375 Q217.9063,862.3906 216.6094,862.3906 Q215.0938,862.3906 213.8906,861.7656 Q212.9063,861.2656 212.2188,860.1953 Q211.5313,859.125 211.5313,857.8438 L211.5313,856.6875 Q211.5313,855.3594 212.1484,854.2109 Q212.7656,853.0625 213.8594,852.4453 Q214.9531,851.8281 216.1875,851.8281 Q216.9219,851.8281 217.5703,851.9922 Q218.2188,852.1563 218.7656,852.5156 Z "/><text fill="#000000" font-family="sans-serif" font-size="12" lengthAdjust="spacingAndGlyphs" textLength="104" x="230" y="861.5508">DesignArchitecture</text><line style="stroke: #A80036; stroke-width: 1.5;" x1="202" x2="336" y1="872.6406" y2="872.6406"/><line style="stroke: #A80036; stroke-width: 1.5;" x1="202" x2="336" y1="880.6406" y2="880.6406"/><!--class DesignCaseUse--><rect fill="#008000" filter="url(#fze0tcwu5qd55)" height="48" id="DesignCaseUse" style="stroke: #A80036; stroke-width: 1.5;" width="125" x="173.5" y="1092.6406"/><rect fill="#008000" height="32" style="stroke: #A80036; stroke-width: 1.5;" width="125" x="173.5" y="1092.6406"/><ellipse cx="188.5" cy="1108.6406" fill="#ADD1B2" rx="11" ry="11" style="stroke: #A80036; stroke-width: 1.0;"/><path d="M191.2656,1104.5156 Q191.4219,1104.2969 191.6094,1104.1875 Q191.7969,1104.0781 192.0156,1104.0781 Q192.3906,1104.0781 192.625,1104.3359 Q192.8594,1104.5938 192.8594,1105.2031 L192.8594,1106.6563 Q192.8594,1107.2656 192.625,1107.5313 Q192.3906,1107.7969 192.0156,1107.7969 Q191.6719,1107.7969 191.4688,1107.5938 Q191.2656,1107.4063 191.1563,1106.8906 Q191.1094,1106.5313 190.9219,1106.3438 Q190.5938,1105.9688 189.9844,1105.75 Q189.375,1105.5313 188.75,1105.5313 Q187.9844,1105.5313 187.3516,1105.8594 Q186.7188,1106.1875 186.2266,1106.9375 Q185.7344,1107.6875 185.7344,1108.7188 L185.7344,1109.8125 Q185.7344,1111.0469 186.625,1111.8672 Q187.5156,1112.6875 189.1094,1112.6875 Q190.0469,1112.6875 190.7031,1112.4375 Q191.0938,1112.2813 191.5156,1111.8438 Q191.7813,1111.5781 191.9297,1111.5 Q192.0781,1111.4219 192.2813,1111.4219 Q192.6094,1111.4219 192.8672,1111.6797 Q193.125,1111.9375 193.125,1112.2813 Q193.125,1112.625 192.7813,1113.0313 Q192.2813,1113.6094 191.4844,1113.9375 Q190.4063,1114.3906 189.1094,1114.3906 Q187.5938,1114.3906 186.3906,1113.7656 Q185.4063,1113.2656 184.7188,1112.1953 Q184.0313,1111.125 184.0313,1109.8438 L184.0313,1108.6875 Q184.0313,1107.3594 184.6484,1106.2109 Q185.2656,1105.0625 186.3594,1104.4453 Q187.4531,1103.8281 188.6875,1103.8281 Q189.4219,1103.8281 190.0703,1103.9922 Q190.7188,1104.1563 191.2656,1104.5156 Z "/><text fill="#000000" font-family="sans-serif" font-size="12" lengthAdjust="spacingAndGlyphs" textLength="93" x="202.5" y="1113.5508">DesignCaseUse</text><line style="stroke: #A80036; stroke-width: 1.5;" x1="174.5" x2="297.5" y1="1124.6406" y2="1124.6406"/><line style="stroke: #A80036; stroke-width: 1.5;" x1="174.5" x2="297.5" y1="1132.6406" y2="1132.6406"/><!--class DesignClass--><rect fill="#008000" filter="url(#fze0tcwu5qd55)" height="48" id="DesignClass" style="stroke: #A80036; stroke-width: 1.5;" width="105" x="320.5" y="966.6406"/><rect fill="#008000" height="32" style="stroke: #A80036; stroke-width: 1.5;" width="105" x="320.5" y="966.6406"/><ellipse cx="335.5" cy="982.6406" fill="#ADD1B2" rx="11" ry="11" style="stroke: #A80036; stroke-width: 1.0;"/><path d="M338.2656,978.5156 Q338.4219,978.2969 338.6094,978.1875 Q338.7969,978.0781 339.0156,978.0781 Q339.3906,978.0781 339.625,978.3359 Q339.8594,978.5938 339.8594,979.2031 L339.8594,980.6563 Q339.8594,981.2656 339.625,981.5313 Q339.3906,981.7969 339.0156,981.7969 Q338.6719,981.7969 338.4688,981.5938 Q338.2656,981.4063 338.1563,980.8906 Q338.1094,980.5313 337.9219,980.3438 Q337.5938,979.9688 336.9844,979.75 Q336.375,979.5313 335.75,979.5313 Q334.9844,979.5313 334.3516,979.8594 Q333.7188,980.1875 333.2266,980.9375 Q332.7344,981.6875 332.7344,982.7188 L332.7344,983.8125 Q332.7344,985.0469 333.625,985.8672 Q334.5156,986.6875 336.1094,986.6875 Q337.0469,986.6875 337.7031,986.4375 Q338.0938,986.2813 338.5156,985.8438 Q338.7813,985.5781 338.9297,985.5 Q339.0781,985.4219 339.2813,985.4219 Q339.6094,985.4219 339.8672,985.6797 Q340.125,985.9375 340.125,986.2813 Q340.125,986.625 339.7813,987.0313 Q339.2813,987.6094 338.4844,987.9375 Q337.4063,988.3906 336.1094,988.3906 Q334.5938,988.3906 333.3906,987.7656 Q332.4063,987.2656 331.7188,986.1953 Q331.0313,985.125 331.0313,983.8438 L331.0313,982.6875 Q331.0313,981.3594 331.6484,980.2109 Q332.2656,979.0625 333.3594,978.4453 Q334.4531,977.8281 335.6875,977.8281 Q336.4219,977.8281 337.0703,977.9922 Q337.7188,978.1563 338.2656,978.5156 Z "/><text fill="#000000" font-family="sans-serif" font-size="12" lengthAdjust="spacingAndGlyphs" textLength="73" x="349.5" y="987.5508">DesignClass</text><line style="stroke: #A80036; stroke-width: 1.5;" x1="321.5" x2="424.5" y1="998.6406" y2="998.6406"/><line style="stroke: #A80036; stroke-width: 1.5;" x1="321.5" x2="424.5" y1="1006.6406" y2="1006.6406"/><!--class DesignSubsystems--><rect fill="#008000" filter="url(#fze0tcwu5qd55)" height="48" id="DesignSubsystems" style="stroke: #A80036; stroke-width: 1.5;" width="141" x="248.5" y="1218.6406"/><rect fill="#008000" height="32" style="stroke: #A80036; stroke-width: 1.5;" width="141" x="248.5" y="1218.6406"/><ellipse cx="263.5" cy="1234.6406" fill="#ADD1B2" rx="11" ry="11" style="stroke: #A80036; stroke-width: 1.0;"/><path d="M266.2656,1230.5156 Q266.4219,1230.2969 266.6094,1230.1875 Q266.7969,1230.0781 267.0156,1230.0781 Q267.3906,1230.0781 267.625,1230.3359 Q267.8594,1230.5938 267.8594,1231.2031 L267.8594,1232.6563 Q267.8594,1233.2656 267.625,1233.5313 Q267.3906,1233.7969 267.0156,1233.7969 Q266.6719,1233.7969 266.4688,1233.5938 Q266.2656,1233.4063 266.1563,1232.8906 Q266.1094,1232.5313 265.9219,1232.3438 Q265.5938,1231.9688 264.9844,1231.75 Q264.375,1231.5313 263.75,1231.5313 Q262.9844,1231.5313 262.3516,1231.8594 Q261.7188,1232.1875 261.2266,1232.9375 Q260.7344,1233.6875 260.7344,1234.7188 L260.7344,1235.8125 Q260.7344,1237.0469 261.625,1237.8672 Q262.5156,1238.6875 264.1094,1238.6875 Q265.0469,1238.6875 265.7031,1238.4375 Q266.0938,1238.2813 266.5156,1237.8438 Q266.7813,1237.5781 266.9297,1237.5 Q267.0781,1237.4219 267.2813,1237.4219 Q267.6094,1237.4219 267.8672,1237.6797 Q268.125,1237.9375 268.125,1238.2813 Q268.125,1238.625 267.7813,1239.0313 Q267.2813,1239.6094 266.4844,1239.9375 Q265.4063,1240.3906 264.1094,1240.3906 Q262.5938,1240.3906 261.3906,1239.7656 Q260.4063,1239.2656 259.7188,1238.1953 Q259.0313,1237.125 259.0313,1235.8438 L259.0313,1234.6875 Q259.0313,1233.3594 259.6484,1232.2109 Q260.2656,1231.0625 261.3594,1230.4453 Q262.4531,1229.8281 263.6875,1229.8281 Q264.4219,1229.8281 265.0703,1229.9922 Q265.7188,1230.1563 266.2656,1230.5156 Z "/><text fill="#000000" font-family="sans-serif" font-size="12" lengthAdjust="spacingAndGlyphs" textLength="109" x="277.5" y="1239.5508">DesignSubsystems</text><line style="stroke: #A80036; stroke-width: 1.5;" x1="249.5" x2="388.5" y1="1250.6406" y2="1250.6406"/><line style="stroke: #A80036; stroke-width: 1.5;" x1="249.5" x2="388.5" y1="1258.6406" y2="1258.6406"/><!--link Discipline to Activity--><path d="M230.776,90.0506 C223.224,102.2906 214.725,116.0706 207.177,128.3106 " fill="none" id="Discipline-Activity" style="stroke: #A80036; stroke-width: 1.0;"/><polygon fill="#A80036" points="200.293,139.4706,208.4237,133.9126,202.919,135.2157,201.6159,129.711,200.293,139.4706" style="stroke: #A80036; stroke-width: 1.0;"/><line style="stroke: #A80036; stroke-width: 1.0;" x1="202.919" x2="207.1175" y1="135.2157" y2="128.4006"/><polygon fill="#A80036" points="237.679,78.8606,231.1239,81.8657,231.3766,89.0724,237.9317,86.0673,237.679,78.8606" style="stroke: #A80036; stroke-width: 1.0;"/><!--link Discipline to DesignDiscipline--><path d="M277.067,96.2806 C286.078,110.8906 295.928,126.8606 303.707,139.4706 " fill="none" id="Discipline-DesignDiscipline" style="stroke: #A80036; stroke-width: 1.0;"/><polygon fill="none" points="270.863,99.5506,266.321,78.8606,282.779,92.2006,270.863,99.5506" style="stroke: #A80036; stroke-width: 1.0;"/><!--link DesignDiscipline to DesignActivity--><path d="M300.071,199.5206 C293.948,211.4306 287.101,224.7506 280.975,236.6706 " fill="none" id="DesignDiscipline-DesignActivity" style="stroke: #A80036; stroke-width: 1.0;"/><polygon fill="#A80036" points="274.911,248.4706,282.5827,242.2945,277.1966,244.0236,275.4675,238.6375,274.911,248.4706" style="stroke: #A80036; stroke-width: 1.0;"/><line style="stroke: #A80036; stroke-width: 1.0;" x1="277.1966" x2="280.854" y1="244.0236" y2="236.9106"/><polygon fill="#A80036" points="306.066,187.8606,299.7655,191.3683,300.58,198.5332,306.8805,195.0256,306.066,187.8606" style="stroke: #A80036; stroke-width: 1.0;"/><!--link Activity to DesignActivity--><path d="M214.546,204.3106 C225.246,219.1806 237.048,235.5806 246.325,248.4706 " fill="none" id="Activity-DesignActivity" style="stroke: #A80036; stroke-width: 1.0;"/><polygon fill="none" points="208.708,208.1806,202.708,187.8606,220.072,200.0006,208.708,208.1806" style="stroke: #A80036; stroke-width: 1.0;"/><!--link DesignActivity to Member--><path d="M263,309.9426 C263,320.9946 263,333.1426 263,344.2036 " fill="none" id="DesignActivity-Member" style="stroke: #A80036; stroke-width: 1.0;"/><polygon fill="#A80036" points="263,357.4686,267,348.4686,263,352.4686,259,348.4686,263,357.4686" style="stroke: #A80036; stroke-width: 1.0;"/><line style="stroke: #A80036; stroke-width: 1.0;" x1="263" x2="263" y1="352.4686" y2="344.4686"/><polygon fill="#A80036" points="263,296.8576,259,302.8576,263,308.8576,267,302.8576,263,296.8576" style="stroke: #A80036; stroke-width: 1.0;"/><!--link Member to Role--><path d="M263,418.9426 C263,429.9946 263,442.1426 263,453.2036 " fill="none" id="Member-Role" style="stroke: #A80036; stroke-width: 1.0;"/><polygon fill="#A80036" points="263,466.4686,267,457.4686,263,461.4686,259,457.4686,263,466.4686" style="stroke: #A80036; stroke-width: 1.0;"/><line style="stroke: #A80036; stroke-width: 1.0;" x1="263" x2="263" y1="461.4686" y2="453.4686"/><polygon fill="#A80036" points="263,405.8576,259,411.8576,263,417.8576,267,411.8576,263,405.8576" style="stroke: #A80036; stroke-width: 1.0;"/><!--link Role to DesignRole--><path d="M263,535.2186 C263,549.0026 263,563.6976 263,575.4686 " fill="none" id="Role-DesignRole" style="stroke: #A80036; stroke-width: 1.0;"/><polygon fill="none" points="256,534.8576,263,514.8576,270,534.8576,256,534.8576" style="stroke: #A80036; stroke-width: 1.0;"/><!--link DesignRole to Architect--><path d="M263,644.2186 C263,658.0026 263,672.6976 263,684.4686 " fill="none" id="DesignRole-Architect" style="stroke: #A80036; stroke-width: 1.0;"/><polygon fill="none" points="256,643.8576,263,623.8576,270,643.8576,256,643.8576" style="stroke: #A80036; stroke-width: 1.0;"/><!--link DesignRole to EngineerUseCases--><path d="M232.91,640.3596 C223.487,653.9396 213.581,669.5246 206,684.6406 C193.187,710.1866 183.124,741.5466 177.139,762.4816 " fill="none" id="DesignRole-EngineerUseCases" style="stroke: #A80036; stroke-width: 1.0;"/><polygon fill="none" points="227.415,636.0116,244.783,623.8716,238.776,644.1926,227.415,636.0116" style="stroke: #A80036; stroke-width: 1.0;"/><!--link DesignRole to EngineerComponents--><path d="M291.109,640.3856 C330.459,696.0266 400.711,795.3606 432.531,840.3536 " fill="none" id="DesignRole-EngineerComponents" style="stroke: #A80036; stroke-width: 1.0;"/><polygon fill="none" points="285.339,644.3506,279.506,623.9796,296.77,636.2676,285.339,644.3506" style="stroke: #A80036; stroke-width: 1.0;"/><!--link Architect to DesignArchitecture--><path d="M264.105,738.0026 C265.253,767.4696 267.028,813.0266 268.096,840.4276 " fill="none" id="Architect-DesignArchitecture" style="stroke: #A80036; stroke-width: 1.0;"/><polygon fill="#A80036" points="263.898,732.6956,260.2533,741.8453,264.0937,737.6918,268.2472,741.5322,263.898,732.6956" style="stroke: #A80036; stroke-width: 1.0;"/><!--link EngineerUseCases to DesignCaseUse--><path d="M173.52,816.0076 C175.531,836.3186 178.721,864.2696 183,888.6406 C196.228,963.9756 218.812,1051.8026 229.727,1092.6136 " fill="none" id="EngineerUseCases-DesignCaseUse" style="stroke: #A80036; stroke-width: 1.0;"/><polygon fill="#A80036" points="173.034,811.0146,169.9273,820.3607,173.5198,815.991,177.8895,819.5834,173.034,811.0146" style="stroke: #A80036; stroke-width: 1.0;"/><!--link EngineerComponents to DesignClass--><path d="M432.263,892.9486 C418.795,914.9216 400.073,945.4686 387.299,966.3106 " fill="none" id="EngineerComponents-DesignClass" style="stroke: #A80036; stroke-width: 1.0;"/><polygon fill="#A80036" points="434.883,888.6736,426.7694,894.2566,432.2701,892.9366,433.5901,898.4373,434.883,888.6736" style="stroke: #A80036; stroke-width: 1.0;"/><!--link EngineerComponents to DesignSubsystems--><path d="M452.308,894.1756 C457.01,946.4166 460.821,1059.5086 418,1140.6406 C401.496,1171.9097 372.235,1199.9581 349.79,1218.5153 " fill="none" id="EngineerComponents-DesignSubsystems" style="stroke: #A80036; stroke-width: 1.0;"/><polygon fill="#A80036" points="451.822,889.0116,448.6829,898.3468,452.2905,893.9896,456.6477,897.5972,451.822,889.0116" style="stroke: #A80036; stroke-width: 1.0;"/><!--link DesignActivity to DesignArchitecture--><path d="M336.023,291.4816 C379.393,306.9256 426,334.3016 426,380.6406 C426,380.6406 426,380.6406 426,654.6406 C426,736.1016 348.812,806.0796 302.68,840.6276 " fill="none" id="DesignActivity-DesignArchitecture" style="stroke: #A80036; stroke-width: 1.0;"/><polygon fill="none" points="333.712,298.0916,316.824,285.2936,338.007,284.7666,333.712,298.0916" style="stroke: #A80036; stroke-width: 1.0;"/><!--link DesignArchitecture to DesignClass--><path d="M288.318,888.6736 C305.793,909.5086 331.549,940.2176 350.063,962.2936 " fill="none" id="DesignArchitecture-DesignClass" style="stroke: #A80036; stroke-width: 1.0;"/><polygon fill="#A80036" points="353.433,966.3106,350.7134,956.8447,350.2196,962.48,344.5843,961.9862,353.433,966.3106" style="stroke: #A80036; stroke-width: 1.0;"/><text fill="#000000" font-family="sans-serif" font-size="13" lengthAdjust="spacingAndGlyphs" textLength="47" x="329" y="933.1357">previous</text><!--link DesignClass to DesignCaseUse--><path d="M335.076,1014.8226 C322.121,1023.4846 307.908,1033.8546 296,1044.6406 C281.475,1057.7976 267.229,1074.4486 256.266,1088.3186 " fill="none" id="DesignClass-DesignCaseUse" style="stroke: #A80036; stroke-width: 1.0;"/><polygon fill="#A80036" points="252.972,1092.5266,261.6689,1087.9046,256.0537,1088.5892,255.369,1082.9739,252.972,1092.5266" style="stroke: #A80036; stroke-width: 1.0;"/><text fill="#000000" font-family="sans-serif" font-size="13" lengthAdjust="spacingAndGlyphs" textLength="47" x="297" y="1059.1357">previous</text><!--link DesignClass to DesignSubsystems--><path d="M370.732,1014.7346 C366.729,1051.8876 357.165,1127.0056 340,1188.6406 C337.691,1196.9312 334.528,1205.7043 331.357,1213.6758 " fill="none" id="DesignClass-DesignSubsystems" style="stroke: #A80036; stroke-width: 1.0;"/><polygon fill="#A80036" points="329.39,1218.5241,336.481,1211.6891,331.2703,1213.8912,329.0682,1208.6805,329.39,1218.5241" style="stroke: #A80036; stroke-width: 1.0;"/><text fill="#000000" font-family="sans-serif" font-size="13" lengthAdjust="spacingAndGlyphs" textLength="47" x="362" y="1122.1357">previous</text><!--link DesignArchitecture to DesignCaseUse--><path d="M265.365,888.8826 C262.209,909.3366 257.595,939.9366 254,966.6406 C248.347,1008.6276 242.614,1057.3856 239.183,1087.3766 " fill="none" id="DesignArchitecture-DesignCaseUse" style="stroke: #A80036; stroke-width: 1.0;"/><polygon fill="#A80036" points="238.611,1092.3876,243.6062,1083.8995,239.1782,1087.4199,235.6578,1082.992,238.611,1092.3876" style="stroke: #A80036; stroke-width: 1.0;"/><text fill="#000000" font-family="sans-serif" font-size="13" lengthAdjust="spacingAndGlyphs" textLength="47" x="255" y="996.1357">previous</text><!--link DesignActivity to DesignClass--><path d="M336.457,283.5506 C429.818,298.2476 579,329.7006 579,380.6406 C579,380.6406 579,380.6406 579,865.6406 C579,937.2306 486.548,968.5516 425.516,981.4286 " fill="none" id="DesignActivity-DesignClass" style="stroke: #A80036; stroke-width: 1.0;"/><polygon fill="none" points="335.331,290.4606,316.605,280.5446,337.428,276.6186,335.331,290.4606" style="stroke: #A80036; stroke-width: 1.0;"/><!--link DesignActivity to DesignCaseUse--><path d="M189.473,285.8066 C137.486,299.1016 77,326.2556 77,380.6406 C77,380.6406 77,380.6406 77,991.6406 C77,1042.7496 128.716,1075.8946 173.159,1094.9416 " fill="none" id="DesignActivity-DesignCaseUse" style="stroke: #A80036; stroke-width: 1.0;"/><polygon fill="none" points="188.143,278.9306,209.201,281.2886,191.269,292.5776,188.143,278.9306" style="stroke: #A80036; stroke-width: 1.0;"/><!--link DesignCaseUse to DesignSubsystems--><path d="M251.417,1140.6736 C265.306,1161.4226 285.748,1191.9633 300.511,1214.018 " fill="none" id="DesignCaseUse-DesignSubsystems" style="stroke: #A80036; stroke-width: 1.0;"/><polygon fill="#A80036" points="303.384,1218.3103,301.7024,1208.6061,300.603,1214.1551,295.054,1213.0556,303.384,1218.3103" style="stroke: #A80036; stroke-width: 1.0;"/><text fill="#000000" font-family="sans-serif" font-size="13" lengthAdjust="spacingAndGlyphs" textLength="47" x="284" y="1185.1357">previous</text><!--link DesignActivity to DesignSubsystems--><path d="M189.45,274.3076 C113.502,279.3496 6,300.6196 6,380.6406 C6,380.6406 6,380.6406 6,1117.6406 C6,1169.4412 156.05,1208.955 248.366,1228.3634 " fill="none" id="DesignActivity-DesignSubsystems" style="stroke: #A80036; stroke-width: 1.0;"/><polygon fill="none" points="189.109,267.3156,209.437,273.2966,189.816,281.2976,189.109,267.3156" style="stroke: #A80036; stroke-width: 1.0;"/><!--
@startuml
title DesignActivity
class Discipline #red
Discipline *- -> Activity

class DesignDiscipline #red
Discipline <|- - DesignDiscipline
DesignDiscipline *- -> DesignActivity

class Activity #green

class DesignActivity #green
Activity <|- - DesignActivity
DesignActivity *- -> Member

class Member #white
Member *- -> Role

class Role #white
class DesignRole #blue
class Architect #blue
class EngineerUseCases #blue
class EngineerComponents #blue
Role <|- - DesignRole
DesignRole <|- - Architect
DesignRole <|- - EngineerUseCases
DesignRole <|- - EngineerComponents
Architect <- - DesignArchitecture
EngineerUseCases <- - DesignCaseUse
EngineerComponents <- - DesignClass
EngineerComponents <- - DesignSubsystems

class DesignArchitecture #green
class DesignClass #green
class DesignCaseUse #green
class DesignSubsystems #green
DesignActivity <|- - DesignArchitecture
DesignArchitecture - -> DesignClass :previous
DesignClass - -> DesignCaseUse :previous
DesignClass - -> DesignSubsystems :previous
DesignArchitecture - -> DesignCaseUse :previous
DesignActivity <|- - DesignClass
DesignActivity <|- - DesignCaseUse
DesignCaseUse - -> DesignSubsystems :previous
DesignActivity <|- - DesignSubsystems

@enduml

PlantUML version 1.2019.05(Sat Apr 20 18:45:36 CEST 2019)
(GPL source distribution)
Java Runtime: OpenJDK Runtime Environment
JVM: OpenJDK 64-Bit Server VM
Java Version: 1.8.0_222-b10
Operating System: Windows 10
OS Version: 10.0
Default Encoding: windows-1252
Language: es
Country: ES
--></g></svg>