<?xml version="1.0" encoding="UTF-8" standalone="no"?><svg xmlns="http://www.w3.org/2000/svg" xmlns:xlink="http://www.w3.org/1999/xlink" contentScriptType="application/ecmascript" contentStyleType="text/css" height="411px" preserveAspectRatio="none" style="width:1203px;height:411px;" version="1.1" viewBox="0 0 1203 411" width="1203px" zoomAndPan="magnify"><defs><filter height="300%" id="fn4oovywr0g50" width="300%" x="-1" y="-1"><feGaussianBlur result="blurOut" stdDeviation="2.0"/><feColorMatrix in="blurOut" result="blurOut2" type="matrix" values="0 0 0 0 0 0 0 0 0 0 0 0 0 0 0 0 0 0 .4 0"/><feOffset dx="4.0" dy="4.0" in="blurOut2" result="blurOut3"/><feBlend in="SourceGraphic" in2="blurOut3" mode="normal"/></filter></defs><g><!--class Activity--><rect fill="#FF0000" filter="url(#fn4oovywr0g50)" height="48" id="Activity" style="stroke: #A80036; stroke-width: 1.5;" width="67" x="816.5" y="8"/><rect fill="#FF0000" height="32" style="stroke: #A80036; stroke-width: 1.5;" width="67" x="816.5" y="8"/><ellipse cx="831.5" cy="24" fill="#ADD1B2" rx="11" ry="11" style="stroke: #A80036; stroke-width: 1.0;"/><path d="M834.2656,19.875 Q834.4219,19.6563 834.6094,19.5469 Q834.7969,19.4375 835.0156,19.4375 Q835.3906,19.4375 835.625,19.6953 Q835.8594,19.9531 835.8594,20.5625 L835.8594,22.0156 Q835.8594,22.625 835.625,22.8906 Q835.3906,23.1563 835.0156,23.1563 Q834.6719,23.1563 834.4688,22.9531 Q834.2656,22.7656 834.1563,22.25 Q834.1094,21.8906 833.9219,21.7031 Q833.5938,21.3281 832.9844,21.1094 Q832.375,20.8906 831.75,20.8906 Q830.9844,20.8906 830.3516,21.2188 Q829.7188,21.5469 829.2266,22.2969 Q828.7344,23.0469 828.7344,24.0781 L828.7344,25.1719 Q828.7344,26.4063 829.625,27.2266 Q830.5156,28.0469 832.1094,28.0469 Q833.0469,28.0469 833.7031,27.7969 Q834.0938,27.6406 834.5156,27.2031 Q834.7813,26.9375 834.9297,26.8594 Q835.0781,26.7813 835.2813,26.7813 Q835.6094,26.7813 835.8672,27.0391 Q836.125,27.2969 836.125,27.6406 Q836.125,27.9844 835.7813,28.3906 Q835.2813,28.9688 834.4844,29.2969 Q833.4063,29.75 832.1094,29.75 Q830.5938,29.75 829.3906,29.125 Q828.4063,28.625 827.7188,27.5547 Q827.0313,26.4844 827.0313,25.2031 L827.0313,24.0469 Q827.0313,22.7188 827.6484,21.5703 Q828.2656,20.4219 829.3594,19.8047 Q830.4531,19.1875 831.6875,19.1875 Q832.4219,19.1875 833.0703,19.3516 Q833.7188,19.5156 834.2656,19.875 Z "/><text fill="#000000" font-family="sans-serif" font-size="12" lengthAdjust="spacingAndGlyphs" textLength="35" x="845.5" y="28.9102">Activity</text><line style="stroke: #A80036; stroke-width: 1.5;" x1="817.5" x2="882.5" y1="40" y2="40"/><line style="stroke: #A80036; stroke-width: 1.5;" x1="817.5" x2="882.5" y1="48" y2="48"/><!--class DesignActivity--><rect fill="#FF0000" filter="url(#fn4oovywr0g50)" height="48" id="DesignActivity" style="stroke: #A80036; stroke-width: 1.5;" width="107" x="738.5" y="117"/><rect fill="#FF0000" height="32" style="stroke: #A80036; stroke-width: 1.5;" width="107" x="738.5" y="117"/><ellipse cx="753.5" cy="133" fill="#ADD1B2" rx="11" ry="11" style="stroke: #A80036; stroke-width: 1.0;"/><path d="M756.2656,128.875 Q756.4219,128.6563 756.6094,128.5469 Q756.7969,128.4375 757.0156,128.4375 Q757.3906,128.4375 757.625,128.6953 Q757.8594,128.9531 757.8594,129.5625 L757.8594,131.0156 Q757.8594,131.625 757.625,131.8906 Q757.3906,132.1563 757.0156,132.1563 Q756.6719,132.1563 756.4688,131.9531 Q756.2656,131.7656 756.1563,131.25 Q756.1094,130.8906 755.9219,130.7031 Q755.5938,130.3281 754.9844,130.1094 Q754.375,129.8906 753.75,129.8906 Q752.9844,129.8906 752.3516,130.2188 Q751.7188,130.5469 751.2266,131.2969 Q750.7344,132.0469 750.7344,133.0781 L750.7344,134.1719 Q750.7344,135.4063 751.625,136.2266 Q752.5156,137.0469 754.1094,137.0469 Q755.0469,137.0469 755.7031,136.7969 Q756.0938,136.6406 756.5156,136.2031 Q756.7813,135.9375 756.9297,135.8594 Q757.0781,135.7813 757.2813,135.7813 Q757.6094,135.7813 757.8672,136.0391 Q758.125,136.2969 758.125,136.6406 Q758.125,136.9844 757.7813,137.3906 Q757.2813,137.9688 756.4844,138.2969 Q755.4063,138.75 754.1094,138.75 Q752.5938,138.75 751.3906,138.125 Q750.4063,137.625 749.7188,136.5547 Q749.0313,135.4844 749.0313,134.2031 L749.0313,133.0469 Q749.0313,131.7188 749.6484,130.5703 Q750.2656,129.4219 751.3594,128.8047 Q752.4531,128.1875 753.6875,128.1875 Q754.4219,128.1875 755.0703,128.3516 Q755.7188,128.5156 756.2656,128.875 Z "/><text fill="#000000" font-family="sans-serif" font-size="12" lengthAdjust="spacingAndGlyphs" textLength="75" x="767.5" y="137.9102">DesignActivity</text><line style="stroke: #A80036; stroke-width: 1.5;" x1="739.5" x2="844.5" y1="149" y2="149"/><line style="stroke: #A80036; stroke-width: 1.5;" x1="739.5" x2="844.5" y1="157" y2="157"/><!--class Role--><rect fill="#0000FF" filter="url(#fn4oovywr0g50)" height="48" id="Role" style="stroke: #A80036; stroke-width: 1.5;" width="58" x="881" y="117"/><rect fill="#0000FF" height="32" style="stroke: #A80036; stroke-width: 1.5;" width="58" x="881" y="117"/><ellipse cx="896" cy="133" fill="#ADD1B2" rx="11" ry="11" style="stroke: #A80036; stroke-width: 1.0;"/><path d="M898.7656,128.875 Q898.9219,128.6563 899.1094,128.5469 Q899.2969,128.4375 899.5156,128.4375 Q899.8906,128.4375 900.125,128.6953 Q900.3594,128.9531 900.3594,129.5625 L900.3594,131.0156 Q900.3594,131.625 900.125,131.8906 Q899.8906,132.1563 899.5156,132.1563 Q899.1719,132.1563 898.9688,131.9531 Q898.7656,131.7656 898.6563,131.25 Q898.6094,130.8906 898.4219,130.7031 Q898.0938,130.3281 897.4844,130.1094 Q896.875,129.8906 896.25,129.8906 Q895.4844,129.8906 894.8516,130.2188 Q894.2188,130.5469 893.7266,131.2969 Q893.2344,132.0469 893.2344,133.0781 L893.2344,134.1719 Q893.2344,135.4063 894.125,136.2266 Q895.0156,137.0469 896.6094,137.0469 Q897.5469,137.0469 898.2031,136.7969 Q898.5938,136.6406 899.0156,136.2031 Q899.2813,135.9375 899.4297,135.8594 Q899.5781,135.7813 899.7813,135.7813 Q900.1094,135.7813 900.3672,136.0391 Q900.625,136.2969 900.625,136.6406 Q900.625,136.9844 900.2813,137.3906 Q899.7813,137.9688 898.9844,138.2969 Q897.9063,138.75 896.6094,138.75 Q895.0938,138.75 893.8906,138.125 Q892.9063,137.625 892.2188,136.5547 Q891.5313,135.4844 891.5313,134.2031 L891.5313,133.0469 Q891.5313,131.7188 892.1484,130.5703 Q892.7656,129.4219 893.8594,128.8047 Q894.9531,128.1875 896.1875,128.1875 Q896.9219,128.1875 897.5703,128.3516 Q898.2188,128.5156 898.7656,128.875 Z "/><text fill="#000000" font-family="sans-serif" font-size="12" lengthAdjust="spacingAndGlyphs" textLength="26" x="910" y="137.9102">Role</text><line style="stroke: #A80036; stroke-width: 1.5;" x1="882" x2="938" y1="149" y2="149"/><line style="stroke: #A80036; stroke-width: 1.5;" x1="882" x2="938" y1="157" y2="157"/><!--class RealizationUseCasesDesign--><rect fill="#008000" filter="url(#fn4oovywr0g50)" height="48" id="RealizationUseCasesDesign" style="stroke: #A80036; stroke-width: 1.5;" width="216" x="6" y="352"/><rect fill="#008000" height="32" style="stroke: #A80036; stroke-width: 1.5;" width="216" x="6" y="352"/><ellipse cx="21" cy="368" fill="#ADD1B2" rx="11" ry="11" style="stroke: #A80036; stroke-width: 1.0;"/><path d="M23.7656,363.875 Q23.9219,363.6563 24.1094,363.5469 Q24.2969,363.4375 24.5156,363.4375 Q24.8906,363.4375 25.125,363.6953 Q25.3594,363.9531 25.3594,364.5625 L25.3594,366.0156 Q25.3594,366.625 25.125,366.8906 Q24.8906,367.1563 24.5156,367.1563 Q24.1719,367.1563 23.9688,366.9531 Q23.7656,366.7656 23.6563,366.25 Q23.6094,365.8906 23.4219,365.7031 Q23.0938,365.3281 22.4844,365.1094 Q21.875,364.8906 21.25,364.8906 Q20.4844,364.8906 19.8516,365.2188 Q19.2188,365.5469 18.7266,366.2969 Q18.2344,367.0469 18.2344,368.0781 L18.2344,369.1719 Q18.2344,370.4063 19.125,371.2266 Q20.0156,372.0469 21.6094,372.0469 Q22.5469,372.0469 23.2031,371.7969 Q23.5938,371.6406 24.0156,371.2031 Q24.2813,370.9375 24.4297,370.8594 Q24.5781,370.7813 24.7813,370.7813 Q25.1094,370.7813 25.3672,371.0391 Q25.625,371.2969 25.625,371.6406 Q25.625,371.9844 25.2813,372.3906 Q24.7813,372.9688 23.9844,373.2969 Q22.9063,373.75 21.6094,373.75 Q20.0938,373.75 18.8906,373.125 Q17.9063,372.625 17.2188,371.5547 Q16.5313,370.4844 16.5313,369.2031 L16.5313,368.0469 Q16.5313,366.7188 17.1484,365.5703 Q17.7656,364.4219 18.8594,363.8047 Q19.9531,363.1875 21.1875,363.1875 Q21.9219,363.1875 22.5703,363.3516 Q23.2188,363.5156 23.7656,363.875 Z "/><text fill="#000000" font-family="sans-serif" font-size="12" lengthAdjust="spacingAndGlyphs" textLength="184" x="35" y="372.9102">Realization of Use Cases-Design</text><line style="stroke: #A80036; stroke-width: 1.5;" x1="7" x2="221" y1="384" y2="384"/><line style="stroke: #A80036; stroke-width: 1.5;" x1="7" x2="221" y1="392" y2="392"/><!--class DesignClassX--><rect fill="#008000" filter="url(#fn4oovywr0g50)" height="48" id="DesignClassX" style="stroke: #A80036; stroke-width: 1.5;" width="153" x="257.5" y="352"/><rect fill="#008000" height="32" style="stroke: #A80036; stroke-width: 1.5;" width="153" x="257.5" y="352"/><ellipse cx="272.5" cy="368" fill="#ADD1B2" rx="11" ry="11" style="stroke: #A80036; stroke-width: 1.0;"/><path d="M275.2656,363.875 Q275.4219,363.6563 275.6094,363.5469 Q275.7969,363.4375 276.0156,363.4375 Q276.3906,363.4375 276.625,363.6953 Q276.8594,363.9531 276.8594,364.5625 L276.8594,366.0156 Q276.8594,366.625 276.625,366.8906 Q276.3906,367.1563 276.0156,367.1563 Q275.6719,367.1563 275.4688,366.9531 Q275.2656,366.7656 275.1563,366.25 Q275.1094,365.8906 274.9219,365.7031 Q274.5938,365.3281 273.9844,365.1094 Q273.375,364.8906 272.75,364.8906 Q271.9844,364.8906 271.3516,365.2188 Q270.7188,365.5469 270.2266,366.2969 Q269.7344,367.0469 269.7344,368.0781 L269.7344,369.1719 Q269.7344,370.4063 270.625,371.2266 Q271.5156,372.0469 273.1094,372.0469 Q274.0469,372.0469 274.7031,371.7969 Q275.0938,371.6406 275.5156,371.2031 Q275.7813,370.9375 275.9297,370.8594 Q276.0781,370.7813 276.2813,370.7813 Q276.6094,370.7813 276.8672,371.0391 Q277.125,371.2969 277.125,371.6406 Q277.125,371.9844 276.7813,372.3906 Q276.2813,372.9688 275.4844,373.2969 Q274.4063,373.75 273.1094,373.75 Q271.5938,373.75 270.3906,373.125 Q269.4063,372.625 268.7188,371.5547 Q268.0313,370.4844 268.0313,369.2031 L268.0313,368.0469 Q268.0313,366.7188 268.6484,365.5703 Q269.2656,364.4219 270.3594,363.8047 Q271.4531,363.1875 272.6875,363.1875 Q273.4219,363.1875 274.0703,363.3516 Q274.7188,363.5156 275.2656,363.875 Z "/><text fill="#000000" font-family="sans-serif" font-size="12" lengthAdjust="spacingAndGlyphs" textLength="121" x="286.5" y="372.9102">Design class (outline)</text><line style="stroke: #A80036; stroke-width: 1.5;" x1="258.5" x2="409.5" y1="384" y2="384"/><line style="stroke: #A80036; stroke-width: 1.5;" x1="258.5" x2="409.5" y1="392" y2="392"/><!--class Interface--><rect fill="#008000" filter="url(#fn4oovywr0g50)" height="48" id="Interface" style="stroke: #A80036; stroke-width: 1.5;" width="127" x="445.5" y="352"/><rect fill="#008000" height="32" style="stroke: #A80036; stroke-width: 1.5;" width="127" x="445.5" y="352"/><ellipse cx="460.5" cy="368" fill="#ADD1B2" rx="11" ry="11" style="stroke: #A80036; stroke-width: 1.0;"/><path d="M463.2656,363.875 Q463.4219,363.6563 463.6094,363.5469 Q463.7969,363.4375 464.0156,363.4375 Q464.3906,363.4375 464.625,363.6953 Q464.8594,363.9531 464.8594,364.5625 L464.8594,366.0156 Q464.8594,366.625 464.625,366.8906 Q464.3906,367.1563 464.0156,367.1563 Q463.6719,367.1563 463.4688,366.9531 Q463.2656,366.7656 463.1563,366.25 Q463.1094,365.8906 462.9219,365.7031 Q462.5938,365.3281 461.9844,365.1094 Q461.375,364.8906 460.75,364.8906 Q459.9844,364.8906 459.3516,365.2188 Q458.7188,365.5469 458.2266,366.2969 Q457.7344,367.0469 457.7344,368.0781 L457.7344,369.1719 Q457.7344,370.4063 458.625,371.2266 Q459.5156,372.0469 461.1094,372.0469 Q462.0469,372.0469 462.7031,371.7969 Q463.0938,371.6406 463.5156,371.2031 Q463.7813,370.9375 463.9297,370.8594 Q464.0781,370.7813 464.2813,370.7813 Q464.6094,370.7813 464.8672,371.0391 Q465.125,371.2969 465.125,371.6406 Q465.125,371.9844 464.7813,372.3906 Q464.2813,372.9688 463.4844,373.2969 Q462.4063,373.75 461.1094,373.75 Q459.5938,373.75 458.3906,373.125 Q457.4063,372.625 456.7188,371.5547 Q456.0313,370.4844 456.0313,369.2031 L456.0313,368.0469 Q456.0313,366.7188 456.6484,365.5703 Q457.2656,364.4219 458.3594,363.8047 Q459.4531,363.1875 460.6875,363.1875 Q461.4219,363.1875 462.0703,363.3516 Q462.7188,363.5156 463.2656,363.875 Z "/><text fill="#000000" font-family="sans-serif" font-size="12" lengthAdjust="spacingAndGlyphs" textLength="95" x="474.5" y="372.9102">Interface (outline)</text><line style="stroke: #A80036; stroke-width: 1.5;" x1="446.5" x2="571.5" y1="384" y2="384"/><line style="stroke: #A80036; stroke-width: 1.5;" x1="446.5" x2="571.5" y1="392" y2="392"/><!--class AnalysisClass--><rect fill="#008000" filter="url(#fn4oovywr0g50)" height="48" id="AnalysisClass" style="stroke: #A80036; stroke-width: 1.5;" width="176" x="608" y="352"/><rect fill="#008000" height="32" style="stroke: #A80036; stroke-width: 1.5;" width="176" x="608" y="352"/><ellipse cx="623" cy="368" fill="#ADD1B2" rx="11" ry="11" style="stroke: #A80036; stroke-width: 1.0;"/><path d="M625.7656,363.875 Q625.9219,363.6563 626.1094,363.5469 Q626.2969,363.4375 626.5156,363.4375 Q626.8906,363.4375 627.125,363.6953 Q627.3594,363.9531 627.3594,364.5625 L627.3594,366.0156 Q627.3594,366.625 627.125,366.8906 Q626.8906,367.1563 626.5156,367.1563 Q626.1719,367.1563 625.9688,366.9531 Q625.7656,366.7656 625.6563,366.25 Q625.6094,365.8906 625.4219,365.7031 Q625.0938,365.3281 624.4844,365.1094 Q623.875,364.8906 623.25,364.8906 Q622.4844,364.8906 621.8516,365.2188 Q621.2188,365.5469 620.7266,366.2969 Q620.2344,367.0469 620.2344,368.0781 L620.2344,369.1719 Q620.2344,370.4063 621.125,371.2266 Q622.0156,372.0469 623.6094,372.0469 Q624.5469,372.0469 625.2031,371.7969 Q625.5938,371.6406 626.0156,371.2031 Q626.2813,370.9375 626.4297,370.8594 Q626.5781,370.7813 626.7813,370.7813 Q627.1094,370.7813 627.3672,371.0391 Q627.625,371.2969 627.625,371.6406 Q627.625,371.9844 627.2813,372.3906 Q626.7813,372.9688 625.9844,373.2969 Q624.9063,373.75 623.6094,373.75 Q622.0938,373.75 620.8906,373.125 Q619.9063,372.625 619.2188,371.5547 Q618.5313,370.4844 618.5313,369.2031 L618.5313,368.0469 Q618.5313,366.7188 619.1484,365.5703 Q619.7656,364.4219 620.8594,363.8047 Q621.9531,363.1875 623.1875,363.1875 Q623.9219,363.1875 624.5703,363.3516 Q625.2188,363.5156 625.7656,363.875 Z "/><text fill="#000000" font-family="sans-serif" font-size="12" lengthAdjust="spacingAndGlyphs" textLength="144" x="637" y="372.9102">Analysis Class (complete)</text><line style="stroke: #A80036; stroke-width: 1.5;" x1="609" x2="783" y1="384" y2="384"/><line style="stroke: #A80036; stroke-width: 1.5;" x1="609" x2="783" y1="392" y2="392"/><!--class DesignClassY--><rect fill="#008000" filter="url(#fn4oovywr0g50)" height="48" id="DesignClassY" style="stroke: #A80036; stroke-width: 1.5;" width="167" x="819.5" y="352"/><rect fill="#008000" height="32" style="stroke: #A80036; stroke-width: 1.5;" width="167" x="819.5" y="352"/><ellipse cx="834.5" cy="368" fill="#ADD1B2" rx="11" ry="11" style="stroke: #A80036; stroke-width: 1.0;"/><path d="M837.2656,363.875 Q837.4219,363.6563 837.6094,363.5469 Q837.7969,363.4375 838.0156,363.4375 Q838.3906,363.4375 838.625,363.6953 Q838.8594,363.9531 838.8594,364.5625 L838.8594,366.0156 Q838.8594,366.625 838.625,366.8906 Q838.3906,367.1563 838.0156,367.1563 Q837.6719,367.1563 837.4688,366.9531 Q837.2656,366.7656 837.1563,366.25 Q837.1094,365.8906 836.9219,365.7031 Q836.5938,365.3281 835.9844,365.1094 Q835.375,364.8906 834.75,364.8906 Q833.9844,364.8906 833.3516,365.2188 Q832.7188,365.5469 832.2266,366.2969 Q831.7344,367.0469 831.7344,368.0781 L831.7344,369.1719 Q831.7344,370.4063 832.625,371.2266 Q833.5156,372.0469 835.1094,372.0469 Q836.0469,372.0469 836.7031,371.7969 Q837.0938,371.6406 837.5156,371.2031 Q837.7813,370.9375 837.9297,370.8594 Q838.0781,370.7813 838.2813,370.7813 Q838.6094,370.7813 838.8672,371.0391 Q839.125,371.2969 839.125,371.6406 Q839.125,371.9844 838.7813,372.3906 Q838.2813,372.9688 837.4844,373.2969 Q836.4063,373.75 835.1094,373.75 Q833.5938,373.75 832.3906,373.125 Q831.4063,372.625 830.7188,371.5547 Q830.0313,370.4844 830.0313,369.2031 L830.0313,368.0469 Q830.0313,366.7188 830.6484,365.5703 Q831.2656,364.4219 832.3594,363.8047 Q833.4531,363.1875 834.6875,363.1875 Q835.4219,363.1875 836.0703,363.3516 Q836.7188,363.5156 837.2656,363.875 Z "/><text fill="#000000" font-family="sans-serif" font-size="12" lengthAdjust="spacingAndGlyphs" textLength="135" x="848.5" y="372.9102">Design class (complete)</text><line style="stroke: #A80036; stroke-width: 1.5;" x1="820.5" x2="985.5" y1="384" y2="384"/><line style="stroke: #A80036; stroke-width: 1.5;" x1="820.5" x2="985.5" y1="392" y2="392"/><!--class DesignRole--><rect fill="#0000FF" filter="url(#fn4oovywr0g50)" height="48" id="DesignRole" style="stroke: #A80036; stroke-width: 1.5;" width="98" x="861" y="226"/><rect fill="#0000FF" height="32" style="stroke: #A80036; stroke-width: 1.5;" width="98" x="861" y="226"/><ellipse cx="876" cy="242" fill="#ADD1B2" rx="11" ry="11" style="stroke: #A80036; stroke-width: 1.0;"/><path d="M878.7656,237.875 Q878.9219,237.6563 879.1094,237.5469 Q879.2969,237.4375 879.5156,237.4375 Q879.8906,237.4375 880.125,237.6953 Q880.3594,237.9531 880.3594,238.5625 L880.3594,240.0156 Q880.3594,240.625 880.125,240.8906 Q879.8906,241.1563 879.5156,241.1563 Q879.1719,241.1563 878.9688,240.9531 Q878.7656,240.7656 878.6563,240.25 Q878.6094,239.8906 878.4219,239.7031 Q878.0938,239.3281 877.4844,239.1094 Q876.875,238.8906 876.25,238.8906 Q875.4844,238.8906 874.8516,239.2188 Q874.2188,239.5469 873.7266,240.2969 Q873.2344,241.0469 873.2344,242.0781 L873.2344,243.1719 Q873.2344,244.4063 874.125,245.2266 Q875.0156,246.0469 876.6094,246.0469 Q877.5469,246.0469 878.2031,245.7969 Q878.5938,245.6406 879.0156,245.2031 Q879.2813,244.9375 879.4297,244.8594 Q879.5781,244.7813 879.7813,244.7813 Q880.1094,244.7813 880.3672,245.0391 Q880.625,245.2969 880.625,245.6406 Q880.625,245.9844 880.2813,246.3906 Q879.7813,246.9688 878.9844,247.2969 Q877.9063,247.75 876.6094,247.75 Q875.0938,247.75 873.8906,247.125 Q872.9063,246.625 872.2188,245.5547 Q871.5313,244.4844 871.5313,243.2031 L871.5313,242.0469 Q871.5313,240.7188 872.1484,239.5703 Q872.7656,238.4219 873.8594,237.8047 Q874.9531,237.1875 876.1875,237.1875 Q876.9219,237.1875 877.5703,237.3516 Q878.2188,237.5156 878.7656,237.875 Z "/><text fill="#000000" font-family="sans-serif" font-size="12" lengthAdjust="spacingAndGlyphs" textLength="66" x="890" y="246.9102">DesignRole</text><line style="stroke: #A80036; stroke-width: 1.5;" x1="862" x2="958" y1="258" y2="258"/><line style="stroke: #A80036; stroke-width: 1.5;" x1="862" x2="958" y1="266" y2="266"/><!--class DesignClass--><rect fill="#FF0000" filter="url(#fn4oovywr0g50)" height="48" id="DesignClass" style="stroke: #A80036; stroke-width: 1.5;" width="108" x="642" y="226"/><rect fill="#FF0000" height="32" style="stroke: #A80036; stroke-width: 1.5;" width="108" x="642" y="226"/><ellipse cx="657" cy="242" fill="#ADD1B2" rx="11" ry="11" style="stroke: #A80036; stroke-width: 1.0;"/><path d="M659.7656,237.875 Q659.9219,237.6563 660.1094,237.5469 Q660.2969,237.4375 660.5156,237.4375 Q660.8906,237.4375 661.125,237.6953 Q661.3594,237.9531 661.3594,238.5625 L661.3594,240.0156 Q661.3594,240.625 661.125,240.8906 Q660.8906,241.1563 660.5156,241.1563 Q660.1719,241.1563 659.9688,240.9531 Q659.7656,240.7656 659.6563,240.25 Q659.6094,239.8906 659.4219,239.7031 Q659.0938,239.3281 658.4844,239.1094 Q657.875,238.8906 657.25,238.8906 Q656.4844,238.8906 655.8516,239.2188 Q655.2188,239.5469 654.7266,240.2969 Q654.2344,241.0469 654.2344,242.0781 L654.2344,243.1719 Q654.2344,244.4063 655.125,245.2266 Q656.0156,246.0469 657.6094,246.0469 Q658.5469,246.0469 659.2031,245.7969 Q659.5938,245.6406 660.0156,245.2031 Q660.2813,244.9375 660.4297,244.8594 Q660.5781,244.7813 660.7813,244.7813 Q661.1094,244.7813 661.3672,245.0391 Q661.625,245.2969 661.625,245.6406 Q661.625,245.9844 661.2813,246.3906 Q660.7813,246.9688 659.9844,247.2969 Q658.9063,247.75 657.6094,247.75 Q656.0938,247.75 654.8906,247.125 Q653.9063,246.625 653.2188,245.5547 Q652.5313,244.4844 652.5313,243.2031 L652.5313,242.0469 Q652.5313,240.7188 653.1484,239.5703 Q653.7656,238.4219 654.8594,237.8047 Q655.9531,237.1875 657.1875,237.1875 Q657.9219,237.1875 658.5703,237.3516 Q659.2188,237.5156 659.7656,237.875 Z "/><text fill="#000000" font-family="sans-serif" font-size="12" lengthAdjust="spacingAndGlyphs" textLength="76" x="671" y="246.9102">Design Class</text><line style="stroke: #A80036; stroke-width: 1.5;" x1="643" x2="749" y1="258" y2="258"/><line style="stroke: #A80036; stroke-width: 1.5;" x1="643" x2="749" y1="266" y2="266"/><!--class EngineerComponents--><rect fill="#0000FF" filter="url(#fn4oovywr0g50)" height="48" id="EngineerComponents" style="stroke: #A80036; stroke-width: 1.5;" width="170" x="1022" y="352"/><rect fill="#0000FF" height="32" style="stroke: #A80036; stroke-width: 1.5;" width="170" x="1022" y="352"/><ellipse cx="1037" cy="368" fill="#ADD1B2" rx="11" ry="11" style="stroke: #A80036; stroke-width: 1.0;"/><path d="M1039.7656,363.875 Q1039.9219,363.6563 1040.1094,363.5469 Q1040.2969,363.4375 1040.5156,363.4375 Q1040.8906,363.4375 1041.125,363.6953 Q1041.3594,363.9531 1041.3594,364.5625 L1041.3594,366.0156 Q1041.3594,366.625 1041.125,366.8906 Q1040.8906,367.1563 1040.5156,367.1563 Q1040.1719,367.1563 1039.9688,366.9531 Q1039.7656,366.7656 1039.6563,366.25 Q1039.6094,365.8906 1039.4219,365.7031 Q1039.0938,365.3281 1038.4844,365.1094 Q1037.875,364.8906 1037.25,364.8906 Q1036.4844,364.8906 1035.8516,365.2188 Q1035.2188,365.5469 1034.7266,366.2969 Q1034.2344,367.0469 1034.2344,368.0781 L1034.2344,369.1719 Q1034.2344,370.4063 1035.125,371.2266 Q1036.0156,372.0469 1037.6094,372.0469 Q1038.5469,372.0469 1039.2031,371.7969 Q1039.5938,371.6406 1040.0156,371.2031 Q1040.2813,370.9375 1040.4297,370.8594 Q1040.5781,370.7813 1040.7813,370.7813 Q1041.1094,370.7813 1041.3672,371.0391 Q1041.625,371.2969 1041.625,371.6406 Q1041.625,371.9844 1041.2813,372.3906 Q1040.7813,372.9688 1039.9844,373.2969 Q1038.9063,373.75 1037.6094,373.75 Q1036.0938,373.75 1034.8906,373.125 Q1033.9063,372.625 1033.2188,371.5547 Q1032.5313,370.4844 1032.5313,369.2031 L1032.5313,368.0469 Q1032.5313,366.7188 1033.1484,365.5703 Q1033.7656,364.4219 1034.8594,363.8047 Q1035.9531,363.1875 1037.1875,363.1875 Q1037.9219,363.1875 1038.5703,363.3516 Q1039.2188,363.5156 1039.7656,363.875 Z "/><text fill="#000000" font-family="sans-serif" font-size="12" lengthAdjust="spacingAndGlyphs" textLength="138" x="1051" y="372.9102">Engineer of Components</text><line style="stroke: #A80036; stroke-width: 1.5;" x1="1023" x2="1191" y1="384" y2="384"/><line style="stroke: #A80036; stroke-width: 1.5;" x1="1023" x2="1191" y1="392" y2="392"/><!--link Activity to DesignActivity--><path d="M827.707,74.127 C819.86,88.602 811.321,104.357 804.561,116.828 " fill="none" id="Activity-DesignActivity" style="stroke: #A80036; stroke-width: 1.0;"/><polygon fill="none" points="821.73,70.465,837.415,56.217,834.038,77.136,821.73,70.465" style="stroke: #A80036; stroke-width: 1.0;"/><!--link Activity to Role--><path d="M863.019,56.217 C872.218,72.623 884.594,94.692 894.334,112.062 " fill="none" id="Activity-Role" style="stroke: #A80036; stroke-width: 1.0;"/><polygon fill="#A80036" points="897.006,116.828,896.0929,107.0216,894.5605,112.4669,889.1151,110.9344,897.006,116.828" style="stroke: #A80036; stroke-width: 1.0;"/><!--link DesignActivity to DesignRole--><path d="M817.604,165.217 C836.16,182.043 861.286,204.827 880.653,222.389 " fill="none" id="DesignActivity-DesignRole" style="stroke: #A80036; stroke-width: 1.0;"/><polygon fill="#A80036" points="884.446,225.828,880.4653,216.8195,880.7418,222.4695,875.0918,222.7461,884.446,225.828" style="stroke: #A80036; stroke-width: 1.0;"/><!--link DesignActivity to DesignClass--><path d="M757.711,180.218 C744.033,195.463 728.733,212.516 716.79,225.828 " fill="none" id="DesignActivity-DesignClass" style="stroke: #A80036; stroke-width: 1.0;"/><polygon fill="none" points="752.603,175.429,771.169,165.217,763.024,184.779,752.603,175.429" style="stroke: #A80036; stroke-width: 1.0;"/><!--link DesignClass to RealizationUseCasesDesign--><path d="M641.769,262.554 C547.624,282.613 352.081,324.2749 227.258,350.8694 " fill="none" id="DesignClass-RealizationUseCasesDesign" style="stroke: #A80036; stroke-width: 1.0;"/><polygon fill="#A80036" points="222.109,351.9665,231.7453,354.0014,226.999,350.9237,230.0768,346.1774,222.109,351.9665" style="stroke: #A80036; stroke-width: 1.0;"/><text fill="#000000" font-family="sans-serif" font-size="13" lengthAdjust="spacingAndGlyphs" textLength="10" x="441" y="318.4951">in</text><!--link DesignClass to DesignClassX--><path d="M641.805,269.564 C579.109,291.04 475.62,326.4894 406.155,350.2838 " fill="none" id="DesignClass-DesignClassX" style="stroke: #A80036; stroke-width: 1.0;"/><polygon fill="#A80036" points="401.214,351.9765,411.0245,352.8446,405.9443,350.3565,408.4325,345.2762,401.214,351.9765" style="stroke: #A80036; stroke-width: 1.0;"/><text fill="#000000" font-family="sans-serif" font-size="13" lengthAdjust="spacingAndGlyphs" textLength="10" x="538" y="318.4951">in</text><!--link DesignClass to Interface--><path d="M661.265,274.033 C629.221,295.281 581.691,326.7982 548.278,348.9545 " fill="none" id="DesignClass-Interface" style="stroke: #A80036; stroke-width: 1.0;"/><polygon fill="#A80036" points="543.866,351.8804,553.5774,350.2409,548.0333,349.1175,549.1567,343.5733,543.866,351.8804" style="stroke: #A80036; stroke-width: 1.0;"/><text fill="#000000" font-family="sans-serif" font-size="13" lengthAdjust="spacingAndGlyphs" textLength="10" x="615" y="318.4951">in</text><!--link DesignClass to AnalysisClass--><path d="M696,274.033 C696,294.522 696,324.5607 696,346.5464 " fill="none" id="DesignClass-AnalysisClass" style="stroke: #A80036; stroke-width: 1.0;"/><polygon fill="#A80036" points="696,351.6697,700,342.6697,696,346.6697,692,342.6697,696,351.6697" style="stroke: #A80036; stroke-width: 1.0;"/><text fill="#000000" font-family="sans-serif" font-size="13" lengthAdjust="spacingAndGlyphs" textLength="10" x="697" y="318.4951">in</text><!--link DesignClass to DesignClassY--><path d="M734.45,274.033 C770.066,295.368 822.964,327.0557 859.973,349.2253 " fill="none" id="DesignClass-DesignClassY" style="stroke: #A80036; stroke-width: 1.0;"/><polygon fill="#A80036" points="864.405,351.8804,858.7386,343.8248,860.1153,349.3116,854.6286,350.6883,864.405,351.8804" style="stroke: #A80036; stroke-width: 1.0;"/><text fill="#000000" font-family="sans-serif" font-size="13" lengthAdjust="spacingAndGlyphs" textLength="18" x="813" y="318.4951">out</text><!--link DesignClass to EngineerComponents--><path d="M750.154,267.338 C820.574,288.584 944.202,325.8833 1025.85,350.5178 " fill="none" id="DesignClass-EngineerComponents" style="stroke: #A80036; stroke-width: 1.0;"/><polygon fill="#A80036" points="1030.68,351.9747,1023.2173,345.5475,1025.8927,350.5317,1020.9086,353.2071,1030.68,351.9747" style="stroke: #A80036; stroke-width: 1.0;"/><!--link Role to DesignRole--><path d="M910,185.578 C910,199.362 910,214.057 910,225.828 " fill="none" id="Role-DesignRole" style="stroke: #A80036; stroke-width: 1.0;"/><polygon fill="none" points="903,185.217,910,165.217,917,185.217,903,185.217" style="stroke: #A80036; stroke-width: 1.0;"/><!--link DesignRole to EngineerComponents--><path d="M977.731,275.463 C996.018,283.374 1015.34,292.992 1032,304 C1052.34,317.4432 1072.24,336.6411 1086.42,351.6853 " fill="none" id="DesignRole-EngineerComponents" style="stroke: #A80036; stroke-width: 1.0;"/><polygon fill="none" points="975.042,281.926,959.204,267.849,980.363,268.977,975.042,281.926" style="stroke: #A80036; stroke-width: 1.0;"/><!--
@startuml

class Activity #red
Activity <|- - DesignActivity
Activity - -> Role

class "Realization of Use Cases-Design" as RealizationUseCasesDesign #green
class "Design class (outline)" as DesignClassX #green
class "Interface (outline)" as Interface #green
class "Analysis Class (complete)" as AnalysisClass #green
class "Design class (complete)" as DesignClassY #green

class DesignActivity #red
DesignActivity - -> DesignRole

class "Design Class" as DesignClass #red
DesignActivity <|- - DesignClass

DesignClass - -> RealizationUseCasesDesign :in
DesignClass - -> DesignClassX :in
DesignClass - -> Interface :in
DesignClass - -> AnalysisClass :in
DesignClass - -> DesignClassY :out


class Role #blue
class DesignRole #blue
class "Engineer of Components" as EngineerComponents #blue

DesignClass - -> EngineerComponents

Role <|- - DesignRole
DesignRole <|- - EngineerComponents
@enduml

PlantUML version 1.2019.05(Sat Apr 20 18:45:36 CEST 2019)
(GPL source distribution)
Java Runtime: OpenJDK Runtime Environment
JVM: OpenJDK 64-Bit Server VM
Java Version: 1.8.0_222-b10
Operating System: Windows 10
OS Version: 10.0
Default Encoding: windows-1252
Language: es
Country: ES
--></g></svg>