<?xml version="1.0" encoding="UTF-8" standalone="no"?><svg xmlns="http://www.w3.org/2000/svg" xmlns:xlink="http://www.w3.org/1999/xlink" contentScriptType="application/ecmascript" contentStyleType="text/css" height="411px" preserveAspectRatio="none" style="width:902px;height:411px;" version="1.1" viewBox="0 0 902 411" width="902px" zoomAndPan="magnify"><defs><filter height="300%" id="fz7dhst3l86lu" width="300%" x="-1" y="-1"><feGaussianBlur result="blurOut" stdDeviation="2.0"/><feColorMatrix in="blurOut" result="blurOut2" type="matrix" values="0 0 0 0 0 0 0 0 0 0 0 0 0 0 0 0 0 0 .4 0"/><feOffset dx="4.0" dy="4.0" in="blurOut2" result="blurOut3"/><feBlend in="SourceGraphic" in2="blurOut3" mode="normal"/></filter></defs><g><!--class Activity--><rect fill="#FF0000" filter="url(#fz7dhst3l86lu)" height="48" id="Activity" style="stroke: #A80036; stroke-width: 1.5;" width="67" x="632.5" y="8"/><rect fill="#FF0000" height="32" style="stroke: #A80036; stroke-width: 1.5;" width="67" x="632.5" y="8"/><ellipse cx="647.5" cy="24" fill="#ADD1B2" rx="11" ry="11" style="stroke: #A80036; stroke-width: 1.0;"/><path d="M650.2656,19.875 Q650.4219,19.6563 650.6094,19.5469 Q650.7969,19.4375 651.0156,19.4375 Q651.3906,19.4375 651.625,19.6953 Q651.8594,19.9531 651.8594,20.5625 L651.8594,22.0156 Q651.8594,22.625 651.625,22.8906 Q651.3906,23.1563 651.0156,23.1563 Q650.6719,23.1563 650.4688,22.9531 Q650.2656,22.7656 650.1563,22.25 Q650.1094,21.8906 649.9219,21.7031 Q649.5938,21.3281 648.9844,21.1094 Q648.375,20.8906 647.75,20.8906 Q646.9844,20.8906 646.3516,21.2188 Q645.7188,21.5469 645.2266,22.2969 Q644.7344,23.0469 644.7344,24.0781 L644.7344,25.1719 Q644.7344,26.4063 645.625,27.2266 Q646.5156,28.0469 648.1094,28.0469 Q649.0469,28.0469 649.7031,27.7969 Q650.0938,27.6406 650.5156,27.2031 Q650.7813,26.9375 650.9297,26.8594 Q651.0781,26.7813 651.2813,26.7813 Q651.6094,26.7813 651.8672,27.0391 Q652.125,27.2969 652.125,27.6406 Q652.125,27.9844 651.7813,28.3906 Q651.2813,28.9688 650.4844,29.2969 Q649.4063,29.75 648.1094,29.75 Q646.5938,29.75 645.3906,29.125 Q644.4063,28.625 643.7188,27.5547 Q643.0313,26.4844 643.0313,25.2031 L643.0313,24.0469 Q643.0313,22.7188 643.6484,21.5703 Q644.2656,20.4219 645.3594,19.8047 Q646.4531,19.1875 647.6875,19.1875 Q648.4219,19.1875 649.0703,19.3516 Q649.7188,19.5156 650.2656,19.875 Z "/><text fill="#000000" font-family="sans-serif" font-size="12" lengthAdjust="spacingAndGlyphs" textLength="35" x="661.5" y="28.9102">Activity</text><line style="stroke: #A80036; stroke-width: 1.5;" x1="633.5" x2="698.5" y1="40" y2="40"/><line style="stroke: #A80036; stroke-width: 1.5;" x1="633.5" x2="698.5" y1="48" y2="48"/><!--class RequirementsActivity--><rect fill="#FF0000" filter="url(#fz7dhst3l86lu)" height="48" id="RequirementsActivity" style="stroke: #A80036; stroke-width: 1.5;" width="146" x="525" y="117"/><rect fill="#FF0000" height="32" style="stroke: #A80036; stroke-width: 1.5;" width="146" x="525" y="117"/><ellipse cx="540" cy="133" fill="#ADD1B2" rx="11" ry="11" style="stroke: #A80036; stroke-width: 1.0;"/><path d="M542.7656,128.875 Q542.9219,128.6563 543.1094,128.5469 Q543.2969,128.4375 543.5156,128.4375 Q543.8906,128.4375 544.125,128.6953 Q544.3594,128.9531 544.3594,129.5625 L544.3594,131.0156 Q544.3594,131.625 544.125,131.8906 Q543.8906,132.1563 543.5156,132.1563 Q543.1719,132.1563 542.9688,131.9531 Q542.7656,131.7656 542.6563,131.25 Q542.6094,130.8906 542.4219,130.7031 Q542.0938,130.3281 541.4844,130.1094 Q540.875,129.8906 540.25,129.8906 Q539.4844,129.8906 538.8516,130.2188 Q538.2188,130.5469 537.7266,131.2969 Q537.2344,132.0469 537.2344,133.0781 L537.2344,134.1719 Q537.2344,135.4063 538.125,136.2266 Q539.0156,137.0469 540.6094,137.0469 Q541.5469,137.0469 542.2031,136.7969 Q542.5938,136.6406 543.0156,136.2031 Q543.2813,135.9375 543.4297,135.8594 Q543.5781,135.7813 543.7813,135.7813 Q544.1094,135.7813 544.3672,136.0391 Q544.625,136.2969 544.625,136.6406 Q544.625,136.9844 544.2813,137.3906 Q543.7813,137.9688 542.9844,138.2969 Q541.9063,138.75 540.6094,138.75 Q539.0938,138.75 537.8906,138.125 Q536.9063,137.625 536.2188,136.5547 Q535.5313,135.4844 535.5313,134.2031 L535.5313,133.0469 Q535.5313,131.7188 536.1484,130.5703 Q536.7656,129.4219 537.8594,128.8047 Q538.9531,128.1875 540.1875,128.1875 Q540.9219,128.1875 541.5703,128.3516 Q542.2188,128.5156 542.7656,128.875 Z "/><text fill="#000000" font-family="sans-serif" font-size="12" lengthAdjust="spacingAndGlyphs" textLength="114" x="554" y="137.9102">RequirementsActivity</text><line style="stroke: #A80036; stroke-width: 1.5;" x1="526" x2="670" y1="149" y2="149"/><line style="stroke: #A80036; stroke-width: 1.5;" x1="526" x2="670" y1="157" y2="157"/><!--class Role--><rect fill="#0000FF" filter="url(#fz7dhst3l86lu)" height="48" id="Role" style="stroke: #A80036; stroke-width: 1.5;" width="58" x="706" y="117"/><rect fill="#0000FF" height="32" style="stroke: #A80036; stroke-width: 1.5;" width="58" x="706" y="117"/><ellipse cx="721" cy="133" fill="#ADD1B2" rx="11" ry="11" style="stroke: #A80036; stroke-width: 1.0;"/><path d="M723.7656,128.875 Q723.9219,128.6563 724.1094,128.5469 Q724.2969,128.4375 724.5156,128.4375 Q724.8906,128.4375 725.125,128.6953 Q725.3594,128.9531 725.3594,129.5625 L725.3594,131.0156 Q725.3594,131.625 725.125,131.8906 Q724.8906,132.1563 724.5156,132.1563 Q724.1719,132.1563 723.9688,131.9531 Q723.7656,131.7656 723.6563,131.25 Q723.6094,130.8906 723.4219,130.7031 Q723.0938,130.3281 722.4844,130.1094 Q721.875,129.8906 721.25,129.8906 Q720.4844,129.8906 719.8516,130.2188 Q719.2188,130.5469 718.7266,131.2969 Q718.2344,132.0469 718.2344,133.0781 L718.2344,134.1719 Q718.2344,135.4063 719.125,136.2266 Q720.0156,137.0469 721.6094,137.0469 Q722.5469,137.0469 723.2031,136.7969 Q723.5938,136.6406 724.0156,136.2031 Q724.2813,135.9375 724.4297,135.8594 Q724.5781,135.7813 724.7813,135.7813 Q725.1094,135.7813 725.3672,136.0391 Q725.625,136.2969 725.625,136.6406 Q725.625,136.9844 725.2813,137.3906 Q724.7813,137.9688 723.9844,138.2969 Q722.9063,138.75 721.6094,138.75 Q720.0938,138.75 718.8906,138.125 Q717.9063,137.625 717.2188,136.5547 Q716.5313,135.4844 716.5313,134.2031 L716.5313,133.0469 Q716.5313,131.7188 717.1484,130.5703 Q717.7656,129.4219 718.8594,128.8047 Q719.9531,128.1875 721.1875,128.1875 Q721.9219,128.1875 722.5703,128.3516 Q723.2188,128.5156 723.7656,128.875 Z "/><text fill="#000000" font-family="sans-serif" font-size="12" lengthAdjust="spacingAndGlyphs" textLength="26" x="735" y="137.9102">Role</text><line style="stroke: #A80036; stroke-width: 1.5;" x1="707" x2="763" y1="149" y2="149"/><line style="stroke: #A80036; stroke-width: 1.5;" x1="707" x2="763" y1="157" y2="157"/><!--class UseCaseModel--><rect fill="#008000" filter="url(#fz7dhst3l86lu)" height="48" id="UseCaseModel" style="stroke: #A80036; stroke-width: 1.5;" width="172" x="6" y="352"/><rect fill="#008000" height="32" style="stroke: #A80036; stroke-width: 1.5;" width="172" x="6" y="352"/><ellipse cx="21" cy="368" fill="#ADD1B2" rx="11" ry="11" style="stroke: #A80036; stroke-width: 1.0;"/><path d="M23.7656,363.875 Q23.9219,363.6563 24.1094,363.5469 Q24.2969,363.4375 24.5156,363.4375 Q24.8906,363.4375 25.125,363.6953 Q25.3594,363.9531 25.3594,364.5625 L25.3594,366.0156 Q25.3594,366.625 25.125,366.8906 Q24.8906,367.1563 24.5156,367.1563 Q24.1719,367.1563 23.9688,366.9531 Q23.7656,366.7656 23.6563,366.25 Q23.6094,365.8906 23.4219,365.7031 Q23.0938,365.3281 22.4844,365.1094 Q21.875,364.8906 21.25,364.8906 Q20.4844,364.8906 19.8516,365.2188 Q19.2188,365.5469 18.7266,366.2969 Q18.2344,367.0469 18.2344,368.0781 L18.2344,369.1719 Q18.2344,370.4063 19.125,371.2266 Q20.0156,372.0469 21.6094,372.0469 Q22.5469,372.0469 23.2031,371.7969 Q23.5938,371.6406 24.0156,371.2031 Q24.2813,370.9375 24.4297,370.8594 Q24.5781,370.7813 24.7813,370.7813 Q25.1094,370.7813 25.3672,371.0391 Q25.625,371.2969 25.625,371.6406 Q25.625,371.9844 25.2813,372.3906 Q24.7813,372.9688 23.9844,373.2969 Q22.9063,373.75 21.6094,373.75 Q20.0938,373.75 18.8906,373.125 Q17.9063,372.625 17.2188,371.5547 Q16.5313,370.4844 16.5313,369.2031 L16.5313,368.0469 Q16.5313,366.7188 17.1484,365.5703 Q17.7656,364.4219 18.8594,363.8047 Q19.9531,363.1875 21.1875,363.1875 Q21.9219,363.1875 22.5703,363.3516 Q23.2188,363.5156 23.7656,363.875 Z "/><text fill="#000000" font-family="sans-serif" font-size="12" lengthAdjust="spacingAndGlyphs" textLength="140" x="35" y="372.9102">Use Case Model (outline)</text><line style="stroke: #A80036; stroke-width: 1.5;" x1="7" x2="177" y1="384" y2="384"/><line style="stroke: #A80036; stroke-width: 1.5;" x1="7" x2="177" y1="392" y2="392"/><!--class SupplementaryRequirements--><rect fill="#008000" filter="url(#fz7dhst3l86lu)" height="48" id="SupplementaryRequirements" style="stroke: #A80036; stroke-width: 1.5;" width="197" x="213.5" y="352"/><rect fill="#008000" height="32" style="stroke: #A80036; stroke-width: 1.5;" width="197" x="213.5" y="352"/><ellipse cx="228.5" cy="368" fill="#ADD1B2" rx="11" ry="11" style="stroke: #A80036; stroke-width: 1.0;"/><path d="M231.2656,363.875 Q231.4219,363.6563 231.6094,363.5469 Q231.7969,363.4375 232.0156,363.4375 Q232.3906,363.4375 232.625,363.6953 Q232.8594,363.9531 232.8594,364.5625 L232.8594,366.0156 Q232.8594,366.625 232.625,366.8906 Q232.3906,367.1563 232.0156,367.1563 Q231.6719,367.1563 231.4688,366.9531 Q231.2656,366.7656 231.1563,366.25 Q231.1094,365.8906 230.9219,365.7031 Q230.5938,365.3281 229.9844,365.1094 Q229.375,364.8906 228.75,364.8906 Q227.9844,364.8906 227.3516,365.2188 Q226.7188,365.5469 226.2266,366.2969 Q225.7344,367.0469 225.7344,368.0781 L225.7344,369.1719 Q225.7344,370.4063 226.625,371.2266 Q227.5156,372.0469 229.1094,372.0469 Q230.0469,372.0469 230.7031,371.7969 Q231.0938,371.6406 231.5156,371.2031 Q231.7813,370.9375 231.9297,370.8594 Q232.0781,370.7813 232.2813,370.7813 Q232.6094,370.7813 232.8672,371.0391 Q233.125,371.2969 233.125,371.6406 Q233.125,371.9844 232.7813,372.3906 Q232.2813,372.9688 231.4844,373.2969 Q230.4063,373.75 229.1094,373.75 Q227.5938,373.75 226.3906,373.125 Q225.4063,372.625 224.7188,371.5547 Q224.0313,370.4844 224.0313,369.2031 L224.0313,368.0469 Q224.0313,366.7188 224.6484,365.5703 Q225.2656,364.4219 226.3594,363.8047 Q227.4531,363.1875 228.6875,363.1875 Q229.4219,363.1875 230.0703,363.3516 Q230.7188,363.5156 231.2656,363.875 Z "/><text fill="#000000" font-family="sans-serif" font-size="12" lengthAdjust="spacingAndGlyphs" textLength="165" x="242.5" y="372.9102">Supplementary Requirements</text><line style="stroke: #A80036; stroke-width: 1.5;" x1="214.5" x2="409.5" y1="384" y2="384"/><line style="stroke: #A80036; stroke-width: 1.5;" x1="214.5" x2="409.5" y1="392" y2="392"/><!--class Glossary--><rect fill="#008000" filter="url(#fz7dhst3l86lu)" height="48" id="Glossary" style="stroke: #A80036; stroke-width: 1.5;" width="81" x="445.5" y="352"/><rect fill="#008000" height="32" style="stroke: #A80036; stroke-width: 1.5;" width="81" x="445.5" y="352"/><ellipse cx="460.5" cy="368" fill="#ADD1B2" rx="11" ry="11" style="stroke: #A80036; stroke-width: 1.0;"/><path d="M463.2656,363.875 Q463.4219,363.6563 463.6094,363.5469 Q463.7969,363.4375 464.0156,363.4375 Q464.3906,363.4375 464.625,363.6953 Q464.8594,363.9531 464.8594,364.5625 L464.8594,366.0156 Q464.8594,366.625 464.625,366.8906 Q464.3906,367.1563 464.0156,367.1563 Q463.6719,367.1563 463.4688,366.9531 Q463.2656,366.7656 463.1563,366.25 Q463.1094,365.8906 462.9219,365.7031 Q462.5938,365.3281 461.9844,365.1094 Q461.375,364.8906 460.75,364.8906 Q459.9844,364.8906 459.3516,365.2188 Q458.7188,365.5469 458.2266,366.2969 Q457.7344,367.0469 457.7344,368.0781 L457.7344,369.1719 Q457.7344,370.4063 458.625,371.2266 Q459.5156,372.0469 461.1094,372.0469 Q462.0469,372.0469 462.7031,371.7969 Q463.0938,371.6406 463.5156,371.2031 Q463.7813,370.9375 463.9297,370.8594 Q464.0781,370.7813 464.2813,370.7813 Q464.6094,370.7813 464.8672,371.0391 Q465.125,371.2969 465.125,371.6406 Q465.125,371.9844 464.7813,372.3906 Q464.2813,372.9688 463.4844,373.2969 Q462.4063,373.75 461.1094,373.75 Q459.5938,373.75 458.3906,373.125 Q457.4063,372.625 456.7188,371.5547 Q456.0313,370.4844 456.0313,369.2031 L456.0313,368.0469 Q456.0313,366.7188 456.6484,365.5703 Q457.2656,364.4219 458.3594,363.8047 Q459.4531,363.1875 460.6875,363.1875 Q461.4219,363.1875 462.0703,363.3516 Q462.7188,363.5156 463.2656,363.875 Z "/><text fill="#000000" font-family="sans-serif" font-size="12" lengthAdjust="spacingAndGlyphs" textLength="49" x="474.5" y="372.9102">Glossary</text><line style="stroke: #A80036; stroke-width: 1.5;" x1="446.5" x2="525.5" y1="384" y2="384"/><line style="stroke: #A80036; stroke-width: 1.5;" x1="446.5" x2="525.5" y1="392" y2="392"/><!--class CaseUse--><rect fill="#008000" filter="url(#fz7dhst3l86lu)" height="48" id="CaseUse" style="stroke: #A80036; stroke-width: 1.5;" width="154" x="562" y="352"/><rect fill="#008000" height="32" style="stroke: #A80036; stroke-width: 1.5;" width="154" x="562" y="352"/><ellipse cx="577" cy="368" fill="#ADD1B2" rx="11" ry="11" style="stroke: #A80036; stroke-width: 1.0;"/><path d="M579.7656,363.875 Q579.9219,363.6563 580.1094,363.5469 Q580.2969,363.4375 580.5156,363.4375 Q580.8906,363.4375 581.125,363.6953 Q581.3594,363.9531 581.3594,364.5625 L581.3594,366.0156 Q581.3594,366.625 581.125,366.8906 Q580.8906,367.1563 580.5156,367.1563 Q580.1719,367.1563 579.9688,366.9531 Q579.7656,366.7656 579.6563,366.25 Q579.6094,365.8906 579.4219,365.7031 Q579.0938,365.3281 578.4844,365.1094 Q577.875,364.8906 577.25,364.8906 Q576.4844,364.8906 575.8516,365.2188 Q575.2188,365.5469 574.7266,366.2969 Q574.2344,367.0469 574.2344,368.0781 L574.2344,369.1719 Q574.2344,370.4063 575.125,371.2266 Q576.0156,372.0469 577.6094,372.0469 Q578.5469,372.0469 579.2031,371.7969 Q579.5938,371.6406 580.0156,371.2031 Q580.2813,370.9375 580.4297,370.8594 Q580.5781,370.7813 580.7813,370.7813 Q581.1094,370.7813 581.3672,371.0391 Q581.625,371.2969 581.625,371.6406 Q581.625,371.9844 581.2813,372.3906 Q580.7813,372.9688 579.9844,373.2969 Q578.9063,373.75 577.6094,373.75 Q576.0938,373.75 574.8906,373.125 Q573.9063,372.625 573.2188,371.5547 Q572.5313,370.4844 572.5313,369.2031 L572.5313,368.0469 Q572.5313,366.7188 573.1484,365.5703 Q573.7656,364.4219 574.8594,363.8047 Q575.9531,363.1875 577.1875,363.1875 Q577.9219,363.1875 578.5703,363.3516 Q579.2188,363.5156 579.7656,363.875 Z "/><text fill="#000000" font-family="sans-serif" font-size="12" lengthAdjust="spacingAndGlyphs" textLength="122" x="591" y="372.9102">Case of use (detailed)</text><line style="stroke: #A80036; stroke-width: 1.5;" x1="563" x2="715" y1="384" y2="384"/><line style="stroke: #A80036; stroke-width: 1.5;" x1="563" x2="715" y1="392" y2="392"/><!--class RequirementsRole--><rect fill="#0000FF" filter="url(#fz7dhst3l86lu)" height="48" id="RequirementsRole" style="stroke: #A80036; stroke-width: 1.5;" width="137" x="666.5" y="226"/><rect fill="#0000FF" height="32" style="stroke: #A80036; stroke-width: 1.5;" width="137" x="666.5" y="226"/><ellipse cx="681.5" cy="242" fill="#ADD1B2" rx="11" ry="11" style="stroke: #A80036; stroke-width: 1.0;"/><path d="M684.2656,237.875 Q684.4219,237.6563 684.6094,237.5469 Q684.7969,237.4375 685.0156,237.4375 Q685.3906,237.4375 685.625,237.6953 Q685.8594,237.9531 685.8594,238.5625 L685.8594,240.0156 Q685.8594,240.625 685.625,240.8906 Q685.3906,241.1563 685.0156,241.1563 Q684.6719,241.1563 684.4688,240.9531 Q684.2656,240.7656 684.1563,240.25 Q684.1094,239.8906 683.9219,239.7031 Q683.5938,239.3281 682.9844,239.1094 Q682.375,238.8906 681.75,238.8906 Q680.9844,238.8906 680.3516,239.2188 Q679.7188,239.5469 679.2266,240.2969 Q678.7344,241.0469 678.7344,242.0781 L678.7344,243.1719 Q678.7344,244.4063 679.625,245.2266 Q680.5156,246.0469 682.1094,246.0469 Q683.0469,246.0469 683.7031,245.7969 Q684.0938,245.6406 684.5156,245.2031 Q684.7813,244.9375 684.9297,244.8594 Q685.0781,244.7813 685.2813,244.7813 Q685.6094,244.7813 685.8672,245.0391 Q686.125,245.2969 686.125,245.6406 Q686.125,245.9844 685.7813,246.3906 Q685.2813,246.9688 684.4844,247.2969 Q683.4063,247.75 682.1094,247.75 Q680.5938,247.75 679.3906,247.125 Q678.4063,246.625 677.7188,245.5547 Q677.0313,244.4844 677.0313,243.2031 L677.0313,242.0469 Q677.0313,240.7188 677.6484,239.5703 Q678.2656,238.4219 679.3594,237.8047 Q680.4531,237.1875 681.6875,237.1875 Q682.4219,237.1875 683.0703,237.3516 Q683.7188,237.5156 684.2656,237.875 Z "/><text fill="#000000" font-family="sans-serif" font-size="12" lengthAdjust="spacingAndGlyphs" textLength="105" x="695.5" y="246.9102">RequirementsRole</text><line style="stroke: #A80036; stroke-width: 1.5;" x1="667.5" x2="802.5" y1="258" y2="258"/><line style="stroke: #A80036; stroke-width: 1.5;" x1="667.5" x2="802.5" y1="266" y2="266"/><!--class DetailUseCases--><rect fill="#FF0000" filter="url(#fz7dhst3l86lu)" height="48" id="DetailUseCases" style="stroke: #A80036; stroke-width: 1.5;" width="130" x="452" y="226"/><rect fill="#FF0000" height="32" style="stroke: #A80036; stroke-width: 1.5;" width="130" x="452" y="226"/><ellipse cx="467" cy="242" fill="#ADD1B2" rx="11" ry="11" style="stroke: #A80036; stroke-width: 1.0;"/><path d="M469.7656,237.875 Q469.9219,237.6563 470.1094,237.5469 Q470.2969,237.4375 470.5156,237.4375 Q470.8906,237.4375 471.125,237.6953 Q471.3594,237.9531 471.3594,238.5625 L471.3594,240.0156 Q471.3594,240.625 471.125,240.8906 Q470.8906,241.1563 470.5156,241.1563 Q470.1719,241.1563 469.9688,240.9531 Q469.7656,240.7656 469.6563,240.25 Q469.6094,239.8906 469.4219,239.7031 Q469.0938,239.3281 468.4844,239.1094 Q467.875,238.8906 467.25,238.8906 Q466.4844,238.8906 465.8516,239.2188 Q465.2188,239.5469 464.7266,240.2969 Q464.2344,241.0469 464.2344,242.0781 L464.2344,243.1719 Q464.2344,244.4063 465.125,245.2266 Q466.0156,246.0469 467.6094,246.0469 Q468.5469,246.0469 469.2031,245.7969 Q469.5938,245.6406 470.0156,245.2031 Q470.2813,244.9375 470.4297,244.8594 Q470.5781,244.7813 470.7813,244.7813 Q471.1094,244.7813 471.3672,245.0391 Q471.625,245.2969 471.625,245.6406 Q471.625,245.9844 471.2813,246.3906 Q470.7813,246.9688 469.9844,247.2969 Q468.9063,247.75 467.6094,247.75 Q466.0938,247.75 464.8906,247.125 Q463.9063,246.625 463.2188,245.5547 Q462.5313,244.4844 462.5313,243.2031 L462.5313,242.0469 Q462.5313,240.7188 463.1484,239.5703 Q463.7656,238.4219 464.8594,237.8047 Q465.9531,237.1875 467.1875,237.1875 Q467.9219,237.1875 468.5703,237.3516 Q469.2188,237.5156 469.7656,237.875 Z "/><text fill="#000000" font-family="sans-serif" font-size="12" lengthAdjust="spacingAndGlyphs" textLength="98" x="481" y="246.9102">Detail Use Cases</text><line style="stroke: #A80036; stroke-width: 1.5;" x1="453" x2="581" y1="258" y2="258"/><line style="stroke: #A80036; stroke-width: 1.5;" x1="453" x2="581" y1="266" y2="266"/><!--class SpecifierUseCases--><rect fill="#0000FF" filter="url(#fz7dhst3l86lu)" height="48" id="SpecifierUseCases" style="stroke: #A80036; stroke-width: 1.5;" width="140" x="751" y="352"/><rect fill="#0000FF" height="32" style="stroke: #A80036; stroke-width: 1.5;" width="140" x="751" y="352"/><ellipse cx="766" cy="368" fill="#ADD1B2" rx="11" ry="11" style="stroke: #A80036; stroke-width: 1.0;"/><path d="M768.7656,363.875 Q768.9219,363.6563 769.1094,363.5469 Q769.2969,363.4375 769.5156,363.4375 Q769.8906,363.4375 770.125,363.6953 Q770.3594,363.9531 770.3594,364.5625 L770.3594,366.0156 Q770.3594,366.625 770.125,366.8906 Q769.8906,367.1563 769.5156,367.1563 Q769.1719,367.1563 768.9688,366.9531 Q768.7656,366.7656 768.6563,366.25 Q768.6094,365.8906 768.4219,365.7031 Q768.0938,365.3281 767.4844,365.1094 Q766.875,364.8906 766.25,364.8906 Q765.4844,364.8906 764.8516,365.2188 Q764.2188,365.5469 763.7266,366.2969 Q763.2344,367.0469 763.2344,368.0781 L763.2344,369.1719 Q763.2344,370.4063 764.125,371.2266 Q765.0156,372.0469 766.6094,372.0469 Q767.5469,372.0469 768.2031,371.7969 Q768.5938,371.6406 769.0156,371.2031 Q769.2813,370.9375 769.4297,370.8594 Q769.5781,370.7813 769.7813,370.7813 Q770.1094,370.7813 770.3672,371.0391 Q770.625,371.2969 770.625,371.6406 Q770.625,371.9844 770.2813,372.3906 Q769.7813,372.9688 768.9844,373.2969 Q767.9063,373.75 766.6094,373.75 Q765.0938,373.75 763.8906,373.125 Q762.9063,372.625 762.2188,371.5547 Q761.5313,370.4844 761.5313,369.2031 L761.5313,368.0469 Q761.5313,366.7188 762.1484,365.5703 Q762.7656,364.4219 763.8594,363.8047 Q764.9531,363.1875 766.1875,363.1875 Q766.9219,363.1875 767.5703,363.3516 Q768.2188,363.5156 768.7656,363.875 Z "/><text fill="#000000" font-family="sans-serif" font-size="12" lengthAdjust="spacingAndGlyphs" textLength="108" x="780" y="372.9102">SpecifierUseCases</text><line style="stroke: #A80036; stroke-width: 1.5;" x1="752" x2="890" y1="384" y2="384"/><line style="stroke: #A80036; stroke-width: 1.5;" x1="752" x2="890" y1="392" y2="392"/><!--link Activity to RequirementsActivity--><path d="M640.482,73.153 C631.115,87.893 620.83,104.076 612.726,116.828 " fill="none" id="Activity-RequirementsActivity" style="stroke: #A80036; stroke-width: 1.0;"/><polygon fill="none" points="634.61,69.343,651.245,56.217,646.426,76.852,634.61,69.343" style="stroke: #A80036; stroke-width: 1.0;"/><!--link Activity to Role--><path d="M680.972,56.217 C691.641,72.763 706.026,95.07 717.27,112.506 " fill="none" id="Activity-Role" style="stroke: #A80036; stroke-width: 1.0;"/><polygon fill="#A80036" points="720.057,116.828,718.54,107.0967,717.3468,112.6262,711.8172,111.433,720.057,116.828" style="stroke: #A80036; stroke-width: 1.0;"/><!--link RequirementsActivity to RequirementsRole--><path d="M627.727,165.217 C649.36,182.113 678.686,205.017 701.208,222.608 " fill="none" id="RequirementsActivity-RequirementsRole" style="stroke: #A80036; stroke-width: 1.0;"/><polygon fill="#A80036" points="705.331,225.828,700.702,217.1348,701.3911,222.7495,695.7764,223.4386,705.331,225.828" style="stroke: #A80036; stroke-width: 1.0;"/><!--link RequirementsActivity to DetailUseCases--><path d="M568.338,181.183 C556.985,196.18 544.407,212.796 534.541,225.828 " fill="none" id="RequirementsActivity-DetailUseCases" style="stroke: #A80036; stroke-width: 1.0;"/><polygon fill="none" points="562.772,176.939,580.424,165.217,573.934,185.389,562.772,176.939" style="stroke: #A80036; stroke-width: 1.0;"/><!--link DetailUseCases to UseCaseModel--><path d="M451.989,269.968 C378.154,291.51 257.443,326.7295 176.397,350.376 " fill="none" id="DetailUseCases-UseCaseModel" style="stroke: #A80036; stroke-width: 1.0;"/><polygon fill="#A80036" points="171.117,351.9166,180.8774,353.2338,175.9166,350.5152,178.6352,345.5545,171.117,351.9166" style="stroke: #A80036; stroke-width: 1.0;"/><text fill="#000000" font-family="sans-serif" font-size="13" lengthAdjust="spacingAndGlyphs" textLength="10" x="331" y="318.4951">in</text><!--link DetailUseCases to SupplementaryRequirements--><path d="M478.922,274.033 C443.65,295.368 391.263,327.0557 354.611,349.2253 " fill="none" id="DetailUseCases-SupplementaryRequirements" style="stroke: #A80036; stroke-width: 1.0;"/><polygon fill="#A80036" points="350.222,351.8804,359.9929,350.6437,354.4999,349.2921,355.8516,343.7991,350.222,351.8804" style="stroke: #A80036; stroke-width: 1.0;"/><text fill="#000000" font-family="sans-serif" font-size="13" lengthAdjust="spacingAndGlyphs" textLength="10" x="428" y="318.4951">in</text><!--link DetailUseCases to Glossary--><path d="M511.242,274.033 C506.119,294.522 498.61,324.5607 493.113,346.5464 " fill="none" id="DetailUseCases-Glossary" style="stroke: #A80036; stroke-width: 1.0;"/><polygon fill="#A80036" points="491.833,351.6697,497.8969,343.909,493.046,346.8191,490.1359,341.9682,491.833,351.6697" style="stroke: #A80036; stroke-width: 1.0;"/><text fill="#000000" font-family="sans-serif" font-size="13" lengthAdjust="spacingAndGlyphs" textLength="10" x="505" y="318.4951">in</text><!--link DetailUseCases to CaseUse--><path d="M539.661,274.033 C560.246,294.955 590.625,325.8324 612.364,347.9269 " fill="none" id="DetailUseCases-CaseUse" style="stroke: #A80036; stroke-width: 1.0;"/><polygon fill="#A80036" points="616.046,351.6697,612.5854,342.4488,612.5394,348.1055,606.8827,348.0594,616.046,351.6697" style="stroke: #A80036; stroke-width: 1.0;"/><text fill="#000000" font-family="sans-serif" font-size="13" lengthAdjust="spacingAndGlyphs" textLength="18" x="587" y="318.4951">out</text><!--link DetailUseCases to SpecifierUseCases--><path d="M573.468,274.033 C626.388,295.619 705.289,327.8021 759.718,350.0032 " fill="none" id="DetailUseCases-SpecifierUseCases" style="stroke: #A80036; stroke-width: 1.0;"/><polygon fill="#A80036" points="764.578,351.9856,757.7555,344.8825,759.9484,350.0971,754.7338,352.2899,764.578,351.9856" style="stroke: #A80036; stroke-width: 1.0;"/><!--link Role to RequirementsRole--><path d="M735,185.578 C735,199.362 735,214.057 735,225.828 " fill="none" id="Role-RequirementsRole" style="stroke: #A80036; stroke-width: 1.0;"/><polygon fill="none" points="728,185.217,735,165.217,742,185.217,728,185.217" style="stroke: #A80036; stroke-width: 1.0;"/><!--link RequirementsRole to SpecifierUseCases--><path d="M762.418,290.534 C776.388,310.6752 792.894,334.4751 804.819,351.6697 " fill="none" id="RequirementsRole-SpecifierUseCases" style="stroke: #A80036; stroke-width: 1.0;"/><polygon fill="none" points="756.62,294.456,750.974,274.033,768.124,286.478,756.62,294.456" style="stroke: #A80036; stroke-width: 1.0;"/><!--
@startuml

class Activity #red
Activity <|- - RequirementsActivity
Activity - -> Role

class "Use Case Model (outline)" as UseCaseModel #green
class "Supplementary Requirements" as SupplementaryRequirements #green
class Glossary #green
class "Case of use (detailed)" as CaseUse #green

class RequirementsActivity #red
RequirementsActivity - -> RequirementsRole

class "Detail Use Cases" as DetailUseCases #red
RequirementsActivity <|- - DetailUseCases

DetailUseCases - -> UseCaseModel :in
DetailUseCases - -> SupplementaryRequirements :in
DetailUseCases - -> Glossary :in
DetailUseCases - -> CaseUse :out

DetailUseCases - -> SpecifierUseCases

class Role #blue
class RequirementsRole #blue
class "Specifier of Use Cases" as SpecifierUseCases #blue

Role <|- - RequirementsRole
RequirementsRole <|- - SpecifierUseCases
@enduml

PlantUML version 1.2019.05(Sat Apr 20 18:45:36 CEST 2019)
(GPL source distribution)
Java Runtime: OpenJDK Runtime Environment
JVM: OpenJDK 64-Bit Server VM
Java Version: 1.8.0_222-b10
Operating System: Windows 10
OS Version: 10.0
Default Encoding: windows-1252
Language: es
Country: ES
--></g></svg>