<?xml version="1.0" encoding="UTF-8" standalone="no"?><svg xmlns="http://www.w3.org/2000/svg" xmlns:xlink="http://www.w3.org/1999/xlink" contentScriptType="application/ecmascript" contentStyleType="text/css" height="433px" preserveAspectRatio="none" style="width:902px;height:433px;" version="1.1" viewBox="0 0 902 433" width="902px" zoomAndPan="magnify"><defs><filter height="300%" id="f19k8j104qkhcf" width="300%" x="-1" y="-1"><feGaussianBlur result="blurOut" stdDeviation="2.0"/><feColorMatrix in="blurOut" result="blurOut2" type="matrix" values="0 0 0 0 0 0 0 0 0 0 0 0 0 0 0 0 0 0 .4 0"/><feOffset dx="4.0" dy="4.0" in="blurOut2" result="blurOut3"/><feBlend in="SourceGraphic" in2="blurOut3" mode="normal"/></filter></defs><g><text fill="#000000" font-family="sans-serif" font-size="18" lengthAdjust="spacingAndGlyphs" textLength="139" x="385" y="18.6855">Detail Use Cases</text><!--class Activity--><rect fill="#FF0000" filter="url(#f19k8j104qkhcf)" height="48" id="Activity" style="stroke: #A80036; stroke-width: 1.5;" width="67" x="632.5" y="30.6406"/><rect fill="#FF0000" height="32" style="stroke: #A80036; stroke-width: 1.5;" width="67" x="632.5" y="30.6406"/><ellipse cx="647.5" cy="46.6406" fill="#ADD1B2" rx="11" ry="11" style="stroke: #A80036; stroke-width: 1.0;"/><path d="M650.2656,42.5156 Q650.4219,42.2969 650.6094,42.1875 Q650.7969,42.0781 651.0156,42.0781 Q651.3906,42.0781 651.625,42.3359 Q651.8594,42.5938 651.8594,43.2031 L651.8594,44.6563 Q651.8594,45.2656 651.625,45.5313 Q651.3906,45.7969 651.0156,45.7969 Q650.6719,45.7969 650.4688,45.5938 Q650.2656,45.4063 650.1563,44.8906 Q650.1094,44.5313 649.9219,44.3438 Q649.5938,43.9688 648.9844,43.75 Q648.375,43.5313 647.75,43.5313 Q646.9844,43.5313 646.3516,43.8594 Q645.7188,44.1875 645.2266,44.9375 Q644.7344,45.6875 644.7344,46.7188 L644.7344,47.8125 Q644.7344,49.0469 645.625,49.8672 Q646.5156,50.6875 648.1094,50.6875 Q649.0469,50.6875 649.7031,50.4375 Q650.0938,50.2813 650.5156,49.8438 Q650.7813,49.5781 650.9297,49.5 Q651.0781,49.4219 651.2813,49.4219 Q651.6094,49.4219 651.8672,49.6797 Q652.125,49.9375 652.125,50.2813 Q652.125,50.625 651.7813,51.0313 Q651.2813,51.6094 650.4844,51.9375 Q649.4063,52.3906 648.1094,52.3906 Q646.5938,52.3906 645.3906,51.7656 Q644.4063,51.2656 643.7188,50.1953 Q643.0313,49.125 643.0313,47.8438 L643.0313,46.6875 Q643.0313,45.3594 643.6484,44.2109 Q644.2656,43.0625 645.3594,42.4453 Q646.4531,41.8281 647.6875,41.8281 Q648.4219,41.8281 649.0703,41.9922 Q649.7188,42.1563 650.2656,42.5156 Z "/><text fill="#000000" font-family="sans-serif" font-size="12" lengthAdjust="spacingAndGlyphs" textLength="35" x="661.5" y="51.5508">Activity</text><line style="stroke: #A80036; stroke-width: 1.5;" x1="633.5" x2="698.5" y1="62.6406" y2="62.6406"/><line style="stroke: #A80036; stroke-width: 1.5;" x1="633.5" x2="698.5" y1="70.6406" y2="70.6406"/><!--class RequirementsActivity--><rect fill="#FF0000" filter="url(#f19k8j104qkhcf)" height="48" id="RequirementsActivity" style="stroke: #A80036; stroke-width: 1.5;" width="146" x="525" y="139.6406"/><rect fill="#FF0000" height="32" style="stroke: #A80036; stroke-width: 1.5;" width="146" x="525" y="139.6406"/><ellipse cx="540" cy="155.6406" fill="#ADD1B2" rx="11" ry="11" style="stroke: #A80036; stroke-width: 1.0;"/><path d="M542.7656,151.5156 Q542.9219,151.2969 543.1094,151.1875 Q543.2969,151.0781 543.5156,151.0781 Q543.8906,151.0781 544.125,151.3359 Q544.3594,151.5938 544.3594,152.2031 L544.3594,153.6563 Q544.3594,154.2656 544.125,154.5313 Q543.8906,154.7969 543.5156,154.7969 Q543.1719,154.7969 542.9688,154.5938 Q542.7656,154.4063 542.6563,153.8906 Q542.6094,153.5313 542.4219,153.3438 Q542.0938,152.9688 541.4844,152.75 Q540.875,152.5313 540.25,152.5313 Q539.4844,152.5313 538.8516,152.8594 Q538.2188,153.1875 537.7266,153.9375 Q537.2344,154.6875 537.2344,155.7188 L537.2344,156.8125 Q537.2344,158.0469 538.125,158.8672 Q539.0156,159.6875 540.6094,159.6875 Q541.5469,159.6875 542.2031,159.4375 Q542.5938,159.2813 543.0156,158.8438 Q543.2813,158.5781 543.4297,158.5 Q543.5781,158.4219 543.7813,158.4219 Q544.1094,158.4219 544.3672,158.6797 Q544.625,158.9375 544.625,159.2813 Q544.625,159.625 544.2813,160.0313 Q543.7813,160.6094 542.9844,160.9375 Q541.9063,161.3906 540.6094,161.3906 Q539.0938,161.3906 537.8906,160.7656 Q536.9063,160.2656 536.2188,159.1953 Q535.5313,158.125 535.5313,156.8438 L535.5313,155.6875 Q535.5313,154.3594 536.1484,153.2109 Q536.7656,152.0625 537.8594,151.4453 Q538.9531,150.8281 540.1875,150.8281 Q540.9219,150.8281 541.5703,150.9922 Q542.2188,151.1563 542.7656,151.5156 Z "/><text fill="#000000" font-family="sans-serif" font-size="12" lengthAdjust="spacingAndGlyphs" textLength="114" x="554" y="160.5508">RequirementsActivity</text><line style="stroke: #A80036; stroke-width: 1.5;" x1="526" x2="670" y1="171.6406" y2="171.6406"/><line style="stroke: #A80036; stroke-width: 1.5;" x1="526" x2="670" y1="179.6406" y2="179.6406"/><!--class Role--><rect fill="#0000FF" filter="url(#f19k8j104qkhcf)" height="48" id="Role" style="stroke: #A80036; stroke-width: 1.5;" width="58" x="706" y="139.6406"/><rect fill="#0000FF" height="32" style="stroke: #A80036; stroke-width: 1.5;" width="58" x="706" y="139.6406"/><ellipse cx="721" cy="155.6406" fill="#ADD1B2" rx="11" ry="11" style="stroke: #A80036; stroke-width: 1.0;"/><path d="M723.7656,151.5156 Q723.9219,151.2969 724.1094,151.1875 Q724.2969,151.0781 724.5156,151.0781 Q724.8906,151.0781 725.125,151.3359 Q725.3594,151.5938 725.3594,152.2031 L725.3594,153.6563 Q725.3594,154.2656 725.125,154.5313 Q724.8906,154.7969 724.5156,154.7969 Q724.1719,154.7969 723.9688,154.5938 Q723.7656,154.4063 723.6563,153.8906 Q723.6094,153.5313 723.4219,153.3438 Q723.0938,152.9688 722.4844,152.75 Q721.875,152.5313 721.25,152.5313 Q720.4844,152.5313 719.8516,152.8594 Q719.2188,153.1875 718.7266,153.9375 Q718.2344,154.6875 718.2344,155.7188 L718.2344,156.8125 Q718.2344,158.0469 719.125,158.8672 Q720.0156,159.6875 721.6094,159.6875 Q722.5469,159.6875 723.2031,159.4375 Q723.5938,159.2813 724.0156,158.8438 Q724.2813,158.5781 724.4297,158.5 Q724.5781,158.4219 724.7813,158.4219 Q725.1094,158.4219 725.3672,158.6797 Q725.625,158.9375 725.625,159.2813 Q725.625,159.625 725.2813,160.0313 Q724.7813,160.6094 723.9844,160.9375 Q722.9063,161.3906 721.6094,161.3906 Q720.0938,161.3906 718.8906,160.7656 Q717.9063,160.2656 717.2188,159.1953 Q716.5313,158.125 716.5313,156.8438 L716.5313,155.6875 Q716.5313,154.3594 717.1484,153.2109 Q717.7656,152.0625 718.8594,151.4453 Q719.9531,150.8281 721.1875,150.8281 Q721.9219,150.8281 722.5703,150.9922 Q723.2188,151.1563 723.7656,151.5156 Z "/><text fill="#000000" font-family="sans-serif" font-size="12" lengthAdjust="spacingAndGlyphs" textLength="26" x="735" y="160.5508">Role</text><line style="stroke: #A80036; stroke-width: 1.5;" x1="707" x2="763" y1="171.6406" y2="171.6406"/><line style="stroke: #A80036; stroke-width: 1.5;" x1="707" x2="763" y1="179.6406" y2="179.6406"/><!--class UseCaseModel--><rect fill="#008000" filter="url(#f19k8j104qkhcf)" height="48" id="UseCaseModel" style="stroke: #A80036; stroke-width: 1.5;" width="172" x="6" y="374.6406"/><rect fill="#008000" height="32" style="stroke: #A80036; stroke-width: 1.5;" width="172" x="6" y="374.6406"/><ellipse cx="21" cy="390.6406" fill="#ADD1B2" rx="11" ry="11" style="stroke: #A80036; stroke-width: 1.0;"/><path d="M23.7656,386.5156 Q23.9219,386.2969 24.1094,386.1875 Q24.2969,386.0781 24.5156,386.0781 Q24.8906,386.0781 25.125,386.3359 Q25.3594,386.5938 25.3594,387.2031 L25.3594,388.6563 Q25.3594,389.2656 25.125,389.5313 Q24.8906,389.7969 24.5156,389.7969 Q24.1719,389.7969 23.9688,389.5938 Q23.7656,389.4063 23.6563,388.8906 Q23.6094,388.5313 23.4219,388.3438 Q23.0938,387.9688 22.4844,387.75 Q21.875,387.5313 21.25,387.5313 Q20.4844,387.5313 19.8516,387.8594 Q19.2188,388.1875 18.7266,388.9375 Q18.2344,389.6875 18.2344,390.7188 L18.2344,391.8125 Q18.2344,393.0469 19.125,393.8672 Q20.0156,394.6875 21.6094,394.6875 Q22.5469,394.6875 23.2031,394.4375 Q23.5938,394.2813 24.0156,393.8438 Q24.2813,393.5781 24.4297,393.5 Q24.5781,393.4219 24.7813,393.4219 Q25.1094,393.4219 25.3672,393.6797 Q25.625,393.9375 25.625,394.2813 Q25.625,394.625 25.2813,395.0313 Q24.7813,395.6094 23.9844,395.9375 Q22.9063,396.3906 21.6094,396.3906 Q20.0938,396.3906 18.8906,395.7656 Q17.9063,395.2656 17.2188,394.1953 Q16.5313,393.125 16.5313,391.8438 L16.5313,390.6875 Q16.5313,389.3594 17.1484,388.2109 Q17.7656,387.0625 18.8594,386.4453 Q19.9531,385.8281 21.1875,385.8281 Q21.9219,385.8281 22.5703,385.9922 Q23.2188,386.1563 23.7656,386.5156 Z "/><text fill="#000000" font-family="sans-serif" font-size="12" lengthAdjust="spacingAndGlyphs" textLength="140" x="35" y="395.5508">Use Case Model (outline)</text><line style="stroke: #A80036; stroke-width: 1.5;" x1="7" x2="177" y1="406.6406" y2="406.6406"/><line style="stroke: #A80036; stroke-width: 1.5;" x1="7" x2="177" y1="414.6406" y2="414.6406"/><!--class SupplementaryRequirements--><rect fill="#008000" filter="url(#f19k8j104qkhcf)" height="48" id="SupplementaryRequirements" style="stroke: #A80036; stroke-width: 1.5;" width="197" x="213.5" y="374.6406"/><rect fill="#008000" height="32" style="stroke: #A80036; stroke-width: 1.5;" width="197" x="213.5" y="374.6406"/><ellipse cx="228.5" cy="390.6406" fill="#ADD1B2" rx="11" ry="11" style="stroke: #A80036; stroke-width: 1.0;"/><path d="M231.2656,386.5156 Q231.4219,386.2969 231.6094,386.1875 Q231.7969,386.0781 232.0156,386.0781 Q232.3906,386.0781 232.625,386.3359 Q232.8594,386.5938 232.8594,387.2031 L232.8594,388.6563 Q232.8594,389.2656 232.625,389.5313 Q232.3906,389.7969 232.0156,389.7969 Q231.6719,389.7969 231.4688,389.5938 Q231.2656,389.4063 231.1563,388.8906 Q231.1094,388.5313 230.9219,388.3438 Q230.5938,387.9688 229.9844,387.75 Q229.375,387.5313 228.75,387.5313 Q227.9844,387.5313 227.3516,387.8594 Q226.7188,388.1875 226.2266,388.9375 Q225.7344,389.6875 225.7344,390.7188 L225.7344,391.8125 Q225.7344,393.0469 226.625,393.8672 Q227.5156,394.6875 229.1094,394.6875 Q230.0469,394.6875 230.7031,394.4375 Q231.0938,394.2813 231.5156,393.8438 Q231.7813,393.5781 231.9297,393.5 Q232.0781,393.4219 232.2813,393.4219 Q232.6094,393.4219 232.8672,393.6797 Q233.125,393.9375 233.125,394.2813 Q233.125,394.625 232.7813,395.0313 Q232.2813,395.6094 231.4844,395.9375 Q230.4063,396.3906 229.1094,396.3906 Q227.5938,396.3906 226.3906,395.7656 Q225.4063,395.2656 224.7188,394.1953 Q224.0313,393.125 224.0313,391.8438 L224.0313,390.6875 Q224.0313,389.3594 224.6484,388.2109 Q225.2656,387.0625 226.3594,386.4453 Q227.4531,385.8281 228.6875,385.8281 Q229.4219,385.8281 230.0703,385.9922 Q230.7188,386.1563 231.2656,386.5156 Z "/><text fill="#000000" font-family="sans-serif" font-size="12" lengthAdjust="spacingAndGlyphs" textLength="165" x="242.5" y="395.5508">Supplementary Requirements</text><line style="stroke: #A80036; stroke-width: 1.5;" x1="214.5" x2="409.5" y1="406.6406" y2="406.6406"/><line style="stroke: #A80036; stroke-width: 1.5;" x1="214.5" x2="409.5" y1="414.6406" y2="414.6406"/><!--class Glossary--><rect fill="#008000" filter="url(#f19k8j104qkhcf)" height="48" id="Glossary" style="stroke: #A80036; stroke-width: 1.5;" width="81" x="445.5" y="374.6406"/><rect fill="#008000" height="32" style="stroke: #A80036; stroke-width: 1.5;" width="81" x="445.5" y="374.6406"/><ellipse cx="460.5" cy="390.6406" fill="#ADD1B2" rx="11" ry="11" style="stroke: #A80036; stroke-width: 1.0;"/><path d="M463.2656,386.5156 Q463.4219,386.2969 463.6094,386.1875 Q463.7969,386.0781 464.0156,386.0781 Q464.3906,386.0781 464.625,386.3359 Q464.8594,386.5938 464.8594,387.2031 L464.8594,388.6563 Q464.8594,389.2656 464.625,389.5313 Q464.3906,389.7969 464.0156,389.7969 Q463.6719,389.7969 463.4688,389.5938 Q463.2656,389.4063 463.1563,388.8906 Q463.1094,388.5313 462.9219,388.3438 Q462.5938,387.9688 461.9844,387.75 Q461.375,387.5313 460.75,387.5313 Q459.9844,387.5313 459.3516,387.8594 Q458.7188,388.1875 458.2266,388.9375 Q457.7344,389.6875 457.7344,390.7188 L457.7344,391.8125 Q457.7344,393.0469 458.625,393.8672 Q459.5156,394.6875 461.1094,394.6875 Q462.0469,394.6875 462.7031,394.4375 Q463.0938,394.2813 463.5156,393.8438 Q463.7813,393.5781 463.9297,393.5 Q464.0781,393.4219 464.2813,393.4219 Q464.6094,393.4219 464.8672,393.6797 Q465.125,393.9375 465.125,394.2813 Q465.125,394.625 464.7813,395.0313 Q464.2813,395.6094 463.4844,395.9375 Q462.4063,396.3906 461.1094,396.3906 Q459.5938,396.3906 458.3906,395.7656 Q457.4063,395.2656 456.7188,394.1953 Q456.0313,393.125 456.0313,391.8438 L456.0313,390.6875 Q456.0313,389.3594 456.6484,388.2109 Q457.2656,387.0625 458.3594,386.4453 Q459.4531,385.8281 460.6875,385.8281 Q461.4219,385.8281 462.0703,385.9922 Q462.7188,386.1563 463.2656,386.5156 Z "/><text fill="#000000" font-family="sans-serif" font-size="12" lengthAdjust="spacingAndGlyphs" textLength="49" x="474.5" y="395.5508">Glossary</text><line style="stroke: #A80036; stroke-width: 1.5;" x1="446.5" x2="525.5" y1="406.6406" y2="406.6406"/><line style="stroke: #A80036; stroke-width: 1.5;" x1="446.5" x2="525.5" y1="414.6406" y2="414.6406"/><!--class CaseUse--><rect fill="#008000" filter="url(#f19k8j104qkhcf)" height="48" id="CaseUse" style="stroke: #A80036; stroke-width: 1.5;" width="154" x="562" y="374.6406"/><rect fill="#008000" height="32" style="stroke: #A80036; stroke-width: 1.5;" width="154" x="562" y="374.6406"/><ellipse cx="577" cy="390.6406" fill="#ADD1B2" rx="11" ry="11" style="stroke: #A80036; stroke-width: 1.0;"/><path d="M579.7656,386.5156 Q579.9219,386.2969 580.1094,386.1875 Q580.2969,386.0781 580.5156,386.0781 Q580.8906,386.0781 581.125,386.3359 Q581.3594,386.5938 581.3594,387.2031 L581.3594,388.6563 Q581.3594,389.2656 581.125,389.5313 Q580.8906,389.7969 580.5156,389.7969 Q580.1719,389.7969 579.9688,389.5938 Q579.7656,389.4063 579.6563,388.8906 Q579.6094,388.5313 579.4219,388.3438 Q579.0938,387.9688 578.4844,387.75 Q577.875,387.5313 577.25,387.5313 Q576.4844,387.5313 575.8516,387.8594 Q575.2188,388.1875 574.7266,388.9375 Q574.2344,389.6875 574.2344,390.7188 L574.2344,391.8125 Q574.2344,393.0469 575.125,393.8672 Q576.0156,394.6875 577.6094,394.6875 Q578.5469,394.6875 579.2031,394.4375 Q579.5938,394.2813 580.0156,393.8438 Q580.2813,393.5781 580.4297,393.5 Q580.5781,393.4219 580.7813,393.4219 Q581.1094,393.4219 581.3672,393.6797 Q581.625,393.9375 581.625,394.2813 Q581.625,394.625 581.2813,395.0313 Q580.7813,395.6094 579.9844,395.9375 Q578.9063,396.3906 577.6094,396.3906 Q576.0938,396.3906 574.8906,395.7656 Q573.9063,395.2656 573.2188,394.1953 Q572.5313,393.125 572.5313,391.8438 L572.5313,390.6875 Q572.5313,389.3594 573.1484,388.2109 Q573.7656,387.0625 574.8594,386.4453 Q575.9531,385.8281 577.1875,385.8281 Q577.9219,385.8281 578.5703,385.9922 Q579.2188,386.1563 579.7656,386.5156 Z "/><text fill="#000000" font-family="sans-serif" font-size="12" lengthAdjust="spacingAndGlyphs" textLength="122" x="591" y="395.5508">Case of use (detailed)</text><line style="stroke: #A80036; stroke-width: 1.5;" x1="563" x2="715" y1="406.6406" y2="406.6406"/><line style="stroke: #A80036; stroke-width: 1.5;" x1="563" x2="715" y1="414.6406" y2="414.6406"/><!--class RequirementsRole--><rect fill="#0000FF" filter="url(#f19k8j104qkhcf)" height="48" id="RequirementsRole" style="stroke: #A80036; stroke-width: 1.5;" width="137" x="666.5" y="248.6406"/><rect fill="#0000FF" height="32" style="stroke: #A80036; stroke-width: 1.5;" width="137" x="666.5" y="248.6406"/><ellipse cx="681.5" cy="264.6406" fill="#ADD1B2" rx="11" ry="11" style="stroke: #A80036; stroke-width: 1.0;"/><path d="M684.2656,260.5156 Q684.4219,260.2969 684.6094,260.1875 Q684.7969,260.0781 685.0156,260.0781 Q685.3906,260.0781 685.625,260.3359 Q685.8594,260.5938 685.8594,261.2031 L685.8594,262.6563 Q685.8594,263.2656 685.625,263.5313 Q685.3906,263.7969 685.0156,263.7969 Q684.6719,263.7969 684.4688,263.5938 Q684.2656,263.4063 684.1563,262.8906 Q684.1094,262.5313 683.9219,262.3438 Q683.5938,261.9688 682.9844,261.75 Q682.375,261.5313 681.75,261.5313 Q680.9844,261.5313 680.3516,261.8594 Q679.7188,262.1875 679.2266,262.9375 Q678.7344,263.6875 678.7344,264.7188 L678.7344,265.8125 Q678.7344,267.0469 679.625,267.8672 Q680.5156,268.6875 682.1094,268.6875 Q683.0469,268.6875 683.7031,268.4375 Q684.0938,268.2813 684.5156,267.8438 Q684.7813,267.5781 684.9297,267.5 Q685.0781,267.4219 685.2813,267.4219 Q685.6094,267.4219 685.8672,267.6797 Q686.125,267.9375 686.125,268.2813 Q686.125,268.625 685.7813,269.0313 Q685.2813,269.6094 684.4844,269.9375 Q683.4063,270.3906 682.1094,270.3906 Q680.5938,270.3906 679.3906,269.7656 Q678.4063,269.2656 677.7188,268.1953 Q677.0313,267.125 677.0313,265.8438 L677.0313,264.6875 Q677.0313,263.3594 677.6484,262.2109 Q678.2656,261.0625 679.3594,260.4453 Q680.4531,259.8281 681.6875,259.8281 Q682.4219,259.8281 683.0703,259.9922 Q683.7188,260.1563 684.2656,260.5156 Z "/><text fill="#000000" font-family="sans-serif" font-size="12" lengthAdjust="spacingAndGlyphs" textLength="105" x="695.5" y="269.5508">RequirementsRole</text><line style="stroke: #A80036; stroke-width: 1.5;" x1="667.5" x2="802.5" y1="280.6406" y2="280.6406"/><line style="stroke: #A80036; stroke-width: 1.5;" x1="667.5" x2="802.5" y1="288.6406" y2="288.6406"/><!--class DetailUseCases--><rect fill="#FF0000" filter="url(#f19k8j104qkhcf)" height="48" id="DetailUseCases" style="stroke: #A80036; stroke-width: 1.5;" width="130" x="452" y="248.6406"/><rect fill="#FF0000" height="32" style="stroke: #A80036; stroke-width: 1.5;" width="130" x="452" y="248.6406"/><ellipse cx="467" cy="264.6406" fill="#ADD1B2" rx="11" ry="11" style="stroke: #A80036; stroke-width: 1.0;"/><path d="M469.7656,260.5156 Q469.9219,260.2969 470.1094,260.1875 Q470.2969,260.0781 470.5156,260.0781 Q470.8906,260.0781 471.125,260.3359 Q471.3594,260.5938 471.3594,261.2031 L471.3594,262.6563 Q471.3594,263.2656 471.125,263.5313 Q470.8906,263.7969 470.5156,263.7969 Q470.1719,263.7969 469.9688,263.5938 Q469.7656,263.4063 469.6563,262.8906 Q469.6094,262.5313 469.4219,262.3438 Q469.0938,261.9688 468.4844,261.75 Q467.875,261.5313 467.25,261.5313 Q466.4844,261.5313 465.8516,261.8594 Q465.2188,262.1875 464.7266,262.9375 Q464.2344,263.6875 464.2344,264.7188 L464.2344,265.8125 Q464.2344,267.0469 465.125,267.8672 Q466.0156,268.6875 467.6094,268.6875 Q468.5469,268.6875 469.2031,268.4375 Q469.5938,268.2813 470.0156,267.8438 Q470.2813,267.5781 470.4297,267.5 Q470.5781,267.4219 470.7813,267.4219 Q471.1094,267.4219 471.3672,267.6797 Q471.625,267.9375 471.625,268.2813 Q471.625,268.625 471.2813,269.0313 Q470.7813,269.6094 469.9844,269.9375 Q468.9063,270.3906 467.6094,270.3906 Q466.0938,270.3906 464.8906,269.7656 Q463.9063,269.2656 463.2188,268.1953 Q462.5313,267.125 462.5313,265.8438 L462.5313,264.6875 Q462.5313,263.3594 463.1484,262.2109 Q463.7656,261.0625 464.8594,260.4453 Q465.9531,259.8281 467.1875,259.8281 Q467.9219,259.8281 468.5703,259.9922 Q469.2188,260.1563 469.7656,260.5156 Z "/><text fill="#000000" font-family="sans-serif" font-size="12" lengthAdjust="spacingAndGlyphs" textLength="98" x="481" y="269.5508">Detail Use Cases</text><line style="stroke: #A80036; stroke-width: 1.5;" x1="453" x2="581" y1="280.6406" y2="280.6406"/><line style="stroke: #A80036; stroke-width: 1.5;" x1="453" x2="581" y1="288.6406" y2="288.6406"/><!--class SpecifierUseCases--><rect fill="#0000FF" filter="url(#f19k8j104qkhcf)" height="48" id="SpecifierUseCases" style="stroke: #A80036; stroke-width: 1.5;" width="140" x="751" y="374.6406"/><rect fill="#0000FF" height="32" style="stroke: #A80036; stroke-width: 1.5;" width="140" x="751" y="374.6406"/><ellipse cx="766" cy="390.6406" fill="#ADD1B2" rx="11" ry="11" style="stroke: #A80036; stroke-width: 1.0;"/><path d="M768.7656,386.5156 Q768.9219,386.2969 769.1094,386.1875 Q769.2969,386.0781 769.5156,386.0781 Q769.8906,386.0781 770.125,386.3359 Q770.3594,386.5938 770.3594,387.2031 L770.3594,388.6563 Q770.3594,389.2656 770.125,389.5313 Q769.8906,389.7969 769.5156,389.7969 Q769.1719,389.7969 768.9688,389.5938 Q768.7656,389.4063 768.6563,388.8906 Q768.6094,388.5313 768.4219,388.3438 Q768.0938,387.9688 767.4844,387.75 Q766.875,387.5313 766.25,387.5313 Q765.4844,387.5313 764.8516,387.8594 Q764.2188,388.1875 763.7266,388.9375 Q763.2344,389.6875 763.2344,390.7188 L763.2344,391.8125 Q763.2344,393.0469 764.125,393.8672 Q765.0156,394.6875 766.6094,394.6875 Q767.5469,394.6875 768.2031,394.4375 Q768.5938,394.2813 769.0156,393.8438 Q769.2813,393.5781 769.4297,393.5 Q769.5781,393.4219 769.7813,393.4219 Q770.1094,393.4219 770.3672,393.6797 Q770.625,393.9375 770.625,394.2813 Q770.625,394.625 770.2813,395.0313 Q769.7813,395.6094 768.9844,395.9375 Q767.9063,396.3906 766.6094,396.3906 Q765.0938,396.3906 763.8906,395.7656 Q762.9063,395.2656 762.2188,394.1953 Q761.5313,393.125 761.5313,391.8438 L761.5313,390.6875 Q761.5313,389.3594 762.1484,388.2109 Q762.7656,387.0625 763.8594,386.4453 Q764.9531,385.8281 766.1875,385.8281 Q766.9219,385.8281 767.5703,385.9922 Q768.2188,386.1563 768.7656,386.5156 Z "/><text fill="#000000" font-family="sans-serif" font-size="12" lengthAdjust="spacingAndGlyphs" textLength="108" x="780" y="395.5508">SpecifierUseCases</text><line style="stroke: #A80036; stroke-width: 1.5;" x1="752" x2="890" y1="406.6406" y2="406.6406"/><line style="stroke: #A80036; stroke-width: 1.5;" x1="752" x2="890" y1="414.6406" y2="414.6406"/><!--link Activity to RequirementsActivity--><path d="M640.482,95.7936 C631.115,110.5336 620.83,126.7166 612.726,139.4686 " fill="none" id="Activity-RequirementsActivity" style="stroke: #A80036; stroke-width: 1.0;"/><polygon fill="none" points="634.61,91.9836,651.245,78.8576,646.426,99.4926,634.61,91.9836" style="stroke: #A80036; stroke-width: 1.0;"/><!--link Activity to Role--><path d="M680.972,78.8576 C691.641,95.4036 706.026,117.7106 717.27,135.1466 " fill="none" id="Activity-Role" style="stroke: #A80036; stroke-width: 1.0;"/><polygon fill="#A80036" points="720.057,139.4686,718.54,129.7373,717.3468,135.2669,711.8172,134.0736,720.057,139.4686" style="stroke: #A80036; stroke-width: 1.0;"/><!--link RequirementsActivity to RequirementsRole--><path d="M627.727,187.8576 C649.36,204.7536 678.686,227.6576 701.208,245.2486 " fill="none" id="RequirementsActivity-RequirementsRole" style="stroke: #A80036; stroke-width: 1.0;"/><polygon fill="#A80036" points="705.331,248.4686,700.702,239.7754,701.3911,245.3901,695.7764,246.0793,705.331,248.4686" style="stroke: #A80036; stroke-width: 1.0;"/><!--link RequirementsActivity to DetailUseCases--><path d="M568.338,203.8236 C556.985,218.8206 544.407,235.4366 534.541,248.4686 " fill="none" id="RequirementsActivity-DetailUseCases" style="stroke: #A80036; stroke-width: 1.0;"/><polygon fill="none" points="562.772,199.5796,580.424,187.8576,573.934,208.0296,562.772,199.5796" style="stroke: #A80036; stroke-width: 1.0;"/><!--link DetailUseCases to UseCaseModel--><path d="M451.989,292.6086 C378.154,314.1506 257.443,349.3701 176.397,373.0166 " fill="none" id="DetailUseCases-UseCaseModel" style="stroke: #A80036; stroke-width: 1.0;"/><polygon fill="#A80036" points="171.117,374.5572,180.8774,375.8745,175.9166,373.1559,178.6352,368.1951,171.117,374.5572" style="stroke: #A80036; stroke-width: 1.0;"/><text fill="#000000" font-family="sans-serif" font-size="13" lengthAdjust="spacingAndGlyphs" textLength="10" x="331" y="341.1357">in</text><!--link DetailUseCases to SupplementaryRequirements--><path d="M478.922,296.6736 C443.65,318.0086 391.263,349.6963 354.611,371.8659 " fill="none" id="DetailUseCases-SupplementaryRequirements" style="stroke: #A80036; stroke-width: 1.0;"/><polygon fill="#A80036" points="350.222,374.521,359.9929,373.2843,354.4999,371.9327,355.8516,366.4397,350.222,374.521" style="stroke: #A80036; stroke-width: 1.0;"/><text fill="#000000" font-family="sans-serif" font-size="13" lengthAdjust="spacingAndGlyphs" textLength="10" x="428" y="341.1357">in</text><!--link DetailUseCases to Glossary--><path d="M511.242,296.6736 C506.119,317.1626 498.61,347.2013 493.113,369.187 " fill="none" id="DetailUseCases-Glossary" style="stroke: #A80036; stroke-width: 1.0;"/><polygon fill="#A80036" points="491.833,374.3103,497.8969,366.5496,493.046,369.4597,490.1359,364.6088,491.833,374.3103" style="stroke: #A80036; stroke-width: 1.0;"/><text fill="#000000" font-family="sans-serif" font-size="13" lengthAdjust="spacingAndGlyphs" textLength="10" x="505" y="341.1357">in</text><!--link DetailUseCases to CaseUse--><path d="M539.661,296.6736 C560.246,317.5956 590.625,348.473 612.364,370.5675 " fill="none" id="DetailUseCases-CaseUse" style="stroke: #A80036; stroke-width: 1.0;"/><polygon fill="#A80036" points="616.046,374.3103,612.5854,365.0895,612.5394,370.7461,606.8827,370.7001,616.046,374.3103" style="stroke: #A80036; stroke-width: 1.0;"/><text fill="#000000" font-family="sans-serif" font-size="13" lengthAdjust="spacingAndGlyphs" textLength="18" x="587" y="341.1357">out</text><!--link DetailUseCases to SpecifierUseCases--><path d="M573.468,296.6736 C626.388,318.2596 705.289,350.4427 759.718,372.6438 " fill="none" id="DetailUseCases-SpecifierUseCases" style="stroke: #A80036; stroke-width: 1.0;"/><polygon fill="#A80036" points="764.578,374.6262,757.7555,367.5232,759.9484,372.7377,754.7338,374.9306,764.578,374.6262" style="stroke: #A80036; stroke-width: 1.0;"/><!--link Role to RequirementsRole--><path d="M735,208.2186 C735,222.0026 735,236.6976 735,248.4686 " fill="none" id="Role-RequirementsRole" style="stroke: #A80036; stroke-width: 1.0;"/><polygon fill="none" points="728,207.8576,735,187.8576,742,207.8576,728,207.8576" style="stroke: #A80036; stroke-width: 1.0;"/><!--link RequirementsRole to SpecifierUseCases--><path d="M762.418,313.1746 C776.388,333.3158 792.894,357.1157 804.819,374.3103 " fill="none" id="RequirementsRole-SpecifierUseCases" style="stroke: #A80036; stroke-width: 1.0;"/><polygon fill="none" points="756.62,317.0966,750.974,296.6736,768.124,309.1186,756.62,317.0966" style="stroke: #A80036; stroke-width: 1.0;"/><!--
@startuml
title Detail Use Cases
class Activity #red
Activity <|- - RequirementsActivity
Activity - -> Role

class "Use Case Model (outline)" as UseCaseModel #green
class "Supplementary Requirements" as SupplementaryRequirements #green
class Glossary #green
class "Case of use (detailed)" as CaseUse #green

class RequirementsActivity #red
RequirementsActivity - -> RequirementsRole

class "Detail Use Cases" as DetailUseCases #red
RequirementsActivity <|- - DetailUseCases

DetailUseCases - -> UseCaseModel :in
DetailUseCases - -> SupplementaryRequirements :in
DetailUseCases - -> Glossary :in
DetailUseCases - -> CaseUse :out

DetailUseCases - -> SpecifierUseCases

class Role #blue
class RequirementsRole #blue
class "Specifier of Use Cases" as SpecifierUseCases #blue

Role <|- - RequirementsRole
RequirementsRole <|- - SpecifierUseCases
@enduml

PlantUML version 1.2019.05(Sat Apr 20 18:45:36 CEST 2019)
(GPL source distribution)
Java Runtime: OpenJDK Runtime Environment
JVM: OpenJDK 64-Bit Server VM
Java Version: 1.8.0_222-b10
Operating System: Windows 10
OS Version: 10.0
Default Encoding: windows-1252
Language: es
Country: ES
--></g></svg>