<?xml version="1.0" encoding="UTF-8" standalone="no"?><svg xmlns="http://www.w3.org/2000/svg" xmlns:xlink="http://www.w3.org/1999/xlink" contentScriptType="application/ecmascript" contentStyleType="text/css" height="411px" preserveAspectRatio="none" style="width:638px;height:411px;" version="1.1" viewBox="0 0 638 411" width="638px" zoomAndPan="magnify"><defs><filter height="300%" id="fn4pdps1rkizg" width="300%" x="-1" y="-1"><feGaussianBlur result="blurOut" stdDeviation="2.0"/><feColorMatrix in="blurOut" result="blurOut2" type="matrix" values="0 0 0 0 0 0 0 0 0 0 0 0 0 0 0 0 0 0 .4 0"/><feOffset dx="4.0" dy="4.0" in="blurOut2" result="blurOut3"/><feBlend in="SourceGraphic" in2="blurOut3" mode="normal"/></filter></defs><g><!--class Activity--><rect fill="#FF0000" filter="url(#fn4pdps1rkizg)" height="48" id="Activity" style="stroke: #A80036; stroke-width: 1.5;" width="67" x="421.5" y="8"/><rect fill="#FF0000" height="32" style="stroke: #A80036; stroke-width: 1.5;" width="67" x="421.5" y="8"/><ellipse cx="436.5" cy="24" fill="#ADD1B2" rx="11" ry="11" style="stroke: #A80036; stroke-width: 1.0;"/><path d="M439.2656,19.875 Q439.4219,19.6563 439.6094,19.5469 Q439.7969,19.4375 440.0156,19.4375 Q440.3906,19.4375 440.625,19.6953 Q440.8594,19.9531 440.8594,20.5625 L440.8594,22.0156 Q440.8594,22.625 440.625,22.8906 Q440.3906,23.1563 440.0156,23.1563 Q439.6719,23.1563 439.4688,22.9531 Q439.2656,22.7656 439.1563,22.25 Q439.1094,21.8906 438.9219,21.7031 Q438.5938,21.3281 437.9844,21.1094 Q437.375,20.8906 436.75,20.8906 Q435.9844,20.8906 435.3516,21.2188 Q434.7188,21.5469 434.2266,22.2969 Q433.7344,23.0469 433.7344,24.0781 L433.7344,25.1719 Q433.7344,26.4063 434.625,27.2266 Q435.5156,28.0469 437.1094,28.0469 Q438.0469,28.0469 438.7031,27.7969 Q439.0938,27.6406 439.5156,27.2031 Q439.7813,26.9375 439.9297,26.8594 Q440.0781,26.7813 440.2813,26.7813 Q440.6094,26.7813 440.8672,27.0391 Q441.125,27.2969 441.125,27.6406 Q441.125,27.9844 440.7813,28.3906 Q440.2813,28.9688 439.4844,29.2969 Q438.4063,29.75 437.1094,29.75 Q435.5938,29.75 434.3906,29.125 Q433.4063,28.625 432.7188,27.5547 Q432.0313,26.4844 432.0313,25.2031 L432.0313,24.0469 Q432.0313,22.7188 432.6484,21.5703 Q433.2656,20.4219 434.3594,19.8047 Q435.4531,19.1875 436.6875,19.1875 Q437.4219,19.1875 438.0703,19.3516 Q438.7188,19.5156 439.2656,19.875 Z "/><text fill="#000000" font-family="sans-serif" font-size="12" lengthAdjust="spacingAndGlyphs" textLength="35" x="450.5" y="28.9102">Activity</text><line style="stroke: #A80036; stroke-width: 1.5;" x1="422.5" x2="487.5" y1="40" y2="40"/><line style="stroke: #A80036; stroke-width: 1.5;" x1="422.5" x2="487.5" y1="48" y2="48"/><!--class TestsActivity--><rect fill="#FF0000" filter="url(#fn4pdps1rkizg)" height="48" id="TestsActivity" style="stroke: #A80036; stroke-width: 1.5;" width="98" x="350" y="117"/><rect fill="#FF0000" height="32" style="stroke: #A80036; stroke-width: 1.5;" width="98" x="350" y="117"/><ellipse cx="365" cy="133" fill="#ADD1B2" rx="11" ry="11" style="stroke: #A80036; stroke-width: 1.0;"/><path d="M367.7656,128.875 Q367.9219,128.6563 368.1094,128.5469 Q368.2969,128.4375 368.5156,128.4375 Q368.8906,128.4375 369.125,128.6953 Q369.3594,128.9531 369.3594,129.5625 L369.3594,131.0156 Q369.3594,131.625 369.125,131.8906 Q368.8906,132.1563 368.5156,132.1563 Q368.1719,132.1563 367.9688,131.9531 Q367.7656,131.7656 367.6563,131.25 Q367.6094,130.8906 367.4219,130.7031 Q367.0938,130.3281 366.4844,130.1094 Q365.875,129.8906 365.25,129.8906 Q364.4844,129.8906 363.8516,130.2188 Q363.2188,130.5469 362.7266,131.2969 Q362.2344,132.0469 362.2344,133.0781 L362.2344,134.1719 Q362.2344,135.4063 363.125,136.2266 Q364.0156,137.0469 365.6094,137.0469 Q366.5469,137.0469 367.2031,136.7969 Q367.5938,136.6406 368.0156,136.2031 Q368.2813,135.9375 368.4297,135.8594 Q368.5781,135.7813 368.7813,135.7813 Q369.1094,135.7813 369.3672,136.0391 Q369.625,136.2969 369.625,136.6406 Q369.625,136.9844 369.2813,137.3906 Q368.7813,137.9688 367.9844,138.2969 Q366.9063,138.75 365.6094,138.75 Q364.0938,138.75 362.8906,138.125 Q361.9063,137.625 361.2188,136.5547 Q360.5313,135.4844 360.5313,134.2031 L360.5313,133.0469 Q360.5313,131.7188 361.1484,130.5703 Q361.7656,129.4219 362.8594,128.8047 Q363.9531,128.1875 365.1875,128.1875 Q365.9219,128.1875 366.5703,128.3516 Q367.2188,128.5156 367.7656,128.875 Z "/><text fill="#000000" font-family="sans-serif" font-size="12" lengthAdjust="spacingAndGlyphs" textLength="66" x="379" y="137.9102">TestsActivity</text><line style="stroke: #A80036; stroke-width: 1.5;" x1="351" x2="447" y1="149" y2="149"/><line style="stroke: #A80036; stroke-width: 1.5;" x1="351" x2="447" y1="157" y2="157"/><!--class Role--><rect fill="#0000FF" filter="url(#fn4pdps1rkizg)" height="48" id="Role" style="stroke: #A80036; stroke-width: 1.5;" width="58" x="483" y="117"/><rect fill="#0000FF" height="32" style="stroke: #A80036; stroke-width: 1.5;" width="58" x="483" y="117"/><ellipse cx="498" cy="133" fill="#ADD1B2" rx="11" ry="11" style="stroke: #A80036; stroke-width: 1.0;"/><path d="M500.7656,128.875 Q500.9219,128.6563 501.1094,128.5469 Q501.2969,128.4375 501.5156,128.4375 Q501.8906,128.4375 502.125,128.6953 Q502.3594,128.9531 502.3594,129.5625 L502.3594,131.0156 Q502.3594,131.625 502.125,131.8906 Q501.8906,132.1563 501.5156,132.1563 Q501.1719,132.1563 500.9688,131.9531 Q500.7656,131.7656 500.6563,131.25 Q500.6094,130.8906 500.4219,130.7031 Q500.0938,130.3281 499.4844,130.1094 Q498.875,129.8906 498.25,129.8906 Q497.4844,129.8906 496.8516,130.2188 Q496.2188,130.5469 495.7266,131.2969 Q495.2344,132.0469 495.2344,133.0781 L495.2344,134.1719 Q495.2344,135.4063 496.125,136.2266 Q497.0156,137.0469 498.6094,137.0469 Q499.5469,137.0469 500.2031,136.7969 Q500.5938,136.6406 501.0156,136.2031 Q501.2813,135.9375 501.4297,135.8594 Q501.5781,135.7813 501.7813,135.7813 Q502.1094,135.7813 502.3672,136.0391 Q502.625,136.2969 502.625,136.6406 Q502.625,136.9844 502.2813,137.3906 Q501.7813,137.9688 500.9844,138.2969 Q499.9063,138.75 498.6094,138.75 Q497.0938,138.75 495.8906,138.125 Q494.9063,137.625 494.2188,136.5547 Q493.5313,135.4844 493.5313,134.2031 L493.5313,133.0469 Q493.5313,131.7188 494.1484,130.5703 Q494.7656,129.4219 495.8594,128.8047 Q496.9531,128.1875 498.1875,128.1875 Q498.9219,128.1875 499.5703,128.3516 Q500.2188,128.5156 500.7656,128.875 Z "/><text fill="#000000" font-family="sans-serif" font-size="12" lengthAdjust="spacingAndGlyphs" textLength="26" x="512" y="137.9102">Role</text><line style="stroke: #A80036; stroke-width: 1.5;" x1="484" x2="540" y1="149" y2="149"/><line style="stroke: #A80036; stroke-width: 1.5;" x1="484" x2="540" y1="157" y2="157"/><!--class TestPlan--><rect fill="#008000" filter="url(#fn4pdps1rkizg)" height="48" id="TestPlan" style="stroke: #A80036; stroke-width: 1.5;" width="84" x="6" y="352"/><rect fill="#008000" height="32" style="stroke: #A80036; stroke-width: 1.5;" width="84" x="6" y="352"/><ellipse cx="21" cy="368" fill="#ADD1B2" rx="11" ry="11" style="stroke: #A80036; stroke-width: 1.0;"/><path d="M23.7656,363.875 Q23.9219,363.6563 24.1094,363.5469 Q24.2969,363.4375 24.5156,363.4375 Q24.8906,363.4375 25.125,363.6953 Q25.3594,363.9531 25.3594,364.5625 L25.3594,366.0156 Q25.3594,366.625 25.125,366.8906 Q24.8906,367.1563 24.5156,367.1563 Q24.1719,367.1563 23.9688,366.9531 Q23.7656,366.7656 23.6563,366.25 Q23.6094,365.8906 23.4219,365.7031 Q23.0938,365.3281 22.4844,365.1094 Q21.875,364.8906 21.25,364.8906 Q20.4844,364.8906 19.8516,365.2188 Q19.2188,365.5469 18.7266,366.2969 Q18.2344,367.0469 18.2344,368.0781 L18.2344,369.1719 Q18.2344,370.4063 19.125,371.2266 Q20.0156,372.0469 21.6094,372.0469 Q22.5469,372.0469 23.2031,371.7969 Q23.5938,371.6406 24.0156,371.2031 Q24.2813,370.9375 24.4297,370.8594 Q24.5781,370.7813 24.7813,370.7813 Q25.1094,370.7813 25.3672,371.0391 Q25.625,371.2969 25.625,371.6406 Q25.625,371.9844 25.2813,372.3906 Q24.7813,372.9688 23.9844,373.2969 Q22.9063,373.75 21.6094,373.75 Q20.0938,373.75 18.8906,373.125 Q17.9063,372.625 17.2188,371.5547 Q16.5313,370.4844 16.5313,369.2031 L16.5313,368.0469 Q16.5313,366.7188 17.1484,365.5703 Q17.7656,364.4219 18.8594,363.8047 Q19.9531,363.1875 21.1875,363.1875 Q21.9219,363.1875 22.5703,363.3516 Q23.2188,363.5156 23.7656,363.875 Z "/><text fill="#000000" font-family="sans-serif" font-size="12" lengthAdjust="spacingAndGlyphs" textLength="52" x="35" y="372.9102">Test Plan</text><line style="stroke: #A80036; stroke-width: 1.5;" x1="7" x2="89" y1="384" y2="384"/><line style="stroke: #A80036; stroke-width: 1.5;" x1="7" x2="89" y1="392" y2="392"/><!--class TestModel--><rect fill="#008000" filter="url(#fn4pdps1rkizg)" height="48" id="TestModel" style="stroke: #A80036; stroke-width: 1.5;" width="92" x="125" y="352"/><rect fill="#008000" height="32" style="stroke: #A80036; stroke-width: 1.5;" width="92" x="125" y="352"/><ellipse cx="140" cy="368" fill="#ADD1B2" rx="11" ry="11" style="stroke: #A80036; stroke-width: 1.0;"/><path d="M142.7656,363.875 Q142.9219,363.6563 143.1094,363.5469 Q143.2969,363.4375 143.5156,363.4375 Q143.8906,363.4375 144.125,363.6953 Q144.3594,363.9531 144.3594,364.5625 L144.3594,366.0156 Q144.3594,366.625 144.125,366.8906 Q143.8906,367.1563 143.5156,367.1563 Q143.1719,367.1563 142.9688,366.9531 Q142.7656,366.7656 142.6563,366.25 Q142.6094,365.8906 142.4219,365.7031 Q142.0938,365.3281 141.4844,365.1094 Q140.875,364.8906 140.25,364.8906 Q139.4844,364.8906 138.8516,365.2188 Q138.2188,365.5469 137.7266,366.2969 Q137.2344,367.0469 137.2344,368.0781 L137.2344,369.1719 Q137.2344,370.4063 138.125,371.2266 Q139.0156,372.0469 140.6094,372.0469 Q141.5469,372.0469 142.2031,371.7969 Q142.5938,371.6406 143.0156,371.2031 Q143.2813,370.9375 143.4297,370.8594 Q143.5781,370.7813 143.7813,370.7813 Q144.1094,370.7813 144.3672,371.0391 Q144.625,371.2969 144.625,371.6406 Q144.625,371.9844 144.2813,372.3906 Q143.7813,372.9688 142.9844,373.2969 Q141.9063,373.75 140.6094,373.75 Q139.0938,373.75 137.8906,373.125 Q136.9063,372.625 136.2188,371.5547 Q135.5313,370.4844 135.5313,369.2031 L135.5313,368.0469 Q135.5313,366.7188 136.1484,365.5703 Q136.7656,364.4219 137.8594,363.8047 Q138.9531,363.1875 140.1875,363.1875 Q140.9219,363.1875 141.5703,363.3516 Q142.2188,363.5156 142.7656,363.875 Z "/><text fill="#000000" font-family="sans-serif" font-size="12" lengthAdjust="spacingAndGlyphs" textLength="60" x="154" y="372.9102">Test Model</text><line style="stroke: #A80036; stroke-width: 1.5;" x1="126" x2="216" y1="384" y2="384"/><line style="stroke: #A80036; stroke-width: 1.5;" x1="126" x2="216" y1="392" y2="392"/><!--class DEFECT--><rect fill="#008000" filter="url(#fn4pdps1rkizg)" height="48" id="DEFECT" style="stroke: #A80036; stroke-width: 1.5;" width="80" x="252" y="352"/><rect fill="#008000" height="32" style="stroke: #A80036; stroke-width: 1.5;" width="80" x="252" y="352"/><ellipse cx="267" cy="368" fill="#ADD1B2" rx="11" ry="11" style="stroke: #A80036; stroke-width: 1.0;"/><path d="M269.7656,363.875 Q269.9219,363.6563 270.1094,363.5469 Q270.2969,363.4375 270.5156,363.4375 Q270.8906,363.4375 271.125,363.6953 Q271.3594,363.9531 271.3594,364.5625 L271.3594,366.0156 Q271.3594,366.625 271.125,366.8906 Q270.8906,367.1563 270.5156,367.1563 Q270.1719,367.1563 269.9688,366.9531 Q269.7656,366.7656 269.6563,366.25 Q269.6094,365.8906 269.4219,365.7031 Q269.0938,365.3281 268.4844,365.1094 Q267.875,364.8906 267.25,364.8906 Q266.4844,364.8906 265.8516,365.2188 Q265.2188,365.5469 264.7266,366.2969 Q264.2344,367.0469 264.2344,368.0781 L264.2344,369.1719 Q264.2344,370.4063 265.125,371.2266 Q266.0156,372.0469 267.6094,372.0469 Q268.5469,372.0469 269.2031,371.7969 Q269.5938,371.6406 270.0156,371.2031 Q270.2813,370.9375 270.4297,370.8594 Q270.5781,370.7813 270.7813,370.7813 Q271.1094,370.7813 271.3672,371.0391 Q271.625,371.2969 271.625,371.6406 Q271.625,371.9844 271.2813,372.3906 Q270.7813,372.9688 269.9844,373.2969 Q268.9063,373.75 267.6094,373.75 Q266.0938,373.75 264.8906,373.125 Q263.9063,372.625 263.2188,371.5547 Q262.5313,370.4844 262.5313,369.2031 L262.5313,368.0469 Q262.5313,366.7188 263.1484,365.5703 Q263.7656,364.4219 264.8594,363.8047 Q265.9531,363.1875 267.1875,363.1875 Q267.9219,363.1875 268.5703,363.3516 Q269.2188,363.5156 269.7656,363.875 Z "/><text fill="#000000" font-family="sans-serif" font-size="12" lengthAdjust="spacingAndGlyphs" textLength="48" x="281" y="372.9102">DEFECT</text><line style="stroke: #A80036; stroke-width: 1.5;" x1="253" x2="331" y1="384" y2="384"/><line style="stroke: #A80036; stroke-width: 1.5;" x1="253" x2="331" y1="392" y2="392"/><!--class TestEvaluation--><rect fill="#008000" filter="url(#fn4pdps1rkizg)" height="48" id="TestEvaluation" style="stroke: #A80036; stroke-width: 1.5;" width="116" x="367" y="352"/><rect fill="#008000" height="32" style="stroke: #A80036; stroke-width: 1.5;" width="116" x="367" y="352"/><ellipse cx="382" cy="368" fill="#ADD1B2" rx="11" ry="11" style="stroke: #A80036; stroke-width: 1.0;"/><path d="M384.7656,363.875 Q384.9219,363.6563 385.1094,363.5469 Q385.2969,363.4375 385.5156,363.4375 Q385.8906,363.4375 386.125,363.6953 Q386.3594,363.9531 386.3594,364.5625 L386.3594,366.0156 Q386.3594,366.625 386.125,366.8906 Q385.8906,367.1563 385.5156,367.1563 Q385.1719,367.1563 384.9688,366.9531 Q384.7656,366.7656 384.6563,366.25 Q384.6094,365.8906 384.4219,365.7031 Q384.0938,365.3281 383.4844,365.1094 Q382.875,364.8906 382.25,364.8906 Q381.4844,364.8906 380.8516,365.2188 Q380.2188,365.5469 379.7266,366.2969 Q379.2344,367.0469 379.2344,368.0781 L379.2344,369.1719 Q379.2344,370.4063 380.125,371.2266 Q381.0156,372.0469 382.6094,372.0469 Q383.5469,372.0469 384.2031,371.7969 Q384.5938,371.6406 385.0156,371.2031 Q385.2813,370.9375 385.4297,370.8594 Q385.5781,370.7813 385.7813,370.7813 Q386.1094,370.7813 386.3672,371.0391 Q386.625,371.2969 386.625,371.6406 Q386.625,371.9844 386.2813,372.3906 Q385.7813,372.9688 384.9844,373.2969 Q383.9063,373.75 382.6094,373.75 Q381.0938,373.75 379.8906,373.125 Q378.9063,372.625 378.2188,371.5547 Q377.5313,370.4844 377.5313,369.2031 L377.5313,368.0469 Q377.5313,366.7188 378.1484,365.5703 Q378.7656,364.4219 379.8594,363.8047 Q380.9531,363.1875 382.1875,363.1875 Q382.9219,363.1875 383.5703,363.3516 Q384.2188,363.5156 384.7656,363.875 Z "/><text fill="#000000" font-family="sans-serif" font-size="12" lengthAdjust="spacingAndGlyphs" textLength="84" x="396" y="372.9102">Test Evaluation</text><line style="stroke: #A80036; stroke-width: 1.5;" x1="368" x2="482" y1="384" y2="384"/><line style="stroke: #A80036; stroke-width: 1.5;" x1="368" x2="482" y1="392" y2="392"/><!--class TestsRole--><rect fill="#0000FF" filter="url(#fn4pdps1rkizg)" height="48" id="TestsRole" style="stroke: #A80036; stroke-width: 1.5;" width="89" x="467.5" y="226"/><rect fill="#0000FF" height="32" style="stroke: #A80036; stroke-width: 1.5;" width="89" x="467.5" y="226"/><ellipse cx="482.5" cy="242" fill="#ADD1B2" rx="11" ry="11" style="stroke: #A80036; stroke-width: 1.0;"/><path d="M485.2656,237.875 Q485.4219,237.6563 485.6094,237.5469 Q485.7969,237.4375 486.0156,237.4375 Q486.3906,237.4375 486.625,237.6953 Q486.8594,237.9531 486.8594,238.5625 L486.8594,240.0156 Q486.8594,240.625 486.625,240.8906 Q486.3906,241.1563 486.0156,241.1563 Q485.6719,241.1563 485.4688,240.9531 Q485.2656,240.7656 485.1563,240.25 Q485.1094,239.8906 484.9219,239.7031 Q484.5938,239.3281 483.9844,239.1094 Q483.375,238.8906 482.75,238.8906 Q481.9844,238.8906 481.3516,239.2188 Q480.7188,239.5469 480.2266,240.2969 Q479.7344,241.0469 479.7344,242.0781 L479.7344,243.1719 Q479.7344,244.4063 480.625,245.2266 Q481.5156,246.0469 483.1094,246.0469 Q484.0469,246.0469 484.7031,245.7969 Q485.0938,245.6406 485.5156,245.2031 Q485.7813,244.9375 485.9297,244.8594 Q486.0781,244.7813 486.2813,244.7813 Q486.6094,244.7813 486.8672,245.0391 Q487.125,245.2969 487.125,245.6406 Q487.125,245.9844 486.7813,246.3906 Q486.2813,246.9688 485.4844,247.2969 Q484.4063,247.75 483.1094,247.75 Q481.5938,247.75 480.3906,247.125 Q479.4063,246.625 478.7188,245.5547 Q478.0313,244.4844 478.0313,243.2031 L478.0313,242.0469 Q478.0313,240.7188 478.6484,239.5703 Q479.2656,238.4219 480.3594,237.8047 Q481.4531,237.1875 482.6875,237.1875 Q483.4219,237.1875 484.0703,237.3516 Q484.7188,237.5156 485.2656,237.875 Z "/><text fill="#000000" font-family="sans-serif" font-size="12" lengthAdjust="spacingAndGlyphs" textLength="57" x="496.5" y="246.9102">TestsRole</text><line style="stroke: #A80036; stroke-width: 1.5;" x1="468.5" x2="555.5" y1="258" y2="258"/><line style="stroke: #A80036; stroke-width: 1.5;" x1="468.5" x2="555.5" y1="266" y2="266"/><!--class EvaluateTest--><rect fill="#FF0000" filter="url(#fn4pdps1rkizg)" height="48" id="EvaluateTest" style="stroke: #A80036; stroke-width: 1.5;" width="106" x="284" y="226"/><rect fill="#FF0000" height="32" style="stroke: #A80036; stroke-width: 1.5;" width="106" x="284" y="226"/><ellipse cx="299" cy="242" fill="#ADD1B2" rx="11" ry="11" style="stroke: #A80036; stroke-width: 1.0;"/><path d="M301.7656,237.875 Q301.9219,237.6563 302.1094,237.5469 Q302.2969,237.4375 302.5156,237.4375 Q302.8906,237.4375 303.125,237.6953 Q303.3594,237.9531 303.3594,238.5625 L303.3594,240.0156 Q303.3594,240.625 303.125,240.8906 Q302.8906,241.1563 302.5156,241.1563 Q302.1719,241.1563 301.9688,240.9531 Q301.7656,240.7656 301.6563,240.25 Q301.6094,239.8906 301.4219,239.7031 Q301.0938,239.3281 300.4844,239.1094 Q299.875,238.8906 299.25,238.8906 Q298.4844,238.8906 297.8516,239.2188 Q297.2188,239.5469 296.7266,240.2969 Q296.2344,241.0469 296.2344,242.0781 L296.2344,243.1719 Q296.2344,244.4063 297.125,245.2266 Q298.0156,246.0469 299.6094,246.0469 Q300.5469,246.0469 301.2031,245.7969 Q301.5938,245.6406 302.0156,245.2031 Q302.2813,244.9375 302.4297,244.8594 Q302.5781,244.7813 302.7813,244.7813 Q303.1094,244.7813 303.3672,245.0391 Q303.625,245.2969 303.625,245.6406 Q303.625,245.9844 303.2813,246.3906 Q302.7813,246.9688 301.9844,247.2969 Q300.9063,247.75 299.6094,247.75 Q298.0938,247.75 296.8906,247.125 Q295.9063,246.625 295.2188,245.5547 Q294.5313,244.4844 294.5313,243.2031 L294.5313,242.0469 Q294.5313,240.7188 295.1484,239.5703 Q295.7656,238.4219 296.8594,237.8047 Q297.9531,237.1875 299.1875,237.1875 Q299.9219,237.1875 300.5703,237.3516 Q301.2188,237.5156 301.7656,237.875 Z "/><text fill="#000000" font-family="sans-serif" font-size="12" lengthAdjust="spacingAndGlyphs" textLength="74" x="313" y="246.9102">Evaluate Test</text><line style="stroke: #A80036; stroke-width: 1.5;" x1="285" x2="389" y1="258" y2="258"/><line style="stroke: #A80036; stroke-width: 1.5;" x1="285" x2="389" y1="266" y2="266"/><!--class TestEngineer--><rect fill="#0000FF" filter="url(#fn4pdps1rkizg)" height="48" id="TestEngineer" style="stroke: #A80036; stroke-width: 1.5;" width="109" x="518.5" y="352"/><rect fill="#0000FF" height="32" style="stroke: #A80036; stroke-width: 1.5;" width="109" x="518.5" y="352"/><ellipse cx="533.5" cy="368" fill="#ADD1B2" rx="11" ry="11" style="stroke: #A80036; stroke-width: 1.0;"/><path d="M536.2656,363.875 Q536.4219,363.6563 536.6094,363.5469 Q536.7969,363.4375 537.0156,363.4375 Q537.3906,363.4375 537.625,363.6953 Q537.8594,363.9531 537.8594,364.5625 L537.8594,366.0156 Q537.8594,366.625 537.625,366.8906 Q537.3906,367.1563 537.0156,367.1563 Q536.6719,367.1563 536.4688,366.9531 Q536.2656,366.7656 536.1563,366.25 Q536.1094,365.8906 535.9219,365.7031 Q535.5938,365.3281 534.9844,365.1094 Q534.375,364.8906 533.75,364.8906 Q532.9844,364.8906 532.3516,365.2188 Q531.7188,365.5469 531.2266,366.2969 Q530.7344,367.0469 530.7344,368.0781 L530.7344,369.1719 Q530.7344,370.4063 531.625,371.2266 Q532.5156,372.0469 534.1094,372.0469 Q535.0469,372.0469 535.7031,371.7969 Q536.0938,371.6406 536.5156,371.2031 Q536.7813,370.9375 536.9297,370.8594 Q537.0781,370.7813 537.2813,370.7813 Q537.6094,370.7813 537.8672,371.0391 Q538.125,371.2969 538.125,371.6406 Q538.125,371.9844 537.7813,372.3906 Q537.2813,372.9688 536.4844,373.2969 Q535.4063,373.75 534.1094,373.75 Q532.5938,373.75 531.3906,373.125 Q530.4063,372.625 529.7188,371.5547 Q529.0313,370.4844 529.0313,369.2031 L529.0313,368.0469 Q529.0313,366.7188 529.6484,365.5703 Q530.2656,364.4219 531.3594,363.8047 Q532.4531,363.1875 533.6875,363.1875 Q534.4219,363.1875 535.0703,363.3516 Q535.7188,363.5156 536.2656,363.875 Z "/><text fill="#000000" font-family="sans-serif" font-size="12" lengthAdjust="spacingAndGlyphs" textLength="77" x="547.5" y="372.9102">Test Engineer</text><line style="stroke: #A80036; stroke-width: 1.5;" x1="519.5" x2="626.5" y1="384" y2="384"/><line style="stroke: #A80036; stroke-width: 1.5;" x1="519.5" x2="626.5" y1="392" y2="392"/><!--link Activity to TestsActivity--><path d="M433.476,74.127 C425.9,88.602 417.654,104.357 411.127,116.828 " fill="none" id="Activity-TestsActivity" style="stroke: #A80036; stroke-width: 1.0;"/><polygon fill="none" points="427.373,70.691,442.849,56.217,439.777,77.183,427.373,70.691" style="stroke: #A80036; stroke-width: 1.0;"/><!--link Activity to Role--><path d="M467.368,56.217 C476.107,72.623 487.864,94.692 497.117,112.062 " fill="none" id="Activity-Role" style="stroke: #A80036; stroke-width: 1.0;"/><polygon fill="#A80036" points="499.656,116.828,498.9537,107.0042,497.3047,112.4154,491.8935,110.7663,499.656,116.828" style="stroke: #A80036; stroke-width: 1.0;"/><!--link TestsActivity to TestsRole--><path d="M423.519,165.217 C441.289,182.043 465.35,204.827 483.896,222.389 " fill="none" id="TestsActivity-TestsRole" style="stroke: #A80036; stroke-width: 1.0;"/><polygon fill="#A80036" points="487.529,225.828,483.7422,216.7362,483.8977,222.3909,478.2429,222.5464,487.529,225.828" style="stroke: #A80036; stroke-width: 1.0;"/><!--link TestsActivity to EvaluateTest--><path d="M375.452,182.639 C366.987,197.248 357.734,213.217 350.427,225.828 " fill="none" id="TestsActivity-EvaluateTest" style="stroke: #A80036; stroke-width: 1.0;"/><polygon fill="none" points="369.463,179.013,385.547,165.217,381.576,186.032,369.463,179.013" style="stroke: #A80036; stroke-width: 1.0;"/><!--link EvaluateTest to TestPlan--><path d="M283.993,273.744 C229.896,296.955 146.735,332.6361 94.9442,354.8578 " fill="none" id="EvaluateTest-TestPlan" style="stroke: #A80036; stroke-width: 1.0;"/><polygon fill="#A80036" points="90.3423,356.8324,100.1903,356.9595,94.9372,354.8608,97.0358,349.6077,90.3423,356.8324" style="stroke: #A80036; stroke-width: 1.0;"/><text fill="#000000" font-family="sans-serif" font-size="13" lengthAdjust="spacingAndGlyphs" textLength="10" x="211" y="318.4951">in</text><!--link EvaluateTest to TestModel--><path d="M306.166,274.033 C277.837,295.194 235.872,326.5411 206.231,348.6827 " fill="none" id="EvaluateTest-TestModel" style="stroke: #A80036; stroke-width: 1.0;"/><polygon fill="#A80036" points="201.95,351.8804,211.5545,349.7003,205.9562,348.8887,206.7678,343.2904,201.95,351.8804" style="stroke: #A80036; stroke-width: 1.0;"/><text fill="#000000" font-family="sans-serif" font-size="13" lengthAdjust="spacingAndGlyphs" textLength="10" x="265" y="318.4951">in</text><!--link EvaluateTest to DEFECT--><path d="M328.641,274.033 C321.174,294.609 310.213,324.8143 302.225,346.8242 " fill="none" id="EvaluateTest-DEFECT" style="stroke: #A80036; stroke-width: 1.0;"/><polygon fill="#A80036" points="300.467,351.6697,307.2975,344.5744,302.1729,346.9697,299.7775,341.845,300.467,351.6697" style="stroke: #A80036; stroke-width: 1.0;"/><text fill="#000000" font-family="sans-serif" font-size="13" lengthAdjust="spacingAndGlyphs" textLength="10" x="319" y="318.4951">in</text><!--link EvaluateTest to TestEvaluation--><path d="M353.346,274.033 C368.071,294.782 389.745,325.3227 405.397,347.3774 " fill="none" id="EvaluateTest-TestEvaluation" style="stroke: #A80036; stroke-width: 1.0;"/><polygon fill="#A80036" points="408.443,351.6697,406.4957,342.0153,405.549,347.5924,399.9719,346.6457,408.443,351.6697" style="stroke: #A80036; stroke-width: 1.0;"/><text fill="#000000" font-family="sans-serif" font-size="13" lengthAdjust="spacingAndGlyphs" textLength="18" x="388" y="318.4951">out</text><!--link EvaluateTest to TestEngineer--><path d="M380.837,274.033 C421.607,295.455 482.242,327.3135 524.459,349.4952 " fill="none" id="EvaluateTest-TestEngineer" style="stroke: #A80036; stroke-width: 1.0;"/><polygon fill="#A80036" points="528.998,351.8804,522.8915,344.1532,524.5718,349.5547,519.1703,351.235,528.998,351.8804" style="stroke: #A80036; stroke-width: 1.0;"/><!--link Role to TestsRole--><path d="M512,185.578 C512,199.362 512,214.057 512,225.828 " fill="none" id="Role-TestsRole" style="stroke: #A80036; stroke-width: 1.0;"/><polygon fill="none" points="505,185.217,512,165.217,519,185.217,505,185.217" style="stroke: #A80036; stroke-width: 1.0;"/><!--link TestsRole to TestEngineer--><path d="M532.202,292.066 C541.946,311.873 553.278,334.9093 561.523,351.6697 " fill="none" id="TestsRole-TestEngineer" style="stroke: #A80036; stroke-width: 1.0;"/><polygon fill="none" points="525.878,295.069,523.331,274.033,538.44,288.889,525.878,295.069" style="stroke: #A80036; stroke-width: 1.0;"/><!--
@startuml

class Activity #red
Activity <|- - TestsActivity
Activity - -> Role

class "Test Plan" as TestPlan #green
class "Test Model" as TestModel #green
class DEFECT #green
class "Test Evaluation" as TestEvaluation #green

class TestsActivity #red
TestsActivity - -> TestsRole

class "Evaluate Test" as EvaluateTest #red
TestsActivity <|- - EvaluateTest

EvaluateTest - -> TestPlan :in
EvaluateTest - -> TestModel :in
EvaluateTest - -> DEFECT :in
EvaluateTest - -> TestEvaluation :out

class Role #blue
class TestsRole #blue
class "Test Engineer" as TestEngineer #blue

EvaluateTest - -> TestEngineer

Role <|- - TestsRole
TestsRole <|- - TestEngineer
@enduml

PlantUML version 1.2019.05(Sat Apr 20 18:45:36 CEST 2019)
(GPL source distribution)
Java Runtime: OpenJDK Runtime Environment
JVM: OpenJDK 64-Bit Server VM
Java Version: 1.8.0_222-b10
Operating System: Windows 10
OS Version: 10.0
Default Encoding: windows-1252
Language: es
Country: ES
--></g></svg>