<?xml version="1.0" encoding="UTF-8" standalone="no"?><svg xmlns="http://www.w3.org/2000/svg" xmlns:xlink="http://www.w3.org/1999/xlink" contentScriptType="application/ecmascript" contentStyleType="text/css" height="1007px" preserveAspectRatio="none" style="width:736px;height:1007px;" version="1.1" viewBox="0 0 736 1007" width="736px" zoomAndPan="magnify"><defs><filter height="300%" id="f1l9kpo2py32o3" width="300%" x="-1" y="-1"><feGaussianBlur result="blurOut" stdDeviation="2.0"/><feColorMatrix in="blurOut" result="blurOut2" type="matrix" values="0 0 0 0 0 0 0 0 0 0 0 0 0 0 0 0 0 0 .4 0"/><feOffset dx="4.0" dy="4.0" in="blurOut2" result="blurOut3"/><feBlend in="SourceGraphic" in2="blurOut3" mode="normal"/></filter></defs><g><!--class Discipline--><rect fill="#FF0000" filter="url(#f1l9kpo2py32o3)" height="48" id="Discipline" style="stroke: #A80036; stroke-width: 1.5;" width="87" x="274" y="8"/><rect fill="#FF0000" height="32" style="stroke: #A80036; stroke-width: 1.5;" width="87" x="274" y="8"/><ellipse cx="289" cy="24" fill="#ADD1B2" rx="11" ry="11" style="stroke: #A80036; stroke-width: 1.0;"/><path d="M291.7656,19.875 Q291.9219,19.6563 292.1094,19.5469 Q292.2969,19.4375 292.5156,19.4375 Q292.8906,19.4375 293.125,19.6953 Q293.3594,19.9531 293.3594,20.5625 L293.3594,22.0156 Q293.3594,22.625 293.125,22.8906 Q292.8906,23.1563 292.5156,23.1563 Q292.1719,23.1563 291.9688,22.9531 Q291.7656,22.7656 291.6563,22.25 Q291.6094,21.8906 291.4219,21.7031 Q291.0938,21.3281 290.4844,21.1094 Q289.875,20.8906 289.25,20.8906 Q288.4844,20.8906 287.8516,21.2188 Q287.2188,21.5469 286.7266,22.2969 Q286.2344,23.0469 286.2344,24.0781 L286.2344,25.1719 Q286.2344,26.4063 287.125,27.2266 Q288.0156,28.0469 289.6094,28.0469 Q290.5469,28.0469 291.2031,27.7969 Q291.5938,27.6406 292.0156,27.2031 Q292.2813,26.9375 292.4297,26.8594 Q292.5781,26.7813 292.7813,26.7813 Q293.1094,26.7813 293.3672,27.0391 Q293.625,27.2969 293.625,27.6406 Q293.625,27.9844 293.2813,28.3906 Q292.7813,28.9688 291.9844,29.2969 Q290.9063,29.75 289.6094,29.75 Q288.0938,29.75 286.8906,29.125 Q285.9063,28.625 285.2188,27.5547 Q284.5313,26.4844 284.5313,25.2031 L284.5313,24.0469 Q284.5313,22.7188 285.1484,21.5703 Q285.7656,20.4219 286.8594,19.8047 Q287.9531,19.1875 289.1875,19.1875 Q289.9219,19.1875 290.5703,19.3516 Q291.2188,19.5156 291.7656,19.875 Z "/><text fill="#000000" font-family="sans-serif" font-size="12" lengthAdjust="spacingAndGlyphs" textLength="55" x="303" y="28.9102">Discipline</text><line style="stroke: #A80036; stroke-width: 1.5;" x1="275" x2="360" y1="40" y2="40"/><line style="stroke: #A80036; stroke-width: 1.5;" x1="275" x2="360" y1="48" y2="48"/><!--class ImplementationDiscipline--><rect fill="#FF0000" filter="url(#f1l9kpo2py32o3)" height="48" id="ImplementationDiscipline" style="stroke: #A80036; stroke-width: 1.5;" width="173" x="154" y="117"/><rect fill="#FF0000" height="32" style="stroke: #A80036; stroke-width: 1.5;" width="173" x="154" y="117"/><ellipse cx="169" cy="133" fill="#ADD1B2" rx="11" ry="11" style="stroke: #A80036; stroke-width: 1.0;"/><path d="M171.7656,128.875 Q171.9219,128.6563 172.1094,128.5469 Q172.2969,128.4375 172.5156,128.4375 Q172.8906,128.4375 173.125,128.6953 Q173.3594,128.9531 173.3594,129.5625 L173.3594,131.0156 Q173.3594,131.625 173.125,131.8906 Q172.8906,132.1563 172.5156,132.1563 Q172.1719,132.1563 171.9688,131.9531 Q171.7656,131.7656 171.6563,131.25 Q171.6094,130.8906 171.4219,130.7031 Q171.0938,130.3281 170.4844,130.1094 Q169.875,129.8906 169.25,129.8906 Q168.4844,129.8906 167.8516,130.2188 Q167.2188,130.5469 166.7266,131.2969 Q166.2344,132.0469 166.2344,133.0781 L166.2344,134.1719 Q166.2344,135.4063 167.125,136.2266 Q168.0156,137.0469 169.6094,137.0469 Q170.5469,137.0469 171.2031,136.7969 Q171.5938,136.6406 172.0156,136.2031 Q172.2813,135.9375 172.4297,135.8594 Q172.5781,135.7813 172.7813,135.7813 Q173.1094,135.7813 173.3672,136.0391 Q173.625,136.2969 173.625,136.6406 Q173.625,136.9844 173.2813,137.3906 Q172.7813,137.9688 171.9844,138.2969 Q170.9063,138.75 169.6094,138.75 Q168.0938,138.75 166.8906,138.125 Q165.9063,137.625 165.2188,136.5547 Q164.5313,135.4844 164.5313,134.2031 L164.5313,133.0469 Q164.5313,131.7188 165.1484,130.5703 Q165.7656,129.4219 166.8594,128.8047 Q167.9531,128.1875 169.1875,128.1875 Q169.9219,128.1875 170.5703,128.3516 Q171.2188,128.5156 171.7656,128.875 Z "/><text fill="#000000" font-family="sans-serif" font-size="12" lengthAdjust="spacingAndGlyphs" textLength="141" x="183" y="137.9102">ImplementationDiscipline</text><line style="stroke: #A80036; stroke-width: 1.5;" x1="155" x2="326" y1="149" y2="149"/><line style="stroke: #A80036; stroke-width: 1.5;" x1="155" x2="326" y1="157" y2="157"/><!--class Activity--><rect fill="#008000" filter="url(#f1l9kpo2py32o3)" height="48" id="Activity" style="stroke: #A80036; stroke-width: 1.5;" width="67" x="362" y="117"/><rect fill="#008000" height="32" style="stroke: #A80036; stroke-width: 1.5;" width="67" x="362" y="117"/><ellipse cx="377" cy="133" fill="#ADD1B2" rx="11" ry="11" style="stroke: #A80036; stroke-width: 1.0;"/><path d="M379.7656,128.875 Q379.9219,128.6563 380.1094,128.5469 Q380.2969,128.4375 380.5156,128.4375 Q380.8906,128.4375 381.125,128.6953 Q381.3594,128.9531 381.3594,129.5625 L381.3594,131.0156 Q381.3594,131.625 381.125,131.8906 Q380.8906,132.1563 380.5156,132.1563 Q380.1719,132.1563 379.9688,131.9531 Q379.7656,131.7656 379.6563,131.25 Q379.6094,130.8906 379.4219,130.7031 Q379.0938,130.3281 378.4844,130.1094 Q377.875,129.8906 377.25,129.8906 Q376.4844,129.8906 375.8516,130.2188 Q375.2188,130.5469 374.7266,131.2969 Q374.2344,132.0469 374.2344,133.0781 L374.2344,134.1719 Q374.2344,135.4063 375.125,136.2266 Q376.0156,137.0469 377.6094,137.0469 Q378.5469,137.0469 379.2031,136.7969 Q379.5938,136.6406 380.0156,136.2031 Q380.2813,135.9375 380.4297,135.8594 Q380.5781,135.7813 380.7813,135.7813 Q381.1094,135.7813 381.3672,136.0391 Q381.625,136.2969 381.625,136.6406 Q381.625,136.9844 381.2813,137.3906 Q380.7813,137.9688 379.9844,138.2969 Q378.9063,138.75 377.6094,138.75 Q376.0938,138.75 374.8906,138.125 Q373.9063,137.625 373.2188,136.5547 Q372.5313,135.4844 372.5313,134.2031 L372.5313,133.0469 Q372.5313,131.7188 373.1484,130.5703 Q373.7656,129.4219 374.8594,128.8047 Q375.9531,128.1875 377.1875,128.1875 Q377.9219,128.1875 378.5703,128.3516 Q379.2188,128.5156 379.7656,128.875 Z "/><text fill="#000000" font-family="sans-serif" font-size="12" lengthAdjust="spacingAndGlyphs" textLength="35" x="391" y="137.9102">Activity</text><line style="stroke: #A80036; stroke-width: 1.5;" x1="363" x2="428" y1="149" y2="149"/><line style="stroke: #A80036; stroke-width: 1.5;" x1="363" x2="428" y1="157" y2="157"/><!--class ImplementationActivity--><rect fill="#008000" filter="url(#f1l9kpo2py32o3)" height="48" id="ImplementationActivity" style="stroke: #A80036; stroke-width: 1.5;" width="153" x="255" y="226"/><rect fill="#008000" height="32" style="stroke: #A80036; stroke-width: 1.5;" width="153" x="255" y="226"/><ellipse cx="270" cy="242" fill="#ADD1B2" rx="11" ry="11" style="stroke: #A80036; stroke-width: 1.0;"/><path d="M272.7656,237.875 Q272.9219,237.6563 273.1094,237.5469 Q273.2969,237.4375 273.5156,237.4375 Q273.8906,237.4375 274.125,237.6953 Q274.3594,237.9531 274.3594,238.5625 L274.3594,240.0156 Q274.3594,240.625 274.125,240.8906 Q273.8906,241.1563 273.5156,241.1563 Q273.1719,241.1563 272.9688,240.9531 Q272.7656,240.7656 272.6563,240.25 Q272.6094,239.8906 272.4219,239.7031 Q272.0938,239.3281 271.4844,239.1094 Q270.875,238.8906 270.25,238.8906 Q269.4844,238.8906 268.8516,239.2188 Q268.2188,239.5469 267.7266,240.2969 Q267.2344,241.0469 267.2344,242.0781 L267.2344,243.1719 Q267.2344,244.4063 268.125,245.2266 Q269.0156,246.0469 270.6094,246.0469 Q271.5469,246.0469 272.2031,245.7969 Q272.5938,245.6406 273.0156,245.2031 Q273.2813,244.9375 273.4297,244.8594 Q273.5781,244.7813 273.7813,244.7813 Q274.1094,244.7813 274.3672,245.0391 Q274.625,245.2969 274.625,245.6406 Q274.625,245.9844 274.2813,246.3906 Q273.7813,246.9688 272.9844,247.2969 Q271.9063,247.75 270.6094,247.75 Q269.0938,247.75 267.8906,247.125 Q266.9063,246.625 266.2188,245.5547 Q265.5313,244.4844 265.5313,243.2031 L265.5313,242.0469 Q265.5313,240.7188 266.1484,239.5703 Q266.7656,238.4219 267.8594,237.8047 Q268.9531,237.1875 270.1875,237.1875 Q270.9219,237.1875 271.5703,237.3516 Q272.2188,237.5156 272.7656,237.875 Z "/><text fill="#000000" font-family="sans-serif" font-size="12" lengthAdjust="spacingAndGlyphs" textLength="121" x="284" y="246.9102">ImplementationActivity</text><line style="stroke: #A80036; stroke-width: 1.5;" x1="256" x2="407" y1="258" y2="258"/><line style="stroke: #A80036; stroke-width: 1.5;" x1="256" x2="407" y1="266" y2="266"/><!--class ImplementArchitecture--><rect fill="#008000" filter="url(#f1l9kpo2py32o3)" height="48" id="ImplementArchitecture" style="stroke: #A80036; stroke-width: 1.5;" width="155" x="320" y="335"/><rect fill="#008000" height="32" style="stroke: #A80036; stroke-width: 1.5;" width="155" x="320" y="335"/><ellipse cx="335" cy="351" fill="#ADD1B2" rx="11" ry="11" style="stroke: #A80036; stroke-width: 1.0;"/><path d="M337.7656,346.875 Q337.9219,346.6563 338.1094,346.5469 Q338.2969,346.4375 338.5156,346.4375 Q338.8906,346.4375 339.125,346.6953 Q339.3594,346.9531 339.3594,347.5625 L339.3594,349.0156 Q339.3594,349.625 339.125,349.8906 Q338.8906,350.1563 338.5156,350.1563 Q338.1719,350.1563 337.9688,349.9531 Q337.7656,349.7656 337.6563,349.25 Q337.6094,348.8906 337.4219,348.7031 Q337.0938,348.3281 336.4844,348.1094 Q335.875,347.8906 335.25,347.8906 Q334.4844,347.8906 333.8516,348.2188 Q333.2188,348.5469 332.7266,349.2969 Q332.2344,350.0469 332.2344,351.0781 L332.2344,352.1719 Q332.2344,353.4063 333.125,354.2266 Q334.0156,355.0469 335.6094,355.0469 Q336.5469,355.0469 337.2031,354.7969 Q337.5938,354.6406 338.0156,354.2031 Q338.2813,353.9375 338.4297,353.8594 Q338.5781,353.7813 338.7813,353.7813 Q339.1094,353.7813 339.3672,354.0391 Q339.625,354.2969 339.625,354.6406 Q339.625,354.9844 339.2813,355.3906 Q338.7813,355.9688 337.9844,356.2969 Q336.9063,356.75 335.6094,356.75 Q334.0938,356.75 332.8906,356.125 Q331.9063,355.625 331.2188,354.5547 Q330.5313,353.4844 330.5313,352.2031 L330.5313,351.0469 Q330.5313,349.7188 331.1484,348.5703 Q331.7656,347.4219 332.8594,346.8047 Q333.9531,346.1875 335.1875,346.1875 Q335.9219,346.1875 336.5703,346.3516 Q337.2188,346.5156 337.7656,346.875 Z "/><text fill="#000000" font-family="sans-serif" font-size="12" lengthAdjust="spacingAndGlyphs" textLength="123" x="349" y="355.9102">ImplementArchitecture</text><line style="stroke: #A80036; stroke-width: 1.5;" x1="321" x2="474" y1="367" y2="367"/><line style="stroke: #A80036; stroke-width: 1.5;" x1="321" x2="474" y1="375" y2="375"/><!--class IntegrateSystems--><rect fill="#008000" filter="url(#f1l9kpo2py32o3)" height="48" id="IntegrateSystems" style="stroke: #A80036; stroke-width: 1.5;" width="128" x="248.5" y="461"/><rect fill="#008000" height="32" style="stroke: #A80036; stroke-width: 1.5;" width="128" x="248.5" y="461"/><ellipse cx="263.5" cy="477" fill="#ADD1B2" rx="11" ry="11" style="stroke: #A80036; stroke-width: 1.0;"/><path d="M266.2656,472.875 Q266.4219,472.6563 266.6094,472.5469 Q266.7969,472.4375 267.0156,472.4375 Q267.3906,472.4375 267.625,472.6953 Q267.8594,472.9531 267.8594,473.5625 L267.8594,475.0156 Q267.8594,475.625 267.625,475.8906 Q267.3906,476.1563 267.0156,476.1563 Q266.6719,476.1563 266.4688,475.9531 Q266.2656,475.7656 266.1563,475.25 Q266.1094,474.8906 265.9219,474.7031 Q265.5938,474.3281 264.9844,474.1094 Q264.375,473.8906 263.75,473.8906 Q262.9844,473.8906 262.3516,474.2188 Q261.7188,474.5469 261.2266,475.2969 Q260.7344,476.0469 260.7344,477.0781 L260.7344,478.1719 Q260.7344,479.4063 261.625,480.2266 Q262.5156,481.0469 264.1094,481.0469 Q265.0469,481.0469 265.7031,480.7969 Q266.0938,480.6406 266.5156,480.2031 Q266.7813,479.9375 266.9297,479.8594 Q267.0781,479.7813 267.2813,479.7813 Q267.6094,479.7813 267.8672,480.0391 Q268.125,480.2969 268.125,480.6406 Q268.125,480.9844 267.7813,481.3906 Q267.2813,481.9688 266.4844,482.2969 Q265.4063,482.75 264.1094,482.75 Q262.5938,482.75 261.3906,482.125 Q260.4063,481.625 259.7188,480.5547 Q259.0313,479.4844 259.0313,478.2031 L259.0313,477.0469 Q259.0313,475.7188 259.6484,474.5703 Q260.2656,473.4219 261.3594,472.8047 Q262.4531,472.1875 263.6875,472.1875 Q264.4219,472.1875 265.0703,472.3516 Q265.7188,472.5156 266.2656,472.875 Z "/><text fill="#000000" font-family="sans-serif" font-size="12" lengthAdjust="spacingAndGlyphs" textLength="96" x="277.5" y="481.9102">IntegrateSystems</text><line style="stroke: #A80036; stroke-width: 1.5;" x1="249.5" x2="375.5" y1="493" y2="493"/><line style="stroke: #A80036; stroke-width: 1.5;" x1="249.5" x2="375.5" y1="501" y2="501"/><!--class ImplementClass--><rect fill="#008000" filter="url(#f1l9kpo2py32o3)" height="48" id="ImplementClass" style="stroke: #A80036; stroke-width: 1.5;" width="124" x="158.5" y="713"/><rect fill="#008000" height="32" style="stroke: #A80036; stroke-width: 1.5;" width="124" x="158.5" y="713"/><ellipse cx="173.5" cy="729" fill="#ADD1B2" rx="11" ry="11" style="stroke: #A80036; stroke-width: 1.0;"/><path d="M176.2656,724.875 Q176.4219,724.6563 176.6094,724.5469 Q176.7969,724.4375 177.0156,724.4375 Q177.3906,724.4375 177.625,724.6953 Q177.8594,724.9531 177.8594,725.5625 L177.8594,727.0156 Q177.8594,727.625 177.625,727.8906 Q177.3906,728.1563 177.0156,728.1563 Q176.6719,728.1563 176.4688,727.9531 Q176.2656,727.7656 176.1563,727.25 Q176.1094,726.8906 175.9219,726.7031 Q175.5938,726.3281 174.9844,726.1094 Q174.375,725.8906 173.75,725.8906 Q172.9844,725.8906 172.3516,726.2188 Q171.7188,726.5469 171.2266,727.2969 Q170.7344,728.0469 170.7344,729.0781 L170.7344,730.1719 Q170.7344,731.4063 171.625,732.2266 Q172.5156,733.0469 174.1094,733.0469 Q175.0469,733.0469 175.7031,732.7969 Q176.0938,732.6406 176.5156,732.2031 Q176.7813,731.9375 176.9297,731.8594 Q177.0781,731.7813 177.2813,731.7813 Q177.6094,731.7813 177.8672,732.0391 Q178.125,732.2969 178.125,732.6406 Q178.125,732.9844 177.7813,733.3906 Q177.2813,733.9688 176.4844,734.2969 Q175.4063,734.75 174.1094,734.75 Q172.5938,734.75 171.3906,734.125 Q170.4063,733.625 169.7188,732.5547 Q169.0313,731.4844 169.0313,730.2031 L169.0313,729.0469 Q169.0313,727.7188 169.6484,726.5703 Q170.2656,725.4219 171.3594,724.8047 Q172.4531,724.1875 173.6875,724.1875 Q174.4219,724.1875 175.0703,724.3516 Q175.7188,724.5156 176.2656,724.875 Z "/><text fill="#000000" font-family="sans-serif" font-size="12" lengthAdjust="spacingAndGlyphs" textLength="92" x="187.5" y="733.9102">ImplementClass</text><line style="stroke: #A80036; stroke-width: 1.5;" x1="159.5" x2="281.5" y1="745" y2="745"/><line style="stroke: #A80036; stroke-width: 1.5;" x1="159.5" x2="281.5" y1="753" y2="753"/><!--class ImplementSubsystem--><rect fill="#008000" filter="url(#f1l9kpo2py32o3)" height="48" id="ImplementSubsystem" style="stroke: #A80036; stroke-width: 1.5;" width="153" x="6" y="587"/><rect fill="#008000" height="32" style="stroke: #A80036; stroke-width: 1.5;" width="153" x="6" y="587"/><ellipse cx="21" cy="603" fill="#ADD1B2" rx="11" ry="11" style="stroke: #A80036; stroke-width: 1.0;"/><path d="M23.7656,598.875 Q23.9219,598.6563 24.1094,598.5469 Q24.2969,598.4375 24.5156,598.4375 Q24.8906,598.4375 25.125,598.6953 Q25.3594,598.9531 25.3594,599.5625 L25.3594,601.0156 Q25.3594,601.625 25.125,601.8906 Q24.8906,602.1563 24.5156,602.1563 Q24.1719,602.1563 23.9688,601.9531 Q23.7656,601.7656 23.6563,601.25 Q23.6094,600.8906 23.4219,600.7031 Q23.0938,600.3281 22.4844,600.1094 Q21.875,599.8906 21.25,599.8906 Q20.4844,599.8906 19.8516,600.2188 Q19.2188,600.5469 18.7266,601.2969 Q18.2344,602.0469 18.2344,603.0781 L18.2344,604.1719 Q18.2344,605.4063 19.125,606.2266 Q20.0156,607.0469 21.6094,607.0469 Q22.5469,607.0469 23.2031,606.7969 Q23.5938,606.6406 24.0156,606.2031 Q24.2813,605.9375 24.4297,605.8594 Q24.5781,605.7813 24.7813,605.7813 Q25.1094,605.7813 25.3672,606.0391 Q25.625,606.2969 25.625,606.6406 Q25.625,606.9844 25.2813,607.3906 Q24.7813,607.9688 23.9844,608.2969 Q22.9063,608.75 21.6094,608.75 Q20.0938,608.75 18.8906,608.125 Q17.9063,607.625 17.2188,606.5547 Q16.5313,605.4844 16.5313,604.2031 L16.5313,603.0469 Q16.5313,601.7188 17.1484,600.5703 Q17.7656,599.4219 18.8594,598.8047 Q19.9531,598.1875 21.1875,598.1875 Q21.9219,598.1875 22.5703,598.3516 Q23.2188,598.5156 23.7656,598.875 Z "/><text fill="#000000" font-family="sans-serif" font-size="12" lengthAdjust="spacingAndGlyphs" textLength="121" x="35" y="607.9102">ImplementSubsystem</text><line style="stroke: #A80036; stroke-width: 1.5;" x1="7" x2="158" y1="619" y2="619"/><line style="stroke: #A80036; stroke-width: 1.5;" x1="7" x2="158" y1="627" y2="627"/><!--class PerformUnitTests--><rect fill="#008000" filter="url(#f1l9kpo2py32o3)" height="48" id="PerformUnitTests" style="stroke: #A80036; stroke-width: 1.5;" width="129" x="203" y="839"/><rect fill="#008000" height="32" style="stroke: #A80036; stroke-width: 1.5;" width="129" x="203" y="839"/><ellipse cx="218" cy="855" fill="#ADD1B2" rx="11" ry="11" style="stroke: #A80036; stroke-width: 1.0;"/><path d="M220.7656,850.875 Q220.9219,850.6563 221.1094,850.5469 Q221.2969,850.4375 221.5156,850.4375 Q221.8906,850.4375 222.125,850.6953 Q222.3594,850.9531 222.3594,851.5625 L222.3594,853.0156 Q222.3594,853.625 222.125,853.8906 Q221.8906,854.1563 221.5156,854.1563 Q221.1719,854.1563 220.9688,853.9531 Q220.7656,853.7656 220.6563,853.25 Q220.6094,852.8906 220.4219,852.7031 Q220.0938,852.3281 219.4844,852.1094 Q218.875,851.8906 218.25,851.8906 Q217.4844,851.8906 216.8516,852.2188 Q216.2188,852.5469 215.7266,853.2969 Q215.2344,854.0469 215.2344,855.0781 L215.2344,856.1719 Q215.2344,857.4063 216.125,858.2266 Q217.0156,859.0469 218.6094,859.0469 Q219.5469,859.0469 220.2031,858.7969 Q220.5938,858.6406 221.0156,858.2031 Q221.2813,857.9375 221.4297,857.8594 Q221.5781,857.7813 221.7813,857.7813 Q222.1094,857.7813 222.3672,858.0391 Q222.625,858.2969 222.625,858.6406 Q222.625,858.9844 222.2813,859.3906 Q221.7813,859.9688 220.9844,860.2969 Q219.9063,860.75 218.6094,860.75 Q217.0938,860.75 215.8906,860.125 Q214.9063,859.625 214.2188,858.5547 Q213.5313,857.4844 213.5313,856.2031 L213.5313,855.0469 Q213.5313,853.7188 214.1484,852.5703 Q214.7656,851.4219 215.8594,850.8047 Q216.9531,850.1875 218.1875,850.1875 Q218.9219,850.1875 219.5703,850.3516 Q220.2188,850.5156 220.7656,850.875 Z "/><text fill="#000000" font-family="sans-serif" font-size="12" lengthAdjust="spacingAndGlyphs" textLength="97" x="232" y="859.9102">PerformUnitTests</text><line style="stroke: #A80036; stroke-width: 1.5;" x1="204" x2="331" y1="871" y2="871"/><line style="stroke: #A80036; stroke-width: 1.5;" x1="204" x2="331" y1="879" y2="879"/><!--class Member--><rect fill="#FFFFFF" filter="url(#f1l9kpo2py32o3)" height="48" id="Member" style="stroke: #A80036; stroke-width: 1.5;" width="77" x="598" y="335"/><rect fill="#FFFFFF" height="32" style="stroke: #A80036; stroke-width: 1.5;" width="77" x="598" y="335"/><ellipse cx="613" cy="351" fill="#ADD1B2" rx="11" ry="11" style="stroke: #A80036; stroke-width: 1.0;"/><path d="M615.7656,346.875 Q615.9219,346.6563 616.1094,346.5469 Q616.2969,346.4375 616.5156,346.4375 Q616.8906,346.4375 617.125,346.6953 Q617.3594,346.9531 617.3594,347.5625 L617.3594,349.0156 Q617.3594,349.625 617.125,349.8906 Q616.8906,350.1563 616.5156,350.1563 Q616.1719,350.1563 615.9688,349.9531 Q615.7656,349.7656 615.6563,349.25 Q615.6094,348.8906 615.4219,348.7031 Q615.0938,348.3281 614.4844,348.1094 Q613.875,347.8906 613.25,347.8906 Q612.4844,347.8906 611.8516,348.2188 Q611.2188,348.5469 610.7266,349.2969 Q610.2344,350.0469 610.2344,351.0781 L610.2344,352.1719 Q610.2344,353.4063 611.125,354.2266 Q612.0156,355.0469 613.6094,355.0469 Q614.5469,355.0469 615.2031,354.7969 Q615.5938,354.6406 616.0156,354.2031 Q616.2813,353.9375 616.4297,353.8594 Q616.5781,353.7813 616.7813,353.7813 Q617.1094,353.7813 617.3672,354.0391 Q617.625,354.2969 617.625,354.6406 Q617.625,354.9844 617.2813,355.3906 Q616.7813,355.9688 615.9844,356.2969 Q614.9063,356.75 613.6094,356.75 Q612.0938,356.75 610.8906,356.125 Q609.9063,355.625 609.2188,354.5547 Q608.5313,353.4844 608.5313,352.2031 L608.5313,351.0469 Q608.5313,349.7188 609.1484,348.5703 Q609.7656,347.4219 610.8594,346.8047 Q611.9531,346.1875 613.1875,346.1875 Q613.9219,346.1875 614.5703,346.3516 Q615.2188,346.5156 615.7656,346.875 Z "/><text fill="#000000" font-family="sans-serif" font-size="12" lengthAdjust="spacingAndGlyphs" textLength="45" x="627" y="355.9102">Member</text><line style="stroke: #A80036; stroke-width: 1.5;" x1="599" x2="674" y1="367" y2="367"/><line style="stroke: #A80036; stroke-width: 1.5;" x1="599" x2="674" y1="375" y2="375"/><!--class Role--><rect fill="#FFFFFF" filter="url(#f1l9kpo2py32o3)" height="48" id="Role" style="stroke: #A80036; stroke-width: 1.5;" width="58" x="619.5" y="461"/><rect fill="#FFFFFF" height="32" style="stroke: #A80036; stroke-width: 1.5;" width="58" x="619.5" y="461"/><ellipse cx="634.5" cy="477" fill="#ADD1B2" rx="11" ry="11" style="stroke: #A80036; stroke-width: 1.0;"/><path d="M637.2656,472.875 Q637.4219,472.6563 637.6094,472.5469 Q637.7969,472.4375 638.0156,472.4375 Q638.3906,472.4375 638.625,472.6953 Q638.8594,472.9531 638.8594,473.5625 L638.8594,475.0156 Q638.8594,475.625 638.625,475.8906 Q638.3906,476.1563 638.0156,476.1563 Q637.6719,476.1563 637.4688,475.9531 Q637.2656,475.7656 637.1563,475.25 Q637.1094,474.8906 636.9219,474.7031 Q636.5938,474.3281 635.9844,474.1094 Q635.375,473.8906 634.75,473.8906 Q633.9844,473.8906 633.3516,474.2188 Q632.7188,474.5469 632.2266,475.2969 Q631.7344,476.0469 631.7344,477.0781 L631.7344,478.1719 Q631.7344,479.4063 632.625,480.2266 Q633.5156,481.0469 635.1094,481.0469 Q636.0469,481.0469 636.7031,480.7969 Q637.0938,480.6406 637.5156,480.2031 Q637.7813,479.9375 637.9297,479.8594 Q638.0781,479.7813 638.2813,479.7813 Q638.6094,479.7813 638.8672,480.0391 Q639.125,480.2969 639.125,480.6406 Q639.125,480.9844 638.7813,481.3906 Q638.2813,481.9688 637.4844,482.2969 Q636.4063,482.75 635.1094,482.75 Q633.5938,482.75 632.3906,482.125 Q631.4063,481.625 630.7188,480.5547 Q630.0313,479.4844 630.0313,478.2031 L630.0313,477.0469 Q630.0313,475.7188 630.6484,474.5703 Q631.2656,473.4219 632.3594,472.8047 Q633.4531,472.1875 634.6875,472.1875 Q635.4219,472.1875 636.0703,472.3516 Q636.7188,472.5156 637.2656,472.875 Z "/><text fill="#000000" font-family="sans-serif" font-size="12" lengthAdjust="spacingAndGlyphs" textLength="26" x="648.5" y="481.9102">Role</text><line style="stroke: #A80036; stroke-width: 1.5;" x1="620.5" x2="676.5" y1="493" y2="493"/><line style="stroke: #A80036; stroke-width: 1.5;" x1="620.5" x2="676.5" y1="501" y2="501"/><!--class ImplementationRole--><rect fill="#0000FF" filter="url(#f1l9kpo2py32o3)" height="48" id="ImplementationRole" style="stroke: #A80036; stroke-width: 1.5;" width="144" x="581.5" y="587"/><rect fill="#0000FF" height="32" style="stroke: #A80036; stroke-width: 1.5;" width="144" x="581.5" y="587"/><ellipse cx="596.5" cy="603" fill="#ADD1B2" rx="11" ry="11" style="stroke: #A80036; stroke-width: 1.0;"/><path d="M599.2656,598.875 Q599.4219,598.6563 599.6094,598.5469 Q599.7969,598.4375 600.0156,598.4375 Q600.3906,598.4375 600.625,598.6953 Q600.8594,598.9531 600.8594,599.5625 L600.8594,601.0156 Q600.8594,601.625 600.625,601.8906 Q600.3906,602.1563 600.0156,602.1563 Q599.6719,602.1563 599.4688,601.9531 Q599.2656,601.7656 599.1563,601.25 Q599.1094,600.8906 598.9219,600.7031 Q598.5938,600.3281 597.9844,600.1094 Q597.375,599.8906 596.75,599.8906 Q595.9844,599.8906 595.3516,600.2188 Q594.7188,600.5469 594.2266,601.2969 Q593.7344,602.0469 593.7344,603.0781 L593.7344,604.1719 Q593.7344,605.4063 594.625,606.2266 Q595.5156,607.0469 597.1094,607.0469 Q598.0469,607.0469 598.7031,606.7969 Q599.0938,606.6406 599.5156,606.2031 Q599.7813,605.9375 599.9297,605.8594 Q600.0781,605.7813 600.2813,605.7813 Q600.6094,605.7813 600.8672,606.0391 Q601.125,606.2969 601.125,606.6406 Q601.125,606.9844 600.7813,607.3906 Q600.2813,607.9688 599.4844,608.2969 Q598.4063,608.75 597.1094,608.75 Q595.5938,608.75 594.3906,608.125 Q593.4063,607.625 592.7188,606.5547 Q592.0313,605.4844 592.0313,604.2031 L592.0313,603.0469 Q592.0313,601.7188 592.6484,600.5703 Q593.2656,599.4219 594.3594,598.8047 Q595.4531,598.1875 596.6875,598.1875 Q597.4219,598.1875 598.0703,598.3516 Q598.7188,598.5156 599.2656,598.875 Z "/><text fill="#000000" font-family="sans-serif" font-size="12" lengthAdjust="spacingAndGlyphs" textLength="112" x="610.5" y="607.9102">ImplementationRole</text><line style="stroke: #A80036; stroke-width: 1.5;" x1="582.5" x2="724.5" y1="619" y2="619"/><line style="stroke: #A80036; stroke-width: 1.5;" x1="582.5" x2="724.5" y1="627" y2="627"/><!--class Architect--><rect fill="#0000FF" filter="url(#f1l9kpo2py32o3)" height="48" id="Architect" style="stroke: #A80036; stroke-width: 1.5;" width="78" x="555.5" y="713"/><rect fill="#0000FF" height="32" style="stroke: #A80036; stroke-width: 1.5;" width="78" x="555.5" y="713"/><ellipse cx="570.5" cy="729" fill="#ADD1B2" rx="11" ry="11" style="stroke: #A80036; stroke-width: 1.0;"/><path d="M573.2656,724.875 Q573.4219,724.6563 573.6094,724.5469 Q573.7969,724.4375 574.0156,724.4375 Q574.3906,724.4375 574.625,724.6953 Q574.8594,724.9531 574.8594,725.5625 L574.8594,727.0156 Q574.8594,727.625 574.625,727.8906 Q574.3906,728.1563 574.0156,728.1563 Q573.6719,728.1563 573.4688,727.9531 Q573.2656,727.7656 573.1563,727.25 Q573.1094,726.8906 572.9219,726.7031 Q572.5938,726.3281 571.9844,726.1094 Q571.375,725.8906 570.75,725.8906 Q569.9844,725.8906 569.3516,726.2188 Q568.7188,726.5469 568.2266,727.2969 Q567.7344,728.0469 567.7344,729.0781 L567.7344,730.1719 Q567.7344,731.4063 568.625,732.2266 Q569.5156,733.0469 571.1094,733.0469 Q572.0469,733.0469 572.7031,732.7969 Q573.0938,732.6406 573.5156,732.2031 Q573.7813,731.9375 573.9297,731.8594 Q574.0781,731.7813 574.2813,731.7813 Q574.6094,731.7813 574.8672,732.0391 Q575.125,732.2969 575.125,732.6406 Q575.125,732.9844 574.7813,733.3906 Q574.2813,733.9688 573.4844,734.2969 Q572.4063,734.75 571.1094,734.75 Q569.5938,734.75 568.3906,734.125 Q567.4063,733.625 566.7188,732.5547 Q566.0313,731.4844 566.0313,730.2031 L566.0313,729.0469 Q566.0313,727.7188 566.6484,726.5703 Q567.2656,725.4219 568.3594,724.8047 Q569.4531,724.1875 570.6875,724.1875 Q571.4219,724.1875 572.0703,724.3516 Q572.7188,724.5156 573.2656,724.875 Z "/><text fill="#000000" font-family="sans-serif" font-size="12" lengthAdjust="spacingAndGlyphs" textLength="46" x="584.5" y="733.9102">Architect</text><line style="stroke: #A80036; stroke-width: 1.5;" x1="556.5" x2="632.5" y1="745" y2="745"/><line style="stroke: #A80036; stroke-width: 1.5;" x1="556.5" x2="632.5" y1="753" y2="753"/><!--class IntegratorSystems--><rect fill="#0000FF" filter="url(#f1l9kpo2py32o3)" height="48" id="IntegratorSystems" style="stroke: #A80036; stroke-width: 1.5;" width="132" x="317.5" y="713"/><rect fill="#0000FF" height="32" style="stroke: #A80036; stroke-width: 1.5;" width="132" x="317.5" y="713"/><ellipse cx="332.5" cy="729" fill="#ADD1B2" rx="11" ry="11" style="stroke: #A80036; stroke-width: 1.0;"/><path d="M335.2656,724.875 Q335.4219,724.6563 335.6094,724.5469 Q335.7969,724.4375 336.0156,724.4375 Q336.3906,724.4375 336.625,724.6953 Q336.8594,724.9531 336.8594,725.5625 L336.8594,727.0156 Q336.8594,727.625 336.625,727.8906 Q336.3906,728.1563 336.0156,728.1563 Q335.6719,728.1563 335.4688,727.9531 Q335.2656,727.7656 335.1563,727.25 Q335.1094,726.8906 334.9219,726.7031 Q334.5938,726.3281 333.9844,726.1094 Q333.375,725.8906 332.75,725.8906 Q331.9844,725.8906 331.3516,726.2188 Q330.7188,726.5469 330.2266,727.2969 Q329.7344,728.0469 329.7344,729.0781 L329.7344,730.1719 Q329.7344,731.4063 330.625,732.2266 Q331.5156,733.0469 333.1094,733.0469 Q334.0469,733.0469 334.7031,732.7969 Q335.0938,732.6406 335.5156,732.2031 Q335.7813,731.9375 335.9297,731.8594 Q336.0781,731.7813 336.2813,731.7813 Q336.6094,731.7813 336.8672,732.0391 Q337.125,732.2969 337.125,732.6406 Q337.125,732.9844 336.7813,733.3906 Q336.2813,733.9688 335.4844,734.2969 Q334.4063,734.75 333.1094,734.75 Q331.5938,734.75 330.3906,734.125 Q329.4063,733.625 328.7188,732.5547 Q328.0313,731.4844 328.0313,730.2031 L328.0313,729.0469 Q328.0313,727.7188 328.6484,726.5703 Q329.2656,725.4219 330.3594,724.8047 Q331.4531,724.1875 332.6875,724.1875 Q333.4219,724.1875 334.0703,724.3516 Q334.7188,724.5156 335.2656,724.875 Z "/><text fill="#000000" font-family="sans-serif" font-size="12" lengthAdjust="spacingAndGlyphs" textLength="100" x="346.5" y="733.9102">IntegratorSystems</text><line style="stroke: #A80036; stroke-width: 1.5;" x1="318.5" x2="448.5" y1="745" y2="745"/><line style="stroke: #A80036; stroke-width: 1.5;" x1="318.5" x2="448.5" y1="753" y2="753"/><!--class EngineerComponents--><rect fill="#0000FF" filter="url(#f1l9kpo2py32o3)" height="48" id="EngineerComponents" style="stroke: #A80036; stroke-width: 1.5;" width="154" x="112.5" y="948"/><rect fill="#0000FF" height="32" style="stroke: #A80036; stroke-width: 1.5;" width="154" x="112.5" y="948"/><ellipse cx="127.5" cy="964" fill="#ADD1B2" rx="11" ry="11" style="stroke: #A80036; stroke-width: 1.0;"/><path d="M130.2656,959.875 Q130.4219,959.6563 130.6094,959.5469 Q130.7969,959.4375 131.0156,959.4375 Q131.3906,959.4375 131.625,959.6953 Q131.8594,959.9531 131.8594,960.5625 L131.8594,962.0156 Q131.8594,962.625 131.625,962.8906 Q131.3906,963.1563 131.0156,963.1563 Q130.6719,963.1563 130.4688,962.9531 Q130.2656,962.7656 130.1563,962.25 Q130.1094,961.8906 129.9219,961.7031 Q129.5938,961.3281 128.9844,961.1094 Q128.375,960.8906 127.75,960.8906 Q126.9844,960.8906 126.3516,961.2188 Q125.7188,961.5469 125.2266,962.2969 Q124.7344,963.0469 124.7344,964.0781 L124.7344,965.1719 Q124.7344,966.4063 125.625,967.2266 Q126.5156,968.0469 128.1094,968.0469 Q129.0469,968.0469 129.7031,967.7969 Q130.0938,967.6406 130.5156,967.2031 Q130.7813,966.9375 130.9297,966.8594 Q131.0781,966.7813 131.2813,966.7813 Q131.6094,966.7813 131.8672,967.0391 Q132.125,967.2969 132.125,967.6406 Q132.125,967.9844 131.7813,968.3906 Q131.2813,968.9688 130.4844,969.2969 Q129.4063,969.75 128.1094,969.75 Q126.5938,969.75 125.3906,969.125 Q124.4063,968.625 123.7188,967.5547 Q123.0313,966.4844 123.0313,965.2031 L123.0313,964.0469 Q123.0313,962.7188 123.6484,961.5703 Q124.2656,960.4219 125.3594,959.8047 Q126.4531,959.1875 127.6875,959.1875 Q128.4219,959.1875 129.0703,959.3516 Q129.7188,959.5156 130.2656,959.875 Z "/><text fill="#000000" font-family="sans-serif" font-size="12" lengthAdjust="spacingAndGlyphs" textLength="122" x="141.5" y="968.9102">EngineerComponents</text><line style="stroke: #A80036; stroke-width: 1.5;" x1="113.5" x2="265.5" y1="980" y2="980"/><line style="stroke: #A80036; stroke-width: 1.5;" x1="113.5" x2="265.5" y1="988" y2="988"/><!--link Discipline to Activity--><path d="M342.24,66.938 C351.408,79.515 361.795,93.764 370.946,106.317 " fill="none" id="Discipline-Activity" style="stroke: #A80036; stroke-width: 1.0;"/><polygon fill="#A80036" points="378.608,116.828,376.5394,107.1988,375.663,112.7874,370.0744,111.9109,378.608,116.828" style="stroke: #A80036; stroke-width: 1.0;"/><line style="stroke: #A80036; stroke-width: 1.0;" x1="375.663" x2="370.95" y1="112.7874" y2="106.323"/><polygon fill="#A80036" points="334.425,56.217,334.7272,63.4218,341.494,65.9139,341.1918,58.7091,334.425,56.217" style="stroke: #A80036; stroke-width: 1.0;"/><!--link Discipline to ImplementationDiscipline--><path d="M288.954,72.667 C278.254,87.537 266.452,103.936 257.175,116.828 " fill="none" id="Discipline-ImplementationDiscipline" style="stroke: #A80036; stroke-width: 1.0;"/><polygon fill="none" points="283.428,68.362,300.792,56.217,294.792,76.54,283.428,68.362" style="stroke: #A80036; stroke-width: 1.0;"/><!--link ImplementationDiscipline to ImplementationActivity--><path d="M268.965,175.47 C279.836,188.253 292.224,202.818 303.09,215.595 " fill="none" id="ImplementationDiscipline-ImplementationActivity" style="stroke: #A80036; stroke-width: 1.0;"/><polygon fill="#A80036" points="311.793,225.828,309.0089,216.3808,308.5535,222.0193,302.915,221.564,311.793,225.828" style="stroke: #A80036; stroke-width: 1.0;"/><line style="stroke: #A80036; stroke-width: 1.0;" x1="308.5535" x2="303.371" y1="222.0193" y2="215.925"/><polygon fill="#A80036" points="260.246,165.217,261.0858,172.379,268.0199,174.3584,267.1801,167.1964,260.246,165.217" style="stroke: #A80036; stroke-width: 1.0;"/><!--link Activity to ImplementationActivity--><path d="M371.192,182.639 C362.454,197.248 352.903,213.217 345.36,225.828 " fill="none" id="Activity-ImplementationActivity" style="stroke: #A80036; stroke-width: 1.0;"/><polygon fill="none" points="365.339,178.788,381.613,165.217,377.354,185.975,365.339,178.788" style="stroke: #A80036; stroke-width: 1.0;"/><!--link ImplementationActivity to ImplementArchitecture--><path d="M356.567,291.639 C365.578,306.248 375.428,322.217 383.207,334.828 " fill="none" id="ImplementationActivity-ImplementArchitecture" style="stroke: #A80036; stroke-width: 1.0;"/><polygon fill="none" points="350.363,294.915,345.821,274.217,362.279,287.565,350.363,294.915" style="stroke: #A80036; stroke-width: 1.0;"/><!--link ImplementationActivity to IntegrateSystems--><path d="M313.816,293.354 C309.179,306.467 304.828,321.121 302.5,335 C295.101,379.106 302.214,431.425 307.641,460.863 " fill="none" id="ImplementationActivity-IntegrateSystems" style="stroke: #A80036; stroke-width: 1.0;"/><polygon fill="none" points="307.404,290.525,321.088,274.346,320.479,295.527,307.404,290.525" style="stroke: #A80036; stroke-width: 1.0;"/><!--link ImplementationActivity to ImplementClass--><path d="M308.892,291.627 C306.692,295.785 304.527,299.964 302.5,304 C268.054,372.603 253.007,387.608 230.5,461 C217.876,502.164 217.139,513.945 217.5,557 C217.969,612.943 219.261,678.711 219.988,712.83 " fill="none" id="ImplementationActivity-ImplementClass" style="stroke: #A80036; stroke-width: 1.0;"/><polygon fill="none" points="302.748,288.274,318.437,274.031,315.054,294.949,302.748,288.274" style="stroke: #A80036; stroke-width: 1.0;"/><!--link ImplementationActivity to ImplementSubsystem--><path d="M235.406,265.804 C211.214,273.653 187.141,285.654 169.5,304 C91.5976,385.016 82.5725,530.591 82.1471,586.892 " fill="none" id="ImplementationActivity-ImplementSubsystem" style="stroke: #A80036; stroke-width: 1.0;"/><polygon fill="none" points="233.563,259.051,254.712,260.358,237.364,272.525,233.563,259.051" style="stroke: #A80036; stroke-width: 1.0;"/><!--link ImplementationActivity to PerformUnitTests--><path d="M427.622,266.455 C477.652,280.576 528.5,307.38 528.5,358 C528.5,358 528.5,358 528.5,549 C528.5,647.169 529.202,685.465 466.5,761 C431.979,802.586 375.99,828.841 332.179,844.125 " fill="none" id="ImplementationActivity-PerformUnitTests" style="stroke: #A80036; stroke-width: 1.0;"/><polygon fill="none" points="425.907,273.242,408.229,261.559,429.335,259.668,425.907,273.242" style="stroke: #A80036; stroke-width: 1.0;"/><!--link ImplementArchitecture to IntegrateSystems--><path d="M381.711,383.033 C367.488,403.782 346.553,434.323 331.435,456.377 " fill="none" id="ImplementArchitecture-IntegrateSystems" style="stroke: #A80036; stroke-width: 1.0;"/><polygon fill="#A80036" points="328.493,460.67,336.8809,455.5083,331.32,456.5459,330.2823,450.985,328.493,460.67" style="stroke: #A80036; stroke-width: 1.0;"/><text fill="#000000" font-family="sans-serif" font-size="13" lengthAdjust="spacingAndGlyphs" textLength="25" x="361.5" y="427.4951">next</text><!--link IntegrateSystems to ImplementClass--><path d="M304.01,509.071 C287.065,555.116 249.11,658.255 230.787,708.048 " fill="none" id="IntegrateSystems-ImplementClass" style="stroke: #A80036; stroke-width: 1.0;"/><polygon fill="#A80036" points="228.97,712.984,235.8323,705.9194,230.6969,708.2917,228.3246,703.1563,228.97,712.984" style="stroke: #A80036; stroke-width: 1.0;"/><text fill="#000000" font-family="sans-serif" font-size="13" lengthAdjust="spacingAndGlyphs" textLength="25" x="275.5" y="616.4951">next</text><!--link IntegrateSystems to ImplementSubsystem--><path d="M269.778,509.033 C230.044,530.455 170.951,562.313 129.807,584.495 " fill="none" id="IntegrateSystems-ImplementSubsystem" style="stroke: #A80036; stroke-width: 1.0;"/><polygon fill="#A80036" points="125.383,586.88,135.2033,586.13,129.7842,584.5073,131.4069,579.0882,125.383,586.88" style="stroke: #A80036; stroke-width: 1.0;"/><text fill="#000000" font-family="sans-serif" font-size="13" lengthAdjust="spacingAndGlyphs" textLength="25" x="212.5" y="553.4951">next</text><!--link ImplementClass to PerformUnitTests--><path d="M229.23,761.033 C237.029,781.609 248.478,811.814 256.82,833.824 " fill="none" id="ImplementClass-PerformUnitTests" style="stroke: #A80036; stroke-width: 1.0;"/><polygon fill="#A80036" points="258.657,838.67,259.2064,828.8365,256.8843,833.9948,251.726,831.6727,258.657,838.67" style="stroke: #A80036; stroke-width: 1.0;"/><text fill="#000000" font-family="sans-serif" font-size="13" lengthAdjust="spacingAndGlyphs" textLength="25" x="248.5" y="805.4951">next</text><!--link ImplementSubsystem to ImplementClass--><path d="M107.297,635.21 C122.306,649.171 141.887,667.234 159.5,683 C169.282,691.756 180.063,701.192 189.806,709.642 " fill="none" id="ImplementSubsystem-ImplementClass" style="stroke: #A80036; stroke-width: 1.0;"/><polygon fill="#A80036" points="193.627,712.951,189.4432,704.035,189.8477,709.6773,184.2053,710.0818,193.627,712.951" style="stroke: #A80036; stroke-width: 1.0;"/><text fill="#000000" font-family="sans-serif" font-size="13" lengthAdjust="spacingAndGlyphs" textLength="25" x="160.5" y="679.4951">next</text><!--link ImplementSubsystem to PerformUnitTests--><path d="M82.0191,635.031 C82.4641,666.231 87.2556,722.451 113.5,761 C136.395,794.63 174.576,819.781 207.191,836.573 " fill="none" id="ImplementSubsystem-PerformUnitTests" style="stroke: #A80036; stroke-width: 1.0;"/><polygon fill="#A80036" points="211.961,838.99,205.7409,831.3539,207.5009,836.73,202.1248,838.49,211.961,838.99" style="stroke: #A80036; stroke-width: 1.0;"/><text fill="#000000" font-family="sans-serif" font-size="13" lengthAdjust="spacingAndGlyphs" textLength="25" x="114.5" y="742.4951">next</text><!--link ImplementationActivity to Member--><path d="M421.129,264.891 C462.774,273.196 512.299,285.766 554.5,304 C568.781,310.17 583.301,318.804 596.075,327.361 " fill="none" id="ImplementationActivity-Member" style="stroke: #A80036; stroke-width: 1.0;"/><polygon fill="#A80036" points="606.802,334.797,601.6846,326.382,602.6929,331.9483,597.1266,332.9566,606.802,334.797" style="stroke: #A80036; stroke-width: 1.0;"/><line style="stroke: #A80036; stroke-width: 1.0;" x1="602.6929" x2="596.1175" y1="331.9483" y2="327.3905"/><polygon fill="#A80036" points="408.19,262.396,413.3241,267.4597,419.9729,264.6682,414.8389,259.6045,408.19,262.396" style="stroke: #A80036; stroke-width: 1.0;"/><!--link Member to Role--><path d="M640.004,396.212 C641.561,412.298 643.391,431.203 644.952,447.341 " fill="none" id="Member-Role" style="stroke: #A80036; stroke-width: 1.0;"/><polygon fill="#A80036" points="646.242,460.67,649.3571,451.3268,645.7607,455.6932,641.3942,452.0968,646.242,460.67" style="stroke: #A80036; stroke-width: 1.0;"/><line style="stroke: #A80036; stroke-width: 1.0;" x1="645.7607" x2="644.99" y1="455.6932" y2="447.73"/><polygon fill="#A80036" points="638.729,383.033,635.3258,389.3906,639.8854,394.9771,643.2886,388.6196,638.729,383.033" style="stroke: #A80036; stroke-width: 1.0;"/><!--link Role to ImplementationRole--><path d="M650.243,529.234 C651.022,548.536 651.908,570.517 652.559,586.67 " fill="none" id="Role-ImplementationRole" style="stroke: #A80036; stroke-width: 1.0;"/><polygon fill="none" points="643.24,529.299,649.429,509.033,657.229,528.735,643.24,529.299" style="stroke: #A80036; stroke-width: 1.0;"/><!--link ImplementationRole to Architect--><path d="M633.814,653.374 C624.423,673.112 613.534,695.996 605.601,712.67 " fill="none" id="ImplementationRole-Architect" style="stroke: #A80036; stroke-width: 1.0;"/><polygon fill="none" points="627.627,650.085,642.541,635.033,640.269,656.1,627.627,650.085" style="stroke: #A80036; stroke-width: 1.0;"/><!--link ImplementationRole to IntegratorSystems--><path d="M585.112,643.408 C538.013,665.038 476.481,693.298 433.841,712.88 " fill="none" id="ImplementationRole-IntegratorSystems" style="stroke: #A80036; stroke-width: 1.0;"/><polygon fill="none" points="582.251,637.019,603.348,635.033,588.094,649.741,582.251,637.019" style="stroke: #A80036; stroke-width: 1.0;"/><!--link ImplementationRole to EngineerComponents--><path d="M664.101,655.124 C669.375,686.974 670.888,729.999 650.5,761 C564.118,892.347 373.61,942.6537 266.502,961.0546 " fill="none" id="ImplementationRole-EngineerComponents" style="stroke: #A80036; stroke-width: 1.0;"/><polygon fill="none" points="657.164,656.134,660.072,635.145,670.888,653.366,657.164,656.134" style="stroke: #A80036; stroke-width: 1.0;"/><!--link ImplementArchitecture to Architect--><path d="M409.675,383.237 C444.232,449.195 542.832,637.385 580.046,708.412 " fill="none" id="ImplementArchitecture-Architect" style="stroke: #A80036; stroke-width: 1.0;"/><polygon fill="#A80036" points="582.407,712.918,581.7713,703.0897,580.0856,708.4895,574.6858,706.8039,582.407,712.918" style="stroke: #A80036; stroke-width: 1.0;"/><!--link IntegrateSystems to IntegratorSystems--><path d="M320.164,509.152 C323.165,518.408 326.581,529.182 329.5,539 C347.295,598.859 366.16,669.581 376.202,707.898 " fill="none" id="IntegrateSystems-IntegratorSystems" style="stroke: #A80036; stroke-width: 1.0;"/><polygon fill="#A80036" points="377.501,712.859,379.0924,703.1396,376.2353,708.0219,371.353,705.1647,377.501,712.859" style="stroke: #A80036; stroke-width: 1.0;"/><!--link ImplementClass to EngineerComponents--><path d="M210.014,761.089 C201.493,781.193 190.152,811.367 185.5,839 C179.541,874.397 182.367,915.8693 185.461,942.7464 " fill="none" id="ImplementClass-EngineerComponents" style="stroke: #A80036; stroke-width: 1.0;"/><polygon fill="#A80036" points="186.081,947.9211,188.9821,938.5092,185.4863,942.9566,181.0389,939.4608,186.081,947.9211" style="stroke: #A80036; stroke-width: 1.0;"/><!--link ImplementSubsystem to EngineerComponents--><path d="M79.0852,635.021 C75.5051,664.781 71.9695,717.899 84.5,761 C104.6748,830.394 147.266,904.3921 171.549,943.3336 " fill="none" id="ImplementSubsystem-EngineerComponents" style="stroke: #A80036; stroke-width: 1.0;"/><polygon fill="#A80036" points="174.416,947.9061,173.0227,938.1563,171.7594,943.6703,166.2454,942.4069,174.416,947.9061" style="stroke: #A80036; stroke-width: 1.0;"/><!--link PerformUnitTests to EngineerComponents--><path d="M250.575,887.217 C238.514,903.7627 222.253,926.0696 209.542,943.5063 " fill="none" id="PerformUnitTests-EngineerComponents" style="stroke: #A80036; stroke-width: 1.0;"/><polygon fill="#A80036" points="206.392,947.8279,214.9263,942.912,209.3376,943.7877,208.4619,938.199,206.392,947.8279" style="stroke: #A80036; stroke-width: 1.0;"/><!--
@startuml

class Discipline #red
class ImplementationDiscipline #red
class Activity #green
class ImplementationActivity #green

class ImplementArchitecture #green
class IntegrateSystems #green
class ImplementClass #green
class ImplementSubsystem #green
class PerformUnitTests #green

class Member #white
class Role #white
class ImplementationRole #blue
class Architect #blue
class IntegratorSystems #blue
class EngineerComponents #blue

Discipline *- -> Activity
Discipline <|- - ImplementationDiscipline
ImplementationDiscipline *- -> ImplementationActivity
Activity <|- - ImplementationActivity

ImplementationActivity <|- - ImplementArchitecture
ImplementationActivity <|- - IntegrateSystems
ImplementationActivity <|- - ImplementClass
ImplementationActivity <|- - ImplementSubsystem
ImplementationActivity <|- - PerformUnitTests

ImplementArchitecture  - -> IntegrateSystems :next
IntegrateSystems  - ->  ImplementClass:next
IntegrateSystems  - -> ImplementSubsystem :next
ImplementClass  - -> PerformUnitTests :next
ImplementSubsystem  - ->  ImplementClass :next
ImplementSubsystem  - -> PerformUnitTests :next

ImplementationActivity *- -> Member
Member *- -> Role
Role <|- - ImplementationRole
ImplementationRole <|- - Architect
ImplementationRole <|- - IntegratorSystems
ImplementationRole <|- - EngineerComponents

ImplementArchitecture - -> Architect
IntegrateSystems - -> IntegratorSystems
ImplementClass - -> EngineerComponents
ImplementSubsystem - -> EngineerComponents
PerformUnitTests - -> EngineerComponents

@enduml

PlantUML version 1.2019.05(Sat Apr 20 18:45:36 CEST 2019)
(GPL source distribution)
Java Runtime: OpenJDK Runtime Environment
JVM: OpenJDK 64-Bit Server VM
Java Version: 1.8.0_222-b10
Operating System: Windows 10
OS Version: 10.0
Default Encoding: windows-1252
Language: es
Country: ES
--></g></svg>