<?xml version="1.0" encoding="UTF-8" standalone="no"?><svg xmlns="http://www.w3.org/2000/svg" xmlns:xlink="http://www.w3.org/1999/xlink" contentScriptType="application/ecmascript" contentStyleType="text/css" height="433px" preserveAspectRatio="none" style="width:1363px;height:433px;" version="1.1" viewBox="0 0 1363 433" width="1363px" zoomAndPan="magnify"><defs><filter height="300%" id="fvugmske1da6d" width="300%" x="-1" y="-1"><feGaussianBlur result="blurOut" stdDeviation="2.0"/><feColorMatrix in="blurOut" result="blurOut2" type="matrix" values="0 0 0 0 0 0 0 0 0 0 0 0 0 0 0 0 0 0 .4 0"/><feOffset dx="4.0" dy="4.0" in="blurOut2" result="blurOut3"/><feBlend in="SourceGraphic" in2="blurOut3" mode="normal"/></filter></defs><g><text fill="#000000" font-family="sans-serif" font-size="18" lengthAdjust="spacingAndGlyphs" textLength="211" x="580" y="18.6855">Implement the Architecture</text><!--class Activity--><rect fill="#FF0000" filter="url(#fvugmske1da6d)" height="48" id="Activity" style="stroke: #A80036; stroke-width: 1.5;" width="67" x="936" y="30.6406"/><rect fill="#FF0000" height="32" style="stroke: #A80036; stroke-width: 1.5;" width="67" x="936" y="30.6406"/><ellipse cx="951" cy="46.6406" fill="#ADD1B2" rx="11" ry="11" style="stroke: #A80036; stroke-width: 1.0;"/><path d="M953.7656,42.5156 Q953.9219,42.2969 954.1094,42.1875 Q954.2969,42.0781 954.5156,42.0781 Q954.8906,42.0781 955.125,42.3359 Q955.3594,42.5938 955.3594,43.2031 L955.3594,44.6563 Q955.3594,45.2656 955.125,45.5313 Q954.8906,45.7969 954.5156,45.7969 Q954.1719,45.7969 953.9688,45.5938 Q953.7656,45.4063 953.6563,44.8906 Q953.6094,44.5313 953.4219,44.3438 Q953.0938,43.9688 952.4844,43.75 Q951.875,43.5313 951.25,43.5313 Q950.4844,43.5313 949.8516,43.8594 Q949.2188,44.1875 948.7266,44.9375 Q948.2344,45.6875 948.2344,46.7188 L948.2344,47.8125 Q948.2344,49.0469 949.125,49.8672 Q950.0156,50.6875 951.6094,50.6875 Q952.5469,50.6875 953.2031,50.4375 Q953.5938,50.2813 954.0156,49.8438 Q954.2813,49.5781 954.4297,49.5 Q954.5781,49.4219 954.7813,49.4219 Q955.1094,49.4219 955.3672,49.6797 Q955.625,49.9375 955.625,50.2813 Q955.625,50.625 955.2813,51.0313 Q954.7813,51.6094 953.9844,51.9375 Q952.9063,52.3906 951.6094,52.3906 Q950.0938,52.3906 948.8906,51.7656 Q947.9063,51.2656 947.2188,50.1953 Q946.5313,49.125 946.5313,47.8438 L946.5313,46.6875 Q946.5313,45.3594 947.1484,44.2109 Q947.7656,43.0625 948.8594,42.4453 Q949.9531,41.8281 951.1875,41.8281 Q951.9219,41.8281 952.5703,41.9922 Q953.2188,42.1563 953.7656,42.5156 Z "/><text fill="#000000" font-family="sans-serif" font-size="12" lengthAdjust="spacingAndGlyphs" textLength="35" x="965" y="51.5508">Activity</text><line style="stroke: #A80036; stroke-width: 1.5;" x1="937" x2="1002" y1="62.6406" y2="62.6406"/><line style="stroke: #A80036; stroke-width: 1.5;" x1="937" x2="1002" y1="70.6406" y2="70.6406"/><!--class ImplementationActivity--><rect fill="#FF0000" filter="url(#fvugmske1da6d)" height="48" id="ImplementationActivity" style="stroke: #A80036; stroke-width: 1.5;" width="153" x="823" y="139.6406"/><rect fill="#FF0000" height="32" style="stroke: #A80036; stroke-width: 1.5;" width="153" x="823" y="139.6406"/><ellipse cx="838" cy="155.6406" fill="#ADD1B2" rx="11" ry="11" style="stroke: #A80036; stroke-width: 1.0;"/><path d="M840.7656,151.5156 Q840.9219,151.2969 841.1094,151.1875 Q841.2969,151.0781 841.5156,151.0781 Q841.8906,151.0781 842.125,151.3359 Q842.3594,151.5938 842.3594,152.2031 L842.3594,153.6563 Q842.3594,154.2656 842.125,154.5313 Q841.8906,154.7969 841.5156,154.7969 Q841.1719,154.7969 840.9688,154.5938 Q840.7656,154.4063 840.6563,153.8906 Q840.6094,153.5313 840.4219,153.3438 Q840.0938,152.9688 839.4844,152.75 Q838.875,152.5313 838.25,152.5313 Q837.4844,152.5313 836.8516,152.8594 Q836.2188,153.1875 835.7266,153.9375 Q835.2344,154.6875 835.2344,155.7188 L835.2344,156.8125 Q835.2344,158.0469 836.125,158.8672 Q837.0156,159.6875 838.6094,159.6875 Q839.5469,159.6875 840.2031,159.4375 Q840.5938,159.2813 841.0156,158.8438 Q841.2813,158.5781 841.4297,158.5 Q841.5781,158.4219 841.7813,158.4219 Q842.1094,158.4219 842.3672,158.6797 Q842.625,158.9375 842.625,159.2813 Q842.625,159.625 842.2813,160.0313 Q841.7813,160.6094 840.9844,160.9375 Q839.9063,161.3906 838.6094,161.3906 Q837.0938,161.3906 835.8906,160.7656 Q834.9063,160.2656 834.2188,159.1953 Q833.5313,158.125 833.5313,156.8438 L833.5313,155.6875 Q833.5313,154.3594 834.1484,153.2109 Q834.7656,152.0625 835.8594,151.4453 Q836.9531,150.8281 838.1875,150.8281 Q838.9219,150.8281 839.5703,150.9922 Q840.2188,151.1563 840.7656,151.5156 Z "/><text fill="#000000" font-family="sans-serif" font-size="12" lengthAdjust="spacingAndGlyphs" textLength="121" x="852" y="160.5508">ImplementationActivity</text><line style="stroke: #A80036; stroke-width: 1.5;" x1="824" x2="975" y1="171.6406" y2="171.6406"/><line style="stroke: #A80036; stroke-width: 1.5;" x1="824" x2="975" y1="179.6406" y2="179.6406"/><!--class Role--><rect fill="#0000FF" filter="url(#fvugmske1da6d)" height="48" id="Role" style="stroke: #A80036; stroke-width: 1.5;" width="58" x="1011.5" y="139.6406"/><rect fill="#0000FF" height="32" style="stroke: #A80036; stroke-width: 1.5;" width="58" x="1011.5" y="139.6406"/><ellipse cx="1026.5" cy="155.6406" fill="#ADD1B2" rx="11" ry="11" style="stroke: #A80036; stroke-width: 1.0;"/><path d="M1029.2656,151.5156 Q1029.4219,151.2969 1029.6094,151.1875 Q1029.7969,151.0781 1030.0156,151.0781 Q1030.3906,151.0781 1030.625,151.3359 Q1030.8594,151.5938 1030.8594,152.2031 L1030.8594,153.6563 Q1030.8594,154.2656 1030.625,154.5313 Q1030.3906,154.7969 1030.0156,154.7969 Q1029.6719,154.7969 1029.4688,154.5938 Q1029.2656,154.4063 1029.1563,153.8906 Q1029.1094,153.5313 1028.9219,153.3438 Q1028.5938,152.9688 1027.9844,152.75 Q1027.375,152.5313 1026.75,152.5313 Q1025.9844,152.5313 1025.3516,152.8594 Q1024.7188,153.1875 1024.2266,153.9375 Q1023.7344,154.6875 1023.7344,155.7188 L1023.7344,156.8125 Q1023.7344,158.0469 1024.625,158.8672 Q1025.5156,159.6875 1027.1094,159.6875 Q1028.0469,159.6875 1028.7031,159.4375 Q1029.0938,159.2813 1029.5156,158.8438 Q1029.7813,158.5781 1029.9297,158.5 Q1030.0781,158.4219 1030.2813,158.4219 Q1030.6094,158.4219 1030.8672,158.6797 Q1031.125,158.9375 1031.125,159.2813 Q1031.125,159.625 1030.7813,160.0313 Q1030.2813,160.6094 1029.4844,160.9375 Q1028.4063,161.3906 1027.1094,161.3906 Q1025.5938,161.3906 1024.3906,160.7656 Q1023.4063,160.2656 1022.7188,159.1953 Q1022.0313,158.125 1022.0313,156.8438 L1022.0313,155.6875 Q1022.0313,154.3594 1022.6484,153.2109 Q1023.2656,152.0625 1024.3594,151.4453 Q1025.4531,150.8281 1026.6875,150.8281 Q1027.4219,150.8281 1028.0703,150.9922 Q1028.7188,151.1563 1029.2656,151.5156 Z "/><text fill="#000000" font-family="sans-serif" font-size="12" lengthAdjust="spacingAndGlyphs" textLength="26" x="1040.5" y="160.5508">Role</text><line style="stroke: #A80036; stroke-width: 1.5;" x1="1012.5" x2="1068.5" y1="171.6406" y2="171.6406"/><line style="stroke: #A80036; stroke-width: 1.5;" x1="1012.5" x2="1068.5" y1="179.6406" y2="179.6406"/><!--class DesignModel--><rect fill="#008000" filter="url(#fvugmske1da6d)" height="48" id="DesignModel" style="stroke: #A80036; stroke-width: 1.5;" width="105" x="6" y="374.6406"/><rect fill="#008000" height="32" style="stroke: #A80036; stroke-width: 1.5;" width="105" x="6" y="374.6406"/><ellipse cx="21" cy="390.6406" fill="#ADD1B2" rx="11" ry="11" style="stroke: #A80036; stroke-width: 1.0;"/><path d="M23.7656,386.5156 Q23.9219,386.2969 24.1094,386.1875 Q24.2969,386.0781 24.5156,386.0781 Q24.8906,386.0781 25.125,386.3359 Q25.3594,386.5938 25.3594,387.2031 L25.3594,388.6563 Q25.3594,389.2656 25.125,389.5313 Q24.8906,389.7969 24.5156,389.7969 Q24.1719,389.7969 23.9688,389.5938 Q23.7656,389.4063 23.6563,388.8906 Q23.6094,388.5313 23.4219,388.3438 Q23.0938,387.9688 22.4844,387.75 Q21.875,387.5313 21.25,387.5313 Q20.4844,387.5313 19.8516,387.8594 Q19.2188,388.1875 18.7266,388.9375 Q18.2344,389.6875 18.2344,390.7188 L18.2344,391.8125 Q18.2344,393.0469 19.125,393.8672 Q20.0156,394.6875 21.6094,394.6875 Q22.5469,394.6875 23.2031,394.4375 Q23.5938,394.2813 24.0156,393.8438 Q24.2813,393.5781 24.4297,393.5 Q24.5781,393.4219 24.7813,393.4219 Q25.1094,393.4219 25.3672,393.6797 Q25.625,393.9375 25.625,394.2813 Q25.625,394.625 25.2813,395.0313 Q24.7813,395.6094 23.9844,395.9375 Q22.9063,396.3906 21.6094,396.3906 Q20.0938,396.3906 18.8906,395.7656 Q17.9063,395.2656 17.2188,394.1953 Q16.5313,393.125 16.5313,391.8438 L16.5313,390.6875 Q16.5313,389.3594 17.1484,388.2109 Q17.7656,387.0625 18.8594,386.4453 Q19.9531,385.8281 21.1875,385.8281 Q21.9219,385.8281 22.5703,385.9922 Q23.2188,386.1563 23.7656,386.5156 Z "/><text fill="#000000" font-family="sans-serif" font-size="12" lengthAdjust="spacingAndGlyphs" textLength="73" x="35" y="395.5508">DesignModel</text><line style="stroke: #A80036; stroke-width: 1.5;" x1="7" x2="110" y1="406.6406" y2="406.6406"/><line style="stroke: #A80036; stroke-width: 1.5;" x1="7" x2="110" y1="414.6406" y2="414.6406"/><!--class DeploymentModel--><rect fill="#008000" filter="url(#fvugmske1da6d)" height="48" id="DeploymentModel" style="stroke: #A80036; stroke-width: 1.5;" width="131" x="146" y="374.6406"/><rect fill="#008000" height="32" style="stroke: #A80036; stroke-width: 1.5;" width="131" x="146" y="374.6406"/><ellipse cx="161" cy="390.6406" fill="#ADD1B2" rx="11" ry="11" style="stroke: #A80036; stroke-width: 1.0;"/><path d="M163.7656,386.5156 Q163.9219,386.2969 164.1094,386.1875 Q164.2969,386.0781 164.5156,386.0781 Q164.8906,386.0781 165.125,386.3359 Q165.3594,386.5938 165.3594,387.2031 L165.3594,388.6563 Q165.3594,389.2656 165.125,389.5313 Q164.8906,389.7969 164.5156,389.7969 Q164.1719,389.7969 163.9688,389.5938 Q163.7656,389.4063 163.6563,388.8906 Q163.6094,388.5313 163.4219,388.3438 Q163.0938,387.9688 162.4844,387.75 Q161.875,387.5313 161.25,387.5313 Q160.4844,387.5313 159.8516,387.8594 Q159.2188,388.1875 158.7266,388.9375 Q158.2344,389.6875 158.2344,390.7188 L158.2344,391.8125 Q158.2344,393.0469 159.125,393.8672 Q160.0156,394.6875 161.6094,394.6875 Q162.5469,394.6875 163.2031,394.4375 Q163.5938,394.2813 164.0156,393.8438 Q164.2813,393.5781 164.4297,393.5 Q164.5781,393.4219 164.7813,393.4219 Q165.1094,393.4219 165.3672,393.6797 Q165.625,393.9375 165.625,394.2813 Q165.625,394.625 165.2813,395.0313 Q164.7813,395.6094 163.9844,395.9375 Q162.9063,396.3906 161.6094,396.3906 Q160.0938,396.3906 158.8906,395.7656 Q157.9063,395.2656 157.2188,394.1953 Q156.5313,393.125 156.5313,391.8438 L156.5313,390.6875 Q156.5313,389.3594 157.1484,388.2109 Q157.7656,387.0625 158.8594,386.4453 Q159.9531,385.8281 161.1875,385.8281 Q161.9219,385.8281 162.5703,385.9922 Q163.2188,386.1563 163.7656,386.5156 Z "/><text fill="#000000" font-family="sans-serif" font-size="12" lengthAdjust="spacingAndGlyphs" textLength="99" x="175" y="395.5508">DeploymentModel</text><line style="stroke: #A80036; stroke-width: 1.5;" x1="147" x2="276" y1="406.6406" y2="406.6406"/><line style="stroke: #A80036; stroke-width: 1.5;" x1="147" x2="276" y1="414.6406" y2="414.6406"/><!--class ArchitectureDescriptionX--><rect fill="#008000" filter="url(#fvugmske1da6d)" height="48" id="ArchitectureDescriptionX" style="stroke: #A80036; stroke-width: 1.5;" width="333" x="312" y="374.6406"/><rect fill="#008000" height="32" style="stroke: #A80036; stroke-width: 1.5;" width="333" x="312" y="374.6406"/><ellipse cx="327" cy="390.6406" fill="#ADD1B2" rx="11" ry="11" style="stroke: #A80036; stroke-width: 1.0;"/><path d="M329.7656,386.5156 Q329.9219,386.2969 330.1094,386.1875 Q330.2969,386.0781 330.5156,386.0781 Q330.8906,386.0781 331.125,386.3359 Q331.3594,386.5938 331.3594,387.2031 L331.3594,388.6563 Q331.3594,389.2656 331.125,389.5313 Q330.8906,389.7969 330.5156,389.7969 Q330.1719,389.7969 329.9688,389.5938 Q329.7656,389.4063 329.6563,388.8906 Q329.6094,388.5313 329.4219,388.3438 Q329.0938,387.9688 328.4844,387.75 Q327.875,387.5313 327.25,387.5313 Q326.4844,387.5313 325.8516,387.8594 Q325.2188,388.1875 324.7266,388.9375 Q324.2344,389.6875 324.2344,390.7188 L324.2344,391.8125 Q324.2344,393.0469 325.125,393.8672 Q326.0156,394.6875 327.6094,394.6875 Q328.5469,394.6875 329.2031,394.4375 Q329.5938,394.2813 330.0156,393.8438 Q330.2813,393.5781 330.4297,393.5 Q330.5781,393.4219 330.7813,393.4219 Q331.1094,393.4219 331.3672,393.6797 Q331.625,393.9375 331.625,394.2813 Q331.625,394.625 331.2813,395.0313 Q330.7813,395.6094 329.9844,395.9375 Q328.9063,396.3906 327.6094,396.3906 Q326.0938,396.3906 324.8906,395.7656 Q323.9063,395.2656 323.2188,394.1953 Q322.5313,393.125 322.5313,391.8438 L322.5313,390.6875 Q322.5313,389.3594 323.1484,388.2109 Q323.7656,387.0625 324.8594,386.4453 Q325.9531,385.8281 327.1875,385.8281 Q327.9219,385.8281 328.5703,385.9922 Q329.2188,386.1563 329.7656,386.5156 Z "/><text fill="#000000" font-family="sans-serif" font-size="12" lengthAdjust="spacingAndGlyphs" textLength="301" x="341" y="395.5508">Architecture Description (Design View and deployment)</text><line style="stroke: #A80036; stroke-width: 1.5;" x1="313" x2="644" y1="406.6406" y2="406.6406"/><line style="stroke: #A80036; stroke-width: 1.5;" x1="313" x2="644" y1="414.6406" y2="414.6406"/><!--class Component--><rect fill="#008000" filter="url(#fvugmske1da6d)" height="48" id="Component" style="stroke: #A80036; stroke-width: 1.5;" width="145" x="680" y="374.6406"/><rect fill="#008000" height="32" style="stroke: #A80036; stroke-width: 1.5;" width="145" x="680" y="374.6406"/><ellipse cx="695" cy="390.6406" fill="#ADD1B2" rx="11" ry="11" style="stroke: #A80036; stroke-width: 1.0;"/><path d="M697.7656,386.5156 Q697.9219,386.2969 698.1094,386.1875 Q698.2969,386.0781 698.5156,386.0781 Q698.8906,386.0781 699.125,386.3359 Q699.3594,386.5938 699.3594,387.2031 L699.3594,388.6563 Q699.3594,389.2656 699.125,389.5313 Q698.8906,389.7969 698.5156,389.7969 Q698.1719,389.7969 697.9688,389.5938 Q697.7656,389.4063 697.6563,388.8906 Q697.6094,388.5313 697.4219,388.3438 Q697.0938,387.9688 696.4844,387.75 Q695.875,387.5313 695.25,387.5313 Q694.4844,387.5313 693.8516,387.8594 Q693.2188,388.1875 692.7266,388.9375 Q692.2344,389.6875 692.2344,390.7188 L692.2344,391.8125 Q692.2344,393.0469 693.125,393.8672 Q694.0156,394.6875 695.6094,394.6875 Q696.5469,394.6875 697.2031,394.4375 Q697.5938,394.2813 698.0156,393.8438 Q698.2813,393.5781 698.4297,393.5 Q698.5781,393.4219 698.7813,393.4219 Q699.1094,393.4219 699.3672,393.6797 Q699.625,393.9375 699.625,394.2813 Q699.625,394.625 699.2813,395.0313 Q698.7813,395.6094 697.9844,395.9375 Q696.9063,396.3906 695.6094,396.3906 Q694.0938,396.3906 692.8906,395.7656 Q691.9063,395.2656 691.2188,394.1953 Q690.5313,393.125 690.5313,391.8438 L690.5313,390.6875 Q690.5313,389.3594 691.1484,388.2109 Q691.7656,387.0625 692.8594,386.4453 Q693.9531,385.8281 695.1875,385.8281 Q695.9219,385.8281 696.5703,385.9922 Q697.2188,386.1563 697.7656,386.5156 Z "/><text fill="#000000" font-family="sans-serif" font-size="12" lengthAdjust="spacingAndGlyphs" textLength="113" x="709" y="395.5508">Component (outline)</text><line style="stroke: #A80036; stroke-width: 1.5;" x1="681" x2="824" y1="406.6406" y2="406.6406"/><line style="stroke: #A80036; stroke-width: 1.5;" x1="681" x2="824" y1="414.6406" y2="414.6406"/><!--class ArchitectureDescription--><rect fill="#008000" filter="url(#fvugmske1da6d)" height="48" id="ArchitectureDescription" style="stroke: #A80036; stroke-width: 1.5;" width="379" x="860" y="374.6406"/><rect fill="#008000" height="32" style="stroke: #A80036; stroke-width: 1.5;" width="379" x="860" y="374.6406"/><ellipse cx="875" cy="390.6406" fill="#ADD1B2" rx="11" ry="11" style="stroke: #A80036; stroke-width: 1.0;"/><path d="M877.7656,386.5156 Q877.9219,386.2969 878.1094,386.1875 Q878.2969,386.0781 878.5156,386.0781 Q878.8906,386.0781 879.125,386.3359 Q879.3594,386.5938 879.3594,387.2031 L879.3594,388.6563 Q879.3594,389.2656 879.125,389.5313 Q878.8906,389.7969 878.5156,389.7969 Q878.1719,389.7969 877.9688,389.5938 Q877.7656,389.4063 877.6563,388.8906 Q877.6094,388.5313 877.4219,388.3438 Q877.0938,387.9688 876.4844,387.75 Q875.875,387.5313 875.25,387.5313 Q874.4844,387.5313 873.8516,387.8594 Q873.2188,388.1875 872.7266,388.9375 Q872.2344,389.6875 872.2344,390.7188 L872.2344,391.8125 Q872.2344,393.0469 873.125,393.8672 Q874.0156,394.6875 875.6094,394.6875 Q876.5469,394.6875 877.2031,394.4375 Q877.5938,394.2813 878.0156,393.8438 Q878.2813,393.5781 878.4297,393.5 Q878.5781,393.4219 878.7813,393.4219 Q879.1094,393.4219 879.3672,393.6797 Q879.625,393.9375 879.625,394.2813 Q879.625,394.625 879.2813,395.0313 Q878.7813,395.6094 877.9844,395.9375 Q876.9063,396.3906 875.6094,396.3906 Q874.0938,396.3906 872.8906,395.7656 Q871.9063,395.2656 871.2188,394.1953 Q870.5313,393.125 870.5313,391.8438 L870.5313,390.6875 Q870.5313,389.3594 871.1484,388.2109 Q871.7656,387.0625 872.8594,386.4453 Q873.9531,385.8281 875.1875,385.8281 Q875.9219,385.8281 876.5703,385.9922 Q877.2188,386.1563 877.7656,386.5156 Z "/><text fill="#000000" font-family="sans-serif" font-size="12" lengthAdjust="spacingAndGlyphs" textLength="347" x="889" y="395.5508">Architecture Description (Implementation View and deployment)</text><line style="stroke: #A80036; stroke-width: 1.5;" x1="861" x2="1238" y1="406.6406" y2="406.6406"/><line style="stroke: #A80036; stroke-width: 1.5;" x1="861" x2="1238" y1="414.6406" y2="414.6406"/><!--class ImplementationRole--><rect fill="#0000FF" filter="url(#fvugmske1da6d)" height="48" id="ImplementationRole" style="stroke: #A80036; stroke-width: 1.5;" width="144" x="968.5" y="248.6406"/><rect fill="#0000FF" height="32" style="stroke: #A80036; stroke-width: 1.5;" width="144" x="968.5" y="248.6406"/><ellipse cx="983.5" cy="264.6406" fill="#ADD1B2" rx="11" ry="11" style="stroke: #A80036; stroke-width: 1.0;"/><path d="M986.2656,260.5156 Q986.4219,260.2969 986.6094,260.1875 Q986.7969,260.0781 987.0156,260.0781 Q987.3906,260.0781 987.625,260.3359 Q987.8594,260.5938 987.8594,261.2031 L987.8594,262.6563 Q987.8594,263.2656 987.625,263.5313 Q987.3906,263.7969 987.0156,263.7969 Q986.6719,263.7969 986.4688,263.5938 Q986.2656,263.4063 986.1563,262.8906 Q986.1094,262.5313 985.9219,262.3438 Q985.5938,261.9688 984.9844,261.75 Q984.375,261.5313 983.75,261.5313 Q982.9844,261.5313 982.3516,261.8594 Q981.7188,262.1875 981.2266,262.9375 Q980.7344,263.6875 980.7344,264.7188 L980.7344,265.8125 Q980.7344,267.0469 981.625,267.8672 Q982.5156,268.6875 984.1094,268.6875 Q985.0469,268.6875 985.7031,268.4375 Q986.0938,268.2813 986.5156,267.8438 Q986.7813,267.5781 986.9297,267.5 Q987.0781,267.4219 987.2813,267.4219 Q987.6094,267.4219 987.8672,267.6797 Q988.125,267.9375 988.125,268.2813 Q988.125,268.625 987.7813,269.0313 Q987.2813,269.6094 986.4844,269.9375 Q985.4063,270.3906 984.1094,270.3906 Q982.5938,270.3906 981.3906,269.7656 Q980.4063,269.2656 979.7188,268.1953 Q979.0313,267.125 979.0313,265.8438 L979.0313,264.6875 Q979.0313,263.3594 979.6484,262.2109 Q980.2656,261.0625 981.3594,260.4453 Q982.4531,259.8281 983.6875,259.8281 Q984.4219,259.8281 985.0703,259.9922 Q985.7188,260.1563 986.2656,260.5156 Z "/><text fill="#000000" font-family="sans-serif" font-size="12" lengthAdjust="spacingAndGlyphs" textLength="112" x="997.5" y="269.5508">ImplementationRole</text><line style="stroke: #A80036; stroke-width: 1.5;" x1="969.5" x2="1111.5" y1="280.6406" y2="280.6406"/><line style="stroke: #A80036; stroke-width: 1.5;" x1="969.5" x2="1111.5" y1="288.6406" y2="288.6406"/><!--class ImplementArchitecture--><rect fill="#FF0000" filter="url(#fvugmske1da6d)" height="48" id="ImplementArchitecture" style="stroke: #A80036; stroke-width: 1.5;" width="178" x="663.5" y="248.6406"/><rect fill="#FF0000" height="32" style="stroke: #A80036; stroke-width: 1.5;" width="178" x="663.5" y="248.6406"/><ellipse cx="678.5" cy="264.6406" fill="#ADD1B2" rx="11" ry="11" style="stroke: #A80036; stroke-width: 1.0;"/><path d="M681.2656,260.5156 Q681.4219,260.2969 681.6094,260.1875 Q681.7969,260.0781 682.0156,260.0781 Q682.3906,260.0781 682.625,260.3359 Q682.8594,260.5938 682.8594,261.2031 L682.8594,262.6563 Q682.8594,263.2656 682.625,263.5313 Q682.3906,263.7969 682.0156,263.7969 Q681.6719,263.7969 681.4688,263.5938 Q681.2656,263.4063 681.1563,262.8906 Q681.1094,262.5313 680.9219,262.3438 Q680.5938,261.9688 679.9844,261.75 Q679.375,261.5313 678.75,261.5313 Q677.9844,261.5313 677.3516,261.8594 Q676.7188,262.1875 676.2266,262.9375 Q675.7344,263.6875 675.7344,264.7188 L675.7344,265.8125 Q675.7344,267.0469 676.625,267.8672 Q677.5156,268.6875 679.1094,268.6875 Q680.0469,268.6875 680.7031,268.4375 Q681.0938,268.2813 681.5156,267.8438 Q681.7813,267.5781 681.9297,267.5 Q682.0781,267.4219 682.2813,267.4219 Q682.6094,267.4219 682.8672,267.6797 Q683.125,267.9375 683.125,268.2813 Q683.125,268.625 682.7813,269.0313 Q682.2813,269.6094 681.4844,269.9375 Q680.4063,270.3906 679.1094,270.3906 Q677.5938,270.3906 676.3906,269.7656 Q675.4063,269.2656 674.7188,268.1953 Q674.0313,267.125 674.0313,265.8438 L674.0313,264.6875 Q674.0313,263.3594 674.6484,262.2109 Q675.2656,261.0625 676.3594,260.4453 Q677.4531,259.8281 678.6875,259.8281 Q679.4219,259.8281 680.0703,259.9922 Q680.7188,260.1563 681.2656,260.5156 Z "/><text fill="#000000" font-family="sans-serif" font-size="12" lengthAdjust="spacingAndGlyphs" textLength="146" x="692.5" y="269.5508">Implement the Architecture</text><line style="stroke: #A80036; stroke-width: 1.5;" x1="664.5" x2="840.5" y1="280.6406" y2="280.6406"/><line style="stroke: #A80036; stroke-width: 1.5;" x1="664.5" x2="840.5" y1="288.6406" y2="288.6406"/><!--class Architect--><rect fill="#0000FF" filter="url(#fvugmske1da6d)" height="48" id="Architect" style="stroke: #A80036; stroke-width: 1.5;" width="78" x="1274.5" y="374.6406"/><rect fill="#0000FF" height="32" style="stroke: #A80036; stroke-width: 1.5;" width="78" x="1274.5" y="374.6406"/><ellipse cx="1289.5" cy="390.6406" fill="#ADD1B2" rx="11" ry="11" style="stroke: #A80036; stroke-width: 1.0;"/><path d="M1292.2656,386.5156 Q1292.4219,386.2969 1292.6094,386.1875 Q1292.7969,386.0781 1293.0156,386.0781 Q1293.3906,386.0781 1293.625,386.3359 Q1293.8594,386.5938 1293.8594,387.2031 L1293.8594,388.6563 Q1293.8594,389.2656 1293.625,389.5313 Q1293.3906,389.7969 1293.0156,389.7969 Q1292.6719,389.7969 1292.4688,389.5938 Q1292.2656,389.4063 1292.1563,388.8906 Q1292.1094,388.5313 1291.9219,388.3438 Q1291.5938,387.9688 1290.9844,387.75 Q1290.375,387.5313 1289.75,387.5313 Q1288.9844,387.5313 1288.3516,387.8594 Q1287.7188,388.1875 1287.2266,388.9375 Q1286.7344,389.6875 1286.7344,390.7188 L1286.7344,391.8125 Q1286.7344,393.0469 1287.625,393.8672 Q1288.5156,394.6875 1290.1094,394.6875 Q1291.0469,394.6875 1291.7031,394.4375 Q1292.0938,394.2813 1292.5156,393.8438 Q1292.7813,393.5781 1292.9297,393.5 Q1293.0781,393.4219 1293.2813,393.4219 Q1293.6094,393.4219 1293.8672,393.6797 Q1294.125,393.9375 1294.125,394.2813 Q1294.125,394.625 1293.7813,395.0313 Q1293.2813,395.6094 1292.4844,395.9375 Q1291.4063,396.3906 1290.1094,396.3906 Q1288.5938,396.3906 1287.3906,395.7656 Q1286.4063,395.2656 1285.7188,394.1953 Q1285.0313,393.125 1285.0313,391.8438 L1285.0313,390.6875 Q1285.0313,389.3594 1285.6484,388.2109 Q1286.2656,387.0625 1287.3594,386.4453 Q1288.4531,385.8281 1289.6875,385.8281 Q1290.4219,385.8281 1291.0703,385.9922 Q1291.7188,386.1563 1292.2656,386.5156 Z "/><text fill="#000000" font-family="sans-serif" font-size="12" lengthAdjust="spacingAndGlyphs" textLength="46" x="1303.5" y="395.5508">Architect</text><line style="stroke: #A80036; stroke-width: 1.5;" x1="1275.5" x2="1351.5" y1="406.6406" y2="406.6406"/><line style="stroke: #A80036; stroke-width: 1.5;" x1="1275.5" x2="1351.5" y1="414.6406" y2="414.6406"/><!--link Activity to ImplementationActivity--><path d="M943.232,95.7936 C933.589,110.5336 923.001,126.7166 914.659,139.4686 " fill="none" id="Activity-ImplementationActivity" style="stroke: #A80036; stroke-width: 1.0;"/><polygon fill="none" points="937.504,91.7626,954.311,78.8576,949.22,99.4266,937.504,91.7626" style="stroke: #A80036; stroke-width: 1.0;"/><!--link Activity to Role--><path d="M984.906,78.8576 C995.885,95.4036 1010.69,117.7106 1022.26,135.1466 " fill="none" id="Activity-Role" style="stroke: #A80036; stroke-width: 1.0;"/><polygon fill="#A80036" points="1025.12,139.4686,1023.4828,129.7568,1022.358,135.3007,1016.8141,134.1759,1025.12,139.4686" style="stroke: #A80036; stroke-width: 1.0;"/><!--link ImplementationActivity to ImplementationRole--><path d="M930.095,187.8576 C952.36,204.7536 982.542,227.6576 1005.722,245.2486 " fill="none" id="ImplementationActivity-ImplementationRole" style="stroke: #A80036; stroke-width: 1.0;"/><polygon fill="#A80036" points="1009.96,248.4686,1005.2092,239.8413,1005.9772,245.4458,1000.3727,246.2138,1009.96,248.4686" style="stroke: #A80036; stroke-width: 1.0;"/><!--link ImplementationActivity to ImplementArchitecture--><path d="M851.257,199.7566 C829.28,215.7526 803.874,234.2456 784.335,248.4686 " fill="none" id="ImplementationActivity-ImplementArchitecture" style="stroke: #A80036; stroke-width: 1.0;"/><polygon fill="none" points="847.314,193.9686,867.603,187.8576,855.553,205.2876,847.314,193.9686" style="stroke: #A80036; stroke-width: 1.0;"/><!--link ImplementArchitecture to DesignModel--><path d="M663.484,283.3886 C541.582,297.7916 316.399,328.1714 128.5,374.6406 C124.394,375.656 120.182,376.7927 115.958,378.0025 " fill="none" id="ImplementArchitecture-DesignModel" style="stroke: #A80036; stroke-width: 1.0;"/><polygon fill="#A80036" points="111,379.4534,120.7612,380.7647,115.7987,378.0491,118.5143,373.0867,111,379.4534" style="stroke: #A80036; stroke-width: 1.0;"/><text fill="#000000" font-family="sans-serif" font-size="13" lengthAdjust="spacingAndGlyphs" textLength="10" x="351.5" y="341.1357">in</text><!--link ImplementArchitecture to DeploymentModel--><path d="M663.086,291.8866 C570.531,311.1186 421.918,342.9609 294.5,374.6406 C290.432,375.6519 286.26,376.7175 282.056,377.8134 " fill="none" id="ImplementArchitecture-DeploymentModel" style="stroke: #A80036; stroke-width: 1.0;"/><polygon fill="#A80036" points="277.109,379.1124,286.8298,380.6952,281.945,377.8424,284.7978,372.9576,277.109,379.1124" style="stroke: #A80036; stroke-width: 1.0;"/><text fill="#000000" font-family="sans-serif" font-size="13" lengthAdjust="spacingAndGlyphs" textLength="10" x="496.5" y="341.1357">in</text><!--link ImplementArchitecture to ArchitectureDescriptionX--><path d="M701.605,296.6736 C654.078,318.1816 583.301,350.2122 534.263,372.4048 " fill="none" id="ImplementArchitecture-ArchitectureDescriptionX" style="stroke: #A80036; stroke-width: 1.0;"/><polygon fill="#A80036" points="529.587,374.521,539.4356,374.452,534.1417,372.4584,536.1354,367.1645,529.587,374.521" style="stroke: #A80036; stroke-width: 1.0;"/><text fill="#000000" font-family="sans-serif" font-size="13" lengthAdjust="spacingAndGlyphs" textLength="10" x="633.5" y="341.1357">in</text><!--link ImplementArchitecture to Component--><path d="M752.5,296.6736 C752.5,317.1626 752.5,347.2013 752.5,369.187 " fill="none" id="ImplementArchitecture-Component" style="stroke: #A80036; stroke-width: 1.0;"/><polygon fill="#A80036" points="752.5,374.3103,756.5,365.3103,752.5,369.3103,748.5,365.3103,752.5,374.3103" style="stroke: #A80036; stroke-width: 1.0;"/><text fill="#000000" font-family="sans-serif" font-size="13" lengthAdjust="spacingAndGlyphs" textLength="18" x="753.5" y="341.1357">out</text><!--link ImplementArchitecture to ArchitectureDescription--><path d="M807.667,296.6736 C859.369,318.2596 936.453,350.4427 989.629,372.6438 " fill="none" id="ImplementArchitecture-ArchitectureDescription" style="stroke: #A80036; stroke-width: 1.0;"/><polygon fill="#A80036" points="994.377,374.6262,987.6139,367.4666,989.7633,372.6992,984.5307,374.8486,994.377,374.6262" style="stroke: #A80036; stroke-width: 1.0;"/><text fill="#000000" font-family="sans-serif" font-size="13" lengthAdjust="spacingAndGlyphs" textLength="18" x="920.5" y="341.1357">out</text><!--link ImplementArchitecture to Architect--><path d="M841.578,286.3596 C943.257,302.0536 1113.93,331.9959 1256.5,374.6406 C1260.78,375.9207 1265.18,377.3971 1269.56,378.9714 " fill="none" id="ImplementArchitecture-Architect" style="stroke: #A80036; stroke-width: 1.0;"/><polygon fill="#A80036" points="1274.28,380.7135,1267.2179,373.8486,1269.5883,378.9849,1264.4521,381.3553,1274.28,380.7135" style="stroke: #A80036; stroke-width: 1.0;"/><!--link Role to ImplementationRole--><path d="M1040.5,208.2186 C1040.5,222.0026 1040.5,236.6976 1040.5,248.4686 " fill="none" id="Role-ImplementationRole" style="stroke: #A80036; stroke-width: 1.0;"/><polygon fill="none" points="1033.5,207.8576,1040.5,187.8576,1047.5,207.8576,1033.5,207.8576" style="stroke: #A80036; stroke-width: 1.0;"/><!--link ImplementationRole to Architect--><path d="M1131.96,297.2416 C1157.32,305.1856 1184.48,315.0346 1208.5,326.6406 C1235.65,339.7559 1263.81,359.1676 1284.12,374.3804 " fill="none" id="ImplementationRole-Architect" style="stroke: #A80036; stroke-width: 1.0;"/><polygon fill="none" points="1129.69,303.8686,1112.54,291.4126,1133.71,290.4596,1129.69,303.8686" style="stroke: #A80036; stroke-width: 1.0;"/><!--
@startuml
title Implement the Architecture
class Activity #red
Activity <|- - ImplementationActivity
Activity - -> Role

class DesignModel #green
class DeploymentModel #green
class "Architecture Description (Design View and deployment)" as ArchitectureDescriptionX  #green
class "Component (outline)" as Component #green
class "Architecture Description (Implementation View and deployment)" as ArchitectureDescription  #green


class ImplementationActivity #red
ImplementationActivity - -> ImplementationRole

class "Implement the Architecture" as ImplementArchitecture #red
ImplementationActivity <|- - ImplementArchitecture

ImplementArchitecture - -> DesignModel :in
ImplementArchitecture - -> DeploymentModel :in
ImplementArchitecture - -> ArchitectureDescriptionX :in
ImplementArchitecture - -> Component :out
ImplementArchitecture - -> ArchitectureDescription :out


ImplementArchitecture - -> Architect

class Role #blue
class ImplementationRole #blue
class Architect #blue

Role <|- - ImplementationRole
ImplementationRole <|- - Architect
@enduml

PlantUML version 1.2019.05(Sat Apr 20 18:45:36 CEST 2019)
(GPL source distribution)
Java Runtime: OpenJDK Runtime Environment
JVM: OpenJDK 64-Bit Server VM
Java Version: 1.8.0_222-b10
Operating System: Windows 10
OS Version: 10.0
Default Encoding: windows-1252
Language: es
Country: ES
--></g></svg>