<?xml version="1.0" encoding="UTF-8" standalone="no"?><svg xmlns="http://www.w3.org/2000/svg" xmlns:xlink="http://www.w3.org/1999/xlink" contentScriptType="application/ecmascript" contentStyleType="text/css" height="433px" preserveAspectRatio="none" style="width:1933px;height:433px;" version="1.1" viewBox="0 0 1933 433" width="1933px" zoomAndPan="magnify"><defs><filter height="300%" id="f1nhrchexq5tj4" width="300%" x="-1" y="-1"><feGaussianBlur result="blurOut" stdDeviation="2.0"/><feColorMatrix in="blurOut" result="blurOut2" type="matrix" values="0 0 0 0 0 0 0 0 0 0 0 0 0 0 0 0 0 0 .4 0"/><feOffset dx="4.0" dy="4.0" in="blurOut2" result="blurOut3"/><feBlend in="SourceGraphic" in2="blurOut3" mode="normal"/></filter></defs><g><text fill="#000000" font-family="sans-serif" font-size="18" lengthAdjust="spacingAndGlyphs" textLength="174" x="883.5" y="18.6855">Implement Subsystem</text><!--class Activity--><rect fill="#FF0000" filter="url(#f1nhrchexq5tj4)" height="48" id="Activity" style="stroke: #A80036; stroke-width: 1.5;" width="67" x="1432" y="30.6406"/><rect fill="#FF0000" height="32" style="stroke: #A80036; stroke-width: 1.5;" width="67" x="1432" y="30.6406"/><ellipse cx="1447" cy="46.6406" fill="#ADD1B2" rx="11" ry="11" style="stroke: #A80036; stroke-width: 1.0;"/><path d="M1449.7656,42.5156 Q1449.9219,42.2969 1450.1094,42.1875 Q1450.2969,42.0781 1450.5156,42.0781 Q1450.8906,42.0781 1451.125,42.3359 Q1451.3594,42.5938 1451.3594,43.2031 L1451.3594,44.6563 Q1451.3594,45.2656 1451.125,45.5313 Q1450.8906,45.7969 1450.5156,45.7969 Q1450.1719,45.7969 1449.9688,45.5938 Q1449.7656,45.4063 1449.6563,44.8906 Q1449.6094,44.5313 1449.4219,44.3438 Q1449.0938,43.9688 1448.4844,43.75 Q1447.875,43.5313 1447.25,43.5313 Q1446.4844,43.5313 1445.8516,43.8594 Q1445.2188,44.1875 1444.7266,44.9375 Q1444.2344,45.6875 1444.2344,46.7188 L1444.2344,47.8125 Q1444.2344,49.0469 1445.125,49.8672 Q1446.0156,50.6875 1447.6094,50.6875 Q1448.5469,50.6875 1449.2031,50.4375 Q1449.5938,50.2813 1450.0156,49.8438 Q1450.2813,49.5781 1450.4297,49.5 Q1450.5781,49.4219 1450.7813,49.4219 Q1451.1094,49.4219 1451.3672,49.6797 Q1451.625,49.9375 1451.625,50.2813 Q1451.625,50.625 1451.2813,51.0313 Q1450.7813,51.6094 1449.9844,51.9375 Q1448.9063,52.3906 1447.6094,52.3906 Q1446.0938,52.3906 1444.8906,51.7656 Q1443.9063,51.2656 1443.2188,50.1953 Q1442.5313,49.125 1442.5313,47.8438 L1442.5313,46.6875 Q1442.5313,45.3594 1443.1484,44.2109 Q1443.7656,43.0625 1444.8594,42.4453 Q1445.9531,41.8281 1447.1875,41.8281 Q1447.9219,41.8281 1448.5703,41.9922 Q1449.2188,42.1563 1449.7656,42.5156 Z "/><text fill="#000000" font-family="sans-serif" font-size="12" lengthAdjust="spacingAndGlyphs" textLength="35" x="1461" y="51.5508">Activity</text><line style="stroke: #A80036; stroke-width: 1.5;" x1="1433" x2="1498" y1="62.6406" y2="62.6406"/><line style="stroke: #A80036; stroke-width: 1.5;" x1="1433" x2="1498" y1="70.6406" y2="70.6406"/><!--class ImplementationActivity--><rect fill="#FF0000" filter="url(#f1nhrchexq5tj4)" height="48" id="ImplementationActivity" style="stroke: #A80036; stroke-width: 1.5;" width="153" x="1319" y="139.6406"/><rect fill="#FF0000" height="32" style="stroke: #A80036; stroke-width: 1.5;" width="153" x="1319" y="139.6406"/><ellipse cx="1334" cy="155.6406" fill="#ADD1B2" rx="11" ry="11" style="stroke: #A80036; stroke-width: 1.0;"/><path d="M1336.7656,151.5156 Q1336.9219,151.2969 1337.1094,151.1875 Q1337.2969,151.0781 1337.5156,151.0781 Q1337.8906,151.0781 1338.125,151.3359 Q1338.3594,151.5938 1338.3594,152.2031 L1338.3594,153.6563 Q1338.3594,154.2656 1338.125,154.5313 Q1337.8906,154.7969 1337.5156,154.7969 Q1337.1719,154.7969 1336.9688,154.5938 Q1336.7656,154.4063 1336.6563,153.8906 Q1336.6094,153.5313 1336.4219,153.3438 Q1336.0938,152.9688 1335.4844,152.75 Q1334.875,152.5313 1334.25,152.5313 Q1333.4844,152.5313 1332.8516,152.8594 Q1332.2188,153.1875 1331.7266,153.9375 Q1331.2344,154.6875 1331.2344,155.7188 L1331.2344,156.8125 Q1331.2344,158.0469 1332.125,158.8672 Q1333.0156,159.6875 1334.6094,159.6875 Q1335.5469,159.6875 1336.2031,159.4375 Q1336.5938,159.2813 1337.0156,158.8438 Q1337.2813,158.5781 1337.4297,158.5 Q1337.5781,158.4219 1337.7813,158.4219 Q1338.1094,158.4219 1338.3672,158.6797 Q1338.625,158.9375 1338.625,159.2813 Q1338.625,159.625 1338.2813,160.0313 Q1337.7813,160.6094 1336.9844,160.9375 Q1335.9063,161.3906 1334.6094,161.3906 Q1333.0938,161.3906 1331.8906,160.7656 Q1330.9063,160.2656 1330.2188,159.1953 Q1329.5313,158.125 1329.5313,156.8438 L1329.5313,155.6875 Q1329.5313,154.3594 1330.1484,153.2109 Q1330.7656,152.0625 1331.8594,151.4453 Q1332.9531,150.8281 1334.1875,150.8281 Q1334.9219,150.8281 1335.5703,150.9922 Q1336.2188,151.1563 1336.7656,151.5156 Z "/><text fill="#000000" font-family="sans-serif" font-size="12" lengthAdjust="spacingAndGlyphs" textLength="121" x="1348" y="160.5508">ImplementationActivity</text><line style="stroke: #A80036; stroke-width: 1.5;" x1="1320" x2="1471" y1="171.6406" y2="171.6406"/><line style="stroke: #A80036; stroke-width: 1.5;" x1="1320" x2="1471" y1="179.6406" y2="179.6406"/><!--class Role--><rect fill="#0000FF" filter="url(#f1nhrchexq5tj4)" height="48" id="Role" style="stroke: #A80036; stroke-width: 1.5;" width="58" x="1507.5" y="139.6406"/><rect fill="#0000FF" height="32" style="stroke: #A80036; stroke-width: 1.5;" width="58" x="1507.5" y="139.6406"/><ellipse cx="1522.5" cy="155.6406" fill="#ADD1B2" rx="11" ry="11" style="stroke: #A80036; stroke-width: 1.0;"/><path d="M1525.2656,151.5156 Q1525.4219,151.2969 1525.6094,151.1875 Q1525.7969,151.0781 1526.0156,151.0781 Q1526.3906,151.0781 1526.625,151.3359 Q1526.8594,151.5938 1526.8594,152.2031 L1526.8594,153.6563 Q1526.8594,154.2656 1526.625,154.5313 Q1526.3906,154.7969 1526.0156,154.7969 Q1525.6719,154.7969 1525.4688,154.5938 Q1525.2656,154.4063 1525.1563,153.8906 Q1525.1094,153.5313 1524.9219,153.3438 Q1524.5938,152.9688 1523.9844,152.75 Q1523.375,152.5313 1522.75,152.5313 Q1521.9844,152.5313 1521.3516,152.8594 Q1520.7188,153.1875 1520.2266,153.9375 Q1519.7344,154.6875 1519.7344,155.7188 L1519.7344,156.8125 Q1519.7344,158.0469 1520.625,158.8672 Q1521.5156,159.6875 1523.1094,159.6875 Q1524.0469,159.6875 1524.7031,159.4375 Q1525.0938,159.2813 1525.5156,158.8438 Q1525.7813,158.5781 1525.9297,158.5 Q1526.0781,158.4219 1526.2813,158.4219 Q1526.6094,158.4219 1526.8672,158.6797 Q1527.125,158.9375 1527.125,159.2813 Q1527.125,159.625 1526.7813,160.0313 Q1526.2813,160.6094 1525.4844,160.9375 Q1524.4063,161.3906 1523.1094,161.3906 Q1521.5938,161.3906 1520.3906,160.7656 Q1519.4063,160.2656 1518.7188,159.1953 Q1518.0313,158.125 1518.0313,156.8438 L1518.0313,155.6875 Q1518.0313,154.3594 1518.6484,153.2109 Q1519.2656,152.0625 1520.3594,151.4453 Q1521.4531,150.8281 1522.6875,150.8281 Q1523.4219,150.8281 1524.0703,150.9922 Q1524.7188,151.1563 1525.2656,151.5156 Z "/><text fill="#000000" font-family="sans-serif" font-size="12" lengthAdjust="spacingAndGlyphs" textLength="26" x="1536.5" y="160.5508">Role</text><line style="stroke: #A80036; stroke-width: 1.5;" x1="1508.5" x2="1564.5" y1="171.6406" y2="171.6406"/><line style="stroke: #A80036; stroke-width: 1.5;" x1="1508.5" x2="1564.5" y1="179.6406" y2="179.6406"/><!--class IntegrationPlanConstructions--><rect fill="#008000" filter="url(#f1nhrchexq5tj4)" height="48" id="IntegrationPlanConstructions" style="stroke: #A80036; stroke-width: 1.5;" width="211" x="6" y="374.6406"/><rect fill="#008000" height="32" style="stroke: #A80036; stroke-width: 1.5;" width="211" x="6" y="374.6406"/><ellipse cx="21" cy="390.6406" fill="#ADD1B2" rx="11" ry="11" style="stroke: #A80036; stroke-width: 1.0;"/><path d="M23.7656,386.5156 Q23.9219,386.2969 24.1094,386.1875 Q24.2969,386.0781 24.5156,386.0781 Q24.8906,386.0781 25.125,386.3359 Q25.3594,386.5938 25.3594,387.2031 L25.3594,388.6563 Q25.3594,389.2656 25.125,389.5313 Q24.8906,389.7969 24.5156,389.7969 Q24.1719,389.7969 23.9688,389.5938 Q23.7656,389.4063 23.6563,388.8906 Q23.6094,388.5313 23.4219,388.3438 Q23.0938,387.9688 22.4844,387.75 Q21.875,387.5313 21.25,387.5313 Q20.4844,387.5313 19.8516,387.8594 Q19.2188,388.1875 18.7266,388.9375 Q18.2344,389.6875 18.2344,390.7188 L18.2344,391.8125 Q18.2344,393.0469 19.125,393.8672 Q20.0156,394.6875 21.6094,394.6875 Q22.5469,394.6875 23.2031,394.4375 Q23.5938,394.2813 24.0156,393.8438 Q24.2813,393.5781 24.4297,393.5 Q24.5781,393.4219 24.7813,393.4219 Q25.1094,393.4219 25.3672,393.6797 Q25.625,393.9375 25.625,394.2813 Q25.625,394.625 25.2813,395.0313 Q24.7813,395.6094 23.9844,395.9375 Q22.9063,396.3906 21.6094,396.3906 Q20.0938,396.3906 18.8906,395.7656 Q17.9063,395.2656 17.2188,394.1953 Q16.5313,393.125 16.5313,391.8438 L16.5313,390.6875 Q16.5313,389.3594 17.1484,388.2109 Q17.7656,387.0625 18.8594,386.4453 Q19.9531,385.8281 21.1875,385.8281 Q21.9219,385.8281 22.5703,385.9922 Q23.2188,386.1563 23.7656,386.5156 Z "/><text fill="#000000" font-family="sans-serif" font-size="12" lengthAdjust="spacingAndGlyphs" textLength="179" x="35" y="395.5508">Integration Plan of Constructions</text><line style="stroke: #A80036; stroke-width: 1.5;" x1="7" x2="216" y1="406.6406" y2="406.6406"/><line style="stroke: #A80036; stroke-width: 1.5;" x1="7" x2="216" y1="414.6406" y2="414.6406"/><!--class ArchitectureDescription--><rect fill="#008000" filter="url(#f1nhrchexq5tj4)" height="48" id="ArchitectureDescription" style="stroke: #A80036; stroke-width: 1.5;" width="332" x="252.5" y="374.6406"/><rect fill="#008000" height="32" style="stroke: #A80036; stroke-width: 1.5;" width="332" x="252.5" y="374.6406"/><ellipse cx="267.5" cy="390.6406" fill="#ADD1B2" rx="11" ry="11" style="stroke: #A80036; stroke-width: 1.0;"/><path d="M270.2656,386.5156 Q270.4219,386.2969 270.6094,386.1875 Q270.7969,386.0781 271.0156,386.0781 Q271.3906,386.0781 271.625,386.3359 Q271.8594,386.5938 271.8594,387.2031 L271.8594,388.6563 Q271.8594,389.2656 271.625,389.5313 Q271.3906,389.7969 271.0156,389.7969 Q270.6719,389.7969 270.4688,389.5938 Q270.2656,389.4063 270.1563,388.8906 Q270.1094,388.5313 269.9219,388.3438 Q269.5938,387.9688 268.9844,387.75 Q268.375,387.5313 267.75,387.5313 Q266.9844,387.5313 266.3516,387.8594 Q265.7188,388.1875 265.2266,388.9375 Q264.7344,389.6875 264.7344,390.7188 L264.7344,391.8125 Q264.7344,393.0469 265.625,393.8672 Q266.5156,394.6875 268.1094,394.6875 Q269.0469,394.6875 269.7031,394.4375 Q270.0938,394.2813 270.5156,393.8438 Q270.7813,393.5781 270.9297,393.5 Q271.0781,393.4219 271.2813,393.4219 Q271.6094,393.4219 271.8672,393.6797 Q272.125,393.9375 272.125,394.2813 Q272.125,394.625 271.7813,395.0313 Q271.2813,395.6094 270.4844,395.9375 Q269.4063,396.3906 268.1094,396.3906 Q266.5938,396.3906 265.3906,395.7656 Q264.4063,395.2656 263.7188,394.1953 Q263.0313,393.125 263.0313,391.8438 L263.0313,390.6875 Q263.0313,389.3594 263.6484,388.2109 Q264.2656,387.0625 265.3594,386.4453 Q266.4531,385.8281 267.6875,385.8281 Q268.4219,385.8281 269.0703,385.9922 Q269.7188,386.1563 270.2656,386.5156 Z "/><text fill="#000000" font-family="sans-serif" font-size="12" lengthAdjust="spacingAndGlyphs" textLength="300" x="281.5" y="395.5508">Architecture Description(Model view of implementation)</text><line style="stroke: #A80036; stroke-width: 1.5;" x1="253.5" x2="583.5" y1="406.6406" y2="406.6406"/><line style="stroke: #A80036; stroke-width: 1.5;" x1="253.5" x2="583.5" y1="414.6406" y2="414.6406"/><!--class SubsystemDesign--><rect fill="#008000" filter="url(#f1nhrchexq5tj4)" height="48" id="SubsystemDesign" style="stroke: #A80036; stroke-width: 1.5;" width="200" x="619.5" y="374.6406"/><rect fill="#008000" height="32" style="stroke: #A80036; stroke-width: 1.5;" width="200" x="619.5" y="374.6406"/><ellipse cx="634.5" cy="390.6406" fill="#ADD1B2" rx="11" ry="11" style="stroke: #A80036; stroke-width: 1.0;"/><path d="M637.2656,386.5156 Q637.4219,386.2969 637.6094,386.1875 Q637.7969,386.0781 638.0156,386.0781 Q638.3906,386.0781 638.625,386.3359 Q638.8594,386.5938 638.8594,387.2031 L638.8594,388.6563 Q638.8594,389.2656 638.625,389.5313 Q638.3906,389.7969 638.0156,389.7969 Q637.6719,389.7969 637.4688,389.5938 Q637.2656,389.4063 637.1563,388.8906 Q637.1094,388.5313 636.9219,388.3438 Q636.5938,387.9688 635.9844,387.75 Q635.375,387.5313 634.75,387.5313 Q633.9844,387.5313 633.3516,387.8594 Q632.7188,388.1875 632.2266,388.9375 Q631.7344,389.6875 631.7344,390.7188 L631.7344,391.8125 Q631.7344,393.0469 632.625,393.8672 Q633.5156,394.6875 635.1094,394.6875 Q636.0469,394.6875 636.7031,394.4375 Q637.0938,394.2813 637.5156,393.8438 Q637.7813,393.5781 637.9297,393.5 Q638.0781,393.4219 638.2813,393.4219 Q638.6094,393.4219 638.8672,393.6797 Q639.125,393.9375 639.125,394.2813 Q639.125,394.625 638.7813,395.0313 Q638.2813,395.6094 637.4844,395.9375 Q636.4063,396.3906 635.1094,396.3906 Q633.5938,396.3906 632.3906,395.7656 Q631.4063,395.2656 630.7188,394.1953 Q630.0313,393.125 630.0313,391.8438 L630.0313,390.6875 Q630.0313,389.3594 630.6484,388.2109 Q631.2656,387.0625 632.3594,386.4453 Q633.4531,385.8281 634.6875,385.8281 Q635.4219,385.8281 636.0703,385.9922 Q636.7188,386.1563 637.2656,386.5156 Z "/><text fill="#000000" font-family="sans-serif" font-size="12" lengthAdjust="spacingAndGlyphs" textLength="168" x="648.5" y="395.5508">Subsystem Design (designed)</text><line style="stroke: #A80036; stroke-width: 1.5;" x1="620.5" x2="818.5" y1="406.6406" y2="406.6406"/><line style="stroke: #A80036; stroke-width: 1.5;" x1="620.5" x2="818.5" y1="414.6406" y2="414.6406"/><!--class Interface--><rect fill="#008000" filter="url(#f1nhrchexq5tj4)" height="48" id="Interface" style="stroke: #A80036; stroke-width: 1.5;" width="142" x="854.5" y="374.6406"/><rect fill="#008000" height="32" style="stroke: #A80036; stroke-width: 1.5;" width="142" x="854.5" y="374.6406"/><ellipse cx="869.5" cy="390.6406" fill="#ADD1B2" rx="11" ry="11" style="stroke: #A80036; stroke-width: 1.0;"/><path d="M872.2656,386.5156 Q872.4219,386.2969 872.6094,386.1875 Q872.7969,386.0781 873.0156,386.0781 Q873.3906,386.0781 873.625,386.3359 Q873.8594,386.5938 873.8594,387.2031 L873.8594,388.6563 Q873.8594,389.2656 873.625,389.5313 Q873.3906,389.7969 873.0156,389.7969 Q872.6719,389.7969 872.4688,389.5938 Q872.2656,389.4063 872.1563,388.8906 Q872.1094,388.5313 871.9219,388.3438 Q871.5938,387.9688 870.9844,387.75 Q870.375,387.5313 869.75,387.5313 Q868.9844,387.5313 868.3516,387.8594 Q867.7188,388.1875 867.2266,388.9375 Q866.7344,389.6875 866.7344,390.7188 L866.7344,391.8125 Q866.7344,393.0469 867.625,393.8672 Q868.5156,394.6875 870.1094,394.6875 Q871.0469,394.6875 871.7031,394.4375 Q872.0938,394.2813 872.5156,393.8438 Q872.7813,393.5781 872.9297,393.5 Q873.0781,393.4219 873.2813,393.4219 Q873.6094,393.4219 873.8672,393.6797 Q874.125,393.9375 874.125,394.2813 Q874.125,394.625 873.7813,395.0313 Q873.2813,395.6094 872.4844,395.9375 Q871.4063,396.3906 870.1094,396.3906 Q868.5938,396.3906 867.3906,395.7656 Q866.4063,395.2656 865.7188,394.1953 Q865.0313,393.125 865.0313,391.8438 L865.0313,390.6875 Q865.0313,389.3594 865.6484,388.2109 Q866.2656,387.0625 867.3594,386.4453 Q868.4531,385.8281 869.6875,385.8281 Q870.4219,385.8281 871.0703,385.9922 Q871.7188,386.1563 872.2656,386.5156 Z "/><text fill="#000000" font-family="sans-serif" font-size="12" lengthAdjust="spacingAndGlyphs" textLength="110" x="883.5" y="395.5508">Interface (designed)</text><line style="stroke: #A80036; stroke-width: 1.5;" x1="855.5" x2="995.5" y1="406.6406" y2="406.6406"/><line style="stroke: #A80036; stroke-width: 1.5;" x1="855.5" x2="995.5" y1="414.6406" y2="414.6406"/><!--class SubsystemImplementation--><rect fill="#008000" filter="url(#f1nhrchexq5tj4)" height="48" id="SubsystemImplementation" style="stroke: #A80036; stroke-width: 1.5;" width="377" x="1032" y="374.6406"/><rect fill="#008000" height="32" style="stroke: #A80036; stroke-width: 1.5;" width="377" x="1032" y="374.6406"/><ellipse cx="1047" cy="390.6406" fill="#ADD1B2" rx="11" ry="11" style="stroke: #A80036; stroke-width: 1.0;"/><path d="M1049.7656,386.5156 Q1049.9219,386.2969 1050.1094,386.1875 Q1050.2969,386.0781 1050.5156,386.0781 Q1050.8906,386.0781 1051.125,386.3359 Q1051.3594,386.5938 1051.3594,387.2031 L1051.3594,388.6563 Q1051.3594,389.2656 1051.125,389.5313 Q1050.8906,389.7969 1050.5156,389.7969 Q1050.1719,389.7969 1049.9688,389.5938 Q1049.7656,389.4063 1049.6563,388.8906 Q1049.6094,388.5313 1049.4219,388.3438 Q1049.0938,387.9688 1048.4844,387.75 Q1047.875,387.5313 1047.25,387.5313 Q1046.4844,387.5313 1045.8516,387.8594 Q1045.2188,388.1875 1044.7266,388.9375 Q1044.2344,389.6875 1044.2344,390.7188 L1044.2344,391.8125 Q1044.2344,393.0469 1045.125,393.8672 Q1046.0156,394.6875 1047.6094,394.6875 Q1048.5469,394.6875 1049.2031,394.4375 Q1049.5938,394.2813 1050.0156,393.8438 Q1050.2813,393.5781 1050.4297,393.5 Q1050.5781,393.4219 1050.7813,393.4219 Q1051.1094,393.4219 1051.3672,393.6797 Q1051.625,393.9375 1051.625,394.2813 Q1051.625,394.625 1051.2813,395.0313 Q1050.7813,395.6094 1049.9844,395.9375 Q1048.9063,396.3906 1047.6094,396.3906 Q1046.0938,396.3906 1044.8906,395.7656 Q1043.9063,395.2656 1043.2188,394.1953 Q1042.5313,393.125 1042.5313,391.8438 L1042.5313,390.6875 Q1042.5313,389.3594 1043.1484,388.2109 Q1043.7656,387.0625 1044.8594,386.4453 Q1045.9531,385.8281 1047.1875,385.8281 Q1047.9219,385.8281 1048.5703,385.9922 Q1049.2188,386.1563 1049.7656,386.5156 Z "/><text fill="#000000" font-family="sans-serif" font-size="12" lengthAdjust="spacingAndGlyphs" textLength="345" x="1061" y="395.5508">Subsystem Implementation (implementation for a construction)</text><line style="stroke: #A80036; stroke-width: 1.5;" x1="1033" x2="1408" y1="406.6406" y2="406.6406"/><line style="stroke: #A80036; stroke-width: 1.5;" x1="1033" x2="1408" y1="414.6406" y2="414.6406"/><!--class InterfaceX--><rect fill="#008000" filter="url(#f1nhrchexq5tj4)" height="48" id="InterfaceX" style="stroke: #A80036; stroke-width: 1.5;" width="273" x="1444" y="374.6406"/><rect fill="#008000" height="32" style="stroke: #A80036; stroke-width: 1.5;" width="273" x="1444" y="374.6406"/><ellipse cx="1459" cy="390.6406" fill="#ADD1B2" rx="11" ry="11" style="stroke: #A80036; stroke-width: 1.0;"/><path d="M1461.7656,386.5156 Q1461.9219,386.2969 1462.1094,386.1875 Q1462.2969,386.0781 1462.5156,386.0781 Q1462.8906,386.0781 1463.125,386.3359 Q1463.3594,386.5938 1463.3594,387.2031 L1463.3594,388.6563 Q1463.3594,389.2656 1463.125,389.5313 Q1462.8906,389.7969 1462.5156,389.7969 Q1462.1719,389.7969 1461.9688,389.5938 Q1461.7656,389.4063 1461.6563,388.8906 Q1461.6094,388.5313 1461.4219,388.3438 Q1461.0938,387.9688 1460.4844,387.75 Q1459.875,387.5313 1459.25,387.5313 Q1458.4844,387.5313 1457.8516,387.8594 Q1457.2188,388.1875 1456.7266,388.9375 Q1456.2344,389.6875 1456.2344,390.7188 L1456.2344,391.8125 Q1456.2344,393.0469 1457.125,393.8672 Q1458.0156,394.6875 1459.6094,394.6875 Q1460.5469,394.6875 1461.2031,394.4375 Q1461.5938,394.2813 1462.0156,393.8438 Q1462.2813,393.5781 1462.4297,393.5 Q1462.5781,393.4219 1462.7813,393.4219 Q1463.1094,393.4219 1463.3672,393.6797 Q1463.625,393.9375 1463.625,394.2813 Q1463.625,394.625 1463.2813,395.0313 Q1462.7813,395.6094 1461.9844,395.9375 Q1460.9063,396.3906 1459.6094,396.3906 Q1458.0938,396.3906 1456.8906,395.7656 Q1455.9063,395.2656 1455.2188,394.1953 Q1454.5313,393.125 1454.5313,391.8438 L1454.5313,390.6875 Q1454.5313,389.3594 1455.1484,388.2109 Q1455.7656,387.0625 1456.8594,386.4453 Q1457.9531,385.8281 1459.1875,385.8281 Q1459.9219,385.8281 1460.5703,385.9922 Q1461.2188,386.1563 1461.7656,386.5156 Z "/><text fill="#000000" font-family="sans-serif" font-size="12" lengthAdjust="spacingAndGlyphs" textLength="241" x="1473" y="395.5508">Interface (implementation for a construction)</text><line style="stroke: #A80036; stroke-width: 1.5;" x1="1445" x2="1716" y1="406.6406" y2="406.6406"/><line style="stroke: #A80036; stroke-width: 1.5;" x1="1445" x2="1716" y1="414.6406" y2="414.6406"/><!--class ImplementationRole--><rect fill="#0000FF" filter="url(#f1nhrchexq5tj4)" height="48" id="ImplementationRole" style="stroke: #A80036; stroke-width: 1.5;" width="144" x="1464.5" y="248.6406"/><rect fill="#0000FF" height="32" style="stroke: #A80036; stroke-width: 1.5;" width="144" x="1464.5" y="248.6406"/><ellipse cx="1479.5" cy="264.6406" fill="#ADD1B2" rx="11" ry="11" style="stroke: #A80036; stroke-width: 1.0;"/><path d="M1482.2656,260.5156 Q1482.4219,260.2969 1482.6094,260.1875 Q1482.7969,260.0781 1483.0156,260.0781 Q1483.3906,260.0781 1483.625,260.3359 Q1483.8594,260.5938 1483.8594,261.2031 L1483.8594,262.6563 Q1483.8594,263.2656 1483.625,263.5313 Q1483.3906,263.7969 1483.0156,263.7969 Q1482.6719,263.7969 1482.4688,263.5938 Q1482.2656,263.4063 1482.1563,262.8906 Q1482.1094,262.5313 1481.9219,262.3438 Q1481.5938,261.9688 1480.9844,261.75 Q1480.375,261.5313 1479.75,261.5313 Q1478.9844,261.5313 1478.3516,261.8594 Q1477.7188,262.1875 1477.2266,262.9375 Q1476.7344,263.6875 1476.7344,264.7188 L1476.7344,265.8125 Q1476.7344,267.0469 1477.625,267.8672 Q1478.5156,268.6875 1480.1094,268.6875 Q1481.0469,268.6875 1481.7031,268.4375 Q1482.0938,268.2813 1482.5156,267.8438 Q1482.7813,267.5781 1482.9297,267.5 Q1483.0781,267.4219 1483.2813,267.4219 Q1483.6094,267.4219 1483.8672,267.6797 Q1484.125,267.9375 1484.125,268.2813 Q1484.125,268.625 1483.7813,269.0313 Q1483.2813,269.6094 1482.4844,269.9375 Q1481.4063,270.3906 1480.1094,270.3906 Q1478.5938,270.3906 1477.3906,269.7656 Q1476.4063,269.2656 1475.7188,268.1953 Q1475.0313,267.125 1475.0313,265.8438 L1475.0313,264.6875 Q1475.0313,263.3594 1475.6484,262.2109 Q1476.2656,261.0625 1477.3594,260.4453 Q1478.4531,259.8281 1479.6875,259.8281 Q1480.4219,259.8281 1481.0703,259.9922 Q1481.7188,260.1563 1482.2656,260.5156 Z "/><text fill="#000000" font-family="sans-serif" font-size="12" lengthAdjust="spacingAndGlyphs" textLength="112" x="1493.5" y="269.5508">ImplementationRole</text><line style="stroke: #A80036; stroke-width: 1.5;" x1="1465.5" x2="1607.5" y1="280.6406" y2="280.6406"/><line style="stroke: #A80036; stroke-width: 1.5;" x1="1465.5" x2="1607.5" y1="288.6406" y2="288.6406"/><!--class ImplementSubsystems--><rect fill="#FF0000" filter="url(#f1nhrchexq5tj4)" height="48" id="ImplementSubsystems" style="stroke: #A80036; stroke-width: 1.5;" width="163" x="991" y="248.6406"/><rect fill="#FF0000" height="32" style="stroke: #A80036; stroke-width: 1.5;" width="163" x="991" y="248.6406"/><ellipse cx="1006" cy="264.6406" fill="#ADD1B2" rx="11" ry="11" style="stroke: #A80036; stroke-width: 1.0;"/><path d="M1008.7656,260.5156 Q1008.9219,260.2969 1009.1094,260.1875 Q1009.2969,260.0781 1009.5156,260.0781 Q1009.8906,260.0781 1010.125,260.3359 Q1010.3594,260.5938 1010.3594,261.2031 L1010.3594,262.6563 Q1010.3594,263.2656 1010.125,263.5313 Q1009.8906,263.7969 1009.5156,263.7969 Q1009.1719,263.7969 1008.9688,263.5938 Q1008.7656,263.4063 1008.6563,262.8906 Q1008.6094,262.5313 1008.4219,262.3438 Q1008.0938,261.9688 1007.4844,261.75 Q1006.875,261.5313 1006.25,261.5313 Q1005.4844,261.5313 1004.8516,261.8594 Q1004.2188,262.1875 1003.7266,262.9375 Q1003.2344,263.6875 1003.2344,264.7188 L1003.2344,265.8125 Q1003.2344,267.0469 1004.125,267.8672 Q1005.0156,268.6875 1006.6094,268.6875 Q1007.5469,268.6875 1008.2031,268.4375 Q1008.5938,268.2813 1009.0156,267.8438 Q1009.2813,267.5781 1009.4297,267.5 Q1009.5781,267.4219 1009.7813,267.4219 Q1010.1094,267.4219 1010.3672,267.6797 Q1010.625,267.9375 1010.625,268.2813 Q1010.625,268.625 1010.2813,269.0313 Q1009.7813,269.6094 1008.9844,269.9375 Q1007.9063,270.3906 1006.6094,270.3906 Q1005.0938,270.3906 1003.8906,269.7656 Q1002.9063,269.2656 1002.2188,268.1953 Q1001.5313,267.125 1001.5313,265.8438 L1001.5313,264.6875 Q1001.5313,263.3594 1002.1484,262.2109 Q1002.7656,261.0625 1003.8594,260.4453 Q1004.9531,259.8281 1006.1875,259.8281 Q1006.9219,259.8281 1007.5703,259.9922 Q1008.2188,260.1563 1008.7656,260.5156 Z "/><text fill="#000000" font-family="sans-serif" font-size="12" lengthAdjust="spacingAndGlyphs" textLength="131" x="1020" y="269.5508">Implement Subsystems</text><line style="stroke: #A80036; stroke-width: 1.5;" x1="992" x2="1153" y1="280.6406" y2="280.6406"/><line style="stroke: #A80036; stroke-width: 1.5;" x1="992" x2="1153" y1="288.6406" y2="288.6406"/><!--class EngineerComponents--><rect fill="#0000FF" filter="url(#f1nhrchexq5tj4)" height="48" id="EngineerComponents" style="stroke: #A80036; stroke-width: 1.5;" width="170" x="1752.5" y="374.6406"/><rect fill="#0000FF" height="32" style="stroke: #A80036; stroke-width: 1.5;" width="170" x="1752.5" y="374.6406"/><ellipse cx="1767.5" cy="390.6406" fill="#ADD1B2" rx="11" ry="11" style="stroke: #A80036; stroke-width: 1.0;"/><path d="M1770.2656,386.5156 Q1770.4219,386.2969 1770.6094,386.1875 Q1770.7969,386.0781 1771.0156,386.0781 Q1771.3906,386.0781 1771.625,386.3359 Q1771.8594,386.5938 1771.8594,387.2031 L1771.8594,388.6563 Q1771.8594,389.2656 1771.625,389.5313 Q1771.3906,389.7969 1771.0156,389.7969 Q1770.6719,389.7969 1770.4688,389.5938 Q1770.2656,389.4063 1770.1563,388.8906 Q1770.1094,388.5313 1769.9219,388.3438 Q1769.5938,387.9688 1768.9844,387.75 Q1768.375,387.5313 1767.75,387.5313 Q1766.9844,387.5313 1766.3516,387.8594 Q1765.7188,388.1875 1765.2266,388.9375 Q1764.7344,389.6875 1764.7344,390.7188 L1764.7344,391.8125 Q1764.7344,393.0469 1765.625,393.8672 Q1766.5156,394.6875 1768.1094,394.6875 Q1769.0469,394.6875 1769.7031,394.4375 Q1770.0938,394.2813 1770.5156,393.8438 Q1770.7813,393.5781 1770.9297,393.5 Q1771.0781,393.4219 1771.2813,393.4219 Q1771.6094,393.4219 1771.8672,393.6797 Q1772.125,393.9375 1772.125,394.2813 Q1772.125,394.625 1771.7813,395.0313 Q1771.2813,395.6094 1770.4844,395.9375 Q1769.4063,396.3906 1768.1094,396.3906 Q1766.5938,396.3906 1765.3906,395.7656 Q1764.4063,395.2656 1763.7188,394.1953 Q1763.0313,393.125 1763.0313,391.8438 L1763.0313,390.6875 Q1763.0313,389.3594 1763.6484,388.2109 Q1764.2656,387.0625 1765.3594,386.4453 Q1766.4531,385.8281 1767.6875,385.8281 Q1768.4219,385.8281 1769.0703,385.9922 Q1769.7188,386.1563 1770.2656,386.5156 Z "/><text fill="#000000" font-family="sans-serif" font-size="12" lengthAdjust="spacingAndGlyphs" textLength="138" x="1781.5" y="395.5508">Engineer of Components</text><line style="stroke: #A80036; stroke-width: 1.5;" x1="1753.5" x2="1921.5" y1="406.6406" y2="406.6406"/><line style="stroke: #A80036; stroke-width: 1.5;" x1="1753.5" x2="1921.5" y1="414.6406" y2="414.6406"/><!--link Activity to ImplementationActivity--><path d="M1439.23,95.7936 C1429.59,110.5336 1419,126.7166 1410.66,139.4686 " fill="none" id="Activity-ImplementationActivity" style="stroke: #A80036; stroke-width: 1.0;"/><polygon fill="none" points="1433.5,91.7626,1450.31,78.8576,1445.22,99.4266,1433.5,91.7626" style="stroke: #A80036; stroke-width: 1.0;"/><!--link Activity to Role--><path d="M1480.91,78.8576 C1491.88,95.4036 1506.69,117.7106 1518.26,135.1466 " fill="none" id="Activity-Role" style="stroke: #A80036; stroke-width: 1.0;"/><polygon fill="#A80036" points="1521.12,139.4686,1519.4828,129.7568,1518.358,135.3007,1512.8141,134.1759,1521.12,139.4686" style="stroke: #A80036; stroke-width: 1.0;"/><!--link ImplementationActivity to ImplementationRole--><path d="M1426.09,187.8576 C1448.36,204.7536 1478.54,227.6576 1501.72,245.2486 " fill="none" id="ImplementationActivity-ImplementationRole" style="stroke: #A80036; stroke-width: 1.0;"/><polygon fill="#A80036" points="1505.96,248.4686,1501.2171,239.837,1501.98,245.4422,1496.3748,246.2051,1505.96,248.4686" style="stroke: #A80036; stroke-width: 1.0;"/><!--link ImplementationActivity to ImplementSubsystems--><path d="M1306.61,194.0886 C1254.72,211.2756 1190.22,232.6446 1142.06,248.5966 " fill="none" id="ImplementationActivity-ImplementSubsystems" style="stroke: #A80036; stroke-width: 1.0;"/><polygon fill="none" points="1304.62,187.3706,1325.81,187.7266,1309.03,200.6606,1304.62,187.3706" style="stroke: #A80036; stroke-width: 1.0;"/><!--link ImplementSubsystems to IntegrationPlanConstructions--><path d="M990.776,281.7096 C840.597,296.9336 510.783,332.2055 234.5,374.6406 C230.41,375.2688 226.248,375.9308 222.047,376.6181 " fill="none" id="ImplementSubsystems-IntegrationPlanConstructions" style="stroke: #A80036; stroke-width: 1.0;"/><polygon fill="#A80036" points="217.099,377.4361,226.631,379.9142,222.032,376.6204,225.3258,372.0214,217.099,377.4361" style="stroke: #A80036; stroke-width: 1.0;"/><text fill="#000000" font-family="sans-serif" font-size="13" lengthAdjust="spacingAndGlyphs" textLength="10" x="580.5" y="341.1357">in</text><!--link ImplementSubsystems to ArchitectureDescription--><path d="M990.993,289.0946 C879.092,310.3116 676.807,348.665 545.105,373.6359 " fill="none" id="ImplementSubsystems-ArchitectureDescription" style="stroke: #A80036; stroke-width: 1.0;"/><polygon fill="#A80036" points="540.06,374.5925,549.6476,376.8459,544.9725,373.6611,548.1573,368.986,540.06,374.5925" style="stroke: #A80036; stroke-width: 1.0;"/><text fill="#000000" font-family="sans-serif" font-size="13" lengthAdjust="spacingAndGlyphs" textLength="10" x="786.5" y="341.1357">in</text><!--link ImplementSubsystems to SubsystemDesign--><path d="M1006.93,296.6736 C945.233,318.3466 853.124,350.7019 789.899,372.9114 " fill="none" id="ImplementSubsystems-SubsystemDesign" style="stroke: #A80036; stroke-width: 1.0;"/><polygon fill="#A80036" points="785.017,374.6262,794.834,375.4173,789.7344,372.9691,792.1826,367.8695,785.017,374.6262" style="stroke: #A80036; stroke-width: 1.0;"/><text fill="#000000" font-family="sans-serif" font-size="13" lengthAdjust="spacingAndGlyphs" textLength="10" x="918.5" y="341.1357">in</text><!--link ImplementSubsystems to Interface--><path d="M1045.19,296.6736 C1020.29,317.6816 983.485,348.7283 957.271,370.841 " fill="none" id="ImplementSubsystems-Interface" style="stroke: #A80036; stroke-width: 1.0;"/><polygon fill="#A80036" points="953.158,374.3103,962.6163,371.5642,956.9797,371.0862,957.4577,365.4496,953.158,374.3103" style="stroke: #A80036; stroke-width: 1.0;"/><text fill="#000000" font-family="sans-serif" font-size="13" lengthAdjust="spacingAndGlyphs" textLength="10" x="1009.5" y="341.1357">in</text><!--link ImplementSubsystems to SubsystemImplementation--><path d="M1099.99,296.6736 C1125.14,317.7486 1162.36,348.9249 1188.76,371.0506 " fill="none" id="ImplementSubsystems-SubsystemImplementation" style="stroke: #A80036; stroke-width: 1.0;"/><polygon fill="#A80036" points="1192.91,374.521,1188.5846,365.6728,1189.079,371.308,1183.4438,371.8025,1192.91,374.521" style="stroke: #A80036; stroke-width: 1.0;"/><text fill="#000000" font-family="sans-serif" font-size="13" lengthAdjust="spacingAndGlyphs" textLength="18" x="1156.5" y="341.1357">out</text><!--link ImplementSubsystems to InterfaceX--><path d="M1154.12,293.5636 C1243.12,315.2876 1385.58,350.0613 1481.05,373.3646 " fill="none" id="ImplementSubsystems-InterfaceX" style="stroke: #A80036; stroke-width: 1.0;"/><polygon fill="#A80036" points="1486.13,374.6044,1478.3353,368.5843,1481.2726,373.4187,1476.4382,376.3561,1486.13,374.6044" style="stroke: #A80036; stroke-width: 1.0;"/><text fill="#000000" font-family="sans-serif" font-size="13" lengthAdjust="spacingAndGlyphs" textLength="18" x="1358.5" y="341.1357">out</text><!--link ImplementSubsystems to EngineerComponents--><path d="M1154.08,284.2596 C1279.34,300.9766 1526.4,335.5777 1734.5,374.6406 C1738.71,375.4302 1743,376.2672 1747.34,377.1364 " fill="none" id="ImplementSubsystems-EngineerComponents" style="stroke: #A80036; stroke-width: 1.0;"/><polygon fill="#A80036" points="1752.44,378.1706,1744.4215,372.4519,1747.541,377.1709,1742.822,380.2904,1752.44,378.1706" style="stroke: #A80036; stroke-width: 1.0;"/><!--link Role to ImplementationRole--><path d="M1536.5,208.2186 C1536.5,222.0026 1536.5,236.6976 1536.5,248.4686 " fill="none" id="Role-ImplementationRole" style="stroke: #A80036; stroke-width: 1.0;"/><polygon fill="none" points="1529.5,207.8576,1536.5,187.8576,1543.5,207.8576,1529.5,207.8576" style="stroke: #A80036; stroke-width: 1.0;"/><!--link ImplementationRole to EngineerComponents--><path d="M1628.32,291.0466 C1662.86,299.3956 1701.88,311.0506 1735.5,326.6406 C1762.71,339.2569 1790.44,359.1046 1810.11,374.6113 " fill="none" id="ImplementationRole-EngineerComponents" style="stroke: #A80036; stroke-width: 1.0;"/><polygon fill="none" points="1626.51,297.8106,1608.58,286.5066,1629.64,284.1666,1626.51,297.8106" style="stroke: #A80036; stroke-width: 1.0;"/><!--
@startuml
title Implement Subsystem
class Activity #red
Activity <|- - ImplementationActivity
Activity - -> Role

class "Integration Plan of Constructions" as IntegrationPlanConstructions #green
class "Architecture Description(Model view of implementation)" as ArchitectureDescription #green
class "Subsystem Design (designed)" as SubsystemDesign #green
class "Interface (designed)" as Interface  #green
class "Subsystem Implementation (implementation for a construction)" as SubsystemImplementation #green
class "Interface (implementation for a construction)" as InterfaceX #green

class ImplementationActivity #red
ImplementationActivity - -> ImplementationRole

class "Implement Subsystems" as ImplementSubsystems #red
ImplementationActivity <|- - ImplementSubsystems

ImplementSubsystems - -> IntegrationPlanConstructions :in
ImplementSubsystems - -> ArchitectureDescription :in
ImplementSubsystems - -> SubsystemDesign :in
ImplementSubsystems - -> Interface :in
ImplementSubsystems - -> SubsystemImplementation :out
ImplementSubsystems - -> InterfaceX :out


class Role #blue
class ImplementationRole #blue
class "Engineer of Components" as EngineerComponents #blue

ImplementSubsystems - -> EngineerComponents

Role <|- - ImplementationRole
ImplementationRole <|- - EngineerComponents
@enduml

PlantUML version 1.2019.05(Sat Apr 20 18:45:36 CEST 2019)
(GPL source distribution)
Java Runtime: OpenJDK Runtime Environment
JVM: OpenJDK 64-Bit Server VM
Java Version: 1.8.0_222-b10
Operating System: Windows 10
OS Version: 10.0
Default Encoding: windows-1252
Language: es
Country: ES
--></g></svg>