<?xml version="1.0" encoding="UTF-8" standalone="no"?><svg xmlns="http://www.w3.org/2000/svg" xmlns:xlink="http://www.w3.org/1999/xlink" contentScriptType="application/ecmascript" contentStyleType="text/css" height="411px" preserveAspectRatio="none" style="width:790px;height:411px;" version="1.1" viewBox="0 0 790 411" width="790px" zoomAndPan="magnify"><defs><filter height="300%" id="f1ndbpno4xnxv1" width="300%" x="-1" y="-1"><feGaussianBlur result="blurOut" stdDeviation="2.0"/><feColorMatrix in="blurOut" result="blurOut2" type="matrix" values="0 0 0 0 0 0 0 0 0 0 0 0 0 0 0 0 0 0 .4 0"/><feOffset dx="4.0" dy="4.0" in="blurOut2" result="blurOut3"/><feBlend in="SourceGraphic" in2="blurOut3" mode="normal"/></filter></defs><g><!--class Activity--><rect fill="#FF0000" filter="url(#f1ndbpno4xnxv1)" height="48" id="Activity" style="stroke: #A80036; stroke-width: 1.5;" width="67" x="524" y="8"/><rect fill="#FF0000" height="32" style="stroke: #A80036; stroke-width: 1.5;" width="67" x="524" y="8"/><ellipse cx="539" cy="24" fill="#ADD1B2" rx="11" ry="11" style="stroke: #A80036; stroke-width: 1.0;"/><path d="M541.7656,19.875 Q541.9219,19.6563 542.1094,19.5469 Q542.2969,19.4375 542.5156,19.4375 Q542.8906,19.4375 543.125,19.6953 Q543.3594,19.9531 543.3594,20.5625 L543.3594,22.0156 Q543.3594,22.625 543.125,22.8906 Q542.8906,23.1563 542.5156,23.1563 Q542.1719,23.1563 541.9688,22.9531 Q541.7656,22.7656 541.6563,22.25 Q541.6094,21.8906 541.4219,21.7031 Q541.0938,21.3281 540.4844,21.1094 Q539.875,20.8906 539.25,20.8906 Q538.4844,20.8906 537.8516,21.2188 Q537.2188,21.5469 536.7266,22.2969 Q536.2344,23.0469 536.2344,24.0781 L536.2344,25.1719 Q536.2344,26.4063 537.125,27.2266 Q538.0156,28.0469 539.6094,28.0469 Q540.5469,28.0469 541.2031,27.7969 Q541.5938,27.6406 542.0156,27.2031 Q542.2813,26.9375 542.4297,26.8594 Q542.5781,26.7813 542.7813,26.7813 Q543.1094,26.7813 543.3672,27.0391 Q543.625,27.2969 543.625,27.6406 Q543.625,27.9844 543.2813,28.3906 Q542.7813,28.9688 541.9844,29.2969 Q540.9063,29.75 539.6094,29.75 Q538.0938,29.75 536.8906,29.125 Q535.9063,28.625 535.2188,27.5547 Q534.5313,26.4844 534.5313,25.2031 L534.5313,24.0469 Q534.5313,22.7188 535.1484,21.5703 Q535.7656,20.4219 536.8594,19.8047 Q537.9531,19.1875 539.1875,19.1875 Q539.9219,19.1875 540.5703,19.3516 Q541.2188,19.5156 541.7656,19.875 Z "/><text fill="#000000" font-family="sans-serif" font-size="12" lengthAdjust="spacingAndGlyphs" textLength="35" x="553" y="28.9102">Activity</text><line style="stroke: #A80036; stroke-width: 1.5;" x1="525" x2="590" y1="40" y2="40"/><line style="stroke: #A80036; stroke-width: 1.5;" x1="525" x2="590" y1="48" y2="48"/><!--class TestsActivity--><rect fill="#FF0000" filter="url(#f1ndbpno4xnxv1)" height="48" id="TestsActivity" style="stroke: #A80036; stroke-width: 1.5;" width="98" x="452.5" y="117"/><rect fill="#FF0000" height="32" style="stroke: #A80036; stroke-width: 1.5;" width="98" x="452.5" y="117"/><ellipse cx="467.5" cy="133" fill="#ADD1B2" rx="11" ry="11" style="stroke: #A80036; stroke-width: 1.0;"/><path d="M470.2656,128.875 Q470.4219,128.6563 470.6094,128.5469 Q470.7969,128.4375 471.0156,128.4375 Q471.3906,128.4375 471.625,128.6953 Q471.8594,128.9531 471.8594,129.5625 L471.8594,131.0156 Q471.8594,131.625 471.625,131.8906 Q471.3906,132.1563 471.0156,132.1563 Q470.6719,132.1563 470.4688,131.9531 Q470.2656,131.7656 470.1563,131.25 Q470.1094,130.8906 469.9219,130.7031 Q469.5938,130.3281 468.9844,130.1094 Q468.375,129.8906 467.75,129.8906 Q466.9844,129.8906 466.3516,130.2188 Q465.7188,130.5469 465.2266,131.2969 Q464.7344,132.0469 464.7344,133.0781 L464.7344,134.1719 Q464.7344,135.4063 465.625,136.2266 Q466.5156,137.0469 468.1094,137.0469 Q469.0469,137.0469 469.7031,136.7969 Q470.0938,136.6406 470.5156,136.2031 Q470.7813,135.9375 470.9297,135.8594 Q471.0781,135.7813 471.2813,135.7813 Q471.6094,135.7813 471.8672,136.0391 Q472.125,136.2969 472.125,136.6406 Q472.125,136.9844 471.7813,137.3906 Q471.2813,137.9688 470.4844,138.2969 Q469.4063,138.75 468.1094,138.75 Q466.5938,138.75 465.3906,138.125 Q464.4063,137.625 463.7188,136.5547 Q463.0313,135.4844 463.0313,134.2031 L463.0313,133.0469 Q463.0313,131.7188 463.6484,130.5703 Q464.2656,129.4219 465.3594,128.8047 Q466.4531,128.1875 467.6875,128.1875 Q468.4219,128.1875 469.0703,128.3516 Q469.7188,128.5156 470.2656,128.875 Z "/><text fill="#000000" font-family="sans-serif" font-size="12" lengthAdjust="spacingAndGlyphs" textLength="66" x="481.5" y="137.9102">TestsActivity</text><line style="stroke: #A80036; stroke-width: 1.5;" x1="453.5" x2="549.5" y1="149" y2="149"/><line style="stroke: #A80036; stroke-width: 1.5;" x1="453.5" x2="549.5" y1="157" y2="157"/><!--class Role--><rect fill="#0000FF" filter="url(#f1ndbpno4xnxv1)" height="48" id="Role" style="stroke: #A80036; stroke-width: 1.5;" width="58" x="585.5" y="117"/><rect fill="#0000FF" height="32" style="stroke: #A80036; stroke-width: 1.5;" width="58" x="585.5" y="117"/><ellipse cx="600.5" cy="133" fill="#ADD1B2" rx="11" ry="11" style="stroke: #A80036; stroke-width: 1.0;"/><path d="M603.2656,128.875 Q603.4219,128.6563 603.6094,128.5469 Q603.7969,128.4375 604.0156,128.4375 Q604.3906,128.4375 604.625,128.6953 Q604.8594,128.9531 604.8594,129.5625 L604.8594,131.0156 Q604.8594,131.625 604.625,131.8906 Q604.3906,132.1563 604.0156,132.1563 Q603.6719,132.1563 603.4688,131.9531 Q603.2656,131.7656 603.1563,131.25 Q603.1094,130.8906 602.9219,130.7031 Q602.5938,130.3281 601.9844,130.1094 Q601.375,129.8906 600.75,129.8906 Q599.9844,129.8906 599.3516,130.2188 Q598.7188,130.5469 598.2266,131.2969 Q597.7344,132.0469 597.7344,133.0781 L597.7344,134.1719 Q597.7344,135.4063 598.625,136.2266 Q599.5156,137.0469 601.1094,137.0469 Q602.0469,137.0469 602.7031,136.7969 Q603.0938,136.6406 603.5156,136.2031 Q603.7813,135.9375 603.9297,135.8594 Q604.0781,135.7813 604.2813,135.7813 Q604.6094,135.7813 604.8672,136.0391 Q605.125,136.2969 605.125,136.6406 Q605.125,136.9844 604.7813,137.3906 Q604.2813,137.9688 603.4844,138.2969 Q602.4063,138.75 601.1094,138.75 Q599.5938,138.75 598.3906,138.125 Q597.4063,137.625 596.7188,136.5547 Q596.0313,135.4844 596.0313,134.2031 L596.0313,133.0469 Q596.0313,131.7188 596.6484,130.5703 Q597.2656,129.4219 598.3594,128.8047 Q599.4531,128.1875 600.6875,128.1875 Q601.4219,128.1875 602.0703,128.3516 Q602.7188,128.5156 603.2656,128.875 Z "/><text fill="#000000" font-family="sans-serif" font-size="12" lengthAdjust="spacingAndGlyphs" textLength="26" x="614.5" y="137.9102">Role</text><line style="stroke: #A80036; stroke-width: 1.5;" x1="586.5" x2="642.5" y1="149" y2="149"/><line style="stroke: #A80036; stroke-width: 1.5;" x1="586.5" x2="642.5" y1="157" y2="157"/><!--class TestCase--><rect fill="#008000" filter="url(#f1ndbpno4xnxv1)" height="48" id="TestCase" style="stroke: #A80036; stroke-width: 1.5;" width="89" x="6" y="352"/><rect fill="#008000" height="32" style="stroke: #A80036; stroke-width: 1.5;" width="89" x="6" y="352"/><ellipse cx="21" cy="368" fill="#ADD1B2" rx="11" ry="11" style="stroke: #A80036; stroke-width: 1.0;"/><path d="M23.7656,363.875 Q23.9219,363.6563 24.1094,363.5469 Q24.2969,363.4375 24.5156,363.4375 Q24.8906,363.4375 25.125,363.6953 Q25.3594,363.9531 25.3594,364.5625 L25.3594,366.0156 Q25.3594,366.625 25.125,366.8906 Q24.8906,367.1563 24.5156,367.1563 Q24.1719,367.1563 23.9688,366.9531 Q23.7656,366.7656 23.6563,366.25 Q23.6094,365.8906 23.4219,365.7031 Q23.0938,365.3281 22.4844,365.1094 Q21.875,364.8906 21.25,364.8906 Q20.4844,364.8906 19.8516,365.2188 Q19.2188,365.5469 18.7266,366.2969 Q18.2344,367.0469 18.2344,368.0781 L18.2344,369.1719 Q18.2344,370.4063 19.125,371.2266 Q20.0156,372.0469 21.6094,372.0469 Q22.5469,372.0469 23.2031,371.7969 Q23.5938,371.6406 24.0156,371.2031 Q24.2813,370.9375 24.4297,370.8594 Q24.5781,370.7813 24.7813,370.7813 Q25.1094,370.7813 25.3672,371.0391 Q25.625,371.2969 25.625,371.6406 Q25.625,371.9844 25.2813,372.3906 Q24.7813,372.9688 23.9844,373.2969 Q22.9063,373.75 21.6094,373.75 Q20.0938,373.75 18.8906,373.125 Q17.9063,372.625 17.2188,371.5547 Q16.5313,370.4844 16.5313,369.2031 L16.5313,368.0469 Q16.5313,366.7188 17.1484,365.5703 Q17.7656,364.4219 18.8594,363.8047 Q19.9531,363.1875 21.1875,363.1875 Q21.9219,363.1875 22.5703,363.3516 Q23.2188,363.5156 23.7656,363.875 Z "/><text fill="#000000" font-family="sans-serif" font-size="12" lengthAdjust="spacingAndGlyphs" textLength="57" x="35" y="372.9102">Test Case</text><line style="stroke: #A80036; stroke-width: 1.5;" x1="7" x2="94" y1="384" y2="384"/><line style="stroke: #A80036; stroke-width: 1.5;" x1="7" x2="94" y1="392" y2="392"/><!--class TestProcedure--><rect fill="#008000" filter="url(#f1ndbpno4xnxv1)" height="48" id="TestProcedure" style="stroke: #A80036; stroke-width: 1.5;" width="116" x="130.5" y="352"/><rect fill="#008000" height="32" style="stroke: #A80036; stroke-width: 1.5;" width="116" x="130.5" y="352"/><ellipse cx="145.5" cy="368" fill="#ADD1B2" rx="11" ry="11" style="stroke: #A80036; stroke-width: 1.0;"/><path d="M148.2656,363.875 Q148.4219,363.6563 148.6094,363.5469 Q148.7969,363.4375 149.0156,363.4375 Q149.3906,363.4375 149.625,363.6953 Q149.8594,363.9531 149.8594,364.5625 L149.8594,366.0156 Q149.8594,366.625 149.625,366.8906 Q149.3906,367.1563 149.0156,367.1563 Q148.6719,367.1563 148.4688,366.9531 Q148.2656,366.7656 148.1563,366.25 Q148.1094,365.8906 147.9219,365.7031 Q147.5938,365.3281 146.9844,365.1094 Q146.375,364.8906 145.75,364.8906 Q144.9844,364.8906 144.3516,365.2188 Q143.7188,365.5469 143.2266,366.2969 Q142.7344,367.0469 142.7344,368.0781 L142.7344,369.1719 Q142.7344,370.4063 143.625,371.2266 Q144.5156,372.0469 146.1094,372.0469 Q147.0469,372.0469 147.7031,371.7969 Q148.0938,371.6406 148.5156,371.2031 Q148.7813,370.9375 148.9297,370.8594 Q149.0781,370.7813 149.2813,370.7813 Q149.6094,370.7813 149.8672,371.0391 Q150.125,371.2969 150.125,371.6406 Q150.125,371.9844 149.7813,372.3906 Q149.2813,372.9688 148.4844,373.2969 Q147.4063,373.75 146.1094,373.75 Q144.5938,373.75 143.3906,373.125 Q142.4063,372.625 141.7188,371.5547 Q141.0313,370.4844 141.0313,369.2031 L141.0313,368.0469 Q141.0313,366.7188 141.6484,365.5703 Q142.2656,364.4219 143.3594,363.8047 Q144.4531,363.1875 145.6875,363.1875 Q146.4219,363.1875 147.0703,363.3516 Q147.7188,363.5156 148.2656,363.875 Z "/><text fill="#000000" font-family="sans-serif" font-size="12" lengthAdjust="spacingAndGlyphs" textLength="84" x="159.5" y="372.9102">Test Procedure</text><line style="stroke: #A80036; stroke-width: 1.5;" x1="131.5" x2="245.5" y1="384" y2="384"/><line style="stroke: #A80036; stroke-width: 1.5;" x1="131.5" x2="245.5" y1="392" y2="392"/><!--class ImplementationModel--><rect fill="#008000" filter="url(#f1ndbpno4xnxv1)" height="48" id="ImplementationModel" style="stroke: #A80036; stroke-width: 1.5;" width="154" x="281.5" y="352"/><rect fill="#008000" height="32" style="stroke: #A80036; stroke-width: 1.5;" width="154" x="281.5" y="352"/><ellipse cx="296.5" cy="368" fill="#ADD1B2" rx="11" ry="11" style="stroke: #A80036; stroke-width: 1.0;"/><path d="M299.2656,363.875 Q299.4219,363.6563 299.6094,363.5469 Q299.7969,363.4375 300.0156,363.4375 Q300.3906,363.4375 300.625,363.6953 Q300.8594,363.9531 300.8594,364.5625 L300.8594,366.0156 Q300.8594,366.625 300.625,366.8906 Q300.3906,367.1563 300.0156,367.1563 Q299.6719,367.1563 299.4688,366.9531 Q299.2656,366.7656 299.1563,366.25 Q299.1094,365.8906 298.9219,365.7031 Q298.5938,365.3281 297.9844,365.1094 Q297.375,364.8906 296.75,364.8906 Q295.9844,364.8906 295.3516,365.2188 Q294.7188,365.5469 294.2266,366.2969 Q293.7344,367.0469 293.7344,368.0781 L293.7344,369.1719 Q293.7344,370.4063 294.625,371.2266 Q295.5156,372.0469 297.1094,372.0469 Q298.0469,372.0469 298.7031,371.7969 Q299.0938,371.6406 299.5156,371.2031 Q299.7813,370.9375 299.9297,370.8594 Q300.0781,370.7813 300.2813,370.7813 Q300.6094,370.7813 300.8672,371.0391 Q301.125,371.2969 301.125,371.6406 Q301.125,371.9844 300.7813,372.3906 Q300.2813,372.9688 299.4844,373.2969 Q298.4063,373.75 297.1094,373.75 Q295.5938,373.75 294.3906,373.125 Q293.4063,372.625 292.7188,371.5547 Q292.0313,370.4844 292.0313,369.2031 L292.0313,368.0469 Q292.0313,366.7188 292.6484,365.5703 Q293.2656,364.4219 294.3594,363.8047 Q295.4531,363.1875 296.6875,363.1875 Q297.4219,363.1875 298.0703,363.3516 Q298.7188,363.5156 299.2656,363.875 Z "/><text fill="#000000" font-family="sans-serif" font-size="12" lengthAdjust="spacingAndGlyphs" textLength="122" x="310.5" y="372.9102">Implementation Model</text><line style="stroke: #A80036; stroke-width: 1.5;" x1="282.5" x2="434.5" y1="384" y2="384"/><line style="stroke: #A80036; stroke-width: 1.5;" x1="282.5" x2="434.5" y1="392" y2="392"/><!--class TestComponent--><rect fill="#008000" filter="url(#f1ndbpno4xnxv1)" height="48" id="TestComponent" style="stroke: #A80036; stroke-width: 1.5;" width="124" x="470.5" y="352"/><rect fill="#008000" height="32" style="stroke: #A80036; stroke-width: 1.5;" width="124" x="470.5" y="352"/><ellipse cx="485.5" cy="368" fill="#ADD1B2" rx="11" ry="11" style="stroke: #A80036; stroke-width: 1.0;"/><path d="M488.2656,363.875 Q488.4219,363.6563 488.6094,363.5469 Q488.7969,363.4375 489.0156,363.4375 Q489.3906,363.4375 489.625,363.6953 Q489.8594,363.9531 489.8594,364.5625 L489.8594,366.0156 Q489.8594,366.625 489.625,366.8906 Q489.3906,367.1563 489.0156,367.1563 Q488.6719,367.1563 488.4688,366.9531 Q488.2656,366.7656 488.1563,366.25 Q488.1094,365.8906 487.9219,365.7031 Q487.5938,365.3281 486.9844,365.1094 Q486.375,364.8906 485.75,364.8906 Q484.9844,364.8906 484.3516,365.2188 Q483.7188,365.5469 483.2266,366.2969 Q482.7344,367.0469 482.7344,368.0781 L482.7344,369.1719 Q482.7344,370.4063 483.625,371.2266 Q484.5156,372.0469 486.1094,372.0469 Q487.0469,372.0469 487.7031,371.7969 Q488.0938,371.6406 488.5156,371.2031 Q488.7813,370.9375 488.9297,370.8594 Q489.0781,370.7813 489.2813,370.7813 Q489.6094,370.7813 489.8672,371.0391 Q490.125,371.2969 490.125,371.6406 Q490.125,371.9844 489.7813,372.3906 Q489.2813,372.9688 488.4844,373.2969 Q487.4063,373.75 486.1094,373.75 Q484.5938,373.75 483.3906,373.125 Q482.4063,372.625 481.7188,371.5547 Q481.0313,370.4844 481.0313,369.2031 L481.0313,368.0469 Q481.0313,366.7188 481.6484,365.5703 Q482.2656,364.4219 483.3594,363.8047 Q484.4531,363.1875 485.6875,363.1875 Q486.4219,363.1875 487.0703,363.3516 Q487.7188,363.5156 488.2656,363.875 Z "/><text fill="#000000" font-family="sans-serif" font-size="12" lengthAdjust="spacingAndGlyphs" textLength="92" x="499.5" y="372.9102">Test Component</text><line style="stroke: #A80036; stroke-width: 1.5;" x1="471.5" x2="593.5" y1="384" y2="384"/><line style="stroke: #A80036; stroke-width: 1.5;" x1="471.5" x2="593.5" y1="392" y2="392"/><!--class TestsRole--><rect fill="#0000FF" filter="url(#f1ndbpno4xnxv1)" height="48" id="TestsRole" style="stroke: #A80036; stroke-width: 1.5;" width="89" x="570" y="226"/><rect fill="#0000FF" height="32" style="stroke: #A80036; stroke-width: 1.5;" width="89" x="570" y="226"/><ellipse cx="585" cy="242" fill="#ADD1B2" rx="11" ry="11" style="stroke: #A80036; stroke-width: 1.0;"/><path d="M587.7656,237.875 Q587.9219,237.6563 588.1094,237.5469 Q588.2969,237.4375 588.5156,237.4375 Q588.8906,237.4375 589.125,237.6953 Q589.3594,237.9531 589.3594,238.5625 L589.3594,240.0156 Q589.3594,240.625 589.125,240.8906 Q588.8906,241.1563 588.5156,241.1563 Q588.1719,241.1563 587.9688,240.9531 Q587.7656,240.7656 587.6563,240.25 Q587.6094,239.8906 587.4219,239.7031 Q587.0938,239.3281 586.4844,239.1094 Q585.875,238.8906 585.25,238.8906 Q584.4844,238.8906 583.8516,239.2188 Q583.2188,239.5469 582.7266,240.2969 Q582.2344,241.0469 582.2344,242.0781 L582.2344,243.1719 Q582.2344,244.4063 583.125,245.2266 Q584.0156,246.0469 585.6094,246.0469 Q586.5469,246.0469 587.2031,245.7969 Q587.5938,245.6406 588.0156,245.2031 Q588.2813,244.9375 588.4297,244.8594 Q588.5781,244.7813 588.7813,244.7813 Q589.1094,244.7813 589.3672,245.0391 Q589.625,245.2969 589.625,245.6406 Q589.625,245.9844 589.2813,246.3906 Q588.7813,246.9688 587.9844,247.2969 Q586.9063,247.75 585.6094,247.75 Q584.0938,247.75 582.8906,247.125 Q581.9063,246.625 581.2188,245.5547 Q580.5313,244.4844 580.5313,243.2031 L580.5313,242.0469 Q580.5313,240.7188 581.1484,239.5703 Q581.7656,238.4219 582.8594,237.8047 Q583.9531,237.1875 585.1875,237.1875 Q585.9219,237.1875 586.5703,237.3516 Q587.2188,237.5156 587.7656,237.875 Z "/><text fill="#000000" font-family="sans-serif" font-size="12" lengthAdjust="spacingAndGlyphs" textLength="57" x="599" y="246.9102">TestsRole</text><line style="stroke: #A80036; stroke-width: 1.5;" x1="571" x2="658" y1="258" y2="258"/><line style="stroke: #A80036; stroke-width: 1.5;" x1="571" x2="658" y1="266" y2="266"/><!--class ImplementTest--><rect fill="#FF0000" filter="url(#f1ndbpno4xnxv1)" height="48" id="ImplementTest" style="stroke: #A80036; stroke-width: 1.5;" width="118" x="333.5" y="226"/><rect fill="#FF0000" height="32" style="stroke: #A80036; stroke-width: 1.5;" width="118" x="333.5" y="226"/><ellipse cx="348.5" cy="242" fill="#ADD1B2" rx="11" ry="11" style="stroke: #A80036; stroke-width: 1.0;"/><path d="M351.2656,237.875 Q351.4219,237.6563 351.6094,237.5469 Q351.7969,237.4375 352.0156,237.4375 Q352.3906,237.4375 352.625,237.6953 Q352.8594,237.9531 352.8594,238.5625 L352.8594,240.0156 Q352.8594,240.625 352.625,240.8906 Q352.3906,241.1563 352.0156,241.1563 Q351.6719,241.1563 351.4688,240.9531 Q351.2656,240.7656 351.1563,240.25 Q351.1094,239.8906 350.9219,239.7031 Q350.5938,239.3281 349.9844,239.1094 Q349.375,238.8906 348.75,238.8906 Q347.9844,238.8906 347.3516,239.2188 Q346.7188,239.5469 346.2266,240.2969 Q345.7344,241.0469 345.7344,242.0781 L345.7344,243.1719 Q345.7344,244.4063 346.625,245.2266 Q347.5156,246.0469 349.1094,246.0469 Q350.0469,246.0469 350.7031,245.7969 Q351.0938,245.6406 351.5156,245.2031 Q351.7813,244.9375 351.9297,244.8594 Q352.0781,244.7813 352.2813,244.7813 Q352.6094,244.7813 352.8672,245.0391 Q353.125,245.2969 353.125,245.6406 Q353.125,245.9844 352.7813,246.3906 Q352.2813,246.9688 351.4844,247.2969 Q350.4063,247.75 349.1094,247.75 Q347.5938,247.75 346.3906,247.125 Q345.4063,246.625 344.7188,245.5547 Q344.0313,244.4844 344.0313,243.2031 L344.0313,242.0469 Q344.0313,240.7188 344.6484,239.5703 Q345.2656,238.4219 346.3594,237.8047 Q347.4531,237.1875 348.6875,237.1875 Q349.4219,237.1875 350.0703,237.3516 Q350.7188,237.5156 351.2656,237.875 Z "/><text fill="#000000" font-family="sans-serif" font-size="12" lengthAdjust="spacingAndGlyphs" textLength="86" x="362.5" y="246.9102">Implement Test</text><line style="stroke: #A80036; stroke-width: 1.5;" x1="334.5" x2="450.5" y1="258" y2="258"/><line style="stroke: #A80036; stroke-width: 1.5;" x1="334.5" x2="450.5" y1="266" y2="266"/><!--class ComponentEngineer--><rect fill="#0000FF" filter="url(#f1ndbpno4xnxv1)" height="48" id="ComponentEngineer" style="stroke: #A80036; stroke-width: 1.5;" width="150" x="629.5" y="352"/><rect fill="#0000FF" height="32" style="stroke: #A80036; stroke-width: 1.5;" width="150" x="629.5" y="352"/><ellipse cx="644.5" cy="368" fill="#ADD1B2" rx="11" ry="11" style="stroke: #A80036; stroke-width: 1.0;"/><path d="M647.2656,363.875 Q647.4219,363.6563 647.6094,363.5469 Q647.7969,363.4375 648.0156,363.4375 Q648.3906,363.4375 648.625,363.6953 Q648.8594,363.9531 648.8594,364.5625 L648.8594,366.0156 Q648.8594,366.625 648.625,366.8906 Q648.3906,367.1563 648.0156,367.1563 Q647.6719,367.1563 647.4688,366.9531 Q647.2656,366.7656 647.1563,366.25 Q647.1094,365.8906 646.9219,365.7031 Q646.5938,365.3281 645.9844,365.1094 Q645.375,364.8906 644.75,364.8906 Q643.9844,364.8906 643.3516,365.2188 Q642.7188,365.5469 642.2266,366.2969 Q641.7344,367.0469 641.7344,368.0781 L641.7344,369.1719 Q641.7344,370.4063 642.625,371.2266 Q643.5156,372.0469 645.1094,372.0469 Q646.0469,372.0469 646.7031,371.7969 Q647.0938,371.6406 647.5156,371.2031 Q647.7813,370.9375 647.9297,370.8594 Q648.0781,370.7813 648.2813,370.7813 Q648.6094,370.7813 648.8672,371.0391 Q649.125,371.2969 649.125,371.6406 Q649.125,371.9844 648.7813,372.3906 Q648.2813,372.9688 647.4844,373.2969 Q646.4063,373.75 645.1094,373.75 Q643.5938,373.75 642.3906,373.125 Q641.4063,372.625 640.7188,371.5547 Q640.0313,370.4844 640.0313,369.2031 L640.0313,368.0469 Q640.0313,366.7188 640.6484,365.5703 Q641.2656,364.4219 642.3594,363.8047 Q643.4531,363.1875 644.6875,363.1875 Q645.4219,363.1875 646.0703,363.3516 Q646.7188,363.5156 647.2656,363.875 Z "/><text fill="#000000" font-family="sans-serif" font-size="12" lengthAdjust="spacingAndGlyphs" textLength="118" x="658.5" y="372.9102">Component Engineer</text><line style="stroke: #A80036; stroke-width: 1.5;" x1="630.5" x2="778.5" y1="384" y2="384"/><line style="stroke: #A80036; stroke-width: 1.5;" x1="630.5" x2="778.5" y1="392" y2="392"/><!--link Activity to TestsActivity--><path d="M535.976,74.127 C528.4,88.602 520.154,104.357 513.627,116.828 " fill="none" id="Activity-TestsActivity" style="stroke: #A80036; stroke-width: 1.0;"/><polygon fill="none" points="529.873,70.691,545.349,56.217,542.277,77.183,529.873,70.691" style="stroke: #A80036; stroke-width: 1.0;"/><!--link Activity to Role--><path d="M569.868,56.217 C578.607,72.623 590.364,94.692 599.617,112.062 " fill="none" id="Activity-Role" style="stroke: #A80036; stroke-width: 1.0;"/><polygon fill="#A80036" points="602.156,116.828,601.4537,107.0042,599.8047,112.4154,594.3935,110.7663,602.156,116.828" style="stroke: #A80036; stroke-width: 1.0;"/><!--link TestsActivity to TestsRole--><path d="M526.019,165.217 C543.789,182.043 567.85,204.827 586.396,222.389 " fill="none" id="TestsActivity-TestsRole" style="stroke: #A80036; stroke-width: 1.0;"/><polygon fill="#A80036" points="590.029,225.828,586.2422,216.7362,586.3977,222.3909,580.7429,222.5464,590.029,225.828" style="stroke: #A80036; stroke-width: 1.0;"/><!--link TestsActivity to ImplementTest--><path d="M463.546,179.258 C447.77,194.744 429.951,212.236 416.105,225.828 " fill="none" id="TestsActivity-ImplementTest" style="stroke: #A80036; stroke-width: 1.0;"/><polygon fill="none" points="458.672,174.233,477.849,165.217,468.48,184.223,458.672,174.233" style="stroke: #A80036; stroke-width: 1.0;"/><!--link ImplementTest to TestCase--><path d="M333.449,272.126 C276.743,292.453 188.694,324.1257 112.5,352 C108.47,353.4742 104.2957,355.0082 100.1044,356.5531 " fill="none" id="ImplementTest-TestCase" style="stroke: #A80036; stroke-width: 1.0;"/><polygon fill="#A80036" points="95.1843,358.3687,105.0126,359.0055,99.8751,356.6377,102.2429,351.5002,95.1843,358.3687" style="stroke: #A80036; stroke-width: 1.0;"/><text fill="#000000" font-family="sans-serif" font-size="13" lengthAdjust="spacingAndGlyphs" textLength="10" x="244.5" y="318.4951">in</text><!--link ImplementTest to TestProcedure--><path d="M354.607,274.033 C319.508,295.368 267.376,327.0557 230.903,349.2253 " fill="none" id="ImplementTest-TestProcedure" style="stroke: #A80036; stroke-width: 1.0;"/><polygon fill="#A80036" points="226.535,351.8804,236.3033,350.6236,230.8076,349.2833,232.1479,343.7875,226.535,351.8804" style="stroke: #A80036; stroke-width: 1.0;"/><text fill="#000000" font-family="sans-serif" font-size="13" lengthAdjust="spacingAndGlyphs" textLength="10" x="304.5" y="318.4951">in</text><!--link ImplementTest to ImplementationModel--><path d="M386.185,274.033 C380.543,294.609 372.261,324.8143 366.226,346.8242 " fill="none" id="ImplementTest-ImplementationModel" style="stroke: #A80036; stroke-width: 1.0;"/><polygon fill="#A80036" points="364.897,351.6697,371.1349,344.0481,366.2194,346.8478,363.4198,341.9323,364.897,351.6697" style="stroke: #A80036; stroke-width: 1.0;"/><text fill="#000000" font-family="sans-serif" font-size="13" lengthAdjust="spacingAndGlyphs" textLength="10" x="379.5" y="318.4951">in</text><!--link ImplementTest to TestComponent--><path d="M418.505,274.033 C442.224,295.041 477.276,326.0877 502.242,348.2004 " fill="none" id="ImplementTest-TestComponent" style="stroke: #A80036; stroke-width: 1.0;"/><polygon fill="#A80036" points="506.159,351.6697,502.0745,342.7077,502.4163,348.3543,496.7698,348.6961,506.159,351.6697" style="stroke: #A80036; stroke-width: 1.0;"/><text fill="#000000" font-family="sans-serif" font-size="13" lengthAdjust="spacingAndGlyphs" textLength="18" x="472.5" y="318.4951">out</text><!--link ImplementTest to ComponentEngineer--><path d="M450.454,274.033 C504.876,295.662 586.07,327.9317 641.942,350.1371 " fill="none" id="ImplementTest-ComponentEngineer" style="stroke: #A80036; stroke-width: 1.0;"/><polygon fill="#A80036" points="646.593,351.9856,639.7072,344.9438,641.9467,350.1386,636.752,352.378,646.593,351.9856" style="stroke: #A80036; stroke-width: 1.0;"/><!--link Role to TestsRole--><path d="M614.5,185.578 C614.5,199.362 614.5,214.057 614.5,225.828 " fill="none" id="Role-TestsRole" style="stroke: #A80036; stroke-width: 1.0;"/><polygon fill="none" points="607.5,185.217,614.5,165.217,621.5,185.217,607.5,185.217" style="stroke: #A80036; stroke-width: 1.0;"/><!--link TestsRole to ComponentEngineer--><path d="M642.972,290.229 C657.638,310.4347 675.024,334.3883 687.567,351.6697 " fill="none" id="TestsRole-ComponentEngineer" style="stroke: #A80036; stroke-width: 1.0;"/><polygon fill="none" points="637.3,294.331,631.217,274.033,648.63,286.107,637.3,294.331" style="stroke: #A80036; stroke-width: 1.0;"/><!--
@startuml

class Activity #red
Activity <|- - TestsActivity
Activity - -> Role

class "Test Case" as TestCase #green
class "Test Procedure" as TestProcedure #green
class "Implementation Model" as ImplementationModel #green
class "Test Component" as TestComponent #green

class TestsActivity #red
TestsActivity - -> TestsRole

class "Implement Test" as ImplementTest #red
TestsActivity <|- - ImplementTest

ImplementTest - -> TestCase :in
ImplementTest - -> TestProcedure :in
ImplementTest - -> ImplementationModel :in
ImplementTest - -> TestComponent :out

class Role #blue
class TestsRole #blue
class "Component Engineer" as ComponentEngineer #blue

ImplementTest - -> ComponentEngineer

Role <|- - TestsRole
TestsRole <|- - ComponentEngineer
@enduml

PlantUML version 1.2019.05(Sat Apr 20 18:45:36 CEST 2019)
(GPL source distribution)
Java Runtime: OpenJDK Runtime Environment
JVM: OpenJDK 64-Bit Server VM
Java Version: 1.8.0_222-b10
Operating System: Windows 10
OS Version: 10.0
Default Encoding: windows-1252
Language: es
Country: ES
--></g></svg>