<?xml version="1.0" encoding="UTF-8" standalone="no"?><svg xmlns="http://www.w3.org/2000/svg" xmlns:xlink="http://www.w3.org/1999/xlink" contentScriptType="application/ecmascript" contentStyleType="text/css" height="411px" preserveAspectRatio="none" style="width:1616px;height:411px;" version="1.1" viewBox="0 0 1616 411" width="1616px" zoomAndPan="magnify"><defs><filter height="300%" id="f1q82cyq0xzikv" width="300%" x="-1" y="-1"><feGaussianBlur result="blurOut" stdDeviation="2.0"/><feColorMatrix in="blurOut" result="blurOut2" type="matrix" values="0 0 0 0 0 0 0 0 0 0 0 0 0 0 0 0 0 0 .4 0"/><feOffset dx="4.0" dy="4.0" in="blurOut2" result="blurOut3"/><feBlend in="SourceGraphic" in2="blurOut3" mode="normal"/></filter></defs><g><!--class Activity--><rect fill="#FF0000" filter="url(#f1q82cyq0xzikv)" height="48" id="Activity" style="stroke: #A80036; stroke-width: 1.5;" width="67" x="1150" y="8"/><rect fill="#FF0000" height="32" style="stroke: #A80036; stroke-width: 1.5;" width="67" x="1150" y="8"/><ellipse cx="1165" cy="24" fill="#ADD1B2" rx="11" ry="11" style="stroke: #A80036; stroke-width: 1.0;"/><path d="M1167.7656,19.875 Q1167.9219,19.6563 1168.1094,19.5469 Q1168.2969,19.4375 1168.5156,19.4375 Q1168.8906,19.4375 1169.125,19.6953 Q1169.3594,19.9531 1169.3594,20.5625 L1169.3594,22.0156 Q1169.3594,22.625 1169.125,22.8906 Q1168.8906,23.1563 1168.5156,23.1563 Q1168.1719,23.1563 1167.9688,22.9531 Q1167.7656,22.7656 1167.6563,22.25 Q1167.6094,21.8906 1167.4219,21.7031 Q1167.0938,21.3281 1166.4844,21.1094 Q1165.875,20.8906 1165.25,20.8906 Q1164.4844,20.8906 1163.8516,21.2188 Q1163.2188,21.5469 1162.7266,22.2969 Q1162.2344,23.0469 1162.2344,24.0781 L1162.2344,25.1719 Q1162.2344,26.4063 1163.125,27.2266 Q1164.0156,28.0469 1165.6094,28.0469 Q1166.5469,28.0469 1167.2031,27.7969 Q1167.5938,27.6406 1168.0156,27.2031 Q1168.2813,26.9375 1168.4297,26.8594 Q1168.5781,26.7813 1168.7813,26.7813 Q1169.1094,26.7813 1169.3672,27.0391 Q1169.625,27.2969 1169.625,27.6406 Q1169.625,27.9844 1169.2813,28.3906 Q1168.7813,28.9688 1167.9844,29.2969 Q1166.9063,29.75 1165.6094,29.75 Q1164.0938,29.75 1162.8906,29.125 Q1161.9063,28.625 1161.2188,27.5547 Q1160.5313,26.4844 1160.5313,25.2031 L1160.5313,24.0469 Q1160.5313,22.7188 1161.1484,21.5703 Q1161.7656,20.4219 1162.8594,19.8047 Q1163.9531,19.1875 1165.1875,19.1875 Q1165.9219,19.1875 1166.5703,19.3516 Q1167.2188,19.5156 1167.7656,19.875 Z "/><text fill="#000000" font-family="sans-serif" font-size="12" lengthAdjust="spacingAndGlyphs" textLength="35" x="1179" y="28.9102">Activity</text><line style="stroke: #A80036; stroke-width: 1.5;" x1="1151" x2="1216" y1="40" y2="40"/><line style="stroke: #A80036; stroke-width: 1.5;" x1="1151" x2="1216" y1="48" y2="48"/><!--class ImplementationActivity--><rect fill="#FF0000" filter="url(#f1q82cyq0xzikv)" height="48" id="ImplementationActivity" style="stroke: #A80036; stroke-width: 1.5;" width="153" x="1037" y="117"/><rect fill="#FF0000" height="32" style="stroke: #A80036; stroke-width: 1.5;" width="153" x="1037" y="117"/><ellipse cx="1052" cy="133" fill="#ADD1B2" rx="11" ry="11" style="stroke: #A80036; stroke-width: 1.0;"/><path d="M1054.7656,128.875 Q1054.9219,128.6563 1055.1094,128.5469 Q1055.2969,128.4375 1055.5156,128.4375 Q1055.8906,128.4375 1056.125,128.6953 Q1056.3594,128.9531 1056.3594,129.5625 L1056.3594,131.0156 Q1056.3594,131.625 1056.125,131.8906 Q1055.8906,132.1563 1055.5156,132.1563 Q1055.1719,132.1563 1054.9688,131.9531 Q1054.7656,131.7656 1054.6563,131.25 Q1054.6094,130.8906 1054.4219,130.7031 Q1054.0938,130.3281 1053.4844,130.1094 Q1052.875,129.8906 1052.25,129.8906 Q1051.4844,129.8906 1050.8516,130.2188 Q1050.2188,130.5469 1049.7266,131.2969 Q1049.2344,132.0469 1049.2344,133.0781 L1049.2344,134.1719 Q1049.2344,135.4063 1050.125,136.2266 Q1051.0156,137.0469 1052.6094,137.0469 Q1053.5469,137.0469 1054.2031,136.7969 Q1054.5938,136.6406 1055.0156,136.2031 Q1055.2813,135.9375 1055.4297,135.8594 Q1055.5781,135.7813 1055.7813,135.7813 Q1056.1094,135.7813 1056.3672,136.0391 Q1056.625,136.2969 1056.625,136.6406 Q1056.625,136.9844 1056.2813,137.3906 Q1055.7813,137.9688 1054.9844,138.2969 Q1053.9063,138.75 1052.6094,138.75 Q1051.0938,138.75 1049.8906,138.125 Q1048.9063,137.625 1048.2188,136.5547 Q1047.5313,135.4844 1047.5313,134.2031 L1047.5313,133.0469 Q1047.5313,131.7188 1048.1484,130.5703 Q1048.7656,129.4219 1049.8594,128.8047 Q1050.9531,128.1875 1052.1875,128.1875 Q1052.9219,128.1875 1053.5703,128.3516 Q1054.2188,128.5156 1054.7656,128.875 Z "/><text fill="#000000" font-family="sans-serif" font-size="12" lengthAdjust="spacingAndGlyphs" textLength="121" x="1066" y="137.9102">ImplementationActivity</text><line style="stroke: #A80036; stroke-width: 1.5;" x1="1038" x2="1189" y1="149" y2="149"/><line style="stroke: #A80036; stroke-width: 1.5;" x1="1038" x2="1189" y1="157" y2="157"/><!--class Role--><rect fill="#0000FF" filter="url(#f1q82cyq0xzikv)" height="48" id="Role" style="stroke: #A80036; stroke-width: 1.5;" width="58" x="1225.5" y="117"/><rect fill="#0000FF" height="32" style="stroke: #A80036; stroke-width: 1.5;" width="58" x="1225.5" y="117"/><ellipse cx="1240.5" cy="133" fill="#ADD1B2" rx="11" ry="11" style="stroke: #A80036; stroke-width: 1.0;"/><path d="M1243.2656,128.875 Q1243.4219,128.6563 1243.6094,128.5469 Q1243.7969,128.4375 1244.0156,128.4375 Q1244.3906,128.4375 1244.625,128.6953 Q1244.8594,128.9531 1244.8594,129.5625 L1244.8594,131.0156 Q1244.8594,131.625 1244.625,131.8906 Q1244.3906,132.1563 1244.0156,132.1563 Q1243.6719,132.1563 1243.4688,131.9531 Q1243.2656,131.7656 1243.1563,131.25 Q1243.1094,130.8906 1242.9219,130.7031 Q1242.5938,130.3281 1241.9844,130.1094 Q1241.375,129.8906 1240.75,129.8906 Q1239.9844,129.8906 1239.3516,130.2188 Q1238.7188,130.5469 1238.2266,131.2969 Q1237.7344,132.0469 1237.7344,133.0781 L1237.7344,134.1719 Q1237.7344,135.4063 1238.625,136.2266 Q1239.5156,137.0469 1241.1094,137.0469 Q1242.0469,137.0469 1242.7031,136.7969 Q1243.0938,136.6406 1243.5156,136.2031 Q1243.7813,135.9375 1243.9297,135.8594 Q1244.0781,135.7813 1244.2813,135.7813 Q1244.6094,135.7813 1244.8672,136.0391 Q1245.125,136.2969 1245.125,136.6406 Q1245.125,136.9844 1244.7813,137.3906 Q1244.2813,137.9688 1243.4844,138.2969 Q1242.4063,138.75 1241.1094,138.75 Q1239.5938,138.75 1238.3906,138.125 Q1237.4063,137.625 1236.7188,136.5547 Q1236.0313,135.4844 1236.0313,134.2031 L1236.0313,133.0469 Q1236.0313,131.7188 1236.6484,130.5703 Q1237.2656,129.4219 1238.3594,128.8047 Q1239.4531,128.1875 1240.6875,128.1875 Q1241.4219,128.1875 1242.0703,128.3516 Q1242.7188,128.5156 1243.2656,128.875 Z "/><text fill="#000000" font-family="sans-serif" font-size="12" lengthAdjust="spacingAndGlyphs" textLength="26" x="1254.5" y="137.9102">Role</text><line style="stroke: #A80036; stroke-width: 1.5;" x1="1226.5" x2="1282.5" y1="149" y2="149"/><line style="stroke: #A80036; stroke-width: 1.5;" x1="1226.5" x2="1282.5" y1="157" y2="157"/><!--class RequirementsSupplementary--><rect fill="#008000" filter="url(#f1q82cyq0xzikv)" height="48" id="RequirementsSupplementary" style="stroke: #A80036; stroke-width: 1.5;" width="197" x="6" y="352"/><rect fill="#008000" height="32" style="stroke: #A80036; stroke-width: 1.5;" width="197" x="6" y="352"/><ellipse cx="21" cy="368" fill="#ADD1B2" rx="11" ry="11" style="stroke: #A80036; stroke-width: 1.0;"/><path d="M23.7656,363.875 Q23.9219,363.6563 24.1094,363.5469 Q24.2969,363.4375 24.5156,363.4375 Q24.8906,363.4375 25.125,363.6953 Q25.3594,363.9531 25.3594,364.5625 L25.3594,366.0156 Q25.3594,366.625 25.125,366.8906 Q24.8906,367.1563 24.5156,367.1563 Q24.1719,367.1563 23.9688,366.9531 Q23.7656,366.7656 23.6563,366.25 Q23.6094,365.8906 23.4219,365.7031 Q23.0938,365.3281 22.4844,365.1094 Q21.875,364.8906 21.25,364.8906 Q20.4844,364.8906 19.8516,365.2188 Q19.2188,365.5469 18.7266,366.2969 Q18.2344,367.0469 18.2344,368.0781 L18.2344,369.1719 Q18.2344,370.4063 19.125,371.2266 Q20.0156,372.0469 21.6094,372.0469 Q22.5469,372.0469 23.2031,371.7969 Q23.5938,371.6406 24.0156,371.2031 Q24.2813,370.9375 24.4297,370.8594 Q24.5781,370.7813 24.7813,370.7813 Q25.1094,370.7813 25.3672,371.0391 Q25.625,371.2969 25.625,371.6406 Q25.625,371.9844 25.2813,372.3906 Q24.7813,372.9688 23.9844,373.2969 Q22.9063,373.75 21.6094,373.75 Q20.0938,373.75 18.8906,373.125 Q17.9063,372.625 17.2188,371.5547 Q16.5313,370.4844 16.5313,369.2031 L16.5313,368.0469 Q16.5313,366.7188 17.1484,365.5703 Q17.7656,364.4219 18.8594,363.8047 Q19.9531,363.1875 21.1875,363.1875 Q21.9219,363.1875 22.5703,363.3516 Q23.2188,363.5156 23.7656,363.875 Z "/><text fill="#000000" font-family="sans-serif" font-size="12" lengthAdjust="spacingAndGlyphs" textLength="165" x="35" y="372.9102">Requirements Supplementary</text><line style="stroke: #A80036; stroke-width: 1.5;" x1="7" x2="202" y1="384" y2="384"/><line style="stroke: #A80036; stroke-width: 1.5;" x1="7" x2="202" y1="392" y2="392"/><!--class ModelUseCases--><rect fill="#008000" filter="url(#f1q82cyq0xzikv)" height="48" id="ModelUseCases" style="stroke: #A80036; stroke-width: 1.5;" width="141" x="238" y="352"/><rect fill="#008000" height="32" style="stroke: #A80036; stroke-width: 1.5;" width="141" x="238" y="352"/><ellipse cx="253" cy="368" fill="#ADD1B2" rx="11" ry="11" style="stroke: #A80036; stroke-width: 1.0;"/><path d="M255.7656,363.875 Q255.9219,363.6563 256.1094,363.5469 Q256.2969,363.4375 256.5156,363.4375 Q256.8906,363.4375 257.125,363.6953 Q257.3594,363.9531 257.3594,364.5625 L257.3594,366.0156 Q257.3594,366.625 257.125,366.8906 Q256.8906,367.1563 256.5156,367.1563 Q256.1719,367.1563 255.9688,366.9531 Q255.7656,366.7656 255.6563,366.25 Q255.6094,365.8906 255.4219,365.7031 Q255.0938,365.3281 254.4844,365.1094 Q253.875,364.8906 253.25,364.8906 Q252.4844,364.8906 251.8516,365.2188 Q251.2188,365.5469 250.7266,366.2969 Q250.2344,367.0469 250.2344,368.0781 L250.2344,369.1719 Q250.2344,370.4063 251.125,371.2266 Q252.0156,372.0469 253.6094,372.0469 Q254.5469,372.0469 255.2031,371.7969 Q255.5938,371.6406 256.0156,371.2031 Q256.2813,370.9375 256.4297,370.8594 Q256.5781,370.7813 256.7813,370.7813 Q257.1094,370.7813 257.3672,371.0391 Q257.625,371.2969 257.625,371.6406 Q257.625,371.9844 257.2813,372.3906 Q256.7813,372.9688 255.9844,373.2969 Q254.9063,373.75 253.6094,373.75 Q252.0938,373.75 250.8906,373.125 Q249.9063,372.625 249.2188,371.5547 Q248.5313,370.4844 248.5313,369.2031 L248.5313,368.0469 Q248.5313,366.7188 249.1484,365.5703 Q249.7656,364.4219 250.8594,363.8047 Q251.9531,363.1875 253.1875,363.1875 Q253.9219,363.1875 254.5703,363.3516 Q255.2188,363.5156 255.7656,363.875 Z "/><text fill="#000000" font-family="sans-serif" font-size="12" lengthAdjust="spacingAndGlyphs" textLength="109" x="267" y="372.9102">Model of Use cases</text><line style="stroke: #A80036; stroke-width: 1.5;" x1="239" x2="378" y1="384" y2="384"/><line style="stroke: #A80036; stroke-width: 1.5;" x1="239" x2="378" y1="392" y2="392"/><!--class DesignModel--><rect fill="#008000" filter="url(#f1q82cyq0xzikv)" height="48" id="DesignModel" style="stroke: #A80036; stroke-width: 1.5;" width="108" x="414.5" y="352"/><rect fill="#008000" height="32" style="stroke: #A80036; stroke-width: 1.5;" width="108" x="414.5" y="352"/><ellipse cx="429.5" cy="368" fill="#ADD1B2" rx="11" ry="11" style="stroke: #A80036; stroke-width: 1.0;"/><path d="M432.2656,363.875 Q432.4219,363.6563 432.6094,363.5469 Q432.7969,363.4375 433.0156,363.4375 Q433.3906,363.4375 433.625,363.6953 Q433.8594,363.9531 433.8594,364.5625 L433.8594,366.0156 Q433.8594,366.625 433.625,366.8906 Q433.3906,367.1563 433.0156,367.1563 Q432.6719,367.1563 432.4688,366.9531 Q432.2656,366.7656 432.1563,366.25 Q432.1094,365.8906 431.9219,365.7031 Q431.5938,365.3281 430.9844,365.1094 Q430.375,364.8906 429.75,364.8906 Q428.9844,364.8906 428.3516,365.2188 Q427.7188,365.5469 427.2266,366.2969 Q426.7344,367.0469 426.7344,368.0781 L426.7344,369.1719 Q426.7344,370.4063 427.625,371.2266 Q428.5156,372.0469 430.1094,372.0469 Q431.0469,372.0469 431.7031,371.7969 Q432.0938,371.6406 432.5156,371.2031 Q432.7813,370.9375 432.9297,370.8594 Q433.0781,370.7813 433.2813,370.7813 Q433.6094,370.7813 433.8672,371.0391 Q434.125,371.2969 434.125,371.6406 Q434.125,371.9844 433.7813,372.3906 Q433.2813,372.9688 432.4844,373.2969 Q431.4063,373.75 430.1094,373.75 Q428.5938,373.75 427.3906,373.125 Q426.4063,372.625 425.7188,371.5547 Q425.0313,370.4844 425.0313,369.2031 L425.0313,368.0469 Q425.0313,366.7188 425.6484,365.5703 Q426.2656,364.4219 427.3594,363.8047 Q428.4531,363.1875 429.6875,363.1875 Q430.4219,363.1875 431.0703,363.3516 Q431.7188,363.5156 432.2656,363.875 Z "/><text fill="#000000" font-family="sans-serif" font-size="12" lengthAdjust="spacingAndGlyphs" textLength="76" x="443.5" y="372.9102">Design Model</text><line style="stroke: #A80036; stroke-width: 1.5;" x1="415.5" x2="521.5" y1="384" y2="384"/><line style="stroke: #A80036; stroke-width: 1.5;" x1="415.5" x2="521.5" y1="392" y2="392"/><!--class ImplementationModel--><rect fill="#008000" filter="url(#f1q82cyq0xzikv)" height="48" id="ImplementationModel" style="stroke: #A80036; stroke-width: 1.5;" width="282" x="557.5" y="352"/><rect fill="#008000" height="32" style="stroke: #A80036; stroke-width: 1.5;" width="282" x="557.5" y="352"/><ellipse cx="572.5" cy="368" fill="#ADD1B2" rx="11" ry="11" style="stroke: #A80036; stroke-width: 1.0;"/><path d="M575.2656,363.875 Q575.4219,363.6563 575.6094,363.5469 Q575.7969,363.4375 576.0156,363.4375 Q576.3906,363.4375 576.625,363.6953 Q576.8594,363.9531 576.8594,364.5625 L576.8594,366.0156 Q576.8594,366.625 576.625,366.8906 Q576.3906,367.1563 576.0156,367.1563 Q575.6719,367.1563 575.4688,366.9531 Q575.2656,366.7656 575.1563,366.25 Q575.1094,365.8906 574.9219,365.7031 Q574.5938,365.3281 573.9844,365.1094 Q573.375,364.8906 572.75,364.8906 Q571.9844,364.8906 571.3516,365.2188 Q570.7188,365.5469 570.2266,366.2969 Q569.7344,367.0469 569.7344,368.0781 L569.7344,369.1719 Q569.7344,370.4063 570.625,371.2266 Q571.5156,372.0469 573.1094,372.0469 Q574.0469,372.0469 574.7031,371.7969 Q575.0938,371.6406 575.5156,371.2031 Q575.7813,370.9375 575.9297,370.8594 Q576.0781,370.7813 576.2813,370.7813 Q576.6094,370.7813 576.8672,371.0391 Q577.125,371.2969 577.125,371.6406 Q577.125,371.9844 576.7813,372.3906 Q576.2813,372.9688 575.4844,373.2969 Q574.4063,373.75 573.1094,373.75 Q571.5938,373.75 570.3906,373.125 Q569.4063,372.625 568.7188,371.5547 Q568.0313,370.4844 568.0313,369.2031 L568.0313,368.0469 Q568.0313,366.7188 568.6484,365.5703 Q569.2656,364.4219 570.3594,363.8047 Q571.4531,363.1875 572.6875,363.1875 Q573.4219,363.1875 574.0703,363.3516 Q574.7188,363.5156 575.2656,363.875 Z "/><text fill="#000000" font-family="sans-serif" font-size="12" lengthAdjust="spacingAndGlyphs" textLength="250" x="586.5" y="372.9102">Implementation Model (previous construction)</text><line style="stroke: #A80036; stroke-width: 1.5;" x1="558.5" x2="838.5" y1="384" y2="384"/><line style="stroke: #A80036; stroke-width: 1.5;" x1="558.5" x2="838.5" y1="392" y2="392"/><!--class IntegrationPlanConstructions--><rect fill="#008000" filter="url(#f1q82cyq0xzikv)" height="48" id="IntegrationPlanConstructions" style="stroke: #A80036; stroke-width: 1.5;" width="211" x="875" y="352"/><rect fill="#008000" height="32" style="stroke: #A80036; stroke-width: 1.5;" width="211" x="875" y="352"/><ellipse cx="890" cy="368" fill="#ADD1B2" rx="11" ry="11" style="stroke: #A80036; stroke-width: 1.0;"/><path d="M892.7656,363.875 Q892.9219,363.6563 893.1094,363.5469 Q893.2969,363.4375 893.5156,363.4375 Q893.8906,363.4375 894.125,363.6953 Q894.3594,363.9531 894.3594,364.5625 L894.3594,366.0156 Q894.3594,366.625 894.125,366.8906 Q893.8906,367.1563 893.5156,367.1563 Q893.1719,367.1563 892.9688,366.9531 Q892.7656,366.7656 892.6563,366.25 Q892.6094,365.8906 892.4219,365.7031 Q892.0938,365.3281 891.4844,365.1094 Q890.875,364.8906 890.25,364.8906 Q889.4844,364.8906 888.8516,365.2188 Q888.2188,365.5469 887.7266,366.2969 Q887.2344,367.0469 887.2344,368.0781 L887.2344,369.1719 Q887.2344,370.4063 888.125,371.2266 Q889.0156,372.0469 890.6094,372.0469 Q891.5469,372.0469 892.2031,371.7969 Q892.5938,371.6406 893.0156,371.2031 Q893.2813,370.9375 893.4297,370.8594 Q893.5781,370.7813 893.7813,370.7813 Q894.1094,370.7813 894.3672,371.0391 Q894.625,371.2969 894.625,371.6406 Q894.625,371.9844 894.2813,372.3906 Q893.7813,372.9688 892.9844,373.2969 Q891.9063,373.75 890.6094,373.75 Q889.0938,373.75 887.8906,373.125 Q886.9063,372.625 886.2188,371.5547 Q885.5313,370.4844 885.5313,369.2031 L885.5313,368.0469 Q885.5313,366.7188 886.1484,365.5703 Q886.7656,364.4219 887.8594,363.8047 Q888.9531,363.1875 890.1875,363.1875 Q890.9219,363.1875 891.5703,363.3516 Q892.2188,363.5156 892.7656,363.875 Z "/><text fill="#000000" font-family="sans-serif" font-size="12" lengthAdjust="spacingAndGlyphs" textLength="179" x="904" y="372.9102">Integration Plan of Constructions</text><line style="stroke: #A80036; stroke-width: 1.5;" x1="876" x2="1085" y1="384" y2="384"/><line style="stroke: #A80036; stroke-width: 1.5;" x1="876" x2="1085" y1="392" y2="392"/><!--class ImplementationModelX--><rect fill="#008000" filter="url(#f1q82cyq0xzikv)" height="48" id="ImplementationModelX" style="stroke: #A80036; stroke-width: 1.5;" width="301" x="1121" y="352"/><rect fill="#008000" height="32" style="stroke: #A80036; stroke-width: 1.5;" width="301" x="1121" y="352"/><ellipse cx="1136" cy="368" fill="#ADD1B2" rx="11" ry="11" style="stroke: #A80036; stroke-width: 1.0;"/><path d="M1138.7656,363.875 Q1138.9219,363.6563 1139.1094,363.5469 Q1139.2969,363.4375 1139.5156,363.4375 Q1139.8906,363.4375 1140.125,363.6953 Q1140.3594,363.9531 1140.3594,364.5625 L1140.3594,366.0156 Q1140.3594,366.625 1140.125,366.8906 Q1139.8906,367.1563 1139.5156,367.1563 Q1139.1719,367.1563 1138.9688,366.9531 Q1138.7656,366.7656 1138.6563,366.25 Q1138.6094,365.8906 1138.4219,365.7031 Q1138.0938,365.3281 1137.4844,365.1094 Q1136.875,364.8906 1136.25,364.8906 Q1135.4844,364.8906 1134.8516,365.2188 Q1134.2188,365.5469 1133.7266,366.2969 Q1133.2344,367.0469 1133.2344,368.0781 L1133.2344,369.1719 Q1133.2344,370.4063 1134.125,371.2266 Q1135.0156,372.0469 1136.6094,372.0469 Q1137.5469,372.0469 1138.2031,371.7969 Q1138.5938,371.6406 1139.0156,371.2031 Q1139.2813,370.9375 1139.4297,370.8594 Q1139.5781,370.7813 1139.7813,370.7813 Q1140.1094,370.7813 1140.3672,371.0391 Q1140.625,371.2969 1140.625,371.6406 Q1140.625,371.9844 1140.2813,372.3906 Q1139.7813,372.9688 1138.9844,373.2969 Q1137.9063,373.75 1136.6094,373.75 Q1135.0938,373.75 1133.8906,373.125 Q1132.9063,372.625 1132.2188,371.5547 Q1131.5313,370.4844 1131.5313,369.2031 L1131.5313,368.0469 Q1131.5313,366.7188 1132.1484,365.5703 Q1132.7656,364.4219 1133.8594,363.8047 Q1134.9531,363.1875 1136.1875,363.1875 Q1136.9219,363.1875 1137.5703,363.3516 Q1138.2188,363.5156 1138.7656,363.875 Z "/><text fill="#000000" font-family="sans-serif" font-size="12" lengthAdjust="spacingAndGlyphs" textLength="269" x="1150" y="372.9102">Implementation Model (subsequent construction)</text><line style="stroke: #A80036; stroke-width: 1.5;" x1="1122" x2="1421" y1="384" y2="384"/><line style="stroke: #A80036; stroke-width: 1.5;" x1="1122" x2="1421" y1="392" y2="392"/><!--class ImplementationRole--><rect fill="#0000FF" filter="url(#f1q82cyq0xzikv)" height="48" id="ImplementationRole" style="stroke: #A80036; stroke-width: 1.5;" width="144" x="1182.5" y="226"/><rect fill="#0000FF" height="32" style="stroke: #A80036; stroke-width: 1.5;" width="144" x="1182.5" y="226"/><ellipse cx="1197.5" cy="242" fill="#ADD1B2" rx="11" ry="11" style="stroke: #A80036; stroke-width: 1.0;"/><path d="M1200.2656,237.875 Q1200.4219,237.6563 1200.6094,237.5469 Q1200.7969,237.4375 1201.0156,237.4375 Q1201.3906,237.4375 1201.625,237.6953 Q1201.8594,237.9531 1201.8594,238.5625 L1201.8594,240.0156 Q1201.8594,240.625 1201.625,240.8906 Q1201.3906,241.1563 1201.0156,241.1563 Q1200.6719,241.1563 1200.4688,240.9531 Q1200.2656,240.7656 1200.1563,240.25 Q1200.1094,239.8906 1199.9219,239.7031 Q1199.5938,239.3281 1198.9844,239.1094 Q1198.375,238.8906 1197.75,238.8906 Q1196.9844,238.8906 1196.3516,239.2188 Q1195.7188,239.5469 1195.2266,240.2969 Q1194.7344,241.0469 1194.7344,242.0781 L1194.7344,243.1719 Q1194.7344,244.4063 1195.625,245.2266 Q1196.5156,246.0469 1198.1094,246.0469 Q1199.0469,246.0469 1199.7031,245.7969 Q1200.0938,245.6406 1200.5156,245.2031 Q1200.7813,244.9375 1200.9297,244.8594 Q1201.0781,244.7813 1201.2813,244.7813 Q1201.6094,244.7813 1201.8672,245.0391 Q1202.125,245.2969 1202.125,245.6406 Q1202.125,245.9844 1201.7813,246.3906 Q1201.2813,246.9688 1200.4844,247.2969 Q1199.4063,247.75 1198.1094,247.75 Q1196.5938,247.75 1195.3906,247.125 Q1194.4063,246.625 1193.7188,245.5547 Q1193.0313,244.4844 1193.0313,243.2031 L1193.0313,242.0469 Q1193.0313,240.7188 1193.6484,239.5703 Q1194.2656,238.4219 1195.3594,237.8047 Q1196.4531,237.1875 1197.6875,237.1875 Q1198.4219,237.1875 1199.0703,237.3516 Q1199.7188,237.5156 1200.2656,237.875 Z "/><text fill="#000000" font-family="sans-serif" font-size="12" lengthAdjust="spacingAndGlyphs" textLength="112" x="1211.5" y="246.9102">ImplementationRole</text><line style="stroke: #A80036; stroke-width: 1.5;" x1="1183.5" x2="1325.5" y1="258" y2="258"/><line style="stroke: #A80036; stroke-width: 1.5;" x1="1183.5" x2="1325.5" y1="266" y2="266"/><!--class IntegrateSystems--><rect fill="#FF0000" filter="url(#f1q82cyq0xzikv)" height="48" id="IntegrateSystems" style="stroke: #A80036; stroke-width: 1.5;" width="131" x="774" y="226"/><rect fill="#FF0000" height="32" style="stroke: #A80036; stroke-width: 1.5;" width="131" x="774" y="226"/><ellipse cx="789" cy="242" fill="#ADD1B2" rx="11" ry="11" style="stroke: #A80036; stroke-width: 1.0;"/><path d="M791.7656,237.875 Q791.9219,237.6563 792.1094,237.5469 Q792.2969,237.4375 792.5156,237.4375 Q792.8906,237.4375 793.125,237.6953 Q793.3594,237.9531 793.3594,238.5625 L793.3594,240.0156 Q793.3594,240.625 793.125,240.8906 Q792.8906,241.1563 792.5156,241.1563 Q792.1719,241.1563 791.9688,240.9531 Q791.7656,240.7656 791.6563,240.25 Q791.6094,239.8906 791.4219,239.7031 Q791.0938,239.3281 790.4844,239.1094 Q789.875,238.8906 789.25,238.8906 Q788.4844,238.8906 787.8516,239.2188 Q787.2188,239.5469 786.7266,240.2969 Q786.2344,241.0469 786.2344,242.0781 L786.2344,243.1719 Q786.2344,244.4063 787.125,245.2266 Q788.0156,246.0469 789.6094,246.0469 Q790.5469,246.0469 791.2031,245.7969 Q791.5938,245.6406 792.0156,245.2031 Q792.2813,244.9375 792.4297,244.8594 Q792.5781,244.7813 792.7813,244.7813 Q793.1094,244.7813 793.3672,245.0391 Q793.625,245.2969 793.625,245.6406 Q793.625,245.9844 793.2813,246.3906 Q792.7813,246.9688 791.9844,247.2969 Q790.9063,247.75 789.6094,247.75 Q788.0938,247.75 786.8906,247.125 Q785.9063,246.625 785.2188,245.5547 Q784.5313,244.4844 784.5313,243.2031 L784.5313,242.0469 Q784.5313,240.7188 785.1484,239.5703 Q785.7656,238.4219 786.8594,237.8047 Q787.9531,237.1875 789.1875,237.1875 Q789.9219,237.1875 790.5703,237.3516 Q791.2188,237.5156 791.7656,237.875 Z "/><text fill="#000000" font-family="sans-serif" font-size="12" lengthAdjust="spacingAndGlyphs" textLength="99" x="803" y="246.9102">Integrate Systems</text><line style="stroke: #A80036; stroke-width: 1.5;" x1="775" x2="904" y1="258" y2="258"/><line style="stroke: #A80036; stroke-width: 1.5;" x1="775" x2="904" y1="266" y2="266"/><!--class IntegratorSystems--><rect fill="#0000FF" filter="url(#f1q82cyq0xzikv)" height="48" id="IntegratorSystems" style="stroke: #A80036; stroke-width: 1.5;" width="148" x="1457.5" y="352"/><rect fill="#0000FF" height="32" style="stroke: #A80036; stroke-width: 1.5;" width="148" x="1457.5" y="352"/><ellipse cx="1472.5" cy="368" fill="#ADD1B2" rx="11" ry="11" style="stroke: #A80036; stroke-width: 1.0;"/><path d="M1475.2656,363.875 Q1475.4219,363.6563 1475.6094,363.5469 Q1475.7969,363.4375 1476.0156,363.4375 Q1476.3906,363.4375 1476.625,363.6953 Q1476.8594,363.9531 1476.8594,364.5625 L1476.8594,366.0156 Q1476.8594,366.625 1476.625,366.8906 Q1476.3906,367.1563 1476.0156,367.1563 Q1475.6719,367.1563 1475.4688,366.9531 Q1475.2656,366.7656 1475.1563,366.25 Q1475.1094,365.8906 1474.9219,365.7031 Q1474.5938,365.3281 1473.9844,365.1094 Q1473.375,364.8906 1472.75,364.8906 Q1471.9844,364.8906 1471.3516,365.2188 Q1470.7188,365.5469 1470.2266,366.2969 Q1469.7344,367.0469 1469.7344,368.0781 L1469.7344,369.1719 Q1469.7344,370.4063 1470.625,371.2266 Q1471.5156,372.0469 1473.1094,372.0469 Q1474.0469,372.0469 1474.7031,371.7969 Q1475.0938,371.6406 1475.5156,371.2031 Q1475.7813,370.9375 1475.9297,370.8594 Q1476.0781,370.7813 1476.2813,370.7813 Q1476.6094,370.7813 1476.8672,371.0391 Q1477.125,371.2969 1477.125,371.6406 Q1477.125,371.9844 1476.7813,372.3906 Q1476.2813,372.9688 1475.4844,373.2969 Q1474.4063,373.75 1473.1094,373.75 Q1471.5938,373.75 1470.3906,373.125 Q1469.4063,372.625 1468.7188,371.5547 Q1468.0313,370.4844 1468.0313,369.2031 L1468.0313,368.0469 Q1468.0313,366.7188 1468.6484,365.5703 Q1469.2656,364.4219 1470.3594,363.8047 Q1471.4531,363.1875 1472.6875,363.1875 Q1473.4219,363.1875 1474.0703,363.3516 Q1474.7188,363.5156 1475.2656,363.875 Z "/><text fill="#000000" font-family="sans-serif" font-size="12" lengthAdjust="spacingAndGlyphs" textLength="116" x="1486.5" y="372.9102">Integrator of Systems</text><line style="stroke: #A80036; stroke-width: 1.5;" x1="1458.5" x2="1604.5" y1="384" y2="384"/><line style="stroke: #A80036; stroke-width: 1.5;" x1="1458.5" x2="1604.5" y1="392" y2="392"/><!--link Activity to ImplementationActivity--><path d="M1157.23,73.153 C1147.59,87.893 1137,104.076 1128.66,116.828 " fill="none" id="Activity-ImplementationActivity" style="stroke: #A80036; stroke-width: 1.0;"/><polygon fill="none" points="1151.5,69.122,1168.31,56.217,1163.22,76.786,1151.5,69.122" style="stroke: #A80036; stroke-width: 1.0;"/><!--link Activity to Role--><path d="M1198.91,56.217 C1209.88,72.763 1224.69,95.07 1236.26,112.506 " fill="none" id="Activity-Role" style="stroke: #A80036; stroke-width: 1.0;"/><polygon fill="#A80036" points="1239.12,116.828,1237.4828,107.1162,1236.358,112.6601,1230.8141,111.5353,1239.12,116.828" style="stroke: #A80036; stroke-width: 1.0;"/><!--link ImplementationActivity to ImplementationRole--><path d="M1144.09,165.217 C1166.36,182.113 1196.54,205.017 1219.72,222.608 " fill="none" id="ImplementationActivity-ImplementationRole" style="stroke: #A80036; stroke-width: 1.0;"/><polygon fill="#A80036" points="1223.96,225.828,1219.2171,217.1964,1219.98,222.8016,1214.3748,223.5645,1223.96,225.828" style="stroke: #A80036; stroke-width: 1.0;"/><!--link ImplementationActivity to IntegrateSystems--><path d="M1035.46,172.475 C991.916,189.48 938.55,210.32 898.511,225.956 " fill="none" id="ImplementationActivity-IntegrateSystems" style="stroke: #A80036; stroke-width: 1.0;"/><polygon fill="none" points="1033.21,165.84,1054.38,165.086,1038.3,178.881,1033.21,165.84" style="stroke: #A80036; stroke-width: 1.0;"/><!--link IntegrateSystems to RequirementsSupplementary--><path d="M773.858,260.909 C660.69,278.172 421.636,315.4236 220.5,352 C216.435,352.7393 212.292,353.5044 208.109,354.2868 " fill="none" id="IntegrateSystems-RequirementsSupplementary" style="stroke: #A80036; stroke-width: 1.0;"/><polygon fill="#A80036" points="203.181,355.2128,212.7653,357.4802,208.0948,354.2885,211.2865,349.6181,203.181,355.2128" style="stroke: #A80036; stroke-width: 1.0;"/><text fill="#000000" font-family="sans-serif" font-size="13" lengthAdjust="spacingAndGlyphs" textLength="10" x="493.5" y="318.4951">in</text><!--link IntegrateSystems to ModelUseCases--><path d="M773.673,265.329 C687.017,284.347 530.018,319.3399 396.5,352 C392.421,352.9978 388.24,354.0365 384.021,355.0969 " fill="none" id="IntegrateSystems-ModelUseCases" style="stroke: #A80036; stroke-width: 1.0;"/><polygon fill="#A80036" points="379.057,356.3504,388.7625,358.025,383.9048,355.1261,386.8036,350.2685,379.057,356.3504" style="stroke: #A80036; stroke-width: 1.0;"/><text fill="#000000" font-family="sans-serif" font-size="13" lengthAdjust="spacingAndGlyphs" textLength="10" x="592.5" y="318.4951">in</text><!--link IntegrateSystems to DesignModel--><path d="M773.6,273.026 C703.752,296.371 594.464,332.8989 527.399,355.3142 " fill="none" id="IntegrateSystems-DesignModel" style="stroke: #A80036; stroke-width: 1.0;"/><polygon fill="#A80036" points="522.644,356.9034,532.448,357.8428,527.3859,355.3178,529.9109,350.2557,522.644,356.9034" style="stroke: #A80036; stroke-width: 1.0;"/><text fill="#000000" font-family="sans-serif" font-size="13" lengthAdjust="spacingAndGlyphs" textLength="10" x="677.5" y="318.4951">in</text><!--link IntegrateSystems to ImplementationModel--><path d="M813.309,274.033 C789.421,295.041 754.118,326.0877 728.974,348.2004 " fill="none" id="IntegrateSystems-ImplementationModel" style="stroke: #A80036; stroke-width: 1.0;"/><polygon fill="#A80036" points="725.029,351.6697,734.4291,348.7307,728.7839,348.3681,729.1466,342.7229,725.029,351.6697" style="stroke: #A80036; stroke-width: 1.0;"/><text fill="#000000" font-family="sans-serif" font-size="13" lengthAdjust="spacingAndGlyphs" textLength="10" x="778.5" y="318.4951">in</text><!--link IntegrateSystems to IntegrationPlanConstructions--><path d="M865.691,274.033 C889.579,295.041 924.882,326.0877 950.026,348.2004 " fill="none" id="IntegrateSystems-IntegrationPlanConstructions" style="stroke: #A80036; stroke-width: 1.0;"/><polygon fill="#A80036" points="953.971,351.6697,949.8534,342.7229,950.2161,348.3681,944.5709,348.7307,953.971,351.6697" style="stroke: #A80036; stroke-width: 1.0;"/><text fill="#000000" font-family="sans-serif" font-size="13" lengthAdjust="spacingAndGlyphs" textLength="18" x="919.5" y="318.4951">out</text><!--link IntegrateSystems to ImplementationModelX--><path d="M905.112,269.833 C980.325,291.422 1103.84,326.874 1186.39,350.5709 " fill="none" id="IntegrateSystems-ImplementationModelX" style="stroke: #A80036; stroke-width: 1.0;"/><polygon fill="#A80036" points="1191.28,351.9728,1183.7231,345.6566,1186.4719,350.6007,1181.5278,353.3495,1191.28,351.9728" style="stroke: #A80036; stroke-width: 1.0;"/><text fill="#000000" font-family="sans-serif" font-size="13" lengthAdjust="spacingAndGlyphs" textLength="18" x="1082.5" y="318.4951">out</text><!--link IntegrateSystems to IntegratorSystems--><path d="M905.07,260.321 C1015.73,276.435 1246.4,311.6739 1439.5,352 C1443.67,352.8708 1447.94,353.8006 1452.24,354.7685 " fill="none" id="IntegrateSystems-IntegratorSystems" style="stroke: #A80036; stroke-width: 1.0;"/><polygon fill="#A80036" points="1457.3,355.921,1449.4011,350.0382,1452.4226,354.8205,1447.6403,357.8421,1457.3,355.921" style="stroke: #A80036; stroke-width: 1.0;"/><!--link Role to ImplementationRole--><path d="M1254.5,185.578 C1254.5,199.362 1254.5,214.057 1254.5,225.828 " fill="none" id="Role-ImplementationRole" style="stroke: #A80036; stroke-width: 1.0;"/><polygon fill="none" points="1247.5,185.217,1254.5,165.217,1261.5,185.217,1247.5,185.217" style="stroke: #A80036; stroke-width: 1.0;"/><!--link ImplementationRole to IntegratorSystems--><path d="M1345.98,273.124 C1373.2,281.22 1402.64,291.521 1428.5,304 C1455.49,317.0258 1483.32,336.64 1503.23,351.9542 " fill="none" id="ImplementationRole-IntegratorSystems" style="stroke: #A80036; stroke-width: 1.0;"/><polygon fill="none" points="1343.96,279.827,1326.64,267.62,1347.79,266.362,1343.96,279.827" style="stroke: #A80036; stroke-width: 1.0;"/><!--
@startuml

class Activity #red
Activity <|- - ImplementationActivity
Activity - -> Role

class "Requirements Supplementary" as RequirementsSupplementary #green
class "Model of Use cases" as ModelUseCases #green
class "Design Model" as DesignModel #green
class "Implementation Model (previous construction)" as ImplementationModel  #green
class "Integration Plan of Constructions" as IntegrationPlanConstructions #green
class "Implementation Model (subsequent construction)" as ImplementationModelX #green

class ImplementationActivity #red
ImplementationActivity - -> ImplementationRole

class "Integrate Systems" as IntegrateSystems #red
ImplementationActivity <|- - IntegrateSystems

IntegrateSystems - -> RequirementsSupplementary :in
IntegrateSystems - -> ModelUseCases :in
IntegrateSystems - -> DesignModel :in
IntegrateSystems - -> ImplementationModel :in
IntegrateSystems - -> IntegrationPlanConstructions :out
IntegrateSystems - -> ImplementationModelX :out


class Role #blue
class ImplementationRole #blue
class "Integrator of Systems" as IntegratorSystems #blue

IntegrateSystems - -> IntegratorSystems

Role <|- - ImplementationRole
ImplementationRole <|- - IntegratorSystems
@enduml

PlantUML version 1.2019.05(Sat Apr 20 18:45:36 CEST 2019)
(GPL source distribution)
Java Runtime: OpenJDK Runtime Environment
JVM: OpenJDK 64-Bit Server VM
Java Version: 1.8.0_222-b10
Operating System: Windows 10
OS Version: 10.0
Default Encoding: windows-1252
Language: es
Country: ES
--></g></svg>