<?xml version="1.0" encoding="UTF-8" standalone="no"?><svg xmlns="http://www.w3.org/2000/svg" xmlns:xlink="http://www.w3.org/1999/xlink" contentScriptType="application/ecmascript" contentStyleType="text/css" height="411px" preserveAspectRatio="none" style="width:867px;height:411px;" version="1.1" viewBox="0 0 867 411" width="867px" zoomAndPan="magnify"><defs><filter height="300%" id="f18sopij9i2ljm" width="300%" x="-1" y="-1"><feGaussianBlur result="blurOut" stdDeviation="2.0"/><feColorMatrix in="blurOut" result="blurOut2" type="matrix" values="0 0 0 0 0 0 0 0 0 0 0 0 0 0 0 0 0 0 .4 0"/><feOffset dx="4.0" dy="4.0" in="blurOut2" result="blurOut3"/><feBlend in="SourceGraphic" in2="blurOut3" mode="normal"/></filter></defs><g><!--class Activity--><rect fill="#FF0000" filter="url(#f18sopij9i2ljm)" height="48" id="Activity" style="stroke: #A80036; stroke-width: 1.5;" width="67" x="621" y="8"/><rect fill="#FF0000" height="32" style="stroke: #A80036; stroke-width: 1.5;" width="67" x="621" y="8"/><ellipse cx="636" cy="24" fill="#ADD1B2" rx="11" ry="11" style="stroke: #A80036; stroke-width: 1.0;"/><path d="M638.7656,19.875 Q638.9219,19.6563 639.1094,19.5469 Q639.2969,19.4375 639.5156,19.4375 Q639.8906,19.4375 640.125,19.6953 Q640.3594,19.9531 640.3594,20.5625 L640.3594,22.0156 Q640.3594,22.625 640.125,22.8906 Q639.8906,23.1563 639.5156,23.1563 Q639.1719,23.1563 638.9688,22.9531 Q638.7656,22.7656 638.6563,22.25 Q638.6094,21.8906 638.4219,21.7031 Q638.0938,21.3281 637.4844,21.1094 Q636.875,20.8906 636.25,20.8906 Q635.4844,20.8906 634.8516,21.2188 Q634.2188,21.5469 633.7266,22.2969 Q633.2344,23.0469 633.2344,24.0781 L633.2344,25.1719 Q633.2344,26.4063 634.125,27.2266 Q635.0156,28.0469 636.6094,28.0469 Q637.5469,28.0469 638.2031,27.7969 Q638.5938,27.6406 639.0156,27.2031 Q639.2813,26.9375 639.4297,26.8594 Q639.5781,26.7813 639.7813,26.7813 Q640.1094,26.7813 640.3672,27.0391 Q640.625,27.2969 640.625,27.6406 Q640.625,27.9844 640.2813,28.3906 Q639.7813,28.9688 638.9844,29.2969 Q637.9063,29.75 636.6094,29.75 Q635.0938,29.75 633.8906,29.125 Q632.9063,28.625 632.2188,27.5547 Q631.5313,26.4844 631.5313,25.2031 L631.5313,24.0469 Q631.5313,22.7188 632.1484,21.5703 Q632.7656,20.4219 633.8594,19.8047 Q634.9531,19.1875 636.1875,19.1875 Q636.9219,19.1875 637.5703,19.3516 Q638.2188,19.5156 638.7656,19.875 Z "/><text fill="#000000" font-family="sans-serif" font-size="12" lengthAdjust="spacingAndGlyphs" textLength="35" x="650" y="28.9102">Activity</text><line style="stroke: #A80036; stroke-width: 1.5;" x1="622" x2="687" y1="40" y2="40"/><line style="stroke: #A80036; stroke-width: 1.5;" x1="622" x2="687" y1="48" y2="48"/><!--class TestsActivity--><rect fill="#FF0000" filter="url(#f18sopij9i2ljm)" height="48" id="TestsActivity" style="stroke: #A80036; stroke-width: 1.5;" width="98" x="549.5" y="117"/><rect fill="#FF0000" height="32" style="stroke: #A80036; stroke-width: 1.5;" width="98" x="549.5" y="117"/><ellipse cx="564.5" cy="133" fill="#ADD1B2" rx="11" ry="11" style="stroke: #A80036; stroke-width: 1.0;"/><path d="M567.2656,128.875 Q567.4219,128.6563 567.6094,128.5469 Q567.7969,128.4375 568.0156,128.4375 Q568.3906,128.4375 568.625,128.6953 Q568.8594,128.9531 568.8594,129.5625 L568.8594,131.0156 Q568.8594,131.625 568.625,131.8906 Q568.3906,132.1563 568.0156,132.1563 Q567.6719,132.1563 567.4688,131.9531 Q567.2656,131.7656 567.1563,131.25 Q567.1094,130.8906 566.9219,130.7031 Q566.5938,130.3281 565.9844,130.1094 Q565.375,129.8906 564.75,129.8906 Q563.9844,129.8906 563.3516,130.2188 Q562.7188,130.5469 562.2266,131.2969 Q561.7344,132.0469 561.7344,133.0781 L561.7344,134.1719 Q561.7344,135.4063 562.625,136.2266 Q563.5156,137.0469 565.1094,137.0469 Q566.0469,137.0469 566.7031,136.7969 Q567.0938,136.6406 567.5156,136.2031 Q567.7813,135.9375 567.9297,135.8594 Q568.0781,135.7813 568.2813,135.7813 Q568.6094,135.7813 568.8672,136.0391 Q569.125,136.2969 569.125,136.6406 Q569.125,136.9844 568.7813,137.3906 Q568.2813,137.9688 567.4844,138.2969 Q566.4063,138.75 565.1094,138.75 Q563.5938,138.75 562.3906,138.125 Q561.4063,137.625 560.7188,136.5547 Q560.0313,135.4844 560.0313,134.2031 L560.0313,133.0469 Q560.0313,131.7188 560.6484,130.5703 Q561.2656,129.4219 562.3594,128.8047 Q563.4531,128.1875 564.6875,128.1875 Q565.4219,128.1875 566.0703,128.3516 Q566.7188,128.5156 567.2656,128.875 Z "/><text fill="#000000" font-family="sans-serif" font-size="12" lengthAdjust="spacingAndGlyphs" textLength="66" x="578.5" y="137.9102">TestsActivity</text><line style="stroke: #A80036; stroke-width: 1.5;" x1="550.5" x2="646.5" y1="149" y2="149"/><line style="stroke: #A80036; stroke-width: 1.5;" x1="550.5" x2="646.5" y1="157" y2="157"/><!--class Role--><rect fill="#0000FF" filter="url(#f18sopij9i2ljm)" height="48" id="Role" style="stroke: #A80036; stroke-width: 1.5;" width="58" x="682.5" y="117"/><rect fill="#0000FF" height="32" style="stroke: #A80036; stroke-width: 1.5;" width="58" x="682.5" y="117"/><ellipse cx="697.5" cy="133" fill="#ADD1B2" rx="11" ry="11" style="stroke: #A80036; stroke-width: 1.0;"/><path d="M700.2656,128.875 Q700.4219,128.6563 700.6094,128.5469 Q700.7969,128.4375 701.0156,128.4375 Q701.3906,128.4375 701.625,128.6953 Q701.8594,128.9531 701.8594,129.5625 L701.8594,131.0156 Q701.8594,131.625 701.625,131.8906 Q701.3906,132.1563 701.0156,132.1563 Q700.6719,132.1563 700.4688,131.9531 Q700.2656,131.7656 700.1563,131.25 Q700.1094,130.8906 699.9219,130.7031 Q699.5938,130.3281 698.9844,130.1094 Q698.375,129.8906 697.75,129.8906 Q696.9844,129.8906 696.3516,130.2188 Q695.7188,130.5469 695.2266,131.2969 Q694.7344,132.0469 694.7344,133.0781 L694.7344,134.1719 Q694.7344,135.4063 695.625,136.2266 Q696.5156,137.0469 698.1094,137.0469 Q699.0469,137.0469 699.7031,136.7969 Q700.0938,136.6406 700.5156,136.2031 Q700.7813,135.9375 700.9297,135.8594 Q701.0781,135.7813 701.2813,135.7813 Q701.6094,135.7813 701.8672,136.0391 Q702.125,136.2969 702.125,136.6406 Q702.125,136.9844 701.7813,137.3906 Q701.2813,137.9688 700.4844,138.2969 Q699.4063,138.75 698.1094,138.75 Q696.5938,138.75 695.3906,138.125 Q694.4063,137.625 693.7188,136.5547 Q693.0313,135.4844 693.0313,134.2031 L693.0313,133.0469 Q693.0313,131.7188 693.6484,130.5703 Q694.2656,129.4219 695.3594,128.8047 Q696.4531,128.1875 697.6875,128.1875 Q698.4219,128.1875 699.0703,128.3516 Q699.7188,128.5156 700.2656,128.875 Z "/><text fill="#000000" font-family="sans-serif" font-size="12" lengthAdjust="spacingAndGlyphs" textLength="26" x="711.5" y="137.9102">Role</text><line style="stroke: #A80036; stroke-width: 1.5;" x1="683.5" x2="739.5" y1="149" y2="149"/><line style="stroke: #A80036; stroke-width: 1.5;" x1="683.5" x2="739.5" y1="157" y2="157"/><!--class TestCase--><rect fill="#008000" filter="url(#f18sopij9i2ljm)" height="48" id="TestCase" style="stroke: #A80036; stroke-width: 1.5;" width="89" x="6" y="352"/><rect fill="#008000" height="32" style="stroke: #A80036; stroke-width: 1.5;" width="89" x="6" y="352"/><ellipse cx="21" cy="368" fill="#ADD1B2" rx="11" ry="11" style="stroke: #A80036; stroke-width: 1.0;"/><path d="M23.7656,363.875 Q23.9219,363.6563 24.1094,363.5469 Q24.2969,363.4375 24.5156,363.4375 Q24.8906,363.4375 25.125,363.6953 Q25.3594,363.9531 25.3594,364.5625 L25.3594,366.0156 Q25.3594,366.625 25.125,366.8906 Q24.8906,367.1563 24.5156,367.1563 Q24.1719,367.1563 23.9688,366.9531 Q23.7656,366.7656 23.6563,366.25 Q23.6094,365.8906 23.4219,365.7031 Q23.0938,365.3281 22.4844,365.1094 Q21.875,364.8906 21.25,364.8906 Q20.4844,364.8906 19.8516,365.2188 Q19.2188,365.5469 18.7266,366.2969 Q18.2344,367.0469 18.2344,368.0781 L18.2344,369.1719 Q18.2344,370.4063 19.125,371.2266 Q20.0156,372.0469 21.6094,372.0469 Q22.5469,372.0469 23.2031,371.7969 Q23.5938,371.6406 24.0156,371.2031 Q24.2813,370.9375 24.4297,370.8594 Q24.5781,370.7813 24.7813,370.7813 Q25.1094,370.7813 25.3672,371.0391 Q25.625,371.2969 25.625,371.6406 Q25.625,371.9844 25.2813,372.3906 Q24.7813,372.9688 23.9844,373.2969 Q22.9063,373.75 21.6094,373.75 Q20.0938,373.75 18.8906,373.125 Q17.9063,372.625 17.2188,371.5547 Q16.5313,370.4844 16.5313,369.2031 L16.5313,368.0469 Q16.5313,366.7188 17.1484,365.5703 Q17.7656,364.4219 18.8594,363.8047 Q19.9531,363.1875 21.1875,363.1875 Q21.9219,363.1875 22.5703,363.3516 Q23.2188,363.5156 23.7656,363.875 Z "/><text fill="#000000" font-family="sans-serif" font-size="12" lengthAdjust="spacingAndGlyphs" textLength="57" x="35" y="372.9102">Test Case</text><line style="stroke: #A80036; stroke-width: 1.5;" x1="7" x2="94" y1="384" y2="384"/><line style="stroke: #A80036; stroke-width: 1.5;" x1="7" x2="94" y1="392" y2="392"/><!--class TestProcedure--><rect fill="#008000" filter="url(#f18sopij9i2ljm)" height="48" id="TestProcedure" style="stroke: #A80036; stroke-width: 1.5;" width="116" x="130.5" y="352"/><rect fill="#008000" height="32" style="stroke: #A80036; stroke-width: 1.5;" width="116" x="130.5" y="352"/><ellipse cx="145.5" cy="368" fill="#ADD1B2" rx="11" ry="11" style="stroke: #A80036; stroke-width: 1.0;"/><path d="M148.2656,363.875 Q148.4219,363.6563 148.6094,363.5469 Q148.7969,363.4375 149.0156,363.4375 Q149.3906,363.4375 149.625,363.6953 Q149.8594,363.9531 149.8594,364.5625 L149.8594,366.0156 Q149.8594,366.625 149.625,366.8906 Q149.3906,367.1563 149.0156,367.1563 Q148.6719,367.1563 148.4688,366.9531 Q148.2656,366.7656 148.1563,366.25 Q148.1094,365.8906 147.9219,365.7031 Q147.5938,365.3281 146.9844,365.1094 Q146.375,364.8906 145.75,364.8906 Q144.9844,364.8906 144.3516,365.2188 Q143.7188,365.5469 143.2266,366.2969 Q142.7344,367.0469 142.7344,368.0781 L142.7344,369.1719 Q142.7344,370.4063 143.625,371.2266 Q144.5156,372.0469 146.1094,372.0469 Q147.0469,372.0469 147.7031,371.7969 Q148.0938,371.6406 148.5156,371.2031 Q148.7813,370.9375 148.9297,370.8594 Q149.0781,370.7813 149.2813,370.7813 Q149.6094,370.7813 149.8672,371.0391 Q150.125,371.2969 150.125,371.6406 Q150.125,371.9844 149.7813,372.3906 Q149.2813,372.9688 148.4844,373.2969 Q147.4063,373.75 146.1094,373.75 Q144.5938,373.75 143.3906,373.125 Q142.4063,372.625 141.7188,371.5547 Q141.0313,370.4844 141.0313,369.2031 L141.0313,368.0469 Q141.0313,366.7188 141.6484,365.5703 Q142.2656,364.4219 143.3594,363.8047 Q144.4531,363.1875 145.6875,363.1875 Q146.4219,363.1875 147.0703,363.3516 Q147.7188,363.5156 148.2656,363.875 Z "/><text fill="#000000" font-family="sans-serif" font-size="12" lengthAdjust="spacingAndGlyphs" textLength="84" x="159.5" y="372.9102">Test Procedure</text><line style="stroke: #A80036; stroke-width: 1.5;" x1="131.5" x2="245.5" y1="384" y2="384"/><line style="stroke: #A80036; stroke-width: 1.5;" x1="131.5" x2="245.5" y1="392" y2="392"/><!--class TestComponent--><rect fill="#008000" filter="url(#f18sopij9i2ljm)" height="48" id="TestComponent" style="stroke: #A80036; stroke-width: 1.5;" width="124" x="281.5" y="352"/><rect fill="#008000" height="32" style="stroke: #A80036; stroke-width: 1.5;" width="124" x="281.5" y="352"/><ellipse cx="296.5" cy="368" fill="#ADD1B2" rx="11" ry="11" style="stroke: #A80036; stroke-width: 1.0;"/><path d="M299.2656,363.875 Q299.4219,363.6563 299.6094,363.5469 Q299.7969,363.4375 300.0156,363.4375 Q300.3906,363.4375 300.625,363.6953 Q300.8594,363.9531 300.8594,364.5625 L300.8594,366.0156 Q300.8594,366.625 300.625,366.8906 Q300.3906,367.1563 300.0156,367.1563 Q299.6719,367.1563 299.4688,366.9531 Q299.2656,366.7656 299.1563,366.25 Q299.1094,365.8906 298.9219,365.7031 Q298.5938,365.3281 297.9844,365.1094 Q297.375,364.8906 296.75,364.8906 Q295.9844,364.8906 295.3516,365.2188 Q294.7188,365.5469 294.2266,366.2969 Q293.7344,367.0469 293.7344,368.0781 L293.7344,369.1719 Q293.7344,370.4063 294.625,371.2266 Q295.5156,372.0469 297.1094,372.0469 Q298.0469,372.0469 298.7031,371.7969 Q299.0938,371.6406 299.5156,371.2031 Q299.7813,370.9375 299.9297,370.8594 Q300.0781,370.7813 300.2813,370.7813 Q300.6094,370.7813 300.8672,371.0391 Q301.125,371.2969 301.125,371.6406 Q301.125,371.9844 300.7813,372.3906 Q300.2813,372.9688 299.4844,373.2969 Q298.4063,373.75 297.1094,373.75 Q295.5938,373.75 294.3906,373.125 Q293.4063,372.625 292.7188,371.5547 Q292.0313,370.4844 292.0313,369.2031 L292.0313,368.0469 Q292.0313,366.7188 292.6484,365.5703 Q293.2656,364.4219 294.3594,363.8047 Q295.4531,363.1875 296.6875,363.1875 Q297.4219,363.1875 298.0703,363.3516 Q298.7188,363.5156 299.2656,363.875 Z "/><text fill="#000000" font-family="sans-serif" font-size="12" lengthAdjust="spacingAndGlyphs" textLength="92" x="310.5" y="372.9102">Test Component</text><line style="stroke: #A80036; stroke-width: 1.5;" x1="282.5" x2="404.5" y1="384" y2="384"/><line style="stroke: #A80036; stroke-width: 1.5;" x1="282.5" x2="404.5" y1="392" y2="392"/><!--class ImplementationModel--><rect fill="#008000" filter="url(#f18sopij9i2ljm)" height="48" id="ImplementationModel" style="stroke: #A80036; stroke-width: 1.5;" width="154" x="440.5" y="352"/><rect fill="#008000" height="32" style="stroke: #A80036; stroke-width: 1.5;" width="154" x="440.5" y="352"/><ellipse cx="455.5" cy="368" fill="#ADD1B2" rx="11" ry="11" style="stroke: #A80036; stroke-width: 1.0;"/><path d="M458.2656,363.875 Q458.4219,363.6563 458.6094,363.5469 Q458.7969,363.4375 459.0156,363.4375 Q459.3906,363.4375 459.625,363.6953 Q459.8594,363.9531 459.8594,364.5625 L459.8594,366.0156 Q459.8594,366.625 459.625,366.8906 Q459.3906,367.1563 459.0156,367.1563 Q458.6719,367.1563 458.4688,366.9531 Q458.2656,366.7656 458.1563,366.25 Q458.1094,365.8906 457.9219,365.7031 Q457.5938,365.3281 456.9844,365.1094 Q456.375,364.8906 455.75,364.8906 Q454.9844,364.8906 454.3516,365.2188 Q453.7188,365.5469 453.2266,366.2969 Q452.7344,367.0469 452.7344,368.0781 L452.7344,369.1719 Q452.7344,370.4063 453.625,371.2266 Q454.5156,372.0469 456.1094,372.0469 Q457.0469,372.0469 457.7031,371.7969 Q458.0938,371.6406 458.5156,371.2031 Q458.7813,370.9375 458.9297,370.8594 Q459.0781,370.7813 459.2813,370.7813 Q459.6094,370.7813 459.8672,371.0391 Q460.125,371.2969 460.125,371.6406 Q460.125,371.9844 459.7813,372.3906 Q459.2813,372.9688 458.4844,373.2969 Q457.4063,373.75 456.1094,373.75 Q454.5938,373.75 453.3906,373.125 Q452.4063,372.625 451.7188,371.5547 Q451.0313,370.4844 451.0313,369.2031 L451.0313,368.0469 Q451.0313,366.7188 451.6484,365.5703 Q452.2656,364.4219 453.3594,363.8047 Q454.4531,363.1875 455.6875,363.1875 Q456.4219,363.1875 457.0703,363.3516 Q457.7188,363.5156 458.2656,363.875 Z "/><text fill="#000000" font-family="sans-serif" font-size="12" lengthAdjust="spacingAndGlyphs" textLength="122" x="469.5" y="372.9102">Implementation Model</text><line style="stroke: #A80036; stroke-width: 1.5;" x1="441.5" x2="593.5" y1="384" y2="384"/><line style="stroke: #A80036; stroke-width: 1.5;" x1="441.5" x2="593.5" y1="392" y2="392"/><!--class DEFECT--><rect fill="#008000" filter="url(#f18sopij9i2ljm)" height="48" id="DEFECT" style="stroke: #A80036; stroke-width: 1.5;" width="80" x="629.5" y="352"/><rect fill="#008000" height="32" style="stroke: #A80036; stroke-width: 1.5;" width="80" x="629.5" y="352"/><ellipse cx="644.5" cy="368" fill="#ADD1B2" rx="11" ry="11" style="stroke: #A80036; stroke-width: 1.0;"/><path d="M647.2656,363.875 Q647.4219,363.6563 647.6094,363.5469 Q647.7969,363.4375 648.0156,363.4375 Q648.3906,363.4375 648.625,363.6953 Q648.8594,363.9531 648.8594,364.5625 L648.8594,366.0156 Q648.8594,366.625 648.625,366.8906 Q648.3906,367.1563 648.0156,367.1563 Q647.6719,367.1563 647.4688,366.9531 Q647.2656,366.7656 647.1563,366.25 Q647.1094,365.8906 646.9219,365.7031 Q646.5938,365.3281 645.9844,365.1094 Q645.375,364.8906 644.75,364.8906 Q643.9844,364.8906 643.3516,365.2188 Q642.7188,365.5469 642.2266,366.2969 Q641.7344,367.0469 641.7344,368.0781 L641.7344,369.1719 Q641.7344,370.4063 642.625,371.2266 Q643.5156,372.0469 645.1094,372.0469 Q646.0469,372.0469 646.7031,371.7969 Q647.0938,371.6406 647.5156,371.2031 Q647.7813,370.9375 647.9297,370.8594 Q648.0781,370.7813 648.2813,370.7813 Q648.6094,370.7813 648.8672,371.0391 Q649.125,371.2969 649.125,371.6406 Q649.125,371.9844 648.7813,372.3906 Q648.2813,372.9688 647.4844,373.2969 Q646.4063,373.75 645.1094,373.75 Q643.5938,373.75 642.3906,373.125 Q641.4063,372.625 640.7188,371.5547 Q640.0313,370.4844 640.0313,369.2031 L640.0313,368.0469 Q640.0313,366.7188 640.6484,365.5703 Q641.2656,364.4219 642.3594,363.8047 Q643.4531,363.1875 644.6875,363.1875 Q645.4219,363.1875 646.0703,363.3516 Q646.7188,363.5156 647.2656,363.875 Z "/><text fill="#000000" font-family="sans-serif" font-size="12" lengthAdjust="spacingAndGlyphs" textLength="48" x="658.5" y="372.9102">DEFECT</text><line style="stroke: #A80036; stroke-width: 1.5;" x1="630.5" x2="708.5" y1="384" y2="384"/><line style="stroke: #A80036; stroke-width: 1.5;" x1="630.5" x2="708.5" y1="392" y2="392"/><!--class TestsRole--><rect fill="#0000FF" filter="url(#f18sopij9i2ljm)" height="48" id="TestsRole" style="stroke: #A80036; stroke-width: 1.5;" width="89" x="667" y="226"/><rect fill="#0000FF" height="32" style="stroke: #A80036; stroke-width: 1.5;" width="89" x="667" y="226"/><ellipse cx="682" cy="242" fill="#ADD1B2" rx="11" ry="11" style="stroke: #A80036; stroke-width: 1.0;"/><path d="M684.7656,237.875 Q684.9219,237.6563 685.1094,237.5469 Q685.2969,237.4375 685.5156,237.4375 Q685.8906,237.4375 686.125,237.6953 Q686.3594,237.9531 686.3594,238.5625 L686.3594,240.0156 Q686.3594,240.625 686.125,240.8906 Q685.8906,241.1563 685.5156,241.1563 Q685.1719,241.1563 684.9688,240.9531 Q684.7656,240.7656 684.6563,240.25 Q684.6094,239.8906 684.4219,239.7031 Q684.0938,239.3281 683.4844,239.1094 Q682.875,238.8906 682.25,238.8906 Q681.4844,238.8906 680.8516,239.2188 Q680.2188,239.5469 679.7266,240.2969 Q679.2344,241.0469 679.2344,242.0781 L679.2344,243.1719 Q679.2344,244.4063 680.125,245.2266 Q681.0156,246.0469 682.6094,246.0469 Q683.5469,246.0469 684.2031,245.7969 Q684.5938,245.6406 685.0156,245.2031 Q685.2813,244.9375 685.4297,244.8594 Q685.5781,244.7813 685.7813,244.7813 Q686.1094,244.7813 686.3672,245.0391 Q686.625,245.2969 686.625,245.6406 Q686.625,245.9844 686.2813,246.3906 Q685.7813,246.9688 684.9844,247.2969 Q683.9063,247.75 682.6094,247.75 Q681.0938,247.75 679.8906,247.125 Q678.9063,246.625 678.2188,245.5547 Q677.5313,244.4844 677.5313,243.2031 L677.5313,242.0469 Q677.5313,240.7188 678.1484,239.5703 Q678.7656,238.4219 679.8594,237.8047 Q680.9531,237.1875 682.1875,237.1875 Q682.9219,237.1875 683.5703,237.3516 Q684.2188,237.5156 684.7656,237.875 Z "/><text fill="#000000" font-family="sans-serif" font-size="12" lengthAdjust="spacingAndGlyphs" textLength="57" x="696" y="246.9102">TestsRole</text><line style="stroke: #A80036; stroke-width: 1.5;" x1="668" x2="755" y1="258" y2="258"/><line style="stroke: #A80036; stroke-width: 1.5;" x1="668" x2="755" y1="266" y2="266"/><!--class PerformSystemTest--><rect fill="#FF0000" filter="url(#f18sopij9i2ljm)" height="48" id="PerformSystemTest" style="stroke: #A80036; stroke-width: 1.5;" width="147" x="444" y="226"/><rect fill="#FF0000" height="32" style="stroke: #A80036; stroke-width: 1.5;" width="147" x="444" y="226"/><ellipse cx="459" cy="242" fill="#ADD1B2" rx="11" ry="11" style="stroke: #A80036; stroke-width: 1.0;"/><path d="M461.7656,237.875 Q461.9219,237.6563 462.1094,237.5469 Q462.2969,237.4375 462.5156,237.4375 Q462.8906,237.4375 463.125,237.6953 Q463.3594,237.9531 463.3594,238.5625 L463.3594,240.0156 Q463.3594,240.625 463.125,240.8906 Q462.8906,241.1563 462.5156,241.1563 Q462.1719,241.1563 461.9688,240.9531 Q461.7656,240.7656 461.6563,240.25 Q461.6094,239.8906 461.4219,239.7031 Q461.0938,239.3281 460.4844,239.1094 Q459.875,238.8906 459.25,238.8906 Q458.4844,238.8906 457.8516,239.2188 Q457.2188,239.5469 456.7266,240.2969 Q456.2344,241.0469 456.2344,242.0781 L456.2344,243.1719 Q456.2344,244.4063 457.125,245.2266 Q458.0156,246.0469 459.6094,246.0469 Q460.5469,246.0469 461.2031,245.7969 Q461.5938,245.6406 462.0156,245.2031 Q462.2813,244.9375 462.4297,244.8594 Q462.5781,244.7813 462.7813,244.7813 Q463.1094,244.7813 463.3672,245.0391 Q463.625,245.2969 463.625,245.6406 Q463.625,245.9844 463.2813,246.3906 Q462.7813,246.9688 461.9844,247.2969 Q460.9063,247.75 459.6094,247.75 Q458.0938,247.75 456.8906,247.125 Q455.9063,246.625 455.2188,245.5547 Q454.5313,244.4844 454.5313,243.2031 L454.5313,242.0469 Q454.5313,240.7188 455.1484,239.5703 Q455.7656,238.4219 456.8594,237.8047 Q457.9531,237.1875 459.1875,237.1875 Q459.9219,237.1875 460.5703,237.3516 Q461.2188,237.5156 461.7656,237.875 Z "/><text fill="#000000" font-family="sans-serif" font-size="12" lengthAdjust="spacingAndGlyphs" textLength="115" x="473" y="246.9102">Perform System Test</text><line style="stroke: #A80036; stroke-width: 1.5;" x1="445" x2="590" y1="258" y2="258"/><line style="stroke: #A80036; stroke-width: 1.5;" x1="445" x2="590" y1="266" y2="266"/><!--class SystemTester--><rect fill="#0000FF" filter="url(#f18sopij9i2ljm)" height="48" id="SystemTester" style="stroke: #A80036; stroke-width: 1.5;" width="111" x="745" y="352"/><rect fill="#0000FF" height="32" style="stroke: #A80036; stroke-width: 1.5;" width="111" x="745" y="352"/><ellipse cx="760" cy="368" fill="#ADD1B2" rx="11" ry="11" style="stroke: #A80036; stroke-width: 1.0;"/><path d="M762.7656,363.875 Q762.9219,363.6563 763.1094,363.5469 Q763.2969,363.4375 763.5156,363.4375 Q763.8906,363.4375 764.125,363.6953 Q764.3594,363.9531 764.3594,364.5625 L764.3594,366.0156 Q764.3594,366.625 764.125,366.8906 Q763.8906,367.1563 763.5156,367.1563 Q763.1719,367.1563 762.9688,366.9531 Q762.7656,366.7656 762.6563,366.25 Q762.6094,365.8906 762.4219,365.7031 Q762.0938,365.3281 761.4844,365.1094 Q760.875,364.8906 760.25,364.8906 Q759.4844,364.8906 758.8516,365.2188 Q758.2188,365.5469 757.7266,366.2969 Q757.2344,367.0469 757.2344,368.0781 L757.2344,369.1719 Q757.2344,370.4063 758.125,371.2266 Q759.0156,372.0469 760.6094,372.0469 Q761.5469,372.0469 762.2031,371.7969 Q762.5938,371.6406 763.0156,371.2031 Q763.2813,370.9375 763.4297,370.8594 Q763.5781,370.7813 763.7813,370.7813 Q764.1094,370.7813 764.3672,371.0391 Q764.625,371.2969 764.625,371.6406 Q764.625,371.9844 764.2813,372.3906 Q763.7813,372.9688 762.9844,373.2969 Q761.9063,373.75 760.6094,373.75 Q759.0938,373.75 757.8906,373.125 Q756.9063,372.625 756.2188,371.5547 Q755.5313,370.4844 755.5313,369.2031 L755.5313,368.0469 Q755.5313,366.7188 756.1484,365.5703 Q756.7656,364.4219 757.8594,363.8047 Q758.9531,363.1875 760.1875,363.1875 Q760.9219,363.1875 761.5703,363.3516 Q762.2188,363.5156 762.7656,363.875 Z "/><text fill="#000000" font-family="sans-serif" font-size="12" lengthAdjust="spacingAndGlyphs" textLength="79" x="774" y="372.9102">System Tester</text><line style="stroke: #A80036; stroke-width: 1.5;" x1="746" x2="855" y1="384" y2="384"/><line style="stroke: #A80036; stroke-width: 1.5;" x1="746" x2="855" y1="392" y2="392"/><!--link Activity to TestsActivity--><path d="M632.976,74.127 C625.4,88.602 617.154,104.357 610.627,116.828 " fill="none" id="Activity-TestsActivity" style="stroke: #A80036; stroke-width: 1.0;"/><polygon fill="none" points="626.873,70.691,642.349,56.217,639.277,77.183,626.873,70.691" style="stroke: #A80036; stroke-width: 1.0;"/><!--link Activity to Role--><path d="M666.868,56.217 C675.607,72.623 687.364,94.692 696.617,112.062 " fill="none" id="Activity-Role" style="stroke: #A80036; stroke-width: 1.0;"/><polygon fill="#A80036" points="699.156,116.828,698.4537,107.0042,696.8047,112.4154,691.3935,110.7663,699.156,116.828" style="stroke: #A80036; stroke-width: 1.0;"/><!--link TestsActivity to TestsRole--><path d="M623.019,165.217 C640.789,182.043 664.85,204.827 683.396,222.389 " fill="none" id="TestsActivity-TestsRole" style="stroke: #A80036; stroke-width: 1.0;"/><polygon fill="#A80036" points="687.029,225.828,683.2422,216.7362,683.3977,222.3909,677.7429,222.5464,687.029,225.828" style="stroke: #A80036; stroke-width: 1.0;"/><!--link TestsActivity to PerformSystemTest--><path d="M568.838,181.183 C557.485,196.18 544.907,212.796 535.041,225.828 " fill="none" id="TestsActivity-PerformSystemTest" style="stroke: #A80036; stroke-width: 1.0;"/><polygon fill="none" points="563.272,176.939,580.924,165.217,574.434,185.389,563.272,176.939" style="stroke: #A80036; stroke-width: 1.0;"/><!--link PerformSystemTest to TestCase--><path d="M443.661,266.827 C361.959,284.937 226.735,316.6862 112.5,352 C108.479,353.2429 104.3389,354.6015 100.1955,356.017 " fill="none" id="PerformSystemTest-TestCase" style="stroke: #A80036; stroke-width: 1.0;"/><polygon fill="#A80036" points="95.3371,357.7015,105.1508,358.5324,100.0612,356.0635,102.5301,350.9739,95.3371,357.7015" style="stroke: #A80036; stroke-width: 1.0;"/><text fill="#000000" font-family="sans-serif" font-size="13" lengthAdjust="spacingAndGlyphs" textLength="10" x="279.5" y="318.4951">in</text><!--link PerformSystemTest to TestProcedure--><path d="M456.389,274.033 C398.007,296.037 310.408,329.0529 251.429,351.2819 " fill="none" id="PerformSystemTest-TestProcedure" style="stroke: #A80036; stroke-width: 1.0;"/><polygon fill="#A80036" points="246.524,353.1306,256.3564,353.7005,251.2029,351.3677,253.5357,346.2142,246.524,353.1306" style="stroke: #A80036; stroke-width: 1.0;"/><text fill="#000000" font-family="sans-serif" font-size="13" lengthAdjust="spacingAndGlyphs" textLength="10" x="374.5" y="318.4951">in</text><!--link PerformSystemTest to TestComponent--><path d="M485.18,274.033 C455.364,295.281 411.138,326.7982 380.048,348.9545 " fill="none" id="PerformSystemTest-TestComponent" style="stroke: #A80036; stroke-width: 1.0;"/><polygon fill="#A80036" points="375.942,351.8804,385.5928,349.9152,380.014,348.9789,380.9504,343.4001,375.942,351.8804" style="stroke: #A80036; stroke-width: 1.0;"/><text fill="#000000" font-family="sans-serif" font-size="13" lengthAdjust="spacingAndGlyphs" textLength="10" x="442.5" y="318.4951">in</text><!--link PerformSystemTest to ImplementationModel--><path d="M517.5,274.033 C517.5,294.522 517.5,324.5607 517.5,346.5464 " fill="none" id="PerformSystemTest-ImplementationModel" style="stroke: #A80036; stroke-width: 1.0;"/><polygon fill="#A80036" points="517.5,351.6697,521.5,342.6697,517.5,346.6697,513.5,342.6697,517.5,351.6697" style="stroke: #A80036; stroke-width: 1.0;"/><text fill="#000000" font-family="sans-serif" font-size="13" lengthAdjust="spacingAndGlyphs" textLength="10" x="518.5" y="318.4951">in</text><!--link PerformSystemTest to DEFECT--><path d="M545.734,274.033 C571.674,295.194 610.099,326.5411 637.24,348.6827 " fill="none" id="PerformSystemTest-DEFECT" style="stroke: #A80036; stroke-width: 1.0;"/><polygon fill="#A80036" points="641.16,351.8804,636.7158,343.0912,637.2861,348.7193,631.658,349.2895,641.16,351.8804" style="stroke: #A80036; stroke-width: 1.0;"/><text fill="#000000" font-family="sans-serif" font-size="13" lengthAdjust="spacingAndGlyphs" textLength="18" x="604.5" y="318.4951">out</text><!--link PerformSystemTest to SystemTester--><path d="M570.067,274.033 C619.155,295.541 692.256,327.5716 742.905,349.7642 " fill="none" id="PerformSystemTest-SystemTester" style="stroke: #A80036; stroke-width: 1.0;"/><polygon fill="#A80036" points="747.735,351.8804,741.0976,344.604,743.1555,349.8733,737.8863,351.9312,747.735,351.8804" style="stroke: #A80036; stroke-width: 1.0;"/><!--link Role to TestsRole--><path d="M711.5,185.578 C711.5,199.362 711.5,214.057 711.5,225.828 " fill="none" id="Role-TestsRole" style="stroke: #A80036; stroke-width: 1.0;"/><polygon fill="none" points="704.5,185.217,711.5,165.217,718.5,185.217,704.5,185.217" style="stroke: #A80036; stroke-width: 1.0;"/><!--link TestsRole to SystemTester--><path d="M749.445,288.968 C753.701,293.871 757.822,298.947 761.5,304 C772.426,319.0079 782.454,337.4156 789.604,351.7269 " fill="none" id="TestsRole-SystemTester" style="stroke: #A80036; stroke-width: 1.0;"/><polygon fill="none" points="744.182,293.586,735.768,274.139,754.473,284.095,744.182,293.586" style="stroke: #A80036; stroke-width: 1.0;"/><!--
@startuml

class Activity #red
Activity <|- - TestsActivity
Activity - -> Role

class "Test Case" as TestCase #green
class "Test Procedure" as TestProcedure #green
class "Test Component" as TestComponent #green
class "Implementation Model" as ImplementationModel #green
class DEFECT #green

class TestsActivity #red
TestsActivity - -> TestsRole

class "Perform System Test" as PerformSystemTest #red
TestsActivity <|- - PerformSystemTest

PerformSystemTest - -> TestCase :in
PerformSystemTest - -> TestProcedure :in
PerformSystemTest - -> TestComponent :in
PerformSystemTest - -> ImplementationModel :in
PerformSystemTest - -> DEFECT :out

class Role #blue
class TestsRole #blue
class "System Tester" as SystemTester #blue

PerformSystemTest - -> SystemTester

Role <|- - TestsRole
TestsRole <|- - SystemTester
@enduml

PlantUML version 1.2019.05(Sat Apr 20 18:45:36 CEST 2019)
(GPL source distribution)
Java Runtime: OpenJDK Runtime Environment
JVM: OpenJDK 64-Bit Server VM
Java Version: 1.8.0_222-b10
Operating System: Windows 10
OS Version: 10.0
Default Encoding: windows-1252
Language: es
Country: ES
--></g></svg>