<?xml version="1.0" encoding="UTF-8" standalone="no"?><svg xmlns="http://www.w3.org/2000/svg" xmlns:xlink="http://www.w3.org/1999/xlink" contentScriptType="application/ecmascript" contentStyleType="text/css" height="433px" preserveAspectRatio="none" style="width:1013px;height:433px;" version="1.1" viewBox="0 0 1013 433" width="1013px" zoomAndPan="magnify"><defs><filter height="300%" id="ffzerhku1mtfv" width="300%" x="-1" y="-1"><feGaussianBlur result="blurOut" stdDeviation="2.0"/><feColorMatrix in="blurOut" result="blurOut2" type="matrix" values="0 0 0 0 0 0 0 0 0 0 0 0 0 0 0 0 0 0 .4 0"/><feOffset dx="4.0" dy="4.0" in="blurOut2" result="blurOut3"/><feBlend in="SourceGraphic" in2="blurOut3" mode="normal"/></filter></defs><g><text fill="#000000" font-family="sans-serif" font-size="18" lengthAdjust="spacingAndGlyphs" textLength="162" x="429" y="18.6855">Prioritize Use Cases</text><!--class Activity--><rect fill="#FF0000" filter="url(#ffzerhku1mtfv)" height="48" id="Activity" style="stroke: #A80036; stroke-width: 1.5;" width="67" x="717.5" y="30.6406"/><rect fill="#FF0000" height="32" style="stroke: #A80036; stroke-width: 1.5;" width="67" x="717.5" y="30.6406"/><ellipse cx="732.5" cy="46.6406" fill="#ADD1B2" rx="11" ry="11" style="stroke: #A80036; stroke-width: 1.0;"/><path d="M735.2656,42.5156 Q735.4219,42.2969 735.6094,42.1875 Q735.7969,42.0781 736.0156,42.0781 Q736.3906,42.0781 736.625,42.3359 Q736.8594,42.5938 736.8594,43.2031 L736.8594,44.6563 Q736.8594,45.2656 736.625,45.5313 Q736.3906,45.7969 736.0156,45.7969 Q735.6719,45.7969 735.4688,45.5938 Q735.2656,45.4063 735.1563,44.8906 Q735.1094,44.5313 734.9219,44.3438 Q734.5938,43.9688 733.9844,43.75 Q733.375,43.5313 732.75,43.5313 Q731.9844,43.5313 731.3516,43.8594 Q730.7188,44.1875 730.2266,44.9375 Q729.7344,45.6875 729.7344,46.7188 L729.7344,47.8125 Q729.7344,49.0469 730.625,49.8672 Q731.5156,50.6875 733.1094,50.6875 Q734.0469,50.6875 734.7031,50.4375 Q735.0938,50.2813 735.5156,49.8438 Q735.7813,49.5781 735.9297,49.5 Q736.0781,49.4219 736.2813,49.4219 Q736.6094,49.4219 736.8672,49.6797 Q737.125,49.9375 737.125,50.2813 Q737.125,50.625 736.7813,51.0313 Q736.2813,51.6094 735.4844,51.9375 Q734.4063,52.3906 733.1094,52.3906 Q731.5938,52.3906 730.3906,51.7656 Q729.4063,51.2656 728.7188,50.1953 Q728.0313,49.125 728.0313,47.8438 L728.0313,46.6875 Q728.0313,45.3594 728.6484,44.2109 Q729.2656,43.0625 730.3594,42.4453 Q731.4531,41.8281 732.6875,41.8281 Q733.4219,41.8281 734.0703,41.9922 Q734.7188,42.1563 735.2656,42.5156 Z "/><text fill="#000000" font-family="sans-serif" font-size="12" lengthAdjust="spacingAndGlyphs" textLength="35" x="746.5" y="51.5508">Activity</text><line style="stroke: #A80036; stroke-width: 1.5;" x1="718.5" x2="783.5" y1="62.6406" y2="62.6406"/><line style="stroke: #A80036; stroke-width: 1.5;" x1="718.5" x2="783.5" y1="70.6406" y2="70.6406"/><!--class RequirementsActivity--><rect fill="#FF0000" filter="url(#ffzerhku1mtfv)" height="48" id="RequirementsActivity" style="stroke: #A80036; stroke-width: 1.5;" width="146" x="610" y="139.6406"/><rect fill="#FF0000" height="32" style="stroke: #A80036; stroke-width: 1.5;" width="146" x="610" y="139.6406"/><ellipse cx="625" cy="155.6406" fill="#ADD1B2" rx="11" ry="11" style="stroke: #A80036; stroke-width: 1.0;"/><path d="M627.7656,151.5156 Q627.9219,151.2969 628.1094,151.1875 Q628.2969,151.0781 628.5156,151.0781 Q628.8906,151.0781 629.125,151.3359 Q629.3594,151.5938 629.3594,152.2031 L629.3594,153.6563 Q629.3594,154.2656 629.125,154.5313 Q628.8906,154.7969 628.5156,154.7969 Q628.1719,154.7969 627.9688,154.5938 Q627.7656,154.4063 627.6563,153.8906 Q627.6094,153.5313 627.4219,153.3438 Q627.0938,152.9688 626.4844,152.75 Q625.875,152.5313 625.25,152.5313 Q624.4844,152.5313 623.8516,152.8594 Q623.2188,153.1875 622.7266,153.9375 Q622.2344,154.6875 622.2344,155.7188 L622.2344,156.8125 Q622.2344,158.0469 623.125,158.8672 Q624.0156,159.6875 625.6094,159.6875 Q626.5469,159.6875 627.2031,159.4375 Q627.5938,159.2813 628.0156,158.8438 Q628.2813,158.5781 628.4297,158.5 Q628.5781,158.4219 628.7813,158.4219 Q629.1094,158.4219 629.3672,158.6797 Q629.625,158.9375 629.625,159.2813 Q629.625,159.625 629.2813,160.0313 Q628.7813,160.6094 627.9844,160.9375 Q626.9063,161.3906 625.6094,161.3906 Q624.0938,161.3906 622.8906,160.7656 Q621.9063,160.2656 621.2188,159.1953 Q620.5313,158.125 620.5313,156.8438 L620.5313,155.6875 Q620.5313,154.3594 621.1484,153.2109 Q621.7656,152.0625 622.8594,151.4453 Q623.9531,150.8281 625.1875,150.8281 Q625.9219,150.8281 626.5703,150.9922 Q627.2188,151.1563 627.7656,151.5156 Z "/><text fill="#000000" font-family="sans-serif" font-size="12" lengthAdjust="spacingAndGlyphs" textLength="114" x="639" y="160.5508">RequirementsActivity</text><line style="stroke: #A80036; stroke-width: 1.5;" x1="611" x2="755" y1="171.6406" y2="171.6406"/><line style="stroke: #A80036; stroke-width: 1.5;" x1="611" x2="755" y1="179.6406" y2="179.6406"/><!--class Role--><rect fill="#0000FF" filter="url(#ffzerhku1mtfv)" height="48" id="Role" style="stroke: #A80036; stroke-width: 1.5;" width="58" x="791" y="139.6406"/><rect fill="#0000FF" height="32" style="stroke: #A80036; stroke-width: 1.5;" width="58" x="791" y="139.6406"/><ellipse cx="806" cy="155.6406" fill="#ADD1B2" rx="11" ry="11" style="stroke: #A80036; stroke-width: 1.0;"/><path d="M808.7656,151.5156 Q808.9219,151.2969 809.1094,151.1875 Q809.2969,151.0781 809.5156,151.0781 Q809.8906,151.0781 810.125,151.3359 Q810.3594,151.5938 810.3594,152.2031 L810.3594,153.6563 Q810.3594,154.2656 810.125,154.5313 Q809.8906,154.7969 809.5156,154.7969 Q809.1719,154.7969 808.9688,154.5938 Q808.7656,154.4063 808.6563,153.8906 Q808.6094,153.5313 808.4219,153.3438 Q808.0938,152.9688 807.4844,152.75 Q806.875,152.5313 806.25,152.5313 Q805.4844,152.5313 804.8516,152.8594 Q804.2188,153.1875 803.7266,153.9375 Q803.2344,154.6875 803.2344,155.7188 L803.2344,156.8125 Q803.2344,158.0469 804.125,158.8672 Q805.0156,159.6875 806.6094,159.6875 Q807.5469,159.6875 808.2031,159.4375 Q808.5938,159.2813 809.0156,158.8438 Q809.2813,158.5781 809.4297,158.5 Q809.5781,158.4219 809.7813,158.4219 Q810.1094,158.4219 810.3672,158.6797 Q810.625,158.9375 810.625,159.2813 Q810.625,159.625 810.2813,160.0313 Q809.7813,160.6094 808.9844,160.9375 Q807.9063,161.3906 806.6094,161.3906 Q805.0938,161.3906 803.8906,160.7656 Q802.9063,160.2656 802.2188,159.1953 Q801.5313,158.125 801.5313,156.8438 L801.5313,155.6875 Q801.5313,154.3594 802.1484,153.2109 Q802.7656,152.0625 803.8594,151.4453 Q804.9531,150.8281 806.1875,150.8281 Q806.9219,150.8281 807.5703,150.9922 Q808.2188,151.1563 808.7656,151.5156 Z "/><text fill="#000000" font-family="sans-serif" font-size="12" lengthAdjust="spacingAndGlyphs" textLength="26" x="820" y="160.5508">Role</text><line style="stroke: #A80036; stroke-width: 1.5;" x1="792" x2="848" y1="171.6406" y2="171.6406"/><line style="stroke: #A80036; stroke-width: 1.5;" x1="792" x2="848" y1="179.6406" y2="179.6406"/><!--class UseCaseModel--><rect fill="#008000" filter="url(#ffzerhku1mtfv)" height="48" id="UseCaseModel" style="stroke: #A80036; stroke-width: 1.5;" width="172" x="6" y="374.6406"/><rect fill="#008000" height="32" style="stroke: #A80036; stroke-width: 1.5;" width="172" x="6" y="374.6406"/><ellipse cx="21" cy="390.6406" fill="#ADD1B2" rx="11" ry="11" style="stroke: #A80036; stroke-width: 1.0;"/><path d="M23.7656,386.5156 Q23.9219,386.2969 24.1094,386.1875 Q24.2969,386.0781 24.5156,386.0781 Q24.8906,386.0781 25.125,386.3359 Q25.3594,386.5938 25.3594,387.2031 L25.3594,388.6563 Q25.3594,389.2656 25.125,389.5313 Q24.8906,389.7969 24.5156,389.7969 Q24.1719,389.7969 23.9688,389.5938 Q23.7656,389.4063 23.6563,388.8906 Q23.6094,388.5313 23.4219,388.3438 Q23.0938,387.9688 22.4844,387.75 Q21.875,387.5313 21.25,387.5313 Q20.4844,387.5313 19.8516,387.8594 Q19.2188,388.1875 18.7266,388.9375 Q18.2344,389.6875 18.2344,390.7188 L18.2344,391.8125 Q18.2344,393.0469 19.125,393.8672 Q20.0156,394.6875 21.6094,394.6875 Q22.5469,394.6875 23.2031,394.4375 Q23.5938,394.2813 24.0156,393.8438 Q24.2813,393.5781 24.4297,393.5 Q24.5781,393.4219 24.7813,393.4219 Q25.1094,393.4219 25.3672,393.6797 Q25.625,393.9375 25.625,394.2813 Q25.625,394.625 25.2813,395.0313 Q24.7813,395.6094 23.9844,395.9375 Q22.9063,396.3906 21.6094,396.3906 Q20.0938,396.3906 18.8906,395.7656 Q17.9063,395.2656 17.2188,394.1953 Q16.5313,393.125 16.5313,391.8438 L16.5313,390.6875 Q16.5313,389.3594 17.1484,388.2109 Q17.7656,387.0625 18.8594,386.4453 Q19.9531,385.8281 21.1875,385.8281 Q21.9219,385.8281 22.5703,385.9922 Q23.2188,386.1563 23.7656,386.5156 Z "/><text fill="#000000" font-family="sans-serif" font-size="12" lengthAdjust="spacingAndGlyphs" textLength="140" x="35" y="395.5508">Use Case Model (outline)</text><line style="stroke: #A80036; stroke-width: 1.5;" x1="7" x2="177" y1="406.6406" y2="406.6406"/><line style="stroke: #A80036; stroke-width: 1.5;" x1="7" x2="177" y1="414.6406" y2="414.6406"/><!--class SupplementaryRequirements--><rect fill="#008000" filter="url(#ffzerhku1mtfv)" height="48" id="SupplementaryRequirements" style="stroke: #A80036; stroke-width: 1.5;" width="197" x="213.5" y="374.6406"/><rect fill="#008000" height="32" style="stroke: #A80036; stroke-width: 1.5;" width="197" x="213.5" y="374.6406"/><ellipse cx="228.5" cy="390.6406" fill="#ADD1B2" rx="11" ry="11" style="stroke: #A80036; stroke-width: 1.0;"/><path d="M231.2656,386.5156 Q231.4219,386.2969 231.6094,386.1875 Q231.7969,386.0781 232.0156,386.0781 Q232.3906,386.0781 232.625,386.3359 Q232.8594,386.5938 232.8594,387.2031 L232.8594,388.6563 Q232.8594,389.2656 232.625,389.5313 Q232.3906,389.7969 232.0156,389.7969 Q231.6719,389.7969 231.4688,389.5938 Q231.2656,389.4063 231.1563,388.8906 Q231.1094,388.5313 230.9219,388.3438 Q230.5938,387.9688 229.9844,387.75 Q229.375,387.5313 228.75,387.5313 Q227.9844,387.5313 227.3516,387.8594 Q226.7188,388.1875 226.2266,388.9375 Q225.7344,389.6875 225.7344,390.7188 L225.7344,391.8125 Q225.7344,393.0469 226.625,393.8672 Q227.5156,394.6875 229.1094,394.6875 Q230.0469,394.6875 230.7031,394.4375 Q231.0938,394.2813 231.5156,393.8438 Q231.7813,393.5781 231.9297,393.5 Q232.0781,393.4219 232.2813,393.4219 Q232.6094,393.4219 232.8672,393.6797 Q233.125,393.9375 233.125,394.2813 Q233.125,394.625 232.7813,395.0313 Q232.2813,395.6094 231.4844,395.9375 Q230.4063,396.3906 229.1094,396.3906 Q227.5938,396.3906 226.3906,395.7656 Q225.4063,395.2656 224.7188,394.1953 Q224.0313,393.125 224.0313,391.8438 L224.0313,390.6875 Q224.0313,389.3594 224.6484,388.2109 Q225.2656,387.0625 226.3594,386.4453 Q227.4531,385.8281 228.6875,385.8281 Q229.4219,385.8281 230.0703,385.9922 Q230.7188,386.1563 231.2656,386.5156 Z "/><text fill="#000000" font-family="sans-serif" font-size="12" lengthAdjust="spacingAndGlyphs" textLength="165" x="242.5" y="395.5508">Supplementary Requirements</text><line style="stroke: #A80036; stroke-width: 1.5;" x1="214.5" x2="409.5" y1="406.6406" y2="406.6406"/><line style="stroke: #A80036; stroke-width: 1.5;" x1="214.5" x2="409.5" y1="414.6406" y2="414.6406"/><!--class Glossary--><rect fill="#008000" filter="url(#ffzerhku1mtfv)" height="48" id="Glossary" style="stroke: #A80036; stroke-width: 1.5;" width="81" x="445.5" y="374.6406"/><rect fill="#008000" height="32" style="stroke: #A80036; stroke-width: 1.5;" width="81" x="445.5" y="374.6406"/><ellipse cx="460.5" cy="390.6406" fill="#ADD1B2" rx="11" ry="11" style="stroke: #A80036; stroke-width: 1.0;"/><path d="M463.2656,386.5156 Q463.4219,386.2969 463.6094,386.1875 Q463.7969,386.0781 464.0156,386.0781 Q464.3906,386.0781 464.625,386.3359 Q464.8594,386.5938 464.8594,387.2031 L464.8594,388.6563 Q464.8594,389.2656 464.625,389.5313 Q464.3906,389.7969 464.0156,389.7969 Q463.6719,389.7969 463.4688,389.5938 Q463.2656,389.4063 463.1563,388.8906 Q463.1094,388.5313 462.9219,388.3438 Q462.5938,387.9688 461.9844,387.75 Q461.375,387.5313 460.75,387.5313 Q459.9844,387.5313 459.3516,387.8594 Q458.7188,388.1875 458.2266,388.9375 Q457.7344,389.6875 457.7344,390.7188 L457.7344,391.8125 Q457.7344,393.0469 458.625,393.8672 Q459.5156,394.6875 461.1094,394.6875 Q462.0469,394.6875 462.7031,394.4375 Q463.0938,394.2813 463.5156,393.8438 Q463.7813,393.5781 463.9297,393.5 Q464.0781,393.4219 464.2813,393.4219 Q464.6094,393.4219 464.8672,393.6797 Q465.125,393.9375 465.125,394.2813 Q465.125,394.625 464.7813,395.0313 Q464.2813,395.6094 463.4844,395.9375 Q462.4063,396.3906 461.1094,396.3906 Q459.5938,396.3906 458.3906,395.7656 Q457.4063,395.2656 456.7188,394.1953 Q456.0313,393.125 456.0313,391.8438 L456.0313,390.6875 Q456.0313,389.3594 456.6484,388.2109 Q457.2656,387.0625 458.3594,386.4453 Q459.4531,385.8281 460.6875,385.8281 Q461.4219,385.8281 462.0703,385.9922 Q462.7188,386.1563 463.2656,386.5156 Z "/><text fill="#000000" font-family="sans-serif" font-size="12" lengthAdjust="spacingAndGlyphs" textLength="49" x="474.5" y="395.5508">Glossary</text><line style="stroke: #A80036; stroke-width: 1.5;" x1="446.5" x2="525.5" y1="406.6406" y2="406.6406"/><line style="stroke: #A80036; stroke-width: 1.5;" x1="446.5" x2="525.5" y1="414.6406" y2="414.6406"/><!--class ArchitectureDescription--><rect fill="#008000" filter="url(#ffzerhku1mtfv)" height="48" id="ArchitectureDescription" style="stroke: #A80036; stroke-width: 1.5;" width="327" x="561.5" y="374.6406"/><rect fill="#008000" height="32" style="stroke: #A80036; stroke-width: 1.5;" width="327" x="561.5" y="374.6406"/><ellipse cx="576.5" cy="390.6406" fill="#ADD1B2" rx="11" ry="11" style="stroke: #A80036; stroke-width: 1.0;"/><path d="M579.2656,386.5156 Q579.4219,386.2969 579.6094,386.1875 Q579.7969,386.0781 580.0156,386.0781 Q580.3906,386.0781 580.625,386.3359 Q580.8594,386.5938 580.8594,387.2031 L580.8594,388.6563 Q580.8594,389.2656 580.625,389.5313 Q580.3906,389.7969 580.0156,389.7969 Q579.6719,389.7969 579.4688,389.5938 Q579.2656,389.4063 579.1563,388.8906 Q579.1094,388.5313 578.9219,388.3438 Q578.5938,387.9688 577.9844,387.75 Q577.375,387.5313 576.75,387.5313 Q575.9844,387.5313 575.3516,387.8594 Q574.7188,388.1875 574.2266,388.9375 Q573.7344,389.6875 573.7344,390.7188 L573.7344,391.8125 Q573.7344,393.0469 574.625,393.8672 Q575.5156,394.6875 577.1094,394.6875 Q578.0469,394.6875 578.7031,394.4375 Q579.0938,394.2813 579.5156,393.8438 Q579.7813,393.5781 579.9297,393.5 Q580.0781,393.4219 580.2813,393.4219 Q580.6094,393.4219 580.8672,393.6797 Q581.125,393.9375 581.125,394.2813 Q581.125,394.625 580.7813,395.0313 Q580.2813,395.6094 579.4844,395.9375 Q578.4063,396.3906 577.1094,396.3906 Q575.5938,396.3906 574.3906,395.7656 Q573.4063,395.2656 572.7188,394.1953 Q572.0313,393.125 572.0313,391.8438 L572.0313,390.6875 Q572.0313,389.3594 572.6484,388.2109 Q573.2656,387.0625 574.3594,386.4453 Q575.4531,385.8281 576.6875,385.8281 Q577.4219,385.8281 578.0703,385.9922 Q578.7188,386.1563 579.2656,386.5156 Z "/><text fill="#000000" font-family="sans-serif" font-size="12" lengthAdjust="spacingAndGlyphs" textLength="295" x="590.5" y="395.5508">Architecture Description (View of the Use Case Model)</text><line style="stroke: #A80036; stroke-width: 1.5;" x1="562.5" x2="887.5" y1="406.6406" y2="406.6406"/><line style="stroke: #A80036; stroke-width: 1.5;" x1="562.5" x2="887.5" y1="414.6406" y2="414.6406"/><!--class RequirementsRole--><rect fill="#0000FF" filter="url(#ffzerhku1mtfv)" height="48" id="RequirementsRole" style="stroke: #A80036; stroke-width: 1.5;" width="137" x="751.5" y="248.6406"/><rect fill="#0000FF" height="32" style="stroke: #A80036; stroke-width: 1.5;" width="137" x="751.5" y="248.6406"/><ellipse cx="766.5" cy="264.6406" fill="#ADD1B2" rx="11" ry="11" style="stroke: #A80036; stroke-width: 1.0;"/><path d="M769.2656,260.5156 Q769.4219,260.2969 769.6094,260.1875 Q769.7969,260.0781 770.0156,260.0781 Q770.3906,260.0781 770.625,260.3359 Q770.8594,260.5938 770.8594,261.2031 L770.8594,262.6563 Q770.8594,263.2656 770.625,263.5313 Q770.3906,263.7969 770.0156,263.7969 Q769.6719,263.7969 769.4688,263.5938 Q769.2656,263.4063 769.1563,262.8906 Q769.1094,262.5313 768.9219,262.3438 Q768.5938,261.9688 767.9844,261.75 Q767.375,261.5313 766.75,261.5313 Q765.9844,261.5313 765.3516,261.8594 Q764.7188,262.1875 764.2266,262.9375 Q763.7344,263.6875 763.7344,264.7188 L763.7344,265.8125 Q763.7344,267.0469 764.625,267.8672 Q765.5156,268.6875 767.1094,268.6875 Q768.0469,268.6875 768.7031,268.4375 Q769.0938,268.2813 769.5156,267.8438 Q769.7813,267.5781 769.9297,267.5 Q770.0781,267.4219 770.2813,267.4219 Q770.6094,267.4219 770.8672,267.6797 Q771.125,267.9375 771.125,268.2813 Q771.125,268.625 770.7813,269.0313 Q770.2813,269.6094 769.4844,269.9375 Q768.4063,270.3906 767.1094,270.3906 Q765.5938,270.3906 764.3906,269.7656 Q763.4063,269.2656 762.7188,268.1953 Q762.0313,267.125 762.0313,265.8438 L762.0313,264.6875 Q762.0313,263.3594 762.6484,262.2109 Q763.2656,261.0625 764.3594,260.4453 Q765.4531,259.8281 766.6875,259.8281 Q767.4219,259.8281 768.0703,259.9922 Q768.7188,260.1563 769.2656,260.5156 Z "/><text fill="#000000" font-family="sans-serif" font-size="12" lengthAdjust="spacingAndGlyphs" textLength="105" x="780.5" y="269.5508">RequirementsRole</text><line style="stroke: #A80036; stroke-width: 1.5;" x1="752.5" x2="887.5" y1="280.6406" y2="280.6406"/><line style="stroke: #A80036; stroke-width: 1.5;" x1="752.5" x2="887.5" y1="288.6406" y2="288.6406"/><!--class PrioritizeUseCases--><rect fill="#FF0000" filter="url(#ffzerhku1mtfv)" height="48" id="PrioritizeUseCases" style="stroke: #A80036; stroke-width: 1.5;" width="142" x="467" y="248.6406"/><rect fill="#FF0000" height="32" style="stroke: #A80036; stroke-width: 1.5;" width="142" x="467" y="248.6406"/><ellipse cx="482" cy="264.6406" fill="#ADD1B2" rx="11" ry="11" style="stroke: #A80036; stroke-width: 1.0;"/><path d="M484.7656,260.5156 Q484.9219,260.2969 485.1094,260.1875 Q485.2969,260.0781 485.5156,260.0781 Q485.8906,260.0781 486.125,260.3359 Q486.3594,260.5938 486.3594,261.2031 L486.3594,262.6563 Q486.3594,263.2656 486.125,263.5313 Q485.8906,263.7969 485.5156,263.7969 Q485.1719,263.7969 484.9688,263.5938 Q484.7656,263.4063 484.6563,262.8906 Q484.6094,262.5313 484.4219,262.3438 Q484.0938,261.9688 483.4844,261.75 Q482.875,261.5313 482.25,261.5313 Q481.4844,261.5313 480.8516,261.8594 Q480.2188,262.1875 479.7266,262.9375 Q479.2344,263.6875 479.2344,264.7188 L479.2344,265.8125 Q479.2344,267.0469 480.125,267.8672 Q481.0156,268.6875 482.6094,268.6875 Q483.5469,268.6875 484.2031,268.4375 Q484.5938,268.2813 485.0156,267.8438 Q485.2813,267.5781 485.4297,267.5 Q485.5781,267.4219 485.7813,267.4219 Q486.1094,267.4219 486.3672,267.6797 Q486.625,267.9375 486.625,268.2813 Q486.625,268.625 486.2813,269.0313 Q485.7813,269.6094 484.9844,269.9375 Q483.9063,270.3906 482.6094,270.3906 Q481.0938,270.3906 479.8906,269.7656 Q478.9063,269.2656 478.2188,268.1953 Q477.5313,267.125 477.5313,265.8438 L477.5313,264.6875 Q477.5313,263.3594 478.1484,262.2109 Q478.7656,261.0625 479.8594,260.4453 Q480.9531,259.8281 482.1875,259.8281 Q482.9219,259.8281 483.5703,259.9922 Q484.2188,260.1563 484.7656,260.5156 Z "/><text fill="#000000" font-family="sans-serif" font-size="12" lengthAdjust="spacingAndGlyphs" textLength="110" x="496" y="269.5508">Prioritize Use cases</text><line style="stroke: #A80036; stroke-width: 1.5;" x1="468" x2="608" y1="280.6406" y2="280.6406"/><line style="stroke: #A80036; stroke-width: 1.5;" x1="468" x2="608" y1="288.6406" y2="288.6406"/><!--class Architect--><rect fill="#0000FF" filter="url(#ffzerhku1mtfv)" height="48" id="Architect" style="stroke: #A80036; stroke-width: 1.5;" width="78" x="924" y="374.6406"/><rect fill="#0000FF" height="32" style="stroke: #A80036; stroke-width: 1.5;" width="78" x="924" y="374.6406"/><ellipse cx="939" cy="390.6406" fill="#ADD1B2" rx="11" ry="11" style="stroke: #A80036; stroke-width: 1.0;"/><path d="M941.7656,386.5156 Q941.9219,386.2969 942.1094,386.1875 Q942.2969,386.0781 942.5156,386.0781 Q942.8906,386.0781 943.125,386.3359 Q943.3594,386.5938 943.3594,387.2031 L943.3594,388.6563 Q943.3594,389.2656 943.125,389.5313 Q942.8906,389.7969 942.5156,389.7969 Q942.1719,389.7969 941.9688,389.5938 Q941.7656,389.4063 941.6563,388.8906 Q941.6094,388.5313 941.4219,388.3438 Q941.0938,387.9688 940.4844,387.75 Q939.875,387.5313 939.25,387.5313 Q938.4844,387.5313 937.8516,387.8594 Q937.2188,388.1875 936.7266,388.9375 Q936.2344,389.6875 936.2344,390.7188 L936.2344,391.8125 Q936.2344,393.0469 937.125,393.8672 Q938.0156,394.6875 939.6094,394.6875 Q940.5469,394.6875 941.2031,394.4375 Q941.5938,394.2813 942.0156,393.8438 Q942.2813,393.5781 942.4297,393.5 Q942.5781,393.4219 942.7813,393.4219 Q943.1094,393.4219 943.3672,393.6797 Q943.625,393.9375 943.625,394.2813 Q943.625,394.625 943.2813,395.0313 Q942.7813,395.6094 941.9844,395.9375 Q940.9063,396.3906 939.6094,396.3906 Q938.0938,396.3906 936.8906,395.7656 Q935.9063,395.2656 935.2188,394.1953 Q934.5313,393.125 934.5313,391.8438 L934.5313,390.6875 Q934.5313,389.3594 935.1484,388.2109 Q935.7656,387.0625 936.8594,386.4453 Q937.9531,385.8281 939.1875,385.8281 Q939.9219,385.8281 940.5703,385.9922 Q941.2188,386.1563 941.7656,386.5156 Z "/><text fill="#000000" font-family="sans-serif" font-size="12" lengthAdjust="spacingAndGlyphs" textLength="46" x="953" y="395.5508">Architect</text><line style="stroke: #A80036; stroke-width: 1.5;" x1="925" x2="1001" y1="406.6406" y2="406.6406"/><line style="stroke: #A80036; stroke-width: 1.5;" x1="925" x2="1001" y1="414.6406" y2="414.6406"/><!--link Activity to RequirementsActivity--><path d="M725.482,95.7936 C716.115,110.5336 705.83,126.7166 697.726,139.4686 " fill="none" id="Activity-RequirementsActivity" style="stroke: #A80036; stroke-width: 1.0;"/><polygon fill="none" points="719.61,91.9836,736.245,78.8576,731.426,99.4926,719.61,91.9836" style="stroke: #A80036; stroke-width: 1.0;"/><!--link Activity to Role--><path d="M765.972,78.8576 C776.641,95.4036 791.026,117.7106 802.27,135.1466 " fill="none" id="Activity-Role" style="stroke: #A80036; stroke-width: 1.0;"/><polygon fill="#A80036" points="805.057,139.4686,803.54,129.7373,802.3468,135.2669,796.8172,134.0736,805.057,139.4686" style="stroke: #A80036; stroke-width: 1.0;"/><!--link RequirementsActivity to RequirementsRole--><path d="M712.727,187.8576 C734.36,204.7536 763.686,227.6576 786.208,245.2486 " fill="none" id="RequirementsActivity-RequirementsRole" style="stroke: #A80036; stroke-width: 1.0;"/><polygon fill="#A80036" points="790.331,248.4686,785.702,239.7754,786.3911,245.3901,780.7764,246.0793,790.331,248.4686" style="stroke: #A80036; stroke-width: 1.0;"/><!--link RequirementsActivity to PrioritizeUseCases--><path d="M635.413,199.7566 C613.736,215.7526 588.675,234.2456 569.401,248.4686 " fill="none" id="RequirementsActivity-PrioritizeUseCases" style="stroke: #A80036; stroke-width: 1.0;"/><polygon fill="none" points="631.288,194.1006,651.537,187.8576,639.601,205.3656,631.288,194.1006" style="stroke: #A80036; stroke-width: 1.0;"/><!--link PrioritizeUseCases to UseCaseModel--><path d="M466.837,293.4256 C388.952,315.0796 264.008,349.8178 180.019,373.1691 " fill="none" id="PrioritizeUseCases-UseCaseModel" style="stroke: #A80036; stroke-width: 1.0;"/><polygon fill="#A80036" points="175.049,374.5508,184.7918,375.9926,179.8661,373.2109,182.6478,368.2852,175.049,374.5508" style="stroke: #A80036; stroke-width: 1.0;"/><text fill="#000000" font-family="sans-serif" font-size="13" lengthAdjust="spacingAndGlyphs" textLength="10" x="343" y="341.1357">in</text><!--link PrioritizeUseCases to SupplementaryRequirements--><path d="M496.021,296.6736 C457.136,318.0086 399.382,349.6963 358.976,371.8659 " fill="none" id="PrioritizeUseCases-SupplementaryRequirements" style="stroke: #A80036; stroke-width: 1.0;"/><polygon fill="#A80036" points="354.137,374.521,363.9514,373.6976,358.5203,372.1155,360.1025,366.6844,354.137,374.521" style="stroke: #A80036; stroke-width: 1.0;"/><text fill="#000000" font-family="sans-serif" font-size="13" lengthAdjust="spacingAndGlyphs" textLength="10" x="440" y="341.1357">in</text><!--link PrioritizeUseCases to Glossary--><path d="M528.341,296.6736 C519.712,317.2496 507.046,347.4549 497.816,369.4648 " fill="none" id="PrioritizeUseCases-Glossary" style="stroke: #A80036; stroke-width: 1.0;"/><polygon fill="#A80036" points="495.784,374.3103,502.9537,367.5579,497.7179,369.6995,495.5764,364.4637,495.784,374.3103" style="stroke: #A80036; stroke-width: 1.0;"/><text fill="#000000" font-family="sans-serif" font-size="13" lengthAdjust="spacingAndGlyphs" textLength="10" x="517" y="341.1357">in</text><!--link PrioritizeUseCases to ArchitectureDescription--><path d="M572.735,296.6736 C604.779,317.9216 652.309,349.4388 685.722,371.5951 " fill="none" id="PrioritizeUseCases-ArchitectureDescription" style="stroke: #A80036; stroke-width: 1.0;"/><polygon fill="#A80036" points="690.134,374.521,684.8433,366.2139,685.9667,371.7581,680.4226,372.8815,690.134,374.521" style="stroke: #A80036; stroke-width: 1.0;"/><text fill="#000000" font-family="sans-serif" font-size="13" lengthAdjust="spacingAndGlyphs" textLength="18" x="644" y="341.1357">out</text><!--link PrioritizeUseCases to Architect--><path d="M609.282,290.6026 C683.959,308.9756 804.315,340.2994 906,374.6406 C910.306,376.0949 914.757,377.702 919.186,379.3707 " fill="none" id="PrioritizeUseCases-Architect" style="stroke: #A80036; stroke-width: 1.0;"/><polygon fill="#A80036" points="923.975,381.2014,916.9971,374.251,919.3047,379.4157,914.14,381.7234,923.975,381.2014" style="stroke: #A80036; stroke-width: 1.0;"/><!--link Role to RequirementsRole--><path d="M820,208.2186 C820,222.0026 820,236.6976 820,248.4686 " fill="none" id="Role-RequirementsRole" style="stroke: #A80036; stroke-width: 1.0;"/><polygon fill="none" points="813,207.8576,820,187.8576,827,207.8576,813,207.8576" style="stroke: #A80036; stroke-width: 1.0;"/><!--link RequirementsRole to Architect--><path d="M861.761,309.8526 C885.746,330.651 915.164,356.1605 936.095,374.3103 " fill="none" id="RequirementsRole-Architect" style="stroke: #A80036; stroke-width: 1.0;"/><polygon fill="none" points="857.086,315.0646,846.562,296.6736,866.258,304.4876,857.086,315.0646" style="stroke: #A80036; stroke-width: 1.0;"/><!--
@startuml
title Prioritize Use Cases
class Activity #red
Activity <|- - RequirementsActivity
Activity - -> Role

class "Use Case Model (outline)" as UseCaseModel #green
class "Supplementary Requirements" as SupplementaryRequirements #green
class Glossary #green
class "Architecture Description (View of the Use Case Model)" as ArchitectureDescription #green

class RequirementsActivity #red
RequirementsActivity - -> RequirementsRole

class "Prioritize Use cases" as PrioritizeUseCases #red
RequirementsActivity <|- - PrioritizeUseCases

PrioritizeUseCases - -> UseCaseModel :in
PrioritizeUseCases - -> SupplementaryRequirements :in
PrioritizeUseCases - -> Glossary :in
PrioritizeUseCases - -> ArchitectureDescription :out

PrioritizeUseCases - -> Architect

class Role #blue
class RequirementsRole #blue
class Architect #blue

Role <|- - RequirementsRole
RequirementsRole <|- - Architect
@enduml

PlantUML version 1.2019.05(Sat Apr 20 18:45:36 CEST 2019)
(GPL source distribution)
Java Runtime: OpenJDK Runtime Environment
JVM: OpenJDK 64-Bit Server VM
Java Version: 1.8.0_222-b10
Operating System: Windows 10
OS Version: 10.0
Default Encoding: windows-1252
Language: es
Country: ES
--></g></svg>