<?xml version="1.0" encoding="UTF-8" standalone="no"?><svg xmlns="http://www.w3.org/2000/svg" xmlns:xlink="http://www.w3.org/1999/xlink" contentScriptType="application/ecmascript" contentStyleType="text/css" height="613px" preserveAspectRatio="none" style="width:1655px;height:613px;background:#222222;" version="1.1" viewBox="0 0 1655 613" width="1655px" zoomAndPan="magnify"><defs/><g><text fill="#FFA500" font-family="courier" font-size="15" font-style="italic" lengthAdjust="spacingAndGlyphs" textLength="396" x="1247" y="16.0806">Universo Santa Tecla - USantaTecla@gmail.com</text><polygon fill="none" points="685,23.585,685,23.7951,695.1111,23.1706,705.2222,23.7782,715.3333,23.9846,725.4444,22.8716,735.5556,23.5072,745.6667,23.1585,755.7778,23.2015,765.8889,23.5168,776,22.8936,786.1111,24.1386,796.2222,22.9547,806.3333,23.3872,816.4444,24.0169,826.5556,23.4992,836.6667,23.6532,846.7778,23.553,856.8889,23.7635,867,23.8241,877.1111,24.1707,887.2222,24.256,897.3333,24.2642,907.4444,23.8396,917.5556,24.0485,927.6667,24.2872,937.7778,22.8638,947.8889,24.2635,958,23.585,957.7035,23.585,958.5338,32.8844,957.505,42.1838,957.9315,51.4832,958.7416,60.7826,958,70.082,958,70.0333,947.8889,70.1873,937.7778,70.4207,927.6667,70.4983,917.5556,70.0781,907.4444,70.3692,897.3333,69.5096,887.2222,70.3664,877.1111,70.6302,867,70.5266,856.8889,70.6951,846.7778,69.599,836.6667,69.4298,826.5556,69.4606,816.4444,70.0232,806.3333,69.8855,796.2222,70.7634,786.1111,69.9074,776,69.739,765.8889,70.3103,755.7778,69.4152,745.6667,69.5629,735.5556,70.731,725.4444,70.5177,715.3333,70.8165,705.2222,69.7602,695.1111,70.4012,685,70.082,685.5904,70.082,684.5276,60.7826,684.9041,51.4832,685.126,42.1838,685.6518,32.8844,685,23.585" style="stroke: #FFA500; stroke-width: 5.0;"/><text fill="#FFA500" font-family="arial" font-size="30" font-weight="bold" lengthAdjust="spacingAndGlyphs" textLength="255" x="694" y="57.7246">Priorize Use Case</text><!--cluster activities--><polygon fill="#222222" points="808,97.082,808,97.2922,817.8462,96.6677,827.6923,97.2753,837.5385,97.4817,847.3846,96.3686,857.2308,97.0043,867.0769,96.6555,876.9231,96.6985,886.7692,97.0139,896.6154,96.3907,906.4615,97.6357,916.3077,96.4518,926.1538,96.8843,936,97.082,936.141,97.111,937.372,103.8989,938.8223,110.7319,940.1896,117.5479,941.6583,124.3846,943,131.1953,943,131.4344,952.6667,131.781,962.3333,131.8664,972,131.8746,981.6667,131.4499,991.3333,131.6589,1001,131.8975,1010.6667,130.4741,1020.3333,131.8738,1030,130.8988,1039.6667,131.7291,1049.3333,130.7003,1059,131.1268,1068.6667,131.9369,1078.3333,131.1466,1088,131.1953,1088.1053,131.1953,1088.3386,141.2884,1088.4162,151.3816,1087.9961,161.4747,1088.2872,171.5678,1087.4276,181.6609,1088.2844,191.754,1088.5482,201.8472,1088.4445,211.9403,1088.613,222.0334,1087.5169,232.1265,1087.3478,242.2196,1087.3786,252.3128,1087.9411,262.4059,1087.8035,272.499,1088.6814,282.5921,1087.8253,292.6852,1087.6569,302.7784,1088.2283,312.8715,1087.3332,322.9646,1087.4809,333.0577,1088.649,343.1508,1088.4357,353.244,1088.7345,363.3371,1087.6782,373.4302,1088.3192,383.5233,1088.5904,393.6164,1087.5276,403.7096,1087.9041,413.8027,1088.126,423.8958,1088.6518,433.9889,1088,444.082,1088,444.0778,1078,444.5446,1068,443.5282,1058,443.4048,1048,444.5856,1038,443.3651,1028,444.591,1018,444.2887,1008,443.8141,998,443.7283,988,444.5408,978,443.7827,968,444.6739,958,443.5293,948,444.6995,938,444.5663,928,444.327,918,444.1293,908,444.8086,898,444.6956,888,444.2513,878,444.3502,868,443.9518,858,444.7985,848,444.2369,838,444.2546,828,443.4737,818,443.6768,808,444.082,808.5307,444.082,808.4298,434.1677,807.9571,424.2535,807.6778,414.3392,807.7811,404.4249,807.3138,394.5106,808.4147,384.5963,808.7396,374.682,808.5264,364.7677,808.6949,354.8535,807.8633,344.9392,808.0872,335.0249,807.6124,325.1106,808.284,315.1963,808.2468,305.282,808.5524,295.3677,807.7703,285.4535,807.8656,275.5392,808.4435,265.6249,808.5673,255.7106,807.4875,245.7963,807.8061,235.882,808.1493,225.9677,807.3892,216.0535,808.3534,206.1392,808.258,196.2249,807.8992,186.3106,808.1422,176.3963,808.7287,166.482,807.6871,156.5677,808.315,146.6535,808.2856,136.7392,808.1158,126.8249,808.1409,116.9106,808.1135,106.9963,808,97.082" style="stroke: #008000; stroke-width: 3.0;"/><path d="M808,131.1953 L808,131.4756 L817.6429,130.6429 L827.2857,131.453 L836.9286,131.7282 L846.5714,130.2441 L856.2143,131.0917 L865.8571,130.6267 L875.5,130.684 L885.1429,131.1044 L894.7857,130.2735 L904.4286,131.9335 L914.0714,130.3549 L923.7143,130.9316 L933.3571,131.7712 L943,131.1953 " fill="#222222" style="stroke: #008000; stroke-width: 3.0;"/><text fill="#008000" font-family="courier" font-size="20" font-weight="bold" lengthAdjust="spacingAndGlyphs" textLength="120" x="813" y="120.1895">activities</text><!--class Activity--><polygon fill="#222222" points="944,144.082,944,144.2922,954.4,143.6677,964.8,144.2753,975.2,144.4817,985.6,143.3686,996,144.0043,1006.4,143.6555,1016.8,143.6985,1027.2,144.0139,1037.6,143.3907,1048,144.082,1048.5536,144.082,1047.3697,154.9047,1047.8022,165.7273,1048.4319,176.55,1047.9142,187.3727,1048,198.1953,1048,198.2636,1037.6,198.1634,1027.2,198.3738,1016.8,198.4344,1006.4,198.781,996,198.8664,985.6,198.8746,975.2,198.4499,964.8,198.6589,954.4,198.8975,944,198.1953,943.2788,198.1953,944.6785,187.3727,943.7035,176.55,944.5338,165.7273,943.505,154.9047,944,144.082" style="stroke: #008000; stroke-width: 3.0;"/><text fill="#008000" font-family="courier" font-size="20" font-weight="bold" lengthAdjust="spacingAndGlyphs" textLength="96" x="948" y="170.1895">Activity</text><path d="M945,182.1953 L945,182.4756 L955.2,181.6429 L965.4,182.453 L975.6,182.7282 L985.8,181.2441 L996,182.0917 L1006.2,181.6267 L1016.4,181.684 L1026.6,182.1044 L1036.8,181.2735 L1047,182.1953 " fill="#222222" style="stroke: #008000; stroke-width: 3.0;"/><path d="M945,190.1953 L945,190.4756 L955.2,189.6429 L965.4,190.453 L975.6,190.7282 L985.8,189.2441 L996,190.0917 L1006.2,189.6267 L1016.4,189.684 L1026.6,190.1044 L1036.8,189.2735 L1047,190.1953 " fill="#222222" style="stroke: #008000; stroke-width: 3.0;"/><!--class RequirementsActivity--><polygon fill="#222222" points="824,259.082,824,259.2922,833.92,258.6677,843.84,259.2753,853.76,259.4817,863.68,258.3686,873.6,259.0043,883.52,258.6555,893.44,258.6985,903.36,259.0139,913.28,258.3907,923.2,259.6357,933.12,258.4518,943.04,258.8843,952.96,259.514,962.88,258.9963,972.8,259.1503,982.72,259.0501,992.64,259.2606,1002.56,259.3212,1012.48,259.6677,1022.4,259.7531,1032.32,259.7613,1042.24,259.3367,1052.16,259.5456,1062.08,259.7843,1072,259.082,1071.2788,259.082,1072.6785,269.9047,1071.7035,280.7273,1072.5338,291.55,1071.505,302.3727,1072,313.1953,1072,313.1268,1062.08,313.9369,1052.16,313.1466,1042.24,313.3006,1032.32,313.5339,1022.4,313.6115,1012.48,313.1914,1002.56,313.4825,992.64,312.6229,982.72,313.4797,972.8,313.7435,962.88,313.6398,952.96,313.8083,943.04,312.7122,933.12,312.5431,923.2,312.5739,913.28,313.1364,903.36,312.9988,893.44,313.8767,883.52,313.0206,873.6,312.8523,863.68,313.4236,853.76,312.5285,843.84,312.6762,833.92,313.8443,824,313.1953,824.4357,313.1953,824.7345,302.3727,823.6782,291.55,824.3192,280.7273,824.5904,269.9047,824,259.082" style="stroke: #008000; stroke-width: 3.0;"/><text fill="#008000" font-family="courier" font-size="20" font-weight="bold" lengthAdjust="spacingAndGlyphs" textLength="240" x="828" y="285.1895">RequirementsActivity</text><path d="M825,297.1953 L825,297.4756 L834.84,296.6429 L844.68,297.453 L854.52,297.7282 L864.36,296.2441 L874.2,297.0917 L884.04,296.6267 L893.88,296.684 L903.72,297.1044 L913.56,296.2735 L923.4,297.9335 L933.24,296.3549 L943.08,296.9316 L952.92,297.7712 L962.76,297.0809 L972.6,297.2863 L982.44,297.1527 L992.28,297.4333 L1002.12,297.5142 L1011.96,297.9762 L1021.8,298.0901 L1031.64,298.101 L1041.48,297.5348 L1051.32,297.8134 L1061.16,298.1316 L1071,297.1953 " fill="#222222" style="stroke: #008000; stroke-width: 3.0;"/><path d="M825,305.1953 L825,305.4756 L834.84,304.6429 L844.68,305.453 L854.52,305.7282 L864.36,304.2441 L874.2,305.0917 L884.04,304.6267 L893.88,304.684 L903.72,305.1044 L913.56,304.2735 L923.4,305.9335 L933.24,304.3549 L943.08,304.9316 L952.92,305.7712 L962.76,305.0809 L972.6,305.2863 L982.44,305.1527 L992.28,305.4333 L1002.12,305.5142 L1011.96,305.9762 L1021.8,306.0901 L1031.64,306.101 L1041.48,305.5348 L1051.32,305.8134 L1061.16,306.1316 L1071,305.1953 " fill="#222222" style="stroke: #008000; stroke-width: 3.0;"/><!--class PrioritizeUseCases--><polygon fill="#222222" points="824,374.082,824,374.2922,833.92,373.6677,843.84,374.2753,853.76,374.4817,863.68,373.3686,873.6,374.0043,883.52,373.6555,893.44,373.6985,903.36,374.0139,913.28,373.3907,923.2,374.6357,933.12,373.4518,943.04,373.8843,952.96,374.514,962.88,373.9963,972.8,374.1503,982.72,374.0501,992.64,374.2606,1002.56,374.3212,1012.48,374.6677,1022.4,374.7531,1032.32,374.7613,1042.24,374.3367,1052.16,374.5456,1062.08,374.7843,1072,374.082,1071.2788,374.082,1072.6785,384.9047,1071.7035,395.7273,1072.5338,406.55,1071.505,417.3727,1072,428.1953,1072,428.1268,1062.08,428.9369,1052.16,428.1466,1042.24,428.3006,1032.32,428.5339,1022.4,428.6115,1012.48,428.1914,1002.56,428.4825,992.64,427.6229,982.72,428.4797,972.8,428.7435,962.88,428.6398,952.96,428.8083,943.04,427.7122,933.12,427.5431,923.2,427.5739,913.28,428.1364,903.36,427.9988,893.44,428.8767,883.52,428.0206,873.6,427.8523,863.68,428.4236,853.76,427.5285,843.84,427.6762,833.92,428.8443,824,428.1953,824.4357,428.1953,824.7345,417.3727,823.6782,406.55,824.3192,395.7273,824.5904,384.9047,824,374.082" style="stroke: #008000; stroke-width: 3.0;"/><text fill="#008000" font-family="courier" font-size="20" font-weight="bold" lengthAdjust="spacingAndGlyphs" textLength="240" x="828" y="400.1895">Prioritize Use cases</text><path d="M825,412.1953 L825,412.4756 L834.84,411.6429 L844.68,412.453 L854.52,412.7282 L864.36,411.2441 L874.2,412.0917 L884.04,411.6267 L893.88,411.684 L903.72,412.1044 L913.56,411.2735 L923.4,412.9335 L933.24,411.3549 L943.08,411.9316 L952.92,412.7712 L962.76,412.0809 L972.6,412.2863 L982.44,412.1527 L992.28,412.4333 L1002.12,412.5142 L1011.96,412.9762 L1021.8,413.0901 L1031.64,413.101 L1041.48,412.5348 L1051.32,412.8134 L1061.16,413.1316 L1071,412.1953 " fill="#222222" style="stroke: #008000; stroke-width: 3.0;"/><path d="M825,420.1953 L825,420.4756 L834.84,419.6429 L844.68,420.453 L854.52,420.7282 L864.36,419.2441 L874.2,420.0917 L884.04,419.6267 L893.88,419.684 L903.72,420.1044 L913.56,419.2735 L923.4,420.9335 L933.24,419.3549 L943.08,419.9316 L952.92,420.7712 L962.76,420.0809 L972.6,420.2863 L982.44,420.1527 L992.28,420.4333 L1002.12,420.5142 L1011.96,420.9762 L1021.8,421.0901 L1031.64,421.101 L1041.48,420.5348 L1051.32,420.8134 L1061.16,421.1316 L1071,420.1953 " fill="#222222" style="stroke: #008000; stroke-width: 3.0;"/><!--class UseCaseModel--><polygon fill="#008000" points="6,520.082,6,520.2922,15.8667,519.6677,25.7333,520.2753,35.6,520.4817,45.4667,519.3686,55.3333,520.0043,65.2,519.6555,75.0667,519.6985,84.9333,520.0139,94.8,519.3907,104.6667,520.6357,114.5333,519.4518,124.4,519.8843,134.2667,520.514,144.1333,519.9963,154,520.1503,163.8667,520.0501,173.7333,520.2606,183.6,520.3212,193.4667,520.6677,203.3333,520.7531,213.2,520.7613,223.0667,520.3367,232.9333,520.5456,242.8,520.7843,252.6667,519.3608,262.5333,520.7605,272.4,519.7855,282.2667,520.6158,292.1333,519.587,302,520.082,301.9315,520.082,302.7416,530.9047,301.9513,541.7273,302.1053,552.55,302.3386,563.3727,302,574.1953,302,574.6115,292.1333,574.1914,282.2667,574.4825,272.4,573.6229,262.5333,574.4797,252.6667,574.7435,242.8,574.6398,232.9333,574.8083,223.0667,573.7122,213.2,573.5431,203.3333,573.5739,193.4667,574.1364,183.6,573.9988,173.7333,574.8767,163.8667,574.0206,154,573.8523,144.1333,574.4236,134.2667,573.5285,124.4,573.6762,114.5333,574.8443,104.6667,574.631,94.8,574.9298,84.9333,573.8735,75.0667,574.5145,65.2,574.7857,55.3333,573.7229,45.4667,574.0995,35.6,574.3213,25.7333,574.8471,15.8667,574.1911,6,574.1953,6.4626,574.1953,5.4462,563.3727,5.3227,552.55,6.5036,541.7273,5.2831,530.9047,6,520.082" style="stroke: #FFFFFF; stroke-width: 3.0;"/><polygon fill="#008000" points="6,520.082,6,520.2922,15.8667,519.6677,25.7333,520.2753,35.6,520.4817,45.4667,519.3686,55.3333,520.0043,65.2,519.6555,75.0667,519.6985,84.9333,520.0139,94.8,519.3907,104.6667,520.6357,114.5333,519.4518,124.4,519.8843,134.2667,520.514,144.1333,519.9963,154,520.1503,163.8667,520.0501,173.7333,520.2606,183.6,520.3212,193.4667,520.6677,203.3333,520.7531,213.2,520.7613,223.0667,520.3367,232.9333,520.5456,242.8,520.7843,252.6667,519.3608,262.5333,520.7605,272.4,519.7855,282.2667,520.6158,292.1333,519.587,302,520.082,301.9772,520.082,302.2472,527.7047,301.9838,535.3273,302.0351,542.95,302.1129,550.5727,302,558.1953,302,558.6115,292.1333,558.1914,282.2667,558.4825,272.4,557.6229,262.5333,558.4797,252.6667,558.7435,242.8,558.6398,232.9333,558.8083,223.0667,557.7122,213.2,557.5431,203.3333,557.5739,193.4667,558.1364,183.6,557.9988,173.7333,558.8767,163.8667,558.0206,154,557.8523,144.1333,558.4236,134.2667,557.5285,124.4,557.6762,114.5333,558.8443,104.6667,558.631,94.8,558.9298,84.9333,557.8735,75.0667,558.5145,65.2,558.7857,55.3333,557.7229,45.4667,558.0995,35.6,558.3213,25.7333,558.8471,15.8667,558.1911,6,558.1953,6.1542,558.1953,5.8154,550.5727,5.7742,542.95,6.1679,535.3273,5.761,527.7047,6,520.082" style="stroke: #FFFFFF; stroke-width: 3.0;"/><text fill="#FFFFFF" font-family="courier" font-size="20" font-weight="bold" lengthAdjust="spacingAndGlyphs" textLength="288" x="10" y="546.1895">Use Case Model (outline)</text><path d="M7,558.1953 L7,558.4756 L17.1379,557.6429 L27.2759,558.453 L37.4138,558.7282 L47.5517,557.2441 L57.6897,558.0917 L67.8276,557.6267 L77.9655,557.684 L88.1034,558.1044 L98.2414,557.2735 L108.3793,558.9335 L118.5172,557.3549 L128.6552,557.9316 L138.7931,558.7712 L148.931,558.0809 L159.069,558.2863 L169.2069,558.1527 L179.3448,558.4333 L189.4828,558.5142 L199.6207,558.9762 L209.7586,559.0901 L219.8966,559.101 L230.0345,558.5348 L240.1724,558.8134 L250.3103,559.1316 L260.4483,557.2337 L270.5862,559.1 L280.7241,557.8 L290.8621,558.9071 L301,558.1953 " fill="#008000" style="stroke: #FFFFFF; stroke-width: 3.0;"/><path d="M7,566.1953 L7,566.4756 L17.1379,565.6429 L27.2759,566.453 L37.4138,566.7282 L47.5517,565.2441 L57.6897,566.0917 L67.8276,565.6267 L77.9655,565.684 L88.1034,566.1044 L98.2414,565.2735 L108.3793,566.9335 L118.5172,565.3549 L128.6552,565.9316 L138.7931,566.7712 L148.931,566.0809 L159.069,566.2863 L169.2069,566.1527 L179.3448,566.4333 L189.4828,566.5142 L199.6207,566.9762 L209.7586,567.0901 L219.8966,567.101 L230.0345,566.5348 L240.1724,566.8134 L250.3103,567.1316 L260.4483,565.2337 L270.5862,567.1 L280.7241,565.8 L290.8621,566.9071 L301,566.1953 " fill="#008000" style="stroke: #FFFFFF; stroke-width: 3.0;"/><!--class SupplementaryRequirements--><polygon fill="#008000" points="337,520.082,337,520.2922,347,519.6677,357,520.2753,367,520.4817,377,519.3686,387,520.0043,397,519.6555,407,519.6985,417,520.0139,427,519.3907,437,520.6357,447,519.4518,457,519.8843,467,520.514,477,519.9963,487,520.1503,497,520.0501,507,520.2606,517,520.3212,527,520.6677,537,520.7531,547,520.7613,557,520.3367,567,520.5456,577,520.7843,587,519.3608,597,520.7605,607,519.7855,617,520.6158,627,519.587,637,520.0135,647,520.8236,657,520.082,656.9513,520.082,657.1053,530.9047,657.3386,541.7273,657.4162,552.55,656.9961,563.3727,657,574.1953,657,574.4825,647,573.6229,637,574.4797,627,574.7435,617,574.6398,607,574.8083,597,573.7122,587,573.5431,577,573.5739,567,574.1364,557,573.9988,547,574.8767,537,574.0206,527,573.8523,517,574.4236,507,573.5285,497,573.6762,487,574.8443,477,574.631,467,574.9298,457,573.8735,447,574.5145,437,574.7857,427,573.7229,417,574.0995,407,574.3213,397,574.8471,387,574.1911,377,574.6579,367,573.6415,357,573.5181,347,574.6989,337,574.1953,336.2831,574.1953,337.509,563.3727,337.2066,552.55,336.7321,541.7273,336.6462,530.9047,337,520.082" style="stroke: #FFFFFF; stroke-width: 3.0;"/><polygon fill="#008000" points="337,520.082,337,520.2922,347,519.6677,357,520.2753,367,520.4817,377,519.3686,387,520.0043,397,519.6555,407,519.6985,417,520.0139,427,519.3907,437,520.6357,447,519.4518,457,519.8843,467,520.514,477,519.9963,487,520.1503,497,520.0501,507,520.2606,517,520.3212,527,520.6677,537,520.7531,547,520.7613,557,520.3367,567,520.5456,577,520.7843,587,519.3608,597,520.7605,607,519.7855,617,520.6158,627,519.587,637,520.0135,647,520.8236,657,520.082,656.9838,520.082,657.0351,527.7047,657.1129,535.3273,657.1387,542.95,656.9987,550.5727,657,558.1953,657,558.4825,647,557.6229,637,558.4797,627,558.7435,617,558.6398,607,558.8083,597,557.7122,587,557.5431,577,557.5739,567,558.1364,557,557.9988,547,558.8767,537,558.0206,527,557.8523,517,558.4236,507,557.5285,497,557.6762,487,558.8443,477,558.631,467,558.9298,457,557.8735,447,558.5145,437,558.7857,427,557.7229,417,558.0995,407,558.3213,397,558.8471,387,558.1911,377,558.6579,367,557.6415,357,557.5181,347,558.6989,337,558.1953,336.761,558.1953,337.1697,550.5727,337.0689,542.95,336.9107,535.3273,336.8821,527.7047,337,520.082" style="stroke: #FFFFFF; stroke-width: 3.0;"/><text fill="#FFFFFF" font-family="courier" font-size="20" font-weight="bold" lengthAdjust="spacingAndGlyphs" textLength="312" x="341" y="546.1895">Supplementary Requirements</text><path d="M338,558.1953 L338,558.4756 L347.9375,557.6429 L357.875,558.453 L367.8125,558.7282 L377.75,557.2441 L387.6875,558.0917 L397.625,557.6267 L407.5625,557.684 L417.5,558.1044 L427.4375,557.2735 L437.375,558.9335 L447.3125,557.3549 L457.25,557.9316 L467.1875,558.7712 L477.125,558.0809 L487.0625,558.2863 L497,558.1527 L506.9375,558.4333 L516.875,558.5142 L526.8125,558.9762 L536.75,559.0901 L546.6875,559.101 L556.625,558.5348 L566.5625,558.8134 L576.5,559.1316 L586.4375,557.2337 L596.375,559.1 L606.3125,557.8 L616.25,558.9071 L626.1875,557.5353 L636.125,558.104 L646.0625,559.1841 L656,558.1953 " fill="#008000" style="stroke: #FFFFFF; stroke-width: 3.0;"/><path d="M338,566.1953 L338,566.4756 L347.9375,565.6429 L357.875,566.453 L367.8125,566.7282 L377.75,565.2441 L387.6875,566.0917 L397.625,565.6267 L407.5625,565.684 L417.5,566.1044 L427.4375,565.2735 L437.375,566.9335 L447.3125,565.3549 L457.25,565.9316 L467.1875,566.7712 L477.125,566.0809 L487.0625,566.2863 L497,566.1527 L506.9375,566.4333 L516.875,566.5142 L526.8125,566.9762 L536.75,567.0901 L546.6875,567.101 L556.625,566.5348 L566.5625,566.8134 L576.5,567.1316 L586.4375,565.2337 L596.375,567.1 L606.3125,565.8 L616.25,566.9071 L626.1875,565.5353 L636.125,566.104 L646.0625,567.1841 L656,566.1953 " fill="#008000" style="stroke: #FFFFFF; stroke-width: 3.0;"/><!--class Glossary--><polygon fill="#008000" points="692,520.082,692,520.2922,702.4,519.6677,712.8,520.2753,723.2,520.4817,733.6,519.3686,744,520.0043,754.4,519.6555,764.8,519.6985,775.2,520.0139,785.6,519.3907,796,520.082,796.5536,520.082,795.3697,530.9047,795.8022,541.7273,796.4319,552.55,795.9142,563.3727,796,574.1953,796,574.2636,785.6,574.1634,775.2,574.3738,764.8,574.4344,754.4,574.781,744,574.8664,733.6,574.8746,723.2,574.4499,712.8,574.6589,702.4,574.8975,692,574.1953,691.2788,574.1953,692.6785,563.3727,691.7035,552.55,692.5338,541.7273,691.505,530.9047,692,520.082" style="stroke: #FFFFFF; stroke-width: 3.0;"/><polygon fill="#008000" points="692,520.082,692,520.2922,702.4,519.6677,712.8,520.2753,723.2,520.4817,733.6,519.3686,744,520.0043,754.4,519.6555,764.8,519.6985,775.2,520.0139,785.6,519.3907,796,520.082,796.1845,520.082,795.7899,527.7047,795.9341,535.3273,796.144,542.95,795.9714,550.5727,796,558.1953,796,558.2636,785.6,558.1634,775.2,558.3738,764.8,558.4344,754.4,558.781,744,558.8664,733.6,558.8746,723.2,558.4499,712.8,558.6589,702.4,558.8975,692,558.1953,691.7596,558.1953,692.2262,550.5727,691.9012,542.95,692.1779,535.3273,691.835,527.7047,692,520.082" style="stroke: #FFFFFF; stroke-width: 3.0;"/><text fill="#FFFFFF" font-family="courier" font-size="20" font-weight="bold" lengthAdjust="spacingAndGlyphs" textLength="96" x="696" y="546.1895">Glossary</text><path d="M693,558.1953 L693,558.4756 L703.2,557.6429 L713.4,558.453 L723.6,558.7282 L733.8,557.2441 L744,558.0917 L754.2,557.6267 L764.4,557.684 L774.6,558.1044 L784.8,557.2735 L795,558.1953 " fill="#008000" style="stroke: #FFFFFF; stroke-width: 3.0;"/><path d="M693,566.1953 L693,566.4756 L703.2,565.6429 L713.4,566.453 L723.6,566.7282 L733.8,565.2441 L744,566.0917 L754.2,565.6267 L764.4,565.684 L774.6,566.1044 L784.8,565.2735 L795,566.1953 " fill="#008000" style="stroke: #FFFFFF; stroke-width: 3.0;"/><!--class ArchitectureDescription--><polygon fill="#008000" points="831,520.082,831,520.2922,841.0625,519.6677,851.125,520.2753,861.1875,520.4817,871.25,519.3686,881.3125,520.0043,891.375,519.6555,901.4375,519.6985,911.5,520.0139,921.5625,519.3907,931.625,520.6357,941.6875,519.4518,951.75,519.8843,961.8125,520.514,971.875,519.9963,981.9375,520.1503,992,520.0501,1002.0625,520.2606,1012.125,520.3212,1022.1875,520.6677,1032.25,520.7531,1042.3125,520.7613,1052.375,520.3367,1062.4375,520.5456,1072.5,520.7843,1082.5625,519.3608,1092.625,520.7605,1102.6875,519.7855,1112.75,520.6158,1122.8125,519.587,1132.875,520.0135,1142.9375,520.8236,1153,520.0333,1163.0625,520.1873,1173.125,520.4207,1183.1875,520.4983,1193.25,520.0781,1203.3125,520.3692,1213.375,519.5096,1223.4375,520.3664,1233.5,520.6302,1243.5625,520.5266,1253.625,520.6951,1263.6875,519.599,1273.75,519.4298,1283.8125,519.4606,1293.875,520.0232,1303.9375,519.8855,1314,520.7634,1324.0625,519.9074,1334.125,519.739,1344.1875,520.3103,1354.25,519.4152,1364.3125,519.5629,1374.375,520.731,1384.4375,520.5177,1394.5,520.8165,1404.5625,519.7602,1414.625,520.4012,1424.6875,520.6725,1434.75,519.6096,1444.8125,519.9862,1454.875,520.208,1464.9375,520.7338,1475,520.082,1474.9958,520.082,1475.4626,530.9047,1474.4462,541.7273,1474.3227,552.55,1475.5036,563.3727,1475,574.1953,1475,573.4784,1464.9375,574.7043,1454.875,574.4019,1444.8125,573.9274,1434.75,573.8415,1424.6875,574.6541,1414.625,573.896,1404.5625,574.7872,1394.5,573.6426,1384.4375,574.8127,1374.375,574.6796,1364.3125,574.4403,1354.25,574.2425,1344.1875,574.9219,1334.125,574.8089,1324.0625,574.3646,1314,574.4635,1303.9375,574.065,1293.875,574.9118,1283.8125,574.3502,1273.75,574.3679,1263.6875,573.587,1253.625,573.7901,1243.5625,574.7261,1233.5,574.6251,1223.4375,574.1524,1213.375,573.8731,1203.3125,573.9764,1193.25,573.5091,1183.1875,574.61,1173.125,574.9349,1163.0625,574.7217,1153,574.8902,1142.9375,574.0586,1132.875,574.2825,1122.8125,573.8077,1112.75,574.4794,1102.6875,574.4421,1092.625,574.7477,1082.5625,573.9657,1072.5,574.0609,1062.4375,574.6388,1052.375,574.7626,1042.3125,573.6828,1032.25,574.0014,1022.1875,574.3446,1012.125,573.5845,1002.0625,574.5487,992,574.4533,981.9375,574.0946,971.875,574.3376,961.8125,574.924,951.75,573.8824,941.6875,574.5103,931.625,574.481,921.5625,574.3111,911.5,574.3362,901.4375,574.3088,891.375,573.5712,881.3125,573.7945,871.25,573.7338,861.1875,574.2591,851.125,574.2834,841.0625,574.3571,831,574.1953,830.709,574.1953,830.9325,563.3727,830.8798,552.55,831.5769,541.7273,831.4266,530.9047,831,520.082" style="stroke: #FFFFFF; stroke-width: 3.0;"/><polygon fill="#008000" points="831,520.082,831,520.2922,841.0625,519.6677,851.125,520.2753,861.1875,520.4817,871.25,519.3686,881.3125,520.0043,891.375,519.6555,901.4375,519.6985,911.5,520.0139,921.5625,519.3907,931.625,520.6357,941.6875,519.4518,951.75,519.8843,961.8125,520.514,971.875,519.9963,981.9375,520.1503,992,520.0501,1002.0625,520.2606,1012.125,520.3212,1022.1875,520.6677,1032.25,520.7531,1042.3125,520.7613,1052.375,520.3367,1062.4375,520.5456,1072.5,520.7843,1082.5625,519.3608,1092.625,520.7605,1102.6875,519.7855,1112.75,520.6158,1122.8125,519.587,1132.875,520.0135,1142.9375,520.8236,1153,520.0333,1163.0625,520.1873,1173.125,520.4207,1183.1875,520.4983,1193.25,520.0781,1203.3125,520.3692,1213.375,519.5096,1223.4375,520.3664,1233.5,520.6302,1243.5625,520.5266,1253.625,520.6951,1263.6875,519.599,1273.75,519.4298,1283.8125,519.4606,1293.875,520.0232,1303.9375,519.8855,1314,520.7634,1324.0625,519.9074,1334.125,519.739,1344.1875,520.3103,1354.25,519.4152,1364.3125,519.5629,1374.375,520.731,1384.4375,520.5177,1394.5,520.8165,1404.5625,519.7602,1414.625,520.4012,1424.6875,520.6725,1434.75,519.6096,1444.8125,519.9862,1454.875,520.208,1464.9375,520.7338,1475,520.082,1474.9986,520.082,1475.1542,527.7047,1474.8154,535.3273,1474.7742,542.95,1475.1679,550.5727,1475,558.1953,1475,557.4784,1464.9375,558.7043,1454.875,558.4019,1444.8125,557.9274,1434.75,557.8415,1424.6875,558.6541,1414.625,557.896,1404.5625,558.7872,1394.5,557.6426,1384.4375,558.8127,1374.375,558.6796,1364.3125,558.4403,1354.25,558.2425,1344.1875,558.9219,1334.125,558.8089,1324.0625,558.3646,1314,558.4635,1303.9375,558.065,1293.875,558.9118,1283.8125,558.3502,1273.75,558.3679,1263.6875,557.587,1253.625,557.7901,1243.5625,558.7261,1233.5,558.6251,1223.4375,558.1524,1213.375,557.8731,1203.3125,557.9764,1193.25,557.5091,1183.1875,558.61,1173.125,558.9349,1163.0625,558.7217,1153,558.8902,1142.9375,558.0586,1132.875,558.2825,1122.8125,557.8077,1112.75,558.4794,1102.6875,558.4421,1092.625,558.7477,1082.5625,557.9657,1072.5,558.0609,1062.4375,558.6388,1052.375,558.7626,1042.3125,557.6828,1032.25,558.0014,1022.1875,558.3446,1012.125,557.5845,1002.0625,558.5487,992,558.4533,981.9375,558.0946,971.875,558.3376,961.8125,558.924,951.75,557.8824,941.6875,558.5103,931.625,558.481,921.5625,558.3111,911.5,558.3362,901.4375,558.3088,891.375,557.5712,881.3125,557.7945,871.25,557.7338,861.1875,558.2591,851.125,558.2834,841.0625,558.3571,831,558.1953,830.903,558.1953,830.9775,550.5727,830.9599,542.95,831.1923,535.3273,831.1422,527.7047,831,520.082" style="stroke: #FFFFFF; stroke-width: 3.0;"/><text fill="#FFFFFF" font-family="courier" font-size="20" font-weight="bold" lengthAdjust="spacingAndGlyphs" textLength="636" x="835" y="546.1895">Architecture Description (View of the Use Case Model)</text><path d="M832,558.1953 L832,558.4756 L842.0313,557.6429 L852.0625,558.453 L862.0938,558.7282 L872.125,557.2441 L882.1563,558.0917 L892.1875,557.6267 L902.2188,557.684 L912.25,558.1044 L922.2813,557.2735 L932.3125,558.9335 L942.3438,557.3549 L952.375,557.9316 L962.4063,558.7712 L972.4375,558.0809 L982.4688,558.2863 L992.5,558.1527 L1002.5313,558.4333 L1012.5625,558.5142 L1022.5938,558.9762 L1032.625,559.0901 L1042.6563,559.101 L1052.6875,558.5348 L1062.7188,558.8134 L1072.75,559.1316 L1082.7813,557.2337 L1092.8125,559.1 L1102.8438,557.8 L1112.875,558.9071 L1122.9063,557.5353 L1132.9375,558.104 L1142.9688,559.1841 L1153,558.1303 L1163.0313,558.3357 L1173.0625,558.6468 L1183.0938,558.7503 L1193.125,558.1901 L1203.1563,558.5783 L1213.1875,557.4321 L1223.2188,558.5745 L1233.25,558.9262 L1243.2813,558.788 L1253.3125,559.0127 L1263.3438,557.5512 L1273.375,557.3257 L1283.4063,557.3668 L1293.4375,558.1168 L1303.4688,557.9333 L1313.5,559.1039 L1323.5313,557.9624 L1333.5625,557.7379 L1343.5938,558.4997 L1353.625,557.3062 L1363.6563,557.5031 L1373.6875,559.0606 L1383.7188,558.7762 L1393.75,559.1746 L1403.7813,557.7663 L1413.8125,558.6209 L1423.8438,558.9825 L1433.875,557.5654 L1443.9063,558.0675 L1453.9375,558.3633 L1463.9688,559.0643 L1474,558.1953 " fill="#008000" style="stroke: #FFFFFF; stroke-width: 3.0;"/><path d="M832,566.1953 L832,566.4756 L842.0313,565.6429 L852.0625,566.453 L862.0938,566.7282 L872.125,565.2441 L882.1563,566.0917 L892.1875,565.6267 L902.2188,565.684 L912.25,566.1044 L922.2813,565.2735 L932.3125,566.9335 L942.3438,565.3549 L952.375,565.9316 L962.4063,566.7712 L972.4375,566.0809 L982.4688,566.2863 L992.5,566.1527 L1002.5313,566.4333 L1012.5625,566.5142 L1022.5938,566.9762 L1032.625,567.0901 L1042.6563,567.101 L1052.6875,566.5348 L1062.7188,566.8134 L1072.75,567.1316 L1082.7813,565.2337 L1092.8125,567.1 L1102.8438,565.8 L1112.875,566.9071 L1122.9063,565.5353 L1132.9375,566.104 L1142.9688,567.1841 L1153,566.1303 L1163.0313,566.3357 L1173.0625,566.6468 L1183.0938,566.7503 L1193.125,566.1901 L1203.1563,566.5783 L1213.1875,565.4321 L1223.2188,566.5745 L1233.25,566.9262 L1243.2813,566.788 L1253.3125,567.0127 L1263.3438,565.5512 L1273.375,565.3257 L1283.4063,565.3668 L1293.4375,566.1168 L1303.4688,565.9333 L1313.5,567.1039 L1323.5313,565.9624 L1333.5625,565.7379 L1343.5938,566.4997 L1353.625,565.3062 L1363.6563,565.5031 L1373.6875,567.0606 L1383.7188,566.7762 L1393.75,567.1746 L1403.7813,565.7663 L1413.8125,566.6209 L1423.8438,566.9825 L1433.875,565.5654 L1443.9063,566.0675 L1453.9375,566.3633 L1463.9688,567.0643 L1474,566.1953 " fill="#008000" style="stroke: #FFFFFF; stroke-width: 3.0;"/><!--class Role--><polygon fill="#0000FF" points="1125,259.082,1125,259.2922,1134.3333,258.6677,1143.6667,259.2753,1153,259.4817,1162.3333,258.3686,1171.6667,259.0043,1181,259.082,1180.5735,259.082,1180.6165,269.9047,1180.9318,280.7273,1180.3086,291.55,1181.5536,302.3727,1181,313.1953,1181,312.565,1171.6667,312.9975,1162.3333,313.6273,1153,313.1095,1143.6667,313.2636,1134.3333,313.1634,1125,313.1953,1125.1785,313.1953,1125.2391,302.3727,1125.5857,291.55,1125.6711,280.7273,1125.6793,269.9047,1125,259.082" style="stroke: #FFFFFF; stroke-width: 3.0;"/><polygon fill="#0000FF" points="1125,259.082,1125,259.2922,1134.3333,258.6677,1143.6667,259.2753,1153,259.4817,1162.3333,258.3686,1171.6667,259.0043,1181,259.082,1180.8578,259.082,1180.8722,266.7047,1180.9773,274.3273,1180.7695,281.95,1181.1845,289.5727,1181,297.1953,1181,296.565,1171.6667,296.9975,1162.3333,297.6273,1153,297.1095,1143.6667,297.2636,1134.3333,297.1634,1125,297.1953,1125.0595,297.1953,1125.0797,289.5727,1125.1952,281.95,1125.2237,274.3273,1125.2264,266.7047,1125,259.082" style="stroke: #FFFFFF; stroke-width: 3.0;"/><text fill="#FFFFFF" font-family="courier" font-size="20" font-weight="bold" lengthAdjust="spacingAndGlyphs" textLength="48" x="1129" y="285.1895">Role</text><path d="M1126,297.1953 L1126,297.4756 L1136.8,296.6429 L1147.6,297.453 L1158.4,297.7282 L1169.2,296.2441 L1180,297.1953 " fill="#0000FF" style="stroke: #FFFFFF; stroke-width: 3.0;"/><path d="M1126,305.1953 L1126,305.4756 L1136.8,304.6429 L1147.6,305.453 L1158.4,305.7282 L1169.2,304.2441 L1180,305.1953 " fill="#0000FF" style="stroke: #FFFFFF; stroke-width: 3.0;"/><!--class RequirementsRole--><polygon fill="#0000FF" points="1107,374.082,1107,374.2922,1117,373.6677,1127,374.2753,1137,374.4817,1147,373.3686,1157,374.0043,1167,373.6555,1177,373.6985,1187,374.0139,1197,373.3907,1207,374.6357,1217,373.4518,1227,373.8843,1237,374.514,1247,373.9963,1257,374.1503,1267,374.0501,1277,374.2606,1287,374.3212,1297,374.6677,1307,374.082,1307.6711,374.082,1307.6793,384.9047,1307.2546,395.7273,1307.4636,406.55,1307.7022,417.3727,1307,428.1953,1307,427.4741,1297,428.8738,1287,427.8988,1277,428.7291,1267,427.7003,1257,428.1268,1247,428.9369,1237,428.1466,1227,428.3006,1217,428.5339,1207,428.6115,1197,428.1914,1187,428.4825,1177,427.6229,1167,428.4797,1157,428.7435,1147,428.6398,1137,428.8083,1127,427.7122,1117,427.5431,1107,428.1953,1106.3786,428.1953,1106.9411,417.3727,1106.8035,406.55,1107.6814,395.7273,1106.8253,384.9047,1107,374.082" style="stroke: #FFFFFF; stroke-width: 3.0;"/><polygon fill="#0000FF" points="1107,374.082,1107,374.2922,1117,373.6677,1127,374.2753,1137,374.4817,1147,373.3686,1157,374.0043,1167,373.6555,1177,373.6985,1187,374.0139,1197,373.3907,1207,374.6357,1217,373.4518,1227,373.8843,1237,374.514,1247,373.9963,1257,374.1503,1267,374.0501,1277,374.2606,1287,374.3212,1297,374.6677,1307,374.082,1307.2237,374.082,1307.2264,381.7047,1307.0849,389.3273,1307.1545,396.95,1307.2341,404.5727,1307,412.1953,1307,411.4741,1297,412.8738,1287,411.8988,1277,412.7291,1267,411.7003,1257,412.1268,1247,412.9369,1237,412.1466,1227,412.3006,1217,412.5339,1207,412.6115,1197,412.1914,1187,412.4825,1177,411.6229,1167,412.4797,1157,412.7435,1147,412.6398,1137,412.8083,1127,411.7122,1117,411.5431,1107,412.1953,1106.7929,412.1953,1106.9804,404.5727,1106.9345,396.95,1107.2271,389.3273,1106.9418,381.7047,1107,374.082" style="stroke: #FFFFFF; stroke-width: 3.0;"/><text fill="#FFFFFF" font-family="courier" font-size="20" font-weight="bold" lengthAdjust="spacingAndGlyphs" textLength="192" x="1111" y="400.1895">RequirementsRole</text><path d="M1108,412.1953 L1108,412.4756 L1117.9,411.6429 L1127.8,412.453 L1137.7,412.7282 L1147.6,411.2441 L1157.5,412.0917 L1167.4,411.6267 L1177.3,411.684 L1187.2,412.1044 L1197.1,411.2735 L1207,412.9335 L1216.9,411.3549 L1226.8,411.9316 L1236.7,412.7712 L1246.6,412.0809 L1256.5,412.2863 L1266.4,412.1527 L1276.3,412.4333 L1286.2,412.5142 L1296.1,412.9762 L1306,412.1953 " fill="#0000FF" style="stroke: #FFFFFF; stroke-width: 3.0;"/><path d="M1108,420.1953 L1108,420.4756 L1117.9,419.6429 L1127.8,420.453 L1137.7,420.7282 L1147.6,419.2441 L1157.5,420.0917 L1167.4,419.6267 L1177.3,419.684 L1187.2,420.1044 L1197.1,419.2735 L1207,420.9335 L1216.9,419.3549 L1226.8,419.9316 L1236.7,420.7712 L1246.6,420.0809 L1256.5,420.2863 L1266.4,420.1527 L1276.3,420.4333 L1286.2,420.5142 L1296.1,420.9762 L1306,420.1953 " fill="#0000FF" style="stroke: #FFFFFF; stroke-width: 3.0;"/><!--class Architect--><polygon fill="#0000FF" points="1510,520.082,1510,520.2922,1519.6667,519.6677,1529.3333,520.2753,1539,520.4817,1548.6667,519.3686,1558.3333,520.0043,1568,519.6555,1577.6667,519.6985,1587.3333,520.0139,1597,519.3907,1606.6667,520.6357,1616.3333,519.4518,1626,520.082,1625.8022,520.082,1626.4319,530.9047,1625.9142,541.7273,1626.0682,552.55,1625.9681,563.3727,1626,574.1953,1626,574.3738,1616.3333,574.4344,1606.6667,574.781,1597,574.8664,1587.3333,574.8746,1577.6667,574.4499,1568,574.6589,1558.3333,574.8975,1548.6667,573.4741,1539,574.8738,1529.3333,573.8988,1519.6667,574.7291,1510,574.1953,1509.505,574.1953,1509.9315,563.3727,1510.7416,552.55,1509.9513,541.7273,1510.1053,530.9047,1510,520.082" style="stroke: #FFFFFF; stroke-width: 3.0;"/><polygon fill="#0000FF" points="1510,520.082,1510,520.2922,1519.6667,519.6677,1529.3333,520.2753,1539,520.4817,1548.6667,519.3686,1558.3333,520.0043,1568,519.6555,1577.6667,519.6985,1587.3333,520.0139,1597,519.3907,1606.6667,520.6357,1616.3333,519.4518,1626,520.082,1625.9341,520.082,1626.144,527.7047,1625.9714,535.3273,1626.0227,542.95,1625.9894,550.5727,1626,558.1953,1626,558.3738,1616.3333,558.4344,1606.6667,558.781,1597,558.8664,1587.3333,558.8746,1577.6667,558.4499,1568,558.6589,1558.3333,558.8975,1548.6667,557.4741,1539,558.8738,1529.3333,557.8988,1519.6667,558.7291,1510,558.1953,1509.835,558.1953,1509.9772,550.5727,1510.2472,542.95,1509.9838,535.3273,1510.0351,527.7047,1510,520.082" style="stroke: #FFFFFF; stroke-width: 3.0;"/><text fill="#FFFFFF" font-family="courier" font-size="20" font-weight="bold" lengthAdjust="spacingAndGlyphs" textLength="108" x="1514" y="546.1895">Architect</text><path d="M1511,558.1953 L1511,558.4756 L1521.3636,557.6429 L1531.7273,558.453 L1542.0909,558.7282 L1552.4545,557.2441 L1562.8182,558.0917 L1573.1818,557.6267 L1583.5455,557.684 L1593.9091,558.1044 L1604.2727,557.2735 L1614.6364,558.9335 L1625,558.1953 " fill="#0000FF" style="stroke: #FFFFFF; stroke-width: 3.0;"/><path d="M1511,566.1953 L1511,566.4756 L1521.3636,565.6429 L1531.7273,566.453 L1542.0909,566.7282 L1552.4545,565.2441 L1562.8182,566.0917 L1573.1818,565.6267 L1583.5455,565.684 L1593.9091,566.1044 L1604.2727,565.2735 L1614.6364,566.9335 L1625,566.1953 " fill="#0000FF" style="stroke: #FFFFFF; stroke-width: 3.0;"/><!--link Activity to RequirementsActivity--><path d="M977.008,216.793 L977.2659,216.9026 L972.9123,225.0216 L970.0708,233.783 L966.7369,242.3352 L961.7837,250.1995 L959.072,259.016 " fill="none" style="stroke: #FFFFFF; stroke-width: 2.0;"/><polygon fill="none" points="970.605,213.962,970.6568,214.0092,973.3553,210.7347,976.3575,207.7366,979.2607,204.6485,981.8387,201.2644,984.867,198.29,984.8412,198.2883,984.4499,202.5098,984.189,206.7397,984.0187,210.9756,983.5362,215.1911,983.491,219.435,983.5631,219.6049,980.8317,218.1471,978.3108,217.1852,975.8157,216.2838,973.171,215.0303,970.605,213.962" style="stroke: #FFFFFF; stroke-width: 2.0;"/><!--link Activity to Role--><path d="M1032.41,198.29 L1032.5737,198.5175 L1040.0973,203.6063 L1048.5805,210.0285 L1056.7513,216.0165 L1063.8944,220.5765 L1072.3995,227.0291 L1080.1378,232.4163 L1088.1813,238.2275 L1096.4369,244.3334 L1103.9615,249.4236 L1112.9412,256.5356 L1120.52,261.701 " fill="none" style="stroke: #FFFFFF; stroke-width: 2.0;"/><polygon fill="#FFFFFF" points="1124.86,264.831,1124.9205,264.8663,1123.7494,263.0594,1122.9331,261.4591,1122.0013,259.7916,1120.6894,257.9027,1119.9037,256.3202,1119.8781,256.316,1119.9438,257.4144,1120.1383,258.5336,1120.4225,259.6672,1120.3979,260.751,1120.8059,261.9046,1120.8353,262.0868,1119.6555,261.8777,1118.5616,262.2004,1117.4781,262.5881,1116.3337,262.5981,1115.2214,262.8068,1115.2261,262.8291,1117.1469,263.2012,1119.0891,263.6747,1121.0209,264.0994,1122.9724,264.6172,1124.86,264.831" style="stroke: #FFFFFF; stroke-width: 2.0;"/><!--link RequirementsActivity to RequirementsRole--><path d="M1007.75,313.148 L1007.8621,313.4049 L1016.5051,316.5581 L1025.8051,321.217 L1034.8911,325.3857 L1043.2736,327.9418 L1052.5886,332.6351 L1061.3786,336.1252 L1070.3775,340.0942 L1079.5217,344.3959 L1088.1654,347.5507 L1097.8052,352.9886 L1106.1499,355.4582 L1115.3565,359.9031 L1124.6683,364.5891 L1133.3683,367.8728 L1142.39,371.894 " fill="none" style="stroke: #FFFFFF; stroke-width: 2.0;"/><polygon fill="#FFFFFF" points="1147.11,373.951,1147.1617,373.9983,1145.6784,372.4046,1144.498,371.0882,1143.219,369.6814,1141.6155,367.9778,1140.4612,366.6851,1140.4371,366.6757,1140.7421,367.6864,1141.1687,368.7448,1141.6798,369.8364,1141.8996,370.8138,1142.5274,371.9511,1142.5948,372.1229,1141.3974,372.1688,1140.3969,372.7162,1139.4204,373.3249,1138.3041,373.5775,1137.2614,374.0173,1137.2615,374.0401,1139.231,373.9934,1141.2012,374.0503,1143.1711,374.0573,1145.1416,374.1595,1147.11,373.951" style="stroke: #FFFFFF; stroke-width: 2.0;"/><!--link RequirementsActivity to PrioritizeUseCases--><path d="M948,333.752 L948.0934,333.752 L947.8159,341.8048 L948.0859,349.8576 L948.1776,357.9104 L947.6829,365.9632 L948,374.016 " fill="none" style="stroke: #FFFFFF; stroke-width: 2.0;"/><polygon fill="none" points="941,333.291,941.0661,333.3142,942.2696,329.2452,943.8608,325.3119,945.3257,321.3344,946.3756,317.2117,948,313.29,947.9755,313.2815,949.2658,317.2431,950.6793,321.2478,952.1786,325.2825,953.3825,329.2139,955,333.29,955,333.4746,952.2,333.0801,949.4,333.2245,946.6,333.4346,943.8,333.2622,941,333.291" style="stroke: #FFFFFF; stroke-width: 2.0;"/><!--link PrioritizeUseCases to UseCaseModel--><path d="M823.938,424.582 L823.988,424.8578 L814.0102,425.8211 L804.3256,428.4009 L794.5455,430.4543 L784.4514,430.7766 L774.7735,433.3932 L764.8613,434.7183 L755.0423,436.5573 L745.2881,438.7536 L735.3106,439.7186 L725.7777,443.1346 L715.6668,443.364 L705.9405,445.7141 L696.2611,448.3229 L686.3087,449.4263 L676.5161,451.411 L666.6631,453.0621 L656.8839,455.1209 L647.0692,456.983 L637.3224,459.2203 L627.5135,461.1149 L617.6863,462.9083 L607.756,464.1339 L597.9765,466.1906 L588.2041,468.2863 L578.0362,468.2015 L568.54,471.8205 L558.4788,472.324 L548.8472,475.1959 L538.7732,475.6288 L529.0455,477.971 L519.409,480.8164 L509.3918,481.5621 L499.5992,483.5469 L489.8255,485.6356 L480.0148,487.52 L470.0856,488.7515 L460.3257,490.916 L450.2919,491.5709 L440.6666,494.4776 L430.9001,496.6063 L421.0463,498.2529 L411.2571,500.2566 L401.1671,500.6012 L391.2977,502.162 L381.4758,503.985 L371.7804,506.5056 L361.9185,508.1076 L352.2982,511.0421 L342.2653,511.7016 L332.396,513.2633 L322.7027,515.7955 L312.6605,516.4038 L302.99,519.0612 " fill="none" style="stroke: #FFFFFF; stroke-width: 2.0;"/><polygon fill="#FFFFFF" points="297.672,520.0255,297.6886,520.0936,299.5531,520.3576,301.5148,521.0206,303.4449,521.5537,305.2709,521.6595,307.241,522.3568,307.2262,522.3355,306.2302,521.5954,305.3085,520.9627,304.4386,520.4045,303.3904,519.5892,302.5919,519.1341,302.7436,519.2392,303.0638,518.0846,303.8268,517.2369,304.6439,516.4267,305.1466,515.3985,305.8146,514.485,305.8274,514.5038,304.1801,515.5843,302.5911,516.7504,300.9739,517.8752,299.4104,519.0788,297.672,520.0255" style="stroke: #FFFFFF; stroke-width: 2.0;"/><text fill="#FFFFFF" font-family="courier" font-size="20" lengthAdjust="spacingAndGlyphs" textLength="24" x="625" y="482.1895">in</text><!--link PrioritizeUseCases to SupplementaryRequirements--><path d="M866.327,428.159 L866.4122,428.426 L856.7238,430.6454 L847.535,434.4297 L838.1835,437.7044 L828.2969,439.3032 L819.1195,443.1232 L809.5428,445.6928 L800.1251,448.76 L790.8178,452.1731 L781.1298,454.3941 L772.1995,458.9881 L762.2842,460.4969 L753.0244,464.0588 L743.8446,467.8713 L734.1994,470.2262 L724.8267,473.4345 L715.3508,476.3198 L706.001,479.5997 L696.5904,482.6893 L687.2957,486.142 L677.8951,489.263 L668.4633,492.286 L658.8559,494.7593 L649.5054,498.0373 L640.167,501.353 L630.1545,502.5576 L621.287,507.348 L611.4564,509.1222 L602.3579,513.1894 L592.5054,514.8952 L583.271,518.5365 " fill="none" style="stroke: #FFFFFF; stroke-width: 2.0;"/><polygon fill="#FFFFFF" points="578.445,520.0773,578.4526,520.147,580.388,520.1544,582.3682,520.5701,584.3337,520.8529,586.2514,520.6984,588.2354,521.1491,588.2235,521.1261,587.1647,520.5042,586.1658,519.9982,585.2085,519.573,584.1078,518.8698,583.2079,518.5559,583.3719,518.6405,583.5398,517.4541,584.1866,516.5147,584.8918,515.6055,585.2571,514.5209,585.8011,513.5285,585.8162,513.5455,584.3228,514.8303,582.8982,516.1925,581.4405,517.5173,580.046,518.9134,578.445,520.0773" style="stroke: #FFFFFF; stroke-width: 2.0;"/><text fill="#FFFFFF" font-family="courier" font-size="20" lengthAdjust="spacingAndGlyphs" textLength="24" x="765" y="482.1895">in</text><!--link PrioritizeUseCases to Glossary--><path d="M911.057,428.159 L911.2186,428.388 L902.3627,433.62 L894.4542,440.1942 L886.2371,446.3314 L877.0055,451.0312 L869.1186,457.636 L860.4747,463.1684 L852.132,469.1275 L843.9987,475.3833 L835.1438,480.6168 L827.7254,487.8853 L818.4393,492.508 L810.3961,498.8914 L802.5046,505.4897 L793.7308,510.8381 L785.421,516.8438 " fill="none" style="stroke: #FFFFFF; stroke-width: 2.0;"/><polygon fill="#FFFFFF" points="781.012,519.9558,781.0257,520.0245,782.917,519.4361,784.8884,519.2505,786.8338,518.9337,788.6933,518.1855,790.6716,518.0345,790.6672,518.0089,789.5326,517.702,788.4201,517.5238,787.3231,517.4351,786.1728,517.038,785.0971,517.0728,785.279,517.1042,785.0824,515.9222,785.4168,514.8318,785.816,513.7526,785.8383,512.6083,786.0588,511.4983,786.0783,511.5099,785.0403,513.1843,784.0912,514.9118,783.0992,516.6137,782.189,518.3644,781.012,519.9558" style="stroke: #FFFFFF; stroke-width: 2.0;"/><text fill="#FFFFFF" font-family="courier" font-size="20" lengthAdjust="spacingAndGlyphs" textLength="24" x="867" y="482.1895">in</text><!--link PrioritizeUseCases to ArchitectureDescription--><path d="M985.124,428.159 L985.2851,428.3884 L993.2235,433.6193 L1002.1063,440.1946 L1010.6815,446.3321 L1018.2455,451.0299 L1027.1498,457.6358 L1035.2995,463.1676 L1043.7496,469.1268 L1052.4083,475.3832 L1060.3477,480.6156 L1069.719,487.8863 L1077.2287,492.5069 L1085.9772,498.8911 L1094.8769,505.4905 L1102.8972,510.8379 L1111.38,516.8438 " fill="none" style="stroke: #FFFFFF; stroke-width: 2.0;"/><polygon fill="#FFFFFF" points="1115.81,519.9558,1115.8701,519.9919,1114.6778,518.1959,1113.8376,516.6113,1112.8828,514.9579,1111.5508,513.0781,1110.7409,511.5116,1110.7154,511.5072,1110.7961,512.6015,1111.0055,513.7184,1111.3044,514.8509,1111.295,515.9294,1111.7173,517.0836,1111.7491,517.2654,1110.5666,517.0719,1109.4771,517.4092,1108.399,517.8113,1107.2548,517.8365,1106.1453,518.06,1106.1497,518.0823,1108.0762,518.4287,1110.0227,518.8767,1111.9595,519.2757,1113.9146,519.7682,1115.81,519.9558" style="stroke: #FFFFFF; stroke-width: 2.0;"/><text fill="#FFFFFF" font-family="courier" font-size="20" lengthAdjust="spacingAndGlyphs" textLength="36" x="1071" y="482.1895">out</text><!--link PrioritizeUseCases to Architect--><path d="M1013.97,428.149 L1014.0013,428.237 L1017.5282,429.2623 L1021.2385,430.8035 L1024.8891,432.1767 L1028.3433,432.9973 L1032.0694,434.5828 L1032.0584,434.55 L1035.7813,435.6658 L1039.5595,436.9467 L1043.3761,438.3424 L1047.0603,439.3425 L1050.93,440.8967 L1051.0028,441.1317 L1054.6748,441.8137 L1058.5593,443.182 L1062.4696,444.634 L1066.2292,445.5989 L1070.0681,446.82 L1070.0762,446.8492 L1073.8507,447.8587 L1077.6621,449.0012 L1081.4557,450.0796 L1085.2833,451.2804 L1089,452.082 L1089.0731,452.3712 L1092.3071,453.1925 L1095.4938,453.8273 L1098.7496,454.7351 L1102.0086,455.6557 L1105.1651,456.1709 L1105.0904,455.8592 L1108.3312,457.2067 L1111.326,457.5278 L1114.5078,458.6291 L1117.497,458.9269 L1120.6441,459.8834 L1120.6374,459.8537 L1123.6847,460.877 L1126.5748,461.2066 L1129.5576,461.9456 L1132.5483,462.7189 L1135.4828,463.2443 L1135.5213,463.4253 L1138.3312,463.8495 L1141.207,464.583 L1143.9762,464.8162 L1146.9044,465.7955 L1149.7268,466.2788 L1149.7745,466.5177 L1152.5046,467.0191 L1155.2583,467.6392 L1157.902,467.708 L1160.6263,468.1809 L1163.4221,469.0117 L1163.3715,468.7402 L1166.0558,469.4773 L1168.683,469.9084 L1171.3929,470.7833 L1173.9617,470.9005 L1176.6143,471.4681 L1176.5883,471.3179 L1179.1786,472.009 L1181.6578,472.058 L1184.216,472.5636 L1186.8515,473.5161 L1189.3493,473.6729 L1189.38,473.8641 L1191.8658,474.3909 L1194.256,474.323 L1196.7659,474.9999 L1199.2497,475.5146 L1201.6728,475.6511 L1201.6431,475.4433 L1206.3859,476.2842 L1211.119,477.0571 L1215.8712,477.9637 L1220.549,478.3504 L1225.2684,479.0276 L1225.2936,479.2316 L1229.7381,479.3372 L1234.2312,479.8367 L1238.7952,480.9116 L1243.2287,480.9271 L1247.7674,481.7973 L1247.7918,482.0222 L1252.131,482.3612 L1256.4619,482.6241 L1260.8115,483.0587 L1265.2042,483.8903 L1269.5358,484.1602 L1269.5225,484.0278 L1273.843,484.8531 L1278.0729,484.778 L1282.4058,485.7267 L1286.6807,486.0989 L1290.94,486.3159 L1290.9509,486.4242 L1295.2233,486.7665 L1299.5347,487.4966 L1303.8109,487.8763 L1308.0723,488.1095 L1312.346,488.4643 L1312.3588,488.5829 L1316.6947,488.875 L1321.0897,489.7173 L1325.4178,489.9373 L1329.7735,490.4133 L1334.1201,490.8053 L1334.0875,490.5369 L1338.6001,491.1731 L1343.1519,492.1327 L1347.6481,492.6348 L1352.1245,492.9729 L1356.6284,493.5385 L1356.6085,493.3967 L1361.3366,494.1072 L1366.0294,494.5666 L1370.8194,495.7162 L1375.5613,496.5242 L1380.2372,496.8638 L1380.2737,497.0949 L1382.7517,497.5583 L1385.1603,497.5826 L1387.6421,498.0704 L1390.0755,498.2513 L1392.5686,498.8109 L1392.5898,498.9354 L1395.1358,499.3531 L1397.7074,499.921 L1400.1978,500.0124 L1402.7537,500.4881 L1405.3125,500.981 L1405.348,501.1749 L1407.9984,501.7126 L1410.5523,501.7241 L1413.2183,502.347 L1415.8862,502.9807 L1418.5146,503.399 L1418.4623,503.1326 L1421.2861,504.0913 L1424.0191,504.5879 L1426.7296,504.9696 L1429.4916,505.6138 L1432.2207,506.0899 L1432.2871,506.4069 L1435.0433,506.5516 L1437.9517,507.4224 L1440.8002,508.0074 L1443.6359,508.5313 L1446.4765,509.0787 L1446.4901,509.1398 L1449.4577,509.7902 L1452.3566,510.1326 L1455.3485,510.8918 L1458.3129,511.5278 L1461.3278,512.3903 L1461.3343,512.4179 L1464.4353,513.1603 L1467.5413,513.9241 L1470.5936,514.4601 L1473.7149,515.2887 L1476.8203,516.0498 L1476.8074,515.9979 L1480.1183,517.105 L1483.3381,517.8466 L1486.476,518.2597 L1489.7562,519.2441 L1493,520.082 L1492.9317,519.8347 L1495.3801,520.8534 L1497.764,521.6383 L1500.1024,522.2587 L1502.3325,522.4866 L1504.73,523.3209 " fill="none" style="stroke: #FFFFFF; stroke-width: 2.0;"/><polygon fill="#FFFFFF" points="1509.74,524.8297,1509.7857,524.8828,1508.1573,523.4397,1506.7969,522.3078,1505.3492,521.0745,1503.6145,519.508,1502.2771,518.4028,1502.2543,518.3906,1502.687,519.3324,1503.2347,520.336,1503.8624,521.3825,1504.2145,522.2811,1504.9527,523.3869,1505.04,523.5495,1503.8565,523.7369,1502.9279,524.3991,1502.0303,525.1191,1500.9519,525.5022,1499.9686,526.0625,1499.9714,526.0851,1501.9215,525.8054,1503.8846,525.6284,1505.8414,525.4019,1507.8102,525.27,1509.74,524.8297" style="stroke: #FFFFFF; stroke-width: 2.0;"/><!--link Role to RequirementsRole--><path d="M1174.37,331.793 L1174.6229,331.9138 L1177.9055,339.9995 L1182.6705,348.7933 L1186.9529,357.3565 L1189.6477,365.1614 L1194.54,374.016 " fill="none" style="stroke: #FFFFFF; stroke-width: 2.0;"/><polygon fill="none" points="1167.83,334.354,1167.8996,334.3617,1167.2307,330.1262,1166.97,325.9355,1166.5764,321.7302,1165.7456,317.4769,1165.52,313.29,1165.5016,313.2718,1168.4072,316.1954,1171.4053,319.2111,1174.4679,322.2908,1177.3086,325.15,1180.46,328.318,1180.5396,328.4845,1177.8434,329.3357,1175.3796,330.673,1172.9441,332.0695,1170.3437,333.121,1167.83,334.354" style="stroke: #FFFFFF; stroke-width: 2.0;"/><!--link RequirementsRole to Architect--><path d="M1323.25,434.145 L1323.2786,434.2339 L1326.9149,435.1686 L1330.719,436.6244 L1334.4685,437.9106 L1338.0382,438.6385 L1341.8567,440.1392 L1341.8456,440.1065 L1345.5342,441.229 L1349.2787,442.5164 L1353.0622,443.9184 L1356.7116,444.9255 L1360.5488,446.4858 L1360.6322,446.7173 L1364.1498,447.5543 L1367.911,449.0673 L1371.7019,450.6627 L1375.3199,451.7783 L1379.0289,453.1463 L1379.0398,453.1746 L1382.618,454.5202 L1386.2459,455.9946 L1389.8498,457.4069 L1393.4995,458.9377 L1397,460.082 L1397.1143,460.3575 L1400.3963,461.7225 L1403.6045,462.9099 L1406.9207,464.3574 L1410.2419,465.817 L1413.4028,466.8904 L1413.2736,466.5971 L1416.838,468.6265 L1419.9768,469.69 L1423.4392,471.4878 L1426.5683,472.5295 L1429.9706,474.1909 L1429.9578,474.1633 L1433.4148,476.0187 L1436.5733,477.2285 L1439.9079,478.8193 L1443.2573,480.4421 L1446.5,481.8341 L1446.5802,482.0008 L1449.7567,483.3999 L1453.0703,485.0838 L1456.1622,486.3069 L1459.5848,488.2174 L1462.7875,489.6708 L1462.896,489.889 L1466.0439,491.4239 L1469.2457,493.0671 L1472.1972,494.2071 L1475.3321,495.716 L1478.6297,497.5517 L1478.5039,497.3059 L1481.6565,499.0836 L1484.6673,500.5842 L1487.8837,502.4867 L1490.7491,503.7032 L1493.8231,505.3274 L1493.7517,505.1927 L1499.396,508.3448 L1504.7351,510.9211 L1510.2912,513.9068 L1516.0597,517.2933 L1521.45,519.9662 " fill="none" style="stroke: #FFFFFF; stroke-width: 2.0;"/><polygon fill="none" points="1320.85,440.73,1320.8915,440.7865,1317.3541,438.1066,1314.0602,435.7575,1310.687,433.3007,1307.0531,430.4897,1303.78,428.169,1303.779,428.1431,1308.0105,427.8626,1312.247,427.7125,1316.4871,427.6531,1320.7151,427.2811,1324.96,427.347,1325.1364,427.4012,1323.9372,429.962,1323.253,432.6809,1322.6316,435.4191,1321.6447,438.045,1320.85,440.73" style="stroke: #FFFFFF; stroke-width: 2.0;"/><text fill="#FFA500" font-family="courier" font-size="15" font-style="italic" lengthAdjust="spacingAndGlyphs" textLength="630" x="507" y="600.1626">Luis Fernández Muñoz - https://www.linkedin.com/in/luisfernandezmunyoz</text><!--
@startuml

skinparam backgroundColor #222222

skinparam default {
    FontSize 20
    FontName courier
    FontStyle normal
    FontColor #white
}
skinparam handwritten true

skinparam shadowing false
skinparam padding 1
skinparam arrow {
    Thickness 2
    Color #white
    FontSize 20
    FontName courier
    FontStyle normal
    FontColor #white
}

skinparam title {
    BorderThickness 5
    BorderColor #orange
    FontSize 30
    FontName arial
    FontStyle bold
    FontColor #orange
 }

skinparam header {
    FontSize 15
    FontName courier
    FontStyle italic
    FontColor #orange
}

skinparam footer {
    FontSize 15
    FontName courier
    FontStyle italic
    FontColor #orange
}

skinparam legend {
    BorderThickness 1
    BorderColor #orange
    backgroundColor #222222
    FontSize 15
    FontName courier
    FontStyle italic
    FontColor #orange
}

skinparam package {
    BorderThickness 3
    BorderColor #white
    BackgroundColor #222222
    FontSize 20
    FontName courier
    FontStyle bold
}

skinparam class {
    BorderThickness 3
    BorderColor #white
    BackgroundColor #222222
    FontSize 20
    FontName courier
    FontStyle bold
    FontColor #white
}

skinparam classAttribute {
    FontSize 15
    FontName courier
    FontStyle normal
    FontColor #white
}

hide circle
hide stereotype

header Universo Santa Tecla - USantaTecla@gmail.com
footer Luis Fernández Muñoz - https://www.linkedin.com/in/luisfernandezmunyoz

skinparam class {
    BorderColor<<artifacts>> #red
    BorderColor<<activities>> #green
    BorderColor<<team>> #blue
    FontColor<<artifacts>> #red
    FontColor<<activities>> #green
    FontColor<<team>> #blue
}

skinparam package {
    BorderColor<<artifacts>> #red
    BorderColor<<activities>> #green
    BorderColor<<team>> #blue
    FontColor<<artifacts>> #red
    FontColor<<activities>> #green
    FontColor<<team>> #blue
}

skinparam classAttribute {
    FontColor<<artifacts>> #red
    FontColor<<activities>> #green
    FontColor<<team>> #blue
}

title Priorize Use Case

package activities <<activities>> {
class Activity <<activities>>
class RequirementsActivity <<activities>>
class "Prioritize Use cases" as PrioritizeUseCases <<activities>>
}

class "Use Case Model (outline)" as UseCaseModel #green
class "Supplementary Requirements" as SupplementaryRequirements #green
class Glossary #green
class "Architecture Description (View of the Use Case Model)" as ArchitectureDescription #green
class Role #blue
class RequirementsRole #blue
class Architect #blue

Activity <|- - RequirementsActivity
Activity - -> Role


RequirementsActivity - -> RequirementsRole

RequirementsActivity <|- - PrioritizeUseCases

PrioritizeUseCases - -> UseCaseModel :in
PrioritizeUseCases - -> SupplementaryRequirements :in
PrioritizeUseCases - -> Glossary :in
PrioritizeUseCases - -> ArchitectureDescription :out

PrioritizeUseCases - -> Architect

Role <|- - RequirementsRole
RequirementsRole <|- - Architect
@enduml

PlantUML version 1.2019.05(Sat Apr 20 18:45:36 CEST 2019)
(GPL source distribution)
Java Runtime: OpenJDK Runtime Environment
JVM: OpenJDK 64-Bit Server VM
Java Version: 1.8.0_222-b10
Operating System: Windows 10
OS Version: 10.0
Default Encoding: windows-1252
Language: es
Country: ES
--></g></svg>