<?xml version="1.0" encoding="UTF-8" standalone="no"?><svg xmlns="http://www.w3.org/2000/svg" xmlns:xlink="http://www.w3.org/1999/xlink" contentScriptType="application/ecmascript" contentStyleType="text/css" height="1153px" preserveAspectRatio="none" style="width:717px;height:1153px;background:#222222;" version="1.1" viewBox="0 0 717 1153" width="717px" zoomAndPan="magnify"><defs/><g><text fill="#FFA500" font-family="courier" font-size="15" font-style="italic" lengthAdjust="spacingAndGlyphs" textLength="396" x="309" y="16.0806">Universo Santa Tecla - USantaTecla@gmail.com</text><polygon fill="none" points="167,23.585,167,23.7951,177.027,23.1706,187.0541,23.7782,197.0811,23.9846,207.1081,22.8716,217.1351,23.5072,227.1622,23.1585,237.1892,23.2015,247.2162,23.5168,257.2432,22.8936,267.2703,24.1386,277.2973,22.9547,287.3243,23.3872,297.3514,24.0169,307.3784,23.4992,317.4054,23.6532,327.4324,23.553,337.4595,23.7635,347.4865,23.8241,357.5135,24.1707,367.5405,24.256,377.5676,24.2642,387.5946,23.8396,397.6216,24.0485,407.6486,24.2872,417.6757,22.8638,427.7027,24.2635,437.7297,23.2885,447.7568,24.1188,457.7838,23.0899,467.8108,23.5165,477.8378,24.3266,487.8649,23.5362,497.8919,23.6903,507.9189,23.9236,517.9459,24.0012,527.973,23.5811,538,23.585,538.2872,23.585,537.4276,32.8844,538.2844,42.1838,538.5482,51.4832,538.4445,60.7826,538,70.082,538,70.6951,527.973,69.599,517.9459,69.4298,507.9189,69.4606,497.8919,70.0232,487.8649,69.8855,477.8378,70.7634,467.8108,69.9074,457.7838,69.739,447.7568,70.3103,437.7297,69.4152,427.7027,69.5629,417.6757,70.731,407.6486,70.5177,397.6216,70.8165,387.5946,69.7602,377.5676,70.4012,367.5405,70.6725,357.5135,69.6096,347.4865,69.9862,337.4595,70.208,327.4324,70.7338,317.4054,70.0778,307.3784,70.5446,297.3514,69.5282,287.3243,69.4048,277.2973,70.5856,267.2703,69.3651,257.2432,70.591,247.2162,70.2887,237.1892,69.8141,227.1622,69.7283,217.1351,70.5408,207.1081,69.7827,197.0811,70.6739,187.0541,69.5293,177.027,70.6995,167,70.082,167.4843,70.082,167.245,60.7826,167.0472,51.4832,167.7266,42.1838,167.6136,32.8844,167,23.585" style="stroke: #FFA500; stroke-width: 5.0;"/><text fill="#FFA500" font-family="arial" font-size="30" font-weight="bold" lengthAdjust="spacingAndGlyphs" textLength="353" x="176" y="57.7246">Process Unified Process</text><!--cluster scope--><polygon fill="#222222" points="101,643.582,101,643.7922,110.7143,643.1677,120.4286,643.7753,130.1429,643.9817,139.8571,642.8686,149.5714,643.5043,159.2857,643.1555,169,643.582,168.8748,643.5563,170.3777,650.4001,171.5742,657.181,173.3808,664.0871,174.3942,670.8304,176,677.6953,176,677.4975,185.7,678.1273,195.4,677.6095,205.1,677.7636,214.8,677.6634,224.5,677.8738,234.2,677.9344,243.9,678.281,253.6,678.3664,263.3,678.3746,273,677.6953,273.2546,677.6953,273.4636,687.622,273.7022,697.5487,272.2788,707.4753,273.6785,717.402,272.7035,727.3287,273.5338,737.2553,272.505,747.182,272.9315,757.1087,273.7416,767.0353,272.9513,776.962,273.1053,786.8887,273.3386,796.8153,273.4162,806.742,272.9961,816.6687,273.2872,826.5953,272.4276,836.522,273.2844,846.4487,273.5482,856.3754,273.4445,866.302,273.613,876.2287,272.5169,886.1554,273,896.082,273,895.4298,262.8824,895.4606,252.7647,896.0232,242.6471,895.8855,232.5294,896.7634,222.4118,895.9074,212.2941,895.739,202.1765,896.3103,192.0588,895.4152,181.9412,895.5629,171.8235,896.731,161.7059,896.5177,151.5882,896.8165,141.4706,895.7602,131.3529,896.4012,121.2353,896.6725,111.1176,895.6096,101,896.082,100.9041,896.082,101.126,885.982,101.6518,875.882,100.9958,865.782,101.4626,855.682,100.4462,845.582,100.3227,835.482,101.5036,825.382,100.2831,815.282,101.509,805.182,101.2066,795.082,100.7321,784.982,100.6462,774.882,101.4588,764.782,100.7007,754.682,101.5919,744.582,100.4473,734.482,101.6174,724.382,101.4843,714.282,101.245,704.182,101.0472,694.082,101.7266,683.982,101.6136,673.882,101.1693,663.782,101.2682,653.682,101,643.582" style="stroke: #FF0000; stroke-width: 3.0;"/><path d="M101,677.6953 L101,677.9756 L110.375,677.1429 L119.75,677.953 L129.125,678.2282 L138.5,676.7441 L147.875,677.5917 L157.25,677.1267 L166.625,677.184 L176,677.6953 " fill="#222222" style="stroke: #FF0000; stroke-width: 3.0;"/><text fill="#FF0000" font-family="courier" font-size="20" font-weight="bold" lengthAdjust="spacingAndGlyphs" textLength="60" x="106" y="666.6895">scope</text><!--cluster time--><polygon fill="#222222" points="297,194.082,297,194.2922,306.3333,193.6677,315.6667,194.2753,325,194.4817,334.3333,193.3686,343.6667,194.0043,353,194.082,352.8607,194.0535,354.2748,200.879,355.7777,207.7228,356.9742,214.5037,358.7808,221.4098,360,228.1953,360,227.565,369.7,227.9975,379.4,228.6273,389.1,228.1095,398.8,228.2636,408.5,228.1634,418.2,228.3738,427.9,228.4344,437.6,228.781,447.3,228.8664,457,228.1953,457.6793,228.1953,457.2546,238.266,457.4636,248.3366,457.7022,258.4073,456.2788,268.478,457.6785,278.5487,456.7035,288.6193,457.5338,298.69,456.505,308.7607,456.9315,318.8313,457.7416,328.902,456.9513,338.9727,457.1053,349.0433,457.3386,359.114,457.4162,369.1847,456.9961,379.2553,457.2872,389.326,456.4276,399.3967,457.2844,409.4673,457.5482,419.538,457.4445,429.6087,457.613,439.6793,456.5169,449.75,456.3478,459.8207,456.3786,469.8913,456.9411,479.962,456.8035,490.0327,457.6814,500.1033,456.8253,510.174,456.6569,520.2447,457.2283,530.3153,456.3332,540.386,456.4809,550.4567,457.649,560.5273,457.4357,570.598,457.7345,580.6687,456.6782,590.7393,457.3192,600.81,457.5904,610.8807,456.5276,620.9513,456.9041,631.022,457.126,641.0927,457.6518,651.1634,456.9958,661.234,457.4626,671.3047,456.4462,681.3754,456.3227,691.446,457.5036,701.5167,456.2831,711.5874,457.509,721.658,457.2066,731.7287,456.7321,741.7994,456.6462,751.87,457.4588,761.9407,456.7007,772.0114,457,782.082,457,782.6739,447,781.5293,437,782.6995,427,782.5663,417,782.327,407,782.1293,397,782.8086,387,782.6956,377,782.2513,367,782.3502,357,781.9518,347,782.7985,337,782.2369,327,782.2546,317,781.4737,307,781.6768,297,782.082,297.5307,782.082,297.4298,772.1159,296.9571,762.1498,296.6778,752.1837,296.7811,742.2176,296.3138,732.2515,297.4147,722.2854,297.7396,712.3193,297.5264,702.3532,297.6949,692.3871,296.8633,682.421,297.0872,672.4549,296.6124,662.4888,297.284,652.5227,297.2468,642.5566,297.5524,632.5905,296.7703,622.6244,296.8656,612.6583,297.4435,602.6922,297.5673,592.7261,296.4875,582.76,296.8061,572.7939,297.1493,562.8278,296.3892,552.8617,297.3534,542.8956,297.258,532.9295,296.8992,522.9634,297.1422,512.9973,297.7287,503.0312,296.6871,493.0651,297.315,483.099,297.2856,473.1329,297.1158,463.1668,297.1409,453.2007,297.1135,443.2346,296.3758,433.2685,296.5992,423.3024,296.5385,413.3363,297.0638,403.3702,297.0881,393.4041,297.1617,383.438,296.709,373.4719,296.9325,363.5058,296.8798,353.5397,297.5769,343.5736,297.4266,333.6075,296.5145,323.6414,296.9271,313.6753,296.4228,303.7091,297.2884,293.743,297.6085,283.7769,297.5446,273.8108,296.5644,263.8447,297.464,253.8786,296.2572,243.9125,297.2002,233.9464,296.7007,223.9803,297.0967,214.0142,297.2403,204.0481,297,194.082" style="stroke: #008000; stroke-width: 3.0;"/><path d="M297,228.1953 L297,228.4756 L307.5,227.6429 L318,228.453 L328.5,228.7282 L339,227.2441 L349.5,228.0917 L360,228.1953 " fill="#222222" style="stroke: #008000; stroke-width: 3.0;"/><text fill="#008000" font-family="courier" font-size="20" font-weight="bold" lengthAdjust="spacingAndGlyphs" textLength="48" x="302" y="217.1895">time</text><!--cluster costs--><polygon fill="#222222" points="481,643.582,481,643.7922,490.7143,643.1677,500.4286,643.7753,510.1429,643.9817,519.8571,642.8686,529.5714,643.5043,539.2857,643.1555,549,643.582,548.8748,643.5563,550.3777,650.4001,551.5742,657.181,553.3808,664.0871,554.3942,670.8304,556,677.6953,556,677.6294,563.4,677.8393,570.8,677.6667,578.2,677.7181,585.6,677.6847,593,677.6953,593.1785,677.6953,593.2391,687.7676,593.5857,697.84,593.6711,707.9123,593.6793,717.9846,593.2546,728.0569,593.4636,738.1293,593.7022,748.2016,592.2788,758.2739,593.6785,768.3462,592.7035,778.4186,593.5338,788.4909,592.505,798.5632,592.9315,808.6355,593.7416,818.7079,592.9513,828.7802,593.1053,838.8525,593.3386,848.9248,593.4162,858.9972,592.9961,869.0695,593.2872,879.1418,592.4276,889.2141,593.2844,899.2865,593.5482,909.3588,593.4445,919.4311,593.613,929.5034,592.5169,939.5758,592.3478,949.6481,592.3786,959.7204,592.9411,969.7927,592.8035,979.8651,593.6814,989.9374,592.8253,1000.0097,593,1010.082,593,1009.739,582.8182,1010.3103,572.6364,1009.4152,562.4545,1009.5629,552.2727,1010.731,542.0909,1010.5177,531.9091,1010.8165,521.7273,1009.7602,511.5455,1010.4012,501.3636,1010.6725,491.1818,1009.6096,481,1010.082,480.9041,1010.082,481.126,1000.1766,481.6518,990.2712,480.9958,980.3658,481.4626,970.4604,480.4462,960.555,480.3227,950.6496,481.5036,940.7442,480.2831,930.8388,481.509,920.9334,481.2066,911.028,480.7321,901.1226,480.6462,891.2172,481.4588,881.3118,480.7007,871.4064,481.5919,861.501,480.4473,851.5955,481.6174,841.6901,481.4843,831.7847,481.245,821.8793,481.0472,811.9739,481.7266,802.0685,481.6136,792.1631,481.1693,782.2577,481.2682,772.3523,480.8697,762.4469,481.7165,752.5415,481.1549,742.6361,481.1726,732.7307,480.3916,722.8253,480.5948,712.9199,481.5307,703.0145,481.4298,693.1091,480.9571,683.2037,480.6778,673.2982,480.7811,663.3928,480.3138,653.4874,481,643.582" style="stroke: #0000FF; stroke-width: 3.0;"/><path d="M481,677.6953 L481,677.9756 L490.375,677.1429 L499.75,677.953 L509.125,678.2282 L518.5,676.7441 L527.875,677.5917 L537.25,677.1267 L546.625,677.184 L556,677.6953 " fill="#222222" style="stroke: #0000FF; stroke-width: 3.0;"/><text fill="#0000FF" font-family="courier" font-size="20" font-weight="bold" lengthAdjust="spacingAndGlyphs" textLength="60" x="486" y="666.6895">costs</text><!--class Requieremts--><polygon fill="#222222" points="117,690.582,117,690.7922,127,690.1677,137,690.7753,147,690.9817,157,689.8686,167,690.5043,177,690.1555,187,690.1985,197,690.5139,207,689.8907,217,691.1357,227,689.9518,237,690.3843,247,691.014,257,690.582,256.9142,690.582,257.0682,701.4047,256.9681,712.2273,257.1785,723.05,257.2391,733.8727,257,744.6953,257,745.281,247,745.3664,237,745.3746,227,744.9499,217,745.1589,207,745.3975,197,743.9741,187,745.3738,177,744.3988,167,745.2291,157,744.2003,147,744.6268,137,745.4369,127,744.6466,117,744.6953,117.1053,744.6953,117.3386,733.8727,117.4162,723.05,116.9961,712.2273,117.2872,701.4047,117,690.582" style="stroke: #FF0000; stroke-width: 3.0;"/><text fill="#FF0000" font-family="courier" font-size="20" font-weight="bold" lengthAdjust="spacingAndGlyphs" textLength="132" x="121" y="716.6895">Requieremts</text><path d="M118,728.6953 L118,728.9756 L127.8571,728.1429 L137.7143,728.953 L147.5714,729.2282 L157.4286,727.7441 L167.2857,728.5917 L177.1429,728.1267 L187,728.184 L196.8571,728.6044 L206.7143,727.7735 L216.5714,729.4335 L226.4286,727.8549 L236.2857,728.4316 L246.1429,729.2712 L256,728.6953 " fill="#222222" style="stroke: #FF0000; stroke-width: 3.0;"/><path d="M118,736.6953 L118,736.9756 L127.8571,736.1429 L137.7143,736.953 L147.5714,737.2282 L157.4286,735.7441 L167.2857,736.5917 L177.1429,736.1267 L187,736.184 L196.8571,736.6044 L206.7143,735.7735 L216.5714,737.4335 L226.4286,735.8549 L236.2857,736.4316 L246.1429,737.2712 L256,736.6953 " fill="#222222" style="stroke: #FF0000; stroke-width: 3.0;"/><!--class UseCase--><polygon fill="#222222" points="153,826.082,153,826.2922,163.2222,825.6677,173.4444,826.2753,183.6667,826.4817,193.8889,825.3686,204.1111,826.0043,214.3333,825.6555,224.5556,825.6985,234.7778,826.0139,245,826.082,244.3086,826.082,245.5536,836.9047,244.3697,847.7273,244.8022,858.55,245.4319,869.3727,245,880.1953,245,880.1095,234.7778,880.2636,224.5556,880.1634,214.3333,880.3738,204.1111,880.4344,193.8889,880.781,183.6667,880.8664,173.4444,880.8746,163.2222,880.4499,153,880.1953,153.4636,880.1953,153.7022,869.3727,152.2788,858.55,153.6785,847.7273,152.7035,836.9047,153,826.082" style="stroke: #FF0000; stroke-width: 3.0;"/><text fill="#FF0000" font-family="courier" font-size="20" font-weight="bold" lengthAdjust="spacingAndGlyphs" textLength="84" x="157" y="852.1895">UseCase</text><path d="M154,864.1953 L154,864.4756 L164,863.6429 L174,864.453 L184,864.7282 L194,863.2441 L204,864.0917 L214,863.6267 L224,863.684 L234,864.1044 L244,864.1953 " fill="#222222" style="stroke: #FF0000; stroke-width: 3.0;"/><path d="M154,872.1953 L154,872.4756 L164,871.6429 L174,872.453 L184,872.7282 L194,871.2441 L204,872.0917 L214,871.6267 L224,871.684 L234,872.1044 L244,872.1953 " fill="#222222" style="stroke: #FF0000; stroke-width: 3.0;"/><!--class Fase--><polygon fill="#222222" points="320.5,241.082,320.5,241.2922,330.7727,240.6677,341.0455,241.2753,351.3182,241.4817,361.5909,240.3686,371.8636,241.0043,382.1364,240.6555,392.4091,240.6985,402.6818,241.0139,412.9545,240.3907,423.2273,241.6357,433.5,241.082,432.8697,241.082,433.3022,250.8104,433.9319,260.5387,433.4142,270.267,433.5682,279.9953,433.4681,289.7236,433.6785,299.452,433.7391,309.1803,434.0857,318.9086,434.1711,328.6369,433.5,338.3652,433.5,339.0445,423.2273,338.6199,412.9545,338.8288,402.6818,339.0675,392.4091,337.644,382.1364,339.0437,371.8636,338.0687,361.5909,338.899,351.3182,337.8702,341.0455,338.2967,330.7727,339.1068,320.5,338.3652,320.4513,338.3652,320.6053,328.6369,320.8386,318.9086,320.9162,309.1803,320.4961,299.452,320.7872,289.7236,319.9276,279.9953,320.7844,270.267,321.0482,260.5387,320.9445,250.8104,320.5,241.082" style="stroke: #008000; stroke-width: 3.0;"/><text fill="#008000" font-family="courier" font-size="20" font-weight="bold" lengthAdjust="spacingAndGlyphs" textLength="48" x="353" y="267.1895">Fase</text><path d="M321.5,279.1953 L321.5,279.4756 L331.5909,278.6429 L341.6818,279.453 L351.7727,279.7282 L361.8636,278.2441 L371.9545,279.0917 L382.0455,278.6267 L392.1364,278.684 L402.2273,279.1044 L412.3182,278.2735 L422.4091,279.9335 L432.5,279.1953 " fill="#222222" style="stroke: #008000; stroke-width: 3.0;"/><text fill="#008000" font-family="courier" font-size="15" lengthAdjust="spacingAndGlyphs" textLength="99" x="327.5" y="299.2759">start: Date</text><text fill="#008000" font-family="courier" font-size="15" lengthAdjust="spacingAndGlyphs" textLength="81" x="327.5" y="320.8608">end: Date</text><path d="M321.5,330.3652 L321.5,330.6455 L331.5909,329.8128 L341.6818,330.6229 L351.7727,330.8981 L361.8636,329.414 L371.9545,330.2616 L382.0455,329.7966 L392.1364,329.8539 L402.2273,330.2744 L412.3182,329.4434 L422.4091,331.1034 L432.5,330.3652 " fill="#222222" style="stroke: #008000; stroke-width: 3.0;"/><!--class Iteration--><polygon fill="#222222" points="319,398.082,319,398.2922,328.6667,397.6677,338.3333,398.2753,348,398.4817,357.6667,397.3686,367.3333,398.0043,377,397.6555,386.6667,397.6985,396.3333,398.0139,406,397.3907,415.6667,398.6357,425.3333,397.4518,435,398.082,434.8022,398.082,435.4319,407.8104,434.9142,417.5387,435.0682,427.267,434.9681,436.9953,435.1785,446.7236,435.2391,456.452,435.5857,466.1803,435.6711,475.9086,435.6793,485.6369,435,495.3652,435,495.6199,425.3333,495.8288,415.6667,496.0675,406,494.644,396.3333,496.0437,386.6667,495.0687,377,495.899,367.3333,494.8702,357.6667,495.2967,348,496.1068,338.3333,495.3165,328.6667,495.4705,319,495.3652,319.3386,495.3652,319.4162,485.6369,318.9961,475.9086,319.2872,466.1803,318.4276,456.452,319.2844,446.7236,319.5482,436.9953,319.4445,427.267,319.613,417.5387,318.5169,407.8104,319,398.082" style="stroke: #008000; stroke-width: 3.0;"/><text fill="#008000" font-family="courier" font-size="20" font-weight="bold" lengthAdjust="spacingAndGlyphs" textLength="108" x="323" y="424.1895">Iteration</text><path d="M320,436.1953 L320,436.4756 L330.3636,435.6429 L340.7273,436.453 L351.0909,436.7282 L361.4545,435.2441 L371.8182,436.0917 L382.1818,435.6267 L392.5455,435.684 L402.9091,436.1044 L413.2727,435.2735 L423.6364,436.9335 L434,436.1953 " fill="#222222" style="stroke: #008000; stroke-width: 3.0;"/><text fill="#008000" font-family="courier" font-size="15" lengthAdjust="spacingAndGlyphs" textLength="99" x="326" y="456.2759">start: Date</text><text fill="#008000" font-family="courier" font-size="15" lengthAdjust="spacingAndGlyphs" textLength="81" x="326" y="477.8608">end: Date</text><path d="M320,487.3652 L320,487.6455 L330.3636,486.8128 L340.7273,487.6229 L351.0909,487.8981 L361.4545,486.414 L371.8182,487.2616 L382.1818,486.7966 L392.5455,486.8539 L402.9091,487.2744 L413.2727,486.4434 L423.6364,488.1034 L434,487.3652 " fill="#222222" style="stroke: #008000; stroke-width: 3.0;"/><!--class Discipline--><polygon fill="#222222" points="313,555.082,313,555.2922,322.8462,554.6677,332.6923,555.2753,342.5385,555.4817,352.3846,554.3686,362.2308,555.0043,372.0769,554.6555,381.9231,554.6985,391.7692,555.0139,401.6154,554.3907,411.4615,555.6357,421.3077,554.4518,431.1538,554.8843,441,555.082,441.4319,555.082,440.9142,565.9047,441.0682,576.7273,440.9681,587.55,441.1785,598.3727,441,609.1953,441,609.4344,431.1538,609.781,421.3077,609.8664,411.4615,609.8746,401.6154,609.4499,391.7692,609.6589,381.9231,609.8975,372.0769,608.4741,362.2308,609.8738,352.3846,608.8988,342.5385,609.7291,332.6923,608.7003,322.8462,609.1268,313,609.1953,313.7416,609.1953,312.9513,598.3727,313.1053,587.55,313.3386,576.7273,313.4162,565.9047,313,555.082" style="stroke: #008000; stroke-width: 3.0;"/><text fill="#008000" font-family="courier" font-size="20" font-weight="bold" lengthAdjust="spacingAndGlyphs" textLength="120" x="317" y="581.1895">Discipline</text><path d="M314,593.1953 L314,593.4756 L323.6923,592.6429 L333.3846,593.453 L343.0769,593.7282 L352.7692,592.2441 L362.4615,593.0917 L372.1538,592.6267 L381.8462,592.684 L391.5385,593.1044 L401.2308,592.2735 L410.9231,593.9335 L420.6154,592.3549 L430.3077,592.9316 L440,593.1953 " fill="#222222" style="stroke: #008000; stroke-width: 3.0;"/><path d="M314,601.1953 L314,601.4756 L323.6923,600.6429 L333.3846,601.453 L343.0769,601.7282 L352.7692,600.2441 L362.4615,601.0917 L372.1538,600.6267 L381.8462,600.684 L391.5385,601.1044 L401.2308,600.2735 L410.9231,601.9335 L420.6154,600.3549 L430.3077,600.9316 L440,601.1953 " fill="#222222" style="stroke: #008000; stroke-width: 3.0;"/><!--class Activity--><polygon fill="#222222" points="320.5,669.082,320.5,669.2922,330.7727,668.6677,341.0455,669.2753,351.3182,669.4817,361.5909,668.3686,371.8636,669.0043,382.1364,668.6555,392.4091,668.6985,402.6818,669.0139,412.9545,668.3907,423.2273,669.6357,433.5,669.082,432.8697,669.082,433.3022,678.8104,433.9319,688.5387,433.4142,698.267,433.5682,707.9953,433.4681,717.7236,433.6785,727.452,433.7391,737.1803,434.0857,746.9086,434.1711,756.6369,433.5,766.3652,433.5,767.0445,423.2273,766.6199,412.9545,766.8288,402.6818,767.0675,392.4091,765.644,382.1364,767.0437,371.8636,766.0687,361.5909,766.899,351.3182,765.8702,341.0455,766.2967,330.7727,767.1068,320.5,766.3652,320.4513,766.3652,320.6053,756.6369,320.8386,746.9086,320.9162,737.1803,320.4961,727.452,320.7872,717.7236,319.9276,707.9953,320.7844,698.267,321.0482,688.5387,320.9445,678.8104,320.5,669.082" style="stroke: #008000; stroke-width: 3.0;"/><text fill="#008000" font-family="courier" font-size="20" font-weight="bold" lengthAdjust="spacingAndGlyphs" textLength="96" x="329" y="695.1895">Activity</text><path d="M321.5,707.1953 L321.5,707.4756 L331.5909,706.6429 L341.6818,707.453 L351.7727,707.7282 L361.8636,706.2441 L371.9545,707.0917 L382.0455,706.6267 L392.1364,706.684 L402.2273,707.1044 L412.3182,706.2735 L422.4091,707.9335 L432.5,707.1953 " fill="#222222" style="stroke: #008000; stroke-width: 3.0;"/><text fill="#008000" font-family="courier" font-size="15" lengthAdjust="spacingAndGlyphs" textLength="99" x="327.5" y="727.2759">start: Time</text><text fill="#008000" font-family="courier" font-size="15" lengthAdjust="spacingAndGlyphs" textLength="81" x="327.5" y="748.8608">end: Time</text><path d="M321.5,758.3652 L321.5,758.6455 L331.5909,757.8128 L341.6818,758.6229 L351.7727,758.8981 L361.8636,757.414 L371.9545,758.2616 L382.0455,757.7966 L392.1364,757.8539 L402.2273,758.2744 L412.3182,757.4434 L422.4091,759.1034 L432.5,758.3652 " fill="#222222" style="stroke: #008000; stroke-width: 3.0;"/><!--class Team--><polygon fill="#222222" points="503,690.582,503,690.7922,512.3333,690.1677,521.6667,690.7753,531,690.9817,540.3333,689.8686,549.6667,690.5043,559,690.582,558.5735,690.582,558.6165,701.4047,558.9318,712.2273,558.3086,723.05,559.5536,733.8727,559,744.6953,559,744.065,549.6667,744.4975,540.3333,745.1273,531,744.6095,521.6667,744.7636,512.3333,744.6634,503,744.6953,503.1785,744.6953,503.2391,733.8727,503.5857,723.05,503.6711,712.2273,503.6793,701.4047,503,690.582" style="stroke: #0000FF; stroke-width: 3.0;"/><text fill="#0000FF" font-family="courier" font-size="20" font-weight="bold" lengthAdjust="spacingAndGlyphs" textLength="48" x="507" y="716.6895">Team</text><path d="M504,728.6953 L504,728.9756 L514.8,728.1429 L525.6,728.953 L536.4,729.2282 L547.2,727.7441 L558,728.6953 " fill="#222222" style="stroke: #0000FF; stroke-width: 3.0;"/><path d="M504,736.6953 L504,736.9756 L514.8,736.1429 L525.6,736.953 L536.4,737.2282 L547.2,735.7441 L558,736.6953 " fill="#222222" style="stroke: #0000FF; stroke-width: 3.0;"/><!--class Member--><polygon fill="#222222" points="497,826.082,497,826.2922,507,825.6677,517,826.2753,527,826.4817,537,825.3686,547,826.0043,557,825.6555,567,825.6985,577,826.082,576.9318,826.082,576.3086,836.9047,577.5536,847.7273,576.3697,858.55,576.8022,869.3727,577,880.1953,577,880.6273,567,880.1095,557,880.2636,547,880.1634,537,880.3738,527,880.4344,517,880.781,507,880.8664,497,880.1953,497.6793,880.1953,497.2546,869.3727,497.4636,858.55,497.7022,847.7273,496.2788,836.9047,497,826.082" style="stroke: #0000FF; stroke-width: 3.0;"/><text fill="#0000FF" font-family="courier" font-size="20" font-weight="bold" lengthAdjust="spacingAndGlyphs" textLength="72" x="501" y="852.1895">Member</text><path d="M498,864.1953 L498,864.4756 L507.75,863.6429 L517.5,864.453 L527.25,864.7282 L537,863.2441 L546.75,864.0917 L556.5,863.6267 L566.25,863.684 L576,864.1953 " fill="#222222" style="stroke: #0000FF; stroke-width: 3.0;"/><path d="M498,872.1953 L498,872.4756 L507.75,871.6429 L517.5,872.453 L527.25,872.7282 L537,871.2441 L546.75,872.0917 L556.5,871.6267 L566.25,871.684 L576,872.1953 " fill="#222222" style="stroke: #0000FF; stroke-width: 3.0;"/><!--class Role--><polygon fill="#222222" points="509,940.082,509,940.2922,518.3333,939.6677,527.6667,940.2753,537,940.4817,546.3333,939.3686,555.6667,940.0043,565,940.082,564.5735,940.082,564.6165,950.9047,564.9318,961.7273,564.3086,972.55,565.5536,983.3727,565,994.1953,565,993.565,555.6667,993.9975,546.3333,994.6273,537,994.1095,527.6667,994.2636,518.3333,994.1634,509,994.1953,509.1785,994.1953,509.2391,983.3727,509.5857,972.55,509.6711,961.7273,509.6793,950.9047,509,940.082" style="stroke: #0000FF; stroke-width: 3.0;"/><text fill="#0000FF" font-family="courier" font-size="20" font-weight="bold" lengthAdjust="spacingAndGlyphs" textLength="48" x="513" y="966.1895">Role</text><path d="M510,978.1953 L510,978.4756 L520.8,977.6429 L531.6,978.453 L542.4,978.7282 L553.2,977.2441 L564,978.1953 " fill="#222222" style="stroke: #0000FF; stroke-width: 3.0;"/><path d="M510,986.1953 L510,986.4756 L520.8,985.6429 L531.6,986.453 L542.4,986.7282 L553.2,985.2441 L564,986.1953 " fill="#222222" style="stroke: #0000FF; stroke-width: 3.0;"/><!--class Project--><polygon fill="#222222" points="320.5,81.082,320.5,81.2922,330.7727,80.6677,341.0455,81.2753,351.3182,81.4817,361.5909,80.3686,371.8636,81.0043,382.1364,80.6555,392.4091,80.6985,402.6818,81.0139,412.9545,80.3907,423.2273,81.6357,433.5,81.082,432.8697,81.082,433.3022,90.8104,433.9319,100.5387,433.4142,110.267,433.5682,119.9953,433.4681,129.7236,433.6785,139.452,433.7391,149.1803,434.0857,158.9086,434.1711,168.6369,433.5,178.3652,433.5,179.0445,423.2273,178.6199,412.9545,178.8288,402.6818,179.0675,392.4091,177.644,382.1364,179.0437,371.8636,178.0687,361.5909,178.899,351.3182,177.8702,341.0455,178.2967,330.7727,179.1068,320.5,178.3652,320.4513,178.3652,320.6053,168.6369,320.8386,158.9086,320.9162,149.1803,320.4961,139.452,320.7872,129.7236,319.9276,119.9953,320.7844,110.267,321.0482,100.5387,320.9445,90.8104,320.5,81.082" style="stroke: #FFFFFF; stroke-width: 3.0;"/><text fill="#FFFFFF" font-family="courier" font-size="20" font-weight="bold" lengthAdjust="spacingAndGlyphs" textLength="84" x="335" y="107.1895">Project</text><path d="M321.5,119.1953 L321.5,119.4756 L331.5909,118.6429 L341.6818,119.453 L351.7727,119.7282 L361.8636,118.2441 L371.9545,119.0917 L382.0455,118.6267 L392.1364,118.684 L402.2273,119.1044 L412.3182,118.2735 L422.4091,119.9335 L432.5,119.1953 " fill="#222222" style="stroke: #FFFFFF; stroke-width: 3.0;"/><text fill="#FFFFFF" font-family="courier" font-size="15" lengthAdjust="spacingAndGlyphs" textLength="99" x="327.5" y="139.2759">start: Date</text><text fill="#FFFFFF" font-family="courier" font-size="15" lengthAdjust="spacingAndGlyphs" textLength="81" x="327.5" y="160.8608">end: Date</text><path d="M321.5,170.3652 L321.5,170.6455 L331.5909,169.8128 L341.6818,170.6229 L351.7727,170.8981 L361.8636,169.414 L371.9545,170.2616 L382.0455,169.7966 L392.1364,169.8539 L402.2273,170.2744 L412.3182,169.4434 L422.4091,171.1034 L432.5,170.3652 " fill="#222222" style="stroke: #FFFFFF; stroke-width: 3.0;"/><!--link Project to Requieremts--><path d="M310.297,170.317 L310.3651,170.381 L308.7395,171.7048 L307.5128,173.4038 L306.1563,174.9806 L304.3725,176.1556 L303.1801,177.8868 L303.1525,177.866 L301.7928,179.4117 L300.572,181.0623 L299.4479,182.7857 L297.9907,184.258 L297,186.082 L297.2079,186.2136 L294.8509,188.9547 L293.1009,192.08 L291.425,195.2521 L289.3182,198.1515 L287.438,201.1943 L287.4642,201.2095 L285.6241,204.2957 L283.9034,207.4511 L282.125,210.5731 L280.4567,213.7589 L278.4298,216.7368 L278.6931,216.8769 L277.0023,220.0648 L275.1415,223.1625 L273.5294,226.3923 L271.929,229.6284 L269.9593,232.6681 L269.6713,232.5274 L268.6405,236.0561 L266.6613,239.1217 L265.4031,242.5393 L263.4024,245.5944 L262.0103,248.9466 L261.9826,248.9341 L260.8223,252.3984 L259.0132,255.5715 L257.5869,258.9164 L256.1928,262.2757 L254.5668,265.5309 L254.7378,265.6015 L253.1743,268.9 L251.903,272.3191 L250.159,275.5431 L249.1202,279.0581 L247.6125,282.3796 L247.8402,282.4661 L246.5009,285.864 L245.2747,289.3049 L243.523,292.5463 L242.1565,295.9339 L241.1312,299.4511 L240.8705,299.3601 L239.9017,302.8931 L238.6391,306.3235 L237.8026,309.9027 L236.2385,313.2279 L235.107,316.7041 L234.9618,316.6575 L234.0869,320.2137 L232.5914,323.5706 L231.5372,327.0693 L230.9149,330.7065 L229.5235,334.097 L229.7093,334.1517 L228.8049,337.6876 L227.3229,341.053 L226.5643,344.6319 L225.6482,348.1643 L224.3648,351.5883 L224.1621,351.5334 L223.3736,355.0868 L222.5187,358.6223 L221.7942,362.193 L220.5628,365.6265 L219.6145,369.1367 L219.814,369.1862 L218.504,372.5902 L217.5792,376.0897 L217.217,379.7289 L215.8189,383.111 L215.2566,386.7006 L215.4772,386.7506 L214.5499,390.2285 L213.5479,393.6894 L212.7143,397.1885 L212.2701,400.7761 L211.275,404.2385 L211.1447,404.2115 L210.8082,407.786 L209.5858,411.1769 L209.3707,414.7766 L208.5885,418.2587 L207.6534,421.7091 L207.7604,421.7293 L207.0185,425.1853 L206.6597,428.7137 L205.9548,432.1767 L205.1052,435.6124 L204.3758,439.0708 L204.4933,439.0909 L203.7288,442.5033 L203.5097,446.0091 L202.6737,449.4092 L202.0915,452.8528 L201.426,456.2822 L201.1588,456.2407 L200.7204,459.6585 L200.6038,463.1261 L200.0318,466.5232 L199.2966,469.8949 L198.7878,473.3017 L198.646,473.2819 L198.2229,476.6455 L197.5487,479.9741 L197.5647,483.399 L197.2392,486.7762 L196.4451,490.088 L196.6773,490.117 L196.3389,493.4286 L195.5595,496.6851 L195.2456,499.9998 L194.6235,503.2759 L194.3818,506.5996 L194.5073,506.6136 L194.1308,509.8508 L193.9057,513.1049 L193.2003,516.3056 L192.8823,519.5493 L192.5817,522.795 L192.7778,522.8142 L192.522,525.9871 L191.7338,529.1078 L191.5641,532.2892 L191.4053,535.4716 L191.0286,538.6327 L190.7581,538.6095 L190.9207,541.7338 L190.614,544.8179 L190.1907,547.892 L190.0339,550.989 L189.7065,554.0713 L190.0295,554.0951 L189.3464,557.0606 L189.4032,560.0808 L189.1687,563.0794 L188.872,566.0735 L188.5992,569.0693 L188.6617,569.0732 L188.4678,571.9756 L187.9588,574.8583 L187.8761,577.7677 L187.6675,580.6692 L187.6905,583.5852 L187.7188,583.5865 L187.4724,589.071 L187.2478,594.5564 L186.7896,600.031 L186.6316,605.5196 L186.4043,611.0049 L186.3509,611.0035 L186.5236,616.0107 L186.3197,621.0077 L185.7774,625.9953 L185.8237,630.9991 L185.719,635.9988 L185.4625,635.9963 L185.8044,640.4473 L185.9039,644.8959 L185.8328,649.3429 L185.3545,653.786 L185.5053,658.2351 L185.7115,658.2365 L185.2009,662.0623 L185.6457,665.8945 L185.4495,669.7224 L185.6512,673.5529 L185.634,677.382 " fill="none" style="stroke: #FFFFFF; stroke-width: 2.0;"/><polygon fill="#FFFFFF" points="185.905,690.565,185.9696,690.5922,186.5405,688.6955,187.4901,686.9579,188.3164,685.1684,188.7371,683.2087,189.7192,681.4847,189.7005,681.4668,188.8333,682.2026,188.0602,683.0288,187.3526,683.9178,186.4194,684.5902,185.8023,685.5661,185.93,685.6992,184.8405,684.6311,184.1241,683.9517,183.4531,683.3198,182.5174,682.4119,181.7209,681.6491,181.7415,681.6588,182.5481,683.4278,183.4484,685.2408,184.3035,687.0325,185.2449,688.8648,185.905,690.565" style="stroke: #FFFFFF; stroke-width: 2.0;"/><path d="M185.8023,685.5661 L185.8956,685.568 L185.5853,683.9626 L185.8224,682.3684 L185.8812,680.7706 L185.3538,679.1607 L185.6379,677.5675 " fill="#FFFFFF" style="stroke: #FFFFFF; stroke-width: 2.0;"/><polygon fill="#FFFFFF" points="320.381,161.54,320.39,161.6095,318.933,161.5874,317.5285,161.9726,316.1069,162.2252,314.629,162.0416,313.2291,162.4618,313.2041,162.455,312.7119,163.8156,312.3458,165.2107,312.0672,166.6296,311.4869,167.9662,311.3292,169.4182,311.3528,169.6012,312.7327,169.0254,314.1815,168.9841,315.6388,169.0079,317.0471,168.6524,318.4811,168.4964,318.5031,168.5024,318.8508,167.1023,319.2985,165.7295,319.698,164.3436,320.1894,162.9827,320.381,161.54" style="stroke: #FFFFFF; stroke-width: 2.0;"/><!--link Project to Fase--><path d="M377,191.791 L377.0934,191.791 L376.8159,199.0058 L377.0859,206.2206 L377.1776,213.4354 L376.6829,220.6502 L377,227.865 " fill="none" style="stroke: #FFFFFF; stroke-width: 2.0;"/><polygon fill="#FFFFFF" points="377,240.911,377.064,240.9395,377.6738,239.0549,378.6589,237.3372,379.5217,235.5651,379.9827,233.6145,381,231.911,380.9817,231.8927,380.0995,232.6105,379.3096,233.4206,378.5839,234.295,377.637,234.9481,377,235.911,377.1305,236.0415,376.0514,234.9625,375.3534,234.2644,374.7018,233.6128,373.7798,232.6908,373,231.911,373.0208,231.9203,373.7903,233.7067,374.6544,235.5352,375.4728,237.3434,376.3784,239.1903,377,240.911" style="stroke: #FFFFFF; stroke-width: 2.0;"/><path d="M377,235.911 L377.0934,235.911 L376.8159,234.311 L377.0859,232.711 L377.1776,231.111 L376.6829,229.511 L377,227.911 " fill="#FFFFFF" style="stroke: #FFFFFF; stroke-width: 2.0;"/><polygon fill="#FFFFFF" points="377,178.416,377.0583,178.4549,376.0851,179.5394,375.4536,180.8518,374.7109,182.0899,373.6021,183.0841,373,184.416,372.9784,184.4017,373.6817,185.5372,374.4936,186.7451,375.3811,188.0034,376.0082,189.0882,377,190.416,377.1536,190.5184,377.6252,189.0995,378.5451,187.9795,379.5198,186.8959,380.1762,185.6002,381,184.416,381.0189,184.4286,380.1911,183.2101,379.4495,182.049,378.6663,180.8602,377.9624,179.7243,377,178.416" style="stroke: #FFFFFF; stroke-width: 2.0;"/><text fill="#FFFFFF" font-family="courier" font-size="20" lengthAdjust="spacingAndGlyphs" textLength="12" x="363.1031" y="225.9778">4</text><!--link Project to Team--><path d="M443.881,169.838 L443.9501,169.9009 L445.161,171.2688 L446.7768,173.0053 L448.2608,174.6218 L449.3112,175.8434 L450.9618,177.6117 L450.9336,177.5916 L452.0151,179.1957 L453.2383,180.9009 L454.56,182.6763 L455.5421,184.2096 L457,186.082 L457.2124,186.2063 L458.5412,188.9867 L460.4901,192.1299 L462.5146,195.3174 L464.099,198.2473 L465.9149,201.3127 L465.9417,201.3269 L467.5613,204.4353 L469.3028,207.6084 L470.9855,210.7503 L472.7805,213.9517 L474.2094,216.959 L474.4782,217.0881 L476.0204,220.2939 L477.3892,223.4165 L479.0118,226.6609 L480.6462,229.911 L481.9038,232.9801 L481.6099,232.8523 L483.6033,236.3715 L484.6288,239.4696 L486.3902,242.8879 L487.3938,245.9765 L489.0185,249.3353 L488.9902,249.3241 L490.6363,252.7857 L491.6205,255.9867 L492.9953,259.3414 L494.4029,262.7091 L495.5739,265.9836 L495.7482,266.0457 L496.7756,269.3632 L498.1008,272.7868 L498.9441,276.0388 L500.5062,279.5466 L501.5904,282.8844 L501.8223,282.9589 L502.8781,286.3673 L504.049,289.8127 L504.6847,293.0862 L505.7128,296.4857 L507.0883,299.9968 L506.823,299.9201 L508.0632,303.4462 L509.0043,306.8859 L510.3791,310.4509 L511.0136,313.8019 L512.0881,317.2801 L511.9406,317.2418 L513.0907,320.7882 L513.6101,324.1709 L514.578,327.6701 L515.9849,331.2832 L516.6101,334.6934 L516.7988,334.7372 L517.741,338.2677 L518.0967,341.662 L519.1871,345.227 L520.1175,348.7547 L520.6748,352.1959 L520.4692,352.1534 L521.3586,355.6975 L522.1807,359.2276 L523.135,362.7851 L523.575,366.2363 L524.3024,369.7468 L524.5046,369.7838 L524.7025,373.2143 L525.2907,376.7161 L526.4492,380.3223 L526.5577,383.7364 L527.5134,387.3055 L527.7367,387.3413 L528.167,390.8251 L528.5217,394.2968 L529.047,397.7958 L529.9665,401.3582 L530.3281,404.8309 L530.1964,404.8125 L531.0764,408.3576 L531.0604,411.7775 L532.0632,415.3398 L532.4924,418.8219 L532.767,422.2824 L532.8751,422.2954 L533.2045,425.7523 L533.921,429.2557 L534.2878,432.717 L534.5084,436.1608 L534.8504,439.6192 L534.969,439.6313 L535.1425,443.0496 L535.8665,446.5239 L535.9679,449.9349 L536.3254,453.3719 L536.5988,456.8004 L536.3293,456.7777 L536.706,460.1822 L537.4072,463.6142 L537.6492,467.0074 L537.7266,470.3867 L538.0324,473.7853 L537.8895,473.7756 L538.1631,477.1282 L538.1838,480.4637 L538.8998,483.8464 L539.2717,487.2058 L539.1716,490.533 L539.4053,490.5453 L539.6531,493.8432 L539.4571,497.1178 L539.7295,500.417 L539.6919,503.6998 L540.037,507.0029 L540.1631,507.0076 L540.2689,510.2372 L540.527,513.4726 L540.302,516.6896 L540.4667,519.9215 L540.6487,523.1539 L540.8457,523.1587 L540.9765,526.3183 L540.5724,529.4651 L540.7897,532.6268 L541.0179,535.7888 L541.0273,538.9455 L540.7558,538.9426 L541.2175,542.0254 L541.2083,545.1032 L541.082,548.1798 L541.2231,551.2592 L541.1931,554.3367 L541.5169,554.3373 L541.0487,557.3265 L541.3224,560.317 L541.304,563.307 L541.2232,566.2969 L541.1664,569.2868 L541.2291,569.2877 L541.1771,572.1812 L540.8096,575.0703 L540.8691,577.9653 L540.8024,580.8586 L540.9678,583.755 L540.9961,583.7558 L540.9368,586.5451 L540.8995,589.335 L540.6283,592.1191 L540.6575,594.9107 L540.6174,597.7005 L540.564,597.6986 L540.7773,600.3861 L540.6142,603.0601 L540.1128,605.722 L540.1998,608.4049 L540.1358,611.0825 L539.8796,611.0694 L540.0087,616.0711 L539.8957,621.0604 L539.6123,626.041 L538.9221,631.0008 L538.8604,635.9927 L539.0661,636.0072 L538.2198,640.403 L538.3267,644.8656 L537.7941,649.2834 L537.6585,653.7291 L537.3044,658.1594 L537.4108,658.1687 L537.1787,661.997 L536.3163,665.7701 L536.5109,669.6358 L536.0446,673.4436 L535.631,677.256 " fill="none" style="stroke: #FFFFFF; stroke-width: 2.0;"/><polygon fill="#FFFFFF" points="534.284,690.415,534.3448,690.4499,535.1434,688.6372,536.2983,687.0288,537.3372,685.3538,537.9944,683.4602,539.18,681.8693,539.1636,681.8492,538.2129,682.4734,537.3446,683.1989,536.5336,683.9947,535.5251,684.548,534.7933,685.441,534.9364,685.5576,533.9161,684.4311,533.3135,683.6448,532.7619,682.9,531.9138,681.9137,531.2216,681.0544,531.2432,681.0615,531.8239,682.9232,532.5031,684.8171,533.1348,686.6956,533.8571,688.6036,534.284,690.415" style="stroke: #FFFFFF; stroke-width: 2.0;"/><path d="M534.7933,685.441 L534.8862,685.4506 L534.7732,683.8306 L535.2049,682.2664 L535.4591,680.684 L535.1301,679.0419 L535.6085,677.4825 " fill="#FFFFFF" style="stroke: #FFFFFF; stroke-width: 2.0;"/><polygon fill="#FFFFFF" points="433.727,160.893,433.7947,160.9111,433.9652,162.251,434.5325,163.6967,434.9706,165.1079,434.9837,166.4058,435.5851,167.8606,435.5816,167.835,436.9954,167.9127,438.4265,168.1198,439.8698,168.4169,441.2713,168.404,442.7314,168.8253,442.9097,168.8728,442.1568,167.3776,441.9245,166.0213,441.7557,164.6818,441.2173,163.2438,440.8733,161.8577,440.8763,161.8802,439.4426,161.6542,438.0227,161.5308,436.5962,161.3579,435.1824,161.2794,433.727,160.893" style="stroke: #FFFFFF; stroke-width: 2.0;"/><!--link Requieremts to UseCase--><path d="M190.529,757.845 L190.8081,757.8701 L190.962,768.7326 L192.7521,779.7421 L194.0094,790.7037 L193.5144,801.5079 L195.445,812.53 " fill="none" style="stroke: #FFFFFF; stroke-width: 2.0;"/><polygon fill="#FFFFFF" points="196.623,825.634,196.6893,825.6566,197.1278,823.7251,197.9551,821.926,198.6558,820.0838,198.9402,818.0996,199.8008,816.3119,199.781,816.2953,198.9666,817.0893,198.2525,817.9669,197.608,818.9027,196.7234,819.638,196.1752,820.6541,196.2935,820.7958,195.1721,819.7677,194.3961,819.1533,193.6622,818.5892,192.6831,817.7316,191.833,817.0285,191.8529,817.0395,192.7817,818.7444,193.801,820.4996,194.7766,822.2306,195.8356,824.0079,196.623,825.634" style="stroke: #FFFFFF; stroke-width: 2.0;"/><path d="M196.1752,820.6541 L196.2682,820.6625 L195.8484,819.0441 L195.9741,817.4748 L195.9221,815.8895 L195.286,814.2516 L195.4585,812.6865 " fill="#FFFFFF" style="stroke: #FFFFFF; stroke-width: 2.0;"/><polygon fill="#FFFFFF" points="189.342,744.639,189.4035,744.6725,188.5314,745.8398,188.02,747.2035,187.3911,748.5032,186.3758,749.5927,185.8954,750.9731,185.8752,750.9569,186.6889,752.0075,187.6043,753.1401,188.5905,754.3295,189.3329,755.3228,190.4167,756.5908,190.5788,756.679,190.9214,755.2236,191.7374,754.0257,192.6111,752.8592,193.1488,751.5099,193.8633,750.2567,193.881,750.271,192.9507,749.1265,192.1011,748.0469,191.2126,746.9361,190.3983,745.885,189.342,744.639" style="stroke: #FFFFFF; stroke-width: 2.0;"/><text fill="#FFFFFF" font-family="courier" font-size="20" lengthAdjust="spacingAndGlyphs" textLength="12" x="181.8938" y="811.0995">*</text><!--link Fase to Iteration--><path d="M377,351.595 L377.0934,351.595 L376.8159,358.2588 L377.0859,364.9226 L377.1776,371.5864 L376.6829,378.2502 L377,384.914 " fill="none" style="stroke: #FFFFFF; stroke-width: 2.0;"/><polygon fill="#FFFFFF" points="377,397.97,377.064,397.9985,377.6738,396.1139,378.6589,394.3962,379.5217,392.6241,379.9827,390.6735,381,388.97,380.9817,388.9517,380.0995,389.6695,379.3096,390.4796,378.5839,391.354,377.637,392.0071,377,392.97,377.1305,393.1005,376.0514,392.0215,375.3534,391.3234,374.7018,390.6718,373.7798,389.7498,373,388.97,373.0208,388.9793,373.7903,390.7657,374.6544,392.5942,375.4728,394.4024,376.3784,396.2493,377,397.97" style="stroke: #FFFFFF; stroke-width: 2.0;"/><path d="M377,392.97 L377.0934,392.97 L376.8159,391.37 L377.0859,389.77 L377.1776,388.17 L376.6829,386.57 L377,384.97 " fill="#FFFFFF" style="stroke: #FFFFFF; stroke-width: 2.0;"/><polygon fill="#FFFFFF" points="377,338.352,377.0583,338.3909,376.0851,339.4754,375.4536,340.7878,374.7109,342.0259,373.6021,343.0201,373,344.352,372.9784,344.3377,373.6817,345.4732,374.4936,346.6811,375.3811,347.9394,376.0082,349.0242,377,350.352,377.1536,350.4544,377.6252,349.0355,378.5451,347.9155,379.5198,346.8319,380.1762,345.5362,381,344.352,381.0189,344.3646,380.1911,343.1461,379.4495,341.985,378.6663,340.7962,377.9624,339.6603,377,338.352" style="stroke: #FFFFFF; stroke-width: 2.0;"/><text fill="#FFFFFF" font-family="courier" font-size="20" lengthAdjust="spacingAndGlyphs" textLength="12" x="363.1031" y="383.0444">+</text><!--link Iteration to Discipline--><path d="M377,508.832 L377.0934,508.832 L376.8159,515.3918 L377.0859,521.9516 L377.1776,528.5114 L376.6829,535.0712 L377,541.631 " fill="none" style="stroke: #FFFFFF; stroke-width: 2.0;"/><polygon fill="#FFFFFF" points="377,554.913,377.064,554.9415,377.6738,553.0569,378.6589,551.3392,379.5217,549.5671,379.9827,547.6165,381,545.913,380.9817,545.8947,380.0995,546.6125,379.3096,547.4226,378.5839,548.297,377.637,548.9501,377,549.913,377.1305,550.0435,376.0514,548.9645,375.3534,548.2664,374.7018,547.6148,373.7798,546.6928,373,545.913,373.0208,545.9223,373.7903,547.7087,374.6544,549.5372,375.4728,551.3454,376.3784,553.1923,377,554.913" style="stroke: #FFFFFF; stroke-width: 2.0;"/><path d="M377,549.913 L377.0934,549.913 L376.8159,548.313 L377.0859,546.713 L377.1776,545.113 L376.6829,543.513 L377,541.913 " fill="#FFFFFF" style="stroke: #FFFFFF; stroke-width: 2.0;"/><polygon fill="#FFFFFF" points="377,495.401,377.0583,495.4399,376.0851,496.5244,375.4536,497.8368,374.7109,499.0749,373.6021,500.0691,373,501.401,372.9784,501.3867,373.6817,502.5222,374.4936,503.7301,375.3811,504.9884,376.0082,506.0732,377,507.401,377.1536,507.5034,377.6252,506.0845,378.5451,504.9645,379.5198,503.8809,380.1762,502.5852,381,501.401,381.0189,501.4136,380.1911,500.1951,379.4495,499.034,378.6663,497.8452,377.9624,496.7093,377,495.401" style="stroke: #FFFFFF; stroke-width: 2.0;"/><text fill="#FFFFFF" font-family="courier" font-size="20" lengthAdjust="spacingAndGlyphs" textLength="12" x="362.6656" y="540.1726">6</text><!--link Discipline to Activity--><path d="M377,622.373 L377.0934,622.373 L376.8159,629.0634 L377.0859,635.7538 L377.1776,642.4442 L376.6829,649.1346 L377,655.825 " fill="none" style="stroke: #FFFFFF; stroke-width: 2.0;"/><polygon fill="#FFFFFF" points="377,668.974,377.064,669.0025,377.6738,667.1179,378.6589,665.4002,379.5217,663.6281,379.9827,661.6775,381,659.974,380.9817,659.9557,380.0995,660.6735,379.3096,661.4836,378.5839,662.358,377.637,663.0111,377,663.974,377.1305,664.1045,376.0514,663.0255,375.3534,662.3274,374.7018,661.6758,373.7798,660.7538,373,659.974,373.0208,659.9833,373.7903,661.7697,374.6544,663.5982,375.4728,665.4064,376.3784,667.2533,377,668.974" style="stroke: #FFFFFF; stroke-width: 2.0;"/><path d="M377,663.974 L377.0934,663.974 L376.8159,662.374 L377.0859,660.774 L377.1776,659.174 L376.6829,657.574 L377,655.974 " fill="#FFFFFF" style="stroke: #FFFFFF; stroke-width: 2.0;"/><polygon fill="#FFFFFF" points="377,609.139,377.0583,609.1779,376.0851,610.2624,375.4536,611.5748,374.7109,612.8129,373.6021,613.8071,373,615.139,372.9784,615.1247,373.6817,616.2602,374.4936,617.4681,375.3811,618.7264,376.0082,619.8112,377,621.139,377.1536,621.2414,377.6252,619.8225,378.5451,618.7025,379.5198,617.6189,380.1762,616.3232,381,615.139,381.0189,615.1516,380.1911,613.9331,379.4495,612.772,378.6663,611.5832,377.9624,610.4473,377,609.139" style="stroke: #FFFFFF; stroke-width: 2.0;"/><text fill="#FFFFFF" font-family="courier" font-size="20" lengthAdjust="spacingAndGlyphs" textLength="48" x="324.7969" y="654.0489">4..7</text><!--link Team to Member--><path d="M532.765,757.845 L533.045,757.8576 L532.7045,768.7572 L534.0053,779.7306 L534.7716,790.68 L533.7804,801.5503 L535.222,812.53 " fill="none" style="stroke: #FFFFFF; stroke-width: 2.0;"/><polygon fill="#FFFFFF" points="535.811,825.634,535.8762,825.6596,536.4007,823.7495,537.3076,821.9893,538.0899,820.1802,538.4627,818.2108,539.4025,816.4633,539.3833,816.4459,538.5343,817.2026,537.7816,818.0474,537.096,818.9535,536.1794,819.6485,535.5863,820.6391,535.7108,820.7753,534.6094,819.7208,533.8715,819.0639,533.178,818.4557,532.2264,817.565,531.4105,816.8229,531.4309,816.8331,532.2811,818.5804,533.224,820.3739,534.1221,822.1452,535.1056,823.959,535.811,825.634" style="stroke: #FFFFFF; stroke-width: 2.0;"/><path d="M535.5863,820.6391 L535.6796,820.6433 L535.3306,819.0325 L535.5286,817.4463 L535.5485,815.8521 L534.9825,814.2316 L535.2275,812.6475 " fill="#FFFFFF" style="stroke: #FFFFFF; stroke-width: 2.0;"/><polygon fill="#FFFFFF" points="532.171,744.639,532.231,744.6752,531.3074,745.8023,530.7354,747.1417,530.0489,748.4119,528.9858,749.4548,528.444,750.8123,528.4231,750.797,529.1824,751.8912,530.0469,753.0626,530.9847,754.2877,531.6702,755.3277,532.709,756.627,532.867,756.7223,533.2745,755.2837,534.1434,754.1236,535.0685,752.9974,535.6661,751.6735,536.436,750.4537,536.4543,750.4671,535.5744,749.2844,534.778,748.163,533.9413,747.012,533.1814,745.9174,532.171,744.639" style="stroke: #FFFFFF; stroke-width: 2.0;"/><text fill="#FFFFFF" font-family="courier" font-size="20" lengthAdjust="spacingAndGlyphs" textLength="12" x="521.3012" y="811.0995">*</text><!--link Member to Role--><path d="M537,880.341 L537.2802,880.341 L536.4476,891.2326 L537.2577,902.1242 L537.5329,913.0158 L536.0488,923.9074 L537,934.7989 " fill="none" style="stroke: #FFFFFF; stroke-width: 2.0;"/><polygon fill="#FFFFFF" points="537,939.9875,537.064,940.016,537.6738,938.1314,538.6589,936.4137,539.5217,934.6416,539.9827,932.691,541,930.9875,540.9817,930.9692,540.0995,931.687,539.3096,932.4971,538.5839,933.3715,537.637,934.0246,537,934.9875,537.1305,935.118,536.0514,934.039,535.3534,933.3409,534.7018,932.6893,533.7798,931.7673,533,930.9875,533.0208,930.9968,533.7903,932.7832,534.6544,934.6117,535.4728,936.4199,536.3784,938.2668,537,939.9875" style="stroke: #FFFFFF; stroke-width: 2.0;"/><!--link Activity to Member--><path d="M433.861,766.025 L434.0405,766.2402 L441.0286,771.8766 L449.0692,778.7745 L456.7671,785.2615 L463.3378,790.3978 L471.4024,797.3244 L478.626,803.2431 L486.1843,809.5629 L493.9752,816.1615 L501.555,822.507 " fill="none" style="stroke: #FFFFFF; stroke-width: 2.0;"/><polygon fill="#FFFFFF" points="505.455,825.761,505.5179,825.792,504.4616,823.9326,503.7738,822.2545,502.9661,820.5174,501.7637,818.5861,501.1076,816.9236,501.0818,816.9213,501.0677,818.0376,501.1836,819.1657,501.39,820.302,501.2848,821.4101,501.616,822.5576,501.6326,822.7414,500.4703,822.45,499.3565,822.6953,498.2486,823.006,497.1063,822.9359,495.982,823.066,495.9883,823.0879,497.8737,823.5948,499.7875,824.2013,501.6876,824.7597,503.6138,825.4098,505.455,825.761" style="stroke: #FFFFFF; stroke-width: 2.0;"/><!--link Activity to UseCase--><path d="M320.19,761.189 L320.3581,761.4132 L311.6315,766.9174 L303.8906,773.7358 L295.8287,780.1263 L286.7113,785.1093 L278.9928,791.9576 L270.4868,797.7559 L262.2942,803.9721 L254.3195,810.4787 L245.5939,815.9843 L237.92,822.892 " fill="none" style="stroke: #FFFFFF; stroke-width: 2.0;"/><polygon fill="#FFFFFF" points="233.815,825.971,233.8306,826.0393,235.7042,825.3964,237.6694,825.1538,239.6048,824.7809,241.4419,823.9792,243.415,823.771,243.4113,823.7454,242.2749,823.4703,241.1569,823.3245,240.0518,823.2685,238.9024,822.9029,237.815,822.971,237.9977,822.9971,237.767,821.8213,238.0697,820.7217,238.4375,819.6314,238.4267,818.487,238.615,817.371,238.6349,817.3821,237.6457,819.0858,236.747,820.84,235.8046,822.5699,234.9455,824.3462,233.815,825.971" style="stroke: #FFFFFF; stroke-width: 2.0;"/><polygon fill="#222222" points="13,1044.082,13,1044.2922,22.9853,1043.6677,32.9706,1044.2753,42.9559,1044.4817,52.9412,1043.3686,62.9265,1044.0043,72.9118,1043.6555,82.8971,1043.6985,92.8824,1044.0139,102.8676,1043.3907,112.8529,1044.6357,122.8382,1043.4518,132.8235,1043.8843,142.8088,1044.514,152.7941,1043.9963,162.7794,1044.1503,172.7647,1044.0501,182.75,1044.2606,192.7353,1044.3212,202.7206,1044.6677,212.7059,1044.7531,222.6912,1044.7613,232.6765,1044.3367,242.6618,1044.5456,252.6471,1044.7843,262.6324,1043.3608,272.6176,1044.7605,282.6029,1043.7855,292.5882,1044.6158,302.5735,1043.587,312.5588,1044.0135,322.5441,1044.8236,332.5294,1044.0333,342.5147,1044.1873,352.5,1044.4207,362.4853,1044.4983,372.4706,1044.0781,382.4559,1044.3692,392.4412,1043.5096,402.4265,1044.3664,412.4118,1044.6302,422.3971,1044.5266,432.3824,1044.6951,442.3676,1043.599,452.3529,1043.4298,462.3382,1043.4606,472.3235,1044.0232,482.3088,1043.8855,492.2941,1044.7634,502.2794,1043.9074,512.2647,1043.739,522.25,1044.3103,532.2353,1043.4152,542.2206,1043.5629,552.2059,1044.731,562.1912,1044.5177,572.1765,1044.8165,582.1618,1043.7602,592.1471,1044.4012,602.1324,1044.6725,612.1176,1043.6096,622.1029,1043.9862,632.0882,1044.208,642.0735,1044.7338,652.0588,1044.0778,662.0441,1044.5446,672.0294,1043.5282,682.0147,1043.4048,692,1044.082,692.0642,1044.2371,692.6157,1044.1541,693.4791,1044.8246,694.1477,1045.0243,694.7943,1045.1711,695.5355,1045.5465,695.4266,1045.5014,695.9697,1046.3121,696.0291,1046.9225,696.5965,1047.7433,696.5369,1048.3044,697,1049.082,697.6174,1049.082,697.4843,1059.2078,697.245,1069.3337,697.0472,1079.4595,697.7266,1089.5853,697.6136,1099.7111,697,1109.8369,697.0521,1109.8585,696.7897,1110.5782,696.3741,1111.2345,696.342,1112.0496,695.8761,1112.6851,695.5355,1113.3724,695.5575,1113.4256,694.7508,1113.478,694.0696,1113.8334,693.4819,1114.4146,692.7619,1114.6764,692,1114.8369,692,1114.794,682.0147,1114.5147,672.0294,1114.618,662.0441,1114.1507,652.0588,1115.2517,642.0735,1115.5765,632.0882,1115.3633,622.1029,1115.5318,612.1176,1114.7002,602.1324,1114.9241,592.1471,1114.4493,582.1618,1115.121,572.1765,1115.0837,562.1912,1115.3893,552.2059,1114.6073,542.2206,1114.7025,532.2353,1115.2804,522.25,1115.4042,512.2647,1114.3244,502.2794,1114.643,492.2941,1114.9862,482.3088,1114.2261,472.3235,1115.1903,462.3382,1115.0949,452.3529,1114.7362,442.3676,1114.9792,432.3824,1115.5656,422.3971,1114.524,412.4118,1115.1519,402.4265,1115.1226,392.4412,1114.9527,382.4559,1114.9778,372.4706,1114.9504,362.4853,1114.2128,352.5,1114.4361,342.5147,1114.3754,332.5294,1114.9007,322.5441,1114.925,312.5588,1114.9987,302.5735,1114.5459,292.5882,1114.7694,282.6029,1114.7167,272.6176,1115.4138,262.6324,1115.2635,252.6471,1114.3514,242.6618,1114.764,232.6765,1114.2597,222.6912,1115.1253,212.7059,1115.4454,202.7206,1115.3815,192.7353,1114.4014,182.75,1115.3009,172.7647,1114.0941,162.7794,1115.0371,152.7941,1114.5376,142.8088,1114.9336,132.8235,1115.0772,122.8382,1115.309,112.8529,1114.117,102.8676,1115.3124,92.8824,1115.0151,82.8971,1115.1922,72.9118,1115.5847,62.9265,1114.8424,52.9412,1115.0122,42.9559,1115.0504,32.9706,1115.0341,22.9853,1114.8361,13,1114.8369,13.0907,1115.0558,12.2151,1114.3562,11.6579,1114.4252,10.7991,1113.7661,10.1026,1113.4989,9.4645,1113.3724,9.4768,1113.3776,9.1803,1112.6689,8.7269,1111.8954,8.7132,1111.3039,8.3264,1110.5579,8,1109.8369,8.7267,1109.8369,8.6671,1099.7111,7.5517,1089.5853,7.6021,1079.4595,7.8708,1069.3337,8.3555,1059.2078,8,1049.082,8.1241,1049.1334,8.3856,1048.4133,8.4805,1047.6242,9.0747,1047.0419,9.3668,1046.3345,9.4645,1045.5465,9.4584,1045.5319,10.1411,1045.18,10.8275,1044.8371,11.5584,1044.6017,12.3104,1044.4172,13,1044.082" style="stroke: #FFA500; stroke-width: 1.0;"/><text fill="#FFA500" font-family="courier" font-size="15" font-style="italic" lengthAdjust="spacingAndGlyphs" textLength="108" x="15" y="1065.1626">No contempla</text><text fill="#FFA500" font-family="courier" font-size="15" font-style="italic" lengthAdjust="spacingAndGlyphs" textLength="81" x="15" y="1084.7476">- Riesgos</text><text fill="#FFA500" font-family="courier" font-size="15" font-style="italic" lengthAdjust="spacingAndGlyphs" textLength="675" x="15" y="1104.3325">- Artefactos de la solución (design, implementation, deploy y process view)</text><text fill="#FFA500" font-family="courier" font-size="15" font-style="italic" lengthAdjust="spacingAndGlyphs" textLength="630" x="38" y="1139.9175">Luis Fernández Muñoz - https://www.linkedin.com/in/luisfernandezmunyoz</text><!--
@startuml

skinparam backgroundColor #222222

skinparam default {
    FontSize 20
    FontName courier
    FontStyle normal
    FontColor #white
}
skinparam handwritten true

skinparam shadowing false
skinparam padding 1
skinparam arrow {
    Thickness 2
    Color #white
    FontSize 20
    FontName courier
    FontStyle normal
    FontColor #white
}

skinparam title {
    BorderThickness 5
    BorderColor #orange
    FontSize 30
    FontName arial
    FontStyle bold
    FontColor #orange
 }

skinparam header {
    FontSize 15
    FontName courier
    FontStyle italic
    FontColor #orange
}

skinparam footer {
    FontSize 15
    FontName courier
    FontStyle italic
    FontColor #orange
}

skinparam legend {
    BorderThickness 1
    BorderColor #orange
    backgroundColor #222222
    FontSize 15
    FontName courier
    FontStyle italic
    FontColor #orange
}

skinparam package {
    BorderThickness 3
    BorderColor #white
    BackgroundColor #222222
    FontSize 20
    FontName courier
    FontStyle bold
}

skinparam class {
    BorderThickness 3
    BorderColor #white
    BackgroundColor #222222
    FontSize 20
    FontName courier
    FontStyle bold
    FontColor #white
}

skinparam classAttribute {
    FontSize 15
    FontName courier
    FontStyle normal
    FontColor #white
}

hide circle
hide stereotype

header Universo Santa Tecla - USantaTecla@gmail.com
footer Luis Fernández Muñoz - https://www.linkedin.com/in/luisfernandezmunyoz

legend
No contempla
- Riesgos
- Artefactos de la solución (design, implementation, deploy y process view)
end legend

skinparam class {
    BorderColor<<scopeStyle>> #red
    BorderColor<<timeStyle>> #green
    BorderColor<<costsStyle>> #blue
    FontColor<<scopeStyle>> #red
    FontColor<<timeStyle>> #green
    FontColor<<costsStyle>> #blue
}

skinparam package {
    BorderColor<<scopeStyle>> #red
    BorderColor<<timeStyle>> #green
    BorderColor<<costsStyle>> #blue
    FontColor<<scopeStyle>> #red
    FontColor<<timeStyle>> #green
    FontColor<<costsStyle>> #blue
}

skinparam classAttribute {
    FontColor<<scopeStyle>> #red
    FontColor<<timeStyle>> #green
    FontColor<<costsStyle>> #blue
}

title Process Unified Process

class Project {
start: Date
end: Date
}

package scope  <<scopeStyle>> {
class Requieremts <<scopeStyle>>
class UseCase <<scopeStyle>>
}

package time <<timeStyle>> {
class Fase  <<timeStyle>> {
start: Date
end: Date
}
class Iteration <<timeStyle>> {
start: Date
end: Date
}
class Discipline <<timeStyle>>
class Activity <<timeStyle>> {
start: Time
end: Time
}
}

package costs <<costsStyle>> {
class Team <<costsStyle>>
class Member <<costsStyle>>
class Role <<costsStyle>>
}

Project *- -> Requieremts
Project *- -> "4" Fase
Project *- -> Team

Requieremts *- -> "*" UseCase

Fase *- -> "+" Iteration
Iteration *- -> "6" Discipline
Discipline *- -> "4..7" Activity

Team *- -> "*" Member
Member - -> Role
Activity - -> Member
Activity - -> UseCase

@enduml

PlantUML version 1.2019.05(Sat Apr 20 18:45:36 CEST 2019)
(GPL source distribution)
Java Runtime: OpenJDK Runtime Environment
JVM: OpenJDK 64-Bit Server VM
Java Version: 1.8.0_222-b10
Operating System: Windows 10
OS Version: 10.0
Default Encoding: windows-1252
Language: es
Country: ES
--></g></svg>