<?xml version="1.0" encoding="UTF-8" standalone="no"?><svg xmlns="http://www.w3.org/2000/svg" xmlns:xlink="http://www.w3.org/1999/xlink" contentScriptType="application/ecmascript" contentStyleType="text/css" height="411px" preserveAspectRatio="none" style="width:1109px;height:411px;" version="1.1" viewBox="0 0 1109 411" width="1109px" zoomAndPan="magnify"><defs><filter height="300%" id="f15n59esvxh25w" width="300%" x="-1" y="-1"><feGaussianBlur result="blurOut" stdDeviation="2.0"/><feColorMatrix in="blurOut" result="blurOut2" type="matrix" values="0 0 0 0 0 0 0 0 0 0 0 0 0 0 0 0 0 0 .4 0"/><feOffset dx="4.0" dy="4.0" in="blurOut2" result="blurOut3"/><feBlend in="SourceGraphic" in2="blurOut3" mode="normal"/></filter></defs><g><!--class Activity--><rect fill="#FF0000" filter="url(#f15n59esvxh25w)" height="48" id="Activity" style="stroke: #A80036; stroke-width: 1.5;" width="67" x="802.5" y="8"/><rect fill="#FF0000" height="32" style="stroke: #A80036; stroke-width: 1.5;" width="67" x="802.5" y="8"/><ellipse cx="817.5" cy="24" fill="#ADD1B2" rx="11" ry="11" style="stroke: #A80036; stroke-width: 1.0;"/><path d="M820.2656,19.875 Q820.4219,19.6563 820.6094,19.5469 Q820.7969,19.4375 821.0156,19.4375 Q821.3906,19.4375 821.625,19.6953 Q821.8594,19.9531 821.8594,20.5625 L821.8594,22.0156 Q821.8594,22.625 821.625,22.8906 Q821.3906,23.1563 821.0156,23.1563 Q820.6719,23.1563 820.4688,22.9531 Q820.2656,22.7656 820.1563,22.25 Q820.1094,21.8906 819.9219,21.7031 Q819.5938,21.3281 818.9844,21.1094 Q818.375,20.8906 817.75,20.8906 Q816.9844,20.8906 816.3516,21.2188 Q815.7188,21.5469 815.2266,22.2969 Q814.7344,23.0469 814.7344,24.0781 L814.7344,25.1719 Q814.7344,26.4063 815.625,27.2266 Q816.5156,28.0469 818.1094,28.0469 Q819.0469,28.0469 819.7031,27.7969 Q820.0938,27.6406 820.5156,27.2031 Q820.7813,26.9375 820.9297,26.8594 Q821.0781,26.7813 821.2813,26.7813 Q821.6094,26.7813 821.8672,27.0391 Q822.125,27.2969 822.125,27.6406 Q822.125,27.9844 821.7813,28.3906 Q821.2813,28.9688 820.4844,29.2969 Q819.4063,29.75 818.1094,29.75 Q816.5938,29.75 815.3906,29.125 Q814.4063,28.625 813.7188,27.5547 Q813.0313,26.4844 813.0313,25.2031 L813.0313,24.0469 Q813.0313,22.7188 813.6484,21.5703 Q814.2656,20.4219 815.3594,19.8047 Q816.4531,19.1875 817.6875,19.1875 Q818.4219,19.1875 819.0703,19.3516 Q819.7188,19.5156 820.2656,19.875 Z "/><text fill="#000000" font-family="sans-serif" font-size="12" lengthAdjust="spacingAndGlyphs" textLength="35" x="831.5" y="28.9102">Activity</text><line style="stroke: #A80036; stroke-width: 1.5;" x1="803.5" x2="868.5" y1="40" y2="40"/><line style="stroke: #A80036; stroke-width: 1.5;" x1="803.5" x2="868.5" y1="48" y2="48"/><!--class RequirementsActivity--><rect fill="#FF0000" filter="url(#f15n59esvxh25w)" height="48" id="RequirementsActivity" style="stroke: #A80036; stroke-width: 1.5;" width="146" x="695" y="117"/><rect fill="#FF0000" height="32" style="stroke: #A80036; stroke-width: 1.5;" width="146" x="695" y="117"/><ellipse cx="710" cy="133" fill="#ADD1B2" rx="11" ry="11" style="stroke: #A80036; stroke-width: 1.0;"/><path d="M712.7656,128.875 Q712.9219,128.6563 713.1094,128.5469 Q713.2969,128.4375 713.5156,128.4375 Q713.8906,128.4375 714.125,128.6953 Q714.3594,128.9531 714.3594,129.5625 L714.3594,131.0156 Q714.3594,131.625 714.125,131.8906 Q713.8906,132.1563 713.5156,132.1563 Q713.1719,132.1563 712.9688,131.9531 Q712.7656,131.7656 712.6563,131.25 Q712.6094,130.8906 712.4219,130.7031 Q712.0938,130.3281 711.4844,130.1094 Q710.875,129.8906 710.25,129.8906 Q709.4844,129.8906 708.8516,130.2188 Q708.2188,130.5469 707.7266,131.2969 Q707.2344,132.0469 707.2344,133.0781 L707.2344,134.1719 Q707.2344,135.4063 708.125,136.2266 Q709.0156,137.0469 710.6094,137.0469 Q711.5469,137.0469 712.2031,136.7969 Q712.5938,136.6406 713.0156,136.2031 Q713.2813,135.9375 713.4297,135.8594 Q713.5781,135.7813 713.7813,135.7813 Q714.1094,135.7813 714.3672,136.0391 Q714.625,136.2969 714.625,136.6406 Q714.625,136.9844 714.2813,137.3906 Q713.7813,137.9688 712.9844,138.2969 Q711.9063,138.75 710.6094,138.75 Q709.0938,138.75 707.8906,138.125 Q706.9063,137.625 706.2188,136.5547 Q705.5313,135.4844 705.5313,134.2031 L705.5313,133.0469 Q705.5313,131.7188 706.1484,130.5703 Q706.7656,129.4219 707.8594,128.8047 Q708.9531,128.1875 710.1875,128.1875 Q710.9219,128.1875 711.5703,128.3516 Q712.2188,128.5156 712.7656,128.875 Z "/><text fill="#000000" font-family="sans-serif" font-size="12" lengthAdjust="spacingAndGlyphs" textLength="114" x="724" y="137.9102">RequirementsActivity</text><line style="stroke: #A80036; stroke-width: 1.5;" x1="696" x2="840" y1="149" y2="149"/><line style="stroke: #A80036; stroke-width: 1.5;" x1="696" x2="840" y1="157" y2="157"/><!--class Role--><rect fill="#0000FF" filter="url(#f15n59esvxh25w)" height="48" id="Role" style="stroke: #A80036; stroke-width: 1.5;" width="58" x="876" y="117"/><rect fill="#0000FF" height="32" style="stroke: #A80036; stroke-width: 1.5;" width="58" x="876" y="117"/><ellipse cx="891" cy="133" fill="#ADD1B2" rx="11" ry="11" style="stroke: #A80036; stroke-width: 1.0;"/><path d="M893.7656,128.875 Q893.9219,128.6563 894.1094,128.5469 Q894.2969,128.4375 894.5156,128.4375 Q894.8906,128.4375 895.125,128.6953 Q895.3594,128.9531 895.3594,129.5625 L895.3594,131.0156 Q895.3594,131.625 895.125,131.8906 Q894.8906,132.1563 894.5156,132.1563 Q894.1719,132.1563 893.9688,131.9531 Q893.7656,131.7656 893.6563,131.25 Q893.6094,130.8906 893.4219,130.7031 Q893.0938,130.3281 892.4844,130.1094 Q891.875,129.8906 891.25,129.8906 Q890.4844,129.8906 889.8516,130.2188 Q889.2188,130.5469 888.7266,131.2969 Q888.2344,132.0469 888.2344,133.0781 L888.2344,134.1719 Q888.2344,135.4063 889.125,136.2266 Q890.0156,137.0469 891.6094,137.0469 Q892.5469,137.0469 893.2031,136.7969 Q893.5938,136.6406 894.0156,136.2031 Q894.2813,135.9375 894.4297,135.8594 Q894.5781,135.7813 894.7813,135.7813 Q895.1094,135.7813 895.3672,136.0391 Q895.625,136.2969 895.625,136.6406 Q895.625,136.9844 895.2813,137.3906 Q894.7813,137.9688 893.9844,138.2969 Q892.9063,138.75 891.6094,138.75 Q890.0938,138.75 888.8906,138.125 Q887.9063,137.625 887.2188,136.5547 Q886.5313,135.4844 886.5313,134.2031 L886.5313,133.0469 Q886.5313,131.7188 887.1484,130.5703 Q887.7656,129.4219 888.8594,128.8047 Q889.9531,128.1875 891.1875,128.1875 Q891.9219,128.1875 892.5703,128.3516 Q893.2188,128.5156 893.7656,128.875 Z "/><text fill="#000000" font-family="sans-serif" font-size="12" lengthAdjust="spacingAndGlyphs" textLength="26" x="905" y="137.9102">Role</text><line style="stroke: #A80036; stroke-width: 1.5;" x1="877" x2="933" y1="149" y2="149"/><line style="stroke: #A80036; stroke-width: 1.5;" x1="877" x2="933" y1="157" y2="157"/><!--class UseCaseModel--><rect fill="#008000" filter="url(#f15n59esvxh25w)" height="48" id="UseCaseModel" style="stroke: #A80036; stroke-width: 1.5;" width="124" x="6" y="352"/><rect fill="#008000" height="32" style="stroke: #A80036; stroke-width: 1.5;" width="124" x="6" y="352"/><ellipse cx="21" cy="368" fill="#ADD1B2" rx="11" ry="11" style="stroke: #A80036; stroke-width: 1.0;"/><path d="M23.7656,363.875 Q23.9219,363.6563 24.1094,363.5469 Q24.2969,363.4375 24.5156,363.4375 Q24.8906,363.4375 25.125,363.6953 Q25.3594,363.9531 25.3594,364.5625 L25.3594,366.0156 Q25.3594,366.625 25.125,366.8906 Q24.8906,367.1563 24.5156,367.1563 Q24.1719,367.1563 23.9688,366.9531 Q23.7656,366.7656 23.6563,366.25 Q23.6094,365.8906 23.4219,365.7031 Q23.0938,365.3281 22.4844,365.1094 Q21.875,364.8906 21.25,364.8906 Q20.4844,364.8906 19.8516,365.2188 Q19.2188,365.5469 18.7266,366.2969 Q18.2344,367.0469 18.2344,368.0781 L18.2344,369.1719 Q18.2344,370.4063 19.125,371.2266 Q20.0156,372.0469 21.6094,372.0469 Q22.5469,372.0469 23.2031,371.7969 Q23.5938,371.6406 24.0156,371.2031 Q24.2813,370.9375 24.4297,370.8594 Q24.5781,370.7813 24.7813,370.7813 Q25.1094,370.7813 25.3672,371.0391 Q25.625,371.2969 25.625,371.6406 Q25.625,371.9844 25.2813,372.3906 Q24.7813,372.9688 23.9844,373.2969 Q22.9063,373.75 21.6094,373.75 Q20.0938,373.75 18.8906,373.125 Q17.9063,372.625 17.2188,371.5547 Q16.5313,370.4844 16.5313,369.2031 L16.5313,368.0469 Q16.5313,366.7188 17.1484,365.5703 Q17.7656,364.4219 18.8594,363.8047 Q19.9531,363.1875 21.1875,363.1875 Q21.9219,363.1875 22.5703,363.3516 Q23.2188,363.5156 23.7656,363.875 Z "/><text fill="#000000" font-family="sans-serif" font-size="12" lengthAdjust="spacingAndGlyphs" textLength="92" x="35" y="372.9102">Use Case Model</text><line style="stroke: #A80036; stroke-width: 1.5;" x1="7" x2="129" y1="384" y2="384"/><line style="stroke: #A80036; stroke-width: 1.5;" x1="7" x2="129" y1="392" y2="392"/><!--class SupplementaryRequirements--><rect fill="#008000" filter="url(#f15n59esvxh25w)" height="48" id="SupplementaryRequirements" style="stroke: #A80036; stroke-width: 1.5;" width="197" x="165.5" y="352"/><rect fill="#008000" height="32" style="stroke: #A80036; stroke-width: 1.5;" width="197" x="165.5" y="352"/><ellipse cx="180.5" cy="368" fill="#ADD1B2" rx="11" ry="11" style="stroke: #A80036; stroke-width: 1.0;"/><path d="M183.2656,363.875 Q183.4219,363.6563 183.6094,363.5469 Q183.7969,363.4375 184.0156,363.4375 Q184.3906,363.4375 184.625,363.6953 Q184.8594,363.9531 184.8594,364.5625 L184.8594,366.0156 Q184.8594,366.625 184.625,366.8906 Q184.3906,367.1563 184.0156,367.1563 Q183.6719,367.1563 183.4688,366.9531 Q183.2656,366.7656 183.1563,366.25 Q183.1094,365.8906 182.9219,365.7031 Q182.5938,365.3281 181.9844,365.1094 Q181.375,364.8906 180.75,364.8906 Q179.9844,364.8906 179.3516,365.2188 Q178.7188,365.5469 178.2266,366.2969 Q177.7344,367.0469 177.7344,368.0781 L177.7344,369.1719 Q177.7344,370.4063 178.625,371.2266 Q179.5156,372.0469 181.1094,372.0469 Q182.0469,372.0469 182.7031,371.7969 Q183.0938,371.6406 183.5156,371.2031 Q183.7813,370.9375 183.9297,370.8594 Q184.0781,370.7813 184.2813,370.7813 Q184.6094,370.7813 184.8672,371.0391 Q185.125,371.2969 185.125,371.6406 Q185.125,371.9844 184.7813,372.3906 Q184.2813,372.9688 183.4844,373.2969 Q182.4063,373.75 181.1094,373.75 Q179.5938,373.75 178.3906,373.125 Q177.4063,372.625 176.7188,371.5547 Q176.0313,370.4844 176.0313,369.2031 L176.0313,368.0469 Q176.0313,366.7188 176.6484,365.5703 Q177.2656,364.4219 178.3594,363.8047 Q179.4531,363.1875 180.6875,363.1875 Q181.4219,363.1875 182.0703,363.3516 Q182.7188,363.5156 183.2656,363.875 Z "/><text fill="#000000" font-family="sans-serif" font-size="12" lengthAdjust="spacingAndGlyphs" textLength="165" x="194.5" y="372.9102">Supplementary Requirements</text><line style="stroke: #A80036; stroke-width: 1.5;" x1="166.5" x2="361.5" y1="384" y2="384"/><line style="stroke: #A80036; stroke-width: 1.5;" x1="166.5" x2="361.5" y1="392" y2="392"/><!--class CaseUse--><rect fill="#008000" filter="url(#f15n59esvxh25w)" height="48" id="CaseUse" style="stroke: #A80036; stroke-width: 1.5;" width="154" x="398" y="352"/><rect fill="#008000" height="32" style="stroke: #A80036; stroke-width: 1.5;" width="154" x="398" y="352"/><ellipse cx="413" cy="368" fill="#ADD1B2" rx="11" ry="11" style="stroke: #A80036; stroke-width: 1.0;"/><path d="M415.7656,363.875 Q415.9219,363.6563 416.1094,363.5469 Q416.2969,363.4375 416.5156,363.4375 Q416.8906,363.4375 417.125,363.6953 Q417.3594,363.9531 417.3594,364.5625 L417.3594,366.0156 Q417.3594,366.625 417.125,366.8906 Q416.8906,367.1563 416.5156,367.1563 Q416.1719,367.1563 415.9688,366.9531 Q415.7656,366.7656 415.6563,366.25 Q415.6094,365.8906 415.4219,365.7031 Q415.0938,365.3281 414.4844,365.1094 Q413.875,364.8906 413.25,364.8906 Q412.4844,364.8906 411.8516,365.2188 Q411.2188,365.5469 410.7266,366.2969 Q410.2344,367.0469 410.2344,368.0781 L410.2344,369.1719 Q410.2344,370.4063 411.125,371.2266 Q412.0156,372.0469 413.6094,372.0469 Q414.5469,372.0469 415.2031,371.7969 Q415.5938,371.6406 416.0156,371.2031 Q416.2813,370.9375 416.4297,370.8594 Q416.5781,370.7813 416.7813,370.7813 Q417.1094,370.7813 417.3672,371.0391 Q417.625,371.2969 417.625,371.6406 Q417.625,371.9844 417.2813,372.3906 Q416.7813,372.9688 415.9844,373.2969 Q414.9063,373.75 413.6094,373.75 Q412.0938,373.75 410.8906,373.125 Q409.9063,372.625 409.2188,371.5547 Q408.5313,370.4844 408.5313,369.2031 L408.5313,368.0469 Q408.5313,366.7188 409.1484,365.5703 Q409.7656,364.4219 410.8594,363.8047 Q411.9531,363.1875 413.1875,363.1875 Q413.9219,363.1875 414.5703,363.3516 Q415.2188,363.5156 415.7656,363.875 Z "/><text fill="#000000" font-family="sans-serif" font-size="12" lengthAdjust="spacingAndGlyphs" textLength="122" x="427" y="372.9102">Case of use (detailed)</text><line style="stroke: #A80036; stroke-width: 1.5;" x1="399" x2="551" y1="384" y2="384"/><line style="stroke: #A80036; stroke-width: 1.5;" x1="399" x2="551" y1="392" y2="392"/><!--class Glossary--><rect fill="#008000" filter="url(#f15n59esvxh25w)" height="48" id="Glossary" style="stroke: #A80036; stroke-width: 1.5;" width="81" x="587.5" y="352"/><rect fill="#008000" height="32" style="stroke: #A80036; stroke-width: 1.5;" width="81" x="587.5" y="352"/><ellipse cx="602.5" cy="368" fill="#ADD1B2" rx="11" ry="11" style="stroke: #A80036; stroke-width: 1.0;"/><path d="M605.2656,363.875 Q605.4219,363.6563 605.6094,363.5469 Q605.7969,363.4375 606.0156,363.4375 Q606.3906,363.4375 606.625,363.6953 Q606.8594,363.9531 606.8594,364.5625 L606.8594,366.0156 Q606.8594,366.625 606.625,366.8906 Q606.3906,367.1563 606.0156,367.1563 Q605.6719,367.1563 605.4688,366.9531 Q605.2656,366.7656 605.1563,366.25 Q605.1094,365.8906 604.9219,365.7031 Q604.5938,365.3281 603.9844,365.1094 Q603.375,364.8906 602.75,364.8906 Q601.9844,364.8906 601.3516,365.2188 Q600.7188,365.5469 600.2266,366.2969 Q599.7344,367.0469 599.7344,368.0781 L599.7344,369.1719 Q599.7344,370.4063 600.625,371.2266 Q601.5156,372.0469 603.1094,372.0469 Q604.0469,372.0469 604.7031,371.7969 Q605.0938,371.6406 605.5156,371.2031 Q605.7813,370.9375 605.9297,370.8594 Q606.0781,370.7813 606.2813,370.7813 Q606.6094,370.7813 606.8672,371.0391 Q607.125,371.2969 607.125,371.6406 Q607.125,371.9844 606.7813,372.3906 Q606.2813,372.9688 605.4844,373.2969 Q604.4063,373.75 603.1094,373.75 Q601.5938,373.75 600.3906,373.125 Q599.4063,372.625 598.7188,371.5547 Q598.0313,370.4844 598.0313,369.2031 L598.0313,368.0469 Q598.0313,366.7188 598.6484,365.5703 Q599.2656,364.4219 600.3594,363.8047 Q601.4531,363.1875 602.6875,363.1875 Q603.4219,363.1875 604.0703,363.3516 Q604.7188,363.5156 605.2656,363.875 Z "/><text fill="#000000" font-family="sans-serif" font-size="12" lengthAdjust="spacingAndGlyphs" textLength="49" x="616.5" y="372.9102">Glossary</text><line style="stroke: #A80036; stroke-width: 1.5;" x1="588.5" x2="667.5" y1="384" y2="384"/><line style="stroke: #A80036; stroke-width: 1.5;" x1="588.5" x2="667.5" y1="392" y2="392"/><!--class PrototypeUserInterfaceX--><rect fill="#008000" filter="url(#f15n59esvxh25w)" height="48" id="PrototypeUserInterfaceX" style="stroke: #A80036; stroke-width: 1.5;" width="196" x="704" y="352"/><rect fill="#008000" height="32" style="stroke: #A80036; stroke-width: 1.5;" width="196" x="704" y="352"/><ellipse cx="719" cy="368" fill="#ADD1B2" rx="11" ry="11" style="stroke: #A80036; stroke-width: 1.0;"/><path d="M721.7656,363.875 Q721.9219,363.6563 722.1094,363.5469 Q722.2969,363.4375 722.5156,363.4375 Q722.8906,363.4375 723.125,363.6953 Q723.3594,363.9531 723.3594,364.5625 L723.3594,366.0156 Q723.3594,366.625 723.125,366.8906 Q722.8906,367.1563 722.5156,367.1563 Q722.1719,367.1563 721.9688,366.9531 Q721.7656,366.7656 721.6563,366.25 Q721.6094,365.8906 721.4219,365.7031 Q721.0938,365.3281 720.4844,365.1094 Q719.875,364.8906 719.25,364.8906 Q718.4844,364.8906 717.8516,365.2188 Q717.2188,365.5469 716.7266,366.2969 Q716.2344,367.0469 716.2344,368.0781 L716.2344,369.1719 Q716.2344,370.4063 717.125,371.2266 Q718.0156,372.0469 719.6094,372.0469 Q720.5469,372.0469 721.2031,371.7969 Q721.5938,371.6406 722.0156,371.2031 Q722.2813,370.9375 722.4297,370.8594 Q722.5781,370.7813 722.7813,370.7813 Q723.1094,370.7813 723.3672,371.0391 Q723.625,371.2969 723.625,371.6406 Q723.625,371.9844 723.2813,372.3906 Q722.7813,372.9688 721.9844,373.2969 Q720.9063,373.75 719.6094,373.75 Q718.0938,373.75 716.8906,373.125 Q715.9063,372.625 715.2188,371.5547 Q714.5313,370.4844 714.5313,369.2031 L714.5313,368.0469 Q714.5313,366.7188 715.1484,365.5703 Q715.7656,364.4219 716.8594,363.8047 Q717.9531,363.1875 719.1875,363.1875 Q719.9219,363.1875 720.5703,363.3516 Q721.2188,363.5156 721.7656,363.875 Z "/><text fill="#000000" font-family="sans-serif" font-size="12" lengthAdjust="spacingAndGlyphs" textLength="164" x="733" y="372.9102">Prototype of the User Interface</text><line style="stroke: #A80036; stroke-width: 1.5;" x1="705" x2="899" y1="384" y2="384"/><line style="stroke: #A80036; stroke-width: 1.5;" x1="705" x2="899" y1="392" y2="392"/><!--class RequirementsRole--><rect fill="#0000FF" filter="url(#f15n59esvxh25w)" height="48" id="RequirementsRole" style="stroke: #A80036; stroke-width: 1.5;" width="137" x="836.5" y="226"/><rect fill="#0000FF" height="32" style="stroke: #A80036; stroke-width: 1.5;" width="137" x="836.5" y="226"/><ellipse cx="851.5" cy="242" fill="#ADD1B2" rx="11" ry="11" style="stroke: #A80036; stroke-width: 1.0;"/><path d="M854.2656,237.875 Q854.4219,237.6563 854.6094,237.5469 Q854.7969,237.4375 855.0156,237.4375 Q855.3906,237.4375 855.625,237.6953 Q855.8594,237.9531 855.8594,238.5625 L855.8594,240.0156 Q855.8594,240.625 855.625,240.8906 Q855.3906,241.1563 855.0156,241.1563 Q854.6719,241.1563 854.4688,240.9531 Q854.2656,240.7656 854.1563,240.25 Q854.1094,239.8906 853.9219,239.7031 Q853.5938,239.3281 852.9844,239.1094 Q852.375,238.8906 851.75,238.8906 Q850.9844,238.8906 850.3516,239.2188 Q849.7188,239.5469 849.2266,240.2969 Q848.7344,241.0469 848.7344,242.0781 L848.7344,243.1719 Q848.7344,244.4063 849.625,245.2266 Q850.5156,246.0469 852.1094,246.0469 Q853.0469,246.0469 853.7031,245.7969 Q854.0938,245.6406 854.5156,245.2031 Q854.7813,244.9375 854.9297,244.8594 Q855.0781,244.7813 855.2813,244.7813 Q855.6094,244.7813 855.8672,245.0391 Q856.125,245.2969 856.125,245.6406 Q856.125,245.9844 855.7813,246.3906 Q855.2813,246.9688 854.4844,247.2969 Q853.4063,247.75 852.1094,247.75 Q850.5938,247.75 849.3906,247.125 Q848.4063,246.625 847.7188,245.5547 Q847.0313,244.4844 847.0313,243.2031 L847.0313,242.0469 Q847.0313,240.7188 847.6484,239.5703 Q848.2656,238.4219 849.3594,237.8047 Q850.4531,237.1875 851.6875,237.1875 Q852.4219,237.1875 853.0703,237.3516 Q853.7188,237.5156 854.2656,237.875 Z "/><text fill="#000000" font-family="sans-serif" font-size="12" lengthAdjust="spacingAndGlyphs" textLength="105" x="865.5" y="246.9102">RequirementsRole</text><line style="stroke: #A80036; stroke-width: 1.5;" x1="837.5" x2="972.5" y1="258" y2="258"/><line style="stroke: #A80036; stroke-width: 1.5;" x1="837.5" x2="972.5" y1="266" y2="266"/><!--class PrototypeUserInterface--><rect fill="#FF0000" filter="url(#f15n59esvxh25w)" height="48" id="PrototypeUserInterface" style="stroke: #A80036; stroke-width: 1.5;" width="172" x="542" y="226"/><rect fill="#FF0000" height="32" style="stroke: #A80036; stroke-width: 1.5;" width="172" x="542" y="226"/><ellipse cx="557" cy="242" fill="#ADD1B2" rx="11" ry="11" style="stroke: #A80036; stroke-width: 1.0;"/><path d="M559.7656,237.875 Q559.9219,237.6563 560.1094,237.5469 Q560.2969,237.4375 560.5156,237.4375 Q560.8906,237.4375 561.125,237.6953 Q561.3594,237.9531 561.3594,238.5625 L561.3594,240.0156 Q561.3594,240.625 561.125,240.8906 Q560.8906,241.1563 560.5156,241.1563 Q560.1719,241.1563 559.9688,240.9531 Q559.7656,240.7656 559.6563,240.25 Q559.6094,239.8906 559.4219,239.7031 Q559.0938,239.3281 558.4844,239.1094 Q557.875,238.8906 557.25,238.8906 Q556.4844,238.8906 555.8516,239.2188 Q555.2188,239.5469 554.7266,240.2969 Q554.2344,241.0469 554.2344,242.0781 L554.2344,243.1719 Q554.2344,244.4063 555.125,245.2266 Q556.0156,246.0469 557.6094,246.0469 Q558.5469,246.0469 559.2031,245.7969 Q559.5938,245.6406 560.0156,245.2031 Q560.2813,244.9375 560.4297,244.8594 Q560.5781,244.7813 560.7813,244.7813 Q561.1094,244.7813 561.3672,245.0391 Q561.625,245.2969 561.625,245.6406 Q561.625,245.9844 561.2813,246.3906 Q560.7813,246.9688 559.9844,247.2969 Q558.9063,247.75 557.6094,247.75 Q556.0938,247.75 554.8906,247.125 Q553.9063,246.625 553.2188,245.5547 Q552.5313,244.4844 552.5313,243.2031 L552.5313,242.0469 Q552.5313,240.7188 553.1484,239.5703 Q553.7656,238.4219 554.8594,237.8047 Q555.9531,237.1875 557.1875,237.1875 Q557.9219,237.1875 558.5703,237.3516 Q559.2188,237.5156 559.7656,237.875 Z "/><text fill="#000000" font-family="sans-serif" font-size="12" lengthAdjust="spacingAndGlyphs" textLength="140" x="571" y="246.9102">Prototype it User interface</text><line style="stroke: #A80036; stroke-width: 1.5;" x1="543" x2="713" y1="258" y2="258"/><line style="stroke: #A80036; stroke-width: 1.5;" x1="543" x2="713" y1="266" y2="266"/><!--class DesignerUserInterface--><rect fill="#0000FF" filter="url(#f15n59esvxh25w)" height="48" id="DesignerUserInterface" style="stroke: #A80036; stroke-width: 1.5;" width="163" x="935.5" y="352"/><rect fill="#0000FF" height="32" style="stroke: #A80036; stroke-width: 1.5;" width="163" x="935.5" y="352"/><ellipse cx="950.5" cy="368" fill="#ADD1B2" rx="11" ry="11" style="stroke: #A80036; stroke-width: 1.0;"/><path d="M953.2656,363.875 Q953.4219,363.6563 953.6094,363.5469 Q953.7969,363.4375 954.0156,363.4375 Q954.3906,363.4375 954.625,363.6953 Q954.8594,363.9531 954.8594,364.5625 L954.8594,366.0156 Q954.8594,366.625 954.625,366.8906 Q954.3906,367.1563 954.0156,367.1563 Q953.6719,367.1563 953.4688,366.9531 Q953.2656,366.7656 953.1563,366.25 Q953.1094,365.8906 952.9219,365.7031 Q952.5938,365.3281 951.9844,365.1094 Q951.375,364.8906 950.75,364.8906 Q949.9844,364.8906 949.3516,365.2188 Q948.7188,365.5469 948.2266,366.2969 Q947.7344,367.0469 947.7344,368.0781 L947.7344,369.1719 Q947.7344,370.4063 948.625,371.2266 Q949.5156,372.0469 951.1094,372.0469 Q952.0469,372.0469 952.7031,371.7969 Q953.0938,371.6406 953.5156,371.2031 Q953.7813,370.9375 953.9297,370.8594 Q954.0781,370.7813 954.2813,370.7813 Q954.6094,370.7813 954.8672,371.0391 Q955.125,371.2969 955.125,371.6406 Q955.125,371.9844 954.7813,372.3906 Q954.2813,372.9688 953.4844,373.2969 Q952.4063,373.75 951.1094,373.75 Q949.5938,373.75 948.3906,373.125 Q947.4063,372.625 946.7188,371.5547 Q946.0313,370.4844 946.0313,369.2031 L946.0313,368.0469 Q946.0313,366.7188 946.6484,365.5703 Q947.2656,364.4219 948.3594,363.8047 Q949.4531,363.1875 950.6875,363.1875 Q951.4219,363.1875 952.0703,363.3516 Q952.7188,363.5156 953.2656,363.875 Z "/><text fill="#000000" font-family="sans-serif" font-size="12" lengthAdjust="spacingAndGlyphs" textLength="131" x="964.5" y="372.9102">Designer User Interface</text><line style="stroke: #A80036; stroke-width: 1.5;" x1="936.5" x2="1097.5" y1="384" y2="384"/><line style="stroke: #A80036; stroke-width: 1.5;" x1="936.5" x2="1097.5" y1="392" y2="392"/><!--link Activity to RequirementsActivity--><path d="M810.482,73.153 C801.115,87.893 790.83,104.076 782.726,116.828 " fill="none" id="Activity-RequirementsActivity" style="stroke: #A80036; stroke-width: 1.0;"/><polygon fill="none" points="804.61,69.343,821.245,56.217,816.426,76.852,804.61,69.343" style="stroke: #A80036; stroke-width: 1.0;"/><!--link Activity to Role--><path d="M850.972,56.217 C861.641,72.763 876.026,95.07 887.27,112.506 " fill="none" id="Activity-Role" style="stroke: #A80036; stroke-width: 1.0;"/><polygon fill="#A80036" points="890.057,116.828,888.54,107.0967,887.3468,112.6262,881.8172,111.433,890.057,116.828" style="stroke: #A80036; stroke-width: 1.0;"/><!--link RequirementsActivity to RequirementsRole--><path d="M797.727,165.217 C819.36,182.113 848.686,205.017 871.208,222.608 " fill="none" id="RequirementsActivity-RequirementsRole" style="stroke: #A80036; stroke-width: 1.0;"/><polygon fill="#A80036" points="875.331,225.828,870.702,217.1348,871.3911,222.7495,865.7764,223.4386,875.331,225.828" style="stroke: #A80036; stroke-width: 1.0;"/><!--link RequirementsActivity to PrototypeUserInterface--><path d="M721.435,177.589 C700.648,193.476 676.744,211.745 658.319,225.828 " fill="none" id="RequirementsActivity-PrototypeUserInterface" style="stroke: #A80036; stroke-width: 1.0;"/><polygon fill="none" points="717.481,171.801,737.622,165.217,725.982,182.924,717.481,171.801" style="stroke: #A80036; stroke-width: 1.0;"/><!--link PrototypeUserInterface to UseCaseModel--><path d="M541.73,267.194 C445.315,285.746 284.773,317.9967 148,352 C143.867,353.0275 139.626,354.1232 135.355,355.2578 " fill="none" id="PrototypeUserInterface-UseCaseModel" style="stroke: #A80036; stroke-width: 1.0;"/><polygon fill="#A80036" points="130.334,356.6058,140.0636,358.1341,135.1628,355.3087,137.9882,350.408,130.334,356.6058" style="stroke: #A80036; stroke-width: 1.0;"/><text fill="#000000" font-family="sans-serif" font-size="13" lengthAdjust="spacingAndGlyphs" textLength="10" x="359" y="318.4951">in</text><!--link PrototypeUserInterface to SupplementaryRequirements--><path d="M560.387,274.033 C496.768,295.706 401.788,328.0613 336.592,350.2708 " fill="none" id="PrototypeUserInterface-SupplementaryRequirements" style="stroke: #A80036; stroke-width: 1.0;"/><polygon fill="#A80036" points="331.559,351.9856,341.3682,352.8687,336.2917,350.3728,338.7877,345.2963,331.559,351.9856" style="stroke: #A80036; stroke-width: 1.0;"/><text fill="#000000" font-family="sans-serif" font-size="13" lengthAdjust="spacingAndGlyphs" textLength="10" x="469" y="318.4951">in</text><!--link PrototypeUserInterface to CaseUse--><path d="M599.58,274.033 C573.47,295.194 534.792,326.5411 507.472,348.6827 " fill="none" id="PrototypeUserInterface-CaseUse" style="stroke: #A80036; stroke-width: 1.0;"/><polygon fill="#A80036" points="503.527,351.8804,513.0374,349.3206,507.4113,348.732,507.9999,343.1058,503.527,351.8804" style="stroke: #A80036; stroke-width: 1.0;"/><text fill="#000000" font-family="sans-serif" font-size="13" lengthAdjust="spacingAndGlyphs" textLength="10" x="562" y="318.4951">in</text><!--link PrototypeUserInterface to Glossary--><path d="M628,274.033 C628,294.522 628,324.5607 628,346.5464 " fill="none" id="PrototypeUserInterface-Glossary" style="stroke: #A80036; stroke-width: 1.0;"/><polygon fill="#A80036" points="628,351.6697,632,342.6697,628,346.6697,624,342.6697,628,351.6697" style="stroke: #A80036; stroke-width: 1.0;"/><text fill="#000000" font-family="sans-serif" font-size="13" lengthAdjust="spacingAndGlyphs" textLength="10" x="629" y="318.4951">in</text><!--link PrototypeUserInterface to PrototypeUserInterfaceX--><path d="M660.32,274.033 C690.136,295.281 734.362,326.7982 765.452,348.9545 " fill="none" id="PrototypeUserInterface-PrototypeUserInterfaceX" style="stroke: #A80036; stroke-width: 1.0;"/><polygon fill="#A80036" points="769.558,351.8804,764.5496,343.4001,765.486,348.9789,759.9072,349.9152,769.558,351.8804" style="stroke: #A80036; stroke-width: 1.0;"/><text fill="#000000" font-family="sans-serif" font-size="13" lengthAdjust="spacingAndGlyphs" textLength="18" x="727" y="318.4951">out</text><!--link PrototypeUserInterface to DesignerUserInterface--><path d="M700.256,274.033 C768.382,295.749 870.156,328.191 939.841,350.4042 " fill="none" id="PrototypeUserInterface-DesignerUserInterface" style="stroke: #A80036; stroke-width: 1.0;"/><polygon fill="#A80036" points="944.801,351.9856,937.441,345.4411,940.0372,350.467,935.0113,353.0632,944.801,351.9856" style="stroke: #A80036; stroke-width: 1.0;"/><!--link Role to RequirementsRole--><path d="M905,185.578 C905,199.362 905,214.057 905,225.828 " fill="none" id="Role-RequirementsRole" style="stroke: #A80036; stroke-width: 1.0;"/><polygon fill="none" points="898,185.217,905,165.217,912,185.217,898,185.217" style="stroke: #A80036; stroke-width: 1.0;"/><!--link RequirementsRole to DesignerUserInterface--><path d="M939.336,289.015 C957.811,309.469 980.005,334.0409 995.927,351.6697 " fill="none" id="RequirementsRole-DesignerUserInterface" style="stroke: #A80036; stroke-width: 1.0;"/><polygon fill="none" points="934.015,293.567,925.804,274.033,944.404,284.183,934.015,293.567" style="stroke: #A80036; stroke-width: 1.0;"/><!--
@startuml

class Activity #red
Activity <|- - RequirementsActivity
Activity - -> Role

class "Use Case Model" as UseCaseModel #green
class "Supplementary Requirements" as SupplementaryRequirements #green
class "Case of use (detailed)" as CaseUse #green
class Glossary #green
class "Prototype of the User Interface" as PrototypeUserInterfaceX #green

class RequirementsActivity #red
RequirementsActivity - -> RequirementsRole

class "Prototype it User interface" as PrototypeUserInterface #red
RequirementsActivity <|- - PrototypeUserInterface

PrototypeUserInterface - -> UseCaseModel :in
PrototypeUserInterface - -> SupplementaryRequirements :in
PrototypeUserInterface - -> CaseUse :in
PrototypeUserInterface - -> Glossary :in
PrototypeUserInterface - -> PrototypeUserInterfaceX :out

class Role #blue
class RequirementsRole #blue
class "Designer User Interface" as DesignerUserInterface #blue

PrototypeUserInterface - -> DesignerUserInterface

Role <|- - RequirementsRole
RequirementsRole <|- - DesignerUserInterface
@enduml

PlantUML version 1.2019.05(Sat Apr 20 18:45:36 CEST 2019)
(GPL source distribution)
Java Runtime: OpenJDK Runtime Environment
JVM: OpenJDK 64-Bit Server VM
Java Version: 1.8.0_222-b10
Operating System: Windows 10
OS Version: 10.0
Default Encoding: windows-1252
Language: es
Country: ES
--></g></svg>