<?xml version="1.0" encoding="UTF-8" standalone="no"?><svg xmlns="http://www.w3.org/2000/svg" xmlns:xlink="http://www.w3.org/1999/xlink" contentScriptType="application/ecmascript" contentStyleType="text/css" height="411px" preserveAspectRatio="none" style="width:684px;height:411px;" version="1.1" viewBox="0 0 684 411" width="684px" zoomAndPan="magnify"><defs><filter height="300%" id="f1fauq7j7xktym" width="300%" x="-1" y="-1"><feGaussianBlur result="blurOut" stdDeviation="2.0"/><feColorMatrix in="blurOut" result="blurOut2" type="matrix" values="0 0 0 0 0 0 0 0 0 0 0 0 0 0 0 0 0 0 .4 0"/><feOffset dx="4.0" dy="4.0" in="blurOut2" result="blurOut3"/><feBlend in="SourceGraphic" in2="blurOut3" mode="normal"/></filter></defs><g><!--class Activity--><rect fill="#FF0000" filter="url(#f1fauq7j7xktym)" height="48" id="Activity" style="stroke: #A80036; stroke-width: 1.5;" width="67" x="472" y="8"/><rect fill="#FF0000" height="32" style="stroke: #A80036; stroke-width: 1.5;" width="67" x="472" y="8"/><ellipse cx="487" cy="24" fill="#ADD1B2" rx="11" ry="11" style="stroke: #A80036; stroke-width: 1.0;"/><path d="M489.7656,19.875 Q489.9219,19.6563 490.1094,19.5469 Q490.2969,19.4375 490.5156,19.4375 Q490.8906,19.4375 491.125,19.6953 Q491.3594,19.9531 491.3594,20.5625 L491.3594,22.0156 Q491.3594,22.625 491.125,22.8906 Q490.8906,23.1563 490.5156,23.1563 Q490.1719,23.1563 489.9688,22.9531 Q489.7656,22.7656 489.6563,22.25 Q489.6094,21.8906 489.4219,21.7031 Q489.0938,21.3281 488.4844,21.1094 Q487.875,20.8906 487.25,20.8906 Q486.4844,20.8906 485.8516,21.2188 Q485.2188,21.5469 484.7266,22.2969 Q484.2344,23.0469 484.2344,24.0781 L484.2344,25.1719 Q484.2344,26.4063 485.125,27.2266 Q486.0156,28.0469 487.6094,28.0469 Q488.5469,28.0469 489.2031,27.7969 Q489.5938,27.6406 490.0156,27.2031 Q490.2813,26.9375 490.4297,26.8594 Q490.5781,26.7813 490.7813,26.7813 Q491.1094,26.7813 491.3672,27.0391 Q491.625,27.2969 491.625,27.6406 Q491.625,27.9844 491.2813,28.3906 Q490.7813,28.9688 489.9844,29.2969 Q488.9063,29.75 487.6094,29.75 Q486.0938,29.75 484.8906,29.125 Q483.9063,28.625 483.2188,27.5547 Q482.5313,26.4844 482.5313,25.2031 L482.5313,24.0469 Q482.5313,22.7188 483.1484,21.5703 Q483.7656,20.4219 484.8594,19.8047 Q485.9531,19.1875 487.1875,19.1875 Q487.9219,19.1875 488.5703,19.3516 Q489.2188,19.5156 489.7656,19.875 Z "/><text fill="#000000" font-family="sans-serif" font-size="12" lengthAdjust="spacingAndGlyphs" textLength="35" x="501" y="28.9102">Activity</text><line style="stroke: #A80036; stroke-width: 1.5;" x1="473" x2="538" y1="40" y2="40"/><line style="stroke: #A80036; stroke-width: 1.5;" x1="473" x2="538" y1="48" y2="48"/><!--class ImplementationActivity--><rect fill="#FF0000" filter="url(#f1fauq7j7xktym)" height="48" id="ImplementationActivity" style="stroke: #A80036; stroke-width: 1.5;" width="153" x="359" y="117"/><rect fill="#FF0000" height="32" style="stroke: #A80036; stroke-width: 1.5;" width="153" x="359" y="117"/><ellipse cx="374" cy="133" fill="#ADD1B2" rx="11" ry="11" style="stroke: #A80036; stroke-width: 1.0;"/><path d="M376.7656,128.875 Q376.9219,128.6563 377.1094,128.5469 Q377.2969,128.4375 377.5156,128.4375 Q377.8906,128.4375 378.125,128.6953 Q378.3594,128.9531 378.3594,129.5625 L378.3594,131.0156 Q378.3594,131.625 378.125,131.8906 Q377.8906,132.1563 377.5156,132.1563 Q377.1719,132.1563 376.9688,131.9531 Q376.7656,131.7656 376.6563,131.25 Q376.6094,130.8906 376.4219,130.7031 Q376.0938,130.3281 375.4844,130.1094 Q374.875,129.8906 374.25,129.8906 Q373.4844,129.8906 372.8516,130.2188 Q372.2188,130.5469 371.7266,131.2969 Q371.2344,132.0469 371.2344,133.0781 L371.2344,134.1719 Q371.2344,135.4063 372.125,136.2266 Q373.0156,137.0469 374.6094,137.0469 Q375.5469,137.0469 376.2031,136.7969 Q376.5938,136.6406 377.0156,136.2031 Q377.2813,135.9375 377.4297,135.8594 Q377.5781,135.7813 377.7813,135.7813 Q378.1094,135.7813 378.3672,136.0391 Q378.625,136.2969 378.625,136.6406 Q378.625,136.9844 378.2813,137.3906 Q377.7813,137.9688 376.9844,138.2969 Q375.9063,138.75 374.6094,138.75 Q373.0938,138.75 371.8906,138.125 Q370.9063,137.625 370.2188,136.5547 Q369.5313,135.4844 369.5313,134.2031 L369.5313,133.0469 Q369.5313,131.7188 370.1484,130.5703 Q370.7656,129.4219 371.8594,128.8047 Q372.9531,128.1875 374.1875,128.1875 Q374.9219,128.1875 375.5703,128.3516 Q376.2188,128.5156 376.7656,128.875 Z "/><text fill="#000000" font-family="sans-serif" font-size="12" lengthAdjust="spacingAndGlyphs" textLength="121" x="388" y="137.9102">ImplementationActivity</text><line style="stroke: #A80036; stroke-width: 1.5;" x1="360" x2="511" y1="149" y2="149"/><line style="stroke: #A80036; stroke-width: 1.5;" x1="360" x2="511" y1="157" y2="157"/><!--class Role--><rect fill="#0000FF" filter="url(#f1fauq7j7xktym)" height="48" id="Role" style="stroke: #A80036; stroke-width: 1.5;" width="58" x="547.5" y="117"/><rect fill="#0000FF" height="32" style="stroke: #A80036; stroke-width: 1.5;" width="58" x="547.5" y="117"/><ellipse cx="562.5" cy="133" fill="#ADD1B2" rx="11" ry="11" style="stroke: #A80036; stroke-width: 1.0;"/><path d="M565.2656,128.875 Q565.4219,128.6563 565.6094,128.5469 Q565.7969,128.4375 566.0156,128.4375 Q566.3906,128.4375 566.625,128.6953 Q566.8594,128.9531 566.8594,129.5625 L566.8594,131.0156 Q566.8594,131.625 566.625,131.8906 Q566.3906,132.1563 566.0156,132.1563 Q565.6719,132.1563 565.4688,131.9531 Q565.2656,131.7656 565.1563,131.25 Q565.1094,130.8906 564.9219,130.7031 Q564.5938,130.3281 563.9844,130.1094 Q563.375,129.8906 562.75,129.8906 Q561.9844,129.8906 561.3516,130.2188 Q560.7188,130.5469 560.2266,131.2969 Q559.7344,132.0469 559.7344,133.0781 L559.7344,134.1719 Q559.7344,135.4063 560.625,136.2266 Q561.5156,137.0469 563.1094,137.0469 Q564.0469,137.0469 564.7031,136.7969 Q565.0938,136.6406 565.5156,136.2031 Q565.7813,135.9375 565.9297,135.8594 Q566.0781,135.7813 566.2813,135.7813 Q566.6094,135.7813 566.8672,136.0391 Q567.125,136.2969 567.125,136.6406 Q567.125,136.9844 566.7813,137.3906 Q566.2813,137.9688 565.4844,138.2969 Q564.4063,138.75 563.1094,138.75 Q561.5938,138.75 560.3906,138.125 Q559.4063,137.625 558.7188,136.5547 Q558.0313,135.4844 558.0313,134.2031 L558.0313,133.0469 Q558.0313,131.7188 558.6484,130.5703 Q559.2656,129.4219 560.3594,128.8047 Q561.4531,128.1875 562.6875,128.1875 Q563.4219,128.1875 564.0703,128.3516 Q564.7188,128.5156 565.2656,128.875 Z "/><text fill="#000000" font-family="sans-serif" font-size="12" lengthAdjust="spacingAndGlyphs" textLength="26" x="576.5" y="137.9102">Role</text><line style="stroke: #A80036; stroke-width: 1.5;" x1="548.5" x2="604.5" y1="149" y2="149"/><line style="stroke: #A80036; stroke-width: 1.5;" x1="548.5" x2="604.5" y1="157" y2="157"/><!--class Component--><rect fill="#008000" filter="url(#f1fauq7j7xktym)" height="48" id="Component" style="stroke: #A80036; stroke-width: 1.5;" width="181" x="6" y="352"/><rect fill="#008000" height="32" style="stroke: #A80036; stroke-width: 1.5;" width="181" x="6" y="352"/><ellipse cx="21" cy="368" fill="#ADD1B2" rx="11" ry="11" style="stroke: #A80036; stroke-width: 1.0;"/><path d="M23.7656,363.875 Q23.9219,363.6563 24.1094,363.5469 Q24.2969,363.4375 24.5156,363.4375 Q24.8906,363.4375 25.125,363.6953 Q25.3594,363.9531 25.3594,364.5625 L25.3594,366.0156 Q25.3594,366.625 25.125,366.8906 Q24.8906,367.1563 24.5156,367.1563 Q24.1719,367.1563 23.9688,366.9531 Q23.7656,366.7656 23.6563,366.25 Q23.6094,365.8906 23.4219,365.7031 Q23.0938,365.3281 22.4844,365.1094 Q21.875,364.8906 21.25,364.8906 Q20.4844,364.8906 19.8516,365.2188 Q19.2188,365.5469 18.7266,366.2969 Q18.2344,367.0469 18.2344,368.0781 L18.2344,369.1719 Q18.2344,370.4063 19.125,371.2266 Q20.0156,372.0469 21.6094,372.0469 Q22.5469,372.0469 23.2031,371.7969 Q23.5938,371.6406 24.0156,371.2031 Q24.2813,370.9375 24.4297,370.8594 Q24.5781,370.7813 24.7813,370.7813 Q25.1094,370.7813 25.3672,371.0391 Q25.625,371.2969 25.625,371.6406 Q25.625,371.9844 25.2813,372.3906 Q24.7813,372.9688 23.9844,373.2969 Q22.9063,373.75 21.6094,373.75 Q20.0938,373.75 18.8906,373.125 Q17.9063,372.625 17.2188,371.5547 Q16.5313,370.4844 16.5313,369.2031 L16.5313,368.0469 Q16.5313,366.7188 17.1484,365.5703 Q17.7656,364.4219 18.8594,363.8047 Q19.9531,363.1875 21.1875,363.1875 Q21.9219,363.1875 22.5703,363.3516 Q23.2188,363.5156 23.7656,363.875 Z "/><text fill="#000000" font-family="sans-serif" font-size="12" lengthAdjust="spacingAndGlyphs" textLength="149" x="35" y="372.9102">Component (implemented)</text><line style="stroke: #A80036; stroke-width: 1.5;" x1="7" x2="186" y1="384" y2="384"/><line style="stroke: #A80036; stroke-width: 1.5;" x1="7" x2="186" y1="392" y2="392"/><!--class Interface--><rect fill="#008000" filter="url(#f1fauq7j7xktym)" height="48" id="Interface" style="stroke: #A80036; stroke-width: 1.5;" width="79" x="222" y="352"/><rect fill="#008000" height="32" style="stroke: #A80036; stroke-width: 1.5;" width="79" x="222" y="352"/><ellipse cx="237" cy="368" fill="#ADD1B2" rx="11" ry="11" style="stroke: #A80036; stroke-width: 1.0;"/><path d="M239.7656,363.875 Q239.9219,363.6563 240.1094,363.5469 Q240.2969,363.4375 240.5156,363.4375 Q240.8906,363.4375 241.125,363.6953 Q241.3594,363.9531 241.3594,364.5625 L241.3594,366.0156 Q241.3594,366.625 241.125,366.8906 Q240.8906,367.1563 240.5156,367.1563 Q240.1719,367.1563 239.9688,366.9531 Q239.7656,366.7656 239.6563,366.25 Q239.6094,365.8906 239.4219,365.7031 Q239.0938,365.3281 238.4844,365.1094 Q237.875,364.8906 237.25,364.8906 Q236.4844,364.8906 235.8516,365.2188 Q235.2188,365.5469 234.7266,366.2969 Q234.2344,367.0469 234.2344,368.0781 L234.2344,369.1719 Q234.2344,370.4063 235.125,371.2266 Q236.0156,372.0469 237.6094,372.0469 Q238.5469,372.0469 239.2031,371.7969 Q239.5938,371.6406 240.0156,371.2031 Q240.2813,370.9375 240.4297,370.8594 Q240.5781,370.7813 240.7813,370.7813 Q241.1094,370.7813 241.3672,371.0391 Q241.625,371.2969 241.625,371.6406 Q241.625,371.9844 241.2813,372.3906 Q240.7813,372.9688 239.9844,373.2969 Q238.9063,373.75 237.6094,373.75 Q236.0938,373.75 234.8906,373.125 Q233.9063,372.625 233.2188,371.5547 Q232.5313,370.4844 232.5313,369.2031 L232.5313,368.0469 Q232.5313,366.7188 233.1484,365.5703 Q233.7656,364.4219 234.8594,363.8047 Q235.9531,363.1875 237.1875,363.1875 Q237.9219,363.1875 238.5703,363.3516 Q239.2188,363.5156 239.7656,363.875 Z "/><text fill="#000000" font-family="sans-serif" font-size="12" lengthAdjust="spacingAndGlyphs" textLength="47" x="251" y="372.9102">Interface</text><line style="stroke: #A80036; stroke-width: 1.5;" x1="223" x2="300" y1="384" y2="384"/><line style="stroke: #A80036; stroke-width: 1.5;" x1="223" x2="300" y1="392" y2="392"/><!--class ComponentX--><rect fill="#008000" filter="url(#f1fauq7j7xktym)" height="48" id="ComponentX" style="stroke: #A80036; stroke-width: 1.5;" width="132" x="336.5" y="352"/><rect fill="#008000" height="32" style="stroke: #A80036; stroke-width: 1.5;" width="132" x="336.5" y="352"/><ellipse cx="351.5" cy="368" fill="#ADD1B2" rx="11" ry="11" style="stroke: #A80036; stroke-width: 1.0;"/><path d="M354.2656,363.875 Q354.4219,363.6563 354.6094,363.5469 Q354.7969,363.4375 355.0156,363.4375 Q355.3906,363.4375 355.625,363.6953 Q355.8594,363.9531 355.8594,364.5625 L355.8594,366.0156 Q355.8594,366.625 355.625,366.8906 Q355.3906,367.1563 355.0156,367.1563 Q354.6719,367.1563 354.4688,366.9531 Q354.2656,366.7656 354.1563,366.25 Q354.1094,365.8906 353.9219,365.7031 Q353.5938,365.3281 352.9844,365.1094 Q352.375,364.8906 351.75,364.8906 Q350.9844,364.8906 350.3516,365.2188 Q349.7188,365.5469 349.2266,366.2969 Q348.7344,367.0469 348.7344,368.0781 L348.7344,369.1719 Q348.7344,370.4063 349.625,371.2266 Q350.5156,372.0469 352.1094,372.0469 Q353.0469,372.0469 353.7031,371.7969 Q354.0938,371.6406 354.5156,371.2031 Q354.7813,370.9375 354.9297,370.8594 Q355.0781,370.7813 355.2813,370.7813 Q355.6094,370.7813 355.8672,371.0391 Q356.125,371.2969 356.125,371.6406 Q356.125,371.9844 355.7813,372.3906 Q355.2813,372.9688 354.4844,373.2969 Q353.4063,373.75 352.1094,373.75 Q350.5938,373.75 349.3906,373.125 Q348.4063,372.625 347.7188,371.5547 Q347.0313,370.4844 347.0313,369.2031 L347.0313,368.0469 Q347.0313,366.7188 347.6484,365.5703 Q348.2656,364.4219 349.3594,363.8047 Q350.4531,363.1875 351.6875,363.1875 Q352.4219,363.1875 353.0703,363.3516 Q353.7188,363.5156 354.2656,363.875 Z "/><text fill="#000000" font-family="sans-serif" font-size="12" lengthAdjust="spacingAndGlyphs" textLength="100" x="365.5" y="372.9102">Component (tried)</text><line style="stroke: #A80036; stroke-width: 1.5;" x1="337.5" x2="467.5" y1="384" y2="384"/><line style="stroke: #A80036; stroke-width: 1.5;" x1="337.5" x2="467.5" y1="392" y2="392"/><!--class ImplementationRole--><rect fill="#0000FF" filter="url(#f1fauq7j7xktym)" height="48" id="ImplementationRole" style="stroke: #A80036; stroke-width: 1.5;" width="144" x="504.5" y="226"/><rect fill="#0000FF" height="32" style="stroke: #A80036; stroke-width: 1.5;" width="144" x="504.5" y="226"/><ellipse cx="519.5" cy="242" fill="#ADD1B2" rx="11" ry="11" style="stroke: #A80036; stroke-width: 1.0;"/><path d="M522.2656,237.875 Q522.4219,237.6563 522.6094,237.5469 Q522.7969,237.4375 523.0156,237.4375 Q523.3906,237.4375 523.625,237.6953 Q523.8594,237.9531 523.8594,238.5625 L523.8594,240.0156 Q523.8594,240.625 523.625,240.8906 Q523.3906,241.1563 523.0156,241.1563 Q522.6719,241.1563 522.4688,240.9531 Q522.2656,240.7656 522.1563,240.25 Q522.1094,239.8906 521.9219,239.7031 Q521.5938,239.3281 520.9844,239.1094 Q520.375,238.8906 519.75,238.8906 Q518.9844,238.8906 518.3516,239.2188 Q517.7188,239.5469 517.2266,240.2969 Q516.7344,241.0469 516.7344,242.0781 L516.7344,243.1719 Q516.7344,244.4063 517.625,245.2266 Q518.5156,246.0469 520.1094,246.0469 Q521.0469,246.0469 521.7031,245.7969 Q522.0938,245.6406 522.5156,245.2031 Q522.7813,244.9375 522.9297,244.8594 Q523.0781,244.7813 523.2813,244.7813 Q523.6094,244.7813 523.8672,245.0391 Q524.125,245.2969 524.125,245.6406 Q524.125,245.9844 523.7813,246.3906 Q523.2813,246.9688 522.4844,247.2969 Q521.4063,247.75 520.1094,247.75 Q518.5938,247.75 517.3906,247.125 Q516.4063,246.625 515.7188,245.5547 Q515.0313,244.4844 515.0313,243.2031 L515.0313,242.0469 Q515.0313,240.7188 515.6484,239.5703 Q516.2656,238.4219 517.3594,237.8047 Q518.4531,237.1875 519.6875,237.1875 Q520.4219,237.1875 521.0703,237.3516 Q521.7188,237.5156 522.2656,237.875 Z "/><text fill="#000000" font-family="sans-serif" font-size="12" lengthAdjust="spacingAndGlyphs" textLength="112" x="533.5" y="246.9102">ImplementationRole</text><line style="stroke: #A80036; stroke-width: 1.5;" x1="505.5" x2="647.5" y1="258" y2="258"/><line style="stroke: #A80036; stroke-width: 1.5;" x1="505.5" x2="647.5" y1="266" y2="266"/><!--class TakeUnitTest--><rect fill="#FF0000" filter="url(#f1fauq7j7xktym)" height="48" id="TakeUnitTest" style="stroke: #A80036; stroke-width: 1.5;" width="111" x="347" y="226"/><rect fill="#FF0000" height="32" style="stroke: #A80036; stroke-width: 1.5;" width="111" x="347" y="226"/><ellipse cx="362" cy="242" fill="#ADD1B2" rx="11" ry="11" style="stroke: #A80036; stroke-width: 1.0;"/><path d="M364.7656,237.875 Q364.9219,237.6563 365.1094,237.5469 Q365.2969,237.4375 365.5156,237.4375 Q365.8906,237.4375 366.125,237.6953 Q366.3594,237.9531 366.3594,238.5625 L366.3594,240.0156 Q366.3594,240.625 366.125,240.8906 Q365.8906,241.1563 365.5156,241.1563 Q365.1719,241.1563 364.9688,240.9531 Q364.7656,240.7656 364.6563,240.25 Q364.6094,239.8906 364.4219,239.7031 Q364.0938,239.3281 363.4844,239.1094 Q362.875,238.8906 362.25,238.8906 Q361.4844,238.8906 360.8516,239.2188 Q360.2188,239.5469 359.7266,240.2969 Q359.2344,241.0469 359.2344,242.0781 L359.2344,243.1719 Q359.2344,244.4063 360.125,245.2266 Q361.0156,246.0469 362.6094,246.0469 Q363.5469,246.0469 364.2031,245.7969 Q364.5938,245.6406 365.0156,245.2031 Q365.2813,244.9375 365.4297,244.8594 Q365.5781,244.7813 365.7813,244.7813 Q366.1094,244.7813 366.3672,245.0391 Q366.625,245.2969 366.625,245.6406 Q366.625,245.9844 366.2813,246.3906 Q365.7813,246.9688 364.9844,247.2969 Q363.9063,247.75 362.6094,247.75 Q361.0938,247.75 359.8906,247.125 Q358.9063,246.625 358.2188,245.5547 Q357.5313,244.4844 357.5313,243.2031 L357.5313,242.0469 Q357.5313,240.7188 358.1484,239.5703 Q358.7656,238.4219 359.8594,237.8047 Q360.9531,237.1875 362.1875,237.1875 Q362.9219,237.1875 363.5703,237.3516 Q364.2188,237.5156 364.7656,237.875 Z "/><text fill="#000000" font-family="sans-serif" font-size="12" lengthAdjust="spacingAndGlyphs" textLength="79" x="376" y="246.9102">Take Unit Test</text><line style="stroke: #A80036; stroke-width: 1.5;" x1="348" x2="457" y1="258" y2="258"/><line style="stroke: #A80036; stroke-width: 1.5;" x1="348" x2="457" y1="266" y2="266"/><!--class EngineerComponents--><rect fill="#0000FF" filter="url(#f1fauq7j7xktym)" height="48" id="EngineerComponents" style="stroke: #A80036; stroke-width: 1.5;" width="170" x="503.5" y="352"/><rect fill="#0000FF" height="32" style="stroke: #A80036; stroke-width: 1.5;" width="170" x="503.5" y="352"/><ellipse cx="518.5" cy="368" fill="#ADD1B2" rx="11" ry="11" style="stroke: #A80036; stroke-width: 1.0;"/><path d="M521.2656,363.875 Q521.4219,363.6563 521.6094,363.5469 Q521.7969,363.4375 522.0156,363.4375 Q522.3906,363.4375 522.625,363.6953 Q522.8594,363.9531 522.8594,364.5625 L522.8594,366.0156 Q522.8594,366.625 522.625,366.8906 Q522.3906,367.1563 522.0156,367.1563 Q521.6719,367.1563 521.4688,366.9531 Q521.2656,366.7656 521.1563,366.25 Q521.1094,365.8906 520.9219,365.7031 Q520.5938,365.3281 519.9844,365.1094 Q519.375,364.8906 518.75,364.8906 Q517.9844,364.8906 517.3516,365.2188 Q516.7188,365.5469 516.2266,366.2969 Q515.7344,367.0469 515.7344,368.0781 L515.7344,369.1719 Q515.7344,370.4063 516.625,371.2266 Q517.5156,372.0469 519.1094,372.0469 Q520.0469,372.0469 520.7031,371.7969 Q521.0938,371.6406 521.5156,371.2031 Q521.7813,370.9375 521.9297,370.8594 Q522.0781,370.7813 522.2813,370.7813 Q522.6094,370.7813 522.8672,371.0391 Q523.125,371.2969 523.125,371.6406 Q523.125,371.9844 522.7813,372.3906 Q522.2813,372.9688 521.4844,373.2969 Q520.4063,373.75 519.1094,373.75 Q517.5938,373.75 516.3906,373.125 Q515.4063,372.625 514.7188,371.5547 Q514.0313,370.4844 514.0313,369.2031 L514.0313,368.0469 Q514.0313,366.7188 514.6484,365.5703 Q515.2656,364.4219 516.3594,363.8047 Q517.4531,363.1875 518.6875,363.1875 Q519.4219,363.1875 520.0703,363.3516 Q520.7188,363.5156 521.2656,363.875 Z "/><text fill="#000000" font-family="sans-serif" font-size="12" lengthAdjust="spacingAndGlyphs" textLength="138" x="532.5" y="372.9102">Engineer of Components</text><line style="stroke: #A80036; stroke-width: 1.5;" x1="504.5" x2="672.5" y1="384" y2="384"/><line style="stroke: #A80036; stroke-width: 1.5;" x1="504.5" x2="672.5" y1="392" y2="392"/><!--link Activity to ImplementationActivity--><path d="M479.232,73.153 C469.589,87.893 459.001,104.076 450.659,116.828 " fill="none" id="Activity-ImplementationActivity" style="stroke: #A80036; stroke-width: 1.0;"/><polygon fill="none" points="473.504,69.122,490.311,56.217,485.22,76.786,473.504,69.122" style="stroke: #A80036; stroke-width: 1.0;"/><!--link Activity to Role--><path d="M520.906,56.217 C531.885,72.763 546.686,95.07 558.256,112.506 " fill="none" id="Activity-Role" style="stroke: #A80036; stroke-width: 1.0;"/><polygon fill="#A80036" points="561.124,116.828,559.4822,107.1169,558.3601,112.6614,552.8156,111.5392,561.124,116.828" style="stroke: #A80036; stroke-width: 1.0;"/><!--link ImplementationActivity to ImplementationRole--><path d="M466.095,165.217 C488.36,182.113 518.542,205.017 541.722,222.608 " fill="none" id="ImplementationActivity-ImplementationRole" style="stroke: #A80036; stroke-width: 1.0;"/><polygon fill="#A80036" points="545.965,225.828,541.2142,217.2007,541.9822,222.8052,536.3777,223.5732,545.965,225.828" style="stroke: #A80036; stroke-width: 1.0;"/><!--link ImplementationActivity to TakeUnitTest--><path d="M422.363,184.595 C418.025,198.661 413.363,213.777 409.647,225.828 " fill="none" id="ImplementationActivity-TakeUnitTest" style="stroke: #A80036; stroke-width: 1.0;"/><polygon fill="none" points="415.756,182.266,428.339,165.217,429.134,186.392,415.756,182.266" style="stroke: #A80036; stroke-width: 1.0;"/><!--link TakeUnitTest to Component--><path d="M346.731,273.599 C293.518,295.162 213.514,327.5826 158.365,349.9304 " fill="none" id="TakeUnitTest-Component" style="stroke: #A80036; stroke-width: 1.0;"/><polygon fill="#A80036" points="153.441,351.9258,163.2844,352.2542,158.0752,350.0486,160.2808,344.8394,153.441,351.9258" style="stroke: #A80036; stroke-width: 1.0;"/><text fill="#000000" font-family="sans-serif" font-size="13" lengthAdjust="spacingAndGlyphs" textLength="10" x="269.5" y="318.4951">in</text><!--link TakeUnitTest to Interface--><path d="M376.309,274.033 C352.421,295.041 317.118,326.0877 291.974,348.2004 " fill="none" id="TakeUnitTest-Interface" style="stroke: #A80036; stroke-width: 1.0;"/><polygon fill="#A80036" points="288.029,351.6697,297.4291,348.7307,291.7839,348.3681,292.1466,342.7229,288.029,351.6697" style="stroke: #A80036; stroke-width: 1.0;"/><text fill="#000000" font-family="sans-serif" font-size="13" lengthAdjust="spacingAndGlyphs" textLength="10" x="341.5" y="318.4951">in</text><!--link TakeUnitTest to ComponentX--><path d="M402.5,274.033 C402.5,294.522 402.5,324.5607 402.5,346.5464 " fill="none" id="TakeUnitTest-ComponentX" style="stroke: #A80036; stroke-width: 1.0;"/><polygon fill="#A80036" points="402.5,351.6697,406.5,342.6697,402.5,346.6697,398.5,342.6697,402.5,351.6697" style="stroke: #A80036; stroke-width: 1.0;"/><text fill="#000000" font-family="sans-serif" font-size="13" lengthAdjust="spacingAndGlyphs" textLength="18" x="403.5" y="318.4951">out</text><!--link TakeUnitTest to EngineerComponents--><path d="M437.049,274.033 C468.922,295.281 516.197,326.7982 549.432,348.9545 " fill="none" id="TakeUnitTest-EngineerComponents" style="stroke: #A80036; stroke-width: 1.0;"/><polygon fill="#A80036" points="553.821,351.8804,548.5504,343.5605,549.6604,349.1074,544.1136,350.2174,553.821,351.8804" style="stroke: #A80036; stroke-width: 1.0;"/><!--link Role to ImplementationRole--><path d="M576.5,185.578 C576.5,199.362 576.5,214.057 576.5,225.828 " fill="none" id="Role-ImplementationRole" style="stroke: #A80036; stroke-width: 1.0;"/><polygon fill="none" points="569.5,185.217,576.5,165.217,583.5,185.217,569.5,185.217" style="stroke: #A80036; stroke-width: 1.0;"/><!--link ImplementationRole to EngineerComponents--><path d="M580.684,294.234 C582.552,313.5358 584.679,335.5172 586.242,351.6697 " fill="none" id="ImplementationRole-EngineerComponents" style="stroke: #A80036; stroke-width: 1.0;"/><polygon fill="none" points="573.688,294.614,578.729,274.033,587.623,293.266,573.688,294.614" style="stroke: #A80036; stroke-width: 1.0;"/><!--
@startuml
class Activity #red
Activity <|- - ImplementationActivity
Activity - -> Role

class "Component (implemented)" as Component #green
class Interface #green
class "Component (tried)" as ComponentX #green

class ImplementationActivity #red
ImplementationActivity - -> ImplementationRole

class "Take Unit Test" as TakeUnitTest #red
ImplementationActivity <|- - TakeUnitTest

TakeUnitTest - -> Component :in
TakeUnitTest - -> Interface :in
TakeUnitTest - -> ComponentX :out

class Role #blue
class ImplementationRole #blue
class "Engineer of Components" as EngineerComponents #blue

TakeUnitTest - -> EngineerComponents

Role <|- - ImplementationRole
ImplementationRole <|- - EngineerComponents
@enduml

PlantUML version 1.2019.05(Sat Apr 20 18:45:36 CEST 2019)
(GPL source distribution)
Java Runtime: OpenJDK Runtime Environment
JVM: OpenJDK 64-Bit Server VM
Java Version: 1.8.0_222-b10
Operating System: Windows 10
OS Version: 10.0
Default Encoding: windows-1252
Language: es
Country: ES
--></g></svg>