<?xml version="1.0" encoding="UTF-8" standalone="no"?><svg xmlns="http://www.w3.org/2000/svg" xmlns:xlink="http://www.w3.org/1999/xlink" contentScriptType="application/ecmascript" contentStyleType="text/css" height="1145px" preserveAspectRatio="none" style="width:2180px;height:1145px;background:#FFFFFF;" version="1.1" viewBox="0 0 2180 1145" width="2180px" zoomAndPan="magnify"><defs><filter height="300%" id="f1xgol36yf00yr" width="300%" x="-1" y="-1"><feGaussianBlur result="blurOut" stdDeviation="2.0"/><feColorMatrix in="blurOut" result="blurOut2" type="matrix" values="0 0 0 0 0 0 0 0 0 0 0 0 0 0 0 0 0 0 .4 0"/><feOffset dx="4.0" dy="4.0" in="blurOut2" result="blurOut3"/><feBlend in="SourceGraphic" in2="blurOut3" mode="normal"/></filter></defs><g><line style="stroke:#A80036;stroke-width:1.0;stroke-dasharray:5.0,5.0;" x1="22" x2="22" y1="89.8281" y2="1051.9688"/><line style="stroke:#A80036;stroke-width:1.0;stroke-dasharray:5.0,5.0;" x1="116.5" x2="116.5" y1="89.8281" y2="1051.9688"/><line style="stroke:#A80036;stroke-width:1.0;stroke-dasharray:5.0,5.0;" x1="229.5" x2="229.5" y1="89.8281" y2="1051.9688"/><line style="stroke:#A80036;stroke-width:1.0;stroke-dasharray:5.0,5.0;" x1="463" x2="463" y1="89.8281" y2="1051.9688"/><line style="stroke:#A80036;stroke-width:1.0;stroke-dasharray:5.0,5.0;" x1="757" x2="757" y1="89.8281" y2="1051.9688"/><line style="stroke:#A80036;stroke-width:1.0;stroke-dasharray:5.0,5.0;" x1="842.5" x2="842.5" y1="89.8281" y2="1051.9688"/><line style="stroke:#A80036;stroke-width:1.0;stroke-dasharray:5.0,5.0;" x1="921.5" x2="921.5" y1="89.8281" y2="1051.9688"/><line style="stroke:#A80036;stroke-width:1.0;stroke-dasharray:5.0,5.0;" x1="1079.5" x2="1079.5" y1="89.8281" y2="1051.9688"/><line style="stroke:#A80036;stroke-width:1.0;stroke-dasharray:5.0,5.0;" x1="1208.5" x2="1208.5" y1="89.8281" y2="1051.9688"/><line style="stroke:#A80036;stroke-width:1.0;stroke-dasharray:5.0,5.0;" x1="1340" x2="1340" y1="89.8281" y2="1051.9688"/><line style="stroke:#A80036;stroke-width:1.0;stroke-dasharray:5.0,5.0;" x1="1527.5" x2="1527.5" y1="89.8281" y2="1051.9688"/><line style="stroke:#A80036;stroke-width:1.0;stroke-dasharray:5.0,5.0;" x1="1596.5" x2="1596.5" y1="89.8281" y2="1051.9688"/><line style="stroke:#A80036;stroke-width:1.0;stroke-dasharray:5.0,5.0;" x1="1779" x2="1779" y1="89.8281" y2="1051.9688"/><line style="stroke:#A80036;stroke-width:1.0;stroke-dasharray:5.0,5.0;" x1="1876" x2="1876" y1="89.8281" y2="1051.9688"/><line style="stroke:#A80036;stroke-width:1.0;stroke-dasharray:5.0,5.0;" x1="1946" x2="1946" y1="89.8281" y2="1051.9688"/><line style="stroke:#A80036;stroke-width:1.0;stroke-dasharray:5.0,5.0;" x1="2010" x2="2010" y1="89.8281" y2="1051.9688"/><line style="stroke:#A80036;stroke-width:1.0;stroke-dasharray:5.0,5.0;" x1="2078" x2="2078" y1="89.8281" y2="1051.9688"/><line style="stroke:#A80036;stroke-width:1.0;stroke-dasharray:5.0,5.0;" x1="2148" x2="2148" y1="89.8281" y2="1051.9688"/><text fill="#000000" font-family="sans-serif" font-size="14" lengthAdjust="spacing" textLength="28" x="5" y="86.752">user</text><ellipse cx="22" cy="15.2188" fill="#FEFECE" filter="url(#f1xgol36yf00yr)" rx="8" ry="8" style="stroke:#A80036;stroke-width:2.0;"/><path d="M22,23.2188 L22,50.2188 M9,31.2188 L35,31.2188 M22,50.2188 L9,65.2188 M22,50.2188 L35,65.2188 " fill="none" filter="url(#f1xgol36yf00yr)" style="stroke:#A80036;stroke-width:2.0;"/><text fill="#000000" font-family="sans-serif" font-size="14" lengthAdjust="spacing" textLength="28" x="5" y="1065.502">user</text><ellipse cx="22" cy="1078.5781" fill="#FEFECE" filter="url(#f1xgol36yf00yr)" rx="8" ry="8" style="stroke:#A80036;stroke-width:2.0;"/><path d="M22,1086.5781 L22,1113.5781 M9,1094.5781 L35,1094.5781 M22,1113.5781 L9,1128.5781 M22,1113.5781 L35,1128.5781 " fill="none" filter="url(#f1xgol36yf00yr)" style="stroke:#A80036;stroke-width:2.0;"/><text fill="#000000" font-family="sans-serif" font-size="14" font-style="italic" lengthAdjust="spacing" textLength="75" x="76.5" y="69.1426">«Template»</text><text fill="#000000" font-family="sans-serif" font-size="14" lengthAdjust="spacing" textLength="35" x="96.5" y="86.752">XHtml</text><ellipse cx="117" cy="38.6094" fill="#F2AC4E" filter="url(#f1xgol36yf00yr)" rx="12" ry="12" style="stroke:#000000;stroke-width:2.0;"/><line style="stroke:#000000;stroke-width:2.0;" x1="105" x2="129" y1="52.6094" y2="52.6094"/><text fill="#000000" font-family="sans-serif" font-size="14" font-style="italic" lengthAdjust="spacing" textLength="75" x="76.5" y="1065.502">«Template»</text><text fill="#000000" font-family="sans-serif" font-size="14" lengthAdjust="spacing" textLength="35" x="96.5" y="1083.1113">XHtml</text><ellipse cx="117" cy="1102.1875" fill="#F2AC4E" filter="url(#f1xgol36yf00yr)" rx="12" ry="12" style="stroke:#000000;stroke-width:2.0;"/><line style="stroke:#000000;stroke-width:2.0;" x1="105" x2="129" y1="1116.1875" y2="1116.1875"/><text fill="#000000" font-family="sans-serif" font-size="14" font-style="italic" lengthAdjust="spacing" textLength="89" x="182.5" y="69.1426">«Component»</text><text fill="#000000" font-family="sans-serif" font-size="14" lengthAdjust="spacing" textLength="74" x="190" y="86.752">XTypescript</text><ellipse cx="230" cy="38.6094" fill="#B5BD68" filter="url(#f1xgol36yf00yr)" rx="12" ry="12" style="stroke:#718C00;stroke-width:2.0;"/><polygon fill="#718C00" points="226,26.6094,232,21.6094,230,26.6094,232,31.6094,226,26.6094" style="stroke:#718C00;stroke-width:1.0;"/><text fill="#000000" font-family="sans-serif" font-size="14" font-style="italic" lengthAdjust="spacing" textLength="89" x="182.5" y="1065.502">«Component»</text><text fill="#000000" font-family="sans-serif" font-size="14" lengthAdjust="spacing" textLength="74" x="190" y="1083.1113">XTypescript</text><ellipse cx="230" cy="1102.1875" fill="#B5BD68" filter="url(#f1xgol36yf00yr)" rx="12" ry="12" style="stroke:#718C00;stroke-width:2.0;"/><polygon fill="#718C00" points="226,1090.1875,232,1085.1875,230,1090.1875,232,1095.1875,226,1090.1875" style="stroke:#718C00;stroke-width:1.0;"/><text fill="#000000" font-family="sans-serif" font-size="14" font-style="italic" lengthAdjust="spacing" textLength="62" x="429" y="51.5332">«Service»</text><text fill="#000000" font-family="sans-serif" font-size="14" font-style="italic" lengthAdjust="spacing" textLength="27" x="446.5" y="69.1426">«in»</text><text fill="#000000" font-family="sans-serif" font-size="14" lengthAdjust="spacing" textLength="74" x="423" y="86.752">XTypescript</text><ellipse cx="463" cy="21" fill="#B5BD68" filter="url(#f1xgol36yf00yr)" rx="12" ry="12" style="stroke:#718C00;stroke-width:2.0;"/><polygon fill="#718C00" points="459,9,465,4,463,9,465,14,459,9" style="stroke:#718C00;stroke-width:1.0;"/><text fill="#000000" font-family="sans-serif" font-size="14" font-style="italic" lengthAdjust="spacing" textLength="62" x="429" y="1065.502">«Service»</text><text fill="#000000" font-family="sans-serif" font-size="14" font-style="italic" lengthAdjust="spacing" textLength="27" x="446.5" y="1083.1113">«in»</text><text fill="#000000" font-family="sans-serif" font-size="14" lengthAdjust="spacing" textLength="74" x="423" y="1100.7207">XTypescript</text><ellipse cx="463" cy="1119.7969" fill="#B5BD68" filter="url(#f1xgol36yf00yr)" rx="12" ry="12" style="stroke:#718C00;stroke-width:2.0;"/><polygon fill="#718C00" points="459,1107.7969,465,1102.7969,463,1107.7969,465,1112.7969,459,1107.7969" style="stroke:#718C00;stroke-width:1.0;"/><text fill="#000000" font-family="sans-serif" font-size="14" font-style="italic" lengthAdjust="spacing" textLength="84" x="712" y="51.5332">«ViewModel»</text><text fill="#000000" font-family="sans-serif" font-size="14" font-style="italic" lengthAdjust="spacing" textLength="36" x="736" y="69.1426">«out»</text><text fill="#000000" font-family="sans-serif" font-size="14" lengthAdjust="spacing" textLength="74" x="717" y="86.752">XTypescript</text><ellipse cx="757" cy="21" fill="#B5BD68" filter="url(#f1xgol36yf00yr)" rx="12" ry="12" style="stroke:#718C00;stroke-width:2.0;"/><polygon fill="#718C00" points="753,9,759,4,757,9,759,14,753,9" style="stroke:#718C00;stroke-width:1.0;"/><text fill="#000000" font-family="sans-serif" font-size="14" font-style="italic" lengthAdjust="spacing" textLength="84" x="712" y="1065.502">«ViewModel»</text><text fill="#000000" font-family="sans-serif" font-size="14" font-style="italic" lengthAdjust="spacing" textLength="36" x="736" y="1083.1113">«out»</text><text fill="#000000" font-family="sans-serif" font-size="14" lengthAdjust="spacing" textLength="74" x="717" y="1100.7207">XTypescript</text><ellipse cx="757" cy="1119.7969" fill="#B5BD68" filter="url(#f1xgol36yf00yr)" rx="12" ry="12" style="stroke:#718C00;stroke-width:2.0;"/><polygon fill="#718C00" points="753,1107.7969,759,1102.7969,757,1107.7969,759,1112.7969,753,1107.7969" style="stroke:#718C00;stroke-width:1.0;"/><text fill="#000000" font-family="sans-serif" font-size="14" font-style="italic" lengthAdjust="spacing" textLength="36" x="822" y="69.1426">«out»</text><text fill="#000000" font-family="sans-serif" font-size="14" lengthAdjust="spacing" textLength="41" x="819.5" y="86.752">XState</text><ellipse cx="843" cy="38.6094" fill="#F2AC4E" filter="url(#f1xgol36yf00yr)" rx="12" ry="12" style="stroke:#000000;stroke-width:2.0;"/><line style="stroke:#000000;stroke-width:2.0;" x1="831" x2="855" y1="52.6094" y2="52.6094"/><text fill="#000000" font-family="sans-serif" font-size="14" font-style="italic" lengthAdjust="spacing" textLength="36" x="822" y="1065.502">«out»</text><text fill="#000000" font-family="sans-serif" font-size="14" lengthAdjust="spacing" textLength="41" x="819.5" y="1083.1113">XState</text><ellipse cx="843" cy="1102.1875" fill="#F2AC4E" filter="url(#f1xgol36yf00yr)" rx="12" ry="12" style="stroke:#000000;stroke-width:2.0;"/><line style="stroke:#000000;stroke-width:2.0;" x1="831" x2="855" y1="1116.1875" y2="1116.1875"/><text fill="#000000" font-family="sans-serif" font-size="14" font-style="italic" lengthAdjust="spacing" textLength="84" x="876.5" y="69.1426">«TypeScript»</text><text fill="#000000" font-family="sans-serif" font-size="14" lengthAdjust="spacing" textLength="70" x="883.5" y="86.752">XController</text><ellipse cx="921.5" cy="38.6094" fill="#B5BD68" filter="url(#f1xgol36yf00yr)" rx="12" ry="12" style="stroke:#718C00;stroke-width:2.0;"/><polygon fill="#718C00" points="917.5,26.6094,923.5,21.6094,921.5,26.6094,923.5,31.6094,917.5,26.6094" style="stroke:#718C00;stroke-width:1.0;"/><text fill="#000000" font-family="sans-serif" font-size="14" font-style="italic" lengthAdjust="spacing" textLength="84" x="876.5" y="1065.502">«TypeScript»</text><text fill="#000000" font-family="sans-serif" font-size="14" lengthAdjust="spacing" textLength="70" x="883.5" y="1083.1113">XController</text><ellipse cx="921.5" cy="1102.1875" fill="#B5BD68" filter="url(#f1xgol36yf00yr)" rx="12" ry="12" style="stroke:#718C00;stroke-width:2.0;"/><polygon fill="#718C00" points="917.5,1090.1875,923.5,1085.1875,921.5,1090.1875,923.5,1095.1875,917.5,1090.1875" style="stroke:#718C00;stroke-width:1.0;"/><text fill="#000000" font-family="sans-serif" font-size="14" lengthAdjust="spacing" textLength="134" x="1009.5" y="86.752">XControllerResponse</text><ellipse cx="1079.5" cy="56.2188" fill="#F2AC4E" filter="url(#f1xgol36yf00yr)" rx="12" ry="12" style="stroke:#000000;stroke-width:2.0;"/><line style="stroke:#000000;stroke-width:2.0;" x1="1067.5" x2="1091.5" y1="70.2188" y2="70.2188"/><text fill="#000000" font-family="sans-serif" font-size="14" lengthAdjust="spacing" textLength="134" x="1009.5" y="1065.502">XControllerResponse</text><ellipse cx="1079.5" cy="1084.5781" fill="#F2AC4E" filter="url(#f1xgol36yf00yr)" rx="12" ry="12" style="stroke:#000000;stroke-width:2.0;"/><line style="stroke:#000000;stroke-width:2.0;" x1="1067.5" x2="1091.5" y1="1098.5781" y2="1098.5781"/><text fill="#000000" font-family="sans-serif" font-size="12" lengthAdjust="spacing" textLength="92" x="1159.5" y="87.1914">XRestRepository</text><path d="M1188,46.7344 L1188,70.7344 M1188,58.7344 L1205,58.7344 " fill="none" filter="url(#f1xgol36yf00yr)" style="stroke:#000000;stroke-width:2.0;"/><ellipse cx="1217" cy="58.7344" fill="#629EF9" filter="url(#f1xgol36yf00yr)" rx="12" ry="12" style="stroke:#000000;stroke-width:2.0;"/><text fill="#000000" font-family="sans-serif" font-size="12" lengthAdjust="spacing" textLength="92" x="1159.5" y="1063.4258">XRestRepository</text><path d="M1188,1070.0625 L1188,1094.0625 M1188,1082.0625 L1205,1082.0625 " fill="none" filter="url(#f1xgol36yf00yr)" style="stroke:#000000;stroke-width:2.0;"/><ellipse cx="1217" cy="1082.0625" fill="#629EF9" filter="url(#f1xgol36yf00yr)" rx="12" ry="12" style="stroke:#000000;stroke-width:2.0;"/><text fill="#000000" font-family="sans-serif" font-size="12" lengthAdjust="spacing" textLength="71" x="1302" y="87.1914">HTTPService</text><path d="M1320,46.7344 L1320,70.7344 M1320,58.7344 L1337,58.7344 " fill="none" filter="url(#f1xgol36yf00yr)" style="stroke:#000000;stroke-width:2.0;"/><ellipse cx="1349" cy="58.7344" fill="#629EF9" filter="url(#f1xgol36yf00yr)" rx="12" ry="12" style="stroke:#000000;stroke-width:2.0;"/><text fill="#000000" font-family="sans-serif" font-size="12" lengthAdjust="spacing" textLength="71" x="1302" y="1063.4258">HTTPService</text><path d="M1320,1070.0625 L1320,1094.0625 M1320,1082.0625 L1337,1082.0625 " fill="none" filter="url(#f1xgol36yf00yr)" style="stroke:#000000;stroke-width:2.0;"/><ellipse cx="1349" cy="1082.0625" fill="#629EF9" filter="url(#f1xgol36yf00yr)" rx="12" ry="12" style="stroke:#000000;stroke-width:2.0;"/><text fill="#000000" font-family="sans-serif" font-size="14" lengthAdjust="spacing" textLength="46" x="1501.5" y="86.752">XModel</text><ellipse cx="1527.5" cy="56.2188" fill="#F2AC4E" filter="url(#f1xgol36yf00yr)" rx="12" ry="12" style="stroke:#000000;stroke-width:2.0;"/><line style="stroke:#000000;stroke-width:2.0;" x1="1515.5" x2="1539.5" y1="70.2188" y2="70.2188"/><text fill="#000000" font-family="sans-serif" font-size="14" lengthAdjust="spacing" textLength="46" x="1501.5" y="1065.502">XModel</text><ellipse cx="1527.5" cy="1084.5781" fill="#F2AC4E" filter="url(#f1xgol36yf00yr)" rx="12" ry="12" style="stroke:#000000;stroke-width:2.0;"/><line style="stroke:#000000;stroke-width:2.0;" x1="1515.5" x2="1539.5" y1="1098.5781" y2="1098.5781"/><text fill="#000000" font-family="sans-serif" font-size="12" lengthAdjust="spacing" textLength="61" x="1563.5" y="87.1914">XResource</text><path d="M1576.5,46.7344 L1576.5,70.7344 M1576.5,58.7344 L1593.5,58.7344 " fill="none" filter="url(#f1xgol36yf00yr)" style="stroke:#000000;stroke-width:2.0;"/><ellipse cx="1605.5" cy="58.7344" fill="#629EF9" filter="url(#f1xgol36yf00yr)" rx="12" ry="12" style="stroke:#000000;stroke-width:2.0;"/><text fill="#000000" font-family="sans-serif" font-size="12" lengthAdjust="spacing" textLength="61" x="1563.5" y="1063.4258">XResource</text><path d="M1576.5,1070.0625 L1576.5,1094.0625 M1576.5,1082.0625 L1593.5,1082.0625 " fill="none" filter="url(#f1xgol36yf00yr)" style="stroke:#000000;stroke-width:2.0;"/><ellipse cx="1605.5" cy="1082.0625" fill="#629EF9" filter="url(#f1xgol36yf00yr)" rx="12" ry="12" style="stroke:#000000;stroke-width:2.0;"/><text fill="#000000" font-family="sans-serif" font-size="14" lengthAdjust="spacing" textLength="64" x="1744" y="86.752">XBService</text><ellipse cx="1779" cy="56.2188" fill="#B5BD68" filter="url(#f1xgol36yf00yr)" rx="12" ry="12" style="stroke:#718C00;stroke-width:2.0;"/><polygon fill="#718C00" points="1775,44.2188,1781,39.2188,1779,44.2188,1781,49.2188,1775,44.2188" style="stroke:#718C00;stroke-width:1.0;"/><text fill="#000000" font-family="sans-serif" font-size="14" lengthAdjust="spacing" textLength="64" x="1744" y="1065.502">XBService</text><ellipse cx="1779" cy="1084.5781" fill="#B5BD68" filter="url(#f1xgol36yf00yr)" rx="12" ry="12" style="stroke:#718C00;stroke-width:2.0;"/><polygon fill="#718C00" points="1775,1072.5781,1781,1067.5781,1779,1072.5781,1781,1077.5781,1775,1072.5781" style="stroke:#718C00;stroke-width:1.0;"/><text fill="#000000" font-family="sans-serif" font-size="12" lengthAdjust="spacing" textLength="66" x="1840" y="87.1914">XRepository</text><path d="M1855.5,46.7344 L1855.5,70.7344 M1855.5,58.7344 L1872.5,58.7344 " fill="none" filter="url(#f1xgol36yf00yr)" style="stroke:#000000;stroke-width:2.0;"/><ellipse cx="1884.5" cy="58.7344" fill="#629EF9" filter="url(#f1xgol36yf00yr)" rx="12" ry="12" style="stroke:#000000;stroke-width:2.0;"/><text fill="#000000" font-family="sans-serif" font-size="12" lengthAdjust="spacing" textLength="66" x="1840" y="1063.4258">XRepository</text><path d="M1855.5,1070.0625 L1855.5,1094.0625 M1855.5,1082.0625 L1872.5,1082.0625 " fill="none" filter="url(#f1xgol36yf00yr)" style="stroke:#000000;stroke-width:2.0;"/><ellipse cx="1884.5" cy="1082.0625" fill="#629EF9" filter="url(#f1xgol36yf00yr)" rx="12" ry="12" style="stroke:#000000;stroke-width:2.0;"/><text fill="#000000" font-family="sans-serif" font-size="12" lengthAdjust="spacing" textLength="26" x="1930.5" y="87.1914">XDto</text><path d="M1926,46.7344 L1926,70.7344 M1926,58.7344 L1943,58.7344 " fill="none" filter="url(#f1xgol36yf00yr)" style="stroke:#000000;stroke-width:2.0;"/><ellipse cx="1955" cy="58.7344" fill="#629EF9" filter="url(#f1xgol36yf00yr)" rx="12" ry="12" style="stroke:#000000;stroke-width:2.0;"/><text fill="#000000" font-family="sans-serif" font-size="12" lengthAdjust="spacing" textLength="26" x="1930.5" y="1063.4258">XDto</text><path d="M1926,1070.0625 L1926,1094.0625 M1926,1082.0625 L1943,1082.0625 " fill="none" filter="url(#f1xgol36yf00yr)" style="stroke:#000000;stroke-width:2.0;"/><ellipse cx="1955" cy="1082.0625" fill="#629EF9" filter="url(#f1xgol36yf00yr)" rx="12" ry="12" style="stroke:#000000;stroke-width:2.0;"/><text fill="#000000" font-family="sans-serif" font-size="14" lengthAdjust="spacing" textLength="52" x="1981" y="86.752">XBuilder</text><ellipse cx="2010" cy="56.2188" fill="#F2AC4E" filter="url(#f1xgol36yf00yr)" rx="12" ry="12" style="stroke:#000000;stroke-width:2.0;"/><line style="stroke:#000000;stroke-width:2.0;" x1="1998" x2="2022" y1="70.2188" y2="70.2188"/><text fill="#000000" font-family="sans-serif" font-size="14" lengthAdjust="spacing" textLength="52" x="1981" y="1065.502">XBuilder</text><ellipse cx="2010" cy="1084.5781" fill="#F2AC4E" filter="url(#f1xgol36yf00yr)" rx="12" ry="12" style="stroke:#000000;stroke-width:2.0;"/><line style="stroke:#000000;stroke-width:2.0;" x1="1998" x2="2022" y1="1098.5781" y2="1098.5781"/><text fill="#000000" font-family="sans-serif" font-size="14" lengthAdjust="spacing" textLength="52" x="2049" y="86.752">XBEntity</text><ellipse cx="2078" cy="56.2188" fill="#F2AC4E" filter="url(#f1xgol36yf00yr)" rx="12" ry="12" style="stroke:#000000;stroke-width:2.0;"/><line style="stroke:#000000;stroke-width:2.0;" x1="2066" x2="2090" y1="70.2188" y2="70.2188"/><text fill="#000000" font-family="sans-serif" font-size="14" lengthAdjust="spacing" textLength="52" x="2049" y="1065.502">XBEntity</text><ellipse cx="2078" cy="1084.5781" fill="#F2AC4E" filter="url(#f1xgol36yf00yr)" rx="12" ry="12" style="stroke:#000000;stroke-width:2.0;"/><line style="stroke:#000000;stroke-width:2.0;" x1="2066" x2="2090" y1="1098.5781" y2="1098.5781"/><text fill="#000000" font-family="sans-serif" font-size="14" lengthAdjust="spacing" textLength="56" x="2117" y="86.752">XMapper</text><ellipse cx="2148" cy="56.2188" fill="#B5BD68" filter="url(#f1xgol36yf00yr)" rx="12" ry="12" style="stroke:#718C00;stroke-width:2.0;"/><polygon fill="#718C00" points="2144,44.2188,2150,39.2188,2148,44.2188,2150,49.2188,2144,44.2188" style="stroke:#718C00;stroke-width:1.0;"/><text fill="#000000" font-family="sans-serif" font-size="14" lengthAdjust="spacing" textLength="56" x="2117" y="1065.502">XMapper</text><ellipse cx="2148" cy="1084.5781" fill="#B5BD68" filter="url(#f1xgol36yf00yr)" rx="12" ry="12" style="stroke:#718C00;stroke-width:2.0;"/><polygon fill="#718C00" points="2144,1072.5781,2150,1067.5781,2148,1072.5781,2150,1077.5781,2144,1072.5781" style="stroke:#718C00;stroke-width:1.0;"/><polygon fill="#A80036" points="105,134.5313,115,138.5313,105,142.5313,109,138.5313" style="stroke:#A80036;stroke-width:1.0;"/><line style="stroke:#A80036;stroke-width:1.0;" x1="22" x2="111" y1="138.5313" y2="138.5313"/><text fill="#000000" font-family="sans-serif" font-size="13" lengthAdjust="spacing" textLength="43" x="29" y="117.3232">request</text><text fill="#000000" font-family="sans-serif" font-size="13" lengthAdjust="spacing" textLength="67" x="33" y="133.6748">plan project</text><polygon fill="#A80036" points="218,164.8828,228,168.8828,218,172.8828,222,168.8828" style="stroke:#A80036;stroke-width:1.0;"/><line style="stroke:#A80036;stroke-width:1.0;" x1="117" x2="224" y1="168.8828" y2="168.8828"/><text fill="#000000" font-family="sans-serif" font-size="13" lengthAdjust="spacing" textLength="73" x="124" y="164.0264">planProject()</text><polygon fill="#A80036" points="451,195.2344,461,199.2344,451,203.2344,455,199.2344" style="stroke:#A80036;stroke-width:1.0;"/><line style="stroke:#A80036;stroke-width:1.0;" x1="230" x2="457" y1="199.2344" y2="199.2344"/><text fill="#000000" font-family="sans-serif" font-size="13" lengthAdjust="spacing" textLength="170" x="237" y="194.3779">planProject(createProjectDto)</text><polygon fill="#A80036" points="909.5,225.5859,919.5,229.5859,909.5,233.5859,913.5,229.5859" style="stroke:#A80036;stroke-width:1.0;"/><line style="stroke:#A80036;stroke-width:1.0;" x1="463" x2="915.5" y1="229.5859" y2="229.5859"/><text fill="#000000" font-family="sans-serif" font-size="13" lengthAdjust="spacing" textLength="151" x="470" y="224.7295">execute(createProjectDto)</text><polygon fill="#A80036" points="1196.5,255.9375,1206.5,259.9375,1196.5,263.9375,1200.5,259.9375" style="stroke:#A80036;stroke-width:1.0;"/><line style="stroke:#A80036;stroke-width:1.0;" x1="921.5" x2="1202.5" y1="259.9375" y2="259.9375"/><text fill="#000000" font-family="sans-serif" font-size="13" lengthAdjust="spacing" textLength="141" x="928.5" y="255.0811">create(createProjectDto)</text><polygon fill="#A80036" points="1328.5,286.2891,1338.5,290.2891,1328.5,294.2891,1332.5,290.2891" style="stroke:#A80036;stroke-width:1.0;"/><line style="stroke:#A80036;stroke-width:1.0;" x1="1208.5" x2="1334.5" y1="290.2891" y2="290.2891"/><text fill="#000000" font-family="sans-serif" font-size="13" lengthAdjust="spacing" textLength="108" x="1215.5" y="285.4326">post(endpoint, dto)</text><polygon fill="#A80036" points="1585,316.6406,1595,320.6406,1585,324.6406,1589,320.6406" style="stroke:#A80036;stroke-width:1.0;"/><line style="stroke:#A80036;stroke-width:1.0;" x1="1340.5" x2="1591" y1="320.6406" y2="320.6406"/><text fill="#000000" font-family="sans-serif" font-size="13" lengthAdjust="spacing" textLength="109" x="1347.5" y="315.7842">HTTP POST JSON</text><polygon fill="#A80036" points="1767,346.9922,1777,350.9922,1767,354.9922,1771,350.9922" style="stroke:#A80036;stroke-width:1.0;"/><line style="stroke:#A80036;stroke-width:1.0;" x1="1597" x2="1773" y1="350.9922" y2="350.9922"/><text fill="#000000" font-family="sans-serif" font-size="13" lengthAdjust="spacing" textLength="158" x="1604" y="346.1357">planProject(planProjectDto)</text><polygon fill="#A80036" points="1934.5,377.3438,1944.5,381.3438,1934.5,385.3438,1938.5,381.3438" style="stroke:#A80036;stroke-width:1.0;"/><line style="stroke:#A80036;stroke-width:1.0;" x1="1779" x2="1940.5" y1="381.3438" y2="381.3438"/><text fill="#000000" font-family="sans-serif" font-size="13" lengthAdjust="spacing" textLength="85" x="1786" y="376.4873">createProject()</text><polygon fill="#A80036" points="1998,407.6953,2008,411.6953,1998,415.6953,2002,411.6953" style="stroke:#A80036;stroke-width:1.0;"/><line style="stroke:#A80036;stroke-width:1.0;" x1="1946.5" x2="2004" y1="411.6953" y2="411.6953"/><text fill="#000000" font-family="sans-serif" font-size="13" lengthAdjust="spacing" textLength="35" x="1953.5" y="406.8389">build()</text><polygon fill="#A80036" points="2066,438.0469,2076,442.0469,2066,446.0469,2070,442.0469" style="stroke:#A80036;stroke-width:1.0;"/><line style="stroke:#A80036;stroke-width:1.0;" x1="2010" x2="2072" y1="442.0469" y2="442.0469"/><text fill="#000000" font-family="sans-serif" font-size="13" lengthAdjust="spacing" textLength="23" x="2017" y="437.1904">new</text><polygon fill="#808080" points="2021,452.0469,2011,456.0469,2021,460.0469,2017,456.0469" style="stroke:#808080;stroke-width:1.0;"/><line style="stroke:#808080;stroke-width:1.0;stroke-dasharray:2.0,2.0;" x1="2015" x2="2077" y1="456.0469" y2="456.0469"/><polygon fill="#808080" points="1957.5,466.0469,1947.5,470.0469,1957.5,474.0469,1953.5,470.0469" style="stroke:#808080;stroke-width:1.0;"/><line style="stroke:#808080;stroke-width:1.0;stroke-dasharray:2.0,2.0;" x1="1951.5" x2="2009" y1="470.0469" y2="470.0469"/><polygon fill="#808080" points="1790,496.3984,1780,500.3984,1790,504.3984,1786,500.3984" style="stroke:#808080;stroke-width:1.0;"/><line style="stroke:#808080;stroke-width:1.0;stroke-dasharray:2.0,2.0;" x1="1784" x2="1945.5" y1="500.3984" y2="500.3984"/><text fill="#000000" font-family="sans-serif" font-size="13" lengthAdjust="spacing" textLength="39" x="1796" y="495.542">project</text><polygon fill="#A80036" points="1864,526.75,1874,530.75,1864,534.75,1868,530.75" style="stroke:#A80036;stroke-width:1.0;"/><line style="stroke:#A80036;stroke-width:1.0;" x1="1779" x2="1870" y1="530.75" y2="530.75"/><text fill="#000000" font-family="sans-serif" font-size="13" lengthAdjust="spacing" textLength="73" x="1786" y="525.8936">save(project)</text><polygon fill="#808080" points="1790,540.75,1780,544.75,1790,548.75,1786,544.75" style="stroke:#808080;stroke-width:1.0;"/><line style="stroke:#808080;stroke-width:1.0;stroke-dasharray:2.0,2.0;" x1="1784" x2="1875" y1="544.75" y2="544.75"/><polygon fill="#A80036" points="1934.5,571.1016,1944.5,575.1016,1934.5,579.1016,1938.5,575.1016" style="stroke:#A80036;stroke-width:1.0;"/><line style="stroke:#A80036;stroke-width:1.0;" x1="1779" x2="1940.5" y1="575.1016" y2="575.1016"/><text fill="#000000" font-family="sans-serif" font-size="13" lengthAdjust="spacing" textLength="106" x="1786" y="570.2451">mapToDto(project)</text><polygon fill="#A80036" points="2136,601.4531,2146,605.4531,2136,609.4531,2140,605.4531" style="stroke:#A80036;stroke-width:1.0;"/><line style="stroke:#A80036;stroke-width:1.0;" x1="1946.5" x2="2142" y1="605.4531" y2="605.4531"/><text fill="#000000" font-family="sans-serif" font-size="13" lengthAdjust="spacing" textLength="146" x="1953.5" y="600.5967">map(source, targetClass)</text><polygon fill="#808080" points="1957.5,615.4531,1947.5,619.4531,1957.5,623.4531,1953.5,619.4531" style="stroke:#808080;stroke-width:1.0;"/><line style="stroke:#808080;stroke-width:1.0;stroke-dasharray:2.0,2.0;" x1="1951.5" x2="2147" y1="619.4531" y2="619.4531"/><polygon fill="#808080" points="1790,629.4531,1780,633.4531,1790,637.4531,1786,633.4531" style="stroke:#808080;stroke-width:1.0;"/><line style="stroke:#808080;stroke-width:1.0;stroke-dasharray:2.0,2.0;" x1="1784" x2="1945.5" y1="633.4531" y2="633.4531"/><polygon fill="#808080" points="1608,659.8047,1598,663.8047,1608,667.8047,1604,663.8047" style="stroke:#808080;stroke-width:1.0;"/><line style="stroke:#808080;stroke-width:1.0;stroke-dasharray:2.0,2.0;" x1="1602" x2="1778" y1="663.8047" y2="663.8047"/><text fill="#000000" font-family="sans-serif" font-size="13" lengthAdjust="spacing" textLength="59" x="1614" y="658.9482">projectDto</text><polygon fill="#808080" points="1351.5,690.1563,1341.5,694.1563,1351.5,698.1563,1347.5,694.1563" style="stroke:#808080;stroke-width:1.0;"/><line style="stroke:#808080;stroke-width:1.0;stroke-dasharray:2.0,2.0;" x1="1345.5" x2="1596" y1="694.1563" y2="694.1563"/><text fill="#000000" font-family="sans-serif" font-size="13" lengthAdjust="spacing" textLength="133" x="1357.5" y="689.2998">HTTP POST Response</text><polygon fill="#A80036" points="1515.5,720.5078,1525.5,724.5078,1515.5,728.5078,1519.5,724.5078" style="stroke:#A80036;stroke-width:1.0;"/><line style="stroke:#A80036;stroke-width:1.0;" x1="1340.5" x2="1521.5" y1="724.5078" y2="724.5078"/><text fill="#000000" font-family="sans-serif" font-size="13" lengthAdjust="spacing" textLength="163" x="1347.5" y="719.6514">JSON.parse(response.body)</text><polygon fill="#808080" points="1351.5,750.8594,1341.5,754.8594,1351.5,758.8594,1347.5,754.8594" style="stroke:#808080;stroke-width:1.0;"/><line style="stroke:#808080;stroke-width:1.0;stroke-dasharray:2.0,2.0;" x1="1345.5" x2="1526.5" y1="754.8594" y2="754.8594"/><text fill="#000000" font-family="sans-serif" font-size="13" lengthAdjust="spacing" textLength="39" x="1357.5" y="750.0029">project</text><polygon fill="#808080" points="1219.5,764.8594,1209.5,768.8594,1219.5,772.8594,1215.5,768.8594" style="stroke:#808080;stroke-width:1.0;"/><line style="stroke:#808080;stroke-width:1.0;stroke-dasharray:2.0,2.0;" x1="1213.5" x2="1339.5" y1="768.8594" y2="768.8594"/><polygon fill="#808080" points="932.5,778.8594,922.5,782.8594,932.5,786.8594,928.5,782.8594" style="stroke:#808080;stroke-width:1.0;"/><line style="stroke:#808080;stroke-width:1.0;stroke-dasharray:2.0,2.0;" x1="926.5" x2="1207.5" y1="782.8594" y2="782.8594"/><polygon fill="#A80036" points="1067.5,809.2109,1077.5,813.2109,1067.5,817.2109,1071.5,813.2109" style="stroke:#A80036;stroke-width:1.0;"/><line style="stroke:#A80036;stroke-width:1.0;" x1="921.5" x2="1073.5" y1="813.2109" y2="813.2109"/><text fill="#000000" font-family="sans-serif" font-size="13" lengthAdjust="spacing" textLength="134" x="928.5" y="808.3545">createSuccess(project)</text><polygon fill="#808080" points="932.5,839.5625,922.5,843.5625,932.5,847.5625,928.5,843.5625" style="stroke:#808080;stroke-width:1.0;"/><line style="stroke:#808080;stroke-width:1.0;stroke-dasharray:2.0,2.0;" x1="926.5" x2="1078.5" y1="843.5625" y2="843.5625"/><text fill="#000000" font-family="sans-serif" font-size="13" lengthAdjust="spacing" textLength="111" x="938.5" y="838.7061">controllerResponse</text><polygon fill="#808080" points="474,853.5625,464,857.5625,474,861.5625,470,857.5625" style="stroke:#808080;stroke-width:1.0;"/><line style="stroke:#808080;stroke-width:1.0;stroke-dasharray:2.0,2.0;" x1="468" x2="920.5" y1="857.5625" y2="857.5625"/><polygon fill="#A80036" points="745,883.9141,755,887.9141,745,891.9141,749,887.9141" style="stroke:#A80036;stroke-width:1.0;"/><line style="stroke:#A80036;stroke-width:1.0;" x1="463" x2="751" y1="887.9141" y2="887.9141"/><text fill="#000000" font-family="sans-serif" font-size="13" lengthAdjust="spacing" textLength="270" x="470" y="883.0576">dispatchSuccefullResultPlanProjectOperation()</text><polygon fill="#A80036" points="831,914.2656,841,918.2656,831,922.2656,835,918.2656" style="stroke:#A80036;stroke-width:1.0;"/><line style="stroke:#A80036;stroke-width:1.0;" x1="757" x2="837" y1="918.2656" y2="918.2656"/><text fill="#000000" font-family="sans-serif" font-size="13" lengthAdjust="spacing" textLength="62" x="764" y="913.4092">next(state)</text><polygon fill="#808080" points="768,928.2656,758,932.2656,768,936.2656,764,932.2656" style="stroke:#808080;stroke-width:1.0;"/><line style="stroke:#808080;stroke-width:1.0;stroke-dasharray:2.0,2.0;" x1="762" x2="842" y1="932.2656" y2="932.2656"/><polygon fill="#808080" points="474,942.2656,464,946.2656,474,950.2656,470,946.2656" style="stroke:#808080;stroke-width:1.0;"/><line style="stroke:#808080;stroke-width:1.0;stroke-dasharray:2.0,2.0;" x1="468" x2="756" y1="946.2656" y2="946.2656"/><polygon fill="#808080" points="241,956.2656,231,960.2656,241,964.2656,237,960.2656" style="stroke:#808080;stroke-width:1.0;"/><line style="stroke:#808080;stroke-width:1.0;stroke-dasharray:2.0,2.0;" x1="235" x2="462" y1="960.2656" y2="960.2656"/><line style="stroke:#A80036;stroke-width:1.0;" x1="230" x2="272" y1="990.6172" y2="990.6172"/><line style="stroke:#A80036;stroke-width:1.0;" x1="272" x2="272" y1="990.6172" y2="1003.6172"/><line style="stroke:#A80036;stroke-width:1.0;" x1="231" x2="272" y1="1003.6172" y2="1003.6172"/><polygon fill="#A80036" points="241,999.6172,231,1003.6172,241,1007.6172,237,1003.6172" style="stroke:#A80036;stroke-width:1.0;"/><text fill="#000000" font-family="sans-serif" font-size="13" lengthAdjust="spacing" textLength="219" x="237" y="985.7607">navigateByUrl("/project-management")</text><polygon fill="#808080" points="33,1029.9688,23,1033.9688,33,1037.9688,29,1033.9688" style="stroke:#808080;stroke-width:1.0;"/><line style="stroke:#808080;stroke-width:1.0;stroke-dasharray:2.0,2.0;" x1="27" x2="229" y1="1033.9688" y2="1033.9688"/><text fill="#000000" font-family="sans-serif" font-size="13" lengthAdjust="spacing" textLength="184" x="39" y="1029.1123">redirect to /project-management</text><!--MD5=[dcb59e333ba8b4bf824af4b37a6aedbf]
@startuml


skinparam {
    BoundaryBackgroundColor #629EF9
    BoundaryBorderColor black
    BoundaryFontSize 12
    BoundarySize 10
    ControlBackgroundColor #b5bd68
    ControlBorderColor #718c00
    EntityBackgroundColor #F2AC4E
    EntityBorderColor black
}


'https://plantuml.com/sequence-diagram
actor user

'View Component
entity XHtml <<Template>>
control XTypescript <<Component>>

'Controller
control XService as "XTypescript" <<Service>> <<in>>
control XViewModel as "XTypescript" <<ViewModel>> <<out>>
entity XState <<out>>

'Model
control XLogicService as "XController" <<TypeScript>>
entity XControllerResponse
boundary XRestRepository
boundary HTTPService
entity XModel
boundary XResource
control XBService
boundary XTSDao as "XRepository"
boundary XDto
entity XBuilder
entity XBEntity
control XMapper

'Backend

user -> XHtml : request \n plan project
XHtml -> XTypescript : planProject()
XTypescript -> XService : planProject(createProjectDto)
XService -> XLogicService : execute(createProjectDto)
XLogicService -> XRestRepository : create(createProjectDto)
XRestRepository -> HTTPService : post(endpoint, dto)
HTTPService -> XResource : HTTP POST JSON
XResource -> XBService :  planProject(planProjectDto)
XBService -> XDto : createProject()
XDto -> XBuilder : build()
XBuilder -> XBEntity : new
XBEntity -[#Gray]-> XBuilder
XBuilder -[#Gray]-> XDto
XDto -[#Gray]-> XBService : project
XBService -> XTSDao : save(project)
XTSDao -[#Gray]-> XBService
XBService -> XDto : mapToDto(project)
XDto -> XMapper : map(source, targetClass)
XMapper -[#Gray]-> XDto
XDto -[#Gray]-> XBService
XBService -[#Gray]-> XResource : projectDto
XResource -[#Gray]-> HTTPService : HTTP POST Response
HTTPService -> XModel : JSON.parse(response.body)
XModel -[#Gray]-> HTTPService : project
HTTPService -[#Gray]-> XRestRepository
XRestRepository -[#Gray]-> XLogicService
XLogicService -> XControllerResponse : createSuccess(project)
XControllerResponse -[#Gray]-> XLogicService : controllerResponse
XLogicService -[#Gray]-> XService
XService -> XViewModel : dispatchSuccefullResultPlanProjectOperation()
XViewModel -> XState : next(state)
XState -[#Gray]-> XViewModel
XViewModel -[#Gray]-> XService
XService -[#Gray]-> XTypescript
XTypescript -> XTypescript : navigateByUrl("/project-management")
XTypescript -[#Gray]-> user : redirect to /project-management

@enduml

@startuml


skinparam {
    BoundaryBackgroundColor #629EF9
    BoundaryBorderColor black
    BoundaryFontSize 12
    BoundarySize 10
    ControlBackgroundColor #b5bd68
    ControlBorderColor #718c00
    EntityBackgroundColor #F2AC4E
    EntityBorderColor black
}


actor user

entity XHtml <<Template>>
control XTypescript <<Component>>

control XService as "XTypescript" <<Service>> <<in>>
control XViewModel as "XTypescript" <<ViewModel>> <<out>>
entity XState <<out>>

control XLogicService as "XController" <<TypeScript>>
entity XControllerResponse
boundary XRestRepository
boundary HTTPService
entity XModel
boundary XResource
control XBService
boundary XTSDao as "XRepository"
boundary XDto
entity XBuilder
entity XBEntity
control XMapper


user -> XHtml : request \n plan project
XHtml -> XTypescript : planProject()
XTypescript -> XService : planProject(createProjectDto)
XService -> XLogicService : execute(createProjectDto)
XLogicService -> XRestRepository : create(createProjectDto)
XRestRepository -> HTTPService : post(endpoint, dto)
HTTPService -> XResource : HTTP POST JSON
XResource -> XBService :  planProject(planProjectDto)
XBService -> XDto : createProject()
XDto -> XBuilder : build()
XBuilder -> XBEntity : new
XBEntity -[#Gray]-> XBuilder
XBuilder -[#Gray]-> XDto
XDto -[#Gray]-> XBService : project
XBService -> XTSDao : save(project)
XTSDao -[#Gray]-> XBService
XBService -> XDto : mapToDto(project)
XDto -> XMapper : map(source, targetClass)
XMapper -[#Gray]-> XDto
XDto -[#Gray]-> XBService
XBService -[#Gray]-> XResource : projectDto
XResource -[#Gray]-> HTTPService : HTTP POST Response
HTTPService -> XModel : JSON.parse(response.body)
XModel -[#Gray]-> HTTPService : project
HTTPService -[#Gray]-> XRestRepository
XRestRepository -[#Gray]-> XLogicService
XLogicService -> XControllerResponse : createSuccess(project)
XControllerResponse -[#Gray]-> XLogicService : controllerResponse
XLogicService -[#Gray]-> XService
XService -> XViewModel : dispatchSuccefullResultPlanProjectOperation()
XViewModel -> XState : next(state)
XState -[#Gray]-> XViewModel
XViewModel -[#Gray]-> XService
XService -[#Gray]-> XTypescript
XTypescript -> XTypescript : navigateByUrl("/project-management")
XTypescript -[#Gray]-> user : redirect to /project-management

@enduml

PlantUML version 1.2021.11(Sat Oct 02 15:26:11 CEST 2021)
(GPL source distribution)
Java Runtime: OpenJDK Runtime Environment
JVM: OpenJDK 64-Bit Server VM
Default Encoding: Cp1252
Language: en
Country: GB
--></g></svg>