<?xml version="1.0" encoding="UTF-8" standalone="no"?><svg xmlns="http://www.w3.org/2000/svg" xmlns:xlink="http://www.w3.org/1999/xlink" contentScriptType="application/ecmascript" contentStyleType="text/css" height="796px" preserveAspectRatio="none" style="width:1809px;height:796px;background:#FFFFFF;" version="1.1" viewBox="0 0 1809 796" width="1809px" zoomAndPan="magnify"><defs><filter height="300%" id="for8esuoxozz4" width="300%" x="-1" y="-1"><feGaussianBlur result="blurOut" stdDeviation="2.0"/><feColorMatrix in="blurOut" result="blurOut2" type="matrix" values="0 0 0 0 0 0 0 0 0 0 0 0 0 0 0 0 0 0 .4 0"/><feOffset dx="4.0" dy="4.0" in="blurOut2" result="blurOut3"/><feBlend in="SourceGraphic" in2="blurOut3" mode="normal"/></filter></defs><g><rect fill="#FFFFFF" height="784.5781" style="stroke:#A80036;stroke-width:1.0;" width="45" x="1" y="6"/><rect fill="#DDFFE8" height="784.5781" style="stroke:#A80036;stroke-width:1.0;" width="1653.5" x="78.5" y="6"/><text fill="#000000" font-family="sans-serif" font-size="13" font-weight="bold" lengthAdjust="spacing" textLength="71" x="869.75" y="18.0669">Front End</text><rect fill="#DDF2FF" height="784.5781" style="stroke:#A80036;stroke-width:1.0;" width="69" x="1734" y="6"/><text fill="#000000" font-family="sans-serif" font-size="13" font-weight="bold" lengthAdjust="spacing" textLength="63" x="1737" y="18.0669">Backend</text><line style="stroke:#A80036;stroke-width:1.0;stroke-dasharray:5.0,5.0;" x1="23" x2="23" y1="106.0234" y2="704.2813"/><line style="stroke:#A80036;stroke-width:1.0;stroke-dasharray:5.0,5.0;" x1="128.5" x2="128.5" y1="106.0234" y2="704.2813"/><line style="stroke:#A80036;stroke-width:1.0;stroke-dasharray:5.0,5.0;" x1="259" x2="259" y1="106.0234" y2="704.2813"/><line style="stroke:#A80036;stroke-width:1.0;stroke-dasharray:5.0,5.0;" x1="529.5" x2="529.5" y1="106.0234" y2="704.2813"/><line style="stroke:#A80036;stroke-width:1.0;stroke-dasharray:5.0,5.0;" x1="855" x2="855" y1="106.0234" y2="704.2813"/><line style="stroke:#A80036;stroke-width:1.0;stroke-dasharray:5.0,5.0;" x1="951" x2="951" y1="106.0234" y2="704.2813"/><line style="stroke:#A80036;stroke-width:1.0;stroke-dasharray:5.0,5.0;" x1="1038" x2="1038" y1="106.0234" y2="704.2813"/><line style="stroke:#A80036;stroke-width:1.0;stroke-dasharray:5.0,5.0;" x1="1210" x2="1210" y1="106.0234" y2="704.2813"/><line style="stroke:#A80036;stroke-width:1.0;stroke-dasharray:5.0,5.0;" x1="1349" x2="1349" y1="106.0234" y2="704.2813"/><line style="stroke:#A80036;stroke-width:1.0;stroke-dasharray:5.0,5.0;" x1="1497.5" x2="1497.5" y1="106.0234" y2="704.2813"/><line style="stroke:#A80036;stroke-width:1.0;stroke-dasharray:5.0,5.0;" x1="1698" x2="1698" y1="106.0234" y2="704.2813"/><line style="stroke:#A80036;stroke-width:1.0;stroke-dasharray:5.0,5.0;" x1="1768.5" x2="1768.5" y1="106.0234" y2="704.2813"/><text fill="#000000" font-family="sans-serif" font-size="14" lengthAdjust="spacing" textLength="31" x="5" y="102.7217">user</text><ellipse cx="23.5" cy="32.7266" fill="#FEFECE" filter="url(#for8esuoxozz4)" rx="8" ry="8" style="stroke:#A80036;stroke-width:2.0;"/><path d="M23.5,40.7266 L23.5,67.7266 M10.5,48.7266 L36.5,48.7266 M23.5,67.7266 L10.5,82.7266 M23.5,67.7266 L36.5,82.7266 " fill="none" filter="url(#for8esuoxozz4)" style="stroke:#A80036;stroke-width:2.0;"/><text fill="#000000" font-family="sans-serif" font-size="14" lengthAdjust="spacing" textLength="31" x="5" y="716.2764">user</text><ellipse cx="23.5" cy="729.5781" fill="#FEFECE" filter="url(#for8esuoxozz4)" rx="8" ry="8" style="stroke:#A80036;stroke-width:2.0;"/><path d="M23.5,737.5781 L23.5,764.5781 M10.5,745.5781 L36.5,745.5781 M23.5,764.5781 L10.5,779.5781 M23.5,764.5781 L36.5,779.5781 " fill="none" filter="url(#for8esuoxozz4)" style="stroke:#A80036;stroke-width:2.0;"/><text fill="#000000" font-family="sans-serif" font-size="14" font-style="italic" lengthAdjust="spacing" textLength="86" x="82.5" y="86.4248">«Template»</text><text fill="#000000" font-family="sans-serif" font-size="14" lengthAdjust="spacing" textLength="44" x="103.5" y="102.7217">XHtml</text><ellipse cx="128.5" cy="57.4297" fill="#F2AC4E" filter="url(#for8esuoxozz4)" rx="12" ry="12" style="stroke:#000000;stroke-width:2.0;"/><line style="stroke:#000000;stroke-width:2.0;" x1="116.5" x2="140.5" y1="71.4297" y2="71.4297"/><text fill="#000000" font-family="sans-serif" font-size="14" font-style="italic" lengthAdjust="spacing" textLength="86" x="82.5" y="716.2764">«Template»</text><text fill="#000000" font-family="sans-serif" font-size="14" lengthAdjust="spacing" textLength="44" x="103.5" y="732.5732">XHtml</text><ellipse cx="128.5" cy="751.875" fill="#F2AC4E" filter="url(#for8esuoxozz4)" rx="12" ry="12" style="stroke:#000000;stroke-width:2.0;"/><line style="stroke:#000000;stroke-width:2.0;" x1="116.5" x2="140.5" y1="765.875" y2="765.875"/><text fill="#000000" font-family="sans-serif" font-size="14" font-style="italic" lengthAdjust="spacing" textLength="101" x="206" y="86.4248">«Component»</text><text fill="#000000" font-family="sans-serif" font-size="14" lengthAdjust="spacing" textLength="84" x="214.5" y="102.7217">XTypescript</text><ellipse cx="259.5" cy="57.4297" fill="#B5BD68" filter="url(#for8esuoxozz4)" rx="12" ry="12" style="stroke:#718C00;stroke-width:2.0;"/><polygon fill="#718C00" points="255.5,45.4297,261.5,40.4297,259.5,45.4297,261.5,50.4297,255.5,45.4297" style="stroke:#718C00;stroke-width:1.0;"/><text fill="#000000" font-family="sans-serif" font-size="14" font-style="italic" lengthAdjust="spacing" textLength="101" x="206" y="716.2764">«Component»</text><text fill="#000000" font-family="sans-serif" font-size="14" lengthAdjust="spacing" textLength="84" x="214.5" y="732.5732">XTypescript</text><ellipse cx="259.5" cy="751.875" fill="#B5BD68" filter="url(#for8esuoxozz4)" rx="12" ry="12" style="stroke:#718C00;stroke-width:2.0;"/><polygon fill="#718C00" points="255.5,739.875,261.5,734.875,259.5,739.875,261.5,744.875,255.5,739.875" style="stroke:#718C00;stroke-width:1.0;"/><text fill="#000000" font-family="sans-serif" font-size="14" font-style="italic" lengthAdjust="spacing" textLength="71" x="491" y="70.1279">«Service»</text><text fill="#000000" font-family="sans-serif" font-size="14" font-style="italic" lengthAdjust="spacing" textLength="31" x="511" y="86.4248">«in»</text><text fill="#000000" font-family="sans-serif" font-size="14" lengthAdjust="spacing" textLength="84" x="484.5" y="102.7217">XTypescript</text><ellipse cx="529.5" cy="41.1328" fill="#B5BD68" filter="url(#for8esuoxozz4)" rx="12" ry="12" style="stroke:#718C00;stroke-width:2.0;"/><polygon fill="#718C00" points="525.5,29.1328,531.5,24.1328,529.5,29.1328,531.5,34.1328,525.5,29.1328" style="stroke:#718C00;stroke-width:1.0;"/><text fill="#000000" font-family="sans-serif" font-size="14" font-style="italic" lengthAdjust="spacing" textLength="71" x="491" y="716.2764">«Service»</text><text fill="#000000" font-family="sans-serif" font-size="14" font-style="italic" lengthAdjust="spacing" textLength="31" x="511" y="732.5732">«in»</text><text fill="#000000" font-family="sans-serif" font-size="14" lengthAdjust="spacing" textLength="84" x="484.5" y="748.8701">XTypescript</text><ellipse cx="529.5" cy="768.1719" fill="#B5BD68" filter="url(#for8esuoxozz4)" rx="12" ry="12" style="stroke:#718C00;stroke-width:2.0;"/><polygon fill="#718C00" points="525.5,756.1719,531.5,751.1719,529.5,756.1719,531.5,761.1719,525.5,756.1719" style="stroke:#718C00;stroke-width:1.0;"/><text fill="#000000" font-family="sans-serif" font-size="14" font-style="italic" lengthAdjust="spacing" textLength="95" x="805" y="70.1279">«ViewModel»</text><text fill="#000000" font-family="sans-serif" font-size="14" font-style="italic" lengthAdjust="spacing" textLength="41" x="832" y="86.4248">«out»</text><text fill="#000000" font-family="sans-serif" font-size="14" lengthAdjust="spacing" textLength="84" x="810.5" y="102.7217">XTypescript</text><ellipse cx="855.5" cy="41.1328" fill="#B5BD68" filter="url(#for8esuoxozz4)" rx="12" ry="12" style="stroke:#718C00;stroke-width:2.0;"/><polygon fill="#718C00" points="851.5,29.1328,857.5,24.1328,855.5,29.1328,857.5,34.1328,851.5,29.1328" style="stroke:#718C00;stroke-width:1.0;"/><text fill="#000000" font-family="sans-serif" font-size="14" font-style="italic" lengthAdjust="spacing" textLength="95" x="805" y="716.2764">«ViewModel»</text><text fill="#000000" font-family="sans-serif" font-size="14" font-style="italic" lengthAdjust="spacing" textLength="41" x="832" y="732.5732">«out»</text><text fill="#000000" font-family="sans-serif" font-size="14" lengthAdjust="spacing" textLength="84" x="810.5" y="748.8701">XTypescript</text><ellipse cx="855.5" cy="768.1719" fill="#B5BD68" filter="url(#for8esuoxozz4)" rx="12" ry="12" style="stroke:#718C00;stroke-width:2.0;"/><polygon fill="#718C00" points="851.5,756.1719,857.5,751.1719,855.5,756.1719,857.5,761.1719,851.5,756.1719" style="stroke:#718C00;stroke-width:1.0;"/><text fill="#000000" font-family="sans-serif" font-size="14" font-style="italic" lengthAdjust="spacing" textLength="41" x="928" y="86.4248">«out»</text><text fill="#000000" font-family="sans-serif" font-size="14" lengthAdjust="spacing" textLength="47" x="925" y="102.7217">XState</text><ellipse cx="951.5" cy="57.4297" fill="#F2AC4E" filter="url(#for8esuoxozz4)" rx="12" ry="12" style="stroke:#000000;stroke-width:2.0;"/><line style="stroke:#000000;stroke-width:2.0;" x1="939.5" x2="963.5" y1="71.4297" y2="71.4297"/><text fill="#000000" font-family="sans-serif" font-size="14" font-style="italic" lengthAdjust="spacing" textLength="41" x="928" y="716.2764">«out»</text><text fill="#000000" font-family="sans-serif" font-size="14" lengthAdjust="spacing" textLength="47" x="925" y="732.5732">XState</text><ellipse cx="951.5" cy="751.875" fill="#F2AC4E" filter="url(#for8esuoxozz4)" rx="12" ry="12" style="stroke:#000000;stroke-width:2.0;"/><line style="stroke:#000000;stroke-width:2.0;" x1="939.5" x2="963.5" y1="765.875" y2="765.875"/><text fill="#000000" font-family="sans-serif" font-size="14" font-style="italic" lengthAdjust="spacing" textLength="94" x="988" y="86.4248">«TypeScript»</text><text fill="#000000" font-family="sans-serif" font-size="14" lengthAdjust="spacing" textLength="81" x="994.5" y="102.7217">XController</text><ellipse cx="1038" cy="57.4297" fill="#B5BD68" filter="url(#for8esuoxozz4)" rx="12" ry="12" style="stroke:#718C00;stroke-width:2.0;"/><polygon fill="#718C00" points="1034,45.4297,1040,40.4297,1038,45.4297,1040,50.4297,1034,45.4297" style="stroke:#718C00;stroke-width:1.0;"/><text fill="#000000" font-family="sans-serif" font-size="14" font-style="italic" lengthAdjust="spacing" textLength="94" x="988" y="716.2764">«TypeScript»</text><text fill="#000000" font-family="sans-serif" font-size="14" lengthAdjust="spacing" textLength="81" x="994.5" y="732.5732">XController</text><ellipse cx="1038" cy="751.875" fill="#B5BD68" filter="url(#for8esuoxozz4)" rx="12" ry="12" style="stroke:#718C00;stroke-width:2.0;"/><polygon fill="#718C00" points="1034,739.875,1040,734.875,1038,739.875,1040,744.875,1034,739.875" style="stroke:#718C00;stroke-width:1.0;"/><text fill="#000000" font-family="sans-serif" font-size="14" lengthAdjust="spacing" textLength="150" x="1132" y="102.7217">XControllerResponse</text><ellipse cx="1210" cy="73.7266" fill="#F2AC4E" filter="url(#for8esuoxozz4)" rx="12" ry="12" style="stroke:#000000;stroke-width:2.0;"/><line style="stroke:#000000;stroke-width:2.0;" x1="1198" x2="1222" y1="87.7266" y2="87.7266"/><text fill="#000000" font-family="sans-serif" font-size="14" lengthAdjust="spacing" textLength="150" x="1132" y="716.2764">XControllerResponse</text><ellipse cx="1210" cy="735.5781" fill="#F2AC4E" filter="url(#for8esuoxozz4)" rx="12" ry="12" style="stroke:#000000;stroke-width:2.0;"/><line style="stroke:#000000;stroke-width:2.0;" x1="1198" x2="1222" y1="749.5781" y2="749.5781"/><text fill="#000000" font-family="sans-serif" font-size="12" lengthAdjust="spacing" textLength="97" x="1298" y="103.1934">XRestRepository</text><path d="M1329,64.0547 L1329,88.0547 M1329,76.0547 L1346,76.0547 " fill="none" filter="url(#for8esuoxozz4)" style="stroke:#000000;stroke-width:2.0;"/><ellipse cx="1358" cy="76.0547" fill="#629EF9" filter="url(#for8esuoxozz4)" rx="12" ry="12" style="stroke:#000000;stroke-width:2.0;"/><text fill="#000000" font-family="sans-serif" font-size="12" lengthAdjust="spacing" textLength="97" x="1298" y="714.4199">XRestRepository</text><path d="M1329,721.25 L1329,745.25 M1329,733.25 L1346,733.25 " fill="none" filter="url(#for8esuoxozz4)" style="stroke:#000000;stroke-width:2.0;"/><ellipse cx="1358" cy="733.25" fill="#629EF9" filter="url(#for8esuoxozz4)" rx="12" ry="12" style="stroke:#000000;stroke-width:2.0;"/><text fill="#000000" font-family="sans-serif" font-size="12" lengthAdjust="spacing" textLength="74" x="1457.5" y="103.1934">HTTPService</text><path d="M1477,64.0547 L1477,88.0547 M1477,76.0547 L1494,76.0547 " fill="none" filter="url(#for8esuoxozz4)" style="stroke:#000000;stroke-width:2.0;"/><ellipse cx="1506" cy="76.0547" fill="#629EF9" filter="url(#for8esuoxozz4)" rx="12" ry="12" style="stroke:#000000;stroke-width:2.0;"/><text fill="#000000" font-family="sans-serif" font-size="12" lengthAdjust="spacing" textLength="74" x="1457.5" y="714.4199">HTTPService</text><path d="M1477,721.25 L1477,745.25 M1477,733.25 L1494,733.25 " fill="none" filter="url(#for8esuoxozz4)" style="stroke:#000000;stroke-width:2.0;"/><ellipse cx="1506" cy="733.25" fill="#629EF9" filter="url(#for8esuoxozz4)" rx="12" ry="12" style="stroke:#000000;stroke-width:2.0;"/><text fill="#000000" font-family="sans-serif" font-size="14" lengthAdjust="spacing" textLength="53" x="1669" y="102.7217">XModel</text><ellipse cx="1698.5" cy="73.7266" fill="#F2AC4E" filter="url(#for8esuoxozz4)" rx="12" ry="12" style="stroke:#000000;stroke-width:2.0;"/><line style="stroke:#000000;stroke-width:2.0;" x1="1686.5" x2="1710.5" y1="87.7266" y2="87.7266"/><text fill="#000000" font-family="sans-serif" font-size="14" lengthAdjust="spacing" textLength="53" x="1669" y="716.2764">XModel</text><ellipse cx="1698.5" cy="735.5781" fill="#F2AC4E" filter="url(#for8esuoxozz4)" rx="12" ry="12" style="stroke:#000000;stroke-width:2.0;"/><line style="stroke:#000000;stroke-width:2.0;" x1="1686.5" x2="1710.5" y1="749.5781" y2="749.5781"/><text fill="#000000" font-family="sans-serif" font-size="12" lengthAdjust="spacing" textLength="52" x="1739.5" y="103.1934">Backend</text><path d="M1748,64.0547 L1748,88.0547 M1748,76.0547 L1765,76.0547 " fill="none" filter="url(#for8esuoxozz4)" style="stroke:#000000;stroke-width:2.0;"/><ellipse cx="1777" cy="76.0547" fill="#629EF9" filter="url(#for8esuoxozz4)" rx="12" ry="12" style="stroke:#000000;stroke-width:2.0;"/><text fill="#000000" font-family="sans-serif" font-size="12" lengthAdjust="spacing" textLength="52" x="1739.5" y="714.4199">Backend</text><path d="M1748,721.25 L1748,745.25 M1748,733.25 L1765,733.25 " fill="none" filter="url(#for8esuoxozz4)" style="stroke:#000000;stroke-width:2.0;"/><ellipse cx="1777" cy="733.25" fill="#629EF9" filter="url(#for8esuoxozz4)" rx="12" ry="12" style="stroke:#000000;stroke-width:2.0;"/><polygon fill="#A80036" points="116.5,148.2891,126.5,152.2891,116.5,156.2891,120.5,152.2891" style="stroke:#A80036;stroke-width:1.0;"/><line style="stroke:#A80036;stroke-width:1.0;" x1="23.5" x2="122.5" y1="152.2891" y2="152.2891"/><text fill="#000000" font-family="sans-serif" font-size="13" lengthAdjust="spacing" textLength="49" x="30.5" y="132.0903">request</text><text fill="#000000" font-family="sans-serif" font-size="13" lengthAdjust="spacing" textLength="77" x="34.5" y="147.2231">plan project</text><polygon fill="#A80036" points="247.5,177.4219,257.5,181.4219,247.5,185.4219,251.5,181.4219" style="stroke:#A80036;stroke-width:1.0;"/><line style="stroke:#A80036;stroke-width:1.0;" x1="128.5" x2="253.5" y1="181.4219" y2="181.4219"/><text fill="#000000" font-family="sans-serif" font-size="13" lengthAdjust="spacing" textLength="83" x="135.5" y="176.356">planProject()</text><polygon fill="#A80036" points="517.5,206.5547,527.5,210.5547,517.5,214.5547,521.5,210.5547" style="stroke:#A80036;stroke-width:1.0;"/><line style="stroke:#A80036;stroke-width:1.0;" x1="259.5" x2="523.5" y1="210.5547" y2="210.5547"/><text fill="#000000" font-family="sans-serif" font-size="13" lengthAdjust="spacing" textLength="192" x="266.5" y="205.4888">planProject(createProjectDto)</text><polygon fill="#A80036" points="1026,235.6875,1036,239.6875,1026,243.6875,1030,239.6875" style="stroke:#A80036;stroke-width:1.0;"/><line style="stroke:#A80036;stroke-width:1.0;" x1="529.5" x2="1032" y1="239.6875" y2="239.6875"/><text fill="#000000" font-family="sans-serif" font-size="13" lengthAdjust="spacing" textLength="171" x="536.5" y="234.6216">execute(createProjectDto)</text><polygon fill="#A80036" points="1337.5,264.8203,1347.5,268.8203,1337.5,272.8203,1341.5,268.8203" style="stroke:#A80036;stroke-width:1.0;"/><line style="stroke:#A80036;stroke-width:1.0;" x1="1038" x2="1343.5" y1="268.8203" y2="268.8203"/><text fill="#000000" font-family="sans-serif" font-size="13" lengthAdjust="spacing" textLength="160" x="1045" y="263.7544">create(createProjectDto)</text><polygon fill="#A80036" points="1485.5,293.9531,1495.5,297.9531,1485.5,301.9531,1489.5,297.9531" style="stroke:#A80036;stroke-width:1.0;"/><line style="stroke:#A80036;stroke-width:1.0;" x1="1349.5" x2="1491.5" y1="297.9531" y2="297.9531"/><text fill="#000000" font-family="sans-serif" font-size="13" lengthAdjust="spacing" textLength="124" x="1356.5" y="292.8872">post(endpoint, dto)</text><polygon fill="#A80036" points="1756.5,323.0859,1766.5,327.0859,1756.5,331.0859,1760.5,327.0859" style="stroke:#A80036;stroke-width:1.0;"/><line style="stroke:#A80036;stroke-width:1.0;stroke-dasharray:2.0,2.0;" x1="1497.5" x2="1762.5" y1="327.0859" y2="327.0859"/><text fill="#000000" font-family="sans-serif" font-size="13" lengthAdjust="spacing" textLength="108" x="1504.5" y="322.02">HTTP POST JSON</text><polygon fill="#808080" points="1508.5,352.2188,1498.5,356.2188,1508.5,360.2188,1504.5,356.2188" style="stroke:#808080;stroke-width:1.0;"/><line style="stroke:#808080;stroke-width:1.0;stroke-dasharray:2.0,2.0;" x1="1502.5" x2="1767.5" y1="356.2188" y2="356.2188"/><text fill="#000000" font-family="sans-serif" font-size="13" lengthAdjust="spacing" textLength="139" x="1514.5" y="351.1528">HTTP POST Response</text><polygon fill="#A80036" points="1686.5,381.3516,1696.5,385.3516,1686.5,389.3516,1690.5,385.3516" style="stroke:#A80036;stroke-width:1.0;"/><line style="stroke:#A80036;stroke-width:1.0;" x1="1497.5" x2="1692.5" y1="385.3516" y2="385.3516"/><text fill="#000000" font-family="sans-serif" font-size="13" lengthAdjust="spacing" textLength="177" x="1504.5" y="380.2856">JSON.parse(response.body)</text><polygon fill="#808080" points="1508.5,410.4844,1498.5,414.4844,1508.5,418.4844,1504.5,414.4844" style="stroke:#808080;stroke-width:1.0;"/><line style="stroke:#808080;stroke-width:1.0;stroke-dasharray:2.0,2.0;" x1="1502.5" x2="1697.5" y1="414.4844" y2="414.4844"/><text fill="#000000" font-family="sans-serif" font-size="13" lengthAdjust="spacing" textLength="45" x="1514.5" y="409.4185">project</text><polygon fill="#808080" points="1360.5,424.4844,1350.5,428.4844,1360.5,432.4844,1356.5,428.4844" style="stroke:#808080;stroke-width:1.0;"/><line style="stroke:#808080;stroke-width:1.0;stroke-dasharray:2.0,2.0;" x1="1354.5" x2="1496.5" y1="428.4844" y2="428.4844"/><polygon fill="#808080" points="1049,438.4844,1039,442.4844,1049,446.4844,1045,442.4844" style="stroke:#808080;stroke-width:1.0;"/><line style="stroke:#808080;stroke-width:1.0;stroke-dasharray:2.0,2.0;" x1="1043" x2="1348.5" y1="442.4844" y2="442.4844"/><polygon fill="#A80036" points="1198,467.6172,1208,471.6172,1198,475.6172,1202,471.6172" style="stroke:#A80036;stroke-width:1.0;"/><line style="stroke:#A80036;stroke-width:1.0;" x1="1038" x2="1204" y1="471.6172" y2="471.6172"/><text fill="#000000" font-family="sans-serif" font-size="13" lengthAdjust="spacing" textLength="148" x="1045" y="466.5513">createSuccess(project)</text><polygon fill="#808080" points="1049,496.75,1039,500.75,1049,504.75,1045,500.75" style="stroke:#808080;stroke-width:1.0;"/><line style="stroke:#808080;stroke-width:1.0;stroke-dasharray:2.0,2.0;" x1="1043" x2="1209" y1="500.75" y2="500.75"/><text fill="#000000" font-family="sans-serif" font-size="13" lengthAdjust="spacing" textLength="125" x="1055" y="495.6841">controllerResponse</text><polygon fill="#808080" points="540.5,510.75,530.5,514.75,540.5,518.75,536.5,514.75" style="stroke:#808080;stroke-width:1.0;"/><line style="stroke:#808080;stroke-width:1.0;stroke-dasharray:2.0,2.0;" x1="534.5" x2="1037" y1="514.75" y2="514.75"/><polygon fill="#A80036" points="843.5,539.8828,853.5,543.8828,843.5,547.8828,847.5,543.8828" style="stroke:#A80036;stroke-width:1.0;"/><line style="stroke:#A80036;stroke-width:1.0;" x1="529.5" x2="849.5" y1="543.8828" y2="543.8828"/><text fill="#000000" font-family="sans-serif" font-size="13" lengthAdjust="spacing" textLength="302" x="536.5" y="538.8169">dispatchSuccefullResultPlanProjectOperation()</text><polygon fill="#A80036" points="939.5,569.0156,949.5,573.0156,939.5,577.0156,943.5,573.0156" style="stroke:#A80036;stroke-width:1.0;"/><line style="stroke:#A80036;stroke-width:1.0;" x1="855.5" x2="945.5" y1="573.0156" y2="573.0156"/><text fill="#000000" font-family="sans-serif" font-size="13" lengthAdjust="spacing" textLength="72" x="862.5" y="567.9497">next(state)</text><polygon fill="#808080" points="866.5,583.0156,856.5,587.0156,866.5,591.0156,862.5,587.0156" style="stroke:#808080;stroke-width:1.0;"/><line style="stroke:#808080;stroke-width:1.0;stroke-dasharray:2.0,2.0;" x1="860.5" x2="950.5" y1="587.0156" y2="587.0156"/><polygon fill="#808080" points="540.5,597.0156,530.5,601.0156,540.5,605.0156,536.5,601.0156" style="stroke:#808080;stroke-width:1.0;"/><line style="stroke:#808080;stroke-width:1.0;stroke-dasharray:2.0,2.0;" x1="534.5" x2="854.5" y1="601.0156" y2="601.0156"/><polygon fill="#808080" points="270.5,611.0156,260.5,615.0156,270.5,619.0156,266.5,615.0156" style="stroke:#808080;stroke-width:1.0;"/><line style="stroke:#808080;stroke-width:1.0;stroke-dasharray:2.0,2.0;" x1="264.5" x2="528.5" y1="615.0156" y2="615.0156"/><line style="stroke:#A80036;stroke-width:1.0;" x1="259.5" x2="301.5" y1="644.1484" y2="644.1484"/><line style="stroke:#A80036;stroke-width:1.0;" x1="301.5" x2="301.5" y1="644.1484" y2="657.1484"/><line style="stroke:#A80036;stroke-width:1.0;" x1="260.5" x2="301.5" y1="657.1484" y2="657.1484"/><polygon fill="#A80036" points="270.5,653.1484,260.5,657.1484,270.5,661.1484,266.5,657.1484" style="stroke:#A80036;stroke-width:1.0;"/><text fill="#000000" font-family="sans-serif" font-size="13" lengthAdjust="spacing" textLength="256" x="266.5" y="639.0825">navigateByUrl("/project-management")</text><polygon fill="#808080" points="34.5,682.2813,24.5,686.2813,34.5,690.2813,30.5,686.2813" style="stroke:#808080;stroke-width:1.0;"/><line style="stroke:#808080;stroke-width:1.0;stroke-dasharray:2.0,2.0;" x1="28.5" x2="258.5" y1="686.2813" y2="686.2813"/><text fill="#000000" font-family="sans-serif" font-size="13" lengthAdjust="spacing" textLength="212" x="40.5" y="681.2153">redirect to /project-management</text><!--MD5=[235277cc6fff20f60d28e3f9dbd87918]
@startuml


skinparam {
    BoundaryBackgroundColor #629EF9
    BoundaryBorderColor black
    BoundaryFontSize 12
    BoundarySize 10
    ControlBackgroundColor #b5bd68
    ControlBorderColor #718c00
    EntityBackgroundColor #F2AC4E
    EntityBorderColor black
    backgroundColor white
}
box "Front End" #DDFFE8
box #white
    actor user
end box
box "Front End" #DDFFE8


    entity XHtml <<Template>>
    control XTypescript <<Component>>

    control XService as "XTypescript" <<Service>> <<in>>
    control XViewModel as "XTypescript" <<ViewModel>> <<out>>
    entity XState <<out>>

    control XLogicService as "XController" <<TypeScript>>
    entity XControllerResponse
    boundary XRestRepository
    boundary HTTPService
    entity XModel
end box

box "Backend" #DDF2FF
    boundary Backend

end box

user -> XHtml : request \n plan project
XHtml -> XTypescript : planProject()
XTypescript -> XService : planProject(createProjectDto)
XService -> XLogicService : execute(createProjectDto)
XLogicService -> XRestRepository : create(createProjectDto)
XRestRepository -> HTTPService : post(endpoint, dto)
HTTPService - -> Backend : HTTP POST JSON

Backend -[#Gray]-> HTTPService : HTTP POST Response
HTTPService -> XModel : JSON.parse(response.body)
XModel -[#Gray]-> HTTPService : project
HTTPService -[#Gray]-> XRestRepository
XRestRepository -[#Gray]-> XLogicService
XLogicService -> XControllerResponse : createSuccess(project)
XControllerResponse -[#Gray]-> XLogicService : controllerResponse
XLogicService -[#Gray]-> XService
XService -> XViewModel : dispatchSuccefullResultPlanProjectOperation()
XViewModel -> XState : next(state)
XState -[#Gray]-> XViewModel
XViewModel -[#Gray]-> XService
XService -[#Gray]-> XTypescript
XTypescript -> XTypescript : navigateByUrl("/project-management")
XTypescript -[#Gray]-> user : redirect to /project-management

@enduml

PlantUML version 1.2021.11(Sat Oct 02 15:26:11 CEST 2021)
(GPL source distribution)
Java Runtime: OpenJDK Runtime Environment
JVM: OpenJDK 64-Bit Server VM
Default Encoding: UTF-8
Language: en
Country: US
--></g></svg>